<?xml version="1.0" encoding="UTF-8" standalone="no"?>
<!DOCTYPE svg PUBLIC "-//W3C//DTD SVG 1.1//EN"
 "http://www.w3.org/Graphics/SVG/1.1/DTD/svg11.dtd">
<!-- Generated by graphviz version 2.40.1 (20161225.0304)
 -->
<!-- Title: sk_group_business_hour_weeks Pages: 1 -->
<svg width="725pt" height="1882pt"
 viewBox="0.00 0.00 724.50 1882.00" xmlns="http://www.w3.org/2000/svg" xmlns:xlink="http://www.w3.org/1999/xlink">
<g id="graph0" class="graph" transform="scale(1 1) rotate(0) translate(4 1878)">
<title>sk_group_business_hour_weeks</title>
<polygon fill="#ffffff" stroke="transparent" points="-4,4 -4,-1878 720.5,-1878 720.5,4 -4,4"/>
<!-- sk_group_business_hour_weeks -->
<g id="node1" class="node">
<title>sk_group_business_hour_weeks</title>
<polygon fill="#efefef" stroke="transparent" points="46.5,-1792.5 46.5,-1827.5 449.5,-1827.5 449.5,-1792.5 46.5,-1792.5"/>
<polygon fill="none" stroke="#000000" points="46.5,-1792.5 46.5,-1827.5 449.5,-1827.5 449.5,-1792.5 46.5,-1792.5"/>
<text text-anchor="start" x="53.1769" y="-1805.3" font-family="Arial Bold" font-size="18.00" fill="#000000">sk_group_business_hour_weeks</text>
<text text-anchor="start" x="315.2551" y="-1805.3" font-family="Arial" font-size="14.00" fill="#000000">    </text>
<text text-anchor="start" x="349.4599" y="-1805.3" font-family="Arial" font-size="14.00" fill="#666666">[BASE TABLE]</text>
<polygon fill="none" stroke="#000000" points="46.5,-1762.5 46.5,-1792.5 449.5,-1792.5 449.5,-1762.5 46.5,-1762.5"/>
<text text-anchor="start" x="53.5" y="-1773.9" font-family="Arial" font-size="14.00" fill="#000000">id </text>
<text text-anchor="start" x="68.2798" y="-1773.9" font-family="Arial" font-size="14.00" fill="#666666">[int(11)]</text>
<polygon fill="none" stroke="#000000" points="46.5,-1732.5 46.5,-1762.5 449.5,-1762.5 449.5,-1732.5 46.5,-1732.5"/>
<text text-anchor="start" x="53.5" y="-1743.9" font-family="Arial" font-size="14.00" fill="#000000">group_id </text>
<text text-anchor="start" x="111.8534" y="-1743.9" font-family="Arial" font-size="14.00" fill="#666666">[int(11) unsigned]</text>
<polygon fill="none" stroke="#000000" points="46.5,-1702.5 46.5,-1732.5 449.5,-1732.5 449.5,-1702.5 46.5,-1702.5"/>
<text text-anchor="start" x="53.5" y="-1713.9" font-family="Arial" font-size="14.00" fill="#000000">week_type </text>
<text text-anchor="start" x="124.3008" y="-1713.9" font-family="Arial" font-size="14.00" fill="#666666">[smallint(6)]</text>
<polygon fill="none" stroke="#000000" points="46.5,-1672.5 46.5,-1702.5 449.5,-1702.5 449.5,-1672.5 46.5,-1672.5"/>
<text text-anchor="start" x="53.5" y="-1683.9" font-family="Arial" font-size="14.00" fill="#000000">first_time </text>
<text text-anchor="start" x="114.162" y="-1683.9" font-family="Arial" font-size="14.00" fill="#666666">[time]</text>
<polygon fill="none" stroke="#000000" points="46.5,-1642.5 46.5,-1672.5 449.5,-1672.5 449.5,-1642.5 46.5,-1642.5"/>
<text text-anchor="start" x="53.5" y="-1653.9" font-family="Arial" font-size="14.00" fill="#000000">last_time </text>
<text text-anchor="start" x="113.3934" y="-1653.9" font-family="Arial" font-size="14.00" fill="#666666">[time]</text>
<polygon fill="none" stroke="#000000" stroke-width="3" points="44.5,-1641.5 44.5,-1829.5 450.5,-1829.5 450.5,-1641.5 44.5,-1641.5"/>
</g>
<!-- sk_groups -->
<g id="node2" class="node">
<title>sk_groups</title>
<polygon fill="#efefef" stroke="transparent" points="55.5,-1482.5 55.5,-1517.5 441.5,-1517.5 441.5,-1482.5 55.5,-1482.5"/>
<polygon fill="none" stroke="#000000" points="55.5,-1482.5 55.5,-1517.5 441.5,-1517.5 441.5,-1482.5 55.5,-1482.5"/>
<text text-anchor="start" x="143.2044" y="-1495.3" font-family="Arial Bold" font-size="18.00" fill="#000000">sk_groups</text>
<text text-anchor="start" x="226.2276" y="-1495.3" font-family="Arial" font-size="14.00" fill="#000000">    </text>
<text text-anchor="start" x="260.4324" y="-1495.3" font-family="Arial" font-size="14.00" fill="#666666">[BASE TABLE]</text>
<polygon fill="none" stroke="#000000" points="55.5,-1452.5 55.5,-1482.5 441.5,-1482.5 441.5,-1452.5 55.5,-1452.5"/>
<text text-anchor="start" x="62.5" y="-1463.9" font-family="Arial" font-size="14.00" fill="#000000">id    </text>
<text text-anchor="start" x="107.594" y="-1463.9" font-family="Arial" font-size="14.00" fill="#666666">[int(11) unsigned]</text>
<polygon fill="none" stroke="#000000" points="55.5,-1422.5 55.5,-1452.5 441.5,-1452.5 441.5,-1422.5 55.5,-1422.5"/>
<text text-anchor="start" x="62.5" y="-1433.9" font-family="Arial" font-size="14.00" fill="#000000">name    </text>
<text text-anchor="start" x="131.7132" y="-1433.9" font-family="Arial" font-size="14.00" fill="#666666">[varchar(255)]</text>
<polygon fill="none" stroke="#000000" points="55.5,-1392.5 55.5,-1422.5 441.5,-1422.5 441.5,-1392.5 55.5,-1392.5"/>
<text text-anchor="start" x="62.5" y="-1403.9" font-family="Arial" font-size="14.00" fill="#000000">lessor_parent_id    </text>
<text text-anchor="start" x="200.1732" y="-1403.9" font-family="Arial" font-size="14.00" fill="#666666">[int(11) unsigned]</text>
<polygon fill="none" stroke="#000000" points="55.5,-1362.5 55.5,-1392.5 441.5,-1392.5 441.5,-1362.5 55.5,-1362.5"/>
<text text-anchor="start" x="62.5" y="-1373.9" font-family="Arial" font-size="14.00" fill="#000000">subscription_id    </text>
<text text-anchor="start" x="190.054" y="-1373.9" font-family="Arial" font-size="14.00" fill="#666666">[int(11) unsigned]</text>
<polygon fill="none" stroke="#000000" points="55.5,-1332.5 55.5,-1362.5 441.5,-1362.5 441.5,-1332.5 55.5,-1332.5"/>
<text text-anchor="start" x="62.5" y="-1343.9" font-family="Arial" font-size="14.00" fill="#000000">payment_type    </text>
<text text-anchor="start" x="184.6248" y="-1343.9" font-family="Arial" font-size="14.00" fill="#666666">[smallint(6)]</text>
<polygon fill="none" stroke="#000000" points="55.5,-1302.5 55.5,-1332.5 441.5,-1332.5 441.5,-1302.5 55.5,-1302.5"/>
<text text-anchor="start" x="62.5" y="-1313.9" font-family="Arial" font-size="14.00" fill="#000000">discount_type    </text>
<text text-anchor="start" x="183.0708" y="-1313.9" font-family="Arial" font-size="14.00" fill="#666666">[smallint(6)]</text>
<polygon fill="none" stroke="#000000" points="55.5,-1272.5 55.5,-1302.5 441.5,-1302.5 441.5,-1272.5 55.5,-1272.5"/>
<text text-anchor="start" x="62.5" y="-1283.9" font-family="Arial" font-size="14.00" fill="#000000">discount_name    </text>
<text text-anchor="start" x="191.6234" y="-1283.9" font-family="Arial" font-size="14.00" fill="#666666">[varchar(255)]</text>
<polygon fill="none" stroke="#000000" points="55.5,-1242.5 55.5,-1272.5 441.5,-1272.5 441.5,-1242.5 55.5,-1242.5"/>
<text text-anchor="start" x="62.5" y="-1253.9" font-family="Arial" font-size="14.00" fill="#000000">discount_rate    </text>
<text text-anchor="start" x="180.7314" y="-1253.9" font-family="Arial" font-size="14.00" fill="#666666">[smallint(3)]</text>
<polygon fill="none" stroke="#000000" points="55.5,-1212.5 55.5,-1242.5 441.5,-1242.5 441.5,-1212.5 55.5,-1212.5"/>
<text text-anchor="start" x="62.5" y="-1223.9" font-family="Arial" font-size="14.00" fill="#000000">discount_price    </text>
<text text-anchor="start" x="186.9474" y="-1223.9" font-family="Arial" font-size="14.00" fill="#666666">[int(11)]</text>
<polygon fill="none" stroke="#000000" points="55.5,-1182.5 55.5,-1212.5 441.5,-1212.5 441.5,-1182.5 55.5,-1182.5"/>
<text text-anchor="start" x="62.5" y="-1193.9" font-family="Arial" font-size="14.00" fill="#000000">payment_method    </text>
<text text-anchor="start" x="204.8506" y="-1193.9" font-family="Arial" font-size="14.00" fill="#666666">[smallint(2)]</text>
<polygon fill="none" stroke="#000000" points="55.5,-1152.5 55.5,-1182.5 441.5,-1182.5 441.5,-1152.5 55.5,-1152.5"/>
<text text-anchor="start" x="62.5" y="-1163.9" font-family="Arial" font-size="14.00" fill="#000000">bank_name    </text>
<text text-anchor="start" x="169.8436" y="-1163.9" font-family="Arial" font-size="14.00" fill="#666666">[varchar(200)]</text>
<polygon fill="none" stroke="#000000" points="55.5,-1122.5 55.5,-1152.5 441.5,-1152.5 441.5,-1122.5 55.5,-1122.5"/>
<text text-anchor="start" x="62.5" y="-1133.9" font-family="Arial" font-size="14.00" fill="#000000">bank_branch_name    </text>
<text text-anchor="start" x="220.4172" y="-1133.9" font-family="Arial" font-size="14.00" fill="#666666">[varchar(200)]</text>
<polygon fill="none" stroke="#000000" points="55.5,-1092.5 55.5,-1122.5 441.5,-1122.5 441.5,-1092.5 55.5,-1092.5"/>
<text text-anchor="start" x="62.5" y="-1103.9" font-family="Arial" font-size="14.00" fill="#000000">bank_account_type    </text>
<text text-anchor="start" x="218.0946" y="-1103.9" font-family="Arial" font-size="14.00" fill="#666666">[smallint(2)]</text>
<polygon fill="none" stroke="#000000" points="55.5,-1062.5 55.5,-1092.5 441.5,-1092.5 441.5,-1062.5 55.5,-1062.5"/>
<text text-anchor="start" x="62.5" y="-1073.9" font-family="Arial" font-size="14.00" fill="#000000">bank_account_no    </text>
<text text-anchor="start" x="207.204" y="-1073.9" font-family="Arial" font-size="14.00" fill="#666666">[varchar(10)]</text>
<polygon fill="none" stroke="#000000" points="55.5,-1032.5 55.5,-1062.5 441.5,-1062.5 441.5,-1032.5 55.5,-1032.5"/>
<text text-anchor="start" x="62.5" y="-1043.9" font-family="Arial" font-size="14.00" fill="#000000">bank_account_holder    </text>
<text text-anchor="start" x="230.5364" y="-1043.9" font-family="Arial" font-size="14.00" fill="#666666">[varchar(200)]</text>
<polygon fill="none" stroke="#000000" points="55.5,-1002.5 55.5,-1032.5 441.5,-1032.5 441.5,-1002.5 55.5,-1002.5"/>
<text text-anchor="start" x="62.5" y="-1013.9" font-family="Arial" font-size="14.00" fill="#000000">is_creditcard_payment_method_enabled    </text>
<text text-anchor="start" x="349.556" y="-1013.9" font-family="Arial" font-size="14.00" fill="#666666">[tinyint(1)]</text>
<polygon fill="none" stroke="#000000" points="55.5,-972.5 55.5,-1002.5 441.5,-1002.5 441.5,-972.5 55.5,-972.5"/>
<text text-anchor="start" x="62.5" y="-983.9" font-family="Arial" font-size="14.00" fill="#000000">is_stripe_payment_method_enabled    </text>
<text text-anchor="start" x="322.3302" y="-983.9" font-family="Arial" font-size="14.00" fill="#666666">[tinyint(1)]</text>
<polygon fill="none" stroke="#000000" points="55.5,-942.5 55.5,-972.5 441.5,-972.5 441.5,-942.5 55.5,-942.5"/>
<text text-anchor="start" x="62.5" y="-953.9" font-family="Arial" font-size="14.00" fill="#000000">is_bill_payment_method_enabled    </text>
<text text-anchor="start" x="305.2096" y="-953.9" font-family="Arial" font-size="14.00" fill="#666666">[tinyint(1)]</text>
<polygon fill="none" stroke="#000000" points="55.5,-912.5 55.5,-942.5 441.5,-942.5 441.5,-912.5 55.5,-912.5"/>
<text text-anchor="start" x="62.5" y="-923.9" font-family="Arial" font-size="14.00" fill="#000000">is_onetime_bill_payment_method_enabled    </text>
<text text-anchor="start" x="362.7804" y="-923.9" font-family="Arial" font-size="14.00" fill="#666666">[tinyint(1)]</text>
<polygon fill="none" stroke="#000000" points="55.5,-882.5 55.5,-912.5 441.5,-912.5 441.5,-882.5 55.5,-882.5"/>
<text text-anchor="start" x="62.5" y="-893.9" font-family="Arial" font-size="14.00" fill="#000000">is_local_payment_method_enabled    </text>
<text text-anchor="start" x="316.8856" y="-893.9" font-family="Arial" font-size="14.00" fill="#666666">[tinyint(1)]</text>
<polygon fill="none" stroke="#000000" points="55.5,-852.5 55.5,-882.5 441.5,-882.5 441.5,-852.5 55.5,-852.5"/>
<text text-anchor="start" x="62.5" y="-863.9" font-family="Arial" font-size="14.00" fill="#000000">is_reservation_limit_times_daily_enabled    </text>
<text text-anchor="start" x="351.8478" y="-863.9" font-family="Arial" font-size="14.00" fill="#666666">[tinyint(1)]</text>
<polygon fill="none" stroke="#000000" points="55.5,-822.5 55.5,-852.5 441.5,-852.5 441.5,-822.5 55.5,-822.5"/>
<text text-anchor="start" x="62.5" y="-833.9" font-family="Arial" font-size="14.00" fill="#000000">reservation_limit_times_daily    </text>
<text text-anchor="start" x="276.3738" y="-833.9" font-family="Arial" font-size="14.00" fill="#666666">[smallint(6)]</text>
<polygon fill="none" stroke="#000000" points="55.5,-792.5 55.5,-822.5 441.5,-822.5 441.5,-792.5 55.5,-792.5"/>
<text text-anchor="start" x="62.5" y="-803.9" font-family="Arial" font-size="14.00" fill="#000000">is_reservation_limit_hours_daily_enabled    </text>
<text text-anchor="start" x="353.4158" y="-803.9" font-family="Arial" font-size="14.00" fill="#666666">[tinyint(1)]</text>
<polygon fill="none" stroke="#000000" points="55.5,-762.5 55.5,-792.5 441.5,-792.5 441.5,-762.5 55.5,-762.5"/>
<text text-anchor="start" x="62.5" y="-773.9" font-family="Arial" font-size="14.00" fill="#000000">reservation_limit_hour_daily    </text>
<text text-anchor="start" x="270.9418" y="-773.9" font-family="Arial" font-size="14.00" fill="#666666">[smallint(6)]</text>
<polygon fill="none" stroke="#000000" points="55.5,-732.5 55.5,-762.5 441.5,-762.5 441.5,-732.5 55.5,-732.5"/>
<text text-anchor="start" x="62.5" y="-743.9" font-family="Arial" font-size="14.00" fill="#000000">reservation_limit_minute_daily    </text>
<text text-anchor="start" x="284.939" y="-743.9" font-family="Arial" font-size="14.00" fill="#666666">[smallint(6)]</text>
<polygon fill="none" stroke="#000000" points="55.5,-702.5 55.5,-732.5 441.5,-732.5 441.5,-702.5 55.5,-702.5"/>
<text text-anchor="start" x="62.5" y="-713.9" font-family="Arial" font-size="14.00" fill="#000000">is_reservation_limit_times_monthly_enabled    </text>
<text text-anchor="start" x="372.075" y="-713.9" font-family="Arial" font-size="14.00" fill="#666666">[tinyint(1)]</text>
<polygon fill="none" stroke="#000000" points="55.5,-672.5 55.5,-702.5 441.5,-702.5 441.5,-672.5 55.5,-672.5"/>
<text text-anchor="start" x="62.5" y="-683.9" font-family="Arial" font-size="14.00" fill="#000000">reservation_limit_times_monthly    </text>
<text text-anchor="start" x="296.601" y="-683.9" font-family="Arial" font-size="14.00" fill="#666666">[smallint(6)]</text>
<polygon fill="none" stroke="#000000" points="55.5,-642.5 55.5,-672.5 441.5,-672.5 441.5,-642.5 55.5,-642.5"/>
<text text-anchor="start" x="62.2062" y="-653.9" font-family="Arial" font-size="14.00" fill="#000000">is_reservation_limit_hours_monthly_enabled    </text>
<text text-anchor="start" x="373.3492" y="-653.9" font-family="Arial" font-size="14.00" fill="#666666">[tinyint(1)]</text>
<polygon fill="none" stroke="#000000" points="55.5,-612.5 55.5,-642.5 441.5,-642.5 441.5,-612.5 55.5,-612.5"/>
<text text-anchor="start" x="62.5" y="-623.9" font-family="Arial" font-size="14.00" fill="#000000">reservation_limit_hour_monthly    </text>
<text text-anchor="start" x="291.169" y="-623.9" font-family="Arial" font-size="14.00" fill="#666666">[smallint(6)]</text>
<polygon fill="none" stroke="#000000" points="55.5,-582.5 55.5,-612.5 441.5,-612.5 441.5,-582.5 55.5,-582.5"/>
<text text-anchor="start" x="62.5" y="-593.9" font-family="Arial" font-size="14.00" fill="#000000">reservation_limit_minute_monthly    </text>
<text text-anchor="start" x="305.1662" y="-593.9" font-family="Arial" font-size="14.00" fill="#666666">[smallint(6)]</text>
<polygon fill="none" stroke="#000000" points="55.5,-552.5 55.5,-582.5 441.5,-582.5 441.5,-552.5 55.5,-552.5"/>
<text text-anchor="start" x="62.5" y="-563.9" font-family="Arial" font-size="14.00" fill="#000000">is_reservation_limit_number_enabled    </text>
<text text-anchor="start" x="329.298" y="-563.9" font-family="Arial" font-size="14.00" fill="#666666">[tinyint(1)]</text>
<polygon fill="none" stroke="#000000" points="55.5,-522.5 55.5,-552.5 441.5,-552.5 441.5,-522.5 55.5,-522.5"/>
<text text-anchor="start" x="62.5" y="-533.9" font-family="Arial" font-size="14.00" fill="#000000">reservation_limit_number    </text>
<text text-anchor="start" x="253.824" y="-533.9" font-family="Arial" font-size="14.00" fill="#666666">[smallint(6)]</text>
<polygon fill="none" stroke="#000000" points="55.5,-492.5 55.5,-522.5 441.5,-522.5 441.5,-492.5 55.5,-492.5"/>
<text text-anchor="start" x="62.5" y="-503.9" font-family="Arial" font-size="14.00" fill="#000000">is_custom_business_hours_enabled    </text>
<text text-anchor="start" x="323.1058" y="-503.9" font-family="Arial" font-size="14.00" fill="#666666">[tinyint(1)]</text>
<polygon fill="none" stroke="#000000" points="55.5,-462.5 55.5,-492.5 441.5,-492.5 441.5,-462.5 55.5,-462.5"/>
<text text-anchor="start" x="62.5" y="-473.9" font-family="Arial" font-size="14.00" fill="#000000">is_setup_unreservable_room_enabled    </text>
<text text-anchor="start" x="334.7748" y="-473.9" font-family="Arial" font-size="14.00" fill="#666666">[tinyint(1)]</text>
<polygon fill="none" stroke="#000000" points="55.5,-432.5 55.5,-462.5 441.5,-462.5 441.5,-432.5 55.5,-432.5"/>
<text text-anchor="start" x="62.5" y="-443.9" font-family="Arial" font-size="14.00" fill="#000000">is_max_usage_time_enabled    </text>
<text text-anchor="start" x="278.758" y="-443.9" font-family="Arial" font-size="14.00" fill="#666666">[tinyint(1)]</text>
<polygon fill="none" stroke="#000000" points="55.5,-402.5 55.5,-432.5 441.5,-432.5 441.5,-402.5 55.5,-402.5"/>
<text text-anchor="start" x="62.5" y="-413.9" font-family="Arial" font-size="14.00" fill="#000000">max_usage_time    </text>
<text text-anchor="start" x="203.284" y="-413.9" font-family="Arial" font-size="14.00" fill="#666666">[time]</text>
<polygon fill="none" stroke="#000000" points="55.5,-372.5 55.5,-402.5 441.5,-402.5 441.5,-372.5 55.5,-372.5"/>
<text text-anchor="start" x="62.5" y="-383.9" font-family="Arial" font-size="14.00" fill="#000000">is_reservation_limit_times_yearly_enabled    </text>
<text text-anchor="start" x="360.4018" y="-383.9" font-family="Arial" font-size="14.00" fill="#666666">[tinyint(1)]</text>
<polygon fill="none" stroke="#000000" points="55.5,-342.5 55.5,-372.5 441.5,-372.5 441.5,-342.5 55.5,-342.5"/>
<text text-anchor="start" x="62.5" y="-353.9" font-family="Arial" font-size="14.00" fill="#000000">reservation_limit_times_yearly    </text>
<text text-anchor="start" x="284.9278" y="-353.9" font-family="Arial" font-size="14.00" fill="#666666">[smallint(6)]</text>
<polygon fill="none" stroke="#000000" points="55.5,-312.5 55.5,-342.5 441.5,-342.5 441.5,-312.5 55.5,-312.5"/>
<text text-anchor="start" x="62.5" y="-323.9" font-family="Arial" font-size="14.00" fill="#000000">is_reservation_limit_hours_yearly_enabled    </text>
<text text-anchor="start" x="361.9698" y="-323.9" font-family="Arial" font-size="14.00" fill="#666666">[tinyint(1)]</text>
<polygon fill="none" stroke="#000000" points="55.5,-282.5 55.5,-312.5 441.5,-312.5 441.5,-282.5 55.5,-282.5"/>
<text text-anchor="start" x="62.5" y="-293.9" font-family="Arial" font-size="14.00" fill="#000000">reservation_limit_hour_yearly    </text>
<text text-anchor="start" x="279.4958" y="-293.9" font-family="Arial" font-size="14.00" fill="#666666">[smallint(6)]</text>
<polygon fill="none" stroke="#000000" points="55.5,-252.5 55.5,-282.5 441.5,-282.5 441.5,-252.5 55.5,-252.5"/>
<text text-anchor="start" x="62.5" y="-263.9" font-family="Arial" font-size="14.00" fill="#000000">reservation_limit_minute_yearly    </text>
<text text-anchor="start" x="293.493" y="-263.9" font-family="Arial" font-size="14.00" fill="#666666">[smallint(1)]</text>
<polygon fill="none" stroke="#000000" points="55.5,-222.5 55.5,-252.5 441.5,-252.5 441.5,-222.5 55.5,-222.5"/>
<text text-anchor="start" x="62.5" y="-233.9" font-family="Arial" font-size="14.00" fill="#000000">is_set_reservable_time    </text>
<text text-anchor="start" x="240.6136" y="-233.9" font-family="Arial" font-size="14.00" fill="#666666">[tinyint(1)]</text>
<polygon fill="none" stroke="#000000" points="55.5,-192.5 55.5,-222.5 441.5,-222.5 441.5,-192.5 55.5,-192.5"/>
<text text-anchor="start" x="62.5" y="-203.9" font-family="Arial" font-size="14.00" fill="#000000">start_reservable_time    </text>
<text text-anchor="start" x="231.2756" y="-203.9" font-family="Arial" font-size="14.00" fill="#666666">[smallint(3)]</text>
<polygon fill="none" stroke="#000000" points="55.5,-162.5 55.5,-192.5 441.5,-192.5 441.5,-162.5 55.5,-162.5"/>
<text text-anchor="start" x="62.5" y="-173.9" font-family="Arial" font-size="14.00" fill="#000000">end_reservable_time    </text>
<text text-anchor="start" x="227.399" y="-173.9" font-family="Arial" font-size="14.00" fill="#666666">[smallint(3)]</text>
<polygon fill="none" stroke="#000000" points="55.5,-132.5 55.5,-162.5 441.5,-162.5 441.5,-132.5 55.5,-132.5"/>
<text text-anchor="start" x="62.5" y="-143.9" font-family="Arial" font-size="14.00" fill="#000000">is_set_subgroup    </text>
<text text-anchor="start" x="199.406" y="-143.9" font-family="Arial" font-size="14.00" fill="#666666">[tinyint(1)]</text>
<polygon fill="none" stroke="#000000" points="55.5,-102.5 55.5,-132.5 441.5,-132.5 441.5,-102.5 55.5,-102.5"/>
<text text-anchor="start" x="62.5" y="-113.9" font-family="Arial" font-size="14.00" fill="#000000">subgroup_id    </text>
<text text-anchor="start" x="173.7328" y="-113.9" font-family="Arial" font-size="14.00" fill="#666666">[int(11)]</text>
<polygon fill="none" stroke="#000000" points="55.5,-72.5 55.5,-102.5 441.5,-102.5 441.5,-72.5 55.5,-72.5"/>
<text text-anchor="start" x="62.5" y="-83.9" font-family="Arial" font-size="14.00" fill="#000000">is_limitless_room_enabled    </text>
<text text-anchor="start" x="261.608" y="-83.9" font-family="Arial" font-size="14.00" fill="#666666">[tinyint(1)]</text>
<polygon fill="none" stroke="#000000" points="55.5,-42.5 55.5,-72.5 441.5,-72.5 441.5,-42.5 55.5,-42.5"/>
<text text-anchor="start" x="62.5" y="-53.9" font-family="Arial" font-size="14.00" fill="#000000">is_group_custom_origin_cancel_policy    </text>
<text text-anchor="start" x="337.0862" y="-53.9" font-family="Arial" font-size="14.00" fill="#666666">[tinyint(1)]</text>
</g>
<!-- sk_group_business_hour_weeks&#45;&gt;sk_groups -->
<g id="edge1" class="edge">
<title>sk_group_business_hour_weeks:group_id&#45;&gt;sk_groups:id</title>
<path fill="none" stroke="#000000" d="M459.689,-1746.6179C513.9354,-1736.5971 492.1283,-1643.7009 449.5,-1597 390.2268,-1532.0641 114.7732,-1625.9359 55.5,-1561 27.4845,-1530.308 13.9444,-1467.5 55.5,-1467.5"/>
<polygon fill="#000000" stroke="#000000" points="459.4627,-1746.6374 449.1118,-1743.0168 454.4814,-1747.0687 449.5,-1747.5 449.5,-1747.5 449.5,-1747.5 454.4814,-1747.0687 449.8882,-1751.9832 459.4627,-1746.6374 459.4627,-1746.6374"/>
<text text-anchor="start" x="456.5475" y="-1757.5" font-family="Arial" font-size="10.00" fill="#000000">FOREIGN KEY (group_id) REFERENCES sk_groups (id)</text>
</g>
</g>
</svg>
