<?xml version="1.0" encoding="UTF-8" standalone="no"?>
<!DOCTYPE svg PUBLIC "-//W3C//DTD SVG 1.1//EN"
 "http://www.w3.org/Graphics/SVG/1.1/DTD/svg11.dtd">
<!-- Generated by graphviz version 2.40.1 (20161225.0304)
 -->
<!-- Title: sk_group_cancel_policies Pages: 1 -->
<svg width="974pt" height="1882pt"
 viewBox="0.00 0.00 974.00 1882.00" xmlns="http://www.w3.org/2000/svg" xmlns:xlink="http://www.w3.org/1999/xlink">
<g id="graph0" class="graph" transform="scale(1 1) rotate(0) translate(4 1878)">
<title>sk_group_cancel_policies</title>
<polygon fill="#ffffff" stroke="transparent" points="-4,4 -4,-1878 970,-1878 970,4 -4,4"/>
<!-- sk_group_cancel_policies -->
<g id="node1" class="node">
<title>sk_group_cancel_policies</title>
<polygon fill="#efefef" stroke="transparent" points="284,-1792.5 284,-1827.5 631,-1827.5 631,-1792.5 284,-1792.5"/>
<polygon fill="none" stroke="#000000" points="284,-1792.5 284,-1827.5 631,-1827.5 631,-1792.5 284,-1792.5"/>
<text text-anchor="start" x="290.6912" y="-1805.3" font-family="Arial Bold" font-size="18.00" fill="#000000">sk_group_cancel_policies</text>
<text text-anchor="start" x="496.7408" y="-1805.3" font-family="Arial" font-size="14.00" fill="#000000">    </text>
<text text-anchor="start" x="530.9456" y="-1805.3" font-family="Arial" font-size="14.00" fill="#666666">[BASE TABLE]</text>
<polygon fill="none" stroke="#000000" points="284,-1762.5 284,-1792.5 631,-1792.5 631,-1762.5 284,-1762.5"/>
<text text-anchor="start" x="291" y="-1773.9" font-family="Arial" font-size="14.00" fill="#000000">id </text>
<text text-anchor="start" x="305.7798" y="-1773.9" font-family="Arial" font-size="14.00" fill="#666666">[int(11) unsigned]</text>
<polygon fill="none" stroke="#000000" points="284,-1732.5 284,-1762.5 631,-1762.5 631,-1732.5 284,-1732.5"/>
<text text-anchor="start" x="291" y="-1743.9" font-family="Arial" font-size="14.00" fill="#000000">group_id </text>
<text text-anchor="start" x="349.3534" y="-1743.9" font-family="Arial" font-size="14.00" fill="#666666">[int(11) unsigned]</text>
<polygon fill="none" stroke="#000000" points="284,-1702.5 284,-1732.5 631,-1732.5 631,-1702.5 284,-1702.5"/>
<text text-anchor="start" x="291" y="-1713.9" font-family="Arial" font-size="14.00" fill="#000000">origin_policy_id </text>
<text text-anchor="start" x="391.345" y="-1713.9" font-family="Arial" font-size="14.00" fill="#666666">[int(11) unsigned]</text>
<polygon fill="none" stroke="#000000" points="284,-1672.5 284,-1702.5 631,-1702.5 631,-1672.5 284,-1672.5"/>
<text text-anchor="start" x="291" y="-1683.9" font-family="Arial" font-size="14.00" fill="#000000">charge_percent </text>
<text text-anchor="start" x="392.1458" y="-1683.9" font-family="Arial" font-size="14.00" fill="#666666">[smallint(3) unsigned]</text>
<polygon fill="none" stroke="#000000" points="284,-1642.5 284,-1672.5 631,-1672.5 631,-1642.5 284,-1642.5"/>
<text text-anchor="start" x="291" y="-1653.9" font-family="Arial" font-size="14.00" fill="#000000">created_at </text>
<text text-anchor="start" x="361.028" y="-1653.9" font-family="Arial" font-size="14.00" fill="#666666">[timestamp]</text>
<polygon fill="none" stroke="#000000" stroke-width="3" points="282,-1641.5 282,-1829.5 632,-1829.5 632,-1641.5 282,-1641.5"/>
</g>
<!-- sk_groups -->
<g id="node2" class="node">
<title>sk_groups</title>
<polygon fill="#efefef" stroke="transparent" points="43,-1482.5 43,-1517.5 429,-1517.5 429,-1482.5 43,-1482.5"/>
<polygon fill="none" stroke="#000000" points="43,-1482.5 43,-1517.5 429,-1517.5 429,-1482.5 43,-1482.5"/>
<text text-anchor="start" x="130.7044" y="-1495.3" font-family="Arial Bold" font-size="18.00" fill="#000000">sk_groups</text>
<text text-anchor="start" x="213.7276" y="-1495.3" font-family="Arial" font-size="14.00" fill="#000000">    </text>
<text text-anchor="start" x="247.9324" y="-1495.3" font-family="Arial" font-size="14.00" fill="#666666">[BASE TABLE]</text>
<polygon fill="none" stroke="#000000" points="43,-1452.5 43,-1482.5 429,-1482.5 429,-1452.5 43,-1452.5"/>
<text text-anchor="start" x="50" y="-1463.9" font-family="Arial" font-size="14.00" fill="#000000">id    </text>
<text text-anchor="start" x="95.094" y="-1463.9" font-family="Arial" font-size="14.00" fill="#666666">[int(11) unsigned]</text>
<polygon fill="none" stroke="#000000" points="43,-1422.5 43,-1452.5 429,-1452.5 429,-1422.5 43,-1422.5"/>
<text text-anchor="start" x="50" y="-1433.9" font-family="Arial" font-size="14.00" fill="#000000">name    </text>
<text text-anchor="start" x="119.2132" y="-1433.9" font-family="Arial" font-size="14.00" fill="#666666">[varchar(255)]</text>
<polygon fill="none" stroke="#000000" points="43,-1392.5 43,-1422.5 429,-1422.5 429,-1392.5 43,-1392.5"/>
<text text-anchor="start" x="50" y="-1403.9" font-family="Arial" font-size="14.00" fill="#000000">lessor_parent_id    </text>
<text text-anchor="start" x="187.6732" y="-1403.9" font-family="Arial" font-size="14.00" fill="#666666">[int(11) unsigned]</text>
<polygon fill="none" stroke="#000000" points="43,-1362.5 43,-1392.5 429,-1392.5 429,-1362.5 43,-1362.5"/>
<text text-anchor="start" x="50" y="-1373.9" font-family="Arial" font-size="14.00" fill="#000000">subscription_id    </text>
<text text-anchor="start" x="177.554" y="-1373.9" font-family="Arial" font-size="14.00" fill="#666666">[int(11) unsigned]</text>
<polygon fill="none" stroke="#000000" points="43,-1332.5 43,-1362.5 429,-1362.5 429,-1332.5 43,-1332.5"/>
<text text-anchor="start" x="50" y="-1343.9" font-family="Arial" font-size="14.00" fill="#000000">payment_type    </text>
<text text-anchor="start" x="172.1248" y="-1343.9" font-family="Arial" font-size="14.00" fill="#666666">[smallint(6)]</text>
<polygon fill="none" stroke="#000000" points="43,-1302.5 43,-1332.5 429,-1332.5 429,-1302.5 43,-1302.5"/>
<text text-anchor="start" x="50" y="-1313.9" font-family="Arial" font-size="14.00" fill="#000000">discount_type    </text>
<text text-anchor="start" x="170.5708" y="-1313.9" font-family="Arial" font-size="14.00" fill="#666666">[smallint(6)]</text>
<polygon fill="none" stroke="#000000" points="43,-1272.5 43,-1302.5 429,-1302.5 429,-1272.5 43,-1272.5"/>
<text text-anchor="start" x="50" y="-1283.9" font-family="Arial" font-size="14.00" fill="#000000">discount_name    </text>
<text text-anchor="start" x="179.1234" y="-1283.9" font-family="Arial" font-size="14.00" fill="#666666">[varchar(255)]</text>
<polygon fill="none" stroke="#000000" points="43,-1242.5 43,-1272.5 429,-1272.5 429,-1242.5 43,-1242.5"/>
<text text-anchor="start" x="50" y="-1253.9" font-family="Arial" font-size="14.00" fill="#000000">discount_rate    </text>
<text text-anchor="start" x="168.2314" y="-1253.9" font-family="Arial" font-size="14.00" fill="#666666">[smallint(3)]</text>
<polygon fill="none" stroke="#000000" points="43,-1212.5 43,-1242.5 429,-1242.5 429,-1212.5 43,-1212.5"/>
<text text-anchor="start" x="50" y="-1223.9" font-family="Arial" font-size="14.00" fill="#000000">discount_price    </text>
<text text-anchor="start" x="174.4474" y="-1223.9" font-family="Arial" font-size="14.00" fill="#666666">[int(11)]</text>
<polygon fill="none" stroke="#000000" points="43,-1182.5 43,-1212.5 429,-1212.5 429,-1182.5 43,-1182.5"/>
<text text-anchor="start" x="50" y="-1193.9" font-family="Arial" font-size="14.00" fill="#000000">payment_method    </text>
<text text-anchor="start" x="192.3506" y="-1193.9" font-family="Arial" font-size="14.00" fill="#666666">[smallint(2)]</text>
<polygon fill="none" stroke="#000000" points="43,-1152.5 43,-1182.5 429,-1182.5 429,-1152.5 43,-1152.5"/>
<text text-anchor="start" x="50" y="-1163.9" font-family="Arial" font-size="14.00" fill="#000000">bank_name    </text>
<text text-anchor="start" x="157.3436" y="-1163.9" font-family="Arial" font-size="14.00" fill="#666666">[varchar(200)]</text>
<polygon fill="none" stroke="#000000" points="43,-1122.5 43,-1152.5 429,-1152.5 429,-1122.5 43,-1122.5"/>
<text text-anchor="start" x="50" y="-1133.9" font-family="Arial" font-size="14.00" fill="#000000">bank_branch_name    </text>
<text text-anchor="start" x="207.9172" y="-1133.9" font-family="Arial" font-size="14.00" fill="#666666">[varchar(200)]</text>
<polygon fill="none" stroke="#000000" points="43,-1092.5 43,-1122.5 429,-1122.5 429,-1092.5 43,-1092.5"/>
<text text-anchor="start" x="50" y="-1103.9" font-family="Arial" font-size="14.00" fill="#000000">bank_account_type    </text>
<text text-anchor="start" x="205.5946" y="-1103.9" font-family="Arial" font-size="14.00" fill="#666666">[smallint(2)]</text>
<polygon fill="none" stroke="#000000" points="43,-1062.5 43,-1092.5 429,-1092.5 429,-1062.5 43,-1062.5"/>
<text text-anchor="start" x="50" y="-1073.9" font-family="Arial" font-size="14.00" fill="#000000">bank_account_no    </text>
<text text-anchor="start" x="194.704" y="-1073.9" font-family="Arial" font-size="14.00" fill="#666666">[varchar(10)]</text>
<polygon fill="none" stroke="#000000" points="43,-1032.5 43,-1062.5 429,-1062.5 429,-1032.5 43,-1032.5"/>
<text text-anchor="start" x="50" y="-1043.9" font-family="Arial" font-size="14.00" fill="#000000">bank_account_holder    </text>
<text text-anchor="start" x="218.0364" y="-1043.9" font-family="Arial" font-size="14.00" fill="#666666">[varchar(200)]</text>
<polygon fill="none" stroke="#000000" points="43,-1002.5 43,-1032.5 429,-1032.5 429,-1002.5 43,-1002.5"/>
<text text-anchor="start" x="50" y="-1013.9" font-family="Arial" font-size="14.00" fill="#000000">is_creditcard_payment_method_enabled    </text>
<text text-anchor="start" x="337.056" y="-1013.9" font-family="Arial" font-size="14.00" fill="#666666">[tinyint(1)]</text>
<polygon fill="none" stroke="#000000" points="43,-972.5 43,-1002.5 429,-1002.5 429,-972.5 43,-972.5"/>
<text text-anchor="start" x="50" y="-983.9" font-family="Arial" font-size="14.00" fill="#000000">is_stripe_payment_method_enabled    </text>
<text text-anchor="start" x="309.8302" y="-983.9" font-family="Arial" font-size="14.00" fill="#666666">[tinyint(1)]</text>
<polygon fill="none" stroke="#000000" points="43,-942.5 43,-972.5 429,-972.5 429,-942.5 43,-942.5"/>
<text text-anchor="start" x="50" y="-953.9" font-family="Arial" font-size="14.00" fill="#000000">is_bill_payment_method_enabled    </text>
<text text-anchor="start" x="292.7096" y="-953.9" font-family="Arial" font-size="14.00" fill="#666666">[tinyint(1)]</text>
<polygon fill="none" stroke="#000000" points="43,-912.5 43,-942.5 429,-942.5 429,-912.5 43,-912.5"/>
<text text-anchor="start" x="50" y="-923.9" font-family="Arial" font-size="14.00" fill="#000000">is_onetime_bill_payment_method_enabled    </text>
<text text-anchor="start" x="350.2804" y="-923.9" font-family="Arial" font-size="14.00" fill="#666666">[tinyint(1)]</text>
<polygon fill="none" stroke="#000000" points="43,-882.5 43,-912.5 429,-912.5 429,-882.5 43,-882.5"/>
<text text-anchor="start" x="50" y="-893.9" font-family="Arial" font-size="14.00" fill="#000000">is_local_payment_method_enabled    </text>
<text text-anchor="start" x="304.3856" y="-893.9" font-family="Arial" font-size="14.00" fill="#666666">[tinyint(1)]</text>
<polygon fill="none" stroke="#000000" points="43,-852.5 43,-882.5 429,-882.5 429,-852.5 43,-852.5"/>
<text text-anchor="start" x="50" y="-863.9" font-family="Arial" font-size="14.00" fill="#000000">is_reservation_limit_times_daily_enabled    </text>
<text text-anchor="start" x="339.3478" y="-863.9" font-family="Arial" font-size="14.00" fill="#666666">[tinyint(1)]</text>
<polygon fill="none" stroke="#000000" points="43,-822.5 43,-852.5 429,-852.5 429,-822.5 43,-822.5"/>
<text text-anchor="start" x="50" y="-833.9" font-family="Arial" font-size="14.00" fill="#000000">reservation_limit_times_daily    </text>
<text text-anchor="start" x="263.8738" y="-833.9" font-family="Arial" font-size="14.00" fill="#666666">[smallint(6)]</text>
<polygon fill="none" stroke="#000000" points="43,-792.5 43,-822.5 429,-822.5 429,-792.5 43,-792.5"/>
<text text-anchor="start" x="50" y="-803.9" font-family="Arial" font-size="14.00" fill="#000000">is_reservation_limit_hours_daily_enabled    </text>
<text text-anchor="start" x="340.9158" y="-803.9" font-family="Arial" font-size="14.00" fill="#666666">[tinyint(1)]</text>
<polygon fill="none" stroke="#000000" points="43,-762.5 43,-792.5 429,-792.5 429,-762.5 43,-762.5"/>
<text text-anchor="start" x="50" y="-773.9" font-family="Arial" font-size="14.00" fill="#000000">reservation_limit_hour_daily    </text>
<text text-anchor="start" x="258.4418" y="-773.9" font-family="Arial" font-size="14.00" fill="#666666">[smallint(6)]</text>
<polygon fill="none" stroke="#000000" points="43,-732.5 43,-762.5 429,-762.5 429,-732.5 43,-732.5"/>
<text text-anchor="start" x="50" y="-743.9" font-family="Arial" font-size="14.00" fill="#000000">reservation_limit_minute_daily    </text>
<text text-anchor="start" x="272.439" y="-743.9" font-family="Arial" font-size="14.00" fill="#666666">[smallint(6)]</text>
<polygon fill="none" stroke="#000000" points="43,-702.5 43,-732.5 429,-732.5 429,-702.5 43,-702.5"/>
<text text-anchor="start" x="50" y="-713.9" font-family="Arial" font-size="14.00" fill="#000000">is_reservation_limit_times_monthly_enabled    </text>
<text text-anchor="start" x="359.575" y="-713.9" font-family="Arial" font-size="14.00" fill="#666666">[tinyint(1)]</text>
<polygon fill="none" stroke="#000000" points="43,-672.5 43,-702.5 429,-702.5 429,-672.5 43,-672.5"/>
<text text-anchor="start" x="50" y="-683.9" font-family="Arial" font-size="14.00" fill="#000000">reservation_limit_times_monthly    </text>
<text text-anchor="start" x="284.101" y="-683.9" font-family="Arial" font-size="14.00" fill="#666666">[smallint(6)]</text>
<polygon fill="none" stroke="#000000" points="43,-642.5 43,-672.5 429,-672.5 429,-642.5 43,-642.5"/>
<text text-anchor="start" x="49.7062" y="-653.9" font-family="Arial" font-size="14.00" fill="#000000">is_reservation_limit_hours_monthly_enabled    </text>
<text text-anchor="start" x="360.8492" y="-653.9" font-family="Arial" font-size="14.00" fill="#666666">[tinyint(1)]</text>
<polygon fill="none" stroke="#000000" points="43,-612.5 43,-642.5 429,-642.5 429,-612.5 43,-612.5"/>
<text text-anchor="start" x="50" y="-623.9" font-family="Arial" font-size="14.00" fill="#000000">reservation_limit_hour_monthly    </text>
<text text-anchor="start" x="278.669" y="-623.9" font-family="Arial" font-size="14.00" fill="#666666">[smallint(6)]</text>
<polygon fill="none" stroke="#000000" points="43,-582.5 43,-612.5 429,-612.5 429,-582.5 43,-582.5"/>
<text text-anchor="start" x="50" y="-593.9" font-family="Arial" font-size="14.00" fill="#000000">reservation_limit_minute_monthly    </text>
<text text-anchor="start" x="292.6662" y="-593.9" font-family="Arial" font-size="14.00" fill="#666666">[smallint(6)]</text>
<polygon fill="none" stroke="#000000" points="43,-552.5 43,-582.5 429,-582.5 429,-552.5 43,-552.5"/>
<text text-anchor="start" x="50" y="-563.9" font-family="Arial" font-size="14.00" fill="#000000">is_reservation_limit_number_enabled    </text>
<text text-anchor="start" x="316.798" y="-563.9" font-family="Arial" font-size="14.00" fill="#666666">[tinyint(1)]</text>
<polygon fill="none" stroke="#000000" points="43,-522.5 43,-552.5 429,-552.5 429,-522.5 43,-522.5"/>
<text text-anchor="start" x="50" y="-533.9" font-family="Arial" font-size="14.00" fill="#000000">reservation_limit_number    </text>
<text text-anchor="start" x="241.324" y="-533.9" font-family="Arial" font-size="14.00" fill="#666666">[smallint(6)]</text>
<polygon fill="none" stroke="#000000" points="43,-492.5 43,-522.5 429,-522.5 429,-492.5 43,-492.5"/>
<text text-anchor="start" x="50" y="-503.9" font-family="Arial" font-size="14.00" fill="#000000">is_custom_business_hours_enabled    </text>
<text text-anchor="start" x="310.6058" y="-503.9" font-family="Arial" font-size="14.00" fill="#666666">[tinyint(1)]</text>
<polygon fill="none" stroke="#000000" points="43,-462.5 43,-492.5 429,-492.5 429,-462.5 43,-462.5"/>
<text text-anchor="start" x="50" y="-473.9" font-family="Arial" font-size="14.00" fill="#000000">is_setup_unreservable_room_enabled    </text>
<text text-anchor="start" x="322.2748" y="-473.9" font-family="Arial" font-size="14.00" fill="#666666">[tinyint(1)]</text>
<polygon fill="none" stroke="#000000" points="43,-432.5 43,-462.5 429,-462.5 429,-432.5 43,-432.5"/>
<text text-anchor="start" x="50" y="-443.9" font-family="Arial" font-size="14.00" fill="#000000">is_max_usage_time_enabled    </text>
<text text-anchor="start" x="266.258" y="-443.9" font-family="Arial" font-size="14.00" fill="#666666">[tinyint(1)]</text>
<polygon fill="none" stroke="#000000" points="43,-402.5 43,-432.5 429,-432.5 429,-402.5 43,-402.5"/>
<text text-anchor="start" x="50" y="-413.9" font-family="Arial" font-size="14.00" fill="#000000">max_usage_time    </text>
<text text-anchor="start" x="190.784" y="-413.9" font-family="Arial" font-size="14.00" fill="#666666">[time]</text>
<polygon fill="none" stroke="#000000" points="43,-372.5 43,-402.5 429,-402.5 429,-372.5 43,-372.5"/>
<text text-anchor="start" x="50" y="-383.9" font-family="Arial" font-size="14.00" fill="#000000">is_reservation_limit_times_yearly_enabled    </text>
<text text-anchor="start" x="347.9018" y="-383.9" font-family="Arial" font-size="14.00" fill="#666666">[tinyint(1)]</text>
<polygon fill="none" stroke="#000000" points="43,-342.5 43,-372.5 429,-372.5 429,-342.5 43,-342.5"/>
<text text-anchor="start" x="50" y="-353.9" font-family="Arial" font-size="14.00" fill="#000000">reservation_limit_times_yearly    </text>
<text text-anchor="start" x="272.4278" y="-353.9" font-family="Arial" font-size="14.00" fill="#666666">[smallint(6)]</text>
<polygon fill="none" stroke="#000000" points="43,-312.5 43,-342.5 429,-342.5 429,-312.5 43,-312.5"/>
<text text-anchor="start" x="50" y="-323.9" font-family="Arial" font-size="14.00" fill="#000000">is_reservation_limit_hours_yearly_enabled    </text>
<text text-anchor="start" x="349.4698" y="-323.9" font-family="Arial" font-size="14.00" fill="#666666">[tinyint(1)]</text>
<polygon fill="none" stroke="#000000" points="43,-282.5 43,-312.5 429,-312.5 429,-282.5 43,-282.5"/>
<text text-anchor="start" x="50" y="-293.9" font-family="Arial" font-size="14.00" fill="#000000">reservation_limit_hour_yearly    </text>
<text text-anchor="start" x="266.9958" y="-293.9" font-family="Arial" font-size="14.00" fill="#666666">[smallint(6)]</text>
<polygon fill="none" stroke="#000000" points="43,-252.5 43,-282.5 429,-282.5 429,-252.5 43,-252.5"/>
<text text-anchor="start" x="50" y="-263.9" font-family="Arial" font-size="14.00" fill="#000000">reservation_limit_minute_yearly    </text>
<text text-anchor="start" x="280.993" y="-263.9" font-family="Arial" font-size="14.00" fill="#666666">[smallint(1)]</text>
<polygon fill="none" stroke="#000000" points="43,-222.5 43,-252.5 429,-252.5 429,-222.5 43,-222.5"/>
<text text-anchor="start" x="50" y="-233.9" font-family="Arial" font-size="14.00" fill="#000000">is_set_reservable_time    </text>
<text text-anchor="start" x="228.1136" y="-233.9" font-family="Arial" font-size="14.00" fill="#666666">[tinyint(1)]</text>
<polygon fill="none" stroke="#000000" points="43,-192.5 43,-222.5 429,-222.5 429,-192.5 43,-192.5"/>
<text text-anchor="start" x="50" y="-203.9" font-family="Arial" font-size="14.00" fill="#000000">start_reservable_time    </text>
<text text-anchor="start" x="218.7756" y="-203.9" font-family="Arial" font-size="14.00" fill="#666666">[smallint(3)]</text>
<polygon fill="none" stroke="#000000" points="43,-162.5 43,-192.5 429,-192.5 429,-162.5 43,-162.5"/>
<text text-anchor="start" x="50" y="-173.9" font-family="Arial" font-size="14.00" fill="#000000">end_reservable_time    </text>
<text text-anchor="start" x="214.899" y="-173.9" font-family="Arial" font-size="14.00" fill="#666666">[smallint(3)]</text>
<polygon fill="none" stroke="#000000" points="43,-132.5 43,-162.5 429,-162.5 429,-132.5 43,-132.5"/>
<text text-anchor="start" x="50" y="-143.9" font-family="Arial" font-size="14.00" fill="#000000">is_set_subgroup    </text>
<text text-anchor="start" x="186.906" y="-143.9" font-family="Arial" font-size="14.00" fill="#666666">[tinyint(1)]</text>
<polygon fill="none" stroke="#000000" points="43,-102.5 43,-132.5 429,-132.5 429,-102.5 43,-102.5"/>
<text text-anchor="start" x="50" y="-113.9" font-family="Arial" font-size="14.00" fill="#000000">subgroup_id    </text>
<text text-anchor="start" x="161.2328" y="-113.9" font-family="Arial" font-size="14.00" fill="#666666">[int(11)]</text>
<polygon fill="none" stroke="#000000" points="43,-72.5 43,-102.5 429,-102.5 429,-72.5 43,-72.5"/>
<text text-anchor="start" x="50" y="-83.9" font-family="Arial" font-size="14.00" fill="#000000">is_limitless_room_enabled    </text>
<text text-anchor="start" x="249.108" y="-83.9" font-family="Arial" font-size="14.00" fill="#666666">[tinyint(1)]</text>
<polygon fill="none" stroke="#000000" points="43,-42.5 43,-72.5 429,-72.5 429,-42.5 43,-42.5"/>
<text text-anchor="start" x="50" y="-53.9" font-family="Arial" font-size="14.00" fill="#000000">is_group_custom_origin_cancel_policy    </text>
<text text-anchor="start" x="324.5862" y="-53.9" font-family="Arial" font-size="14.00" fill="#666666">[tinyint(1)]</text>
</g>
<!-- sk_group_cancel_policies&#45;&gt;sk_groups -->
<g id="edge1" class="edge">
<title>sk_group_cancel_policies:group_id&#45;&gt;sk_groups:id</title>
<path fill="none" stroke="#000000" d="M273.844,-1746.6458C219.9665,-1736.9368 245.0465,-1646.8073 284,-1597 324.9064,-1544.6956 388.0936,-1613.3044 429,-1561 454.6004,-1528.2665 470.5556,-1467.5 429,-1467.5"/>
<polygon fill="#000000" stroke="#000000" points="274.0352,-1746.6618 283.6228,-1751.9842 279.0176,-1747.0809 284,-1747.5 284,-1747.5 284,-1747.5 279.0176,-1747.0809 284.3772,-1743.0158 274.0352,-1746.6618 274.0352,-1746.6618"/>
<text text-anchor="start" x="24.0475" y="-1757.5" font-family="Arial" font-size="10.00" fill="#000000">FOREIGN KEY (group_id) REFERENCES sk_groups (id)</text>
</g>
<!-- sk_cancel_policies -->
<g id="node3" class="node">
<title>sk_cancel_policies</title>
<polygon fill="#efefef" stroke="transparent" points="534,-822.5 534,-857.5 825,-857.5 825,-822.5 534,-822.5"/>
<polygon fill="none" stroke="#000000" points="534,-822.5 534,-857.5 825,-857.5 825,-822.5 534,-822.5"/>
<text text-anchor="start" x="540.7028" y="-835.3" font-family="Arial Bold" font-size="18.00" fill="#000000">sk_cancel_policies</text>
<text text-anchor="start" x="690.7292" y="-835.3" font-family="Arial" font-size="14.00" fill="#000000">    </text>
<text text-anchor="start" x="724.934" y="-835.3" font-family="Arial" font-size="14.00" fill="#666666">[BASE TABLE]</text>
<polygon fill="none" stroke="#000000" points="534,-792.5 534,-822.5 825,-822.5 825,-792.5 534,-792.5"/>
<text text-anchor="start" x="541" y="-803.9" font-family="Arial" font-size="14.00" fill="#000000">id    </text>
<text text-anchor="start" x="586.094" y="-803.9" font-family="Arial" font-size="14.00" fill="#666666">[int(11) unsigned]</text>
<polygon fill="none" stroke="#000000" points="534,-762.5 534,-792.5 825,-792.5 825,-762.5 534,-762.5"/>
<text text-anchor="start" x="541" y="-773.9" font-family="Arial" font-size="14.00" fill="#000000">lessor_parent_id    </text>
<text text-anchor="start" x="678.6732" y="-773.9" font-family="Arial" font-size="14.00" fill="#666666">[int(11) unsigned]</text>
<polygon fill="none" stroke="#000000" points="534,-732.5 534,-762.5 825,-762.5 825,-732.5 534,-732.5"/>
<text text-anchor="start" x="541" y="-743.9" font-family="Arial" font-size="14.00" fill="#000000">day    </text>
<text text-anchor="start" x="597.77" y="-743.9" font-family="Arial" font-size="14.00" fill="#666666">[smallint(3)]</text>
<polygon fill="none" stroke="#000000" points="534,-702.5 534,-732.5 825,-732.5 825,-702.5 534,-702.5"/>
<text text-anchor="start" x="541" y="-713.9" font-family="Arial" font-size="14.00" fill="#000000">charge_percent    </text>
<text text-anchor="start" x="672.46" y="-713.9" font-family="Arial" font-size="14.00" fill="#666666">[smallint(3)]</text>
</g>
<!-- sk_group_cancel_policies&#45;&gt;sk_cancel_policies -->
<g id="edge2" class="edge">
<title>sk_group_cancel_policies:origin_policy_id&#45;&gt;sk_cancel_policies:id</title>
<path fill="none" stroke="#000000" d="M641.0767,-1716.6663C816.8768,-1685.789 334.207,-807.5 534,-807.5"/>
<polygon fill="#000000" stroke="#000000" points="640.966,-1716.6754 630.6289,-1713.0153 635.983,-1717.0877 631,-1717.5 631,-1717.5 631,-1717.5 635.983,-1717.0877 631.3711,-1721.9847 640.966,-1716.6754 640.966,-1716.6754"/>
<text text-anchor="start" x="638.4385" y="-1727.5" font-family="Arial" font-size="10.00" fill="#000000">FOREIGN KEY (origin_policy_id) REFERENCES sk_cancel_policies (id)</text>
</g>
</g>
</svg>
