<?xml version="1.0" encoding="UTF-8" standalone="no"?>
<!DOCTYPE svg PUBLIC "-//W3C//DTD SVG 1.1//EN"
 "http://www.w3.org/Graphics/SVG/1.1/DTD/svg11.dtd">
<!-- Generated by graphviz version 2.40.1 (20161225.0304)
 -->
<!-- Title: sk_groups_limitless_rooms Pages: 1 -->
<svg width="911pt" height="2152pt"
 viewBox="0.00 0.00 911.00 2152.00" xmlns="http://www.w3.org/2000/svg" xmlns:xlink="http://www.w3.org/1999/xlink">
<g id="graph0" class="graph" transform="scale(1 1) rotate(0) translate(4 2148)">
<title>sk_groups_limitless_rooms</title>
<polygon fill="#ffffff" stroke="transparent" points="-4,4 -4,-2148 907,-2148 907,4 -4,4"/>
<!-- sk_groups_limitless_rooms -->
<g id="node1" class="node">
<title>sk_groups_limitless_rooms</title>
<polygon fill="#efefef" stroke="transparent" points="283,-2062.5 283,-2097.5 641,-2097.5 641,-2062.5 283,-2062.5"/>
<polygon fill="none" stroke="#000000" points="283,-2062.5 283,-2097.5 641,-2097.5 641,-2062.5 283,-2062.5"/>
<text text-anchor="start" x="289.7111" y="-2075.3" font-family="Arial Bold" font-size="18.00" fill="#000000">sk_groups_limitless_rooms</text>
<text text-anchor="start" x="506.7209" y="-2075.3" font-family="Arial" font-size="14.00" fill="#000000">    </text>
<text text-anchor="start" x="540.9257" y="-2075.3" font-family="Arial" font-size="14.00" fill="#666666">[BASE TABLE]</text>
<polygon fill="none" stroke="#000000" points="283,-2032.5 283,-2062.5 641,-2062.5 641,-2032.5 283,-2032.5"/>
<text text-anchor="start" x="290" y="-2043.9" font-family="Arial" font-size="14.00" fill="#000000">id </text>
<text text-anchor="start" x="304.7798" y="-2043.9" font-family="Arial" font-size="14.00" fill="#666666">[int(11) unsigned]</text>
<polygon fill="none" stroke="#000000" points="283,-2002.5 283,-2032.5 641,-2032.5 641,-2002.5 283,-2002.5"/>
<text text-anchor="start" x="290" y="-2013.9" font-family="Arial" font-size="14.00" fill="#000000">group_id </text>
<text text-anchor="start" x="348.3534" y="-2013.9" font-family="Arial" font-size="14.00" fill="#666666">[int(11) unsigned]</text>
<polygon fill="none" stroke="#000000" points="283,-1972.5 283,-2002.5 641,-2002.5 641,-1972.5 283,-1972.5"/>
<text text-anchor="start" x="290" y="-1983.9" font-family="Arial" font-size="14.00" fill="#000000">room_id </text>
<text text-anchor="start" x="344.4488" y="-1983.9" font-family="Arial" font-size="14.00" fill="#666666">[int(11) unsigned]</text>
<polygon fill="none" stroke="#000000" stroke-width="3" points="281.5,-1971.5 281.5,-2099.5 642.5,-2099.5 642.5,-1971.5 281.5,-1971.5"/>
</g>
<!-- sk_groups -->
<g id="node2" class="node">
<title>sk_groups</title>
<polygon fill="#efefef" stroke="transparent" points="43,-1647.5 43,-1682.5 429,-1682.5 429,-1647.5 43,-1647.5"/>
<polygon fill="none" stroke="#000000" points="43,-1647.5 43,-1682.5 429,-1682.5 429,-1647.5 43,-1647.5"/>
<text text-anchor="start" x="130.7044" y="-1660.3" font-family="Arial Bold" font-size="18.00" fill="#000000">sk_groups</text>
<text text-anchor="start" x="213.7276" y="-1660.3" font-family="Arial" font-size="14.00" fill="#000000">    </text>
<text text-anchor="start" x="247.9324" y="-1660.3" font-family="Arial" font-size="14.00" fill="#666666">[BASE TABLE]</text>
<polygon fill="none" stroke="#000000" points="43,-1617.5 43,-1647.5 429,-1647.5 429,-1617.5 43,-1617.5"/>
<text text-anchor="start" x="50" y="-1628.9" font-family="Arial" font-size="14.00" fill="#000000">id    </text>
<text text-anchor="start" x="95.094" y="-1628.9" font-family="Arial" font-size="14.00" fill="#666666">[int(11) unsigned]</text>
<polygon fill="none" stroke="#000000" points="43,-1587.5 43,-1617.5 429,-1617.5 429,-1587.5 43,-1587.5"/>
<text text-anchor="start" x="50" y="-1598.9" font-family="Arial" font-size="14.00" fill="#000000">name    </text>
<text text-anchor="start" x="119.2132" y="-1598.9" font-family="Arial" font-size="14.00" fill="#666666">[varchar(255)]</text>
<polygon fill="none" stroke="#000000" points="43,-1557.5 43,-1587.5 429,-1587.5 429,-1557.5 43,-1557.5"/>
<text text-anchor="start" x="50" y="-1568.9" font-family="Arial" font-size="14.00" fill="#000000">lessor_parent_id    </text>
<text text-anchor="start" x="187.6732" y="-1568.9" font-family="Arial" font-size="14.00" fill="#666666">[int(11) unsigned]</text>
<polygon fill="none" stroke="#000000" points="43,-1527.5 43,-1557.5 429,-1557.5 429,-1527.5 43,-1527.5"/>
<text text-anchor="start" x="50" y="-1538.9" font-family="Arial" font-size="14.00" fill="#000000">subscription_id    </text>
<text text-anchor="start" x="177.554" y="-1538.9" font-family="Arial" font-size="14.00" fill="#666666">[int(11) unsigned]</text>
<polygon fill="none" stroke="#000000" points="43,-1497.5 43,-1527.5 429,-1527.5 429,-1497.5 43,-1497.5"/>
<text text-anchor="start" x="50" y="-1508.9" font-family="Arial" font-size="14.00" fill="#000000">payment_type    </text>
<text text-anchor="start" x="172.1248" y="-1508.9" font-family="Arial" font-size="14.00" fill="#666666">[smallint(6)]</text>
<polygon fill="none" stroke="#000000" points="43,-1467.5 43,-1497.5 429,-1497.5 429,-1467.5 43,-1467.5"/>
<text text-anchor="start" x="50" y="-1478.9" font-family="Arial" font-size="14.00" fill="#000000">discount_type    </text>
<text text-anchor="start" x="170.5708" y="-1478.9" font-family="Arial" font-size="14.00" fill="#666666">[smallint(6)]</text>
<polygon fill="none" stroke="#000000" points="43,-1437.5 43,-1467.5 429,-1467.5 429,-1437.5 43,-1437.5"/>
<text text-anchor="start" x="50" y="-1448.9" font-family="Arial" font-size="14.00" fill="#000000">discount_name    </text>
<text text-anchor="start" x="179.1234" y="-1448.9" font-family="Arial" font-size="14.00" fill="#666666">[varchar(255)]</text>
<polygon fill="none" stroke="#000000" points="43,-1407.5 43,-1437.5 429,-1437.5 429,-1407.5 43,-1407.5"/>
<text text-anchor="start" x="50" y="-1418.9" font-family="Arial" font-size="14.00" fill="#000000">discount_rate    </text>
<text text-anchor="start" x="168.2314" y="-1418.9" font-family="Arial" font-size="14.00" fill="#666666">[smallint(3)]</text>
<polygon fill="none" stroke="#000000" points="43,-1377.5 43,-1407.5 429,-1407.5 429,-1377.5 43,-1377.5"/>
<text text-anchor="start" x="50" y="-1388.9" font-family="Arial" font-size="14.00" fill="#000000">discount_price    </text>
<text text-anchor="start" x="174.4474" y="-1388.9" font-family="Arial" font-size="14.00" fill="#666666">[int(11)]</text>
<polygon fill="none" stroke="#000000" points="43,-1347.5 43,-1377.5 429,-1377.5 429,-1347.5 43,-1347.5"/>
<text text-anchor="start" x="50" y="-1358.9" font-family="Arial" font-size="14.00" fill="#000000">payment_method    </text>
<text text-anchor="start" x="192.3506" y="-1358.9" font-family="Arial" font-size="14.00" fill="#666666">[smallint(2)]</text>
<polygon fill="none" stroke="#000000" points="43,-1317.5 43,-1347.5 429,-1347.5 429,-1317.5 43,-1317.5"/>
<text text-anchor="start" x="50" y="-1328.9" font-family="Arial" font-size="14.00" fill="#000000">bank_name    </text>
<text text-anchor="start" x="157.3436" y="-1328.9" font-family="Arial" font-size="14.00" fill="#666666">[varchar(200)]</text>
<polygon fill="none" stroke="#000000" points="43,-1287.5 43,-1317.5 429,-1317.5 429,-1287.5 43,-1287.5"/>
<text text-anchor="start" x="50" y="-1298.9" font-family="Arial" font-size="14.00" fill="#000000">bank_branch_name    </text>
<text text-anchor="start" x="207.9172" y="-1298.9" font-family="Arial" font-size="14.00" fill="#666666">[varchar(200)]</text>
<polygon fill="none" stroke="#000000" points="43,-1257.5 43,-1287.5 429,-1287.5 429,-1257.5 43,-1257.5"/>
<text text-anchor="start" x="50" y="-1268.9" font-family="Arial" font-size="14.00" fill="#000000">bank_account_type    </text>
<text text-anchor="start" x="205.5946" y="-1268.9" font-family="Arial" font-size="14.00" fill="#666666">[smallint(2)]</text>
<polygon fill="none" stroke="#000000" points="43,-1227.5 43,-1257.5 429,-1257.5 429,-1227.5 43,-1227.5"/>
<text text-anchor="start" x="50" y="-1238.9" font-family="Arial" font-size="14.00" fill="#000000">bank_account_no    </text>
<text text-anchor="start" x="194.704" y="-1238.9" font-family="Arial" font-size="14.00" fill="#666666">[varchar(10)]</text>
<polygon fill="none" stroke="#000000" points="43,-1197.5 43,-1227.5 429,-1227.5 429,-1197.5 43,-1197.5"/>
<text text-anchor="start" x="50" y="-1208.9" font-family="Arial" font-size="14.00" fill="#000000">bank_account_holder    </text>
<text text-anchor="start" x="218.0364" y="-1208.9" font-family="Arial" font-size="14.00" fill="#666666">[varchar(200)]</text>
<polygon fill="none" stroke="#000000" points="43,-1167.5 43,-1197.5 429,-1197.5 429,-1167.5 43,-1167.5"/>
<text text-anchor="start" x="50" y="-1178.9" font-family="Arial" font-size="14.00" fill="#000000">is_creditcard_payment_method_enabled    </text>
<text text-anchor="start" x="337.056" y="-1178.9" font-family="Arial" font-size="14.00" fill="#666666">[tinyint(1)]</text>
<polygon fill="none" stroke="#000000" points="43,-1137.5 43,-1167.5 429,-1167.5 429,-1137.5 43,-1137.5"/>
<text text-anchor="start" x="50" y="-1148.9" font-family="Arial" font-size="14.00" fill="#000000">is_stripe_payment_method_enabled    </text>
<text text-anchor="start" x="309.8302" y="-1148.9" font-family="Arial" font-size="14.00" fill="#666666">[tinyint(1)]</text>
<polygon fill="none" stroke="#000000" points="43,-1107.5 43,-1137.5 429,-1137.5 429,-1107.5 43,-1107.5"/>
<text text-anchor="start" x="50" y="-1118.9" font-family="Arial" font-size="14.00" fill="#000000">is_bill_payment_method_enabled    </text>
<text text-anchor="start" x="292.7096" y="-1118.9" font-family="Arial" font-size="14.00" fill="#666666">[tinyint(1)]</text>
<polygon fill="none" stroke="#000000" points="43,-1077.5 43,-1107.5 429,-1107.5 429,-1077.5 43,-1077.5"/>
<text text-anchor="start" x="50" y="-1088.9" font-family="Arial" font-size="14.00" fill="#000000">is_onetime_bill_payment_method_enabled    </text>
<text text-anchor="start" x="350.2804" y="-1088.9" font-family="Arial" font-size="14.00" fill="#666666">[tinyint(1)]</text>
<polygon fill="none" stroke="#000000" points="43,-1047.5 43,-1077.5 429,-1077.5 429,-1047.5 43,-1047.5"/>
<text text-anchor="start" x="50" y="-1058.9" font-family="Arial" font-size="14.00" fill="#000000">is_local_payment_method_enabled    </text>
<text text-anchor="start" x="304.3856" y="-1058.9" font-family="Arial" font-size="14.00" fill="#666666">[tinyint(1)]</text>
<polygon fill="none" stroke="#000000" points="43,-1017.5 43,-1047.5 429,-1047.5 429,-1017.5 43,-1017.5"/>
<text text-anchor="start" x="50" y="-1028.9" font-family="Arial" font-size="14.00" fill="#000000">is_reservation_limit_times_daily_enabled    </text>
<text text-anchor="start" x="339.3478" y="-1028.9" font-family="Arial" font-size="14.00" fill="#666666">[tinyint(1)]</text>
<polygon fill="none" stroke="#000000" points="43,-987.5 43,-1017.5 429,-1017.5 429,-987.5 43,-987.5"/>
<text text-anchor="start" x="50" y="-998.9" font-family="Arial" font-size="14.00" fill="#000000">reservation_limit_times_daily    </text>
<text text-anchor="start" x="263.8738" y="-998.9" font-family="Arial" font-size="14.00" fill="#666666">[smallint(6)]</text>
<polygon fill="none" stroke="#000000" points="43,-957.5 43,-987.5 429,-987.5 429,-957.5 43,-957.5"/>
<text text-anchor="start" x="50" y="-968.9" font-family="Arial" font-size="14.00" fill="#000000">is_reservation_limit_hours_daily_enabled    </text>
<text text-anchor="start" x="340.9158" y="-968.9" font-family="Arial" font-size="14.00" fill="#666666">[tinyint(1)]</text>
<polygon fill="none" stroke="#000000" points="43,-927.5 43,-957.5 429,-957.5 429,-927.5 43,-927.5"/>
<text text-anchor="start" x="50" y="-938.9" font-family="Arial" font-size="14.00" fill="#000000">reservation_limit_hour_daily    </text>
<text text-anchor="start" x="258.4418" y="-938.9" font-family="Arial" font-size="14.00" fill="#666666">[smallint(6)]</text>
<polygon fill="none" stroke="#000000" points="43,-897.5 43,-927.5 429,-927.5 429,-897.5 43,-897.5"/>
<text text-anchor="start" x="50" y="-908.9" font-family="Arial" font-size="14.00" fill="#000000">reservation_limit_minute_daily    </text>
<text text-anchor="start" x="272.439" y="-908.9" font-family="Arial" font-size="14.00" fill="#666666">[smallint(6)]</text>
<polygon fill="none" stroke="#000000" points="43,-867.5 43,-897.5 429,-897.5 429,-867.5 43,-867.5"/>
<text text-anchor="start" x="50" y="-878.9" font-family="Arial" font-size="14.00" fill="#000000">is_reservation_limit_times_monthly_enabled    </text>
<text text-anchor="start" x="359.575" y="-878.9" font-family="Arial" font-size="14.00" fill="#666666">[tinyint(1)]</text>
<polygon fill="none" stroke="#000000" points="43,-837.5 43,-867.5 429,-867.5 429,-837.5 43,-837.5"/>
<text text-anchor="start" x="50" y="-848.9" font-family="Arial" font-size="14.00" fill="#000000">reservation_limit_times_monthly    </text>
<text text-anchor="start" x="284.101" y="-848.9" font-family="Arial" font-size="14.00" fill="#666666">[smallint(6)]</text>
<polygon fill="none" stroke="#000000" points="43,-807.5 43,-837.5 429,-837.5 429,-807.5 43,-807.5"/>
<text text-anchor="start" x="49.7062" y="-818.9" font-family="Arial" font-size="14.00" fill="#000000">is_reservation_limit_hours_monthly_enabled    </text>
<text text-anchor="start" x="360.8492" y="-818.9" font-family="Arial" font-size="14.00" fill="#666666">[tinyint(1)]</text>
<polygon fill="none" stroke="#000000" points="43,-777.5 43,-807.5 429,-807.5 429,-777.5 43,-777.5"/>
<text text-anchor="start" x="50" y="-788.9" font-family="Arial" font-size="14.00" fill="#000000">reservation_limit_hour_monthly    </text>
<text text-anchor="start" x="278.669" y="-788.9" font-family="Arial" font-size="14.00" fill="#666666">[smallint(6)]</text>
<polygon fill="none" stroke="#000000" points="43,-747.5 43,-777.5 429,-777.5 429,-747.5 43,-747.5"/>
<text text-anchor="start" x="50" y="-758.9" font-family="Arial" font-size="14.00" fill="#000000">reservation_limit_minute_monthly    </text>
<text text-anchor="start" x="292.6662" y="-758.9" font-family="Arial" font-size="14.00" fill="#666666">[smallint(6)]</text>
<polygon fill="none" stroke="#000000" points="43,-717.5 43,-747.5 429,-747.5 429,-717.5 43,-717.5"/>
<text text-anchor="start" x="50" y="-728.9" font-family="Arial" font-size="14.00" fill="#000000">is_reservation_limit_number_enabled    </text>
<text text-anchor="start" x="316.798" y="-728.9" font-family="Arial" font-size="14.00" fill="#666666">[tinyint(1)]</text>
<polygon fill="none" stroke="#000000" points="43,-687.5 43,-717.5 429,-717.5 429,-687.5 43,-687.5"/>
<text text-anchor="start" x="50" y="-698.9" font-family="Arial" font-size="14.00" fill="#000000">reservation_limit_number    </text>
<text text-anchor="start" x="241.324" y="-698.9" font-family="Arial" font-size="14.00" fill="#666666">[smallint(6)]</text>
<polygon fill="none" stroke="#000000" points="43,-657.5 43,-687.5 429,-687.5 429,-657.5 43,-657.5"/>
<text text-anchor="start" x="50" y="-668.9" font-family="Arial" font-size="14.00" fill="#000000">is_custom_business_hours_enabled    </text>
<text text-anchor="start" x="310.6058" y="-668.9" font-family="Arial" font-size="14.00" fill="#666666">[tinyint(1)]</text>
<polygon fill="none" stroke="#000000" points="43,-627.5 43,-657.5 429,-657.5 429,-627.5 43,-627.5"/>
<text text-anchor="start" x="50" y="-638.9" font-family="Arial" font-size="14.00" fill="#000000">is_setup_unreservable_room_enabled    </text>
<text text-anchor="start" x="322.2748" y="-638.9" font-family="Arial" font-size="14.00" fill="#666666">[tinyint(1)]</text>
<polygon fill="none" stroke="#000000" points="43,-597.5 43,-627.5 429,-627.5 429,-597.5 43,-597.5"/>
<text text-anchor="start" x="50" y="-608.9" font-family="Arial" font-size="14.00" fill="#000000">is_max_usage_time_enabled    </text>
<text text-anchor="start" x="266.258" y="-608.9" font-family="Arial" font-size="14.00" fill="#666666">[tinyint(1)]</text>
<polygon fill="none" stroke="#000000" points="43,-567.5 43,-597.5 429,-597.5 429,-567.5 43,-567.5"/>
<text text-anchor="start" x="50" y="-578.9" font-family="Arial" font-size="14.00" fill="#000000">max_usage_time    </text>
<text text-anchor="start" x="190.784" y="-578.9" font-family="Arial" font-size="14.00" fill="#666666">[time]</text>
<polygon fill="none" stroke="#000000" points="43,-537.5 43,-567.5 429,-567.5 429,-537.5 43,-537.5"/>
<text text-anchor="start" x="50" y="-548.9" font-family="Arial" font-size="14.00" fill="#000000">is_reservation_limit_times_yearly_enabled    </text>
<text text-anchor="start" x="347.9018" y="-548.9" font-family="Arial" font-size="14.00" fill="#666666">[tinyint(1)]</text>
<polygon fill="none" stroke="#000000" points="43,-507.5 43,-537.5 429,-537.5 429,-507.5 43,-507.5"/>
<text text-anchor="start" x="50" y="-518.9" font-family="Arial" font-size="14.00" fill="#000000">reservation_limit_times_yearly    </text>
<text text-anchor="start" x="272.4278" y="-518.9" font-family="Arial" font-size="14.00" fill="#666666">[smallint(6)]</text>
<polygon fill="none" stroke="#000000" points="43,-477.5 43,-507.5 429,-507.5 429,-477.5 43,-477.5"/>
<text text-anchor="start" x="50" y="-488.9" font-family="Arial" font-size="14.00" fill="#000000">is_reservation_limit_hours_yearly_enabled    </text>
<text text-anchor="start" x="349.4698" y="-488.9" font-family="Arial" font-size="14.00" fill="#666666">[tinyint(1)]</text>
<polygon fill="none" stroke="#000000" points="43,-447.5 43,-477.5 429,-477.5 429,-447.5 43,-447.5"/>
<text text-anchor="start" x="50" y="-458.9" font-family="Arial" font-size="14.00" fill="#000000">reservation_limit_hour_yearly    </text>
<text text-anchor="start" x="266.9958" y="-458.9" font-family="Arial" font-size="14.00" fill="#666666">[smallint(6)]</text>
<polygon fill="none" stroke="#000000" points="43,-417.5 43,-447.5 429,-447.5 429,-417.5 43,-417.5"/>
<text text-anchor="start" x="50" y="-428.9" font-family="Arial" font-size="14.00" fill="#000000">reservation_limit_minute_yearly    </text>
<text text-anchor="start" x="280.993" y="-428.9" font-family="Arial" font-size="14.00" fill="#666666">[smallint(1)]</text>
<polygon fill="none" stroke="#000000" points="43,-387.5 43,-417.5 429,-417.5 429,-387.5 43,-387.5"/>
<text text-anchor="start" x="50" y="-398.9" font-family="Arial" font-size="14.00" fill="#000000">is_set_reservable_time    </text>
<text text-anchor="start" x="228.1136" y="-398.9" font-family="Arial" font-size="14.00" fill="#666666">[tinyint(1)]</text>
<polygon fill="none" stroke="#000000" points="43,-357.5 43,-387.5 429,-387.5 429,-357.5 43,-357.5"/>
<text text-anchor="start" x="50" y="-368.9" font-family="Arial" font-size="14.00" fill="#000000">start_reservable_time    </text>
<text text-anchor="start" x="218.7756" y="-368.9" font-family="Arial" font-size="14.00" fill="#666666">[smallint(3)]</text>
<polygon fill="none" stroke="#000000" points="43,-327.5 43,-357.5 429,-357.5 429,-327.5 43,-327.5"/>
<text text-anchor="start" x="50" y="-338.9" font-family="Arial" font-size="14.00" fill="#000000">end_reservable_time    </text>
<text text-anchor="start" x="214.899" y="-338.9" font-family="Arial" font-size="14.00" fill="#666666">[smallint(3)]</text>
<polygon fill="none" stroke="#000000" points="43,-297.5 43,-327.5 429,-327.5 429,-297.5 43,-297.5"/>
<text text-anchor="start" x="50" y="-308.9" font-family="Arial" font-size="14.00" fill="#000000">is_set_subgroup    </text>
<text text-anchor="start" x="186.906" y="-308.9" font-family="Arial" font-size="14.00" fill="#666666">[tinyint(1)]</text>
<polygon fill="none" stroke="#000000" points="43,-267.5 43,-297.5 429,-297.5 429,-267.5 43,-267.5"/>
<text text-anchor="start" x="50" y="-278.9" font-family="Arial" font-size="14.00" fill="#000000">subgroup_id    </text>
<text text-anchor="start" x="161.2328" y="-278.9" font-family="Arial" font-size="14.00" fill="#666666">[int(11)]</text>
<polygon fill="none" stroke="#000000" points="43,-237.5 43,-267.5 429,-267.5 429,-237.5 43,-237.5"/>
<text text-anchor="start" x="50" y="-248.9" font-family="Arial" font-size="14.00" fill="#000000">is_limitless_room_enabled    </text>
<text text-anchor="start" x="249.108" y="-248.9" font-family="Arial" font-size="14.00" fill="#666666">[tinyint(1)]</text>
<polygon fill="none" stroke="#000000" points="43,-207.5 43,-237.5 429,-237.5 429,-207.5 43,-207.5"/>
<text text-anchor="start" x="50" y="-218.9" font-family="Arial" font-size="14.00" fill="#000000">is_group_custom_origin_cancel_policy    </text>
<text text-anchor="start" x="324.5862" y="-218.9" font-family="Arial" font-size="14.00" fill="#666666">[tinyint(1)]</text>
</g>
<!-- sk_groups_limitless_rooms&#45;&gt;sk_groups -->
<g id="edge1" class="edge">
<title>sk_groups_limitless_rooms:group_id&#45;&gt;sk_groups:id</title>
<path fill="none" stroke="#000000" d="M272.606,-2017.0209C120.7062,-2001.8709 608.2486,-1632.5 429,-1632.5"/>
<polygon fill="#000000" stroke="#000000" points="273.0106,-2017.0394 282.7927,-2021.9952 278.0053,-2017.2697 283,-2017.5 283,-2017.5 283,-2017.5 278.0053,-2017.2697 283.2073,-2013.0048 273.0106,-2017.0394 273.0106,-2017.0394"/>
<text text-anchor="start" x="23.0475" y="-2027.5" font-family="Arial" font-size="10.00" fill="#000000">FOREIGN KEY (group_id) REFERENCES sk_groups (id)</text>
</g>
<!-- sk_rooms -->
<g id="node3" class="node">
<title>sk_rooms</title>
<polygon fill="#efefef" stroke="transparent" points="533,-1812.5 533,-1847.5 845,-1847.5 845,-1812.5 533,-1812.5"/>
<polygon fill="none" stroke="#000000" points="533,-1812.5 533,-1847.5 845,-1847.5 845,-1812.5 533,-1812.5"/>
<text text-anchor="start" x="586.2145" y="-1825.3" font-family="Arial Bold" font-size="18.00" fill="#000000">sk_rooms</text>
<text text-anchor="start" x="664.2175" y="-1825.3" font-family="Arial" font-size="14.00" fill="#000000">    </text>
<text text-anchor="start" x="698.4223" y="-1825.3" font-family="Arial" font-size="14.00" fill="#666666">[BASE TABLE]</text>
<polygon fill="none" stroke="#000000" points="533,-1782.5 533,-1812.5 845,-1812.5 845,-1782.5 533,-1782.5"/>
<text text-anchor="start" x="540" y="-1793.9" font-family="Arial" font-size="14.00" fill="#000000">id    </text>
<text text-anchor="start" x="585.094" y="-1793.9" font-family="Arial" font-size="14.00" fill="#666666">[int(11) unsigned]</text>
<polygon fill="none" stroke="#000000" points="533,-1752.5 533,-1782.5 845,-1782.5 845,-1752.5 533,-1752.5"/>
<text text-anchor="start" x="540" y="-1763.9" font-family="Arial" font-size="14.00" fill="#000000">is_deleted    </text>
<text text-anchor="start" x="638.0042" y="-1763.9" font-family="Arial" font-size="14.00" fill="#666666">[tinyint(1)]</text>
<polygon fill="none" stroke="#000000" points="533,-1722.5 533,-1752.5 845,-1752.5 845,-1722.5 533,-1722.5"/>
<text text-anchor="start" x="540" y="-1733.9" font-family="Arial" font-size="14.00" fill="#000000">is_public    </text>
<text text-anchor="start" x="628.655" y="-1733.9" font-family="Arial" font-size="14.00" fill="#666666">[tinyint(1)]</text>
<polygon fill="none" stroke="#000000" points="533,-1692.5 533,-1722.5 845,-1722.5 845,-1692.5 533,-1692.5"/>
<text text-anchor="start" x="540" y="-1703.9" font-family="Arial" font-size="14.00" fill="#000000">is_set    </text>
<text text-anchor="start" x="610.7672" y="-1703.9" font-family="Arial" font-size="14.00" fill="#666666">[tinyint(1)]</text>
<polygon fill="none" stroke="#000000" points="533,-1662.5 533,-1692.5 845,-1692.5 845,-1662.5 533,-1662.5"/>
<text text-anchor="start" x="540" y="-1673.9" font-family="Arial" font-size="14.00" fill="#000000">property_id    </text>
<text text-anchor="start" x="644.2188" y="-1673.9" font-family="Arial" font-size="14.00" fill="#666666">[int(11) unsigned]</text>
<polygon fill="none" stroke="#000000" points="533,-1632.5 533,-1662.5 845,-1662.5 845,-1632.5 533,-1632.5"/>
<text text-anchor="start" x="540" y="-1643.9" font-family="Arial" font-size="14.00" fill="#000000">lessor_id    </text>
<text text-anchor="start" x="630.209" y="-1643.9" font-family="Arial" font-size="14.00" fill="#666666">[int(11) unsigned]</text>
<polygon fill="none" stroke="#000000" points="533,-1602.5 533,-1632.5 845,-1632.5 845,-1602.5 533,-1602.5"/>
<text text-anchor="start" x="540" y="-1613.9" font-family="Arial" font-size="14.00" fill="#000000">name    </text>
<text text-anchor="start" x="609.2132" y="-1613.9" font-family="Arial" font-size="14.00" fill="#666666">[varchar(200)]</text>
<polygon fill="none" stroke="#000000" points="533,-1572.5 533,-1602.5 845,-1602.5 845,-1572.5 533,-1572.5"/>
<text text-anchor="start" x="540" y="-1583.9" font-family="Arial" font-size="14.00" fill="#000000">voice_name    </text>
<text text-anchor="start" x="649.6676" y="-1583.9" font-family="Arial" font-size="14.00" fill="#666666">[varchar(200)]</text>
<polygon fill="none" stroke="#000000" points="533,-1542.5 533,-1572.5 845,-1572.5 845,-1542.5 533,-1542.5"/>
<text text-anchor="start" x="540" y="-1553.9" font-family="Arial" font-size="14.00" fill="#000000">description_url    </text>
<text text-anchor="start" x="665.2146" y="-1553.9" font-family="Arial" font-size="14.00" fill="#666666">[varchar(1000)]</text>
<polygon fill="none" stroke="#000000" points="533,-1512.5 533,-1542.5 845,-1542.5 845,-1512.5 533,-1512.5"/>
<text text-anchor="start" x="540" y="-1523.9" font-family="Arial" font-size="14.00" fill="#000000">exclusive_area    </text>
<text text-anchor="start" x="667.5568" y="-1523.9" font-family="Arial" font-size="14.00" fill="#666666">[decimal(10,2)]</text>
<polygon fill="none" stroke="#000000" points="533,-1482.5 533,-1512.5 845,-1512.5 845,-1482.5 533,-1482.5"/>
<text text-anchor="start" x="540" y="-1493.9" font-family="Arial" font-size="14.00" fill="#000000">ceiling_height    </text>
<text text-anchor="start" x="659.7826" y="-1493.9" font-family="Arial" font-size="14.00" fill="#666666">[decimal(10,2)]</text>
<polygon fill="none" stroke="#000000" points="533,-1452.5 533,-1482.5 845,-1482.5 845,-1452.5 533,-1452.5"/>
<text text-anchor="start" x="540" y="-1463.9" font-family="Arial" font-size="14.00" fill="#000000">floor    </text>
<text text-anchor="start" x="601.4278" y="-1463.9" font-family="Arial" font-size="14.00" fill="#666666">[smallint(5)]</text>
<polygon fill="none" stroke="#000000" points="533,-1422.5 533,-1452.5 845,-1452.5 845,-1422.5 533,-1422.5"/>
<text text-anchor="start" x="540" y="-1433.9" font-family="Arial" font-size="14.00" fill="#000000">minimum_time    </text>
<text text-anchor="start" x="665.188" y="-1433.9" font-family="Arial" font-size="14.00" fill="#666666">[time]</text>
<polygon fill="none" stroke="#000000" points="533,-1392.5 533,-1422.5 845,-1422.5 845,-1392.5 533,-1392.5"/>
<text text-anchor="start" x="540" y="-1403.9" font-family="Arial" font-size="14.00" fill="#000000">maximum_time    </text>
<text text-anchor="start" x="669.0814" y="-1403.9" font-family="Arial" font-size="14.00" fill="#666666">[time]</text>
<polygon fill="none" stroke="#000000" points="533,-1362.5 533,-1392.5 845,-1392.5 845,-1362.5 533,-1362.5"/>
<text text-anchor="start" x="540" y="-1373.9" font-family="Arial" font-size="14.00" fill="#000000">start_date    </text>
<text text-anchor="start" x="636.4502" y="-1373.9" font-family="Arial" font-size="14.00" fill="#666666">[date]</text>
<polygon fill="none" stroke="#000000" points="533,-1332.5 533,-1362.5 845,-1362.5 845,-1332.5 533,-1332.5"/>
<text text-anchor="start" x="540" y="-1343.9" font-family="Arial" font-size="14.00" fill="#000000">end_date    </text>
<text text-anchor="start" x="632.5736" y="-1343.9" font-family="Arial" font-size="14.00" fill="#666666">[date]</text>
<polygon fill="none" stroke="#000000" points="533,-1302.5 533,-1332.5 845,-1332.5 845,-1302.5 533,-1302.5"/>
<text text-anchor="start" x="540" y="-1313.9" font-family="Arial" font-size="14.00" fill="#000000">is_ninjalock    </text>
<text text-anchor="start" x="646.5442" y="-1313.9" font-family="Arial" font-size="14.00" fill="#666666">[tinyint(1)]</text>
<polygon fill="none" stroke="#000000" points="533,-1272.5 533,-1302.5 845,-1302.5 845,-1272.5 533,-1272.5"/>
<text text-anchor="start" x="540" y="-1283.9" font-family="Arial" font-size="14.00" fill="#000000">is_display_entrance_note    </text>
<text text-anchor="start" x="732.9228" y="-1283.9" font-family="Arial" font-size="14.00" fill="#666666">[tinyint(1)]</text>
<polygon fill="none" stroke="#000000" points="533,-1242.5 533,-1272.5 845,-1272.5 845,-1242.5 533,-1242.5"/>
<text text-anchor="start" x="539.6487" y="-1253.9" font-family="Arial" font-size="14.00" fill="#000000">is_using_custom_business_hour    </text>
<text text-anchor="start" x="776.9067" y="-1253.9" font-family="Arial" font-size="14.00" fill="#666666">[tinyint(1)]</text>
<polygon fill="none" stroke="#000000" points="533,-1212.5 533,-1242.5 845,-1242.5 845,-1212.5 533,-1212.5"/>
<text text-anchor="start" x="540" y="-1223.9" font-family="Arial" font-size="14.00" fill="#000000">has_local_area_network    </text>
<text text-anchor="start" x="725.9102" y="-1223.9" font-family="Arial" font-size="14.00" fill="#666666">[tinyint(1)]</text>
<polygon fill="none" stroke="#000000" points="533,-1182.5 533,-1212.5 845,-1212.5 845,-1182.5 533,-1182.5"/>
<text text-anchor="start" x="540" y="-1193.9" font-family="Arial" font-size="14.00" fill="#000000">basic_price    </text>
<text text-anchor="start" x="644.9916" y="-1193.9" font-family="Arial" font-size="14.00" fill="#666666">[int(11) unsigned]</text>
<polygon fill="none" stroke="#000000" points="533,-1152.5 533,-1182.5 845,-1182.5 845,-1152.5 533,-1152.5"/>
<text text-anchor="start" x="540" y="-1163.9" font-family="Arial" font-size="14.00" fill="#000000">extend_price    </text>
<text text-anchor="start" x="654.3408" y="-1163.9" font-family="Arial" font-size="14.00" fill="#666666">[int(11)]</text>
<polygon fill="none" stroke="#000000" points="533,-1122.5 533,-1152.5 845,-1152.5 845,-1122.5 533,-1122.5"/>
<text text-anchor="start" x="540" y="-1133.9" font-family="Arial" font-size="14.00" fill="#000000">max_price    </text>
<text text-anchor="start" x="638.763" y="-1133.9" font-family="Arial" font-size="14.00" fill="#666666">[int(11)]</text>
<polygon fill="none" stroke="#000000" points="533,-1092.5 533,-1122.5 845,-1122.5 845,-1092.5 533,-1092.5"/>
<text text-anchor="start" x="540" y="-1103.9" font-family="Arial" font-size="14.00" fill="#000000">memo    </text>
<text text-anchor="start" x="613.0912" y="-1103.9" font-family="Arial" font-size="14.00" fill="#666666">[varchar(2000)]</text>
<polygon fill="none" stroke="#000000" points="533,-1062.5 533,-1092.5 845,-1092.5 845,-1062.5 533,-1062.5"/>
<text text-anchor="start" x="540" y="-1073.9" font-family="Arial" font-size="14.00" fill="#000000">floor_position    </text>
<text text-anchor="start" x="657.4446" y="-1073.9" font-family="Arial" font-size="14.00" fill="#666666">[smallint(5)]</text>
<polygon fill="none" stroke="#000000" points="533,-1032.5 533,-1062.5 845,-1062.5 845,-1032.5 533,-1032.5"/>
<text text-anchor="start" x="540" y="-1043.9" font-family="Arial" font-size="14.00" fill="#000000">is_tablet_linked    </text>
<text text-anchor="start" x="670.6732" y="-1043.9" font-family="Arial" font-size="14.00" fill="#666666">[int(11)]</text>
<polygon fill="none" stroke="#000000" points="533,-1002.5 533,-1032.5 845,-1032.5 845,-1002.5 533,-1002.5"/>
<text text-anchor="start" x="540" y="-1013.9" font-family="Arial" font-size="14.00" fill="#000000">batch_mail    </text>
<text text-anchor="start" x="641.8822" y="-1013.9" font-family="Arial" font-size="14.00" fill="#666666">[int(11)]</text>
<polygon fill="none" stroke="#000000" points="533,-972.5 533,-1002.5 845,-1002.5 845,-972.5 533,-972.5"/>
<text text-anchor="start" x="540" y="-983.9" font-family="Arial" font-size="14.00" fill="#000000">batch_mail_owner    </text>
<text text-anchor="start" x="687.7798" y="-983.9" font-family="Arial" font-size="14.00" fill="#666666">[int(11)]</text>
<polygon fill="none" stroke="#000000" points="533,-942.5 533,-972.5 845,-972.5 845,-942.5 533,-942.5"/>
<text text-anchor="start" x="540" y="-953.9" font-family="Arial" font-size="14.00" fill="#000000">guide_text    </text>
<text text-anchor="start" x="638.7882" y="-953.9" font-family="Arial" font-size="14.00" fill="#666666">[text]</text>
<polygon fill="none" stroke="#000000" points="533,-912.5 533,-942.5 845,-942.5 845,-912.5 533,-912.5"/>
<text text-anchor="start" x="540" y="-923.9" font-family="Arial" font-size="14.00" fill="#000000">eating_text    </text>
<text text-anchor="start" x="642.6788" y="-923.9" font-family="Arial" font-size="14.00" fill="#666666">[varchar(1000)]</text>
<polygon fill="none" stroke="#000000" points="533,-882.5 533,-912.5 845,-912.5 845,-882.5 533,-882.5"/>
<text text-anchor="start" x="540" y="-893.9" font-family="Arial" font-size="14.00" fill="#000000">cleanup_text    </text>
<text text-anchor="start" x="653.5708" y="-893.9" font-family="Arial" font-size="14.00" fill="#666666">[varchar(1000)]</text>
<polygon fill="none" stroke="#000000" points="533,-852.5 533,-882.5 845,-882.5 845,-852.5 533,-852.5"/>
<text text-anchor="start" x="540" y="-863.9" font-family="Arial" font-size="14.00" fill="#000000">facility_text    </text>
<text text-anchor="start" x="643.4348" y="-863.9" font-family="Arial" font-size="14.00" fill="#666666">[varchar(1000)]</text>
<polygon fill="none" stroke="#000000" points="533,-822.5 533,-852.5 845,-852.5 845,-822.5 533,-822.5"/>
<text text-anchor="start" x="540" y="-833.9" font-family="Arial" font-size="14.00" fill="#000000">change_layout    </text>
<text text-anchor="start" x="665.2454" y="-833.9" font-family="Arial" font-size="14.00" fill="#666666">[smallint(2)]</text>
<polygon fill="none" stroke="#000000" points="533,-792.5 533,-822.5 845,-822.5 845,-792.5 533,-792.5"/>
<text text-anchor="start" x="540" y="-803.9" font-family="Arial" font-size="14.00" fill="#000000">reservation_unit_an_hour    </text>
<text text-anchor="start" x="732.92" y="-803.9" font-family="Arial" font-size="14.00" fill="#666666">[tinyint(1)]</text>
<polygon fill="none" stroke="#000000" points="533,-762.5 533,-792.5 845,-792.5 845,-762.5 533,-762.5"/>
<text text-anchor="start" x="540" y="-773.9" font-family="Arial" font-size="14.00" fill="#000000">payment_period    </text>
<text text-anchor="start" x="674.5666" y="-773.9" font-family="Arial" font-size="14.00" fill="#666666">[int(11)]</text>
<polygon fill="none" stroke="#000000" points="533,-732.5 533,-762.5 845,-762.5 845,-732.5 533,-732.5"/>
<text text-anchor="start" x="540" y="-743.9" font-family="Arial" font-size="14.00" fill="#000000">sort_order    </text>
<text text-anchor="start" x="637.9902" y="-743.9" font-family="Arial" font-size="14.00" fill="#666666">[int(11)]</text>
<polygon fill="none" stroke="#000000" points="533,-702.5 533,-732.5 845,-732.5 845,-702.5 533,-702.5"/>
<text text-anchor="start" x="540" y="-713.9" font-family="Arial" font-size="14.00" fill="#000000">allow_tentative    </text>
<text text-anchor="start" x="666.7812" y="-713.9" font-family="Arial" font-size="14.00" fill="#666666">[tinyint(1)]</text>
<polygon fill="none" stroke="#000000" points="533,-672.5 533,-702.5 845,-702.5 845,-672.5 533,-672.5"/>
<text text-anchor="start" x="540" y="-683.9" font-family="Arial" font-size="14.00" fill="#000000">allow_change_reserved    </text>
<text text-anchor="start" x="722.0196" y="-683.9" font-family="Arial" font-size="14.00" fill="#666666">[tinyint(1)]</text>
<polygon fill="none" stroke="#000000" points="533,-642.5 533,-672.5 845,-672.5 845,-642.5 533,-642.5"/>
<text text-anchor="start" x="540" y="-653.9" font-family="Arial" font-size="14.00" fill="#000000">allow_extend_reservation    </text>
<text text-anchor="start" x="732.9074" y="-653.9" font-family="Arial" font-size="14.00" fill="#666666">[tinyint(1)]</text>
<polygon fill="none" stroke="#000000" points="533,-612.5 533,-642.5 845,-642.5 845,-612.5 533,-612.5"/>
<text text-anchor="start" x="540" y="-623.9" font-family="Arial" font-size="14.00" fill="#000000">change_reserved_limit_date    </text>
<text text-anchor="start" x="750.0266" y="-623.9" font-family="Arial" font-size="14.00" fill="#666666">[int(11)]</text>
<polygon fill="none" stroke="#000000" points="533,-582.5 533,-612.5 845,-612.5 845,-582.5 533,-582.5"/>
<text text-anchor="start" x="540" y="-593.9" font-family="Arial" font-size="14.00" fill="#000000">tentative_period    </text>
<text text-anchor="start" x="673.7938" y="-593.9" font-family="Arial" font-size="14.00" fill="#666666">[int(11)]</text>
<polygon fill="none" stroke="#000000" points="533,-552.5 533,-582.5 845,-582.5 845,-552.5 533,-552.5"/>
<text text-anchor="start" x="540" y="-563.9" font-family="Arial" font-size="14.00" fill="#000000">tentative_limit_date    </text>
<text text-anchor="start" x="694.7882" y="-563.9" font-family="Arial" font-size="14.00" fill="#666666">[int(11)]</text>
<polygon fill="none" stroke="#000000" points="533,-522.5 533,-552.5 845,-552.5 845,-522.5 533,-522.5"/>
<text text-anchor="start" x="540" y="-533.9" font-family="Arial" font-size="14.00" fill="#000000">include_tax    </text>
<text text-anchor="start" x="645.0042" y="-533.9" font-family="Arial" font-size="14.00" fill="#666666">[tinyint(1)]</text>
<polygon fill="none" stroke="#000000" points="533,-492.5 533,-522.5 845,-522.5 845,-492.5 533,-492.5"/>
<text text-anchor="start" x="540" y="-503.9" font-family="Arial" font-size="14.00" fill="#000000">ninjalock_serial    </text>
<text text-anchor="start" x="669.8766" y="-503.9" font-family="Arial" font-size="14.00" fill="#666666">[varchar(24)]</text>
<polygon fill="none" stroke="#000000" points="533,-462.5 533,-492.5 845,-492.5 845,-462.5 533,-462.5"/>
<text text-anchor="start" x="540" y="-473.9" font-family="Arial" font-size="14.00" fill="#000000">created_datetime    </text>
<text text-anchor="start" x="682.3478" y="-473.9" font-family="Arial" font-size="14.00" fill="#666666">[timestamp]</text>
<polygon fill="none" stroke="#000000" points="533,-432.5 533,-462.5 845,-462.5 845,-432.5 533,-432.5"/>
<text text-anchor="start" x="540" y="-443.9" font-family="Arial" font-size="14.00" fill="#000000">updated_datetime    </text>
<text text-anchor="start" x="686.2524" y="-443.9" font-family="Arial" font-size="14.00" fill="#666666">[timestamp]</text>
<polygon fill="none" stroke="#000000" points="533,-402.5 533,-432.5 845,-432.5 845,-402.5 533,-402.5"/>
<text text-anchor="start" x="540" y="-413.9" font-family="Arial" font-size="14.00" fill="#000000">start_reservable_time    </text>
<text text-anchor="start" x="708.7756" y="-413.9" font-family="Arial" font-size="14.00" fill="#666666">[smallint(3)]</text>
<polygon fill="none" stroke="#000000" points="533,-372.5 533,-402.5 845,-402.5 845,-372.5 533,-372.5"/>
<text text-anchor="start" x="540" y="-383.9" font-family="Arial" font-size="14.00" fill="#000000">end_reservable_time    </text>
<text text-anchor="start" x="704.899" y="-383.9" font-family="Arial" font-size="14.00" fill="#666666">[smallint(3)]</text>
<polygon fill="none" stroke="#000000" points="533,-342.5 533,-372.5 845,-372.5 845,-342.5 533,-342.5"/>
<text text-anchor="start" x="540" y="-353.9" font-family="Arial" font-size="14.00" fill="#000000">is_set_reservable_time    </text>
<text text-anchor="start" x="718.1136" y="-353.9" font-family="Arial" font-size="14.00" fill="#666666">[tinyint(1)]</text>
<polygon fill="none" stroke="#000000" points="533,-312.5 533,-342.5 845,-342.5 845,-312.5 533,-312.5"/>
<text text-anchor="start" x="540" y="-323.9" font-family="Arial" font-size="14.00" fill="#000000">is_buffer_time_setting_enabled    </text>
<text text-anchor="start" x="768.7096" y="-323.9" font-family="Arial" font-size="14.00" fill="#666666">[tinyint(1)]</text>
<polygon fill="none" stroke="#000000" points="533,-282.5 533,-312.5 845,-312.5 845,-282.5 533,-282.5"/>
<text text-anchor="start" x="540" y="-293.9" font-family="Arial" font-size="14.00" fill="#000000">buffer_time    </text>
<text text-anchor="start" x="644.2174" y="-293.9" font-family="Arial" font-size="14.00" fill="#666666">[time]</text>
<polygon fill="none" stroke="#000000" points="533,-252.5 533,-282.5 845,-282.5 845,-252.5 533,-252.5"/>
<text text-anchor="start" x="540" y="-263.9" font-family="Arial" font-size="14.00" fill="#000000">buffer_time_control    </text>
<text text-anchor="start" x="694.0056" y="-263.9" font-family="Arial" font-size="14.00" fill="#666666">[smallint(3)]</text>
<polygon fill="none" stroke="#000000" points="533,-222.5 533,-252.5 845,-252.5 845,-222.5 533,-222.5"/>
<text text-anchor="start" x="540" y="-233.9" font-family="Arial" font-size="14.00" fill="#000000">is_one_day_rental_enabled    </text>
<text text-anchor="start" x="746.1626" y="-233.9" font-family="Arial" font-size="14.00" fill="#666666">[tinyint(1)]</text>
<polygon fill="none" stroke="#000000" points="533,-192.5 533,-222.5 845,-222.5 845,-192.5 533,-192.5"/>
<text text-anchor="start" x="540" y="-203.9" font-family="Arial" font-size="14.00" fill="#000000">owner_buffer_time    </text>
<text text-anchor="start" x="690.115" y="-203.9" font-family="Arial" font-size="14.00" fill="#666666">[time]</text>
<polygon fill="none" stroke="#000000" points="533,-162.5 533,-192.5 845,-192.5 845,-162.5 533,-162.5"/>
<text text-anchor="start" x="540" y="-173.9" font-family="Arial" font-size="14.00" fill="#000000">external_buffer_time    </text>
<text text-anchor="start" x="701.7882" y="-173.9" font-family="Arial" font-size="14.00" fill="#666666">[time]</text>
<polygon fill="none" stroke="#000000" points="533,-132.5 533,-162.5 845,-162.5 845,-132.5 533,-132.5"/>
<text text-anchor="start" x="540" y="-143.9" font-family="Arial" font-size="14.00" fill="#000000">owner_buffer_time_control    </text>
<text text-anchor="start" x="739.9032" y="-143.9" font-family="Arial" font-size="14.00" fill="#666666">[smallint(3)]</text>
<polygon fill="none" stroke="#000000" points="533,-102.5 533,-132.5 845,-132.5 845,-102.5 533,-102.5"/>
<text text-anchor="start" x="540" y="-113.9" font-family="Arial" font-size="14.00" fill="#000000">external_buffer_time_control    </text>
<text text-anchor="start" x="751.5764" y="-113.9" font-family="Arial" font-size="14.00" fill="#666666">[smallint(3)]</text>
<polygon fill="none" stroke="#000000" points="533,-72.5 533,-102.5 845,-102.5 845,-72.5 533,-72.5"/>
<text text-anchor="start" x="540" y="-83.9" font-family="Arial" font-size="14.00" fill="#000000">is_lottery_setting_enabled    </text>
<text text-anchor="start" x="736.8106" y="-83.9" font-family="Arial" font-size="14.00" fill="#666666">[tinyint(1)]</text>
<polygon fill="none" stroke="#000000" points="533,-42.5 533,-72.5 845,-72.5 845,-42.5 533,-42.5"/>
<text text-anchor="start" x="540" y="-53.9" font-family="Arial" font-size="14.00" fill="#000000">lottery_period    </text>
<text text-anchor="start" x="658.9986" y="-53.9" font-family="Arial" font-size="14.00" fill="#666666">[int(5)]</text>
</g>
<!-- sk_groups_limitless_rooms&#45;&gt;sk_rooms -->
<g id="edge2" class="edge">
<title>sk_groups_limitless_rooms:room_id&#45;&gt;sk_rooms:id</title>
<path fill="none" stroke="#000000" d="M650.9447,-1984.8785C664.2881,-1975.8224 654.2656,-1945.4051 641,-1927 611.4157,-1885.954 562.5843,-1932.046 533,-1891 508.702,-1857.2884 491.4444,-1797.5 533,-1797.5"/>
<polygon fill="#000000" stroke="#000000" points="650.6697,-1984.9509 639.8529,-1983.1487 645.8348,-1986.2254 641,-1987.5 641,-1987.5 641,-1987.5 645.8348,-1986.2254 642.1471,-1991.8513 650.6697,-1984.9509 650.6697,-1984.9509"/>
<text text-anchor="start" x="647.8365" y="-1997.5" font-family="Arial" font-size="10.00" fill="#000000">FOREIGN KEY (room_id) REFERENCES sk_rooms (id)</text>
</g>
</g>
</svg>
