<?xml version="1.0" encoding="UTF-8" standalone="no"?>
<!DOCTYPE svg PUBLIC "-//W3C//DTD SVG 1.1//EN"
 "http://www.w3.org/Graphics/SVG/1.1/DTD/svg11.dtd">
<!-- Generated by graphviz version 2.40.1 (20161225.0304)
 -->
<!-- Title: sk_invoice_items Pages: 1 -->
<svg width="611pt" height="922pt"
 viewBox="0.00 0.00 611.00 922.00" xmlns="http://www.w3.org/2000/svg" xmlns:xlink="http://www.w3.org/1999/xlink">
<g id="graph0" class="graph" transform="scale(1 1) rotate(0) translate(4 918)">
<title>sk_invoice_items</title>
<polygon fill="#ffffff" stroke="transparent" points="-4,4 -4,-918 607,-918 607,4 -4,4"/>
<!-- sk_invoice_items -->
<g id="node1" class="node">
<title>sk_invoice_items</title>
<polygon fill="#efefef" stroke="transparent" points="279,-832.5 279,-867.5 557,-867.5 557,-832.5 279,-832.5"/>
<polygon fill="none" stroke="#000000" points="279,-832.5 279,-867.5 557,-867.5 557,-832.5 279,-832.5"/>
<text text-anchor="start" x="285.7089" y="-845.3" font-family="Arial Bold" font-size="18.00" fill="#000000">sk_invoice_items</text>
<text text-anchor="start" x="422.7231" y="-845.3" font-family="Arial" font-size="14.00" fill="#000000">    </text>
<text text-anchor="start" x="456.9279" y="-845.3" font-family="Arial" font-size="14.00" fill="#666666">[BASE TABLE]</text>
<polygon fill="none" stroke="#000000" points="279,-802.5 279,-832.5 557,-832.5 557,-802.5 279,-802.5"/>
<text text-anchor="start" x="286" y="-813.9" font-family="Arial" font-size="14.00" fill="#000000">id </text>
<text text-anchor="start" x="300.7798" y="-813.9" font-family="Arial" font-size="14.00" fill="#666666">[int(10) unsigned]</text>
<polygon fill="none" stroke="#000000" points="279,-772.5 279,-802.5 557,-802.5 557,-772.5 279,-772.5"/>
<text text-anchor="start" x="286" y="-783.9" font-family="Arial" font-size="14.00" fill="#000000">invoice_id </text>
<text text-anchor="start" x="352.1234" y="-783.9" font-family="Arial" font-size="14.00" fill="#666666">[int(11) unsigned]</text>
<polygon fill="none" stroke="#000000" points="279,-742.5 279,-772.5 557,-772.5 557,-742.5 279,-742.5"/>
<text text-anchor="start" x="286" y="-753.9" font-family="Arial" font-size="14.00" fill="#000000">name </text>
<text text-anchor="start" x="324.899" y="-753.9" font-family="Arial" font-size="14.00" fill="#666666">[varchar(1000)]</text>
<polygon fill="none" stroke="#000000" points="279,-712.5 279,-742.5 557,-742.5 557,-712.5 279,-712.5"/>
<text text-anchor="start" x="286" y="-723.9" font-family="Arial" font-size="14.00" fill="#000000">price </text>
<text text-anchor="start" x="320.223" y="-723.9" font-family="Arial" font-size="14.00" fill="#666666">[int(11)]</text>
<polygon fill="none" stroke="#000000" points="279,-682.5 279,-712.5 557,-712.5 557,-682.5 279,-682.5"/>
<text text-anchor="start" x="286" y="-693.9" font-family="Arial" font-size="14.00" fill="#000000">unit </text>
<text text-anchor="start" x="312.453" y="-693.9" font-family="Arial" font-size="14.00" fill="#666666">[varchar(200)]</text>
<polygon fill="none" stroke="#000000" points="279,-652.5 279,-682.5 557,-682.5 557,-652.5 279,-652.5"/>
<text text-anchor="start" x="286" y="-663.9" font-family="Arial" font-size="14.00" fill="#000000">amount </text>
<text text-anchor="start" x="336.5722" y="-663.9" font-family="Arial" font-size="14.00" fill="#666666">[int(11)]</text>
<polygon fill="none" stroke="#000000" points="279,-622.5 279,-652.5 557,-652.5 557,-622.5 279,-622.5"/>
<text text-anchor="start" x="286" y="-633.9" font-family="Arial" font-size="14.00" fill="#000000">tax </text>
<text text-anchor="start" x="308.5638" y="-633.9" font-family="Arial" font-size="14.00" fill="#666666">[int(11)]</text>
<polygon fill="none" stroke="#000000" stroke-width="3" points="277.5,-621.5 277.5,-869.5 558.5,-869.5 558.5,-621.5 277.5,-621.5"/>
</g>
<!-- sk_invoices -->
<g id="node2" class="node">
<title>sk_invoices</title>
<polygon fill="#efefef" stroke="transparent" points="294,-462.5 294,-497.5 541,-497.5 541,-462.5 294,-462.5"/>
<polygon fill="none" stroke="#000000" points="294,-462.5 294,-497.5 541,-497.5 541,-462.5 294,-462.5"/>
<text text-anchor="start" x="307.2094" y="-475.3" font-family="Arial Bold" font-size="18.00" fill="#000000">sk_invoices</text>
<text text-anchor="start" x="400.2226" y="-475.3" font-family="Arial" font-size="14.00" fill="#000000">    </text>
<text text-anchor="start" x="434.4274" y="-475.3" font-family="Arial" font-size="14.00" fill="#666666">[BASE TABLE]</text>
<polygon fill="none" stroke="#000000" points="294,-432.5 294,-462.5 541,-462.5 541,-432.5 294,-432.5"/>
<text text-anchor="start" x="301" y="-443.9" font-family="Arial" font-size="14.00" fill="#000000">id    </text>
<text text-anchor="start" x="346.094" y="-443.9" font-family="Arial" font-size="14.00" fill="#666666">[int(11) unsigned]</text>
<polygon fill="none" stroke="#000000" points="294,-402.5 294,-432.5 541,-432.5 541,-402.5 294,-402.5"/>
<text text-anchor="start" x="301" y="-413.9" font-family="Arial" font-size="14.00" fill="#000000">user_id    </text>
<text text-anchor="start" x="381.1024" y="-413.9" font-family="Arial" font-size="14.00" fill="#666666">[int(11) unsigned]</text>
<polygon fill="none" stroke="#000000" points="294,-372.5 294,-402.5 541,-402.5 541,-372.5 294,-372.5"/>
<text text-anchor="start" x="300.8212" y="-383.9" font-family="Arial" font-size="14.00" fill="#000000">lessor_user_id    </text>
<text text-anchor="start" x="426.0386" y="-383.9" font-family="Arial" font-size="14.00" fill="#666666">[int(11) unsigned]</text>
<polygon fill="none" stroke="#000000" points="294,-342.5 294,-372.5 541,-372.5 541,-342.5 294,-342.5"/>
<text text-anchor="start" x="301" y="-353.9" font-family="Arial" font-size="14.00" fill="#000000">status    </text>
<text text-anchor="start" x="372.5512" y="-353.9" font-family="Arial" font-size="14.00" fill="#666666">[tinyint(1)]</text>
<polygon fill="none" stroke="#000000" points="294,-312.5 294,-342.5 541,-342.5 541,-312.5 294,-312.5"/>
<text text-anchor="start" x="301" y="-323.9" font-family="Arial" font-size="14.00" fill="#000000">is_taxable    </text>
<text text-anchor="start" x="398.2216" y="-323.9" font-family="Arial" font-size="14.00" fill="#666666">[tinyint(1)]</text>
<polygon fill="none" stroke="#000000" points="294,-282.5 294,-312.5 541,-312.5 541,-282.5 294,-282.5"/>
<text text-anchor="start" x="301" y="-293.9" font-family="Arial" font-size="14.00" fill="#000000">is_tax_included    </text>
<text text-anchor="start" x="431.676" y="-293.9" font-family="Arial" font-size="14.00" fill="#666666">[tinyint(1)]</text>
<polygon fill="none" stroke="#000000" points="294,-252.5 294,-282.5 541,-282.5 541,-252.5 294,-252.5"/>
<text text-anchor="start" x="301" y="-263.9" font-family="Arial" font-size="14.00" fill="#000000">tax_rate    </text>
<text text-anchor="start" x="385.777" y="-263.9" font-family="Arial" font-size="14.00" fill="#666666">[tinyint(1)]</text>
<polygon fill="none" stroke="#000000" points="294,-222.5 294,-252.5 541,-252.5 541,-222.5 294,-222.5"/>
<text text-anchor="start" x="301" y="-233.9" font-family="Arial" font-size="14.00" fill="#000000">due_date    </text>
<text text-anchor="start" x="393.5736" y="-233.9" font-family="Arial" font-size="14.00" fill="#666666">[datetime]</text>
<polygon fill="none" stroke="#000000" points="294,-192.5 294,-222.5 541,-222.5 541,-192.5 294,-192.5"/>
<text text-anchor="start" x="301" y="-203.9" font-family="Arial" font-size="14.00" fill="#000000">memo    </text>
<text text-anchor="start" x="374.0912" y="-203.9" font-family="Arial" font-size="14.00" fill="#666666">[varchar(1000)]</text>
<polygon fill="none" stroke="#000000" points="294,-162.5 294,-192.5 541,-192.5 541,-162.5 294,-162.5"/>
<text text-anchor="start" x="301" y="-173.9" font-family="Arial" font-size="14.00" fill="#000000">note    </text>
<text text-anchor="start" x="362.4432" y="-173.9" font-family="Arial" font-size="14.00" fill="#666666">[text]</text>
<polygon fill="none" stroke="#000000" points="294,-132.5 294,-162.5 541,-162.5 541,-132.5 294,-132.5"/>
<text text-anchor="start" x="301" y="-143.9" font-family="Arial" font-size="14.00" fill="#000000">bill_amount    </text>
<text text-anchor="start" x="406.7714" y="-143.9" font-family="Arial" font-size="14.00" fill="#666666">[int(11)]</text>
<polygon fill="none" stroke="#000000" points="294,-102.5 294,-132.5 541,-132.5 541,-102.5 294,-102.5"/>
<text text-anchor="start" x="301" y="-113.9" font-family="Arial" font-size="14.00" fill="#000000">payment_amount    </text>
<text text-anchor="start" x="443.3506" y="-113.9" font-family="Arial" font-size="14.00" fill="#666666">[int(11)]</text>
<polygon fill="none" stroke="#000000" points="294,-72.5 294,-102.5 541,-102.5 541,-72.5 294,-72.5"/>
<text text-anchor="start" x="301" y="-83.9" font-family="Arial" font-size="14.00" fill="#000000">created_datetime    </text>
<text text-anchor="start" x="443.3478" y="-83.9" font-family="Arial" font-size="14.00" fill="#666666">[timestamp]</text>
<polygon fill="none" stroke="#000000" points="294,-42.5 294,-72.5 541,-72.5 541,-42.5 294,-42.5"/>
<text text-anchor="start" x="301" y="-53.9" font-family="Arial" font-size="14.00" fill="#000000">updated_datetime    </text>
<text text-anchor="start" x="447.2524" y="-53.9" font-family="Arial" font-size="14.00" fill="#666666">[timestamp]</text>
</g>
<!-- sk_invoice_items&#45;&gt;sk_invoices -->
<g id="edge1" class="edge">
<title>sk_invoice_items:invoice_id&#45;&gt;sk_invoices:id</title>
<path fill="none" stroke="#000000" d="M268.6058,-786.8717C187.9947,-776.6695 219.9153,-644.7584 279,-577 356.2486,-488.4113 463.7514,-629.5887 541,-541 568.3111,-509.6796 582.5556,-447.5 541,-447.5"/>
<polygon fill="#000000" stroke="#000000" points="269.0182,-786.8965 278.7284,-791.9918 274.0091,-787.1983 279,-787.5 279,-787.5 279,-787.5 274.0091,-787.1983 279.2716,-783.0082 269.0182,-786.8965 269.0182,-786.8965"/>
<text text-anchor="start" x="7.4975" y="-797.5" font-family="Arial" font-size="10.00" fill="#000000">FOREIGN KEY (invoice_id) REFERENCES sk_invoices (id)</text>
</g>
</g>
</svg>
