<?xml version="1.0" encoding="UTF-8" standalone="no"?>
<!DOCTYPE svg PUBLIC "-//W3C//DTD SVG 1.1//EN"
 "http://www.w3.org/Graphics/SVG/1.1/DTD/svg11.dtd">
<!-- Generated by graphviz version 2.40.1 (20161225.0304)
 -->
<!-- Title: sk_lessor_inquiry_receivers Pages: 1 -->
<svg width="713pt" height="1492pt"
 viewBox="0.00 0.00 712.50 1492.00" xmlns="http://www.w3.org/2000/svg" xmlns:xlink="http://www.w3.org/1999/xlink">
<g id="graph0" class="graph" transform="scale(1 1) rotate(0) translate(4 1488)">
<title>sk_lessor_inquiry_receivers</title>
<polygon fill="#ffffff" stroke="transparent" points="-4,4 -4,-1488 708.5,-1488 708.5,4 -4,4"/>
<!-- sk_lessor_inquiry_receivers -->
<g id="node1" class="node">
<title>sk_lessor_inquiry_receivers</title>
<polygon fill="#efefef" stroke="transparent" points="46.5,-1402.5 46.5,-1437.5 409.5,-1437.5 409.5,-1402.5 46.5,-1402.5"/>
<polygon fill="none" stroke="#000000" points="46.5,-1402.5 46.5,-1437.5 409.5,-1437.5 409.5,-1402.5 46.5,-1402.5"/>
<text text-anchor="start" x="53.2091" y="-1415.3" font-family="Arial Bold" font-size="18.00" fill="#000000">sk_lessor_inquiry_receivers</text>
<text text-anchor="start" x="275.2229" y="-1415.3" font-family="Arial" font-size="14.00" fill="#000000">    </text>
<text text-anchor="start" x="309.4277" y="-1415.3" font-family="Arial" font-size="14.00" fill="#666666">[BASE TABLE]</text>
<polygon fill="none" stroke="#000000" points="46.5,-1372.5 46.5,-1402.5 409.5,-1402.5 409.5,-1372.5 46.5,-1372.5"/>
<text text-anchor="start" x="53.5" y="-1383.9" font-family="Arial" font-size="14.00" fill="#000000">id </text>
<text text-anchor="start" x="68.2798" y="-1383.9" font-family="Arial" font-size="14.00" fill="#666666">[int(11) unsigned]</text>
<polygon fill="none" stroke="#000000" points="46.5,-1342.5 46.5,-1372.5 409.5,-1372.5 409.5,-1342.5 46.5,-1342.5"/>
<text text-anchor="start" x="53.5" y="-1353.9" font-family="Arial" font-size="14.00" fill="#000000">lessor_id </text>
<text text-anchor="start" x="113.3948" y="-1353.9" font-family="Arial" font-size="14.00" fill="#666666">[int(11) unsigned]</text>
<polygon fill="none" stroke="#000000" points="46.5,-1312.5 46.5,-1342.5 409.5,-1342.5 409.5,-1312.5 46.5,-1312.5"/>
<text text-anchor="start" x="53.5" y="-1323.9" font-family="Arial" font-size="14.00" fill="#000000">email </text>
<text text-anchor="start" x="90.8296" y="-1323.9" font-family="Arial" font-size="14.00" fill="#666666">[varchar(255)]</text>
<polygon fill="none" stroke="#000000" stroke-width="3" points="44.5,-1311.5 44.5,-1439.5 410.5,-1439.5 410.5,-1311.5 44.5,-1311.5"/>
</g>
<!-- sk_lessors -->
<g id="node2" class="node">
<title>sk_lessors</title>
<polygon fill="#efefef" stroke="transparent" points="54.5,-1152.5 54.5,-1187.5 402.5,-1187.5 402.5,-1152.5 54.5,-1152.5"/>
<polygon fill="none" stroke="#000000" points="54.5,-1152.5 54.5,-1187.5 402.5,-1187.5 402.5,-1152.5 54.5,-1152.5"/>
<text text-anchor="start" x="122.2135" y="-1165.3" font-family="Arial Bold" font-size="18.00" fill="#000000">sk_lessors</text>
<text text-anchor="start" x="207.2185" y="-1165.3" font-family="Arial" font-size="14.00" fill="#000000">    </text>
<text text-anchor="start" x="241.4233" y="-1165.3" font-family="Arial" font-size="14.00" fill="#666666">[BASE TABLE]</text>
<polygon fill="none" stroke="#000000" points="54.5,-1122.5 54.5,-1152.5 402.5,-1152.5 402.5,-1122.5 54.5,-1122.5"/>
<text text-anchor="start" x="61.5" y="-1133.9" font-family="Arial" font-size="14.00" fill="#000000">user_id    </text>
<text text-anchor="start" x="141.6024" y="-1133.9" font-family="Arial" font-size="14.00" fill="#666666">[int(11) unsigned]</text>
<polygon fill="none" stroke="#000000" points="54.5,-1092.5 54.5,-1122.5 402.5,-1122.5 402.5,-1092.5 54.5,-1092.5"/>
<text text-anchor="start" x="61.5" y="-1103.9" font-family="Arial" font-size="14.00" fill="#000000">corporate_name    </text>
<text text-anchor="start" x="197.6206" y="-1103.9" font-family="Arial" font-size="14.00" fill="#666666">[varchar(200)]</text>
<polygon fill="none" stroke="#000000" points="54.5,-1062.5 54.5,-1092.5 402.5,-1092.5 402.5,-1062.5 54.5,-1062.5"/>
<text text-anchor="start" x="61.5" y="-1073.9" font-family="Arial" font-size="14.00" fill="#000000">signature_text    </text>
<text text-anchor="start" x="183.622" y="-1073.9" font-family="Arial" font-size="14.00" fill="#666666">[text]</text>
<polygon fill="none" stroke="#000000" points="54.5,-1032.5 54.5,-1062.5 402.5,-1062.5 402.5,-1032.5 54.5,-1032.5"/>
<text text-anchor="start" x="61.5" y="-1043.9" font-family="Arial" font-size="14.00" fill="#000000">start_reservable_creditcard    </text>
<text text-anchor="start" x="265.284" y="-1043.9" font-family="Arial" font-size="14.00" fill="#666666">[smallint(3)]</text>
<polygon fill="none" stroke="#000000" points="54.5,-1002.5 54.5,-1032.5 402.5,-1032.5 402.5,-1002.5 54.5,-1002.5"/>
<text text-anchor="start" x="61.5" y="-1013.9" font-family="Arial" font-size="14.00" fill="#000000">end_reservable_creditcard    </text>
<text text-anchor="start" x="261.4074" y="-1013.9" font-family="Arial" font-size="14.00" fill="#666666">[smallint(3)]</text>
<polygon fill="none" stroke="#000000" points="54.5,-972.5 54.5,-1002.5 402.5,-1002.5 402.5,-972.5 54.5,-972.5"/>
<text text-anchor="start" x="61.5" y="-983.9" font-family="Arial" font-size="14.00" fill="#000000">start_reservable_bill    </text>
<text text-anchor="start" x="220.9376" y="-983.9" font-family="Arial" font-size="14.00" fill="#666666">[smallint(3)]</text>
<polygon fill="none" stroke="#000000" points="54.5,-942.5 54.5,-972.5 402.5,-972.5 402.5,-942.5 54.5,-942.5"/>
<text text-anchor="start" x="61.5" y="-953.9" font-family="Arial" font-size="14.00" fill="#000000">end_reservable_bill    </text>
<text text-anchor="start" x="217.061" y="-953.9" font-family="Arial" font-size="14.00" fill="#666666">[smallint(3)]</text>
<polygon fill="none" stroke="#000000" points="54.5,-912.5 54.5,-942.5 402.5,-942.5 402.5,-912.5 54.5,-912.5"/>
<text text-anchor="start" x="61.5" y="-923.9" font-family="Arial" font-size="14.00" fill="#000000">bill_note    </text>
<text text-anchor="start" x="147.8282" y="-923.9" font-family="Arial" font-size="14.00" fill="#666666">[text]</text>
<polygon fill="none" stroke="#000000" points="54.5,-882.5 54.5,-912.5 402.5,-912.5 402.5,-882.5 54.5,-882.5"/>
<text text-anchor="start" x="61.5" y="-893.9" font-family="Arial" font-size="14.00" fill="#000000">start_reservable_onetime_bill    </text>
<text text-anchor="start" x="278.5084" y="-893.9" font-family="Arial" font-size="14.00" fill="#666666">[smallint(3)]</text>
<polygon fill="none" stroke="#000000" points="54.5,-852.5 54.5,-882.5 402.5,-882.5 402.5,-852.5 54.5,-852.5"/>
<text text-anchor="start" x="61.5" y="-863.9" font-family="Arial" font-size="14.00" fill="#000000">end_reservable_onetime_bill    </text>
<text text-anchor="start" x="274.6318" y="-863.9" font-family="Arial" font-size="14.00" fill="#666666">[smallint(3)]</text>
<polygon fill="none" stroke="#000000" points="54.5,-822.5 54.5,-852.5 402.5,-852.5 402.5,-822.5 54.5,-822.5"/>
<text text-anchor="start" x="61.5" y="-833.9" font-family="Arial" font-size="14.00" fill="#000000">payment_period    </text>
<text text-anchor="start" x="196.0666" y="-833.9" font-family="Arial" font-size="14.00" fill="#666666">[smallint(3)]</text>
<polygon fill="none" stroke="#000000" points="54.5,-792.5 54.5,-822.5 402.5,-822.5 402.5,-792.5 54.5,-792.5"/>
<text text-anchor="start" x="61.5" y="-803.9" font-family="Arial" font-size="14.00" fill="#000000">lessor_parent_id    </text>
<text text-anchor="start" x="199.1732" y="-803.9" font-family="Arial" font-size="14.00" fill="#666666">[int(11) unsigned]</text>
<polygon fill="none" stroke="#000000" points="54.5,-762.5 54.5,-792.5 402.5,-792.5 402.5,-762.5 54.5,-762.5"/>
<text text-anchor="start" x="61.5" y="-773.9" font-family="Arial" font-size="14.00" fill="#000000">postal    </text>
<text text-anchor="start" x="133.0498" y="-773.9" font-family="Arial" font-size="14.00" fill="#666666">[varchar(8)]</text>
<polygon fill="none" stroke="#000000" points="54.5,-732.5 54.5,-762.5 402.5,-762.5 402.5,-732.5 54.5,-732.5"/>
<text text-anchor="start" x="61.5" y="-743.9" font-family="Arial" font-size="14.00" fill="#000000">prefecture    </text>
<text text-anchor="start" x="158.7202" y="-743.9" font-family="Arial" font-size="14.00" fill="#666666">[varchar(20)]</text>
<polygon fill="none" stroke="#000000" points="54.5,-702.5 54.5,-732.5 402.5,-732.5 402.5,-702.5 54.5,-702.5"/>
<text text-anchor="start" x="61.5" y="-713.9" font-family="Arial" font-size="14.00" fill="#000000">address    </text>
<text text-anchor="start" x="145.4958" y="-713.9" font-family="Arial" font-size="14.00" fill="#666666">[varchar(500)]</text>
<polygon fill="none" stroke="#000000" points="54.5,-672.5 54.5,-702.5 402.5,-702.5 402.5,-672.5 54.5,-672.5"/>
<text text-anchor="start" x="61.5" y="-683.9" font-family="Arial" font-size="14.00" fill="#000000">tel    </text>
<text text-anchor="start" x="110.4846" y="-683.9" font-family="Arial" font-size="14.00" fill="#666666">[varchar(16)]</text>
<polygon fill="none" stroke="#000000" points="54.5,-642.5 54.5,-672.5 402.5,-672.5 402.5,-642.5 54.5,-642.5"/>
<text text-anchor="start" x="61.5" y="-653.9" font-family="Arial" font-size="14.00" fill="#000000">fax    </text>
<text text-anchor="start" x="114.378" y="-653.9" font-family="Arial" font-size="14.00" fill="#666666">[varchar(16)]</text>
<polygon fill="none" stroke="#000000" points="54.5,-612.5 54.5,-642.5 402.5,-642.5 402.5,-612.5 54.5,-612.5"/>
<text text-anchor="start" x="61.5" y="-623.9" font-family="Arial" font-size="14.00" fill="#000000">bank_account    </text>
<text text-anchor="start" x="182.8562" y="-623.9" font-family="Arial" font-size="14.00" fill="#666666">[varchar(200)]</text>
<polygon fill="none" stroke="#000000" points="54.5,-582.5 54.5,-612.5 402.5,-612.5 402.5,-582.5 54.5,-582.5"/>
<text text-anchor="start" x="61.5" y="-593.9" font-family="Arial" font-size="14.00" fill="#000000">invoice_monthly_auto_send    </text>
<text text-anchor="start" x="269.2054" y="-593.9" font-family="Arial" font-size="14.00" fill="#666666">[tinyint(1)]</text>
<polygon fill="none" stroke="#000000" points="54.5,-552.5 54.5,-582.5 402.5,-582.5 402.5,-552.5 54.5,-552.5"/>
<text text-anchor="start" x="61.5" y="-563.9" font-family="Arial" font-size="14.00" fill="#000000">receipt_monthly_auto_send    </text>
<text text-anchor="start" x="267.65" y="-563.9" font-family="Arial" font-size="14.00" fill="#666666">[tinyint(1)]</text>
<polygon fill="none" stroke="#000000" points="54.5,-522.5 54.5,-552.5 402.5,-552.5 402.5,-522.5 54.5,-522.5"/>
<text text-anchor="start" x="61.5" y="-533.9" font-family="Arial" font-size="14.00" fill="#000000">thankyou_auto_send    </text>
<text text-anchor="start" x="225.6598" y="-533.9" font-family="Arial" font-size="14.00" fill="#666666">[tinyint(1)]</text>
<polygon fill="none" stroke="#000000" points="54.5,-492.5 54.5,-522.5 402.5,-522.5 402.5,-492.5 54.5,-492.5"/>
<text text-anchor="start" x="61.5" y="-503.9" font-family="Arial" font-size="14.00" fill="#000000">thankyou_mail_text    </text>
<text text-anchor="start" x="216.2938" y="-503.9" font-family="Arial" font-size="14.00" fill="#666666">[varchar(1000)]</text>
<polygon fill="none" stroke="#000000" points="54.5,-462.5 54.5,-492.5 402.5,-492.5 402.5,-462.5 54.5,-462.5"/>
<text text-anchor="start" x="61.5" y="-473.9" font-family="Arial" font-size="14.00" fill="#000000">is_tax_on_cancel_charge    </text>
<text text-anchor="start" x="254.4256" y="-473.9" font-family="Arial" font-size="14.00" fill="#666666">[tinyint(1)]</text>
<polygon fill="none" stroke="#000000" points="54.5,-432.5 54.5,-462.5 402.5,-462.5 402.5,-432.5 54.5,-432.5"/>
<text text-anchor="start" x="61.5" y="-443.9" font-family="Arial" font-size="14.00" fill="#000000">is_auto_cancel    </text>
<text text-anchor="start" x="189.0694" y="-443.9" font-family="Arial" font-size="14.00" fill="#666666">[tinyint(1)]</text>
<polygon fill="none" stroke="#000000" points="54.5,-402.5 54.5,-432.5 402.5,-432.5 402.5,-402.5 54.5,-402.5"/>
<text text-anchor="start" x="61.5" y="-413.9" font-family="Arial" font-size="14.00" fill="#000000">is_reservable_creditcard_enabled    </text>
<text text-anchor="start" x="305.751" y="-413.9" font-family="Arial" font-size="14.00" fill="#666666">[tinyint(1)]</text>
<polygon fill="none" stroke="#000000" points="54.5,-372.5 54.5,-402.5 402.5,-402.5 402.5,-372.5 54.5,-372.5"/>
<text text-anchor="start" x="61.5" y="-383.9" font-family="Arial" font-size="14.00" fill="#000000">is_reservable_bill_enabled    </text>
<text text-anchor="start" x="261.4046" y="-383.9" font-family="Arial" font-size="14.00" fill="#666666">[tinyint(1)]</text>
<polygon fill="none" stroke="#000000" points="54.5,-342.5 54.5,-372.5 402.5,-372.5 402.5,-342.5 54.5,-342.5"/>
<text text-anchor="start" x="61.2553" y="-353.9" font-family="Arial" font-size="14.00" fill="#000000">is_reservable_local_payment_enabled    </text>
<text text-anchor="start" x="334.3001" y="-353.9" font-family="Arial" font-size="14.00" fill="#666666">[tinyint(1)]</text>
<polygon fill="none" stroke="#000000" points="54.5,-312.5 54.5,-342.5 402.5,-342.5 402.5,-312.5 54.5,-312.5"/>
<text text-anchor="start" x="61.5" y="-323.9" font-family="Arial" font-size="14.00" fill="#000000">start_reservable_local_payment    </text>
<text text-anchor="start" x="294.0778" y="-323.9" font-family="Arial" font-size="14.00" fill="#666666">[int(3)]</text>
<polygon fill="none" stroke="#000000" points="54.5,-282.5 54.5,-312.5 402.5,-312.5 402.5,-282.5 54.5,-282.5"/>
<text text-anchor="start" x="61.5" y="-293.9" font-family="Arial" font-size="14.00" fill="#000000">end_reservable_local_payment    </text>
<text text-anchor="start" x="290.2012" y="-293.9" font-family="Arial" font-size="14.00" fill="#666666">[int(3)]</text>
<polygon fill="none" stroke="#000000" points="54.5,-252.5 54.5,-282.5 402.5,-282.5 402.5,-252.5 54.5,-252.5"/>
<text text-anchor="start" x="61.5" y="-263.9" font-family="Arial" font-size="14.00" fill="#000000">invoice_monthly_send_month_option    </text>
<text text-anchor="start" x="326.7762" y="-263.9" font-family="Arial" font-size="14.00" fill="#666666">[int(11)]</text>
<polygon fill="none" stroke="#000000" points="54.5,-222.5 54.5,-252.5 402.5,-252.5 402.5,-222.5 54.5,-222.5"/>
<text text-anchor="start" x="61.5" y="-233.9" font-family="Arial" font-size="14.00" fill="#000000">invoice_monthly_send_day    </text>
<text text-anchor="start" x="264.5322" y="-233.9" font-family="Arial" font-size="14.00" fill="#666666">[int(11)]</text>
<polygon fill="none" stroke="#000000" points="54.5,-192.5 54.5,-222.5 402.5,-222.5 402.5,-192.5 54.5,-192.5"/>
<text text-anchor="start" x="61.5" y="-203.9" font-family="Arial" font-size="14.00" fill="#000000">invoice_issuer_number    </text>
<text text-anchor="start" x="239.615" y="-203.9" font-family="Arial" font-size="14.00" fill="#666666">[varchar(30)]</text>
<polygon fill="none" stroke="#000000" points="54.5,-162.5 54.5,-192.5 402.5,-192.5 402.5,-162.5 54.5,-162.5"/>
<text text-anchor="start" x="61.5" y="-173.9" font-family="Arial" font-size="14.00" fill="#000000">is_reservable_stripe_enabled    </text>
<text text-anchor="start" x="278.5252" y="-173.9" font-family="Arial" font-size="14.00" fill="#666666">[tinyint(1)]</text>
<polygon fill="none" stroke="#000000" points="54.5,-132.5 54.5,-162.5 402.5,-162.5 402.5,-132.5 54.5,-132.5"/>
<text text-anchor="start" x="61.5" y="-143.9" font-family="Arial" font-size="14.00" fill="#000000">start_reservable_stripe    </text>
<text text-anchor="start" x="238.0582" y="-143.9" font-family="Arial" font-size="14.00" fill="#666666">[smallint(3)]</text>
<polygon fill="none" stroke="#000000" points="54.5,-102.5 54.5,-132.5 402.5,-132.5 402.5,-102.5 54.5,-102.5"/>
<text text-anchor="start" x="61.5" y="-113.9" font-family="Arial" font-size="14.00" fill="#000000">end_reservable_stripe    </text>
<text text-anchor="start" x="234.1816" y="-113.9" font-family="Arial" font-size="14.00" fill="#666666">[smallint(3)]</text>
<polygon fill="none" stroke="#000000" points="54.5,-72.5 54.5,-102.5 402.5,-102.5 402.5,-72.5 54.5,-72.5"/>
<text text-anchor="start" x="61.5" y="-83.9" font-family="Arial" font-size="14.00" fill="#000000">summary    </text>
<text text-anchor="start" x="153.2518" y="-83.9" font-family="Arial" font-size="14.00" fill="#666666">[text]</text>
<polygon fill="none" stroke="#000000" points="54.5,-42.5 54.5,-72.5 402.5,-72.5 402.5,-42.5 54.5,-42.5"/>
<text text-anchor="start" x="61.5" y="-53.9" font-family="Arial" font-size="14.00" fill="#000000">information    </text>
<text text-anchor="start" x="164.9334" y="-53.9" font-family="Arial" font-size="14.00" fill="#666666">[text]</text>
</g>
<!-- sk_lessor_inquiry_receivers&#45;&gt;sk_lessors -->
<g id="edge1" class="edge">
<title>sk_lessor_inquiry_receivers:lessor_id&#45;&gt;sk_lessors:user_id</title>
<path fill="none" stroke="#000000" d="M419.4353,-1355.976C447.1166,-1346.3974 433.9402,-1294.044 409.5,-1267 356.3346,-1208.1706 107.6654,-1289.8294 54.5,-1231 26.6375,-1200.1691 12.9444,-1137.5 54.5,-1137.5"/>
<polygon fill="#000000" stroke="#000000" points="419.3844,-1355.9837 408.8177,-1353.052 414.4422,-1356.7419 409.5,-1357.5 409.5,-1357.5 409.5,-1357.5 414.4422,-1356.7419 410.1823,-1361.948 419.3844,-1355.9837 419.3844,-1355.9837"/>
<text text-anchor="start" x="416.9435" y="-1367.5" font-family="Arial" font-size="10.00" fill="#000000">FOREIGN KEY (lessor_id) REFERENCES sk_lessors (user_id)</text>
</g>
</g>
</svg>
