<?xml version="1.0" encoding="UTF-8" standalone="no"?>
<!DOCTYPE svg PUBLIC "-//W3C//DTD SVG 1.1//EN"
 "http://www.w3.org/Graphics/SVG/1.1/DTD/svg11.dtd">
<!-- Generated by graphviz version 2.40.1 (20161225.0304)
 -->
<!-- Title: sk_lessor_receivers Pages: 1 -->
<svg width="400pt" height="195pt"
 viewBox="0.00 0.00 400.00 195.00" xmlns="http://www.w3.org/2000/svg" xmlns:xlink="http://www.w3.org/1999/xlink">
<g id="graph0" class="graph" transform="scale(1 1) rotate(0) translate(4 191)">
<title>sk_lessor_receivers</title>
<polygon fill="#ffffff" stroke="transparent" points="-4,4 -4,-191 396,-191 396,4 -4,4"/>
<!-- sk_lessor_receivers -->
<g id="node1" class="node">
<title>sk_lessor_receivers</title>
<polygon fill="#efefef" stroke="transparent" points="46,-105.5 46,-140.5 346,-140.5 346,-105.5 46,-105.5"/>
<polygon fill="none" stroke="#000000" points="46,-105.5 46,-140.5 346,-140.5 346,-105.5 46,-105.5"/>
<text text-anchor="start" x="52.7118" y="-118.3" font-family="Arial Bold" font-size="18.00" fill="#000000">sk_lessor_receivers</text>
<text text-anchor="start" x="211.7202" y="-118.3" font-family="Arial" font-size="14.00" fill="#000000">    </text>
<text text-anchor="start" x="245.925" y="-118.3" font-family="Arial" font-size="14.00" fill="#666666">[BASE TABLE]</text>
<polygon fill="none" stroke="#000000" points="46,-75.5 46,-105.5 346,-105.5 346,-75.5 46,-75.5"/>
<text text-anchor="start" x="53" y="-86.9" font-family="Arial" font-size="14.00" fill="#000000">lessor_id </text>
<text text-anchor="start" x="112.8948" y="-86.9" font-family="Arial" font-size="14.00" fill="#666666">[int(11) unsigned]</text>
<polygon fill="none" stroke="#000000" points="46,-45.5 46,-75.5 346,-75.5 346,-45.5 46,-45.5"/>
<text text-anchor="start" x="53" y="-56.9" font-family="Arial" font-size="14.00" fill="#000000">email </text>
<text text-anchor="start" x="90.3296" y="-56.9" font-family="Arial" font-size="14.00" fill="#666666">[varchar(255)]</text>
<polygon fill="none" stroke="#000000" stroke-width="3" points="44.5,-44.5 44.5,-142.5 347.5,-142.5 347.5,-44.5 44.5,-44.5"/>
</g>
</g>
</svg>
