<?xml version="1.0" encoding="UTF-8" standalone="no"?>
<!DOCTYPE svg PUBLIC "-//W3C//DTD SVG 1.1//EN"
 "http://www.w3.org/Graphics/SVG/1.1/DTD/svg11.dtd">
<!-- Generated by graphviz version 2.40.1 (20161225.0304)
 -->
<!-- Title: sk_login_histories Pages: 1 -->
<svg width="384pt" height="315pt"
 viewBox="0.00 0.00 384.00 315.00" xmlns="http://www.w3.org/2000/svg" xmlns:xlink="http://www.w3.org/1999/xlink">
<g id="graph0" class="graph" transform="scale(1 1) rotate(0) translate(4 311)">
<title>sk_login_histories</title>
<polygon fill="#ffffff" stroke="transparent" points="-4,4 -4,-311 380,-311 380,4 -4,4"/>
<!-- sk_login_histories -->
<g id="node1" class="node">
<title>sk_login_histories</title>
<polygon fill="#efefef" stroke="transparent" points="46,-225.5 46,-260.5 330,-260.5 330,-225.5 46,-225.5"/>
<polygon fill="none" stroke="#000000" points="46,-225.5 46,-260.5 330,-260.5 330,-225.5 46,-225.5"/>
<text text-anchor="start" x="52.7056" y="-238.3" font-family="Arial Bold" font-size="18.00" fill="#000000">sk_login_histories</text>
<text text-anchor="start" x="195.7264" y="-238.3" font-family="Arial" font-size="14.00" fill="#000000">    </text>
<text text-anchor="start" x="229.9312" y="-238.3" font-family="Arial" font-size="14.00" fill="#666666">[BASE TABLE]</text>
<polygon fill="none" stroke="#000000" points="46,-195.5 46,-225.5 330,-225.5 330,-195.5 46,-195.5"/>
<text text-anchor="start" x="53" y="-206.9" font-family="Arial" font-size="14.00" fill="#000000">id </text>
<text text-anchor="start" x="67.7798" y="-206.9" font-family="Arial" font-size="14.00" fill="#666666">[int(11) unsigned]</text>
<polygon fill="none" stroke="#000000" points="46,-165.5 46,-195.5 330,-195.5 330,-165.5 46,-165.5"/>
<text text-anchor="start" x="53" y="-176.9" font-family="Arial" font-size="14.00" fill="#000000">user_id </text>
<text text-anchor="start" x="102.7882" y="-176.9" font-family="Arial" font-size="14.00" fill="#666666">[int(11)]</text>
<polygon fill="none" stroke="#000000" points="46,-135.5 46,-165.5 330,-165.5 330,-135.5 46,-135.5"/>
<text text-anchor="start" x="53" y="-146.9" font-family="Arial" font-size="14.00" fill="#000000">user_agent </text>
<text text-anchor="start" x="126.92" y="-146.9" font-family="Arial" font-size="14.00" fill="#666666">[varchar(100)]</text>
<polygon fill="none" stroke="#000000" points="46,-105.5 46,-135.5 330,-135.5 330,-105.5 46,-105.5"/>
<text text-anchor="start" x="53" y="-116.9" font-family="Arial" font-size="14.00" fill="#000000">user_ip </text>
<text text-anchor="start" x="102.7882" y="-116.9" font-family="Arial" font-size="14.00" fill="#666666">[varchar(50)]</text>
<polygon fill="none" stroke="#000000" points="46,-75.5 46,-105.5 330,-105.5 330,-75.5 46,-75.5"/>
<text text-anchor="start" x="53" y="-86.9" font-family="Arial" font-size="14.00" fill="#000000">action_type </text>
<text text-anchor="start" x="128.474" y="-86.9" font-family="Arial" font-size="14.00" fill="#666666">[int(5)]</text>
<polygon fill="none" stroke="#000000" points="46,-45.5 46,-75.5 330,-75.5 330,-45.5 46,-45.5"/>
<text text-anchor="start" x="53" y="-56.9" font-family="Arial" font-size="14.00" fill="#000000">action_timestamp </text>
<text text-anchor="start" x="166.575" y="-56.9" font-family="Arial" font-size="14.00" fill="#666666">[datetime]</text>
<polygon fill="none" stroke="#000000" stroke-width="3" points="44.5,-44.5 44.5,-262.5 331.5,-262.5 331.5,-44.5 44.5,-44.5"/>
</g>
</g>
</svg>
