<?xml version="1.0" encoding="UTF-8" standalone="no"?>
<!DOCTYPE svg PUBLIC "-//W3C//DTD SVG 1.1//EN"
 "http://www.w3.org/Graphics/SVG/1.1/DTD/svg11.dtd">
<!-- Generated by graphviz version 2.40.1 (20161225.0304)
 -->
<!-- Title: sk_lessor_mail_settings Pages: 1 -->
<svg width="715pt" height="1762pt"
 viewBox="0.00 0.00 715.00 1762.00" xmlns="http://www.w3.org/2000/svg" xmlns:xlink="http://www.w3.org/1999/xlink">
<g id="graph0" class="graph" transform="scale(1 1) rotate(0) translate(4 1758)">
<title>sk_lessor_mail_settings</title>
<polygon fill="#ffffff" stroke="transparent" points="-4,4 -4,-1758 711,-1758 711,4 -4,4"/>
<!-- sk_lessor_mail_settings -->
<g id="node1" class="node">
<title>sk_lessor_mail_settings</title>
<polygon fill="#efefef" stroke="transparent" points="46,-1672.5 46,-1707.5 420,-1707.5 420,-1672.5 46,-1672.5"/>
<polygon fill="none" stroke="#000000" points="46,-1672.5 46,-1707.5 420,-1707.5 420,-1672.5 46,-1672.5"/>
<text text-anchor="start" x="73.7053" y="-1685.3" font-family="Arial Bold" font-size="18.00" fill="#000000">sk_lessor_mail_settings</text>
<text text-anchor="start" x="264.7267" y="-1685.3" font-family="Arial" font-size="14.00" fill="#000000">    </text>
<text text-anchor="start" x="298.9315" y="-1685.3" font-family="Arial" font-size="14.00" fill="#666666">[BASE TABLE]</text>
<polygon fill="none" stroke="#000000" points="46,-1642.5 46,-1672.5 420,-1672.5 420,-1642.5 46,-1642.5"/>
<text text-anchor="start" x="53" y="-1653.9" font-family="Arial" font-size="14.00" fill="#000000">user_id </text>
<text text-anchor="start" x="102.7882" y="-1653.9" font-family="Arial" font-size="14.00" fill="#666666">[int(11) unsigned]</text>
<polygon fill="none" stroke="#000000" points="46,-1612.5 46,-1642.5 420,-1642.5 420,-1612.5 46,-1612.5"/>
<text text-anchor="start" x="53" y="-1623.9" font-family="Arial" font-size="14.00" fill="#000000">receive_tentative_reservation_creation_mail </text>
<text text-anchor="start" x="330.7208" y="-1623.9" font-family="Arial" font-size="14.00" fill="#666666">[tinyint(1)]</text>
<polygon fill="none" stroke="#000000" points="46,-1582.5 46,-1612.5 420,-1612.5 420,-1582.5 46,-1582.5"/>
<text text-anchor="start" x="52.9117" y="-1593.9" font-family="Arial" font-size="14.00" fill="#000000">receive_tentative_reservation_cancelation_mail </text>
<text text-anchor="start" x="351.6437" y="-1593.9" font-family="Arial" font-size="14.00" fill="#666666">[tinyint(1)]</text>
<polygon fill="none" stroke="#000000" points="46,-1552.5 46,-1582.5 420,-1582.5 420,-1552.5 46,-1552.5"/>
<text text-anchor="start" x="53" y="-1563.9" font-family="Arial" font-size="14.00" fill="#000000">receive_reservation_creation_mail </text>
<text text-anchor="start" x="270.0294" y="-1563.9" font-family="Arial" font-size="14.00" fill="#666666">[tinyint(1)]</text>
<polygon fill="none" stroke="#000000" points="46,-1522.5 46,-1552.5 420,-1552.5 420,-1522.5 46,-1522.5"/>
<text text-anchor="start" x="53" y="-1533.9" font-family="Arial" font-size="14.00" fill="#000000">receive_reservation_cancelation_mail </text>
<text text-anchor="start" x="291.0406" y="-1533.9" font-family="Arial" font-size="14.00" fill="#666666">[tinyint(1)]</text>
<polygon fill="none" stroke="#000000" points="46,-1492.5 46,-1522.5 420,-1522.5 420,-1492.5 46,-1492.5"/>
<text text-anchor="start" x="53" y="-1503.9" font-family="Arial" font-size="14.00" fill="#000000">receive_expired_payment_mail </text>
<text text-anchor="start" x="250.589" y="-1503.9" font-family="Arial" font-size="14.00" fill="#666666">[tinyint(1)]</text>
<polygon fill="none" stroke="#000000" points="46,-1462.5 46,-1492.5 420,-1492.5 420,-1462.5 46,-1462.5"/>
<text text-anchor="start" x="53" y="-1473.9" font-family="Arial" font-size="14.00" fill="#000000">send_user_expired_payment_mail </text>
<text text-anchor="start" x="270.8302" y="-1473.9" font-family="Arial" font-size="14.00" fill="#666666">[tinyint(1)]</text>
<polygon fill="none" stroke="#000000" points="46,-1432.5 46,-1462.5 420,-1462.5 420,-1432.5 46,-1432.5"/>
<text text-anchor="start" x="53" y="-1443.9" font-family="Arial" font-size="14.00" fill="#000000">is_send_reminder_email </text>
<text text-anchor="start" x="209.3506" y="-1443.9" font-family="Arial" font-size="14.00" fill="#666666">[tinyint(1)]</text>
<polygon fill="none" stroke="#000000" points="46,-1402.5 46,-1432.5 420,-1432.5 420,-1402.5 46,-1402.5"/>
<text text-anchor="start" x="53" y="-1413.9" font-family="Arial" font-size="14.00" fill="#000000">remind_minute </text>
<text text-anchor="start" x="149.4544" y="-1413.9" font-family="Arial" font-size="14.00" fill="#666666">[smallint(1)]</text>
<polygon fill="none" stroke="#000000" points="46,-1372.5 46,-1402.5 420,-1402.5 420,-1372.5 46,-1372.5"/>
<text text-anchor="start" x="53" y="-1383.9" font-family="Arial" font-size="14.00" fill="#000000">send_reservation_reminder_mail </text>
<text text-anchor="start" x="260.6928" y="-1383.9" font-family="Arial" font-size="14.00" fill="#666666">[tinyint(1)]</text>
<polygon fill="none" stroke="#000000" points="46,-1342.5 46,-1372.5 420,-1372.5 420,-1342.5 46,-1342.5"/>
<text text-anchor="start" x="53" y="-1353.9" font-family="Arial" font-size="14.00" fill="#000000">send_reserve_cancel_reminder_mail </text>
<text text-anchor="start" x="286.3674" y="-1353.9" font-family="Arial" font-size="14.00" fill="#666666">[tinyint(1)]</text>
<polygon fill="none" stroke="#000000" points="46,-1312.5 46,-1342.5 420,-1342.5 420,-1312.5 46,-1312.5"/>
<text text-anchor="start" x="53" y="-1323.9" font-family="Arial" font-size="14.00" fill="#000000">receive_owner_reservation_modification_mail </text>
<text text-anchor="start" x="340.8134" y="-1323.9" font-family="Arial" font-size="14.00" fill="#666666">[tinyint(1)]</text>
<polygon fill="none" stroke="#000000" stroke-width="3" points="44.5,-1311.5 44.5,-1709.5 421.5,-1709.5 421.5,-1311.5 44.5,-1311.5"/>
</g>
<!-- sk_lessors -->
<g id="node2" class="node">
<title>sk_lessors</title>
<polygon fill="#efefef" stroke="transparent" points="59,-1152.5 59,-1187.5 407,-1187.5 407,-1152.5 59,-1152.5"/>
<polygon fill="none" stroke="#000000" points="59,-1152.5 59,-1187.5 407,-1187.5 407,-1152.5 59,-1152.5"/>
<text text-anchor="start" x="126.7135" y="-1165.3" font-family="Arial Bold" font-size="18.00" fill="#000000">sk_lessors</text>
<text text-anchor="start" x="211.7185" y="-1165.3" font-family="Arial" font-size="14.00" fill="#000000">    </text>
<text text-anchor="start" x="245.9233" y="-1165.3" font-family="Arial" font-size="14.00" fill="#666666">[BASE TABLE]</text>
<polygon fill="none" stroke="#000000" points="59,-1122.5 59,-1152.5 407,-1152.5 407,-1122.5 59,-1122.5"/>
<text text-anchor="start" x="66" y="-1133.9" font-family="Arial" font-size="14.00" fill="#000000">user_id    </text>
<text text-anchor="start" x="146.1024" y="-1133.9" font-family="Arial" font-size="14.00" fill="#666666">[int(11) unsigned]</text>
<polygon fill="none" stroke="#000000" points="59,-1092.5 59,-1122.5 407,-1122.5 407,-1092.5 59,-1092.5"/>
<text text-anchor="start" x="66" y="-1103.9" font-family="Arial" font-size="14.00" fill="#000000">corporate_name    </text>
<text text-anchor="start" x="202.1206" y="-1103.9" font-family="Arial" font-size="14.00" fill="#666666">[varchar(200)]</text>
<polygon fill="none" stroke="#000000" points="59,-1062.5 59,-1092.5 407,-1092.5 407,-1062.5 59,-1062.5"/>
<text text-anchor="start" x="66" y="-1073.9" font-family="Arial" font-size="14.00" fill="#000000">signature_text    </text>
<text text-anchor="start" x="188.122" y="-1073.9" font-family="Arial" font-size="14.00" fill="#666666">[text]</text>
<polygon fill="none" stroke="#000000" points="59,-1032.5 59,-1062.5 407,-1062.5 407,-1032.5 59,-1032.5"/>
<text text-anchor="start" x="66" y="-1043.9" font-family="Arial" font-size="14.00" fill="#000000">start_reservable_creditcard    </text>
<text text-anchor="start" x="269.784" y="-1043.9" font-family="Arial" font-size="14.00" fill="#666666">[smallint(3)]</text>
<polygon fill="none" stroke="#000000" points="59,-1002.5 59,-1032.5 407,-1032.5 407,-1002.5 59,-1002.5"/>
<text text-anchor="start" x="66" y="-1013.9" font-family="Arial" font-size="14.00" fill="#000000">end_reservable_creditcard    </text>
<text text-anchor="start" x="265.9074" y="-1013.9" font-family="Arial" font-size="14.00" fill="#666666">[smallint(3)]</text>
<polygon fill="none" stroke="#000000" points="59,-972.5 59,-1002.5 407,-1002.5 407,-972.5 59,-972.5"/>
<text text-anchor="start" x="66" y="-983.9" font-family="Arial" font-size="14.00" fill="#000000">start_reservable_bill    </text>
<text text-anchor="start" x="225.4376" y="-983.9" font-family="Arial" font-size="14.00" fill="#666666">[smallint(3)]</text>
<polygon fill="none" stroke="#000000" points="59,-942.5 59,-972.5 407,-972.5 407,-942.5 59,-942.5"/>
<text text-anchor="start" x="66" y="-953.9" font-family="Arial" font-size="14.00" fill="#000000">end_reservable_bill    </text>
<text text-anchor="start" x="221.561" y="-953.9" font-family="Arial" font-size="14.00" fill="#666666">[smallint(3)]</text>
<polygon fill="none" stroke="#000000" points="59,-912.5 59,-942.5 407,-942.5 407,-912.5 59,-912.5"/>
<text text-anchor="start" x="66" y="-923.9" font-family="Arial" font-size="14.00" fill="#000000">bill_note    </text>
<text text-anchor="start" x="152.3282" y="-923.9" font-family="Arial" font-size="14.00" fill="#666666">[text]</text>
<polygon fill="none" stroke="#000000" points="59,-882.5 59,-912.5 407,-912.5 407,-882.5 59,-882.5"/>
<text text-anchor="start" x="66" y="-893.9" font-family="Arial" font-size="14.00" fill="#000000">start_reservable_onetime_bill    </text>
<text text-anchor="start" x="283.0084" y="-893.9" font-family="Arial" font-size="14.00" fill="#666666">[smallint(3)]</text>
<polygon fill="none" stroke="#000000" points="59,-852.5 59,-882.5 407,-882.5 407,-852.5 59,-852.5"/>
<text text-anchor="start" x="66" y="-863.9" font-family="Arial" font-size="14.00" fill="#000000">end_reservable_onetime_bill    </text>
<text text-anchor="start" x="279.1318" y="-863.9" font-family="Arial" font-size="14.00" fill="#666666">[smallint(3)]</text>
<polygon fill="none" stroke="#000000" points="59,-822.5 59,-852.5 407,-852.5 407,-822.5 59,-822.5"/>
<text text-anchor="start" x="66" y="-833.9" font-family="Arial" font-size="14.00" fill="#000000">payment_period    </text>
<text text-anchor="start" x="200.5666" y="-833.9" font-family="Arial" font-size="14.00" fill="#666666">[smallint(3)]</text>
<polygon fill="none" stroke="#000000" points="59,-792.5 59,-822.5 407,-822.5 407,-792.5 59,-792.5"/>
<text text-anchor="start" x="66" y="-803.9" font-family="Arial" font-size="14.00" fill="#000000">lessor_parent_id    </text>
<text text-anchor="start" x="203.6732" y="-803.9" font-family="Arial" font-size="14.00" fill="#666666">[int(11) unsigned]</text>
<polygon fill="none" stroke="#000000" points="59,-762.5 59,-792.5 407,-792.5 407,-762.5 59,-762.5"/>
<text text-anchor="start" x="66" y="-773.9" font-family="Arial" font-size="14.00" fill="#000000">postal    </text>
<text text-anchor="start" x="137.5498" y="-773.9" font-family="Arial" font-size="14.00" fill="#666666">[varchar(8)]</text>
<polygon fill="none" stroke="#000000" points="59,-732.5 59,-762.5 407,-762.5 407,-732.5 59,-732.5"/>
<text text-anchor="start" x="66" y="-743.9" font-family="Arial" font-size="14.00" fill="#000000">prefecture    </text>
<text text-anchor="start" x="163.2202" y="-743.9" font-family="Arial" font-size="14.00" fill="#666666">[varchar(20)]</text>
<polygon fill="none" stroke="#000000" points="59,-702.5 59,-732.5 407,-732.5 407,-702.5 59,-702.5"/>
<text text-anchor="start" x="66" y="-713.9" font-family="Arial" font-size="14.00" fill="#000000">address    </text>
<text text-anchor="start" x="149.9958" y="-713.9" font-family="Arial" font-size="14.00" fill="#666666">[varchar(500)]</text>
<polygon fill="none" stroke="#000000" points="59,-672.5 59,-702.5 407,-702.5 407,-672.5 59,-672.5"/>
<text text-anchor="start" x="66" y="-683.9" font-family="Arial" font-size="14.00" fill="#000000">tel    </text>
<text text-anchor="start" x="114.9846" y="-683.9" font-family="Arial" font-size="14.00" fill="#666666">[varchar(16)]</text>
<polygon fill="none" stroke="#000000" points="59,-642.5 59,-672.5 407,-672.5 407,-642.5 59,-642.5"/>
<text text-anchor="start" x="66" y="-653.9" font-family="Arial" font-size="14.00" fill="#000000">fax    </text>
<text text-anchor="start" x="118.878" y="-653.9" font-family="Arial" font-size="14.00" fill="#666666">[varchar(16)]</text>
<polygon fill="none" stroke="#000000" points="59,-612.5 59,-642.5 407,-642.5 407,-612.5 59,-612.5"/>
<text text-anchor="start" x="66" y="-623.9" font-family="Arial" font-size="14.00" fill="#000000">bank_account    </text>
<text text-anchor="start" x="187.3562" y="-623.9" font-family="Arial" font-size="14.00" fill="#666666">[varchar(200)]</text>
<polygon fill="none" stroke="#000000" points="59,-582.5 59,-612.5 407,-612.5 407,-582.5 59,-582.5"/>
<text text-anchor="start" x="66" y="-593.9" font-family="Arial" font-size="14.00" fill="#000000">invoice_monthly_auto_send    </text>
<text text-anchor="start" x="273.7054" y="-593.9" font-family="Arial" font-size="14.00" fill="#666666">[tinyint(1)]</text>
<polygon fill="none" stroke="#000000" points="59,-552.5 59,-582.5 407,-582.5 407,-552.5 59,-552.5"/>
<text text-anchor="start" x="66" y="-563.9" font-family="Arial" font-size="14.00" fill="#000000">receipt_monthly_auto_send    </text>
<text text-anchor="start" x="272.15" y="-563.9" font-family="Arial" font-size="14.00" fill="#666666">[tinyint(1)]</text>
<polygon fill="none" stroke="#000000" points="59,-522.5 59,-552.5 407,-552.5 407,-522.5 59,-522.5"/>
<text text-anchor="start" x="66" y="-533.9" font-family="Arial" font-size="14.00" fill="#000000">thankyou_auto_send    </text>
<text text-anchor="start" x="230.1598" y="-533.9" font-family="Arial" font-size="14.00" fill="#666666">[tinyint(1)]</text>
<polygon fill="none" stroke="#000000" points="59,-492.5 59,-522.5 407,-522.5 407,-492.5 59,-492.5"/>
<text text-anchor="start" x="66" y="-503.9" font-family="Arial" font-size="14.00" fill="#000000">thankyou_mail_text    </text>
<text text-anchor="start" x="220.7938" y="-503.9" font-family="Arial" font-size="14.00" fill="#666666">[varchar(1000)]</text>
<polygon fill="none" stroke="#000000" points="59,-462.5 59,-492.5 407,-492.5 407,-462.5 59,-462.5"/>
<text text-anchor="start" x="66" y="-473.9" font-family="Arial" font-size="14.00" fill="#000000">is_tax_on_cancel_charge    </text>
<text text-anchor="start" x="258.9256" y="-473.9" font-family="Arial" font-size="14.00" fill="#666666">[tinyint(1)]</text>
<polygon fill="none" stroke="#000000" points="59,-432.5 59,-462.5 407,-462.5 407,-432.5 59,-432.5"/>
<text text-anchor="start" x="66" y="-443.9" font-family="Arial" font-size="14.00" fill="#000000">is_auto_cancel    </text>
<text text-anchor="start" x="193.5694" y="-443.9" font-family="Arial" font-size="14.00" fill="#666666">[tinyint(1)]</text>
<polygon fill="none" stroke="#000000" points="59,-402.5 59,-432.5 407,-432.5 407,-402.5 59,-402.5"/>
<text text-anchor="start" x="66" y="-413.9" font-family="Arial" font-size="14.00" fill="#000000">is_reservable_creditcard_enabled    </text>
<text text-anchor="start" x="310.251" y="-413.9" font-family="Arial" font-size="14.00" fill="#666666">[tinyint(1)]</text>
<polygon fill="none" stroke="#000000" points="59,-372.5 59,-402.5 407,-402.5 407,-372.5 59,-372.5"/>
<text text-anchor="start" x="66" y="-383.9" font-family="Arial" font-size="14.00" fill="#000000">is_reservable_bill_enabled    </text>
<text text-anchor="start" x="265.9046" y="-383.9" font-family="Arial" font-size="14.00" fill="#666666">[tinyint(1)]</text>
<polygon fill="none" stroke="#000000" points="59,-342.5 59,-372.5 407,-372.5 407,-342.5 59,-342.5"/>
<text text-anchor="start" x="65.7553" y="-353.9" font-family="Arial" font-size="14.00" fill="#000000">is_reservable_local_payment_enabled    </text>
<text text-anchor="start" x="338.8001" y="-353.9" font-family="Arial" font-size="14.00" fill="#666666">[tinyint(1)]</text>
<polygon fill="none" stroke="#000000" points="59,-312.5 59,-342.5 407,-342.5 407,-312.5 59,-312.5"/>
<text text-anchor="start" x="66" y="-323.9" font-family="Arial" font-size="14.00" fill="#000000">start_reservable_local_payment    </text>
<text text-anchor="start" x="298.5778" y="-323.9" font-family="Arial" font-size="14.00" fill="#666666">[int(3)]</text>
<polygon fill="none" stroke="#000000" points="59,-282.5 59,-312.5 407,-312.5 407,-282.5 59,-282.5"/>
<text text-anchor="start" x="66" y="-293.9" font-family="Arial" font-size="14.00" fill="#000000">end_reservable_local_payment    </text>
<text text-anchor="start" x="294.7012" y="-293.9" font-family="Arial" font-size="14.00" fill="#666666">[int(3)]</text>
<polygon fill="none" stroke="#000000" points="59,-252.5 59,-282.5 407,-282.5 407,-252.5 59,-252.5"/>
<text text-anchor="start" x="66" y="-263.9" font-family="Arial" font-size="14.00" fill="#000000">invoice_monthly_send_month_option    </text>
<text text-anchor="start" x="331.2762" y="-263.9" font-family="Arial" font-size="14.00" fill="#666666">[int(11)]</text>
<polygon fill="none" stroke="#000000" points="59,-222.5 59,-252.5 407,-252.5 407,-222.5 59,-222.5"/>
<text text-anchor="start" x="66" y="-233.9" font-family="Arial" font-size="14.00" fill="#000000">invoice_monthly_send_day    </text>
<text text-anchor="start" x="269.0322" y="-233.9" font-family="Arial" font-size="14.00" fill="#666666">[int(11)]</text>
<polygon fill="none" stroke="#000000" points="59,-192.5 59,-222.5 407,-222.5 407,-192.5 59,-192.5"/>
<text text-anchor="start" x="66" y="-203.9" font-family="Arial" font-size="14.00" fill="#000000">invoice_issuer_number    </text>
<text text-anchor="start" x="244.115" y="-203.9" font-family="Arial" font-size="14.00" fill="#666666">[varchar(30)]</text>
<polygon fill="none" stroke="#000000" points="59,-162.5 59,-192.5 407,-192.5 407,-162.5 59,-162.5"/>
<text text-anchor="start" x="66" y="-173.9" font-family="Arial" font-size="14.00" fill="#000000">is_reservable_stripe_enabled    </text>
<text text-anchor="start" x="283.0252" y="-173.9" font-family="Arial" font-size="14.00" fill="#666666">[tinyint(1)]</text>
<polygon fill="none" stroke="#000000" points="59,-132.5 59,-162.5 407,-162.5 407,-132.5 59,-132.5"/>
<text text-anchor="start" x="66" y="-143.9" font-family="Arial" font-size="14.00" fill="#000000">start_reservable_stripe    </text>
<text text-anchor="start" x="242.5582" y="-143.9" font-family="Arial" font-size="14.00" fill="#666666">[smallint(3)]</text>
<polygon fill="none" stroke="#000000" points="59,-102.5 59,-132.5 407,-132.5 407,-102.5 59,-102.5"/>
<text text-anchor="start" x="66" y="-113.9" font-family="Arial" font-size="14.00" fill="#000000">end_reservable_stripe    </text>
<text text-anchor="start" x="238.6816" y="-113.9" font-family="Arial" font-size="14.00" fill="#666666">[smallint(3)]</text>
<polygon fill="none" stroke="#000000" points="59,-72.5 59,-102.5 407,-102.5 407,-72.5 59,-72.5"/>
<text text-anchor="start" x="66" y="-83.9" font-family="Arial" font-size="14.00" fill="#000000">summary    </text>
<text text-anchor="start" x="157.7518" y="-83.9" font-family="Arial" font-size="14.00" fill="#666666">[text]</text>
<polygon fill="none" stroke="#000000" points="59,-42.5 59,-72.5 407,-72.5 407,-42.5 59,-42.5"/>
<text text-anchor="start" x="66" y="-53.9" font-family="Arial" font-size="14.00" fill="#000000">information    </text>
<text text-anchor="start" x="169.4334" y="-53.9" font-family="Arial" font-size="14.00" fill="#666666">[text]</text>
</g>
<!-- sk_lessor_mail_settings&#45;&gt;sk_lessors -->
<g id="edge1" class="edge">
<title>sk_lessor_mail_settings:user_id&#45;&gt;sk_lessors:user_id</title>
<path fill="none" stroke="#000000" d="M429.1441,-1652.6843C476.1795,-1600.262 461.5222,-1137.5 407,-1137.5"/>
<polygon fill="#000000" stroke="#000000" points="428.848,-1652.8402 417.9031,-1653.5184 424.424,-1655.1701 420,-1657.5 420,-1657.5 420,-1657.5 424.424,-1655.1701 422.0969,-1661.4816 428.848,-1652.8402 428.848,-1652.8402"/>
<text text-anchor="start" x="427.053" y="-1667.5" font-family="Arial" font-size="10.00" fill="#000000">FOREIGN KEY (user_id) REFERENCES sk_lessors (user_id)</text>
</g>
</g>
</svg>
