<?xml version="1.0" encoding="UTF-8" standalone="no"?>
<!DOCTYPE svg PUBLIC "-//W3C//DTD SVG 1.1//EN"
 "http://www.w3.org/Graphics/SVG/1.1/DTD/svg11.dtd">
<!-- Generated by graphviz version 2.40.1 (20161225.0304)
 -->
<!-- Title: sk_lottery_reserves Pages: 1 -->
<svg width="822pt" height="2422pt"
 viewBox="0.00 0.00 822.00 2422.00" xmlns="http://www.w3.org/2000/svg" xmlns:xlink="http://www.w3.org/1999/xlink">
<g id="graph0" class="graph" transform="scale(1 1) rotate(0) translate(4 2418)">
<title>sk_lottery_reserves</title>
<polygon fill="#ffffff" stroke="transparent" points="-4,4 -4,-2418 818,-2418 818,4 -4,4"/>
<!-- sk_lottery_reserves -->
<g id="node1" class="node">
<title>sk_lottery_reserves</title>
<polygon fill="#efefef" stroke="transparent" points="255,-2332.5 255,-2367.5 552,-2367.5 552,-2332.5 255,-2332.5"/>
<polygon fill="none" stroke="#000000" points="255,-2332.5 255,-2367.5 552,-2367.5 552,-2332.5 255,-2332.5"/>
<text text-anchor="start" x="261.7067" y="-2345.3" font-family="Arial Bold" font-size="18.00" fill="#000000">sk_lottery_reserves</text>
<text text-anchor="start" x="417.7253" y="-2345.3" font-family="Arial" font-size="14.00" fill="#000000">    </text>
<text text-anchor="start" x="451.9301" y="-2345.3" font-family="Arial" font-size="14.00" fill="#666666">[BASE TABLE]</text>
<polygon fill="none" stroke="#000000" points="255,-2302.5 255,-2332.5 552,-2332.5 552,-2302.5 255,-2302.5"/>
<text text-anchor="start" x="262" y="-2313.9" font-family="Arial" font-size="14.00" fill="#000000">id </text>
<text text-anchor="start" x="276.7798" y="-2313.9" font-family="Arial" font-size="14.00" fill="#666666">[int(11) unsigned]</text>
<polygon fill="none" stroke="#000000" points="255,-2272.5 255,-2302.5 552,-2302.5 552,-2272.5 255,-2272.5"/>
<text text-anchor="start" x="262" y="-2283.9" font-family="Arial" font-size="14.00" fill="#000000">user_id </text>
<text text-anchor="start" x="311.7882" y="-2283.9" font-family="Arial" font-size="14.00" fill="#666666">[int(11) unsigned]</text>
<polygon fill="none" stroke="#000000" points="255,-2242.5 255,-2272.5 552,-2272.5 552,-2242.5 255,-2242.5"/>
<text text-anchor="start" x="262" y="-2253.9" font-family="Arial" font-size="14.00" fill="#000000">room_id </text>
<text text-anchor="start" x="316.4488" y="-2253.9" font-family="Arial" font-size="14.00" fill="#666666">[int(11) unsigned]</text>
<polygon fill="none" stroke="#000000" points="255,-2212.5 255,-2242.5 552,-2242.5 552,-2212.5 255,-2212.5"/>
<text text-anchor="start" x="262" y="-2223.9" font-family="Arial" font-size="14.00" fill="#000000">reserve_id </text>
<text text-anchor="start" x="331.2314" y="-2223.9" font-family="Arial" font-size="14.00" fill="#666666">[int(11) unsigned]</text>
<polygon fill="none" stroke="#000000" points="255,-2182.5 255,-2212.5 552,-2212.5 552,-2182.5 255,-2182.5"/>
<text text-anchor="start" x="262" y="-2193.9" font-family="Arial" font-size="14.00" fill="#000000">first_time </text>
<text text-anchor="start" x="322.662" y="-2193.9" font-family="Arial" font-size="14.00" fill="#666666">[datetime]</text>
<polygon fill="none" stroke="#000000" points="255,-2152.5 255,-2182.5 552,-2182.5 552,-2152.5 255,-2152.5"/>
<text text-anchor="start" x="262" y="-2163.9" font-family="Arial" font-size="14.00" fill="#000000">last_time </text>
<text text-anchor="start" x="321.8934" y="-2163.9" font-family="Arial" font-size="14.00" fill="#666666">[datetime]</text>
<polygon fill="none" stroke="#000000" points="255,-2122.5 255,-2152.5 552,-2152.5 552,-2122.5 255,-2122.5"/>
<text text-anchor="start" x="262" y="-2133.9" font-family="Arial" font-size="14.00" fill="#000000">status </text>
<text text-anchor="start" x="303.237" y="-2133.9" font-family="Arial" font-size="14.00" fill="#666666">[smallint(16)]</text>
<polygon fill="none" stroke="#000000" points="255,-2092.5 255,-2122.5 552,-2122.5 552,-2092.5 255,-2092.5"/>
<text text-anchor="start" x="262" y="-2103.9" font-family="Arial" font-size="14.00" fill="#000000">reserve_info </text>
<text text-anchor="start" x="342.9046" y="-2103.9" font-family="Arial" font-size="14.00" fill="#666666">[text]</text>
<polygon fill="none" stroke="#000000" points="255,-2062.5 255,-2092.5 552,-2092.5 552,-2062.5 255,-2062.5"/>
<text text-anchor="start" x="262" y="-2073.9" font-family="Arial" font-size="14.00" fill="#000000">lottery_datetime </text>
<text text-anchor="start" x="365.4656" y="-2073.9" font-family="Arial" font-size="14.00" fill="#666666">[datetime]</text>
<polygon fill="none" stroke="#000000" points="255,-2032.5 255,-2062.5 552,-2062.5 552,-2032.5 255,-2032.5"/>
<text text-anchor="start" x="262" y="-2043.9" font-family="Arial" font-size="14.00" fill="#000000">cancel_datetime </text>
<text text-anchor="start" x="367.8064" y="-2043.9" font-family="Arial" font-size="14.00" fill="#666666">[datetime]</text>
<polygon fill="none" stroke="#000000" points="255,-2002.5 255,-2032.5 552,-2032.5 552,-2002.5 255,-2002.5"/>
<text text-anchor="start" x="262" y="-2013.9" font-family="Arial" font-size="14.00" fill="#000000">created_datetime </text>
<text text-anchor="start" x="374.0336" y="-2013.9" font-family="Arial" font-size="14.00" fill="#666666">[timestamp]</text>
<polygon fill="none" stroke="#000000" points="255,-1972.5 255,-2002.5 552,-2002.5 552,-1972.5 255,-1972.5"/>
<text text-anchor="start" x="262" y="-1983.9" font-family="Arial" font-size="14.00" fill="#000000">updated_datetime </text>
<text text-anchor="start" x="377.9382" y="-1983.9" font-family="Arial" font-size="14.00" fill="#666666">[timestamp]</text>
<polygon fill="none" stroke="#000000" stroke-width="3" points="253,-1971.5 253,-2369.5 553,-2369.5 553,-1971.5 253,-1971.5"/>
</g>
<!-- sk_users -->
<g id="node2" class="node">
<title>sk_users</title>
<polygon fill="#efefef" stroke="transparent" points="48,-1377.5 48,-1412.5 349,-1412.5 349,-1377.5 48,-1377.5"/>
<polygon fill="none" stroke="#000000" points="48,-1377.5 48,-1412.5 349,-1412.5 349,-1377.5 48,-1377.5"/>
<text text-anchor="start" x="98.7106" y="-1390.3" font-family="Arial Bold" font-size="18.00" fill="#000000">sk_users</text>
<text text-anchor="start" x="170.7214" y="-1390.3" font-family="Arial" font-size="14.00" fill="#000000">    </text>
<text text-anchor="start" x="204.9262" y="-1390.3" font-family="Arial" font-size="14.00" fill="#666666">[BASE TABLE]</text>
<polygon fill="none" stroke="#000000" points="48,-1347.5 48,-1377.5 349,-1377.5 349,-1347.5 48,-1347.5"/>
<text text-anchor="start" x="55" y="-1358.9" font-family="Arial" font-size="14.00" fill="#000000">id    </text>
<text text-anchor="start" x="100.094" y="-1358.9" font-family="Arial" font-size="14.00" fill="#666666">[int(11) unsigned]</text>
<polygon fill="none" stroke="#000000" points="48,-1317.5 48,-1347.5 349,-1347.5 349,-1317.5 48,-1317.5"/>
<text text-anchor="start" x="55" y="-1328.9" font-family="Arial" font-size="14.00" fill="#000000">is_deleted    </text>
<text text-anchor="start" x="153.0042" y="-1328.9" font-family="Arial" font-size="14.00" fill="#666666">[tinyint(1)]</text>
<polygon fill="none" stroke="#000000" points="48,-1287.5 48,-1317.5 349,-1317.5 349,-1287.5 48,-1287.5"/>
<text text-anchor="start" x="55" y="-1298.9" font-family="Arial" font-size="14.00" fill="#000000">email    </text>
<text text-anchor="start" x="122.6438" y="-1298.9" font-family="Arial" font-size="14.00" fill="#666666">[varchar(255)]</text>
<polygon fill="none" stroke="#000000" points="48,-1257.5 48,-1287.5 349,-1287.5 349,-1257.5 48,-1257.5"/>
<text text-anchor="start" x="55" y="-1268.9" font-family="Arial" font-size="14.00" fill="#000000">password    </text>
<text text-anchor="start" x="149.1024" y="-1268.9" font-family="Arial" font-size="14.00" fill="#666666">[varchar(255)]</text>
<polygon fill="none" stroke="#000000" points="48,-1227.5 48,-1257.5 349,-1257.5 349,-1227.5 48,-1227.5"/>
<text text-anchor="start" x="55" y="-1238.9" font-family="Arial" font-size="14.00" fill="#000000">role    </text>
<text text-anchor="start" x="112.5372" y="-1238.9" font-family="Arial" font-size="14.00" fill="#666666">[smallint(6)]</text>
<polygon fill="none" stroke="#000000" points="48,-1197.5 48,-1227.5 349,-1227.5 349,-1197.5 48,-1197.5"/>
<text text-anchor="start" x="55" y="-1208.9" font-family="Arial" font-size="14.00" fill="#000000">last_name    </text>
<text text-anchor="start" x="153.7756" y="-1208.9" font-family="Arial" font-size="14.00" fill="#666666">[varchar(40)]</text>
<polygon fill="none" stroke="#000000" points="48,-1167.5 48,-1197.5 349,-1197.5 349,-1167.5 48,-1167.5"/>
<text text-anchor="start" x="55" y="-1178.9" font-family="Arial" font-size="14.00" fill="#000000">last_name_kana    </text>
<text text-anchor="start" x="191.906" y="-1178.9" font-family="Arial" font-size="14.00" fill="#666666">[varchar(40)]</text>
<polygon fill="none" stroke="#000000" points="48,-1137.5 48,-1167.5 349,-1167.5 349,-1137.5 48,-1137.5"/>
<text text-anchor="start" x="55" y="-1148.9" font-family="Arial" font-size="14.00" fill="#000000">first_name    </text>
<text text-anchor="start" x="154.5442" y="-1148.9" font-family="Arial" font-size="14.00" fill="#666666">[varchar(40)]</text>
<polygon fill="none" stroke="#000000" points="48,-1107.5 48,-1137.5 349,-1137.5 349,-1107.5 48,-1107.5"/>
<text text-anchor="start" x="55" y="-1118.9" font-family="Arial" font-size="14.00" fill="#000000">first_name_kana    </text>
<text text-anchor="start" x="192.6746" y="-1118.9" font-family="Arial" font-size="14.00" fill="#666666">[varchar(40)]</text>
<polygon fill="none" stroke="#000000" points="48,-1077.5 48,-1107.5 349,-1107.5 349,-1077.5 48,-1077.5"/>
<text text-anchor="start" x="55" y="-1088.9" font-family="Arial" font-size="14.00" fill="#000000">postal    </text>
<text text-anchor="start" x="126.5498" y="-1088.9" font-family="Arial" font-size="14.00" fill="#666666">[varchar(8)]</text>
<polygon fill="none" stroke="#000000" points="48,-1047.5 48,-1077.5 349,-1077.5 349,-1047.5 48,-1047.5"/>
<text text-anchor="start" x="55" y="-1058.9" font-family="Arial" font-size="14.00" fill="#000000">mynavi_employee_id    </text>
<text text-anchor="start" x="220.6718" y="-1058.9" font-family="Arial" font-size="14.00" fill="#666666">[varchar(255)]</text>
<polygon fill="none" stroke="#000000" points="48,-1017.5 48,-1047.5 349,-1047.5 349,-1017.5 48,-1017.5"/>
<text text-anchor="start" x="55" y="-1028.9" font-family="Arial" font-size="14.00" fill="#000000">prefecture    </text>
<text text-anchor="start" x="152.2202" y="-1028.9" font-family="Arial" font-size="14.00" fill="#666666">[varchar(20)]</text>
<polygon fill="none" stroke="#000000" points="48,-987.5 48,-1017.5 349,-1017.5 349,-987.5 48,-987.5"/>
<text text-anchor="start" x="55" y="-998.9" font-family="Arial" font-size="14.00" fill="#000000">address    </text>
<text text-anchor="start" x="138.9958" y="-998.9" font-family="Arial" font-size="14.00" fill="#666666">[varchar(500)]</text>
<polygon fill="none" stroke="#000000" points="48,-957.5 48,-987.5 349,-987.5 349,-957.5 48,-957.5"/>
<text text-anchor="start" x="55" y="-968.9" font-family="Arial" font-size="14.00" fill="#000000">tel    </text>
<text text-anchor="start" x="103.9846" y="-968.9" font-family="Arial" font-size="14.00" fill="#666666">[varchar(13)]</text>
<polygon fill="none" stroke="#000000" points="48,-927.5 48,-957.5 349,-957.5 349,-927.5 48,-927.5"/>
<text text-anchor="start" x="55" y="-938.9" font-family="Arial" font-size="14.00" fill="#000000">is_registerd    </text>
<text text-anchor="start" x="161.5428" y="-938.9" font-family="Arial" font-size="14.00" fill="#666666">[tinyint(1) unsigned]</text>
<polygon fill="none" stroke="#000000" points="48,-897.5 48,-927.5 349,-927.5 349,-897.5 48,-897.5"/>
<text text-anchor="start" x="55" y="-908.9" font-family="Arial" font-size="14.00" fill="#000000">register_token    </text>
<text text-anchor="start" x="177.892" y="-908.9" font-family="Arial" font-size="14.00" fill="#666666">[varchar(64)]</text>
<polygon fill="none" stroke="#000000" points="48,-867.5 48,-897.5 349,-897.5 349,-867.5 48,-867.5"/>
<text text-anchor="start" x="55" y="-878.9" font-family="Arial" font-size="14.00" fill="#000000">register_created    </text>
<text text-anchor="start" x="190.3352" y="-878.9" font-family="Arial" font-size="14.00" fill="#666666">[datetime]</text>
<polygon fill="none" stroke="#000000" points="48,-837.5 48,-867.5 349,-867.5 349,-837.5 48,-837.5"/>
<text text-anchor="start" x="55" y="-848.9" font-family="Arial" font-size="14.00" fill="#000000">registerd_redirect_url    </text>
<text text-anchor="start" x="221.4348" y="-848.9" font-family="Arial" font-size="14.00" fill="#666666">[varchar(1000)]</text>
<polygon fill="none" stroke="#000000" points="48,-807.5 48,-837.5 349,-837.5 349,-807.5 48,-807.5"/>
<text text-anchor="start" x="54.9923" y="-818.9" font-family="Arial" font-size="14.00" fill="#000000">password_remember_token    </text>
<text text-anchor="start" x="262.6711" y="-818.9" font-family="Arial" font-size="14.00" fill="#666666">[varchar(64)]</text>
<polygon fill="none" stroke="#000000" points="48,-777.5 48,-807.5 349,-807.5 349,-777.5 48,-777.5"/>
<text text-anchor="start" x="55" y="-788.9" font-family="Arial" font-size="14.00" fill="#000000">password_remember_created    </text>
<text text-anchor="start" x="275.122" y="-788.9" font-family="Arial" font-size="14.00" fill="#666666">[datetime]</text>
<polygon fill="none" stroke="#000000" points="48,-747.5 48,-777.5 349,-777.5 349,-747.5 48,-747.5"/>
<text text-anchor="start" x="55" y="-758.9" font-family="Arial" font-size="14.00" fill="#000000">update_email    </text>
<text text-anchor="start" x="173.23" y="-758.9" font-family="Arial" font-size="14.00" fill="#666666">[varchar(255)]</text>
<polygon fill="none" stroke="#000000" points="48,-717.5 48,-747.5 349,-747.5 349,-717.5 48,-717.5"/>
<text text-anchor="start" x="55" y="-728.9" font-family="Arial" font-size="14.00" fill="#000000">update_email_token    </text>
<text text-anchor="start" x="215.251" y="-728.9" font-family="Arial" font-size="14.00" fill="#666666">[varchar(64)]</text>
<polygon fill="none" stroke="#000000" points="48,-687.5 48,-717.5 349,-717.5 349,-687.5 48,-687.5"/>
<text text-anchor="start" x="55" y="-698.9" font-family="Arial" font-size="14.00" fill="#000000">update_email_created    </text>
<text text-anchor="start" x="227.6942" y="-698.9" font-family="Arial" font-size="14.00" fill="#666666">[datetime]</text>
<polygon fill="none" stroke="#000000" points="48,-657.5 48,-687.5 349,-687.5 349,-657.5 48,-657.5"/>
<text text-anchor="start" x="55" y="-668.9" font-family="Arial" font-size="14.00" fill="#000000">user_image_id    </text>
<text text-anchor="start" x="181" y="-668.9" font-family="Arial" font-size="14.00" fill="#666666">[bigint(21) unsigned]</text>
<polygon fill="none" stroke="#000000" points="48,-627.5 48,-657.5 349,-657.5 349,-627.5 48,-627.5"/>
<text text-anchor="start" x="55" y="-638.9" font-family="Arial" font-size="14.00" fill="#000000">birthday    </text>
<text text-anchor="start" x="138.993" y="-638.9" font-family="Arial" font-size="14.00" fill="#666666">[date]</text>
<polygon fill="none" stroke="#000000" points="48,-597.5 48,-627.5 349,-627.5 349,-597.5 48,-597.5"/>
<text text-anchor="start" x="55" y="-608.9" font-family="Arial" font-size="14.00" fill="#000000">where_to_know    </text>
<text text-anchor="start" x="187.23" y="-608.9" font-family="Arial" font-size="14.00" fill="#666666">[smallint(6)]</text>
<polygon fill="none" stroke="#000000" points="48,-567.5 48,-597.5 349,-597.5 349,-567.5 48,-567.5"/>
<text text-anchor="start" x="55" y="-578.9" font-family="Arial" font-size="14.00" fill="#000000">apply_lessor_parent_ids    </text>
<text text-anchor="start" x="240.9102" y="-578.9" font-family="Arial" font-size="14.00" fill="#666666">[varchar(100)]</text>
<polygon fill="none" stroke="#000000" points="48,-537.5 48,-567.5 349,-567.5 349,-537.5 48,-537.5"/>
<text text-anchor="start" x="55" y="-548.9" font-family="Arial" font-size="14.00" fill="#000000">check_terms_date    </text>
<text text-anchor="start" x="203.568" y="-548.9" font-family="Arial" font-size="14.00" fill="#666666">[datetime]</text>
<polygon fill="none" stroke="#000000" points="48,-507.5 48,-537.5 349,-537.5 349,-507.5 48,-507.5"/>
<text text-anchor="start" x="55" y="-518.9" font-family="Arial" font-size="14.00" fill="#000000">created    </text>
<text text-anchor="start" x="135.8864" y="-518.9" font-family="Arial" font-size="14.00" fill="#666666">[datetime]</text>
<polygon fill="none" stroke="#000000" points="48,-477.5 48,-507.5 349,-507.5 349,-477.5 48,-477.5"/>
<text text-anchor="start" x="55" y="-488.9" font-family="Arial" font-size="14.00" fill="#000000">modified    </text>
<text text-anchor="start" x="142.0996" y="-488.9" font-family="Arial" font-size="14.00" fill="#666666">[datetime]</text>
</g>
<!-- sk_lottery_reserves&#45;&gt;sk_users -->
<g id="edge1" class="edge">
<title>sk_lottery_reserves:user_id&#45;&gt;sk_users:id</title>
<path fill="none" stroke="#000000" d="M244.9244,-2285.8636C138.6661,-2248.7562 335.5913,-1591.6974 349,-1456 353.0863,-1414.6458 390.5556,-1362.5 349,-1362.5"/>
<polygon fill="#000000" stroke="#000000" points="245.1293,-2285.8968 254.2786,-2291.9418 250.0647,-2286.6984 255,-2287.5 255,-2287.5 255,-2287.5 250.0647,-2286.6984 255.7214,-2283.0582 245.1293,-2285.8968 245.1293,-2285.8968"/>
<text text-anchor="start" x="7.1655" y="-2297.5" font-family="Arial" font-size="10.00" fill="#000000">FOREIGN KEY (user_id) REFERENCES sk_users (id)</text>
</g>
<!-- sk_rooms -->
<g id="node3" class="node">
<title>sk_rooms</title>
<polygon fill="#efefef" stroke="transparent" points="453,-1812.5 453,-1847.5 765,-1847.5 765,-1812.5 453,-1812.5"/>
<polygon fill="none" stroke="#000000" points="453,-1812.5 453,-1847.5 765,-1847.5 765,-1812.5 453,-1812.5"/>
<text text-anchor="start" x="506.2145" y="-1825.3" font-family="Arial Bold" font-size="18.00" fill="#000000">sk_rooms</text>
<text text-anchor="start" x="584.2175" y="-1825.3" font-family="Arial" font-size="14.00" fill="#000000">    </text>
<text text-anchor="start" x="618.4223" y="-1825.3" font-family="Arial" font-size="14.00" fill="#666666">[BASE TABLE]</text>
<polygon fill="none" stroke="#000000" points="453,-1782.5 453,-1812.5 765,-1812.5 765,-1782.5 453,-1782.5"/>
<text text-anchor="start" x="460" y="-1793.9" font-family="Arial" font-size="14.00" fill="#000000">id    </text>
<text text-anchor="start" x="505.094" y="-1793.9" font-family="Arial" font-size="14.00" fill="#666666">[int(11) unsigned]</text>
<polygon fill="none" stroke="#000000" points="453,-1752.5 453,-1782.5 765,-1782.5 765,-1752.5 453,-1752.5"/>
<text text-anchor="start" x="460" y="-1763.9" font-family="Arial" font-size="14.00" fill="#000000">is_deleted    </text>
<text text-anchor="start" x="558.0042" y="-1763.9" font-family="Arial" font-size="14.00" fill="#666666">[tinyint(1)]</text>
<polygon fill="none" stroke="#000000" points="453,-1722.5 453,-1752.5 765,-1752.5 765,-1722.5 453,-1722.5"/>
<text text-anchor="start" x="460" y="-1733.9" font-family="Arial" font-size="14.00" fill="#000000">is_public    </text>
<text text-anchor="start" x="548.655" y="-1733.9" font-family="Arial" font-size="14.00" fill="#666666">[tinyint(1)]</text>
<polygon fill="none" stroke="#000000" points="453,-1692.5 453,-1722.5 765,-1722.5 765,-1692.5 453,-1692.5"/>
<text text-anchor="start" x="460" y="-1703.9" font-family="Arial" font-size="14.00" fill="#000000">is_set    </text>
<text text-anchor="start" x="530.7672" y="-1703.9" font-family="Arial" font-size="14.00" fill="#666666">[tinyint(1)]</text>
<polygon fill="none" stroke="#000000" points="453,-1662.5 453,-1692.5 765,-1692.5 765,-1662.5 453,-1662.5"/>
<text text-anchor="start" x="460" y="-1673.9" font-family="Arial" font-size="14.00" fill="#000000">property_id    </text>
<text text-anchor="start" x="564.2188" y="-1673.9" font-family="Arial" font-size="14.00" fill="#666666">[int(11) unsigned]</text>
<polygon fill="none" stroke="#000000" points="453,-1632.5 453,-1662.5 765,-1662.5 765,-1632.5 453,-1632.5"/>
<text text-anchor="start" x="460" y="-1643.9" font-family="Arial" font-size="14.00" fill="#000000">lessor_id    </text>
<text text-anchor="start" x="550.209" y="-1643.9" font-family="Arial" font-size="14.00" fill="#666666">[int(11) unsigned]</text>
<polygon fill="none" stroke="#000000" points="453,-1602.5 453,-1632.5 765,-1632.5 765,-1602.5 453,-1602.5"/>
<text text-anchor="start" x="460" y="-1613.9" font-family="Arial" font-size="14.00" fill="#000000">name    </text>
<text text-anchor="start" x="529.2132" y="-1613.9" font-family="Arial" font-size="14.00" fill="#666666">[varchar(200)]</text>
<polygon fill="none" stroke="#000000" points="453,-1572.5 453,-1602.5 765,-1602.5 765,-1572.5 453,-1572.5"/>
<text text-anchor="start" x="460" y="-1583.9" font-family="Arial" font-size="14.00" fill="#000000">voice_name    </text>
<text text-anchor="start" x="569.6676" y="-1583.9" font-family="Arial" font-size="14.00" fill="#666666">[varchar(200)]</text>
<polygon fill="none" stroke="#000000" points="453,-1542.5 453,-1572.5 765,-1572.5 765,-1542.5 453,-1542.5"/>
<text text-anchor="start" x="460" y="-1553.9" font-family="Arial" font-size="14.00" fill="#000000">description_url    </text>
<text text-anchor="start" x="585.2146" y="-1553.9" font-family="Arial" font-size="14.00" fill="#666666">[varchar(1000)]</text>
<polygon fill="none" stroke="#000000" points="453,-1512.5 453,-1542.5 765,-1542.5 765,-1512.5 453,-1512.5"/>
<text text-anchor="start" x="460" y="-1523.9" font-family="Arial" font-size="14.00" fill="#000000">exclusive_area    </text>
<text text-anchor="start" x="587.5568" y="-1523.9" font-family="Arial" font-size="14.00" fill="#666666">[decimal(10,2)]</text>
<polygon fill="none" stroke="#000000" points="453,-1482.5 453,-1512.5 765,-1512.5 765,-1482.5 453,-1482.5"/>
<text text-anchor="start" x="460" y="-1493.9" font-family="Arial" font-size="14.00" fill="#000000">ceiling_height    </text>
<text text-anchor="start" x="579.7826" y="-1493.9" font-family="Arial" font-size="14.00" fill="#666666">[decimal(10,2)]</text>
<polygon fill="none" stroke="#000000" points="453,-1452.5 453,-1482.5 765,-1482.5 765,-1452.5 453,-1452.5"/>
<text text-anchor="start" x="460" y="-1463.9" font-family="Arial" font-size="14.00" fill="#000000">floor    </text>
<text text-anchor="start" x="521.4278" y="-1463.9" font-family="Arial" font-size="14.00" fill="#666666">[smallint(5)]</text>
<polygon fill="none" stroke="#000000" points="453,-1422.5 453,-1452.5 765,-1452.5 765,-1422.5 453,-1422.5"/>
<text text-anchor="start" x="460" y="-1433.9" font-family="Arial" font-size="14.00" fill="#000000">minimum_time    </text>
<text text-anchor="start" x="585.188" y="-1433.9" font-family="Arial" font-size="14.00" fill="#666666">[time]</text>
<polygon fill="none" stroke="#000000" points="453,-1392.5 453,-1422.5 765,-1422.5 765,-1392.5 453,-1392.5"/>
<text text-anchor="start" x="460" y="-1403.9" font-family="Arial" font-size="14.00" fill="#000000">maximum_time    </text>
<text text-anchor="start" x="589.0814" y="-1403.9" font-family="Arial" font-size="14.00" fill="#666666">[time]</text>
<polygon fill="none" stroke="#000000" points="453,-1362.5 453,-1392.5 765,-1392.5 765,-1362.5 453,-1362.5"/>
<text text-anchor="start" x="460" y="-1373.9" font-family="Arial" font-size="14.00" fill="#000000">start_date    </text>
<text text-anchor="start" x="556.4502" y="-1373.9" font-family="Arial" font-size="14.00" fill="#666666">[date]</text>
<polygon fill="none" stroke="#000000" points="453,-1332.5 453,-1362.5 765,-1362.5 765,-1332.5 453,-1332.5"/>
<text text-anchor="start" x="460" y="-1343.9" font-family="Arial" font-size="14.00" fill="#000000">end_date    </text>
<text text-anchor="start" x="552.5736" y="-1343.9" font-family="Arial" font-size="14.00" fill="#666666">[date]</text>
<polygon fill="none" stroke="#000000" points="453,-1302.5 453,-1332.5 765,-1332.5 765,-1302.5 453,-1302.5"/>
<text text-anchor="start" x="460" y="-1313.9" font-family="Arial" font-size="14.00" fill="#000000">is_ninjalock    </text>
<text text-anchor="start" x="566.5442" y="-1313.9" font-family="Arial" font-size="14.00" fill="#666666">[tinyint(1)]</text>
<polygon fill="none" stroke="#000000" points="453,-1272.5 453,-1302.5 765,-1302.5 765,-1272.5 453,-1272.5"/>
<text text-anchor="start" x="460" y="-1283.9" font-family="Arial" font-size="14.00" fill="#000000">is_display_entrance_note    </text>
<text text-anchor="start" x="652.9228" y="-1283.9" font-family="Arial" font-size="14.00" fill="#666666">[tinyint(1)]</text>
<polygon fill="none" stroke="#000000" points="453,-1242.5 453,-1272.5 765,-1272.5 765,-1242.5 453,-1242.5"/>
<text text-anchor="start" x="459.6487" y="-1253.9" font-family="Arial" font-size="14.00" fill="#000000">is_using_custom_business_hour    </text>
<text text-anchor="start" x="696.9067" y="-1253.9" font-family="Arial" font-size="14.00" fill="#666666">[tinyint(1)]</text>
<polygon fill="none" stroke="#000000" points="453,-1212.5 453,-1242.5 765,-1242.5 765,-1212.5 453,-1212.5"/>
<text text-anchor="start" x="460" y="-1223.9" font-family="Arial" font-size="14.00" fill="#000000">has_local_area_network    </text>
<text text-anchor="start" x="645.9102" y="-1223.9" font-family="Arial" font-size="14.00" fill="#666666">[tinyint(1)]</text>
<polygon fill="none" stroke="#000000" points="453,-1182.5 453,-1212.5 765,-1212.5 765,-1182.5 453,-1182.5"/>
<text text-anchor="start" x="460" y="-1193.9" font-family="Arial" font-size="14.00" fill="#000000">basic_price    </text>
<text text-anchor="start" x="564.9916" y="-1193.9" font-family="Arial" font-size="14.00" fill="#666666">[int(11) unsigned]</text>
<polygon fill="none" stroke="#000000" points="453,-1152.5 453,-1182.5 765,-1182.5 765,-1152.5 453,-1152.5"/>
<text text-anchor="start" x="460" y="-1163.9" font-family="Arial" font-size="14.00" fill="#000000">extend_price    </text>
<text text-anchor="start" x="574.3408" y="-1163.9" font-family="Arial" font-size="14.00" fill="#666666">[int(11)]</text>
<polygon fill="none" stroke="#000000" points="453,-1122.5 453,-1152.5 765,-1152.5 765,-1122.5 453,-1122.5"/>
<text text-anchor="start" x="460" y="-1133.9" font-family="Arial" font-size="14.00" fill="#000000">max_price    </text>
<text text-anchor="start" x="558.763" y="-1133.9" font-family="Arial" font-size="14.00" fill="#666666">[int(11)]</text>
<polygon fill="none" stroke="#000000" points="453,-1092.5 453,-1122.5 765,-1122.5 765,-1092.5 453,-1092.5"/>
<text text-anchor="start" x="460" y="-1103.9" font-family="Arial" font-size="14.00" fill="#000000">memo    </text>
<text text-anchor="start" x="533.0912" y="-1103.9" font-family="Arial" font-size="14.00" fill="#666666">[varchar(2000)]</text>
<polygon fill="none" stroke="#000000" points="453,-1062.5 453,-1092.5 765,-1092.5 765,-1062.5 453,-1062.5"/>
<text text-anchor="start" x="460" y="-1073.9" font-family="Arial" font-size="14.00" fill="#000000">floor_position    </text>
<text text-anchor="start" x="577.4446" y="-1073.9" font-family="Arial" font-size="14.00" fill="#666666">[smallint(5)]</text>
<polygon fill="none" stroke="#000000" points="453,-1032.5 453,-1062.5 765,-1062.5 765,-1032.5 453,-1032.5"/>
<text text-anchor="start" x="460" y="-1043.9" font-family="Arial" font-size="14.00" fill="#000000">is_tablet_linked    </text>
<text text-anchor="start" x="590.6732" y="-1043.9" font-family="Arial" font-size="14.00" fill="#666666">[int(11)]</text>
<polygon fill="none" stroke="#000000" points="453,-1002.5 453,-1032.5 765,-1032.5 765,-1002.5 453,-1002.5"/>
<text text-anchor="start" x="460" y="-1013.9" font-family="Arial" font-size="14.00" fill="#000000">batch_mail    </text>
<text text-anchor="start" x="561.8822" y="-1013.9" font-family="Arial" font-size="14.00" fill="#666666">[int(11)]</text>
<polygon fill="none" stroke="#000000" points="453,-972.5 453,-1002.5 765,-1002.5 765,-972.5 453,-972.5"/>
<text text-anchor="start" x="460" y="-983.9" font-family="Arial" font-size="14.00" fill="#000000">batch_mail_owner    </text>
<text text-anchor="start" x="607.7798" y="-983.9" font-family="Arial" font-size="14.00" fill="#666666">[int(11)]</text>
<polygon fill="none" stroke="#000000" points="453,-942.5 453,-972.5 765,-972.5 765,-942.5 453,-942.5"/>
<text text-anchor="start" x="460" y="-953.9" font-family="Arial" font-size="14.00" fill="#000000">guide_text    </text>
<text text-anchor="start" x="558.7882" y="-953.9" font-family="Arial" font-size="14.00" fill="#666666">[text]</text>
<polygon fill="none" stroke="#000000" points="453,-912.5 453,-942.5 765,-942.5 765,-912.5 453,-912.5"/>
<text text-anchor="start" x="460" y="-923.9" font-family="Arial" font-size="14.00" fill="#000000">eating_text    </text>
<text text-anchor="start" x="562.6788" y="-923.9" font-family="Arial" font-size="14.00" fill="#666666">[varchar(1000)]</text>
<polygon fill="none" stroke="#000000" points="453,-882.5 453,-912.5 765,-912.5 765,-882.5 453,-882.5"/>
<text text-anchor="start" x="460" y="-893.9" font-family="Arial" font-size="14.00" fill="#000000">cleanup_text    </text>
<text text-anchor="start" x="573.5708" y="-893.9" font-family="Arial" font-size="14.00" fill="#666666">[varchar(1000)]</text>
<polygon fill="none" stroke="#000000" points="453,-852.5 453,-882.5 765,-882.5 765,-852.5 453,-852.5"/>
<text text-anchor="start" x="460" y="-863.9" font-family="Arial" font-size="14.00" fill="#000000">facility_text    </text>
<text text-anchor="start" x="563.4348" y="-863.9" font-family="Arial" font-size="14.00" fill="#666666">[varchar(1000)]</text>
<polygon fill="none" stroke="#000000" points="453,-822.5 453,-852.5 765,-852.5 765,-822.5 453,-822.5"/>
<text text-anchor="start" x="460" y="-833.9" font-family="Arial" font-size="14.00" fill="#000000">change_layout    </text>
<text text-anchor="start" x="585.2454" y="-833.9" font-family="Arial" font-size="14.00" fill="#666666">[smallint(2)]</text>
<polygon fill="none" stroke="#000000" points="453,-792.5 453,-822.5 765,-822.5 765,-792.5 453,-792.5"/>
<text text-anchor="start" x="460" y="-803.9" font-family="Arial" font-size="14.00" fill="#000000">reservation_unit_an_hour    </text>
<text text-anchor="start" x="652.92" y="-803.9" font-family="Arial" font-size="14.00" fill="#666666">[tinyint(1)]</text>
<polygon fill="none" stroke="#000000" points="453,-762.5 453,-792.5 765,-792.5 765,-762.5 453,-762.5"/>
<text text-anchor="start" x="460" y="-773.9" font-family="Arial" font-size="14.00" fill="#000000">payment_period    </text>
<text text-anchor="start" x="594.5666" y="-773.9" font-family="Arial" font-size="14.00" fill="#666666">[int(11)]</text>
<polygon fill="none" stroke="#000000" points="453,-732.5 453,-762.5 765,-762.5 765,-732.5 453,-732.5"/>
<text text-anchor="start" x="460" y="-743.9" font-family="Arial" font-size="14.00" fill="#000000">sort_order    </text>
<text text-anchor="start" x="557.9902" y="-743.9" font-family="Arial" font-size="14.00" fill="#666666">[int(11)]</text>
<polygon fill="none" stroke="#000000" points="453,-702.5 453,-732.5 765,-732.5 765,-702.5 453,-702.5"/>
<text text-anchor="start" x="460" y="-713.9" font-family="Arial" font-size="14.00" fill="#000000">allow_tentative    </text>
<text text-anchor="start" x="586.7812" y="-713.9" font-family="Arial" font-size="14.00" fill="#666666">[tinyint(1)]</text>
<polygon fill="none" stroke="#000000" points="453,-672.5 453,-702.5 765,-702.5 765,-672.5 453,-672.5"/>
<text text-anchor="start" x="460" y="-683.9" font-family="Arial" font-size="14.00" fill="#000000">allow_change_reserved    </text>
<text text-anchor="start" x="642.0196" y="-683.9" font-family="Arial" font-size="14.00" fill="#666666">[tinyint(1)]</text>
<polygon fill="none" stroke="#000000" points="453,-642.5 453,-672.5 765,-672.5 765,-642.5 453,-642.5"/>
<text text-anchor="start" x="460" y="-653.9" font-family="Arial" font-size="14.00" fill="#000000">allow_extend_reservation    </text>
<text text-anchor="start" x="652.9074" y="-653.9" font-family="Arial" font-size="14.00" fill="#666666">[tinyint(1)]</text>
<polygon fill="none" stroke="#000000" points="453,-612.5 453,-642.5 765,-642.5 765,-612.5 453,-612.5"/>
<text text-anchor="start" x="460" y="-623.9" font-family="Arial" font-size="14.00" fill="#000000">change_reserved_limit_date    </text>
<text text-anchor="start" x="670.0266" y="-623.9" font-family="Arial" font-size="14.00" fill="#666666">[int(11)]</text>
<polygon fill="none" stroke="#000000" points="453,-582.5 453,-612.5 765,-612.5 765,-582.5 453,-582.5"/>
<text text-anchor="start" x="460" y="-593.9" font-family="Arial" font-size="14.00" fill="#000000">tentative_period    </text>
<text text-anchor="start" x="593.7938" y="-593.9" font-family="Arial" font-size="14.00" fill="#666666">[int(11)]</text>
<polygon fill="none" stroke="#000000" points="453,-552.5 453,-582.5 765,-582.5 765,-552.5 453,-552.5"/>
<text text-anchor="start" x="460" y="-563.9" font-family="Arial" font-size="14.00" fill="#000000">tentative_limit_date    </text>
<text text-anchor="start" x="614.7882" y="-563.9" font-family="Arial" font-size="14.00" fill="#666666">[int(11)]</text>
<polygon fill="none" stroke="#000000" points="453,-522.5 453,-552.5 765,-552.5 765,-522.5 453,-522.5"/>
<text text-anchor="start" x="460" y="-533.9" font-family="Arial" font-size="14.00" fill="#000000">include_tax    </text>
<text text-anchor="start" x="565.0042" y="-533.9" font-family="Arial" font-size="14.00" fill="#666666">[tinyint(1)]</text>
<polygon fill="none" stroke="#000000" points="453,-492.5 453,-522.5 765,-522.5 765,-492.5 453,-492.5"/>
<text text-anchor="start" x="460" y="-503.9" font-family="Arial" font-size="14.00" fill="#000000">ninjalock_serial    </text>
<text text-anchor="start" x="589.8766" y="-503.9" font-family="Arial" font-size="14.00" fill="#666666">[varchar(24)]</text>
<polygon fill="none" stroke="#000000" points="453,-462.5 453,-492.5 765,-492.5 765,-462.5 453,-462.5"/>
<text text-anchor="start" x="460" y="-473.9" font-family="Arial" font-size="14.00" fill="#000000">created_datetime    </text>
<text text-anchor="start" x="602.3478" y="-473.9" font-family="Arial" font-size="14.00" fill="#666666">[timestamp]</text>
<polygon fill="none" stroke="#000000" points="453,-432.5 453,-462.5 765,-462.5 765,-432.5 453,-432.5"/>
<text text-anchor="start" x="460" y="-443.9" font-family="Arial" font-size="14.00" fill="#000000">updated_datetime    </text>
<text text-anchor="start" x="606.2524" y="-443.9" font-family="Arial" font-size="14.00" fill="#666666">[timestamp]</text>
<polygon fill="none" stroke="#000000" points="453,-402.5 453,-432.5 765,-432.5 765,-402.5 453,-402.5"/>
<text text-anchor="start" x="460" y="-413.9" font-family="Arial" font-size="14.00" fill="#000000">start_reservable_time    </text>
<text text-anchor="start" x="628.7756" y="-413.9" font-family="Arial" font-size="14.00" fill="#666666">[smallint(3)]</text>
<polygon fill="none" stroke="#000000" points="453,-372.5 453,-402.5 765,-402.5 765,-372.5 453,-372.5"/>
<text text-anchor="start" x="460" y="-383.9" font-family="Arial" font-size="14.00" fill="#000000">end_reservable_time    </text>
<text text-anchor="start" x="624.899" y="-383.9" font-family="Arial" font-size="14.00" fill="#666666">[smallint(3)]</text>
<polygon fill="none" stroke="#000000" points="453,-342.5 453,-372.5 765,-372.5 765,-342.5 453,-342.5"/>
<text text-anchor="start" x="460" y="-353.9" font-family="Arial" font-size="14.00" fill="#000000">is_set_reservable_time    </text>
<text text-anchor="start" x="638.1136" y="-353.9" font-family="Arial" font-size="14.00" fill="#666666">[tinyint(1)]</text>
<polygon fill="none" stroke="#000000" points="453,-312.5 453,-342.5 765,-342.5 765,-312.5 453,-312.5"/>
<text text-anchor="start" x="460" y="-323.9" font-family="Arial" font-size="14.00" fill="#000000">is_buffer_time_setting_enabled    </text>
<text text-anchor="start" x="688.7096" y="-323.9" font-family="Arial" font-size="14.00" fill="#666666">[tinyint(1)]</text>
<polygon fill="none" stroke="#000000" points="453,-282.5 453,-312.5 765,-312.5 765,-282.5 453,-282.5"/>
<text text-anchor="start" x="460" y="-293.9" font-family="Arial" font-size="14.00" fill="#000000">buffer_time    </text>
<text text-anchor="start" x="564.2174" y="-293.9" font-family="Arial" font-size="14.00" fill="#666666">[time]</text>
<polygon fill="none" stroke="#000000" points="453,-252.5 453,-282.5 765,-282.5 765,-252.5 453,-252.5"/>
<text text-anchor="start" x="460" y="-263.9" font-family="Arial" font-size="14.00" fill="#000000">buffer_time_control    </text>
<text text-anchor="start" x="614.0056" y="-263.9" font-family="Arial" font-size="14.00" fill="#666666">[smallint(3)]</text>
<polygon fill="none" stroke="#000000" points="453,-222.5 453,-252.5 765,-252.5 765,-222.5 453,-222.5"/>
<text text-anchor="start" x="460" y="-233.9" font-family="Arial" font-size="14.00" fill="#000000">is_one_day_rental_enabled    </text>
<text text-anchor="start" x="666.1626" y="-233.9" font-family="Arial" font-size="14.00" fill="#666666">[tinyint(1)]</text>
<polygon fill="none" stroke="#000000" points="453,-192.5 453,-222.5 765,-222.5 765,-192.5 453,-192.5"/>
<text text-anchor="start" x="460" y="-203.9" font-family="Arial" font-size="14.00" fill="#000000">owner_buffer_time    </text>
<text text-anchor="start" x="610.115" y="-203.9" font-family="Arial" font-size="14.00" fill="#666666">[time]</text>
<polygon fill="none" stroke="#000000" points="453,-162.5 453,-192.5 765,-192.5 765,-162.5 453,-162.5"/>
<text text-anchor="start" x="460" y="-173.9" font-family="Arial" font-size="14.00" fill="#000000">external_buffer_time    </text>
<text text-anchor="start" x="621.7882" y="-173.9" font-family="Arial" font-size="14.00" fill="#666666">[time]</text>
<polygon fill="none" stroke="#000000" points="453,-132.5 453,-162.5 765,-162.5 765,-132.5 453,-132.5"/>
<text text-anchor="start" x="460" y="-143.9" font-family="Arial" font-size="14.00" fill="#000000">owner_buffer_time_control    </text>
<text text-anchor="start" x="659.9032" y="-143.9" font-family="Arial" font-size="14.00" fill="#666666">[smallint(3)]</text>
<polygon fill="none" stroke="#000000" points="453,-102.5 453,-132.5 765,-132.5 765,-102.5 453,-102.5"/>
<text text-anchor="start" x="460" y="-113.9" font-family="Arial" font-size="14.00" fill="#000000">external_buffer_time_control    </text>
<text text-anchor="start" x="671.5764" y="-113.9" font-family="Arial" font-size="14.00" fill="#666666">[smallint(3)]</text>
<polygon fill="none" stroke="#000000" points="453,-72.5 453,-102.5 765,-102.5 765,-72.5 453,-72.5"/>
<text text-anchor="start" x="460" y="-83.9" font-family="Arial" font-size="14.00" fill="#000000">is_lottery_setting_enabled    </text>
<text text-anchor="start" x="656.8106" y="-83.9" font-family="Arial" font-size="14.00" fill="#666666">[tinyint(1)]</text>
<polygon fill="none" stroke="#000000" points="453,-42.5 453,-72.5 765,-72.5 765,-42.5 453,-42.5"/>
<text text-anchor="start" x="460" y="-53.9" font-family="Arial" font-size="14.00" fill="#000000">lottery_period    </text>
<text text-anchor="start" x="578.9986" y="-53.9" font-family="Arial" font-size="14.00" fill="#666666">[int(5)]</text>
</g>
<!-- sk_lottery_reserves&#45;&gt;sk_rooms -->
<g id="edge2" class="edge">
<title>sk_lottery_reserves:room_id&#45;&gt;sk_rooms:id</title>
<path fill="none" stroke="#000000" d="M562.3866,-2257.1285C695.8184,-2247.2905 634.2124,-2044.3746 552,-1927 525.1402,-1888.6522 479.8598,-1929.3478 453,-1891 429.1597,-1856.9632 411.4444,-1797.5 453,-1797.5"/>
<polygon fill="#000000" stroke="#000000" points="561.9936,-2257.1425 551.8391,-2253.0029 556.9968,-2257.3212 552,-2257.5 552,-2257.5 552,-2257.5 556.9968,-2257.3212 552.1609,-2261.9971 561.9936,-2257.1425 561.9936,-2257.1425"/>
<text text-anchor="start" x="558.8365" y="-2267.5" font-family="Arial" font-size="10.00" fill="#000000">FOREIGN KEY (room_id) REFERENCES sk_rooms (id)</text>
</g>
</g>
</svg>
