<?xml version="1.0" encoding="UTF-8" standalone="no"?>
<!DOCTYPE svg PUBLIC "-//W3C//DTD SVG 1.1//EN"
 "http://www.w3.org/Graphics/SVG/1.1/DTD/svg11.dtd">
<!-- Generated by graphviz version 2.40.1 (20161225.0304)
 -->
<!-- Title: sk_ninjalocks Pages: 1 -->
<svg width="805pt" height="2572pt"
 viewBox="0.00 0.00 805.00 2572.00" xmlns="http://www.w3.org/2000/svg" xmlns:xlink="http://www.w3.org/1999/xlink">
<g id="graph0" class="graph" transform="scale(1 1) rotate(0) translate(4 2568)">
<title>sk_ninjalocks</title>
<polygon fill="#ffffff" stroke="transparent" points="-4,4 -4,-2568 801,-2568 801,4 -4,4"/>
<!-- sk_ninjalocks -->
<g id="node1" class="node">
<title>sk_ninjalocks</title>
<polygon fill="#efefef" stroke="transparent" points="274,-2482.5 274,-2517.5 522,-2517.5 522,-2482.5 274,-2482.5"/>
<polygon fill="none" stroke="#000000" points="274,-2482.5 274,-2517.5 522,-2517.5 522,-2482.5 274,-2482.5"/>
<text text-anchor="start" x="280.7092" y="-2495.3" font-family="Arial Bold" font-size="18.00" fill="#000000">sk_ninjalocks</text>
<text text-anchor="start" x="387.7228" y="-2495.3" font-family="Arial" font-size="14.00" fill="#000000">    </text>
<text text-anchor="start" x="421.9276" y="-2495.3" font-family="Arial" font-size="14.00" fill="#666666">[BASE TABLE]</text>
<polygon fill="none" stroke="#000000" points="274,-2452.5 274,-2482.5 522,-2482.5 522,-2452.5 274,-2452.5"/>
<text text-anchor="start" x="281" y="-2463.9" font-family="Arial" font-size="14.00" fill="#000000">android_id </text>
<text text-anchor="start" x="350.2426" y="-2463.9" font-family="Arial" font-size="14.00" fill="#666666">[varchar(200)]</text>
<polygon fill="none" stroke="#000000" points="274,-2422.5 274,-2452.5 522,-2452.5 522,-2422.5 274,-2422.5"/>
<text text-anchor="start" x="281" y="-2433.9" font-family="Arial" font-size="14.00" fill="#000000">lessor_id </text>
<text text-anchor="start" x="340.8948" y="-2433.9" font-family="Arial" font-size="14.00" fill="#666666">[int(11) unsigned]</text>
<polygon fill="none" stroke="#000000" points="274,-2392.5 274,-2422.5 522,-2422.5 522,-2392.5 274,-2392.5"/>
<text text-anchor="start" x="281" y="-2403.9" font-family="Arial" font-size="14.00" fill="#000000">room_id </text>
<text text-anchor="start" x="335.4488" y="-2403.9" font-family="Arial" font-size="14.00" fill="#666666">[int(11) unsigned]</text>
<polygon fill="none" stroke="#000000" points="274,-2362.5 274,-2392.5 522,-2392.5 522,-2362.5 274,-2362.5"/>
<text text-anchor="start" x="281" y="-2373.9" font-family="Arial" font-size="14.00" fill="#000000">facility_id </text>
<text text-anchor="start" x="342.446" y="-2373.9" font-family="Arial" font-size="14.00" fill="#666666">[int(11) unsigned]</text>
<polygon fill="none" stroke="#000000" points="274,-2332.5 274,-2362.5 522,-2362.5 522,-2332.5 274,-2332.5"/>
<text text-anchor="start" x="281" y="-2343.9" font-family="Arial" font-size="14.00" fill="#000000">connect_id </text>
<text text-anchor="start" x="352.5834" y="-2343.9" font-family="Arial" font-size="14.00" fill="#666666">[bigint(13) unsigned]</text>
<polygon fill="none" stroke="#000000" points="274,-2302.5 274,-2332.5 522,-2332.5 522,-2302.5 274,-2302.5"/>
<text text-anchor="start" x="281" y="-2313.9" font-family="Arial" font-size="14.00" fill="#000000">ninjalock_id </text>
<text text-anchor="start" x="358.0126" y="-2313.9" font-family="Arial" font-size="14.00" fill="#666666">[varchar(24)]</text>
<polygon fill="none" stroke="#000000" points="274,-2272.5 274,-2302.5 522,-2302.5 522,-2272.5 274,-2272.5"/>
<text text-anchor="start" x="281" y="-2283.9" font-family="Arial" font-size="14.00" fill="#000000">ninjalock_serial </text>
<text text-anchor="start" x="380.5624" y="-2283.9" font-family="Arial" font-size="14.00" fill="#666666">[varchar(24)]</text>
<polygon fill="none" stroke="#000000" points="274,-2242.5 274,-2272.5 522,-2272.5 522,-2242.5 274,-2242.5"/>
<text text-anchor="start" x="281" y="-2253.9" font-family="Arial" font-size="14.00" fill="#000000">ninjalock_type </text>
<text text-anchor="start" x="373.5792" y="-2253.9" font-family="Arial" font-size="14.00" fill="#666666">[smallint(6)]</text>
<polygon fill="none" stroke="#000000" points="274,-2212.5 274,-2242.5 522,-2242.5 522,-2212.5 274,-2212.5"/>
<text text-anchor="start" x="281" y="-2223.9" font-family="Arial" font-size="14.00" fill="#000000">ninjalock_status </text>
<text text-anchor="start" x="384.4698" y="-2223.9" font-family="Arial" font-size="14.00" fill="#666666">[smallint(6)]</text>
<polygon fill="none" stroke="#000000" points="274,-2182.5 274,-2212.5 522,-2212.5 522,-2182.5 274,-2182.5"/>
<text text-anchor="start" x="281" y="-2193.9" font-family="Arial" font-size="14.00" fill="#000000">ninjalock_connect_status </text>
<text text-anchor="start" x="441.2734" y="-2193.9" font-family="Arial" font-size="14.00" fill="#666666">[smallint(6)]</text>
<polygon fill="none" stroke="#000000" points="274,-2152.5 274,-2182.5 522,-2182.5 522,-2152.5 274,-2152.5"/>
<text text-anchor="start" x="281" y="-2163.9" font-family="Arial" font-size="14.00" fill="#000000">ninjalock_battery_status </text>
<text text-anchor="start" x="435.042" y="-2163.9" font-family="Arial" font-size="14.00" fill="#666666">[smallint(6)]</text>
<polygon fill="none" stroke="#000000" points="274,-2122.5 274,-2152.5 522,-2152.5 522,-2122.5 274,-2122.5"/>
<text text-anchor="start" x="281" y="-2133.9" font-family="Arial" font-size="14.00" fill="#000000">created </text>
<text text-anchor="start" x="331.5722" y="-2133.9" font-family="Arial" font-size="14.00" fill="#666666">[datetime]</text>
<polygon fill="none" stroke="#000000" points="274,-2092.5 274,-2122.5 522,-2122.5 522,-2092.5 274,-2092.5"/>
<text text-anchor="start" x="281" y="-2103.9" font-family="Arial" font-size="14.00" fill="#000000">modified </text>
<text text-anchor="start" x="337.7854" y="-2103.9" font-family="Arial" font-size="14.00" fill="#666666">[datetime]</text>
<polygon fill="none" stroke="#000000" points="274,-2062.5 274,-2092.5 522,-2092.5 522,-2062.5 274,-2062.5"/>
<text text-anchor="start" x="281" y="-2073.9" font-family="Arial" font-size="14.00" fill="#000000">camera_image_base64 </text>
<text text-anchor="start" x="431.1528" y="-2073.9" font-family="Arial" font-size="14.00" fill="#666666">[longtext]</text>
<polygon fill="none" stroke="#000000" points="274,-2032.5 274,-2062.5 522,-2062.5 522,-2032.5 274,-2032.5"/>
<text text-anchor="start" x="281" y="-2043.9" font-family="Arial" font-size="14.00" fill="#000000">camera_image_created </text>
<text text-anchor="start" x="431.9214" y="-2043.9" font-family="Arial" font-size="14.00" fill="#666666">[datetime]</text>
<polygon fill="none" stroke="#000000" points="274,-2002.5 274,-2032.5 522,-2032.5 522,-2002.5 274,-2002.5"/>
<text text-anchor="start" x="281" y="-2013.9" font-family="Arial" font-size="14.00" fill="#000000">heart_beat_sim_checked </text>
<text text-anchor="start" x="441.2734" y="-2013.9" font-family="Arial" font-size="14.00" fill="#666666">[datetime]</text>
<polygon fill="none" stroke="#000000" points="274,-1972.5 274,-2002.5 522,-2002.5 522,-1972.5 274,-1972.5"/>
<text text-anchor="start" x="281" y="-1983.9" font-family="Arial" font-size="14.00" fill="#000000">heart_beat_sim_alerted </text>
<text text-anchor="start" x="431.9312" y="-1983.9" font-family="Arial" font-size="14.00" fill="#666666">[datetime]</text>
<polygon fill="none" stroke="#000000" stroke-width="3" points="272.5,-1971.5 272.5,-2519.5 523.5,-2519.5 523.5,-1971.5 272.5,-1971.5"/>
</g>
<!-- sk_rooms -->
<g id="node2" class="node">
<title>sk_rooms</title>
<polygon fill="#efefef" stroke="transparent" points="43,-1812.5 43,-1847.5 355,-1847.5 355,-1812.5 43,-1812.5"/>
<polygon fill="none" stroke="#000000" points="43,-1812.5 43,-1847.5 355,-1847.5 355,-1812.5 43,-1812.5"/>
<text text-anchor="start" x="96.2145" y="-1825.3" font-family="Arial Bold" font-size="18.00" fill="#000000">sk_rooms</text>
<text text-anchor="start" x="174.2175" y="-1825.3" font-family="Arial" font-size="14.00" fill="#000000">    </text>
<text text-anchor="start" x="208.4223" y="-1825.3" font-family="Arial" font-size="14.00" fill="#666666">[BASE TABLE]</text>
<polygon fill="none" stroke="#000000" points="43,-1782.5 43,-1812.5 355,-1812.5 355,-1782.5 43,-1782.5"/>
<text text-anchor="start" x="50" y="-1793.9" font-family="Arial" font-size="14.00" fill="#000000">id    </text>
<text text-anchor="start" x="95.094" y="-1793.9" font-family="Arial" font-size="14.00" fill="#666666">[int(11) unsigned]</text>
<polygon fill="none" stroke="#000000" points="43,-1752.5 43,-1782.5 355,-1782.5 355,-1752.5 43,-1752.5"/>
<text text-anchor="start" x="50" y="-1763.9" font-family="Arial" font-size="14.00" fill="#000000">is_deleted    </text>
<text text-anchor="start" x="148.0042" y="-1763.9" font-family="Arial" font-size="14.00" fill="#666666">[tinyint(1)]</text>
<polygon fill="none" stroke="#000000" points="43,-1722.5 43,-1752.5 355,-1752.5 355,-1722.5 43,-1722.5"/>
<text text-anchor="start" x="50" y="-1733.9" font-family="Arial" font-size="14.00" fill="#000000">is_public    </text>
<text text-anchor="start" x="138.655" y="-1733.9" font-family="Arial" font-size="14.00" fill="#666666">[tinyint(1)]</text>
<polygon fill="none" stroke="#000000" points="43,-1692.5 43,-1722.5 355,-1722.5 355,-1692.5 43,-1692.5"/>
<text text-anchor="start" x="50" y="-1703.9" font-family="Arial" font-size="14.00" fill="#000000">is_set    </text>
<text text-anchor="start" x="120.7672" y="-1703.9" font-family="Arial" font-size="14.00" fill="#666666">[tinyint(1)]</text>
<polygon fill="none" stroke="#000000" points="43,-1662.5 43,-1692.5 355,-1692.5 355,-1662.5 43,-1662.5"/>
<text text-anchor="start" x="50" y="-1673.9" font-family="Arial" font-size="14.00" fill="#000000">property_id    </text>
<text text-anchor="start" x="154.2188" y="-1673.9" font-family="Arial" font-size="14.00" fill="#666666">[int(11) unsigned]</text>
<polygon fill="none" stroke="#000000" points="43,-1632.5 43,-1662.5 355,-1662.5 355,-1632.5 43,-1632.5"/>
<text text-anchor="start" x="50" y="-1643.9" font-family="Arial" font-size="14.00" fill="#000000">lessor_id    </text>
<text text-anchor="start" x="140.209" y="-1643.9" font-family="Arial" font-size="14.00" fill="#666666">[int(11) unsigned]</text>
<polygon fill="none" stroke="#000000" points="43,-1602.5 43,-1632.5 355,-1632.5 355,-1602.5 43,-1602.5"/>
<text text-anchor="start" x="50" y="-1613.9" font-family="Arial" font-size="14.00" fill="#000000">name    </text>
<text text-anchor="start" x="119.2132" y="-1613.9" font-family="Arial" font-size="14.00" fill="#666666">[varchar(200)]</text>
<polygon fill="none" stroke="#000000" points="43,-1572.5 43,-1602.5 355,-1602.5 355,-1572.5 43,-1572.5"/>
<text text-anchor="start" x="50" y="-1583.9" font-family="Arial" font-size="14.00" fill="#000000">voice_name    </text>
<text text-anchor="start" x="159.6676" y="-1583.9" font-family="Arial" font-size="14.00" fill="#666666">[varchar(200)]</text>
<polygon fill="none" stroke="#000000" points="43,-1542.5 43,-1572.5 355,-1572.5 355,-1542.5 43,-1542.5"/>
<text text-anchor="start" x="50" y="-1553.9" font-family="Arial" font-size="14.00" fill="#000000">description_url    </text>
<text text-anchor="start" x="175.2146" y="-1553.9" font-family="Arial" font-size="14.00" fill="#666666">[varchar(1000)]</text>
<polygon fill="none" stroke="#000000" points="43,-1512.5 43,-1542.5 355,-1542.5 355,-1512.5 43,-1512.5"/>
<text text-anchor="start" x="50" y="-1523.9" font-family="Arial" font-size="14.00" fill="#000000">exclusive_area    </text>
<text text-anchor="start" x="177.5568" y="-1523.9" font-family="Arial" font-size="14.00" fill="#666666">[decimal(10,2)]</text>
<polygon fill="none" stroke="#000000" points="43,-1482.5 43,-1512.5 355,-1512.5 355,-1482.5 43,-1482.5"/>
<text text-anchor="start" x="50" y="-1493.9" font-family="Arial" font-size="14.00" fill="#000000">ceiling_height    </text>
<text text-anchor="start" x="169.7826" y="-1493.9" font-family="Arial" font-size="14.00" fill="#666666">[decimal(10,2)]</text>
<polygon fill="none" stroke="#000000" points="43,-1452.5 43,-1482.5 355,-1482.5 355,-1452.5 43,-1452.5"/>
<text text-anchor="start" x="50" y="-1463.9" font-family="Arial" font-size="14.00" fill="#000000">floor    </text>
<text text-anchor="start" x="111.4278" y="-1463.9" font-family="Arial" font-size="14.00" fill="#666666">[smallint(5)]</text>
<polygon fill="none" stroke="#000000" points="43,-1422.5 43,-1452.5 355,-1452.5 355,-1422.5 43,-1422.5"/>
<text text-anchor="start" x="50" y="-1433.9" font-family="Arial" font-size="14.00" fill="#000000">minimum_time    </text>
<text text-anchor="start" x="175.188" y="-1433.9" font-family="Arial" font-size="14.00" fill="#666666">[time]</text>
<polygon fill="none" stroke="#000000" points="43,-1392.5 43,-1422.5 355,-1422.5 355,-1392.5 43,-1392.5"/>
<text text-anchor="start" x="50" y="-1403.9" font-family="Arial" font-size="14.00" fill="#000000">maximum_time    </text>
<text text-anchor="start" x="179.0814" y="-1403.9" font-family="Arial" font-size="14.00" fill="#666666">[time]</text>
<polygon fill="none" stroke="#000000" points="43,-1362.5 43,-1392.5 355,-1392.5 355,-1362.5 43,-1362.5"/>
<text text-anchor="start" x="50" y="-1373.9" font-family="Arial" font-size="14.00" fill="#000000">start_date    </text>
<text text-anchor="start" x="146.4502" y="-1373.9" font-family="Arial" font-size="14.00" fill="#666666">[date]</text>
<polygon fill="none" stroke="#000000" points="43,-1332.5 43,-1362.5 355,-1362.5 355,-1332.5 43,-1332.5"/>
<text text-anchor="start" x="50" y="-1343.9" font-family="Arial" font-size="14.00" fill="#000000">end_date    </text>
<text text-anchor="start" x="142.5736" y="-1343.9" font-family="Arial" font-size="14.00" fill="#666666">[date]</text>
<polygon fill="none" stroke="#000000" points="43,-1302.5 43,-1332.5 355,-1332.5 355,-1302.5 43,-1302.5"/>
<text text-anchor="start" x="50" y="-1313.9" font-family="Arial" font-size="14.00" fill="#000000">is_ninjalock    </text>
<text text-anchor="start" x="156.5442" y="-1313.9" font-family="Arial" font-size="14.00" fill="#666666">[tinyint(1)]</text>
<polygon fill="none" stroke="#000000" points="43,-1272.5 43,-1302.5 355,-1302.5 355,-1272.5 43,-1272.5"/>
<text text-anchor="start" x="50" y="-1283.9" font-family="Arial" font-size="14.00" fill="#000000">is_display_entrance_note    </text>
<text text-anchor="start" x="242.9228" y="-1283.9" font-family="Arial" font-size="14.00" fill="#666666">[tinyint(1)]</text>
<polygon fill="none" stroke="#000000" points="43,-1242.5 43,-1272.5 355,-1272.5 355,-1242.5 43,-1242.5"/>
<text text-anchor="start" x="49.6487" y="-1253.9" font-family="Arial" font-size="14.00" fill="#000000">is_using_custom_business_hour    </text>
<text text-anchor="start" x="286.9067" y="-1253.9" font-family="Arial" font-size="14.00" fill="#666666">[tinyint(1)]</text>
<polygon fill="none" stroke="#000000" points="43,-1212.5 43,-1242.5 355,-1242.5 355,-1212.5 43,-1212.5"/>
<text text-anchor="start" x="50" y="-1223.9" font-family="Arial" font-size="14.00" fill="#000000">has_local_area_network    </text>
<text text-anchor="start" x="235.9102" y="-1223.9" font-family="Arial" font-size="14.00" fill="#666666">[tinyint(1)]</text>
<polygon fill="none" stroke="#000000" points="43,-1182.5 43,-1212.5 355,-1212.5 355,-1182.5 43,-1182.5"/>
<text text-anchor="start" x="50" y="-1193.9" font-family="Arial" font-size="14.00" fill="#000000">basic_price    </text>
<text text-anchor="start" x="154.9916" y="-1193.9" font-family="Arial" font-size="14.00" fill="#666666">[int(11) unsigned]</text>
<polygon fill="none" stroke="#000000" points="43,-1152.5 43,-1182.5 355,-1182.5 355,-1152.5 43,-1152.5"/>
<text text-anchor="start" x="50" y="-1163.9" font-family="Arial" font-size="14.00" fill="#000000">extend_price    </text>
<text text-anchor="start" x="164.3408" y="-1163.9" font-family="Arial" font-size="14.00" fill="#666666">[int(11)]</text>
<polygon fill="none" stroke="#000000" points="43,-1122.5 43,-1152.5 355,-1152.5 355,-1122.5 43,-1122.5"/>
<text text-anchor="start" x="50" y="-1133.9" font-family="Arial" font-size="14.00" fill="#000000">max_price    </text>
<text text-anchor="start" x="148.763" y="-1133.9" font-family="Arial" font-size="14.00" fill="#666666">[int(11)]</text>
<polygon fill="none" stroke="#000000" points="43,-1092.5 43,-1122.5 355,-1122.5 355,-1092.5 43,-1092.5"/>
<text text-anchor="start" x="50" y="-1103.9" font-family="Arial" font-size="14.00" fill="#000000">memo    </text>
<text text-anchor="start" x="123.0912" y="-1103.9" font-family="Arial" font-size="14.00" fill="#666666">[varchar(2000)]</text>
<polygon fill="none" stroke="#000000" points="43,-1062.5 43,-1092.5 355,-1092.5 355,-1062.5 43,-1062.5"/>
<text text-anchor="start" x="50" y="-1073.9" font-family="Arial" font-size="14.00" fill="#000000">floor_position    </text>
<text text-anchor="start" x="167.4446" y="-1073.9" font-family="Arial" font-size="14.00" fill="#666666">[smallint(5)]</text>
<polygon fill="none" stroke="#000000" points="43,-1032.5 43,-1062.5 355,-1062.5 355,-1032.5 43,-1032.5"/>
<text text-anchor="start" x="50" y="-1043.9" font-family="Arial" font-size="14.00" fill="#000000">is_tablet_linked    </text>
<text text-anchor="start" x="180.6732" y="-1043.9" font-family="Arial" font-size="14.00" fill="#666666">[int(11)]</text>
<polygon fill="none" stroke="#000000" points="43,-1002.5 43,-1032.5 355,-1032.5 355,-1002.5 43,-1002.5"/>
<text text-anchor="start" x="50" y="-1013.9" font-family="Arial" font-size="14.00" fill="#000000">batch_mail    </text>
<text text-anchor="start" x="151.8822" y="-1013.9" font-family="Arial" font-size="14.00" fill="#666666">[int(11)]</text>
<polygon fill="none" stroke="#000000" points="43,-972.5 43,-1002.5 355,-1002.5 355,-972.5 43,-972.5"/>
<text text-anchor="start" x="50" y="-983.9" font-family="Arial" font-size="14.00" fill="#000000">batch_mail_owner    </text>
<text text-anchor="start" x="197.7798" y="-983.9" font-family="Arial" font-size="14.00" fill="#666666">[int(11)]</text>
<polygon fill="none" stroke="#000000" points="43,-942.5 43,-972.5 355,-972.5 355,-942.5 43,-942.5"/>
<text text-anchor="start" x="50" y="-953.9" font-family="Arial" font-size="14.00" fill="#000000">guide_text    </text>
<text text-anchor="start" x="148.7882" y="-953.9" font-family="Arial" font-size="14.00" fill="#666666">[text]</text>
<polygon fill="none" stroke="#000000" points="43,-912.5 43,-942.5 355,-942.5 355,-912.5 43,-912.5"/>
<text text-anchor="start" x="50" y="-923.9" font-family="Arial" font-size="14.00" fill="#000000">eating_text    </text>
<text text-anchor="start" x="152.6788" y="-923.9" font-family="Arial" font-size="14.00" fill="#666666">[varchar(1000)]</text>
<polygon fill="none" stroke="#000000" points="43,-882.5 43,-912.5 355,-912.5 355,-882.5 43,-882.5"/>
<text text-anchor="start" x="50" y="-893.9" font-family="Arial" font-size="14.00" fill="#000000">cleanup_text    </text>
<text text-anchor="start" x="163.5708" y="-893.9" font-family="Arial" font-size="14.00" fill="#666666">[varchar(1000)]</text>
<polygon fill="none" stroke="#000000" points="43,-852.5 43,-882.5 355,-882.5 355,-852.5 43,-852.5"/>
<text text-anchor="start" x="50" y="-863.9" font-family="Arial" font-size="14.00" fill="#000000">facility_text    </text>
<text text-anchor="start" x="153.4348" y="-863.9" font-family="Arial" font-size="14.00" fill="#666666">[varchar(1000)]</text>
<polygon fill="none" stroke="#000000" points="43,-822.5 43,-852.5 355,-852.5 355,-822.5 43,-822.5"/>
<text text-anchor="start" x="50" y="-833.9" font-family="Arial" font-size="14.00" fill="#000000">change_layout    </text>
<text text-anchor="start" x="175.2454" y="-833.9" font-family="Arial" font-size="14.00" fill="#666666">[smallint(2)]</text>
<polygon fill="none" stroke="#000000" points="43,-792.5 43,-822.5 355,-822.5 355,-792.5 43,-792.5"/>
<text text-anchor="start" x="50" y="-803.9" font-family="Arial" font-size="14.00" fill="#000000">reservation_unit_an_hour    </text>
<text text-anchor="start" x="242.92" y="-803.9" font-family="Arial" font-size="14.00" fill="#666666">[tinyint(1)]</text>
<polygon fill="none" stroke="#000000" points="43,-762.5 43,-792.5 355,-792.5 355,-762.5 43,-762.5"/>
<text text-anchor="start" x="50" y="-773.9" font-family="Arial" font-size="14.00" fill="#000000">payment_period    </text>
<text text-anchor="start" x="184.5666" y="-773.9" font-family="Arial" font-size="14.00" fill="#666666">[int(11)]</text>
<polygon fill="none" stroke="#000000" points="43,-732.5 43,-762.5 355,-762.5 355,-732.5 43,-732.5"/>
<text text-anchor="start" x="50" y="-743.9" font-family="Arial" font-size="14.00" fill="#000000">sort_order    </text>
<text text-anchor="start" x="147.9902" y="-743.9" font-family="Arial" font-size="14.00" fill="#666666">[int(11)]</text>
<polygon fill="none" stroke="#000000" points="43,-702.5 43,-732.5 355,-732.5 355,-702.5 43,-702.5"/>
<text text-anchor="start" x="50" y="-713.9" font-family="Arial" font-size="14.00" fill="#000000">allow_tentative    </text>
<text text-anchor="start" x="176.7812" y="-713.9" font-family="Arial" font-size="14.00" fill="#666666">[tinyint(1)]</text>
<polygon fill="none" stroke="#000000" points="43,-672.5 43,-702.5 355,-702.5 355,-672.5 43,-672.5"/>
<text text-anchor="start" x="50" y="-683.9" font-family="Arial" font-size="14.00" fill="#000000">allow_change_reserved    </text>
<text text-anchor="start" x="232.0196" y="-683.9" font-family="Arial" font-size="14.00" fill="#666666">[tinyint(1)]</text>
<polygon fill="none" stroke="#000000" points="43,-642.5 43,-672.5 355,-672.5 355,-642.5 43,-642.5"/>
<text text-anchor="start" x="50" y="-653.9" font-family="Arial" font-size="14.00" fill="#000000">allow_extend_reservation    </text>
<text text-anchor="start" x="242.9074" y="-653.9" font-family="Arial" font-size="14.00" fill="#666666">[tinyint(1)]</text>
<polygon fill="none" stroke="#000000" points="43,-612.5 43,-642.5 355,-642.5 355,-612.5 43,-612.5"/>
<text text-anchor="start" x="50" y="-623.9" font-family="Arial" font-size="14.00" fill="#000000">change_reserved_limit_date    </text>
<text text-anchor="start" x="260.0266" y="-623.9" font-family="Arial" font-size="14.00" fill="#666666">[int(11)]</text>
<polygon fill="none" stroke="#000000" points="43,-582.5 43,-612.5 355,-612.5 355,-582.5 43,-582.5"/>
<text text-anchor="start" x="50" y="-593.9" font-family="Arial" font-size="14.00" fill="#000000">tentative_period    </text>
<text text-anchor="start" x="183.7938" y="-593.9" font-family="Arial" font-size="14.00" fill="#666666">[int(11)]</text>
<polygon fill="none" stroke="#000000" points="43,-552.5 43,-582.5 355,-582.5 355,-552.5 43,-552.5"/>
<text text-anchor="start" x="50" y="-563.9" font-family="Arial" font-size="14.00" fill="#000000">tentative_limit_date    </text>
<text text-anchor="start" x="204.7882" y="-563.9" font-family="Arial" font-size="14.00" fill="#666666">[int(11)]</text>
<polygon fill="none" stroke="#000000" points="43,-522.5 43,-552.5 355,-552.5 355,-522.5 43,-522.5"/>
<text text-anchor="start" x="50" y="-533.9" font-family="Arial" font-size="14.00" fill="#000000">include_tax    </text>
<text text-anchor="start" x="155.0042" y="-533.9" font-family="Arial" font-size="14.00" fill="#666666">[tinyint(1)]</text>
<polygon fill="none" stroke="#000000" points="43,-492.5 43,-522.5 355,-522.5 355,-492.5 43,-492.5"/>
<text text-anchor="start" x="50" y="-503.9" font-family="Arial" font-size="14.00" fill="#000000">ninjalock_serial    </text>
<text text-anchor="start" x="179.8766" y="-503.9" font-family="Arial" font-size="14.00" fill="#666666">[varchar(24)]</text>
<polygon fill="none" stroke="#000000" points="43,-462.5 43,-492.5 355,-492.5 355,-462.5 43,-462.5"/>
<text text-anchor="start" x="50" y="-473.9" font-family="Arial" font-size="14.00" fill="#000000">created_datetime    </text>
<text text-anchor="start" x="192.3478" y="-473.9" font-family="Arial" font-size="14.00" fill="#666666">[timestamp]</text>
<polygon fill="none" stroke="#000000" points="43,-432.5 43,-462.5 355,-462.5 355,-432.5 43,-432.5"/>
<text text-anchor="start" x="50" y="-443.9" font-family="Arial" font-size="14.00" fill="#000000">updated_datetime    </text>
<text text-anchor="start" x="196.2524" y="-443.9" font-family="Arial" font-size="14.00" fill="#666666">[timestamp]</text>
<polygon fill="none" stroke="#000000" points="43,-402.5 43,-432.5 355,-432.5 355,-402.5 43,-402.5"/>
<text text-anchor="start" x="50" y="-413.9" font-family="Arial" font-size="14.00" fill="#000000">start_reservable_time    </text>
<text text-anchor="start" x="218.7756" y="-413.9" font-family="Arial" font-size="14.00" fill="#666666">[smallint(3)]</text>
<polygon fill="none" stroke="#000000" points="43,-372.5 43,-402.5 355,-402.5 355,-372.5 43,-372.5"/>
<text text-anchor="start" x="50" y="-383.9" font-family="Arial" font-size="14.00" fill="#000000">end_reservable_time    </text>
<text text-anchor="start" x="214.899" y="-383.9" font-family="Arial" font-size="14.00" fill="#666666">[smallint(3)]</text>
<polygon fill="none" stroke="#000000" points="43,-342.5 43,-372.5 355,-372.5 355,-342.5 43,-342.5"/>
<text text-anchor="start" x="50" y="-353.9" font-family="Arial" font-size="14.00" fill="#000000">is_set_reservable_time    </text>
<text text-anchor="start" x="228.1136" y="-353.9" font-family="Arial" font-size="14.00" fill="#666666">[tinyint(1)]</text>
<polygon fill="none" stroke="#000000" points="43,-312.5 43,-342.5 355,-342.5 355,-312.5 43,-312.5"/>
<text text-anchor="start" x="50" y="-323.9" font-family="Arial" font-size="14.00" fill="#000000">is_buffer_time_setting_enabled    </text>
<text text-anchor="start" x="278.7096" y="-323.9" font-family="Arial" font-size="14.00" fill="#666666">[tinyint(1)]</text>
<polygon fill="none" stroke="#000000" points="43,-282.5 43,-312.5 355,-312.5 355,-282.5 43,-282.5"/>
<text text-anchor="start" x="50" y="-293.9" font-family="Arial" font-size="14.00" fill="#000000">buffer_time    </text>
<text text-anchor="start" x="154.2174" y="-293.9" font-family="Arial" font-size="14.00" fill="#666666">[time]</text>
<polygon fill="none" stroke="#000000" points="43,-252.5 43,-282.5 355,-282.5 355,-252.5 43,-252.5"/>
<text text-anchor="start" x="50" y="-263.9" font-family="Arial" font-size="14.00" fill="#000000">buffer_time_control    </text>
<text text-anchor="start" x="204.0056" y="-263.9" font-family="Arial" font-size="14.00" fill="#666666">[smallint(3)]</text>
<polygon fill="none" stroke="#000000" points="43,-222.5 43,-252.5 355,-252.5 355,-222.5 43,-222.5"/>
<text text-anchor="start" x="50" y="-233.9" font-family="Arial" font-size="14.00" fill="#000000">is_one_day_rental_enabled    </text>
<text text-anchor="start" x="256.1626" y="-233.9" font-family="Arial" font-size="14.00" fill="#666666">[tinyint(1)]</text>
<polygon fill="none" stroke="#000000" points="43,-192.5 43,-222.5 355,-222.5 355,-192.5 43,-192.5"/>
<text text-anchor="start" x="50" y="-203.9" font-family="Arial" font-size="14.00" fill="#000000">owner_buffer_time    </text>
<text text-anchor="start" x="200.115" y="-203.9" font-family="Arial" font-size="14.00" fill="#666666">[time]</text>
<polygon fill="none" stroke="#000000" points="43,-162.5 43,-192.5 355,-192.5 355,-162.5 43,-162.5"/>
<text text-anchor="start" x="50" y="-173.9" font-family="Arial" font-size="14.00" fill="#000000">external_buffer_time    </text>
<text text-anchor="start" x="211.7882" y="-173.9" font-family="Arial" font-size="14.00" fill="#666666">[time]</text>
<polygon fill="none" stroke="#000000" points="43,-132.5 43,-162.5 355,-162.5 355,-132.5 43,-132.5"/>
<text text-anchor="start" x="50" y="-143.9" font-family="Arial" font-size="14.00" fill="#000000">owner_buffer_time_control    </text>
<text text-anchor="start" x="249.9032" y="-143.9" font-family="Arial" font-size="14.00" fill="#666666">[smallint(3)]</text>
<polygon fill="none" stroke="#000000" points="43,-102.5 43,-132.5 355,-132.5 355,-102.5 43,-102.5"/>
<text text-anchor="start" x="50" y="-113.9" font-family="Arial" font-size="14.00" fill="#000000">external_buffer_time_control    </text>
<text text-anchor="start" x="261.5764" y="-113.9" font-family="Arial" font-size="14.00" fill="#666666">[smallint(3)]</text>
<polygon fill="none" stroke="#000000" points="43,-72.5 43,-102.5 355,-102.5 355,-72.5 43,-72.5"/>
<text text-anchor="start" x="50" y="-83.9" font-family="Arial" font-size="14.00" fill="#000000">is_lottery_setting_enabled    </text>
<text text-anchor="start" x="246.8106" y="-83.9" font-family="Arial" font-size="14.00" fill="#666666">[tinyint(1)]</text>
<polygon fill="none" stroke="#000000" points="43,-42.5 43,-72.5 355,-72.5 355,-42.5 43,-42.5"/>
<text text-anchor="start" x="50" y="-53.9" font-family="Arial" font-size="14.00" fill="#000000">lottery_period    </text>
<text text-anchor="start" x="168.9986" y="-53.9" font-family="Arial" font-size="14.00" fill="#666666">[int(5)]</text>
</g>
<!-- sk_ninjalocks&#45;&gt;sk_rooms -->
<g id="edge1" class="edge">
<title>sk_ninjalocks:room_id&#45;&gt;sk_rooms:id</title>
<path fill="none" stroke="#000000" d="M263.9176,-2407.267C63.5814,-2397.8175 159.5058,-2103.1794 274,-1927 295.4671,-1893.9672 333.5329,-1924.0328 355,-1891 377.6442,-1856.156 396.5556,-1797.5 355,-1797.5"/>
<polygon fill="#000000" stroke="#000000" points="264.0027,-2407.2689 273.896,-2411.9988 269.0013,-2407.3844 274,-2407.5 274,-2407.5 274,-2407.5 269.0013,-2407.3844 274.104,-2403.0012 264.0027,-2407.2689 264.0027,-2407.2689"/>
<text text-anchor="start" x="18.8365" y="-2417.5" font-family="Arial" font-size="10.00" fill="#000000">FOREIGN KEY (room_id) REFERENCES sk_rooms (id)</text>
</g>
<!-- sk_facilities -->
<g id="node3" class="node">
<title>sk_facilities</title>
<polygon fill="#efefef" stroke="transparent" points="459,-1122.5 459,-1157.5 737,-1157.5 737,-1122.5 459,-1122.5"/>
<polygon fill="none" stroke="#000000" points="459,-1122.5 459,-1157.5 737,-1157.5 737,-1122.5 459,-1122.5"/>
<text text-anchor="start" x="488.2161" y="-1135.3" font-family="Arial Bold" font-size="18.00" fill="#000000">sk_facilities</text>
<text text-anchor="start" x="580.2159" y="-1135.3" font-family="Arial" font-size="14.00" fill="#000000">    </text>
<text text-anchor="start" x="614.4207" y="-1135.3" font-family="Arial" font-size="14.00" fill="#666666">[BASE TABLE]</text>
<polygon fill="none" stroke="#000000" points="459,-1092.5 459,-1122.5 737,-1122.5 737,-1092.5 459,-1092.5"/>
<text text-anchor="start" x="466" y="-1103.9" font-family="Arial" font-size="14.00" fill="#000000">id    </text>
<text text-anchor="start" x="511.094" y="-1103.9" font-family="Arial" font-size="14.00" fill="#666666">[int(11) unsigned]</text>
<polygon fill="none" stroke="#000000" points="459,-1062.5 459,-1092.5 737,-1092.5 737,-1062.5 459,-1062.5"/>
<text text-anchor="start" x="466" y="-1073.9" font-family="Arial" font-size="14.00" fill="#000000">is_deleted    </text>
<text text-anchor="start" x="564.0042" y="-1073.9" font-family="Arial" font-size="14.00" fill="#666666">[tinyint(1)]</text>
<polygon fill="none" stroke="#000000" points="459,-1032.5 459,-1062.5 737,-1062.5 737,-1032.5 459,-1032.5"/>
<text text-anchor="start" x="466" y="-1043.9" font-family="Arial" font-size="14.00" fill="#000000">property_id    </text>
<text text-anchor="start" x="570.2188" y="-1043.9" font-family="Arial" font-size="14.00" fill="#666666">[int(11) unsigned]</text>
<polygon fill="none" stroke="#000000" points="459,-1002.5 459,-1032.5 737,-1032.5 737,-1002.5 459,-1002.5"/>
<text text-anchor="start" x="466" y="-1013.9" font-family="Arial" font-size="14.00" fill="#000000">lessor_id    </text>
<text text-anchor="start" x="556.209" y="-1013.9" font-family="Arial" font-size="14.00" fill="#666666">[int(11) unsigned]</text>
<polygon fill="none" stroke="#000000" points="459,-972.5 459,-1002.5 737,-1002.5 737,-972.5 459,-972.5"/>
<text text-anchor="start" x="466" y="-983.9" font-family="Arial" font-size="14.00" fill="#000000">name    </text>
<text text-anchor="start" x="535.2132" y="-983.9" font-family="Arial" font-size="14.00" fill="#666666">[varchar(200)]</text>
<polygon fill="none" stroke="#000000" points="459,-942.5 459,-972.5 737,-972.5 737,-942.5 459,-942.5"/>
<text text-anchor="start" x="466" y="-953.9" font-family="Arial" font-size="14.00" fill="#000000">is_all_rooms    </text>
<text text-anchor="start" x="578.7588" y="-953.9" font-family="Arial" font-size="14.00" fill="#666666">[tinyint(1)]</text>
<polygon fill="none" stroke="#000000" points="459,-912.5 459,-942.5 737,-942.5 737,-912.5 459,-912.5"/>
<text text-anchor="start" x="465.7651" y="-923.9" font-family="Arial" font-size="14.00" fill="#000000">facility_image_id    </text>
<text text-anchor="start" x="603.4229" y="-923.9" font-family="Arial" font-size="14.00" fill="#666666">[bigint(21) unsigned]</text>
<polygon fill="none" stroke="#000000" points="459,-882.5 459,-912.5 737,-912.5 737,-882.5 459,-882.5"/>
<text text-anchor="start" x="466" y="-893.9" font-family="Arial" font-size="14.00" fill="#000000">is_ninjalock    </text>
<text text-anchor="start" x="572.5442" y="-893.9" font-family="Arial" font-size="14.00" fill="#666666">[tinyint(1)]</text>
<polygon fill="none" stroke="#000000" points="459,-852.5 459,-882.5 737,-882.5 737,-852.5 459,-852.5"/>
<text text-anchor="start" x="466" y="-863.9" font-family="Arial" font-size="14.00" fill="#000000">is_tablet_linked    </text>
<text text-anchor="start" x="596.6732" y="-863.9" font-family="Arial" font-size="14.00" fill="#666666">[int(11)]</text>
<polygon fill="none" stroke="#000000" points="459,-822.5 459,-852.5 737,-852.5 737,-822.5 459,-822.5"/>
<text text-anchor="start" x="466" y="-833.9" font-family="Arial" font-size="14.00" fill="#000000">batch_mail    </text>
<text text-anchor="start" x="567.8822" y="-833.9" font-family="Arial" font-size="14.00" fill="#666666">[int(11)]</text>
<polygon fill="none" stroke="#000000" points="459,-792.5 459,-822.5 737,-822.5 737,-792.5 459,-792.5"/>
<text text-anchor="start" x="466" y="-803.9" font-family="Arial" font-size="14.00" fill="#000000">batch_mail_owner    </text>
<text text-anchor="start" x="613.7798" y="-803.9" font-family="Arial" font-size="14.00" fill="#666666">[int(11)]</text>
<polygon fill="none" stroke="#000000" points="459,-762.5 459,-792.5 737,-792.5 737,-762.5 459,-762.5"/>
<text text-anchor="start" x="466" y="-773.9" font-family="Arial" font-size="14.00" fill="#000000">is_ninjaentrance    </text>
<text text-anchor="start" x="602.1192" y="-773.9" font-family="Arial" font-size="14.00" fill="#666666">[int(11)]</text>
<polygon fill="none" stroke="#000000" points="459,-732.5 459,-762.5 737,-762.5 737,-732.5 459,-732.5"/>
<text text-anchor="start" x="466" y="-743.9" font-family="Arial" font-size="14.00" fill="#000000">ninjaentrance_serial    </text>
<text text-anchor="start" x="625.4516" y="-743.9" font-family="Arial" font-size="14.00" fill="#666666">[varchar(30)]</text>
</g>
<!-- sk_ninjalocks&#45;&gt;sk_facilities -->
<g id="edge2" class="edge">
<title>sk_ninjalocks:facility_id&#45;&gt;sk_facilities:id</title>
<path fill="none" stroke="#000000" d="M532.1985,-2377.2695C715.5442,-2368.7102 530.5106,-2123.5185 522,-1927 518.0487,-1835.7613 367.6758,-1107.5 459,-1107.5"/>
<polygon fill="#000000" stroke="#000000" points="531.9974,-2377.2739 521.8983,-2373.0011 526.9987,-2377.387 522,-2377.5 522,-2377.5 522,-2377.5 526.9987,-2377.387 522.1017,-2381.9989 531.9974,-2377.2739 531.9974,-2377.2739"/>
<text text-anchor="start" x="529.4495" y="-2387.5" font-family="Arial" font-size="10.00" fill="#000000">FOREIGN KEY (facility_id) REFERENCES sk_facilities (id)</text>
</g>
</g>
</svg>
