<?xml version="1.0" encoding="UTF-8" standalone="no"?>
<!DOCTYPE svg PUBLIC "-//W3C//DTD SVG 1.1//EN"
 "http://www.w3.org/Graphics/SVG/1.1/DTD/svg11.dtd">
<!-- Generated by graphviz version 2.40.1 (20161225.0304)
 -->
<!-- Title: sk_ninjalock_histories Pages: 1 -->
<svg width="1213pt" height="2542pt"
 viewBox="0.00 0.00 1212.50 2542.00" xmlns="http://www.w3.org/2000/svg" xmlns:xlink="http://www.w3.org/1999/xlink">
<g id="graph0" class="graph" transform="scale(1 1) rotate(0) translate(4 2538)">
<title>sk_ninjalock_histories</title>
<polygon fill="#ffffff" stroke="transparent" points="-4,4 -4,-2538 1208.5,-2538 1208.5,4 -4,4"/>
<!-- sk_ninjalock_histories -->
<g id="node1" class="node">
<title>sk_ninjalock_histories</title>
<polygon fill="#efefef" stroke="transparent" points="419,-2452.5 419,-2487.5 735,-2487.5 735,-2452.5 419,-2452.5"/>
<polygon fill="none" stroke="#000000" points="419,-2452.5 419,-2487.5 735,-2487.5 735,-2452.5 419,-2452.5"/>
<text text-anchor="start" x="425.7054" y="-2465.3" font-family="Arial Bold" font-size="18.00" fill="#000000">sk_ninjalock_histories</text>
<text text-anchor="start" x="600.7266" y="-2465.3" font-family="Arial" font-size="14.00" fill="#000000">    </text>
<text text-anchor="start" x="634.9314" y="-2465.3" font-family="Arial" font-size="14.00" fill="#666666">[BASE TABLE]</text>
<polygon fill="none" stroke="#000000" points="419,-2422.5 419,-2452.5 735,-2452.5 735,-2422.5 419,-2422.5"/>
<text text-anchor="start" x="426" y="-2433.9" font-family="Arial" font-size="14.00" fill="#000000">id </text>
<text text-anchor="start" x="440.7798" y="-2433.9" font-family="Arial" font-size="14.00" fill="#666666">[varchar(50)]</text>
<polygon fill="none" stroke="#000000" points="419,-2392.5 419,-2422.5 735,-2422.5 735,-2392.5 419,-2392.5"/>
<text text-anchor="start" x="426" y="-2403.9" font-family="Arial" font-size="14.00" fill="#000000">room_id </text>
<text text-anchor="start" x="480.4488" y="-2403.9" font-family="Arial" font-size="14.00" fill="#666666">[int(11) unsigned]</text>
<polygon fill="none" stroke="#000000" points="419,-2362.5 419,-2392.5 735,-2392.5 735,-2362.5 419,-2362.5"/>
<text text-anchor="start" x="426" y="-2373.9" font-family="Arial" font-size="14.00" fill="#000000">facility_id </text>
<text text-anchor="start" x="487.446" y="-2373.9" font-family="Arial" font-size="14.00" fill="#666666">[int(11) unsigned]</text>
<polygon fill="none" stroke="#000000" points="419,-2332.5 419,-2362.5 735,-2362.5 735,-2332.5 419,-2332.5"/>
<text text-anchor="start" x="426" y="-2343.9" font-family="Arial" font-size="14.00" fill="#000000">connect_id </text>
<text text-anchor="start" x="497.5834" y="-2343.9" font-family="Arial" font-size="14.00" fill="#666666">[bigint(13) unsigned]</text>
<polygon fill="none" stroke="#000000" points="419,-2302.5 419,-2332.5 735,-2332.5 735,-2302.5 419,-2302.5"/>
<text text-anchor="start" x="426" y="-2313.9" font-family="Arial" font-size="14.00" fill="#000000">time </text>
<text text-anchor="start" x="456.331" y="-2313.9" font-family="Arial" font-size="14.00" fill="#666666">[datetime]</text>
<polygon fill="none" stroke="#000000" points="419,-2272.5 419,-2302.5 735,-2302.5 735,-2272.5 419,-2272.5"/>
<text text-anchor="start" x="426" y="-2283.9" font-family="Arial" font-size="14.00" fill="#000000">ninjalock_id </text>
<text text-anchor="start" x="503.0126" y="-2283.9" font-family="Arial" font-size="14.00" fill="#666666">[varchar(20)]</text>
<polygon fill="none" stroke="#000000" points="419,-2242.5 419,-2272.5 735,-2272.5 735,-2242.5 419,-2242.5"/>
<text text-anchor="start" x="426" y="-2253.9" font-family="Arial" font-size="14.00" fill="#000000">ninjalock_status </text>
<text text-anchor="start" x="529.4698" y="-2253.9" font-family="Arial" font-size="14.00" fill="#666666">[smallint(6)]</text>
<polygon fill="none" stroke="#000000" points="419,-2212.5 419,-2242.5 735,-2242.5 735,-2212.5 419,-2212.5"/>
<text text-anchor="start" x="426" y="-2223.9" font-family="Arial" font-size="14.00" fill="#000000">user_id </text>
<text text-anchor="start" x="475.7882" y="-2223.9" font-family="Arial" font-size="14.00" fill="#666666">[int(11) unsigned]</text>
<polygon fill="none" stroke="#000000" points="419,-2182.5 419,-2212.5 735,-2212.5 735,-2182.5 419,-2182.5"/>
<text text-anchor="start" x="426" y="-2193.9" font-family="Arial" font-size="14.00" fill="#000000">reserve_id </text>
<text text-anchor="start" x="495.2314" y="-2193.9" font-family="Arial" font-size="14.00" fill="#666666">[int(11) unsigned]</text>
<polygon fill="none" stroke="#000000" points="419,-2152.5 419,-2182.5 735,-2182.5 735,-2152.5 419,-2152.5"/>
<text text-anchor="start" x="426" y="-2163.9" font-family="Arial" font-size="14.00" fill="#000000">operated_tel </text>
<text text-anchor="start" x="507.6998" y="-2163.9" font-family="Arial" font-size="14.00" fill="#666666">[varchar(13)]</text>
<polygon fill="none" stroke="#000000" stroke-width="3" points="417.5,-2151.5 417.5,-2489.5 736.5,-2489.5 736.5,-2151.5 417.5,-2151.5"/>
</g>
<!-- sk_facilities -->
<g id="node2" class="node">
<title>sk_facilities</title>
<polygon fill="#efefef" stroke="transparent" points="43,-1212.5 43,-1247.5 321,-1247.5 321,-1212.5 43,-1212.5"/>
<polygon fill="none" stroke="#000000" points="43,-1212.5 43,-1247.5 321,-1247.5 321,-1212.5 43,-1212.5"/>
<text text-anchor="start" x="72.2161" y="-1225.3" font-family="Arial Bold" font-size="18.00" fill="#000000">sk_facilities</text>
<text text-anchor="start" x="164.2159" y="-1225.3" font-family="Arial" font-size="14.00" fill="#000000">    </text>
<text text-anchor="start" x="198.4207" y="-1225.3" font-family="Arial" font-size="14.00" fill="#666666">[BASE TABLE]</text>
<polygon fill="none" stroke="#000000" points="43,-1182.5 43,-1212.5 321,-1212.5 321,-1182.5 43,-1182.5"/>
<text text-anchor="start" x="50" y="-1193.9" font-family="Arial" font-size="14.00" fill="#000000">id    </text>
<text text-anchor="start" x="95.094" y="-1193.9" font-family="Arial" font-size="14.00" fill="#666666">[int(11) unsigned]</text>
<polygon fill="none" stroke="#000000" points="43,-1152.5 43,-1182.5 321,-1182.5 321,-1152.5 43,-1152.5"/>
<text text-anchor="start" x="50" y="-1163.9" font-family="Arial" font-size="14.00" fill="#000000">is_deleted    </text>
<text text-anchor="start" x="148.0042" y="-1163.9" font-family="Arial" font-size="14.00" fill="#666666">[tinyint(1)]</text>
<polygon fill="none" stroke="#000000" points="43,-1122.5 43,-1152.5 321,-1152.5 321,-1122.5 43,-1122.5"/>
<text text-anchor="start" x="50" y="-1133.9" font-family="Arial" font-size="14.00" fill="#000000">property_id    </text>
<text text-anchor="start" x="154.2188" y="-1133.9" font-family="Arial" font-size="14.00" fill="#666666">[int(11) unsigned]</text>
<polygon fill="none" stroke="#000000" points="43,-1092.5 43,-1122.5 321,-1122.5 321,-1092.5 43,-1092.5"/>
<text text-anchor="start" x="50" y="-1103.9" font-family="Arial" font-size="14.00" fill="#000000">lessor_id    </text>
<text text-anchor="start" x="140.209" y="-1103.9" font-family="Arial" font-size="14.00" fill="#666666">[int(11) unsigned]</text>
<polygon fill="none" stroke="#000000" points="43,-1062.5 43,-1092.5 321,-1092.5 321,-1062.5 43,-1062.5"/>
<text text-anchor="start" x="50" y="-1073.9" font-family="Arial" font-size="14.00" fill="#000000">name    </text>
<text text-anchor="start" x="119.2132" y="-1073.9" font-family="Arial" font-size="14.00" fill="#666666">[varchar(200)]</text>
<polygon fill="none" stroke="#000000" points="43,-1032.5 43,-1062.5 321,-1062.5 321,-1032.5 43,-1032.5"/>
<text text-anchor="start" x="50" y="-1043.9" font-family="Arial" font-size="14.00" fill="#000000">is_all_rooms    </text>
<text text-anchor="start" x="162.7588" y="-1043.9" font-family="Arial" font-size="14.00" fill="#666666">[tinyint(1)]</text>
<polygon fill="none" stroke="#000000" points="43,-1002.5 43,-1032.5 321,-1032.5 321,-1002.5 43,-1002.5"/>
<text text-anchor="start" x="49.7651" y="-1013.9" font-family="Arial" font-size="14.00" fill="#000000">facility_image_id    </text>
<text text-anchor="start" x="187.4229" y="-1013.9" font-family="Arial" font-size="14.00" fill="#666666">[bigint(21) unsigned]</text>
<polygon fill="none" stroke="#000000" points="43,-972.5 43,-1002.5 321,-1002.5 321,-972.5 43,-972.5"/>
<text text-anchor="start" x="50" y="-983.9" font-family="Arial" font-size="14.00" fill="#000000">is_ninjalock    </text>
<text text-anchor="start" x="156.5442" y="-983.9" font-family="Arial" font-size="14.00" fill="#666666">[tinyint(1)]</text>
<polygon fill="none" stroke="#000000" points="43,-942.5 43,-972.5 321,-972.5 321,-942.5 43,-942.5"/>
<text text-anchor="start" x="50" y="-953.9" font-family="Arial" font-size="14.00" fill="#000000">is_tablet_linked    </text>
<text text-anchor="start" x="180.6732" y="-953.9" font-family="Arial" font-size="14.00" fill="#666666">[int(11)]</text>
<polygon fill="none" stroke="#000000" points="43,-912.5 43,-942.5 321,-942.5 321,-912.5 43,-912.5"/>
<text text-anchor="start" x="50" y="-923.9" font-family="Arial" font-size="14.00" fill="#000000">batch_mail    </text>
<text text-anchor="start" x="151.8822" y="-923.9" font-family="Arial" font-size="14.00" fill="#666666">[int(11)]</text>
<polygon fill="none" stroke="#000000" points="43,-882.5 43,-912.5 321,-912.5 321,-882.5 43,-882.5"/>
<text text-anchor="start" x="50" y="-893.9" font-family="Arial" font-size="14.00" fill="#000000">batch_mail_owner    </text>
<text text-anchor="start" x="197.7798" y="-893.9" font-family="Arial" font-size="14.00" fill="#666666">[int(11)]</text>
<polygon fill="none" stroke="#000000" points="43,-852.5 43,-882.5 321,-882.5 321,-852.5 43,-852.5"/>
<text text-anchor="start" x="50" y="-863.9" font-family="Arial" font-size="14.00" fill="#000000">is_ninjaentrance    </text>
<text text-anchor="start" x="186.1192" y="-863.9" font-family="Arial" font-size="14.00" fill="#666666">[int(11)]</text>
<polygon fill="none" stroke="#000000" points="43,-822.5 43,-852.5 321,-852.5 321,-822.5 43,-822.5"/>
<text text-anchor="start" x="50" y="-833.9" font-family="Arial" font-size="14.00" fill="#000000">ninjaentrance_serial    </text>
<text text-anchor="start" x="209.4516" y="-833.9" font-family="Arial" font-size="14.00" fill="#666666">[varchar(30)]</text>
</g>
<!-- sk_ninjalock_histories&#45;&gt;sk_facilities -->
<g id="edge1" class="edge">
<title>sk_ninjalock_histories:facility_id&#45;&gt;sk_facilities:id</title>
<path fill="none" stroke="#000000" d="M408.9731,-2377.1755C286.5613,-2368.9136 386.9656,-2204.522 373,-2071 367.9429,-2022.6501 369.6137,-1197.5 321,-1197.5"/>
<polygon fill="#000000" stroke="#000000" points="409.0052,-2377.1764 418.8544,-2381.9976 414.0026,-2377.3382 419,-2377.5 419,-2377.5 419,-2377.5 414.0026,-2377.3382 419.1456,-2373.0024 409.0052,-2377.1764 409.0052,-2377.1764"/>
<text text-anchor="start" x="151.4495" y="-2387.5" font-family="Arial" font-size="10.00" fill="#000000">FOREIGN KEY (facility_id) REFERENCES sk_facilities (id)</text>
</g>
<!-- sk_users -->
<g id="node3" class="node">
<title>sk_users</title>
<polygon fill="#efefef" stroke="transparent" points="426,-1467.5 426,-1502.5 727,-1502.5 727,-1467.5 426,-1467.5"/>
<polygon fill="none" stroke="#000000" points="426,-1467.5 426,-1502.5 727,-1502.5 727,-1467.5 426,-1467.5"/>
<text text-anchor="start" x="476.7106" y="-1480.3" font-family="Arial Bold" font-size="18.00" fill="#000000">sk_users</text>
<text text-anchor="start" x="548.7214" y="-1480.3" font-family="Arial" font-size="14.00" fill="#000000">    </text>
<text text-anchor="start" x="582.9262" y="-1480.3" font-family="Arial" font-size="14.00" fill="#666666">[BASE TABLE]</text>
<polygon fill="none" stroke="#000000" points="426,-1437.5 426,-1467.5 727,-1467.5 727,-1437.5 426,-1437.5"/>
<text text-anchor="start" x="433" y="-1448.9" font-family="Arial" font-size="14.00" fill="#000000">id    </text>
<text text-anchor="start" x="478.094" y="-1448.9" font-family="Arial" font-size="14.00" fill="#666666">[int(11) unsigned]</text>
<polygon fill="none" stroke="#000000" points="426,-1407.5 426,-1437.5 727,-1437.5 727,-1407.5 426,-1407.5"/>
<text text-anchor="start" x="433" y="-1418.9" font-family="Arial" font-size="14.00" fill="#000000">is_deleted    </text>
<text text-anchor="start" x="531.0042" y="-1418.9" font-family="Arial" font-size="14.00" fill="#666666">[tinyint(1)]</text>
<polygon fill="none" stroke="#000000" points="426,-1377.5 426,-1407.5 727,-1407.5 727,-1377.5 426,-1377.5"/>
<text text-anchor="start" x="433" y="-1388.9" font-family="Arial" font-size="14.00" fill="#000000">email    </text>
<text text-anchor="start" x="500.6438" y="-1388.9" font-family="Arial" font-size="14.00" fill="#666666">[varchar(255)]</text>
<polygon fill="none" stroke="#000000" points="426,-1347.5 426,-1377.5 727,-1377.5 727,-1347.5 426,-1347.5"/>
<text text-anchor="start" x="433" y="-1358.9" font-family="Arial" font-size="14.00" fill="#000000">password    </text>
<text text-anchor="start" x="527.1024" y="-1358.9" font-family="Arial" font-size="14.00" fill="#666666">[varchar(255)]</text>
<polygon fill="none" stroke="#000000" points="426,-1317.5 426,-1347.5 727,-1347.5 727,-1317.5 426,-1317.5"/>
<text text-anchor="start" x="433" y="-1328.9" font-family="Arial" font-size="14.00" fill="#000000">role    </text>
<text text-anchor="start" x="490.5372" y="-1328.9" font-family="Arial" font-size="14.00" fill="#666666">[smallint(6)]</text>
<polygon fill="none" stroke="#000000" points="426,-1287.5 426,-1317.5 727,-1317.5 727,-1287.5 426,-1287.5"/>
<text text-anchor="start" x="433" y="-1298.9" font-family="Arial" font-size="14.00" fill="#000000">last_name    </text>
<text text-anchor="start" x="531.7756" y="-1298.9" font-family="Arial" font-size="14.00" fill="#666666">[varchar(40)]</text>
<polygon fill="none" stroke="#000000" points="426,-1257.5 426,-1287.5 727,-1287.5 727,-1257.5 426,-1257.5"/>
<text text-anchor="start" x="433" y="-1268.9" font-family="Arial" font-size="14.00" fill="#000000">last_name_kana    </text>
<text text-anchor="start" x="569.906" y="-1268.9" font-family="Arial" font-size="14.00" fill="#666666">[varchar(40)]</text>
<polygon fill="none" stroke="#000000" points="426,-1227.5 426,-1257.5 727,-1257.5 727,-1227.5 426,-1227.5"/>
<text text-anchor="start" x="433" y="-1238.9" font-family="Arial" font-size="14.00" fill="#000000">first_name    </text>
<text text-anchor="start" x="532.5442" y="-1238.9" font-family="Arial" font-size="14.00" fill="#666666">[varchar(40)]</text>
<polygon fill="none" stroke="#000000" points="426,-1197.5 426,-1227.5 727,-1227.5 727,-1197.5 426,-1197.5"/>
<text text-anchor="start" x="433" y="-1208.9" font-family="Arial" font-size="14.00" fill="#000000">first_name_kana    </text>
<text text-anchor="start" x="570.6746" y="-1208.9" font-family="Arial" font-size="14.00" fill="#666666">[varchar(40)]</text>
<polygon fill="none" stroke="#000000" points="426,-1167.5 426,-1197.5 727,-1197.5 727,-1167.5 426,-1167.5"/>
<text text-anchor="start" x="433" y="-1178.9" font-family="Arial" font-size="14.00" fill="#000000">postal    </text>
<text text-anchor="start" x="504.5498" y="-1178.9" font-family="Arial" font-size="14.00" fill="#666666">[varchar(8)]</text>
<polygon fill="none" stroke="#000000" points="426,-1137.5 426,-1167.5 727,-1167.5 727,-1137.5 426,-1137.5"/>
<text text-anchor="start" x="433" y="-1148.9" font-family="Arial" font-size="14.00" fill="#000000">mynavi_employee_id    </text>
<text text-anchor="start" x="598.6718" y="-1148.9" font-family="Arial" font-size="14.00" fill="#666666">[varchar(255)]</text>
<polygon fill="none" stroke="#000000" points="426,-1107.5 426,-1137.5 727,-1137.5 727,-1107.5 426,-1107.5"/>
<text text-anchor="start" x="433" y="-1118.9" font-family="Arial" font-size="14.00" fill="#000000">prefecture    </text>
<text text-anchor="start" x="530.2202" y="-1118.9" font-family="Arial" font-size="14.00" fill="#666666">[varchar(20)]</text>
<polygon fill="none" stroke="#000000" points="426,-1077.5 426,-1107.5 727,-1107.5 727,-1077.5 426,-1077.5"/>
<text text-anchor="start" x="433" y="-1088.9" font-family="Arial" font-size="14.00" fill="#000000">address    </text>
<text text-anchor="start" x="516.9958" y="-1088.9" font-family="Arial" font-size="14.00" fill="#666666">[varchar(500)]</text>
<polygon fill="none" stroke="#000000" points="426,-1047.5 426,-1077.5 727,-1077.5 727,-1047.5 426,-1047.5"/>
<text text-anchor="start" x="433" y="-1058.9" font-family="Arial" font-size="14.00" fill="#000000">tel    </text>
<text text-anchor="start" x="481.9846" y="-1058.9" font-family="Arial" font-size="14.00" fill="#666666">[varchar(13)]</text>
<polygon fill="none" stroke="#000000" points="426,-1017.5 426,-1047.5 727,-1047.5 727,-1017.5 426,-1017.5"/>
<text text-anchor="start" x="433" y="-1028.9" font-family="Arial" font-size="14.00" fill="#000000">is_registerd    </text>
<text text-anchor="start" x="539.5428" y="-1028.9" font-family="Arial" font-size="14.00" fill="#666666">[tinyint(1) unsigned]</text>
<polygon fill="none" stroke="#000000" points="426,-987.5 426,-1017.5 727,-1017.5 727,-987.5 426,-987.5"/>
<text text-anchor="start" x="433" y="-998.9" font-family="Arial" font-size="14.00" fill="#000000">register_token    </text>
<text text-anchor="start" x="555.892" y="-998.9" font-family="Arial" font-size="14.00" fill="#666666">[varchar(64)]</text>
<polygon fill="none" stroke="#000000" points="426,-957.5 426,-987.5 727,-987.5 727,-957.5 426,-957.5"/>
<text text-anchor="start" x="433" y="-968.9" font-family="Arial" font-size="14.00" fill="#000000">register_created    </text>
<text text-anchor="start" x="568.3352" y="-968.9" font-family="Arial" font-size="14.00" fill="#666666">[datetime]</text>
<polygon fill="none" stroke="#000000" points="426,-927.5 426,-957.5 727,-957.5 727,-927.5 426,-927.5"/>
<text text-anchor="start" x="433" y="-938.9" font-family="Arial" font-size="14.00" fill="#000000">registerd_redirect_url    </text>
<text text-anchor="start" x="599.4348" y="-938.9" font-family="Arial" font-size="14.00" fill="#666666">[varchar(1000)]</text>
<polygon fill="none" stroke="#000000" points="426,-897.5 426,-927.5 727,-927.5 727,-897.5 426,-897.5"/>
<text text-anchor="start" x="432.9923" y="-908.9" font-family="Arial" font-size="14.00" fill="#000000">password_remember_token    </text>
<text text-anchor="start" x="640.6711" y="-908.9" font-family="Arial" font-size="14.00" fill="#666666">[varchar(64)]</text>
<polygon fill="none" stroke="#000000" points="426,-867.5 426,-897.5 727,-897.5 727,-867.5 426,-867.5"/>
<text text-anchor="start" x="433" y="-878.9" font-family="Arial" font-size="14.00" fill="#000000">password_remember_created    </text>
<text text-anchor="start" x="653.122" y="-878.9" font-family="Arial" font-size="14.00" fill="#666666">[datetime]</text>
<polygon fill="none" stroke="#000000" points="426,-837.5 426,-867.5 727,-867.5 727,-837.5 426,-837.5"/>
<text text-anchor="start" x="433" y="-848.9" font-family="Arial" font-size="14.00" fill="#000000">update_email    </text>
<text text-anchor="start" x="551.23" y="-848.9" font-family="Arial" font-size="14.00" fill="#666666">[varchar(255)]</text>
<polygon fill="none" stroke="#000000" points="426,-807.5 426,-837.5 727,-837.5 727,-807.5 426,-807.5"/>
<text text-anchor="start" x="433" y="-818.9" font-family="Arial" font-size="14.00" fill="#000000">update_email_token    </text>
<text text-anchor="start" x="593.251" y="-818.9" font-family="Arial" font-size="14.00" fill="#666666">[varchar(64)]</text>
<polygon fill="none" stroke="#000000" points="426,-777.5 426,-807.5 727,-807.5 727,-777.5 426,-777.5"/>
<text text-anchor="start" x="433" y="-788.9" font-family="Arial" font-size="14.00" fill="#000000">update_email_created    </text>
<text text-anchor="start" x="605.6942" y="-788.9" font-family="Arial" font-size="14.00" fill="#666666">[datetime]</text>
<polygon fill="none" stroke="#000000" points="426,-747.5 426,-777.5 727,-777.5 727,-747.5 426,-747.5"/>
<text text-anchor="start" x="433" y="-758.9" font-family="Arial" font-size="14.00" fill="#000000">user_image_id    </text>
<text text-anchor="start" x="559" y="-758.9" font-family="Arial" font-size="14.00" fill="#666666">[bigint(21) unsigned]</text>
<polygon fill="none" stroke="#000000" points="426,-717.5 426,-747.5 727,-747.5 727,-717.5 426,-717.5"/>
<text text-anchor="start" x="433" y="-728.9" font-family="Arial" font-size="14.00" fill="#000000">birthday    </text>
<text text-anchor="start" x="516.993" y="-728.9" font-family="Arial" font-size="14.00" fill="#666666">[date]</text>
<polygon fill="none" stroke="#000000" points="426,-687.5 426,-717.5 727,-717.5 727,-687.5 426,-687.5"/>
<text text-anchor="start" x="433" y="-698.9" font-family="Arial" font-size="14.00" fill="#000000">where_to_know    </text>
<text text-anchor="start" x="565.23" y="-698.9" font-family="Arial" font-size="14.00" fill="#666666">[smallint(6)]</text>
<polygon fill="none" stroke="#000000" points="426,-657.5 426,-687.5 727,-687.5 727,-657.5 426,-657.5"/>
<text text-anchor="start" x="433" y="-668.9" font-family="Arial" font-size="14.00" fill="#000000">apply_lessor_parent_ids    </text>
<text text-anchor="start" x="618.9102" y="-668.9" font-family="Arial" font-size="14.00" fill="#666666">[varchar(100)]</text>
<polygon fill="none" stroke="#000000" points="426,-627.5 426,-657.5 727,-657.5 727,-627.5 426,-627.5"/>
<text text-anchor="start" x="433" y="-638.9" font-family="Arial" font-size="14.00" fill="#000000">check_terms_date    </text>
<text text-anchor="start" x="581.568" y="-638.9" font-family="Arial" font-size="14.00" fill="#666666">[datetime]</text>
<polygon fill="none" stroke="#000000" points="426,-597.5 426,-627.5 727,-627.5 727,-597.5 426,-597.5"/>
<text text-anchor="start" x="433" y="-608.9" font-family="Arial" font-size="14.00" fill="#000000">created    </text>
<text text-anchor="start" x="513.8864" y="-608.9" font-family="Arial" font-size="14.00" fill="#666666">[datetime]</text>
<polygon fill="none" stroke="#000000" points="426,-567.5 426,-597.5 727,-597.5 727,-567.5 426,-567.5"/>
<text text-anchor="start" x="433" y="-578.9" font-family="Arial" font-size="14.00" fill="#000000">modified    </text>
<text text-anchor="start" x="520.0996" y="-578.9" font-family="Arial" font-size="14.00" fill="#666666">[datetime]</text>
</g>
<!-- sk_ninjalock_histories&#45;&gt;sk_users -->
<g id="edge2" class="edge">
<title>sk_ninjalock_histories:user_id&#45;&gt;sk_users:id</title>
<path fill="none" stroke="#000000" d="M408.6734,-2226.5355C261.1474,-2196.0388 908.5238,-1452.5 727,-1452.5"/>
<polygon fill="#000000" stroke="#000000" points="409.0433,-2226.57 418.5815,-2231.9805 414.0217,-2227.035 419,-2227.5 419,-2227.5 419,-2227.5 414.0217,-2227.035 419.4185,-2223.0195 409.0433,-2226.57 409.0433,-2226.57"/>
<text text-anchor="start" x="171.1655" y="-2237.5" font-family="Arial" font-size="10.00" fill="#000000">FOREIGN KEY (user_id) REFERENCES sk_users (id)</text>
</g>
<!-- sk_reserves -->
<g id="node4" class="node">
<title>sk_reserves</title>
<polygon fill="#efefef" stroke="transparent" points="831,-1992.5 831,-2027.5 1162,-2027.5 1162,-1992.5 831,-1992.5"/>
<polygon fill="none" stroke="#000000" points="831,-1992.5 831,-2027.5 1162,-2027.5 1162,-1992.5 831,-1992.5"/>
<text text-anchor="start" x="884.2114" y="-2005.3" font-family="Arial Bold" font-size="18.00" fill="#000000">sk_reserves</text>
<text text-anchor="start" x="981.2206" y="-2005.3" font-family="Arial" font-size="14.00" fill="#000000">    </text>
<text text-anchor="start" x="1015.4254" y="-2005.3" font-family="Arial" font-size="14.00" fill="#666666">[BASE TABLE]</text>
<polygon fill="none" stroke="#000000" points="831,-1962.5 831,-1992.5 1162,-1992.5 1162,-1962.5 831,-1962.5"/>
<text text-anchor="start" x="838" y="-1973.9" font-family="Arial" font-size="14.00" fill="#000000">id    </text>
<text text-anchor="start" x="883.094" y="-1973.9" font-family="Arial" font-size="14.00" fill="#666666">[int(11) unsigned]</text>
<polygon fill="none" stroke="#000000" points="831,-1932.5 831,-1962.5 1162,-1962.5 1162,-1932.5 831,-1932.5"/>
<text text-anchor="start" x="838" y="-1943.9" font-family="Arial" font-size="14.00" fill="#000000">cancel_date    </text>
<text text-anchor="start" x="947.6802" y="-1943.9" font-family="Arial" font-size="14.00" fill="#666666">[datetime]</text>
<polygon fill="none" stroke="#000000" points="831,-1902.5 831,-1932.5 1162,-1932.5 1162,-1902.5 831,-1902.5"/>
<text text-anchor="start" x="838" y="-1913.9" font-family="Arial" font-size="14.00" fill="#000000">is_tentative    </text>
<text text-anchor="start" x="943.0028" y="-1913.9" font-family="Arial" font-size="14.00" fill="#666666">[tinyint(1)]</text>
<polygon fill="none" stroke="#000000" points="831,-1872.5 831,-1902.5 1162,-1902.5 1162,-1872.5 831,-1872.5"/>
<text text-anchor="start" x="838" y="-1883.9" font-family="Arial" font-size="14.00" fill="#000000">payment_complete    </text>
<text text-anchor="start" x="990.4572" y="-1883.9" font-family="Arial" font-size="14.00" fill="#666666">[smallint(6)]</text>
<polygon fill="none" stroke="#000000" points="831,-1842.5 831,-1872.5 1162,-1872.5 1162,-1842.5 831,-1842.5"/>
<text text-anchor="start" x="838" y="-1853.9" font-family="Arial" font-size="14.00" fill="#000000">user_id    </text>
<text text-anchor="start" x="918.1024" y="-1853.9" font-family="Arial" font-size="14.00" fill="#666666">[int(11) unsigned]</text>
<polygon fill="none" stroke="#000000" points="831,-1812.5 831,-1842.5 1162,-1842.5 1162,-1812.5 831,-1812.5"/>
<text text-anchor="start" x="838" y="-1823.9" font-family="Arial" font-size="14.00" fill="#000000">room_id    </text>
<text text-anchor="start" x="922.763" y="-1823.9" font-family="Arial" font-size="14.00" fill="#666666">[int(11) unsigned]</text>
<polygon fill="none" stroke="#000000" points="831,-1782.5 831,-1812.5 1162,-1812.5 1162,-1782.5 831,-1782.5"/>
<text text-anchor="start" x="838" y="-1793.9" font-family="Arial" font-size="14.00" fill="#000000">first_time    </text>
<text text-anchor="start" x="928.9762" y="-1793.9" font-family="Arial" font-size="14.00" fill="#666666">[datetime]</text>
<polygon fill="none" stroke="#000000" points="831,-1752.5 831,-1782.5 1162,-1782.5 1162,-1752.5 831,-1752.5"/>
<text text-anchor="start" x="838" y="-1763.9" font-family="Arial" font-size="14.00" fill="#000000">last_time    </text>
<text text-anchor="start" x="928.2076" y="-1763.9" font-family="Arial" font-size="14.00" fill="#666666">[datetime]</text>
<polygon fill="none" stroke="#000000" points="831,-1722.5 831,-1752.5 1162,-1752.5 1162,-1722.5 831,-1722.5"/>
<text text-anchor="start" x="838" y="-1733.9" font-family="Arial" font-size="14.00" fill="#000000">transfer_method    </text>
<text text-anchor="start" x="974.1192" y="-1733.9" font-family="Arial" font-size="14.00" fill="#666666">[smallint(6)]</text>
<polygon fill="none" stroke="#000000" points="831,-1692.5 831,-1722.5 1162,-1722.5 1162,-1692.5 831,-1692.5"/>
<text text-anchor="start" x="838" y="-1703.9" font-family="Arial" font-size="14.00" fill="#000000">price_total    </text>
<text text-anchor="start" x="936.7728" y="-1703.9" font-family="Arial" font-size="14.00" fill="#666666">[int(11) unsigned]</text>
<polygon fill="none" stroke="#000000" points="831,-1662.5 831,-1692.5 1162,-1692.5 1162,-1662.5 831,-1662.5"/>
<text text-anchor="start" x="838" y="-1673.9" font-family="Arial" font-size="14.00" fill="#000000">price_total_without_tax    </text>
<text text-anchor="start" x="1015.3534" y="-1673.9" font-family="Arial" font-size="14.00" fill="#666666">[int(11) unsigned]</text>
<polygon fill="none" stroke="#000000" points="831,-1632.5 831,-1662.5 1162,-1662.5 1162,-1632.5 831,-1632.5"/>
<text text-anchor="start" x="838" y="-1643.9" font-family="Arial" font-size="14.00" fill="#000000">price_discount    </text>
<text text-anchor="start" x="962.4474" y="-1643.9" font-family="Arial" font-size="14.00" fill="#666666">[int(11) unsigned]</text>
<polygon fill="none" stroke="#000000" points="831,-1602.5 831,-1632.5 1162,-1632.5 1162,-1602.5 831,-1602.5"/>
<text text-anchor="start" x="838" y="-1613.9" font-family="Arial" font-size="14.00" fill="#000000">price_room    </text>
<text text-anchor="start" x="942.2062" y="-1613.9" font-family="Arial" font-size="14.00" fill="#666666">[int(11) unsigned]</text>
<polygon fill="none" stroke="#000000" points="831,-1572.5 831,-1602.5 1162,-1602.5 1162,-1572.5 831,-1572.5"/>
<text text-anchor="start" x="838" y="-1583.9" font-family="Arial" font-size="14.00" fill="#000000">price_room_without_tax    </text>
<text text-anchor="start" x="1020.7868" y="-1583.9" font-family="Arial" font-size="14.00" fill="#666666">[int(11) unsigned]</text>
<polygon fill="none" stroke="#000000" points="831,-1542.5 831,-1572.5 1162,-1572.5 1162,-1542.5 831,-1542.5"/>
<text text-anchor="start" x="838" y="-1553.9" font-family="Arial" font-size="14.00" fill="#000000">price_room_tax    </text>
<text text-anchor="start" x="968.662" y="-1553.9" font-family="Arial" font-size="14.00" fill="#666666">[int(11) unsigned]</text>
<polygon fill="none" stroke="#000000" points="831,-1512.5 831,-1542.5 1162,-1542.5 1162,-1512.5 831,-1512.5"/>
<text text-anchor="start" x="838" y="-1523.9" font-family="Arial" font-size="14.00" fill="#000000">price_tax    </text>
<text text-anchor="start" x="928.993" y="-1523.9" font-family="Arial" font-size="14.00" fill="#666666">[int(11) unsigned]</text>
<polygon fill="none" stroke="#000000" points="831,-1482.5 831,-1512.5 1162,-1512.5 1162,-1482.5 831,-1482.5"/>
<text text-anchor="start" x="838" y="-1493.9" font-family="Arial" font-size="14.00" fill="#000000">price_cancel    </text>
<text text-anchor="start" x="950.7742" y="-1493.9" font-family="Arial" font-size="14.00" fill="#666666">[int(11) unsigned]</text>
<polygon fill="none" stroke="#000000" points="831,-1452.5 831,-1482.5 1162,-1482.5 1162,-1452.5 831,-1452.5"/>
<text text-anchor="start" x="838" y="-1463.9" font-family="Arial" font-size="14.00" fill="#000000">discount_rate    </text>
<text text-anchor="start" x="956.2314" y="-1463.9" font-family="Arial" font-size="14.00" fill="#666666">[int(11)]</text>
<polygon fill="none" stroke="#000000" points="831,-1422.5 831,-1452.5 1162,-1452.5 1162,-1422.5 831,-1422.5"/>
<text text-anchor="start" x="838" y="-1433.9" font-family="Arial" font-size="14.00" fill="#000000">discount_name    </text>
<text text-anchor="start" x="967.1234" y="-1433.9" font-family="Arial" font-size="14.00" fill="#666666">[varchar(255)]</text>
<polygon fill="none" stroke="#000000" points="831,-1392.5 831,-1422.5 1162,-1422.5 1162,-1392.5 831,-1392.5"/>
<text text-anchor="start" x="838" y="-1403.9" font-family="Arial" font-size="14.00" fill="#000000">tax_rate    </text>
<text text-anchor="start" x="922.777" y="-1403.9" font-family="Arial" font-size="14.00" fill="#666666">[tinyint(4)]</text>
<polygon fill="none" stroke="#000000" points="831,-1362.5 831,-1392.5 1162,-1392.5 1162,-1362.5 831,-1362.5"/>
<text text-anchor="start" x="838" y="-1373.9" font-family="Arial" font-size="14.00" fill="#000000">group_id    </text>
<text text-anchor="start" x="926.6676" y="-1373.9" font-family="Arial" font-size="14.00" fill="#666666">[int(11) unsigned]</text>
<polygon fill="none" stroke="#000000" points="831,-1332.5 831,-1362.5 1162,-1362.5 1162,-1332.5 831,-1332.5"/>
<text text-anchor="start" x="838" y="-1343.9" font-family="Arial" font-size="14.00" fill="#000000">purpose    </text>
<text text-anchor="start" x="922.7784" y="-1343.9" font-family="Arial" font-size="14.00" fill="#666666">[varchar(255)]</text>
<polygon fill="none" stroke="#000000" points="831,-1302.5 831,-1332.5 1162,-1332.5 1162,-1302.5 831,-1302.5"/>
<text text-anchor="start" x="838" y="-1313.9" font-family="Arial" font-size="14.00" fill="#000000">created    </text>
<text text-anchor="start" x="918.8864" y="-1313.9" font-family="Arial" font-size="14.00" fill="#666666">[datetime]</text>
<polygon fill="none" stroke="#000000" points="831,-1272.5 831,-1302.5 1162,-1302.5 1162,-1272.5 831,-1272.5"/>
<text text-anchor="start" x="838" y="-1283.9" font-family="Arial" font-size="14.00" fill="#000000">modified    </text>
<text text-anchor="start" x="925.0996" y="-1283.9" font-family="Arial" font-size="14.00" fill="#666666">[datetime]</text>
<polygon fill="none" stroke="#000000" points="831,-1242.5 831,-1272.5 1162,-1272.5 1162,-1242.5 831,-1242.5"/>
<text text-anchor="start" x="838" y="-1253.9" font-family="Arial" font-size="14.00" fill="#000000">receipt_no    </text>
<text text-anchor="start" x="937.5582" y="-1253.9" font-family="Arial" font-size="14.00" fill="#666666">[varchar(32)]</text>
<polygon fill="none" stroke="#000000" points="831,-1212.5 831,-1242.5 1162,-1242.5 1162,-1212.5 831,-1212.5"/>
<text text-anchor="start" x="838" y="-1223.9" font-family="Arial" font-size="14.00" fill="#000000">receipt_password    </text>
<text text-anchor="start" x="981.8906" y="-1223.9" font-family="Arial" font-size="14.00" fill="#666666">[varchar(32)]</text>
<polygon fill="none" stroke="#000000" points="831,-1182.5 831,-1212.5 1162,-1212.5 1162,-1182.5 831,-1182.5"/>
<text text-anchor="start" x="838" y="-1193.9" font-family="Arial" font-size="14.00" fill="#000000">creditcard_brand    </text>
<text text-anchor="start" x="977.2272" y="-1193.9" font-family="Arial" font-size="14.00" fill="#666666">[int(10) unsigned]</text>
<polygon fill="none" stroke="#000000" points="831,-1152.5 831,-1182.5 1162,-1182.5 1162,-1152.5 831,-1152.5"/>
<text text-anchor="start" x="838" y="-1163.9" font-family="Arial" font-size="14.00" fill="#000000">auto_cancel    </text>
<text text-anchor="start" x="947.6802" y="-1163.9" font-family="Arial" font-size="14.00" fill="#666666">[tinyint(1)]</text>
<polygon fill="none" stroke="#000000" points="831,-1122.5 831,-1152.5 1162,-1152.5 1162,-1122.5 831,-1122.5"/>
<text text-anchor="start" x="838" y="-1133.9" font-family="Arial" font-size="14.00" fill="#000000">send_remind_mail    </text>
<text text-anchor="start" x="986.5498" y="-1133.9" font-family="Arial" font-size="14.00" fill="#666666">[tinyint(1)]</text>
<polygon fill="none" stroke="#000000" points="831,-1092.5 831,-1122.5 1162,-1122.5 1162,-1092.5 831,-1092.5"/>
<text text-anchor="start" x="838" y="-1103.9" font-family="Arial" font-size="14.00" fill="#000000">include_tax    </text>
<text text-anchor="start" x="943.0042" y="-1103.9" font-family="Arial" font-size="14.00" fill="#666666">[tinyint(1)]</text>
<polygon fill="none" stroke="#000000" points="831,-1062.5 831,-1092.5 1162,-1092.5 1162,-1062.5 831,-1062.5"/>
<text text-anchor="start" x="838" y="-1073.9" font-family="Arial" font-size="14.00" fill="#000000">extend_reserve_id    </text>
<text text-anchor="start" x="987.3492" y="-1073.9" font-family="Arial" font-size="14.00" fill="#666666">[int(11) unsigned]</text>
<polygon fill="none" stroke="#000000" points="831,-1032.5 831,-1062.5 1162,-1062.5 1162,-1032.5 831,-1032.5"/>
<text text-anchor="start" x="838" y="-1043.9" font-family="Arial" font-size="14.00" fill="#000000">tentative_limit    </text>
<text text-anchor="start" x="957.7672" y="-1043.9" font-family="Arial" font-size="14.00" fill="#666666">[datetime]</text>
<polygon fill="none" stroke="#000000" points="831,-1002.5 831,-1032.5 1162,-1032.5 1162,-1002.5 831,-1002.5"/>
<text text-anchor="start" x="838" y="-1013.9" font-family="Arial" font-size="14.00" fill="#000000">is_bank_transfer_first_extend    </text>
<text text-anchor="start" x="1055.8092" y="-1013.9" font-family="Arial" font-size="14.00" fill="#666666">[int(11)]</text>
<polygon fill="none" stroke="#000000" points="831,-972.5 831,-1002.5 1162,-1002.5 1162,-972.5 831,-972.5"/>
<text text-anchor="start" x="838" y="-983.9" font-family="Arial" font-size="14.00" fill="#000000">memo    </text>
<text text-anchor="start" x="911.0912" y="-983.9" font-family="Arial" font-size="14.00" fill="#666666">[varchar(1000)]</text>
<polygon fill="none" stroke="#000000" points="831,-942.5 831,-972.5 1162,-972.5 1162,-942.5 831,-942.5"/>
<text text-anchor="start" x="838" y="-953.9" font-family="Arial" font-size="14.00" fill="#000000">memo_owner    </text>
<text text-anchor="start" x="956.9888" y="-953.9" font-family="Arial" font-size="14.00" fill="#666666">[varchar(1000)]</text>
<polygon fill="none" stroke="#000000" points="831,-912.5 831,-942.5 1162,-942.5 1162,-912.5 831,-912.5"/>
<text text-anchor="start" x="838" y="-923.9" font-family="Arial" font-size="14.00" fill="#000000">owner_memo    </text>
<text text-anchor="start" x="956.9888" y="-923.9" font-family="Arial" font-size="14.00" fill="#666666">[varchar(1000)]</text>
<polygon fill="none" stroke="#000000" points="831,-882.5 831,-912.5 1162,-912.5 1162,-882.5 831,-882.5"/>
<text text-anchor="start" x="838" y="-893.9" font-family="Arial" font-size="14.00" fill="#000000">cancellation_note    </text>
<text text-anchor="start" x="981.1318" y="-893.9" font-family="Arial" font-size="14.00" fill="#666666">[varchar(1000)]</text>
<polygon fill="none" stroke="#000000" points="831,-852.5 831,-882.5 1162,-882.5 1162,-852.5 831,-852.5"/>
<text text-anchor="start" x="838" y="-863.9" font-family="Arial" font-size="14.00" fill="#000000">autolock_progress    </text>
<text text-anchor="start" x="986.5666" y="-863.9" font-family="Arial" font-size="14.00" fill="#666666">[tinyint(4)]</text>
<polygon fill="none" stroke="#000000" points="831,-822.5 831,-852.5 1162,-852.5 1162,-822.5 831,-822.5"/>
<text text-anchor="start" x="838" y="-833.9" font-family="Arial" font-size="14.00" fill="#000000">is_waitlist    </text>
<text text-anchor="start" x="932.0842" y="-833.9" font-family="Arial" font-size="14.00" fill="#666666">[tinyint(1)]</text>
<polygon fill="none" stroke="#000000" points="831,-792.5 831,-822.5 1162,-822.5 1162,-792.5 831,-792.5"/>
<text text-anchor="start" x="838" y="-803.9" font-family="Arial" font-size="14.00" fill="#000000">customer_name    </text>
<text text-anchor="start" x="972.5554" y="-803.9" font-family="Arial" font-size="14.00" fill="#666666">[varchar(200)]</text>
<polygon fill="none" stroke="#000000" points="831,-762.5 831,-792.5 1162,-792.5 1162,-762.5 831,-762.5"/>
<text text-anchor="start" x="838" y="-773.9" font-family="Arial" font-size="14.00" fill="#000000">customer_tel    </text>
<text text-anchor="start" x="952.3268" y="-773.9" font-family="Arial" font-size="14.00" fill="#666666">[varchar(13)]</text>
<polygon fill="none" stroke="#000000" points="831,-732.5 831,-762.5 1162,-762.5 1162,-732.5 831,-732.5"/>
<text text-anchor="start" x="838" y="-743.9" font-family="Arial" font-size="14.00" fill="#000000">customer_mail    </text>
<text text-anchor="start" x="963.2034" y="-743.9" font-family="Arial" font-size="14.00" fill="#666666">[varchar(255)]</text>
<polygon fill="none" stroke="#000000" points="831,-702.5 831,-732.5 1162,-732.5 1162,-702.5 831,-702.5"/>
<text text-anchor="start" x="838" y="-713.9" font-family="Arial" font-size="14.00" fill="#000000">sales_charge    </text>
<text text-anchor="start" x="955.4502" y="-713.9" font-family="Arial" font-size="14.00" fill="#666666">[varchar(200)]</text>
<polygon fill="none" stroke="#000000" points="831,-672.5 831,-702.5 1162,-702.5 1162,-672.5 831,-672.5"/>
<text text-anchor="start" x="838" y="-683.9" font-family="Arial" font-size="14.00" fill="#000000">assistant    </text>
<text text-anchor="start" x="927.4404" y="-683.9" font-family="Arial" font-size="14.00" fill="#666666">[varchar(200)]</text>
<polygon fill="none" stroke="#000000" points="831,-642.5 831,-672.5 1162,-672.5 1162,-642.5 831,-642.5"/>
<text text-anchor="start" x="838" y="-653.9" font-family="Arial" font-size="14.00" fill="#000000">subscriber    </text>
<text text-anchor="start" x="936.763" y="-653.9" font-family="Arial" font-size="14.00" fill="#666666">[varchar(200)]</text>
<polygon fill="none" stroke="#000000" points="831,-612.5 831,-642.5 1162,-642.5 1162,-612.5 831,-612.5"/>
<text text-anchor="start" x="838" y="-623.9" font-family="Arial" font-size="14.00" fill="#000000">meeting_name    </text>
<text text-anchor="start" x="964.784" y="-623.9" font-family="Arial" font-size="14.00" fill="#666666">[varchar(200)]</text>
<polygon fill="none" stroke="#000000" points="831,-582.5 831,-612.5 1162,-612.5 1162,-582.5 831,-582.5"/>
<text text-anchor="start" x="838" y="-593.9" font-family="Arial" font-size="14.00" fill="#000000">industry    </text>
<text text-anchor="start" x="921.2104" y="-593.9" font-family="Arial" font-size="14.00" fill="#666666">[smallint(6)]</text>
<polygon fill="none" stroke="#000000" points="831,-552.5 831,-582.5 1162,-582.5 1162,-552.5 831,-552.5"/>
<text text-anchor="start" x="838" y="-563.9" font-family="Arial" font-size="14.00" fill="#000000">persons    </text>
<text text-anchor="start" x="921.9958" y="-563.9" font-family="Arial" font-size="14.00" fill="#666666">[smallint(6)]</text>
<polygon fill="none" stroke="#000000" points="831,-522.5 831,-552.5 1162,-552.5 1162,-522.5 831,-522.5"/>
<text text-anchor="start" x="838" y="-533.9" font-family="Arial" font-size="14.00" fill="#000000">accuracy    </text>
<text text-anchor="start" x="928.2132" y="-533.9" font-family="Arial" font-size="14.00" fill="#666666">[varchar(10)]</text>
<polygon fill="none" stroke="#000000" points="831,-492.5 831,-522.5 1162,-522.5 1162,-492.5 831,-492.5"/>
<text text-anchor="start" x="838" y="-503.9" font-family="Arial" font-size="14.00" fill="#000000">parent_reserve_id    </text>
<text text-anchor="start" x="985.0098" y="-503.9" font-family="Arial" font-size="14.00" fill="#666666">[int(11)]</text>
<polygon fill="none" stroke="#000000" points="831,-462.5 831,-492.5 1162,-492.5 1162,-462.5 831,-462.5"/>
<text text-anchor="start" x="838" y="-473.9" font-family="Arial" font-size="14.00" fill="#000000">is_thankyou_mail    </text>
<text text-anchor="start" x="980.3366" y="-473.9" font-family="Arial" font-size="14.00" fill="#666666">[tinyint(1)]</text>
<polygon fill="none" stroke="#000000" points="831,-432.5 831,-462.5 1162,-462.5 1162,-432.5 831,-432.5"/>
<text text-anchor="start" x="838" y="-443.9" font-family="Arial" font-size="14.00" fill="#000000">approve_state    </text>
<text text-anchor="start" x="960.9074" y="-443.9" font-family="Arial" font-size="14.00" fill="#666666">[char(1)]</text>
<polygon fill="none" stroke="#000000" points="831,-402.5 831,-432.5 1162,-432.5 1162,-402.5 831,-402.5"/>
<text text-anchor="start" x="838" y="-413.9" font-family="Arial" font-size="14.00" fill="#000000">layout_name    </text>
<text text-anchor="start" x="952.3408" y="-413.9" font-family="Arial" font-size="14.00" fill="#666666">[varchar(200)]</text>
<polygon fill="none" stroke="#000000" points="831,-372.5 831,-402.5 1162,-402.5 1162,-372.5 831,-372.5"/>
<text text-anchor="start" x="838" y="-383.9" font-family="Arial" font-size="14.00" fill="#000000">is_reservation_reminder_mail_sent    </text>
<text text-anchor="start" x="1090.0042" y="-383.9" font-family="Arial" font-size="14.00" fill="#666666">[tinyint(1)]</text>
<polygon fill="none" stroke="#000000" points="831,-342.5 831,-372.5 1162,-372.5 1162,-342.5 831,-342.5"/>
<text text-anchor="start" x="837.8275" y="-353.9" font-family="Arial" font-size="14.00" fill="#000000">is_remotelock_password_mail_sent    </text>
<text text-anchor="start" x="1093.7279" y="-353.9" font-family="Arial" font-size="14.00" fill="#666666">[tinyint(1)]</text>
<polygon fill="none" stroke="#000000" points="831,-312.5 831,-342.5 1162,-342.5 1162,-312.5 831,-312.5"/>
<text text-anchor="start" x="838" y="-323.9" font-family="Arial" font-size="14.00" fill="#000000">sent_remotelock_password_mail    </text>
<text text-anchor="start" x="1076.0112" y="-323.9" font-family="Arial" font-size="14.00" fill="#666666">[tinyint(1)]</text>
<polygon fill="none" stroke="#000000" points="831,-282.5 831,-312.5 1162,-312.5 1162,-282.5 831,-282.5"/>
<text text-anchor="start" x="838" y="-293.9" font-family="Arial" font-size="14.00" fill="#000000">request_price_room_to_free    </text>
<text text-anchor="start" x="1048.0252" y="-293.9" font-family="Arial" font-size="14.00" fill="#666666">[tinyint(1)]</text>
<polygon fill="none" stroke="#000000" points="831,-252.5 831,-282.5 1162,-282.5 1162,-252.5 831,-252.5"/>
<text text-anchor="start" x="838" y="-263.9" font-family="Arial" font-size="14.00" fill="#000000">is_changed_price_to_free    </text>
<text text-anchor="start" x="1033.2594" y="-263.9" font-family="Arial" font-size="14.00" fill="#666666">[tinyint(1)]</text>
<polygon fill="none" stroke="#000000" points="831,-222.5 831,-252.5 1162,-252.5 1162,-222.5 831,-222.5"/>
<text text-anchor="start" x="838" y="-233.9" font-family="Arial" font-size="14.00" fill="#000000">usage_type    </text>
<text text-anchor="start" x="944.5736" y="-233.9" font-family="Arial" font-size="14.00" fill="#666666">[tinyint(2)]</text>
<polygon fill="none" stroke="#000000" points="831,-192.5 831,-222.5 1162,-222.5 1162,-192.5 831,-192.5"/>
<text text-anchor="start" x="838" y="-203.9" font-family="Arial" font-size="14.00" fill="#000000">customer_address    </text>
<text text-anchor="start" x="987.338" y="-203.9" font-family="Arial" font-size="14.00" fill="#666666">[text]</text>
<polygon fill="none" stroke="#000000" points="831,-162.5 831,-192.5 1162,-192.5 1162,-162.5 831,-162.5"/>
<text text-anchor="start" x="838" y="-173.9" font-family="Arial" font-size="14.00" fill="#000000">customer_department_name    </text>
<text text-anchor="start" x="1051.136" y="-173.9" font-family="Arial" font-size="14.00" fill="#666666">[varchar(255)]</text>
<polygon fill="none" stroke="#000000" points="831,-132.5 831,-162.5 1162,-162.5 1162,-132.5 831,-132.5"/>
<text text-anchor="start" x="838" y="-143.9" font-family="Arial" font-size="14.00" fill="#000000">mynavi_persons    </text>
<text text-anchor="start" x="974.1108" y="-143.9" font-family="Arial" font-size="14.00" fill="#666666">[varchar(255)]</text>
<polygon fill="none" stroke="#000000" points="831,-102.5 831,-132.5 1162,-132.5 1162,-102.5 831,-102.5"/>
<text text-anchor="start" x="838" y="-113.9" font-family="Arial" font-size="14.00" fill="#000000">mynavi_job_request_number    </text>
<text text-anchor="start" x="1052.69" y="-113.9" font-family="Arial" font-size="14.00" fill="#666666">[varchar(8)]</text>
<polygon fill="none" stroke="#000000" points="831,-72.5 831,-102.5 1162,-102.5 1162,-72.5 831,-72.5"/>
<text text-anchor="start" x="838" y="-83.9" font-family="Arial" font-size="14.00" fill="#000000">delivery    </text>
<text text-anchor="start" x="920.4264" y="-83.9" font-family="Arial" font-size="14.00" fill="#666666">[tinyint(2)]</text>
<polygon fill="none" stroke="#000000" points="831,-42.5 831,-72.5 1162,-72.5 1162,-42.5 831,-42.5"/>
<text text-anchor="start" x="838" y="-53.9" font-family="Arial" font-size="14.00" fill="#000000">custom_reserve_items_detail    </text>
<text text-anchor="start" x="1054.23" y="-53.9" font-family="Arial" font-size="14.00" fill="#666666">[text]</text>
</g>
<!-- sk_ninjalock_histories&#45;&gt;sk_reserves -->
<g id="edge3" class="edge">
<title>sk_ninjalock_histories:reserve_id&#45;&gt;sk_reserves:id</title>
<path fill="none" stroke="#000000" d="M745.1717,-2196.7465C833.9204,-2182.718 727.9649,-1977.5 831,-1977.5"/>
<polygon fill="#000000" stroke="#000000" points="744.9727,-2196.7612 734.6675,-2193.0123 739.9863,-2197.1306 735,-2197.5 735,-2197.5 735,-2197.5 739.9863,-2197.1306 735.3325,-2201.9877 744.9727,-2196.7612 744.9727,-2196.7612"/>
<text text-anchor="start" x="742.2775" y="-2207.5" font-family="Arial" font-size="10.00" fill="#000000">FOREIGN KEY (reserve_id) REFERENCES sk_reserves (id)</text>
</g>
</g>
</svg>
