<?xml version="1.0" encoding="UTF-8" standalone="no"?>
<!DOCTYPE svg PUBLIC "-//W3C//DTD SVG 1.1//EN"
 "http://www.w3.org/Graphics/SVG/1.1/DTD/svg11.dtd">
<!-- Generated by graphviz version 2.40.1 (20161225.0304)
 -->
<!-- Title: sk_prefs Pages: 1 -->
<svg width="746pt" height="1852pt"
 viewBox="0.00 0.00 745.50 1852.00" xmlns="http://www.w3.org/2000/svg" xmlns:xlink="http://www.w3.org/1999/xlink">
<g id="graph0" class="graph" transform="scale(1 1) rotate(0) translate(4 1848)">
<title>sk_prefs</title>
<polygon fill="#ffffff" stroke="transparent" points="-4,4 -4,-1848 741.5,-1848 741.5,4 -4,4"/>
<!-- sk_prefs -->
<g id="node1" class="node">
<title>sk_prefs</title>
<polygon fill="#efefef" stroke="transparent" points="241,-195.5 241,-230.5 450,-230.5 450,-195.5 241,-195.5"/>
<polygon fill="none" stroke="#000000" points="241,-195.5 241,-230.5 450,-230.5 450,-195.5 241,-195.5"/>
<text text-anchor="start" x="247.7095" y="-208.3" font-family="Arial Bold" font-size="18.00" fill="#000000">sk_prefs</text>
<text text-anchor="start" x="315.7225" y="-208.3" font-family="Arial" font-size="14.00" fill="#000000">    </text>
<text text-anchor="start" x="349.9273" y="-208.3" font-family="Arial" font-size="14.00" fill="#666666">[BASE TABLE]</text>
<polygon fill="none" stroke="#000000" points="241,-165.5 241,-195.5 450,-195.5 450,-165.5 241,-165.5"/>
<text text-anchor="start" x="248" y="-176.9" font-family="Arial" font-size="14.00" fill="#000000">id </text>
<text text-anchor="start" x="262.7798" y="-176.9" font-family="Arial" font-size="14.00" fill="#666666">[int(11)]</text>
<polygon fill="none" stroke="#000000" points="241,-135.5 241,-165.5 450,-165.5 450,-135.5 241,-135.5"/>
<text text-anchor="start" x="248" y="-146.9" font-family="Arial" font-size="14.00" fill="#000000">lat </text>
<text text-anchor="start" x="266.6704" y="-146.9" font-family="Arial" font-size="14.00" fill="#666666">[decimal(24,20)]</text>
<polygon fill="none" stroke="#000000" points="241,-105.5 241,-135.5 450,-135.5 450,-105.5 241,-105.5"/>
<text text-anchor="start" x="248" y="-116.9" font-family="Arial" font-size="14.00" fill="#000000">lng </text>
<text text-anchor="start" x="270.5624" y="-116.9" font-family="Arial" font-size="14.00" fill="#666666">[decimal(24,20)]</text>
<polygon fill="none" stroke="#000000" points="241,-75.5 241,-105.5 450,-105.5 450,-75.5 241,-75.5"/>
<text text-anchor="start" x="248" y="-86.9" font-family="Arial" font-size="14.00" fill="#000000">name </text>
<text text-anchor="start" x="286.899" y="-86.9" font-family="Arial" font-size="14.00" fill="#666666">[varchar(255)]</text>
<polygon fill="none" stroke="#000000" points="241,-45.5 241,-75.5 450,-75.5 450,-45.5 241,-45.5"/>
<text text-anchor="start" x="248" y="-56.9" font-family="Arial" font-size="14.00" fill="#000000">name_furigana </text>
<text text-anchor="start" x="345.2524" y="-56.9" font-family="Arial" font-size="14.00" fill="#666666">[varchar(255)]</text>
<polygon fill="none" stroke="#000000" stroke-width="3" points="239,-44.5 239,-232.5 451,-232.5 451,-44.5 239,-44.5"/>
</g>
<!-- sk_cities -->
<g id="node2" class="node">
<title>sk_cities</title>
<polygon fill="#efefef" stroke="transparent" points="43,-1165.5 43,-1200.5 271,-1200.5 271,-1165.5 43,-1165.5"/>
<polygon fill="none" stroke="#000000" points="43,-1165.5 43,-1200.5 271,-1200.5 271,-1165.5 43,-1165.5"/>
<text text-anchor="start" x="58.7145" y="-1178.3" font-family="Arial Bold" font-size="18.00" fill="#000000">sk_cities</text>
<text text-anchor="start" x="127.7175" y="-1178.3" font-family="Arial" font-size="14.00" fill="#000000">    </text>
<text text-anchor="start" x="161.9223" y="-1178.3" font-family="Arial" font-size="14.00" fill="#666666">[BASE TABLE]</text>
<polygon fill="none" stroke="#000000" points="43,-1135.5 43,-1165.5 271,-1165.5 271,-1135.5 43,-1135.5"/>
<text text-anchor="start" x="50" y="-1146.9" font-family="Arial" font-size="14.00" fill="#000000">id    </text>
<text text-anchor="start" x="95.094" y="-1146.9" font-family="Arial" font-size="14.00" fill="#666666">[int(11)]</text>
<polygon fill="none" stroke="#000000" points="43,-1105.5 43,-1135.5 271,-1135.5 271,-1105.5 43,-1105.5"/>
<text text-anchor="start" x="50" y="-1116.9" font-family="Arial" font-size="14.00" fill="#000000">lat    </text>
<text text-anchor="start" x="98.9846" y="-1116.9" font-family="Arial" font-size="14.00" fill="#666666">[decimal(24,20)]</text>
<polygon fill="none" stroke="#000000" points="43,-1075.5 43,-1105.5 271,-1105.5 271,-1075.5 43,-1075.5"/>
<text text-anchor="start" x="50" y="-1086.9" font-family="Arial" font-size="14.00" fill="#000000">lng    </text>
<text text-anchor="start" x="102.8766" y="-1086.9" font-family="Arial" font-size="14.00" fill="#666666">[decimal(24,20)]</text>
<polygon fill="none" stroke="#000000" points="43,-1045.5 43,-1075.5 271,-1075.5 271,-1045.5 43,-1045.5"/>
<text text-anchor="start" x="50" y="-1056.9" font-family="Arial" font-size="14.00" fill="#000000">name    </text>
<text text-anchor="start" x="119.2132" y="-1056.9" font-family="Arial" font-size="14.00" fill="#666666">[varchar(255)]</text>
<polygon fill="none" stroke="#000000" points="43,-1015.5 43,-1045.5 271,-1045.5 271,-1015.5 43,-1015.5"/>
<text text-anchor="start" x="49.6571" y="-1026.9" font-family="Arial" font-size="14.00" fill="#000000">name_furigana    </text>
<text text-anchor="start" x="177.2237" y="-1026.9" font-family="Arial" font-size="14.00" fill="#666666">[varchar(255)]</text>
<polygon fill="none" stroke="#000000" points="43,-985.5 43,-1015.5 271,-1015.5 271,-985.5 43,-985.5"/>
<text text-anchor="start" x="50" y="-996.9" font-family="Arial" font-size="14.00" fill="#000000">name_initial    </text>
<text text-anchor="start" x="158.878" y="-996.9" font-family="Arial" font-size="14.00" fill="#666666">[varchar(1)]</text>
<polygon fill="none" stroke="#000000" points="43,-955.5 43,-985.5 271,-985.5 271,-955.5 43,-955.5"/>
<text text-anchor="start" x="50" y="-966.9" font-family="Arial" font-size="14.00" fill="#000000">pref_id    </text>
<text text-anchor="start" x="126.993" y="-966.9" font-family="Arial" font-size="14.00" fill="#666666">[int(11)]</text>
</g>
<!-- sk_cities&#45;&gt;sk_prefs -->
<g id="edge1" class="edge">
<title>sk_cities:pref_id&#45;&gt;sk_prefs:id</title>
<path fill="none" stroke="#000000" d="M281.1153,-969.5169C431.2745,-938.4299 68.9208,-180.5 241,-180.5"/>
<polygon fill="#000000" stroke="#000000" points="280.9531,-969.5326 270.5646,-966.0211 275.9766,-970.0163 271,-970.5 271,-970.5 271,-970.5 275.9766,-970.0163 271.4354,-974.9789 280.9531,-969.5326 280.9531,-969.5326"/>
<text text-anchor="start" x="278.3865" y="-980.5" font-family="Arial" font-size="10.00" fill="#000000">FOREIGN KEY (pref_id) REFERENCES sk_prefs (id)</text>
</g>
<!-- sk_properties -->
<g id="node3" class="node">
<title>sk_properties</title>
<polygon fill="#efefef" stroke="transparent" points="376,-1765.5 376,-1800.5 695,-1800.5 695,-1765.5 376,-1765.5"/>
<polygon fill="none" stroke="#000000" points="376,-1765.5 376,-1800.5 695,-1800.5 695,-1765.5 376,-1765.5"/>
<text text-anchor="start" x="417.707" y="-1778.3" font-family="Arial Bold" font-size="18.00" fill="#000000">sk_properties</text>
<text text-anchor="start" x="525.725" y="-1778.3" font-family="Arial" font-size="14.00" fill="#000000">    </text>
<text text-anchor="start" x="559.9298" y="-1778.3" font-family="Arial" font-size="14.00" fill="#666666">[BASE TABLE]</text>
<polygon fill="none" stroke="#000000" points="376,-1735.5 376,-1765.5 695,-1765.5 695,-1735.5 376,-1735.5"/>
<text text-anchor="start" x="383" y="-1746.9" font-family="Arial" font-size="14.00" fill="#000000">id    </text>
<text text-anchor="start" x="428.094" y="-1746.9" font-family="Arial" font-size="14.00" fill="#666666">[int(11) unsigned]</text>
<polygon fill="none" stroke="#000000" points="376,-1705.5 376,-1735.5 695,-1735.5 695,-1705.5 376,-1705.5"/>
<text text-anchor="start" x="383" y="-1716.9" font-family="Arial" font-size="14.00" fill="#000000">is_deleted    </text>
<text text-anchor="start" x="481.0042" y="-1716.9" font-family="Arial" font-size="14.00" fill="#666666">[tinyint(1)]</text>
<polygon fill="none" stroke="#000000" points="376,-1675.5 376,-1705.5 695,-1705.5 695,-1675.5 376,-1675.5"/>
<text text-anchor="start" x="383" y="-1686.9" font-family="Arial" font-size="14.00" fill="#000000">hide    </text>
<text text-anchor="start" x="443.6592" y="-1686.9" font-family="Arial" font-size="14.00" fill="#666666">[smallint(6) unsigned]</text>
<polygon fill="none" stroke="#000000" points="376,-1645.5 376,-1675.5 695,-1675.5 695,-1645.5 376,-1645.5"/>
<text text-anchor="start" x="383" y="-1656.9" font-family="Arial" font-size="14.00" fill="#000000">is_listable    </text>
<text text-anchor="start" x="478.6522" y="-1656.9" font-family="Arial" font-size="14.00" fill="#666666">[tinyint(1)]</text>
<polygon fill="none" stroke="#000000" points="376,-1615.5 376,-1645.5 695,-1645.5 695,-1615.5 376,-1615.5"/>
<text text-anchor="start" x="383" y="-1626.9" font-family="Arial" font-size="14.00" fill="#000000">lessor_id    </text>
<text text-anchor="start" x="473.209" y="-1626.9" font-family="Arial" font-size="14.00" fill="#666666">[int(11) unsigned]</text>
<polygon fill="none" stroke="#000000" points="376,-1585.5 376,-1615.5 695,-1615.5 695,-1585.5 376,-1585.5"/>
<text text-anchor="start" x="383" y="-1596.9" font-family="Arial" font-size="14.00" fill="#000000">name    </text>
<text text-anchor="start" x="452.2132" y="-1596.9" font-family="Arial" font-size="14.00" fill="#666666">[varchar(200)]</text>
<polygon fill="none" stroke="#000000" points="376,-1555.5 376,-1585.5 695,-1585.5 695,-1555.5 376,-1555.5"/>
<text text-anchor="start" x="383" y="-1566.9" font-family="Arial" font-size="14.00" fill="#000000">voice_name    </text>
<text text-anchor="start" x="492.6676" y="-1566.9" font-family="Arial" font-size="14.00" fill="#666666">[varchar(200)]</text>
<polygon fill="none" stroke="#000000" points="376,-1525.5 376,-1555.5 695,-1555.5 695,-1525.5 376,-1525.5"/>
<text text-anchor="start" x="383" y="-1536.9" font-family="Arial" font-size="14.00" fill="#000000">description_url    </text>
<text text-anchor="start" x="508.2146" y="-1536.9" font-family="Arial" font-size="14.00" fill="#666666">[varchar(1000)]</text>
<polygon fill="none" stroke="#000000" points="376,-1495.5 376,-1525.5 695,-1525.5 695,-1495.5 376,-1495.5"/>
<text text-anchor="start" x="383" y="-1506.9" font-family="Arial" font-size="14.00" fill="#000000">brochure    </text>
<text text-anchor="start" x="472.439" y="-1506.9" font-family="Arial" font-size="14.00" fill="#666666">[varchar(1000)]</text>
<polygon fill="none" stroke="#000000" points="376,-1465.5 376,-1495.5 695,-1495.5 695,-1465.5 376,-1465.5"/>
<text text-anchor="start" x="383" y="-1476.9" font-family="Arial" font-size="14.00" fill="#000000">postal    </text>
<text text-anchor="start" x="454.5498" y="-1476.9" font-family="Arial" font-size="14.00" fill="#666666">[varchar(8)]</text>
<polygon fill="none" stroke="#000000" points="376,-1435.5 376,-1465.5 695,-1465.5 695,-1435.5 376,-1435.5"/>
<text text-anchor="start" x="383" y="-1446.9" font-family="Arial" font-size="14.00" fill="#000000">prefecture    </text>
<text text-anchor="start" x="480.2202" y="-1446.9" font-family="Arial" font-size="14.00" fill="#666666">[varchar(20)]</text>
<polygon fill="none" stroke="#000000" points="376,-1405.5 376,-1435.5 695,-1435.5 695,-1405.5 376,-1405.5"/>
<text text-anchor="start" x="383" y="-1416.9" font-family="Arial" font-size="14.00" fill="#000000">address    </text>
<text text-anchor="start" x="466.9958" y="-1416.9" font-family="Arial" font-size="14.00" fill="#666666">[varchar(400)]</text>
<polygon fill="none" stroke="#000000" points="376,-1375.5 376,-1405.5 695,-1405.5 695,-1375.5 376,-1375.5"/>
<text text-anchor="start" x="383" y="-1386.9" font-family="Arial" font-size="14.00" fill="#000000">caution    </text>
<text text-anchor="start" x="462.3324" y="-1386.9" font-family="Arial" font-size="14.00" fill="#666666">[text]</text>
<polygon fill="none" stroke="#000000" points="376,-1345.5 376,-1375.5 695,-1375.5 695,-1345.5 376,-1345.5"/>
<text text-anchor="start" x="383" y="-1356.9" font-family="Arial" font-size="14.00" fill="#000000">is_send_reserved_email    </text>
<text text-anchor="start" x="568.8976" y="-1356.9" font-family="Arial" font-size="14.00" fill="#666666">[tinyint(1)]</text>
<polygon fill="none" stroke="#000000" points="376,-1315.5 376,-1345.5 695,-1345.5 695,-1315.5 376,-1315.5"/>
<text text-anchor="start" x="383" y="-1326.9" font-family="Arial" font-size="14.00" fill="#000000">hide_password    </text>
<text text-anchor="start" x="511.3394" y="-1326.9" font-family="Arial" font-size="14.00" fill="#666666">[varchar(50)]</text>
<polygon fill="none" stroke="#000000" points="376,-1285.5 376,-1315.5 695,-1315.5 695,-1285.5 376,-1285.5"/>
<text text-anchor="start" x="383" y="-1296.9" font-family="Arial" font-size="14.00" fill="#000000">terms    </text>
<text text-anchor="start" x="452.1992" y="-1296.9" font-family="Arial" font-size="14.00" fill="#666666">[text]</text>
<polygon fill="none" stroke="#000000" points="376,-1255.5 376,-1285.5 695,-1285.5 695,-1255.5 376,-1255.5"/>
<text text-anchor="start" x="383" y="-1266.9" font-family="Arial" font-size="14.00" fill="#000000">access    </text>
<text text-anchor="start" x="460.77" y="-1266.9" font-family="Arial" font-size="14.00" fill="#666666">[text]</text>
<polygon fill="none" stroke="#000000" points="376,-1225.5 376,-1255.5 695,-1255.5 695,-1225.5 376,-1225.5"/>
<text text-anchor="start" x="383" y="-1236.9" font-family="Arial" font-size="14.00" fill="#000000">specified_cm_tran    </text>
<text text-anchor="start" x="530.7812" y="-1236.9" font-family="Arial" font-size="14.00" fill="#666666">[text]</text>
<polygon fill="none" stroke="#000000" points="376,-1195.5 376,-1225.5 695,-1225.5 695,-1195.5 376,-1195.5"/>
<text text-anchor="start" x="383" y="-1206.9" font-family="Arial" font-size="14.00" fill="#000000">introduction    </text>
<text text-anchor="start" x="489.5554" y="-1206.9" font-family="Arial" font-size="14.00" fill="#666666">[text]</text>
<polygon fill="none" stroke="#000000" points="376,-1165.5 376,-1195.5 695,-1195.5 695,-1165.5 376,-1165.5"/>
<text text-anchor="start" x="383" y="-1176.9" font-family="Arial" font-size="14.00" fill="#000000">catchcopy    </text>
<text text-anchor="start" x="480.2258" y="-1176.9" font-family="Arial" font-size="14.00" fill="#666666">[varchar(100)]</text>
<polygon fill="none" stroke="#000000" points="376,-1135.5 376,-1165.5 695,-1165.5 695,-1135.5 376,-1135.5"/>
<text text-anchor="start" x="383" y="-1146.9" font-family="Arial" font-size="14.00" fill="#000000">discount_info    </text>
<text text-anchor="start" x="499.6774" y="-1146.9" font-family="Arial" font-size="14.00" fill="#666666">[text]</text>
<polygon fill="none" stroke="#000000" points="376,-1105.5 376,-1135.5 695,-1135.5 695,-1105.5 376,-1105.5"/>
<text text-anchor="start" x="383" y="-1116.9" font-family="Arial" font-size="14.00" fill="#000000">buffer_time    </text>
<text text-anchor="start" x="487.2174" y="-1116.9" font-family="Arial" font-size="14.00" fill="#666666">[time]</text>
<polygon fill="none" stroke="#000000" points="376,-1075.5 376,-1105.5 695,-1105.5 695,-1075.5 376,-1075.5"/>
<text text-anchor="start" x="383" y="-1086.9" font-family="Arial" font-size="14.00" fill="#000000">buffer_time_control    </text>
<text text-anchor="start" x="537.0056" y="-1086.9" font-family="Arial" font-size="14.00" fill="#666666">[smallint(3)]</text>
<polygon fill="none" stroke="#000000" points="376,-1045.5 376,-1075.5 695,-1075.5 695,-1045.5 376,-1045.5"/>
<text text-anchor="start" x="383" y="-1056.9" font-family="Arial" font-size="14.00" fill="#000000">sort_order    </text>
<text text-anchor="start" x="480.9902" y="-1056.9" font-family="Arial" font-size="14.00" fill="#666666">[int(11)]</text>
<polygon fill="none" stroke="#000000" points="376,-1015.5 376,-1045.5 695,-1045.5 695,-1015.5 376,-1015.5"/>
<text text-anchor="start" x="383" y="-1026.9" font-family="Arial" font-size="14.00" fill="#000000">is_approve    </text>
<text text-anchor="start" x="485.6676" y="-1026.9" font-family="Arial" font-size="14.00" fill="#666666">[tinyint(1)]</text>
<polygon fill="none" stroke="#000000" points="376,-985.5 376,-1015.5 695,-1015.5 695,-985.5 376,-985.5"/>
<text text-anchor="start" x="383" y="-996.9" font-family="Arial" font-size="14.00" fill="#000000">fixed_limit_date_after_approve    </text>
<text text-anchor="start" x="608.5876" y="-996.9" font-family="Arial" font-size="14.00" fill="#666666">[int(11)]</text>
<polygon fill="none" stroke="#000000" points="376,-955.5 376,-985.5 695,-985.5 695,-955.5 376,-955.5"/>
<text text-anchor="start" x="383" y="-966.9" font-family="Arial" font-size="14.00" fill="#000000">fixed_limit_date_before_first_time    </text>
<text text-anchor="start" x="626.46" y="-966.9" font-family="Arial" font-size="14.00" fill="#666666">[int(11)]</text>
<polygon fill="none" stroke="#000000" points="376,-925.5 376,-955.5 695,-955.5 695,-925.5 376,-925.5"/>
<text text-anchor="start" x="383" y="-936.9" font-family="Arial" font-size="14.00" fill="#000000">enable_reserve_lock    </text>
<text text-anchor="start" x="546.3478" y="-936.9" font-family="Arial" font-size="14.00" fill="#666666">[tinyint(1) unsigned]</text>
<polygon fill="none" stroke="#000000" points="376,-895.5 376,-925.5 695,-925.5 695,-895.5 376,-895.5"/>
<text text-anchor="start" x="383" y="-906.9" font-family="Arial" font-size="14.00" fill="#000000">reserve_lock_time    </text>
<text text-anchor="start" x="530.7686" y="-906.9" font-family="Arial" font-size="14.00" fill="#666666">[time]</text>
<polygon fill="none" stroke="#000000" points="376,-865.5 376,-895.5 695,-895.5 695,-865.5 376,-865.5"/>
<text text-anchor="start" x="383" y="-876.9" font-family="Arial" font-size="14.00" fill="#000000">reserve_lock_target    </text>
<text text-anchor="start" x="540.1178" y="-876.9" font-family="Arial" font-size="14.00" fill="#666666">[smallint(6) unsigned]</text>
<polygon fill="none" stroke="#000000" points="376,-835.5 376,-865.5 695,-865.5 695,-835.5 376,-835.5"/>
<text text-anchor="start" x="383" y="-846.9" font-family="Arial" font-size="14.00" fill="#000000">enable_reserve_unlock    </text>
<text text-anchor="start" x="561.913" y="-846.9" font-family="Arial" font-size="14.00" fill="#666666">[tinyint(1) unsigned]</text>
<polygon fill="none" stroke="#000000" points="376,-805.5 376,-835.5 695,-835.5 695,-805.5 376,-805.5"/>
<text text-anchor="start" x="383" y="-816.9" font-family="Arial" font-size="14.00" fill="#000000">reserve_unlock_time    </text>
<text text-anchor="start" x="546.3338" y="-816.9" font-family="Arial" font-size="14.00" fill="#666666">[time]</text>
<polygon fill="none" stroke="#000000" points="376,-775.5 376,-805.5 695,-805.5 695,-775.5 376,-775.5"/>
<text text-anchor="start" x="382.6515" y="-786.9" font-family="Arial" font-size="14.00" fill="#000000">reserve_unlock_target    </text>
<text text-anchor="start" x="555.3345" y="-786.9" font-family="Arial" font-size="14.00" fill="#666666">[smallint(6) unsigned]</text>
<polygon fill="none" stroke="#000000" points="376,-745.5 376,-775.5 695,-775.5 695,-745.5 376,-745.5"/>
<text text-anchor="start" x="383" y="-756.9" font-family="Arial" font-size="14.00" fill="#000000">cancel_charge_payment_limit_date    </text>
<text text-anchor="start" x="637.3716" y="-756.9" font-family="Arial" font-size="14.00" fill="#666666">[int(11)]</text>
<polygon fill="none" stroke="#000000" points="376,-715.5 376,-745.5 695,-745.5 695,-715.5 376,-715.5"/>
<text text-anchor="start" x="383" y="-726.9" font-family="Arial" font-size="14.00" fill="#000000">is_using_origin_cancel_policy    </text>
<text text-anchor="start" x="602.3506" y="-726.9" font-family="Arial" font-size="14.00" fill="#666666">[smallint(1)]</text>
<polygon fill="none" stroke="#000000" points="376,-685.5 376,-715.5 695,-715.5 695,-685.5 376,-685.5"/>
<text text-anchor="start" x="383" y="-696.9" font-family="Arial" font-size="14.00" fill="#000000">pref_id    </text>
<text text-anchor="start" x="459.993" y="-696.9" font-family="Arial" font-size="14.00" fill="#666666">[int(11)]</text>
<polygon fill="none" stroke="#000000" points="376,-655.5 376,-685.5 695,-685.5 695,-655.5 376,-655.5"/>
<text text-anchor="start" x="383" y="-666.9" font-family="Arial" font-size="14.00" fill="#000000">city_id    </text>
<text text-anchor="start" x="456.8738" y="-666.9" font-family="Arial" font-size="14.00" fill="#666666">[int(11)]</text>
<polygon fill="none" stroke="#000000" points="376,-625.5 376,-655.5 695,-655.5 695,-625.5 376,-625.5"/>
<text text-anchor="start" x="383" y="-636.9" font-family="Arial" font-size="14.00" fill="#000000">region_id    </text>
<text text-anchor="start" x="474.7742" y="-636.9" font-family="Arial" font-size="14.00" fill="#666666">[int(11)]</text>
<polygon fill="none" stroke="#000000" points="376,-595.5 376,-625.5 695,-625.5 695,-595.5 376,-595.5"/>
<text text-anchor="start" x="383" y="-606.9" font-family="Arial" font-size="14.00" fill="#000000">lat    </text>
<text text-anchor="start" x="431.9846" y="-606.9" font-family="Arial" font-size="14.00" fill="#666666">[decimal(24,20)]</text>
<polygon fill="none" stroke="#000000" points="376,-565.5 376,-595.5 695,-595.5 695,-565.5 376,-565.5"/>
<text text-anchor="start" x="383" y="-576.9" font-family="Arial" font-size="14.00" fill="#000000">lng    </text>
<text text-anchor="start" x="435.8766" y="-576.9" font-family="Arial" font-size="14.00" fill="#666666">[decimal(24,20)]</text>
<polygon fill="none" stroke="#000000" points="376,-535.5 376,-565.5 695,-565.5 695,-535.5 376,-535.5"/>
<text text-anchor="start" x="383" y="-546.9" font-family="Arial" font-size="14.00" fill="#000000">created_datetime    </text>
<text text-anchor="start" x="525.3478" y="-546.9" font-family="Arial" font-size="14.00" fill="#666666">[timestamp]</text>
<polygon fill="none" stroke="#000000" points="376,-505.5 376,-535.5 695,-535.5 695,-505.5 376,-505.5"/>
<text text-anchor="start" x="383" y="-516.9" font-family="Arial" font-size="14.00" fill="#000000">updated_datetime    </text>
<text text-anchor="start" x="529.2524" y="-516.9" font-family="Arial" font-size="14.00" fill="#666666">[timestamp]</text>
<polygon fill="none" stroke="#000000" points="376,-475.5 376,-505.5 695,-505.5 695,-475.5 376,-475.5"/>
<text text-anchor="start" x="383" y="-486.9" font-family="Arial" font-size="14.00" fill="#000000">owner_buffer_time    </text>
<text text-anchor="start" x="533.115" y="-486.9" font-family="Arial" font-size="14.00" fill="#666666">[time]</text>
<polygon fill="none" stroke="#000000" points="376,-445.5 376,-475.5 695,-475.5 695,-445.5 376,-445.5"/>
<text text-anchor="start" x="383" y="-456.9" font-family="Arial" font-size="14.00" fill="#000000">external_buffer_time    </text>
<text text-anchor="start" x="544.7882" y="-456.9" font-family="Arial" font-size="14.00" fill="#666666">[time]</text>
<polygon fill="none" stroke="#000000" points="376,-415.5 376,-445.5 695,-445.5 695,-415.5 376,-415.5"/>
<text text-anchor="start" x="383" y="-426.9" font-family="Arial" font-size="14.00" fill="#000000">owner_buffer_time_control    </text>
<text text-anchor="start" x="582.9032" y="-426.9" font-family="Arial" font-size="14.00" fill="#666666">[smallint(3)]</text>
<polygon fill="none" stroke="#000000" points="376,-385.5 376,-415.5 695,-415.5 695,-385.5 376,-385.5"/>
<text text-anchor="start" x="383" y="-396.9" font-family="Arial" font-size="14.00" fill="#000000">external_buffer_time_control    </text>
<text text-anchor="start" x="594.5764" y="-396.9" font-family="Arial" font-size="14.00" fill="#666666">[smallint(3)]</text>
<polygon fill="none" stroke="#000000" points="376,-355.5 376,-385.5 695,-385.5 695,-355.5 376,-355.5"/>
<text text-anchor="start" x="383" y="-366.9" font-family="Arial" font-size="14.00" fill="#000000">approved_mail_note    </text>
<text text-anchor="start" x="544.021" y="-366.9" font-family="Arial" font-size="14.00" fill="#666666">[text]</text>
</g>
<!-- sk_properties&#45;&gt;sk_prefs -->
<g id="edge2" class="edge">
<title>sk_properties:pref_id&#45;&gt;sk_prefs:id</title>
<path fill="none" stroke="#000000" d="M366.0346,-698.9511C293.2152,-675.1077 332.2044,-383.0091 376,-313 395.397,-281.993 430.603,-308.007 450,-277 472.746,-240.6396 492.8889,-180.5 450,-180.5"/>
<polygon fill="#000000" stroke="#000000" points="366.1186,-698.9641 375.3089,-704.9466 371.0593,-699.7321 376,-700.5 376,-700.5 376,-700.5 371.0593,-699.7321 376.6911,-696.0534 366.1186,-698.9641 366.1186,-698.9641"/>
<text text-anchor="start" x="132.3865" y="-710.5" font-family="Arial" font-size="10.00" fill="#000000">FOREIGN KEY (pref_id) REFERENCES sk_prefs (id)</text>
</g>
</g>
</svg>
