<?xml version="1.0" encoding="UTF-8" standalone="no"?>
<!DOCTYPE svg PUBLIC "-//W3C//DTD SVG 1.1//EN"
 "http://www.w3.org/Graphics/SVG/1.1/DTD/svg11.dtd">
<!-- Generated by graphviz version 2.40.1 (20161225.0304)
 -->
<!-- Title: sk_purposes Pages: 1 -->
<svg width="493pt" height="472pt"
 viewBox="0.00 0.00 492.50 472.00" xmlns="http://www.w3.org/2000/svg" xmlns:xlink="http://www.w3.org/1999/xlink">
<g id="graph0" class="graph" transform="scale(1 1) rotate(0) translate(4 468)">
<title>sk_purposes</title>
<polygon fill="#ffffff" stroke="transparent" points="-4,4 -4,-468 488.5,-468 488.5,4 -4,4"/>
<!-- sk_purposes -->
<g id="node1" class="node">
<title>sk_purposes</title>
<polygon fill="#efefef" stroke="transparent" points="73.5,-135.5 73.5,-170.5 316.5,-170.5 316.5,-135.5 73.5,-135.5"/>
<polygon fill="none" stroke="#000000" points="73.5,-135.5 73.5,-170.5 316.5,-170.5 316.5,-135.5 73.5,-135.5"/>
<text text-anchor="start" x="80.2013" y="-148.3" font-family="Arial Bold" font-size="18.00" fill="#000000">sk_purposes</text>
<text text-anchor="start" x="182.2307" y="-148.3" font-family="Arial" font-size="14.00" fill="#000000">    </text>
<text text-anchor="start" x="216.4355" y="-148.3" font-family="Arial" font-size="14.00" fill="#666666">[BASE TABLE]</text>
<polygon fill="none" stroke="#000000" points="73.5,-105.5 73.5,-135.5 316.5,-135.5 316.5,-105.5 73.5,-105.5"/>
<text text-anchor="start" x="80.5" y="-116.9" font-family="Arial" font-size="14.00" fill="#000000">id </text>
<text text-anchor="start" x="95.2798" y="-116.9" font-family="Arial" font-size="14.00" fill="#666666">[int(11) unsigned]</text>
<polygon fill="none" stroke="#000000" points="73.5,-75.5 73.5,-105.5 316.5,-105.5 316.5,-75.5 73.5,-75.5"/>
<text text-anchor="start" x="80.5" y="-86.9" font-family="Arial" font-size="14.00" fill="#000000">name </text>
<text text-anchor="start" x="119.399" y="-86.9" font-family="Arial" font-size="14.00" fill="#666666">[varchar(200)]</text>
<polygon fill="none" stroke="#000000" points="73.5,-45.5 73.5,-75.5 316.5,-75.5 316.5,-45.5 73.5,-45.5"/>
<text text-anchor="start" x="80.5" y="-56.9" font-family="Arial" font-size="14.00" fill="#000000">sort_order </text>
<text text-anchor="start" x="148.176" y="-56.9" font-family="Arial" font-size="14.00" fill="#666666">[int(11)]</text>
<polygon fill="none" stroke="#000000" stroke-width="3" points="71.5,-44.5 71.5,-172.5 317.5,-172.5 317.5,-44.5 71.5,-44.5"/>
</g>
<!-- sk_rooms_purposes -->
<g id="node2" class="node">
<title>sk_rooms_purposes</title>
<polygon fill="#efefef" stroke="transparent" points="43.5,-385.5 43.5,-420.5 346.5,-420.5 346.5,-385.5 43.5,-385.5"/>
<polygon fill="none" stroke="#000000" points="43.5,-385.5 43.5,-420.5 346.5,-420.5 346.5,-385.5 43.5,-385.5"/>
<text text-anchor="start" x="50.1998" y="-398.3" font-family="Arial Bold" font-size="18.00" fill="#000000">sk_rooms_purposes</text>
<text text-anchor="start" x="212.2322" y="-398.3" font-family="Arial" font-size="14.00" fill="#000000">    </text>
<text text-anchor="start" x="246.437" y="-398.3" font-family="Arial" font-size="14.00" fill="#666666">[BASE TABLE]</text>
<polygon fill="none" stroke="#000000" points="43.5,-355.5 43.5,-385.5 346.5,-385.5 346.5,-355.5 43.5,-355.5"/>
<text text-anchor="start" x="50.5" y="-366.9" font-family="Arial" font-size="14.00" fill="#000000">id    </text>
<text text-anchor="start" x="95.594" y="-366.9" font-family="Arial" font-size="14.00" fill="#666666">[int(11) unsigned]</text>
<polygon fill="none" stroke="#000000" points="43.5,-325.5 43.5,-355.5 346.5,-355.5 346.5,-325.5 43.5,-325.5"/>
<text text-anchor="start" x="50.5" y="-336.9" font-family="Arial" font-size="14.00" fill="#000000">room_id    </text>
<text text-anchor="start" x="135.263" y="-336.9" font-family="Arial" font-size="14.00" fill="#666666">[int(11) unsigned]</text>
<polygon fill="none" stroke="#000000" points="43.5,-295.5 43.5,-325.5 346.5,-325.5 346.5,-295.5 43.5,-295.5"/>
<text text-anchor="start" x="50.5" y="-306.9" font-family="Arial" font-size="14.00" fill="#000000">purpose_id    </text>
<text text-anchor="start" x="153.9502" y="-306.9" font-family="Arial" font-size="14.00" fill="#666666">[int(11) unsigned]</text>
</g>
<!-- sk_rooms_purposes&#45;&gt;sk_purposes -->
<g id="edge1" class="edge">
<title>sk_rooms_purposes:purpose_id&#45;&gt;sk_purposes:id</title>
<path fill="none" stroke="#000000" d="M194.592,-285.2273C185.0292,-235.6718 102.5752,-270.2823 73.5,-217 52.956,-179.3516 30.6111,-120.5 73.5,-120.5"/>
<polygon fill="#000000" stroke="#000000" points="194.6194,-285.5388 191.0175,-295.8963 195.0597,-290.5194 195.5,-295.5 195.5,-295.5 195.5,-295.5 195.0597,-290.5194 199.9825,-295.1037 194.6194,-285.5388 194.6194,-285.5388"/>
<text text-anchor="start" x="202.9885" y="-305.5" font-family="Arial" font-size="10.00" fill="#000000">FOREIGN KEY (purpose_id) REFERENCES sk_purposes (id)</text>
</g>
</g>
</svg>
