<?xml version="1.0" encoding="UTF-8" standalone="no"?>
<!DOCTYPE svg PUBLIC "-//W3C//DTD SVG 1.1//EN"
 "http://www.w3.org/Graphics/SVG/1.1/DTD/svg11.dtd">
<!-- Generated by graphviz version 2.40.1 (20161225.0304)
 -->
<!-- Title: sk_property_business_hour_weeks Pages: 1 -->
<svg width="769pt" height="1852pt"
 viewBox="0.00 0.00 768.50 1852.00" xmlns="http://www.w3.org/2000/svg" xmlns:xlink="http://www.w3.org/1999/xlink">
<g id="graph0" class="graph" transform="scale(1 1) rotate(0) translate(4 1848)">
<title>sk_property_business_hour_weeks</title>
<polygon fill="#ffffff" stroke="transparent" points="-4,4 -4,-1848 764.5,-1848 764.5,4 -4,4"/>
<!-- sk_property_business_hour_weeks -->
<g id="node1" class="node">
<title>sk_property_business_hour_weeks</title>
<polygon fill="#efefef" stroke="transparent" points="292,-1762.5 292,-1797.5 715,-1797.5 715,-1762.5 292,-1762.5"/>
<polygon fill="none" stroke="#000000" points="292,-1762.5 292,-1797.5 715,-1797.5 715,-1762.5 292,-1762.5"/>
<text text-anchor="start" x="298.6797" y="-1775.3" font-family="Arial Bold" font-size="18.00" fill="#000000">sk_property_business_hour_weeks</text>
<text text-anchor="start" x="580.7523" y="-1775.3" font-family="Arial" font-size="14.00" fill="#000000">    </text>
<text text-anchor="start" x="614.9571" y="-1775.3" font-family="Arial" font-size="14.00" fill="#666666">[BASE TABLE]</text>
<polygon fill="none" stroke="#000000" points="292,-1732.5 292,-1762.5 715,-1762.5 715,-1732.5 292,-1732.5"/>
<text text-anchor="start" x="299" y="-1743.9" font-family="Arial" font-size="14.00" fill="#000000">id </text>
<text text-anchor="start" x="313.7798" y="-1743.9" font-family="Arial" font-size="14.00" fill="#666666">[bigint(21) unsigned]</text>
<polygon fill="none" stroke="#000000" points="292,-1702.5 292,-1732.5 715,-1732.5 715,-1702.5 292,-1702.5"/>
<text text-anchor="start" x="299" y="-1713.9" font-family="Arial" font-size="14.00" fill="#000000">property_id </text>
<text text-anchor="start" x="372.9046" y="-1713.9" font-family="Arial" font-size="14.00" fill="#666666">[int(11) unsigned]</text>
<polygon fill="none" stroke="#000000" points="292,-1672.5 292,-1702.5 715,-1702.5 715,-1672.5 292,-1672.5"/>
<text text-anchor="start" x="299" y="-1683.9" font-family="Arial" font-size="14.00" fill="#000000">week_type </text>
<text text-anchor="start" x="369.8008" y="-1683.9" font-family="Arial" font-size="14.00" fill="#666666">[smallint(6)]</text>
<polygon fill="none" stroke="#000000" points="292,-1642.5 292,-1672.5 715,-1672.5 715,-1642.5 292,-1642.5"/>
<text text-anchor="start" x="299" y="-1653.9" font-family="Arial" font-size="14.00" fill="#000000">first_time </text>
<text text-anchor="start" x="359.662" y="-1653.9" font-family="Arial" font-size="14.00" fill="#666666">[time]</text>
<polygon fill="none" stroke="#000000" points="292,-1612.5 292,-1642.5 715,-1642.5 715,-1612.5 292,-1612.5"/>
<text text-anchor="start" x="299" y="-1623.9" font-family="Arial" font-size="14.00" fill="#000000">last_time </text>
<text text-anchor="start" x="358.8934" y="-1623.9" font-family="Arial" font-size="14.00" fill="#666666">[time]</text>
<polygon fill="none" stroke="#000000" stroke-width="3" points="290,-1611.5 290,-1799.5 716,-1799.5 716,-1611.5 290,-1611.5"/>
</g>
<!-- sk_properties -->
<g id="node2" class="node">
<title>sk_properties</title>
<polygon fill="#efefef" stroke="transparent" points="344,-1452.5 344,-1487.5 663,-1487.5 663,-1452.5 344,-1452.5"/>
<polygon fill="none" stroke="#000000" points="344,-1452.5 344,-1487.5 663,-1487.5 663,-1452.5 344,-1452.5"/>
<text text-anchor="start" x="385.707" y="-1465.3" font-family="Arial Bold" font-size="18.00" fill="#000000">sk_properties</text>
<text text-anchor="start" x="493.725" y="-1465.3" font-family="Arial" font-size="14.00" fill="#000000">    </text>
<text text-anchor="start" x="527.9298" y="-1465.3" font-family="Arial" font-size="14.00" fill="#666666">[BASE TABLE]</text>
<polygon fill="none" stroke="#000000" points="344,-1422.5 344,-1452.5 663,-1452.5 663,-1422.5 344,-1422.5"/>
<text text-anchor="start" x="351" y="-1433.9" font-family="Arial" font-size="14.00" fill="#000000">id    </text>
<text text-anchor="start" x="396.094" y="-1433.9" font-family="Arial" font-size="14.00" fill="#666666">[int(11) unsigned]</text>
<polygon fill="none" stroke="#000000" points="344,-1392.5 344,-1422.5 663,-1422.5 663,-1392.5 344,-1392.5"/>
<text text-anchor="start" x="351" y="-1403.9" font-family="Arial" font-size="14.00" fill="#000000">is_deleted    </text>
<text text-anchor="start" x="449.0042" y="-1403.9" font-family="Arial" font-size="14.00" fill="#666666">[tinyint(1)]</text>
<polygon fill="none" stroke="#000000" points="344,-1362.5 344,-1392.5 663,-1392.5 663,-1362.5 344,-1362.5"/>
<text text-anchor="start" x="351" y="-1373.9" font-family="Arial" font-size="14.00" fill="#000000">hide    </text>
<text text-anchor="start" x="411.6592" y="-1373.9" font-family="Arial" font-size="14.00" fill="#666666">[smallint(6) unsigned]</text>
<polygon fill="none" stroke="#000000" points="344,-1332.5 344,-1362.5 663,-1362.5 663,-1332.5 344,-1332.5"/>
<text text-anchor="start" x="351" y="-1343.9" font-family="Arial" font-size="14.00" fill="#000000">is_listable    </text>
<text text-anchor="start" x="446.6522" y="-1343.9" font-family="Arial" font-size="14.00" fill="#666666">[tinyint(1)]</text>
<polygon fill="none" stroke="#000000" points="344,-1302.5 344,-1332.5 663,-1332.5 663,-1302.5 344,-1302.5"/>
<text text-anchor="start" x="351" y="-1313.9" font-family="Arial" font-size="14.00" fill="#000000">lessor_id    </text>
<text text-anchor="start" x="441.209" y="-1313.9" font-family="Arial" font-size="14.00" fill="#666666">[int(11) unsigned]</text>
<polygon fill="none" stroke="#000000" points="344,-1272.5 344,-1302.5 663,-1302.5 663,-1272.5 344,-1272.5"/>
<text text-anchor="start" x="351" y="-1283.9" font-family="Arial" font-size="14.00" fill="#000000">name    </text>
<text text-anchor="start" x="420.2132" y="-1283.9" font-family="Arial" font-size="14.00" fill="#666666">[varchar(200)]</text>
<polygon fill="none" stroke="#000000" points="344,-1242.5 344,-1272.5 663,-1272.5 663,-1242.5 344,-1242.5"/>
<text text-anchor="start" x="351" y="-1253.9" font-family="Arial" font-size="14.00" fill="#000000">voice_name    </text>
<text text-anchor="start" x="460.6676" y="-1253.9" font-family="Arial" font-size="14.00" fill="#666666">[varchar(200)]</text>
<polygon fill="none" stroke="#000000" points="344,-1212.5 344,-1242.5 663,-1242.5 663,-1212.5 344,-1212.5"/>
<text text-anchor="start" x="351" y="-1223.9" font-family="Arial" font-size="14.00" fill="#000000">description_url    </text>
<text text-anchor="start" x="476.2146" y="-1223.9" font-family="Arial" font-size="14.00" fill="#666666">[varchar(1000)]</text>
<polygon fill="none" stroke="#000000" points="344,-1182.5 344,-1212.5 663,-1212.5 663,-1182.5 344,-1182.5"/>
<text text-anchor="start" x="351" y="-1193.9" font-family="Arial" font-size="14.00" fill="#000000">brochure    </text>
<text text-anchor="start" x="440.439" y="-1193.9" font-family="Arial" font-size="14.00" fill="#666666">[varchar(1000)]</text>
<polygon fill="none" stroke="#000000" points="344,-1152.5 344,-1182.5 663,-1182.5 663,-1152.5 344,-1152.5"/>
<text text-anchor="start" x="351" y="-1163.9" font-family="Arial" font-size="14.00" fill="#000000">postal    </text>
<text text-anchor="start" x="422.5498" y="-1163.9" font-family="Arial" font-size="14.00" fill="#666666">[varchar(8)]</text>
<polygon fill="none" stroke="#000000" points="344,-1122.5 344,-1152.5 663,-1152.5 663,-1122.5 344,-1122.5"/>
<text text-anchor="start" x="351" y="-1133.9" font-family="Arial" font-size="14.00" fill="#000000">prefecture    </text>
<text text-anchor="start" x="448.2202" y="-1133.9" font-family="Arial" font-size="14.00" fill="#666666">[varchar(20)]</text>
<polygon fill="none" stroke="#000000" points="344,-1092.5 344,-1122.5 663,-1122.5 663,-1092.5 344,-1092.5"/>
<text text-anchor="start" x="351" y="-1103.9" font-family="Arial" font-size="14.00" fill="#000000">address    </text>
<text text-anchor="start" x="434.9958" y="-1103.9" font-family="Arial" font-size="14.00" fill="#666666">[varchar(400)]</text>
<polygon fill="none" stroke="#000000" points="344,-1062.5 344,-1092.5 663,-1092.5 663,-1062.5 344,-1062.5"/>
<text text-anchor="start" x="351" y="-1073.9" font-family="Arial" font-size="14.00" fill="#000000">caution    </text>
<text text-anchor="start" x="430.3324" y="-1073.9" font-family="Arial" font-size="14.00" fill="#666666">[text]</text>
<polygon fill="none" stroke="#000000" points="344,-1032.5 344,-1062.5 663,-1062.5 663,-1032.5 344,-1032.5"/>
<text text-anchor="start" x="351" y="-1043.9" font-family="Arial" font-size="14.00" fill="#000000">is_send_reserved_email    </text>
<text text-anchor="start" x="536.8976" y="-1043.9" font-family="Arial" font-size="14.00" fill="#666666">[tinyint(1)]</text>
<polygon fill="none" stroke="#000000" points="344,-1002.5 344,-1032.5 663,-1032.5 663,-1002.5 344,-1002.5"/>
<text text-anchor="start" x="351" y="-1013.9" font-family="Arial" font-size="14.00" fill="#000000">hide_password    </text>
<text text-anchor="start" x="479.3394" y="-1013.9" font-family="Arial" font-size="14.00" fill="#666666">[varchar(50)]</text>
<polygon fill="none" stroke="#000000" points="344,-972.5 344,-1002.5 663,-1002.5 663,-972.5 344,-972.5"/>
<text text-anchor="start" x="351" y="-983.9" font-family="Arial" font-size="14.00" fill="#000000">terms    </text>
<text text-anchor="start" x="420.1992" y="-983.9" font-family="Arial" font-size="14.00" fill="#666666">[text]</text>
<polygon fill="none" stroke="#000000" points="344,-942.5 344,-972.5 663,-972.5 663,-942.5 344,-942.5"/>
<text text-anchor="start" x="351" y="-953.9" font-family="Arial" font-size="14.00" fill="#000000">access    </text>
<text text-anchor="start" x="428.77" y="-953.9" font-family="Arial" font-size="14.00" fill="#666666">[text]</text>
<polygon fill="none" stroke="#000000" points="344,-912.5 344,-942.5 663,-942.5 663,-912.5 344,-912.5"/>
<text text-anchor="start" x="351" y="-923.9" font-family="Arial" font-size="14.00" fill="#000000">specified_cm_tran    </text>
<text text-anchor="start" x="498.7812" y="-923.9" font-family="Arial" font-size="14.00" fill="#666666">[text]</text>
<polygon fill="none" stroke="#000000" points="344,-882.5 344,-912.5 663,-912.5 663,-882.5 344,-882.5"/>
<text text-anchor="start" x="351" y="-893.9" font-family="Arial" font-size="14.00" fill="#000000">introduction    </text>
<text text-anchor="start" x="457.5554" y="-893.9" font-family="Arial" font-size="14.00" fill="#666666">[text]</text>
<polygon fill="none" stroke="#000000" points="344,-852.5 344,-882.5 663,-882.5 663,-852.5 344,-852.5"/>
<text text-anchor="start" x="351" y="-863.9" font-family="Arial" font-size="14.00" fill="#000000">catchcopy    </text>
<text text-anchor="start" x="448.2258" y="-863.9" font-family="Arial" font-size="14.00" fill="#666666">[varchar(100)]</text>
<polygon fill="none" stroke="#000000" points="344,-822.5 344,-852.5 663,-852.5 663,-822.5 344,-822.5"/>
<text text-anchor="start" x="351" y="-833.9" font-family="Arial" font-size="14.00" fill="#000000">discount_info    </text>
<text text-anchor="start" x="467.6774" y="-833.9" font-family="Arial" font-size="14.00" fill="#666666">[text]</text>
<polygon fill="none" stroke="#000000" points="344,-792.5 344,-822.5 663,-822.5 663,-792.5 344,-792.5"/>
<text text-anchor="start" x="351" y="-803.9" font-family="Arial" font-size="14.00" fill="#000000">buffer_time    </text>
<text text-anchor="start" x="455.2174" y="-803.9" font-family="Arial" font-size="14.00" fill="#666666">[time]</text>
<polygon fill="none" stroke="#000000" points="344,-762.5 344,-792.5 663,-792.5 663,-762.5 344,-762.5"/>
<text text-anchor="start" x="351" y="-773.9" font-family="Arial" font-size="14.00" fill="#000000">buffer_time_control    </text>
<text text-anchor="start" x="505.0056" y="-773.9" font-family="Arial" font-size="14.00" fill="#666666">[smallint(3)]</text>
<polygon fill="none" stroke="#000000" points="344,-732.5 344,-762.5 663,-762.5 663,-732.5 344,-732.5"/>
<text text-anchor="start" x="351" y="-743.9" font-family="Arial" font-size="14.00" fill="#000000">sort_order    </text>
<text text-anchor="start" x="448.9902" y="-743.9" font-family="Arial" font-size="14.00" fill="#666666">[int(11)]</text>
<polygon fill="none" stroke="#000000" points="344,-702.5 344,-732.5 663,-732.5 663,-702.5 344,-702.5"/>
<text text-anchor="start" x="351" y="-713.9" font-family="Arial" font-size="14.00" fill="#000000">is_approve    </text>
<text text-anchor="start" x="453.6676" y="-713.9" font-family="Arial" font-size="14.00" fill="#666666">[tinyint(1)]</text>
<polygon fill="none" stroke="#000000" points="344,-672.5 344,-702.5 663,-702.5 663,-672.5 344,-672.5"/>
<text text-anchor="start" x="351" y="-683.9" font-family="Arial" font-size="14.00" fill="#000000">fixed_limit_date_after_approve    </text>
<text text-anchor="start" x="576.5876" y="-683.9" font-family="Arial" font-size="14.00" fill="#666666">[int(11)]</text>
<polygon fill="none" stroke="#000000" points="344,-642.5 344,-672.5 663,-672.5 663,-642.5 344,-642.5"/>
<text text-anchor="start" x="351" y="-653.9" font-family="Arial" font-size="14.00" fill="#000000">fixed_limit_date_before_first_time    </text>
<text text-anchor="start" x="594.46" y="-653.9" font-family="Arial" font-size="14.00" fill="#666666">[int(11)]</text>
<polygon fill="none" stroke="#000000" points="344,-612.5 344,-642.5 663,-642.5 663,-612.5 344,-612.5"/>
<text text-anchor="start" x="351" y="-623.9" font-family="Arial" font-size="14.00" fill="#000000">enable_reserve_lock    </text>
<text text-anchor="start" x="514.3478" y="-623.9" font-family="Arial" font-size="14.00" fill="#666666">[tinyint(1) unsigned]</text>
<polygon fill="none" stroke="#000000" points="344,-582.5 344,-612.5 663,-612.5 663,-582.5 344,-582.5"/>
<text text-anchor="start" x="351" y="-593.9" font-family="Arial" font-size="14.00" fill="#000000">reserve_lock_time    </text>
<text text-anchor="start" x="498.7686" y="-593.9" font-family="Arial" font-size="14.00" fill="#666666">[time]</text>
<polygon fill="none" stroke="#000000" points="344,-552.5 344,-582.5 663,-582.5 663,-552.5 344,-552.5"/>
<text text-anchor="start" x="351" y="-563.9" font-family="Arial" font-size="14.00" fill="#000000">reserve_lock_target    </text>
<text text-anchor="start" x="508.1178" y="-563.9" font-family="Arial" font-size="14.00" fill="#666666">[smallint(6) unsigned]</text>
<polygon fill="none" stroke="#000000" points="344,-522.5 344,-552.5 663,-552.5 663,-522.5 344,-522.5"/>
<text text-anchor="start" x="351" y="-533.9" font-family="Arial" font-size="14.00" fill="#000000">enable_reserve_unlock    </text>
<text text-anchor="start" x="529.913" y="-533.9" font-family="Arial" font-size="14.00" fill="#666666">[tinyint(1) unsigned]</text>
<polygon fill="none" stroke="#000000" points="344,-492.5 344,-522.5 663,-522.5 663,-492.5 344,-492.5"/>
<text text-anchor="start" x="351" y="-503.9" font-family="Arial" font-size="14.00" fill="#000000">reserve_unlock_time    </text>
<text text-anchor="start" x="514.3338" y="-503.9" font-family="Arial" font-size="14.00" fill="#666666">[time]</text>
<polygon fill="none" stroke="#000000" points="344,-462.5 344,-492.5 663,-492.5 663,-462.5 344,-462.5"/>
<text text-anchor="start" x="350.6515" y="-473.9" font-family="Arial" font-size="14.00" fill="#000000">reserve_unlock_target    </text>
<text text-anchor="start" x="523.3345" y="-473.9" font-family="Arial" font-size="14.00" fill="#666666">[smallint(6) unsigned]</text>
<polygon fill="none" stroke="#000000" points="344,-432.5 344,-462.5 663,-462.5 663,-432.5 344,-432.5"/>
<text text-anchor="start" x="351" y="-443.9" font-family="Arial" font-size="14.00" fill="#000000">cancel_charge_payment_limit_date    </text>
<text text-anchor="start" x="605.3716" y="-443.9" font-family="Arial" font-size="14.00" fill="#666666">[int(11)]</text>
<polygon fill="none" stroke="#000000" points="344,-402.5 344,-432.5 663,-432.5 663,-402.5 344,-402.5"/>
<text text-anchor="start" x="351" y="-413.9" font-family="Arial" font-size="14.00" fill="#000000">is_using_origin_cancel_policy    </text>
<text text-anchor="start" x="570.3506" y="-413.9" font-family="Arial" font-size="14.00" fill="#666666">[smallint(1)]</text>
<polygon fill="none" stroke="#000000" points="344,-372.5 344,-402.5 663,-402.5 663,-372.5 344,-372.5"/>
<text text-anchor="start" x="351" y="-383.9" font-family="Arial" font-size="14.00" fill="#000000">pref_id    </text>
<text text-anchor="start" x="427.993" y="-383.9" font-family="Arial" font-size="14.00" fill="#666666">[int(11)]</text>
<polygon fill="none" stroke="#000000" points="344,-342.5 344,-372.5 663,-372.5 663,-342.5 344,-342.5"/>
<text text-anchor="start" x="351" y="-353.9" font-family="Arial" font-size="14.00" fill="#000000">city_id    </text>
<text text-anchor="start" x="424.8738" y="-353.9" font-family="Arial" font-size="14.00" fill="#666666">[int(11)]</text>
<polygon fill="none" stroke="#000000" points="344,-312.5 344,-342.5 663,-342.5 663,-312.5 344,-312.5"/>
<text text-anchor="start" x="351" y="-323.9" font-family="Arial" font-size="14.00" fill="#000000">region_id    </text>
<text text-anchor="start" x="442.7742" y="-323.9" font-family="Arial" font-size="14.00" fill="#666666">[int(11)]</text>
<polygon fill="none" stroke="#000000" points="344,-282.5 344,-312.5 663,-312.5 663,-282.5 344,-282.5"/>
<text text-anchor="start" x="351" y="-293.9" font-family="Arial" font-size="14.00" fill="#000000">lat    </text>
<text text-anchor="start" x="399.9846" y="-293.9" font-family="Arial" font-size="14.00" fill="#666666">[decimal(24,20)]</text>
<polygon fill="none" stroke="#000000" points="344,-252.5 344,-282.5 663,-282.5 663,-252.5 344,-252.5"/>
<text text-anchor="start" x="351" y="-263.9" font-family="Arial" font-size="14.00" fill="#000000">lng    </text>
<text text-anchor="start" x="403.8766" y="-263.9" font-family="Arial" font-size="14.00" fill="#666666">[decimal(24,20)]</text>
<polygon fill="none" stroke="#000000" points="344,-222.5 344,-252.5 663,-252.5 663,-222.5 344,-222.5"/>
<text text-anchor="start" x="351" y="-233.9" font-family="Arial" font-size="14.00" fill="#000000">created_datetime    </text>
<text text-anchor="start" x="493.3478" y="-233.9" font-family="Arial" font-size="14.00" fill="#666666">[timestamp]</text>
<polygon fill="none" stroke="#000000" points="344,-192.5 344,-222.5 663,-222.5 663,-192.5 344,-192.5"/>
<text text-anchor="start" x="351" y="-203.9" font-family="Arial" font-size="14.00" fill="#000000">updated_datetime    </text>
<text text-anchor="start" x="497.2524" y="-203.9" font-family="Arial" font-size="14.00" fill="#666666">[timestamp]</text>
<polygon fill="none" stroke="#000000" points="344,-162.5 344,-192.5 663,-192.5 663,-162.5 344,-162.5"/>
<text text-anchor="start" x="351" y="-173.9" font-family="Arial" font-size="14.00" fill="#000000">owner_buffer_time    </text>
<text text-anchor="start" x="501.115" y="-173.9" font-family="Arial" font-size="14.00" fill="#666666">[time]</text>
<polygon fill="none" stroke="#000000" points="344,-132.5 344,-162.5 663,-162.5 663,-132.5 344,-132.5"/>
<text text-anchor="start" x="351" y="-143.9" font-family="Arial" font-size="14.00" fill="#000000">external_buffer_time    </text>
<text text-anchor="start" x="512.7882" y="-143.9" font-family="Arial" font-size="14.00" fill="#666666">[time]</text>
<polygon fill="none" stroke="#000000" points="344,-102.5 344,-132.5 663,-132.5 663,-102.5 344,-102.5"/>
<text text-anchor="start" x="351" y="-113.9" font-family="Arial" font-size="14.00" fill="#000000">owner_buffer_time_control    </text>
<text text-anchor="start" x="550.9032" y="-113.9" font-family="Arial" font-size="14.00" fill="#666666">[smallint(3)]</text>
<polygon fill="none" stroke="#000000" points="344,-72.5 344,-102.5 663,-102.5 663,-72.5 344,-72.5"/>
<text text-anchor="start" x="351" y="-83.9" font-family="Arial" font-size="14.00" fill="#000000">external_buffer_time_control    </text>
<text text-anchor="start" x="562.5764" y="-83.9" font-family="Arial" font-size="14.00" fill="#666666">[smallint(3)]</text>
<polygon fill="none" stroke="#000000" points="344,-42.5 344,-72.5 663,-72.5 663,-42.5 344,-42.5"/>
<text text-anchor="start" x="351" y="-53.9" font-family="Arial" font-size="14.00" fill="#000000">approved_mail_note    </text>
<text text-anchor="start" x="512.021" y="-53.9" font-family="Arial" font-size="14.00" fill="#666666">[text]</text>
</g>
<!-- sk_property_business_hour_weeks&#45;&gt;sk_properties -->
<g id="edge1" class="edge">
<title>sk_property_business_hour_weeks:property_id&#45;&gt;sk_properties:id</title>
<path fill="none" stroke="#000000" d="M282.0155,-1716.8834C168.3272,-1702.3969 220.8887,-1437.5 344,-1437.5"/>
<polygon fill="#000000" stroke="#000000" points="282.019,-1716.8835 291.7226,-1721.9914 287.0095,-1717.1918 292,-1717.5 292,-1717.5 292,-1717.5 287.0095,-1717.1918 292.2774,-1713.0086 282.019,-1716.8835 282.019,-1716.8835"/>
<text text-anchor="start" x="6.5505" y="-1727.5" font-family="Arial" font-size="10.00" fill="#000000">FOREIGN KEY (property_id) REFERENCES sk_properties (id)</text>
</g>
</g>
</svg>
