<?xml version="1.0" encoding="UTF-8" standalone="no"?>
<!DOCTYPE svg PUBLIC "-//W3C//DTD SVG 1.1//EN"
 "http://www.w3.org/Graphics/SVG/1.1/DTD/svg11.dtd">
<!-- Generated by graphviz version 2.40.1 (20161225.0304)
 -->
<!-- Title: sk_questions Pages: 1 -->
<svg width="776pt" height="2542pt"
 viewBox="0.00 0.00 776.00 2542.00" xmlns="http://www.w3.org/2000/svg" xmlns:xlink="http://www.w3.org/1999/xlink">
<g id="graph0" class="graph" transform="scale(1 1) rotate(0) translate(4 2538)">
<title>sk_questions</title>
<polygon fill="#ffffff" stroke="transparent" points="-4,4 -4,-2538 772,-2538 772,4 -4,4"/>
<!-- sk_questions -->
<g id="node1" class="node">
<title>sk_questions</title>
<polygon fill="#efefef" stroke="transparent" points="160,-2452.5 160,-2487.5 406,-2487.5 406,-2452.5 160,-2452.5"/>
<polygon fill="none" stroke="#000000" points="160,-2452.5 160,-2487.5 406,-2487.5 406,-2452.5 160,-2452.5"/>
<text text-anchor="start" x="166.6992" y="-2465.3" font-family="Arial Bold" font-size="18.00" fill="#000000">sk_questions</text>
<text text-anchor="start" x="271.7328" y="-2465.3" font-family="Arial" font-size="14.00" fill="#000000">    </text>
<text text-anchor="start" x="305.9376" y="-2465.3" font-family="Arial" font-size="14.00" fill="#666666">[BASE TABLE]</text>
<polygon fill="none" stroke="#000000" points="160,-2422.5 160,-2452.5 406,-2452.5 406,-2422.5 160,-2422.5"/>
<text text-anchor="start" x="167" y="-2433.9" font-family="Arial" font-size="14.00" fill="#000000">id </text>
<text text-anchor="start" x="181.7798" y="-2433.9" font-family="Arial" font-size="14.00" fill="#666666">[bigint(21) unsigned]</text>
<polygon fill="none" stroke="#000000" points="160,-2392.5 160,-2422.5 406,-2422.5 406,-2392.5 160,-2392.5"/>
<text text-anchor="start" x="167" y="-2403.9" font-family="Arial" font-size="14.00" fill="#000000">lessor_parent_id </text>
<text text-anchor="start" x="274.359" y="-2403.9" font-family="Arial" font-size="14.00" fill="#666666">[int(11) unsigned]</text>
<polygon fill="none" stroke="#000000" points="160,-2362.5 160,-2392.5 406,-2392.5 406,-2362.5 160,-2362.5"/>
<text text-anchor="start" x="167" y="-2373.9" font-family="Arial" font-size="14.00" fill="#000000">question </text>
<text text-anchor="start" x="223.8008" y="-2373.9" font-family="Arial" font-size="14.00" fill="#666666">[text]</text>
<polygon fill="none" stroke="#000000" points="160,-2332.5 160,-2362.5 406,-2362.5 406,-2332.5 160,-2332.5"/>
<text text-anchor="start" x="167" y="-2343.9" font-family="Arial" font-size="14.00" fill="#000000">answer </text>
<text text-anchor="start" x="216.0056" y="-2343.9" font-family="Arial" font-size="14.00" fill="#666666">[text]</text>
<polygon fill="none" stroke="#000000" points="160,-2302.5 160,-2332.5 406,-2332.5 406,-2302.5 160,-2302.5"/>
<text text-anchor="start" x="167" y="-2313.9" font-family="Arial" font-size="14.00" fill="#000000">sort_order </text>
<text text-anchor="start" x="234.676" y="-2313.9" font-family="Arial" font-size="14.00" fill="#666666">[smallint(6) unsigned]</text>
<polygon fill="none" stroke="#000000" stroke-width="3" points="158.5,-2301.5 158.5,-2489.5 407.5,-2489.5 407.5,-2301.5 158.5,-2301.5"/>
</g>
<!-- sk_lessor_parents -->
<g id="node2" class="node">
<title>sk_lessor_parents</title>
<polygon fill="#efefef" stroke="transparent" points="43,-2142.5 43,-2177.5 523,-2177.5 523,-2142.5 43,-2142.5"/>
<polygon fill="none" stroke="#000000" points="43,-2142.5 43,-2177.5 523,-2177.5 523,-2142.5 43,-2142.5"/>
<text text-anchor="start" x="146.2008" y="-2155.3" font-family="Arial Bold" font-size="18.00" fill="#000000">sk_lessor_parents</text>
<text text-anchor="start" x="292.2312" y="-2155.3" font-family="Arial" font-size="14.00" fill="#000000">    </text>
<text text-anchor="start" x="326.436" y="-2155.3" font-family="Arial" font-size="14.00" fill="#666666">[BASE TABLE]</text>
<polygon fill="none" stroke="#000000" points="43,-2112.5 43,-2142.5 523,-2142.5 523,-2112.5 43,-2112.5"/>
<text text-anchor="start" x="50" y="-2123.9" font-family="Arial" font-size="14.00" fill="#000000">user_id    </text>
<text text-anchor="start" x="130.1024" y="-2123.9" font-family="Arial" font-size="14.00" fill="#666666">[int(11) unsigned]</text>
<polygon fill="none" stroke="#000000" points="43,-2082.5 43,-2112.5 523,-2112.5 523,-2082.5 43,-2082.5"/>
<text text-anchor="start" x="50" y="-2093.9" font-family="Arial" font-size="14.00" fill="#000000">corporate_name    </text>
<text text-anchor="start" x="186.1206" y="-2093.9" font-family="Arial" font-size="14.00" fill="#666666">[varchar(200)]</text>
<polygon fill="none" stroke="#000000" points="43,-2052.5 43,-2082.5 523,-2082.5 523,-2052.5 43,-2052.5"/>
<text text-anchor="start" x="50" y="-2063.9" font-family="Arial" font-size="14.00" fill="#000000">logo_image    </text>
<text text-anchor="start" x="156.5568" y="-2063.9" font-family="Arial" font-size="14.00" fill="#666666">[varchar(1000)]</text>
<polygon fill="none" stroke="#000000" points="43,-2022.5 43,-2052.5 523,-2052.5 523,-2022.5 43,-2022.5"/>
<text text-anchor="start" x="50" y="-2033.9" font-family="Arial" font-size="14.00" fill="#000000">status    </text>
<text text-anchor="start" x="121.5512" y="-2033.9" font-family="Arial" font-size="14.00" fill="#666666">[smallint(1)]</text>
<polygon fill="none" stroke="#000000" points="43,-1992.5 43,-2022.5 523,-2022.5 523,-1992.5 43,-1992.5"/>
<text text-anchor="start" x="50" y="-2003.9" font-family="Arial" font-size="14.00" fill="#000000">gmo_shop_id    </text>
<text text-anchor="start" x="168.2328" y="-2003.9" font-family="Arial" font-size="14.00" fill="#666666">[varchar(13)]</text>
<polygon fill="none" stroke="#000000" points="43,-1962.5 43,-1992.5 523,-1992.5 523,-1962.5 43,-1962.5"/>
<text text-anchor="start" x="50" y="-1973.9" font-family="Arial" font-size="14.00" fill="#000000">gmo_shop_pass    </text>
<text text-anchor="start" x="186.9088" y="-1973.9" font-family="Arial" font-size="14.00" fill="#666666">[varchar(10)]</text>
<polygon fill="none" stroke="#000000" points="43,-1932.5 43,-1962.5 523,-1962.5 523,-1932.5 43,-1932.5"/>
<text text-anchor="start" x="50" y="-1943.9" font-family="Arial" font-size="14.00" fill="#000000">gmo_virtualaccount    </text>
<text text-anchor="start" x="205.5638" y="-1943.9" font-family="Arial" font-size="14.00" fill="#666666">[int(11)]</text>
<polygon fill="none" stroke="#000000" points="43,-1902.5 43,-1932.5 523,-1932.5 523,-1902.5 43,-1902.5"/>
<text text-anchor="start" x="50" y="-1913.9" font-family="Arial" font-size="14.00" fill="#000000">veritrans_merchant_ccid    </text>
<text text-anchor="start" x="236.6676" y="-1913.9" font-family="Arial" font-size="14.00" fill="#666666">[varchar(32)]</text>
<polygon fill="none" stroke="#000000" points="43,-1872.5 43,-1902.5 523,-1902.5 523,-1872.5 43,-1872.5"/>
<text text-anchor="start" x="50" y="-1883.9" font-family="Arial" font-size="14.00" fill="#000000">veritrans_merchant_secret_key    </text>
<text text-anchor="start" x="279.46" y="-1883.9" font-family="Arial" font-size="14.00" fill="#666666">[varchar(64)]</text>
<polygon fill="none" stroke="#000000" points="43,-1842.5 43,-1872.5 523,-1872.5 523,-1842.5 43,-1842.5"/>
<text text-anchor="start" x="50" y="-1853.9" font-family="Arial" font-size="14.00" fill="#000000">veritrans_token_api_key    </text>
<text text-anchor="start" x="235.9116" y="-1853.9" font-family="Arial" font-size="14.00" fill="#666666">[varchar(36)]</text>
<polygon fill="none" stroke="#000000" points="43,-1812.5 43,-1842.5 523,-1842.5 523,-1812.5 43,-1812.5"/>
<text text-anchor="start" x="50" y="-1823.9" font-family="Arial" font-size="14.00" fill="#000000">veritrans_payeasyaccount    </text>
<text text-anchor="start" x="246.805" y="-1823.9" font-family="Arial" font-size="14.00" fill="#666666">[int(11)]</text>
<polygon fill="none" stroke="#000000" points="43,-1782.5 43,-1812.5 523,-1812.5 523,-1782.5 43,-1782.5"/>
<text text-anchor="start" x="50" y="-1793.9" font-family="Arial" font-size="14.00" fill="#000000">stripe_account_id    </text>
<text text-anchor="start" x="193.9032" y="-1793.9" font-family="Arial" font-size="14.00" fill="#666666">[varchar(255)]</text>
<polygon fill="none" stroke="#000000" points="43,-1752.5 43,-1782.5 523,-1782.5 523,-1752.5 43,-1752.5"/>
<text text-anchor="start" x="50" y="-1763.9" font-family="Arial" font-size="14.00" fill="#000000">stripe_api_secret_key    </text>
<text text-anchor="start" x="220.3464" y="-1763.9" font-family="Arial" font-size="14.00" fill="#666666">[varchar(255)]</text>
<polygon fill="none" stroke="#000000" points="43,-1722.5 43,-1752.5 523,-1752.5 523,-1722.5 43,-1722.5"/>
<text text-anchor="start" x="50" y="-1733.9" font-family="Arial" font-size="14.00" fill="#000000">sign_image    </text>
<text text-anchor="start" x="155.7742" y="-1733.9" font-family="Arial" font-size="14.00" fill="#666666">[varchar(200)]</text>
<polygon fill="none" stroke="#000000" points="43,-1692.5 43,-1722.5 523,-1722.5 523,-1692.5 43,-1692.5"/>
<text text-anchor="start" x="50" y="-1703.9" font-family="Arial" font-size="14.00" fill="#000000">auto_approve    </text>
<text text-anchor="start" x="169.7994" y="-1703.9" font-family="Arial" font-size="14.00" fill="#666666">[tinyint(1)]</text>
<polygon fill="none" stroke="#000000" points="43,-1662.5 43,-1692.5 523,-1692.5 523,-1662.5 43,-1662.5"/>
<text text-anchor="start" x="50" y="-1673.9" font-family="Arial" font-size="14.00" fill="#000000">tenant_usage_approve_mail_text    </text>
<text text-anchor="start" x="291.171" y="-1673.9" font-family="Arial" font-size="14.00" fill="#666666">[text]</text>
<polygon fill="none" stroke="#000000" points="43,-1632.5 43,-1662.5 523,-1662.5 523,-1632.5 43,-1632.5"/>
<text text-anchor="start" x="50" y="-1643.9" font-family="Arial" font-size="14.00" fill="#000000">hide_regist_page    </text>
<text text-anchor="start" x="191.5778" y="-1643.9" font-family="Arial" font-size="14.00" fill="#666666">[tinyint(4)]</text>
<polygon fill="none" stroke="#000000" points="43,-1602.5 43,-1632.5 523,-1632.5 523,-1602.5 43,-1602.5"/>
<text text-anchor="start" x="50" y="-1613.9" font-family="Arial" font-size="14.00" fill="#000000">disp_customer_info_input    </text>
<text text-anchor="start" x="243.6914" y="-1613.9" font-family="Arial" font-size="14.00" fill="#666666">[tinyint(1)]</text>
<polygon fill="none" stroke="#000000" points="43,-1572.5 43,-1602.5 523,-1602.5 523,-1572.5 43,-1572.5"/>
<text text-anchor="start" x="50" y="-1583.9" font-family="Arial" font-size="14.00" fill="#000000">salesforce_client_id    </text>
<text text-anchor="start" x="207.1164" y="-1583.9" font-family="Arial" font-size="14.00" fill="#666666">[varchar(100)]</text>
<polygon fill="none" stroke="#000000" points="43,-1542.5 43,-1572.5 523,-1572.5 523,-1542.5 43,-1542.5"/>
<text text-anchor="start" x="50" y="-1553.9" font-family="Arial" font-size="14.00" fill="#000000">salesforce_client_secret    </text>
<text text-anchor="start" x="234.3436" y="-1553.9" font-family="Arial" font-size="14.00" fill="#666666">[varchar(100)]</text>
<polygon fill="none" stroke="#000000" points="43,-1512.5 43,-1542.5 523,-1542.5 523,-1512.5 43,-1512.5"/>
<text text-anchor="start" x="50" y="-1523.9" font-family="Arial" font-size="14.00" fill="#000000">salesforce_client_username    </text>
<text text-anchor="start" x="258.4614" y="-1523.9" font-family="Arial" font-size="14.00" fill="#666666">[varchar(100)]</text>
<polygon fill="none" stroke="#000000" points="43,-1482.5 43,-1512.5 523,-1512.5 523,-1482.5 43,-1482.5"/>
<text text-anchor="start" x="50" y="-1493.9" font-family="Arial" font-size="14.00" fill="#000000">salesforce_client_password    </text>
<text text-anchor="start" x="256.1248" y="-1493.9" font-family="Arial" font-size="14.00" fill="#666666">[varchar(100)]</text>
<polygon fill="none" stroke="#000000" points="43,-1452.5 43,-1482.5 523,-1482.5 523,-1452.5 43,-1452.5"/>
<text text-anchor="start" x="50" y="-1463.9" font-family="Arial" font-size="14.00" fill="#000000">salesforce_api_security_token    </text>
<text text-anchor="start" x="272.474" y="-1463.9" font-family="Arial" font-size="14.00" fill="#666666">[varchar(100)]</text>
<polygon fill="none" stroke="#000000" points="43,-1422.5 43,-1452.5 523,-1452.5 523,-1422.5 43,-1422.5"/>
<text text-anchor="start" x="50" y="-1433.9" font-family="Arial" font-size="14.00" fill="#000000">salesforce_version    </text>
<text text-anchor="start" x="200.8906" y="-1433.9" font-family="Arial" font-size="14.00" fill="#666666">[varchar(100)]</text>
<polygon fill="none" stroke="#000000" points="43,-1392.5 43,-1422.5 523,-1422.5 523,-1392.5 43,-1392.5"/>
<text text-anchor="start" x="50" y="-1403.9" font-family="Arial" font-size="14.00" fill="#000000">disp_name    </text>
<text text-anchor="start" x="152.6676" y="-1403.9" font-family="Arial" font-size="14.00" fill="#666666">[varchar(200)]</text>
<polygon fill="none" stroke="#000000" points="43,-1362.5 43,-1392.5 523,-1392.5 523,-1362.5 43,-1362.5"/>
<text text-anchor="start" x="50" y="-1373.9" font-family="Arial" font-size="14.00" fill="#000000">salesforce_password_salt    </text>
<text text-anchor="start" x="245.2356" y="-1373.9" font-family="Arial" font-size="14.00" fill="#666666">[varchar(100)]</text>
<polygon fill="none" stroke="#000000" points="43,-1332.5 43,-1362.5 523,-1362.5 523,-1332.5 43,-1332.5"/>
<text text-anchor="start" x="50" y="-1343.9" font-family="Arial" font-size="14.00" fill="#000000">subscription_terms    </text>
<text text-anchor="start" x="201.6592" y="-1343.9" font-family="Arial" font-size="14.00" fill="#666666">[text]</text>
<polygon fill="none" stroke="#000000" points="43,-1302.5 43,-1332.5 523,-1332.5 523,-1302.5 43,-1302.5"/>
<text text-anchor="start" x="50" y="-1313.9" font-family="Arial" font-size="14.00" fill="#000000">memo    </text>
<text text-anchor="start" x="123.0912" y="-1313.9" font-family="Arial" font-size="14.00" fill="#666666">[text]</text>
<polygon fill="none" stroke="#000000" points="43,-1272.5 43,-1302.5 523,-1302.5 523,-1272.5 43,-1272.5"/>
<text text-anchor="start" x="50" y="-1283.9" font-family="Arial" font-size="14.00" fill="#000000">memo_helper_text    </text>
<text text-anchor="start" x="200.1178" y="-1283.9" font-family="Arial" font-size="14.00" fill="#666666">[text]</text>
<polygon fill="none" stroke="#000000" points="43,-1242.5 43,-1272.5 523,-1272.5 523,-1242.5 43,-1242.5"/>
<text text-anchor="start" x="50" y="-1253.9" font-family="Arial" font-size="14.00" fill="#000000">memo_placeholder_text    </text>
<text text-anchor="start" x="233.5722" y="-1253.9" font-family="Arial" font-size="14.00" fill="#666666">[text]</text>
<polygon fill="none" stroke="#000000" points="43,-1212.5 43,-1242.5 523,-1242.5 523,-1212.5 43,-1212.5"/>
<text text-anchor="start" x="50" y="-1223.9" font-family="Arial" font-size="14.00" fill="#000000">is_memo_required    </text>
<text text-anchor="start" x="200.1038" y="-1223.9" font-family="Arial" font-size="14.00" fill="#666666">[tinyint(1)]</text>
<polygon fill="none" stroke="#000000" points="43,-1182.5 43,-1212.5 523,-1212.5 523,-1182.5 43,-1182.5"/>
<text text-anchor="start" x="50" y="-1193.9" font-family="Arial" font-size="14.00" fill="#000000">is_number_person_required    </text>
<text text-anchor="start" x="259.2426" y="-1193.9" font-family="Arial" font-size="14.00" fill="#666666">[tinyint(1)]</text>
<polygon fill="none" stroke="#000000" points="43,-1152.5 43,-1182.5 523,-1182.5 523,-1152.5 43,-1152.5"/>
<text text-anchor="start" x="50" y="-1163.9" font-family="Arial" font-size="14.00" fill="#000000">is_show_number_person    </text>
<text text-anchor="start" x="240.5736" y="-1163.9" font-family="Arial" font-size="14.00" fill="#666666">[tinyint(1)]</text>
<polygon fill="none" stroke="#000000" points="43,-1122.5 43,-1152.5 523,-1152.5 523,-1122.5 43,-1122.5"/>
<text text-anchor="start" x="50" y="-1133.9" font-family="Arial" font-size="14.00" fill="#000000">reservation_usage_time_block    </text>
<text text-anchor="start" x="274.0266" y="-1133.9" font-family="Arial" font-size="14.00" fill="#666666">[int(11)]</text>
<polygon fill="none" stroke="#000000" points="43,-1092.5 43,-1122.5 523,-1122.5 523,-1092.5 43,-1092.5"/>
<text text-anchor="start" x="50" y="-1103.9" font-family="Arial" font-size="14.00" fill="#000000">user_reservation_time_block    </text>
<text text-anchor="start" x="263.122" y="-1103.9" font-family="Arial" font-size="14.00" fill="#666666">[int(11)]</text>
<polygon fill="none" stroke="#000000" points="43,-1062.5 43,-1092.5 523,-1092.5 523,-1062.5 43,-1062.5"/>
<text text-anchor="start" x="50" y="-1073.9" font-family="Arial" font-size="14.00" fill="#000000">reservation_extension_time_block    </text>
<text text-anchor="start" x="295.8064" y="-1073.9" font-family="Arial" font-size="14.00" fill="#666666">[int(11)]</text>
<polygon fill="none" stroke="#000000" points="43,-1032.5 43,-1062.5 523,-1062.5 523,-1032.5 43,-1032.5"/>
<text text-anchor="start" x="50" y="-1043.9" font-family="Arial" font-size="14.00" fill="#000000">is_max_room_price_enabled    </text>
<text text-anchor="start" x="263.906" y="-1043.9" font-family="Arial" font-size="14.00" fill="#666666">[tinyint(1)]</text>
<polygon fill="none" stroke="#000000" points="43,-1002.5 43,-1032.5 523,-1032.5 523,-1002.5 43,-1002.5"/>
<text text-anchor="start" x="50" y="-1013.9" font-family="Arial" font-size="14.00" fill="#000000">is_room_charge_hour_weeks_enabled    </text>
<text text-anchor="start" x="325.3842" y="-1013.9" font-family="Arial" font-size="14.00" fill="#666666">[tinyint(1)]</text>
<polygon fill="none" stroke="#000000" points="43,-972.5 43,-1002.5 523,-1002.5 523,-972.5 43,-972.5"/>
<text text-anchor="start" x="50" y="-983.9" font-family="Arial" font-size="14.00" fill="#000000">allow_custom_invoice_monthly_send_day    </text>
<text text-anchor="start" x="345.5988" y="-983.9" font-family="Arial" font-size="14.00" fill="#666666">[tinyint(1)]</text>
<polygon fill="none" stroke="#000000" points="43,-942.5 43,-972.5 523,-972.5 523,-942.5 43,-942.5"/>
<text text-anchor="start" x="50" y="-953.9" font-family="Arial" font-size="14.00" fill="#000000">is_meeting_name_required    </text>
<text text-anchor="start" x="253.7966" y="-953.9" font-family="Arial" font-size="14.00" fill="#666666">[tinyint(1)]</text>
<polygon fill="none" stroke="#000000" points="43,-912.5 43,-942.5 523,-942.5 523,-912.5 43,-912.5"/>
<text text-anchor="start" x="50" y="-923.9" font-family="Arial" font-size="14.00" fill="#000000">is_show_meeting_name    </text>
<text text-anchor="start" x="235.1276" y="-923.9" font-family="Arial" font-size="14.00" fill="#666666">[tinyint(1)]</text>
<polygon fill="none" stroke="#000000" points="43,-882.5 43,-912.5 523,-912.5 523,-882.5 43,-882.5"/>
<text text-anchor="start" x="50" y="-893.9" font-family="Arial" font-size="14.00" fill="#000000">meeting_name_placeholder_text    </text>
<text text-anchor="start" x="287.265" y="-893.9" font-family="Arial" font-size="14.00" fill="#666666">[varchar(100)]</text>
<polygon fill="none" stroke="#000000" points="43,-852.5 43,-882.5 523,-882.5 523,-852.5 43,-852.5"/>
<text text-anchor="start" x="50" y="-863.9" font-family="Arial" font-size="14.00" fill="#000000">is_group_reservation_limit_number_enabled    </text>
<text text-anchor="start" x="360.3716" y="-863.9" font-family="Arial" font-size="14.00" fill="#666666">[tinyint(1)]</text>
<polygon fill="none" stroke="#000000" points="43,-822.5 43,-852.5 523,-852.5 523,-822.5 43,-822.5"/>
<text text-anchor="start" x="50" y="-833.9" font-family="Arial" font-size="14.00" fill="#000000">is_group_business_hours_setting_enabled    </text>
<text text-anchor="start" x="350.2986" y="-833.9" font-family="Arial" font-size="14.00" fill="#666666">[tinyint(1)]</text>
<polygon fill="none" stroke="#000000" points="43,-792.5 43,-822.5 523,-822.5 523,-792.5 43,-792.5"/>
<text text-anchor="start" x="50" y="-803.9" font-family="Arial" font-size="14.00" fill="#000000">default_auto_group_id    </text>
<text text-anchor="start" x="223.4894" y="-803.9" font-family="Arial" font-size="14.00" fill="#666666">[int(11) unsigned]</text>
<polygon fill="none" stroke="#000000" points="43,-762.5 43,-792.5 523,-792.5 523,-762.5 43,-762.5"/>
<text text-anchor="start" x="50" y="-773.9" font-family="Arial" font-size="14.00" fill="#000000">is_group_setup_unreservable_room_enabled    </text>
<text text-anchor="start" x="365.8484" y="-773.9" font-family="Arial" font-size="14.00" fill="#666666">[tinyint(1)]</text>
<polygon fill="none" stroke="#000000" points="43,-732.5 43,-762.5 523,-762.5 523,-732.5 43,-732.5"/>
<text text-anchor="start" x="50" y="-743.9" font-family="Arial" font-size="14.00" fill="#000000">is_group_reservation_limit_times_and_hours_enabled    </text>
<text text-anchor="start" x="420.2818" y="-743.9" font-family="Arial" font-size="14.00" fill="#666666">[tinyint(1)]</text>
<polygon fill="none" stroke="#000000" points="43,-702.5 43,-732.5 523,-732.5 523,-702.5 43,-702.5"/>
<text text-anchor="start" x="50" y="-713.9" font-family="Arial" font-size="14.00" fill="#000000">is_room_reservable_setting_enabled    </text>
<text text-anchor="start" x="313.7068" y="-713.9" font-family="Arial" font-size="14.00" fill="#666666">[tinyint(1)]</text>
<polygon fill="none" stroke="#000000" points="43,-672.5 43,-702.5 523,-702.5 523,-672.5 43,-672.5"/>
<text text-anchor="start" x="50" y="-683.9" font-family="Arial" font-size="14.00" fill="#000000">extend_after_reservation_time    </text>
<text text-anchor="start" x="273.2524" y="-683.9" font-family="Arial" font-size="14.00" fill="#666666">[int(11)]</text>
<polygon fill="none" stroke="#000000" points="43,-642.5 43,-672.5 523,-672.5 523,-642.5 43,-642.5"/>
<text text-anchor="start" x="50" y="-653.9" font-family="Arial" font-size="14.00" fill="#000000">allow_set_transfer_method_note    </text>
<text text-anchor="start" x="287.2636" y="-653.9" font-family="Arial" font-size="14.00" fill="#666666">[tinyint(1)]</text>
<polygon fill="none" stroke="#000000" points="43,-612.5 43,-642.5 523,-642.5 523,-612.5 43,-612.5"/>
<text text-anchor="start" x="50" y="-623.9" font-family="Arial" font-size="14.00" fill="#000000">reserve_csv_format_type    </text>
<text text-anchor="start" x="241.345" y="-623.9" font-family="Arial" font-size="14.00" fill="#666666">[tinyint(2)]</text>
<polygon fill="none" stroke="#000000" points="43,-582.5 43,-612.5 523,-612.5 523,-582.5 43,-582.5"/>
<text text-anchor="start" x="50" y="-593.9" font-family="Arial" font-size="14.00" fill="#000000">is_stripe_subscription_enabled    </text>
<text text-anchor="start" x="276.3618" y="-593.9" font-family="Arial" font-size="14.00" fill="#666666">[tinyint(1)]</text>
<polygon fill="none" stroke="#000000" points="43,-552.5 43,-582.5 523,-582.5 523,-552.5 43,-552.5"/>
<text text-anchor="start" x="50" y="-563.9" font-family="Arial" font-size="14.00" fill="#000000">is_group_max_usage_time_enabled    </text>
<text text-anchor="start" x="309.8316" y="-563.9" font-family="Arial" font-size="14.00" fill="#666666">[tinyint(1)]</text>
<polygon fill="none" stroke="#000000" points="43,-522.5 43,-552.5 523,-552.5 523,-522.5 43,-522.5"/>
<text text-anchor="start" x="50" y="-533.9" font-family="Arial" font-size="14.00" fill="#000000">is_room_buffer_time_setting_enabled    </text>
<text text-anchor="start" x="318.3786" y="-533.9" font-family="Arial" font-size="14.00" fill="#666666">[tinyint(1)]</text>
<polygon fill="none" stroke="#000000" points="43,-492.5 43,-522.5 523,-522.5 523,-492.5 43,-492.5"/>
<text text-anchor="start" x="49.6326" y="-503.9" font-family="Arial" font-size="14.00" fill="#000000">is_group_reservation_year_limit_times_and_hours_enabled    </text>
<text text-anchor="start" x="454.9228" y="-503.9" font-family="Arial" font-size="14.00" fill="#666666">[tinyint(1)]</text>
<polygon fill="none" stroke="#000000" points="43,-462.5 43,-492.5 523,-492.5 523,-462.5 43,-462.5"/>
<text text-anchor="start" x="50" y="-473.9" font-family="Arial" font-size="14.00" fill="#000000">is_group_display_reservation_limit_for_tenant_enabled    </text>
<text text-anchor="start" x="427.2916" y="-473.9" font-family="Arial" font-size="14.00" fill="#666666">[int(1)]</text>
<polygon fill="none" stroke="#000000" points="43,-432.5 43,-462.5 523,-462.5 523,-432.5 43,-432.5"/>
<text text-anchor="start" x="50" y="-443.9" font-family="Arial" font-size="14.00" fill="#000000">is_user_reserve_updatable_by_lessor_enabled    </text>
<text text-anchor="start" x="378.2944" y="-443.9" font-family="Arial" font-size="14.00" fill="#666666">[tinyint(1)]</text>
<polygon fill="none" stroke="#000000" points="43,-402.5 43,-432.5 523,-432.5 523,-402.5 43,-402.5"/>
<text text-anchor="start" x="50" y="-413.9" font-family="Arial" font-size="14.00" fill="#000000">is_reserve_status_updatable_by_lessor_enabled    </text>
<text text-anchor="start" x="388.415" y="-413.9" font-family="Arial" font-size="14.00" fill="#666666">[tinyint(1)]</text>
<polygon fill="none" stroke="#000000" points="43,-372.5 43,-402.5 523,-402.5 523,-372.5 43,-372.5"/>
<text text-anchor="start" x="50" y="-383.9" font-family="Arial" font-size="14.00" fill="#000000">is_group_reservable_setting_enabled    </text>
<text text-anchor="start" x="317.6114" y="-383.9" font-family="Arial" font-size="14.00" fill="#666666">[tinyint(1)]</text>
<polygon fill="none" stroke="#000000" points="43,-342.5 43,-372.5 523,-372.5 523,-342.5 43,-342.5"/>
<text text-anchor="start" x="50" y="-353.9" font-family="Arial" font-size="14.00" fill="#000000">is_reservation_limit_subgroup_enabled    </text>
<text text-anchor="start" x="327.7026" y="-353.9" font-family="Arial" font-size="14.00" fill="#666666">[tinyint(1)]</text>
<polygon fill="none" stroke="#000000" points="43,-312.5 43,-342.5 523,-342.5 523,-312.5 43,-312.5"/>
<text text-anchor="start" x="50" y="-323.9" font-family="Arial" font-size="14.00" fill="#000000">is_group_limitless_room_enabled    </text>
<text text-anchor="start" x="292.6816" y="-323.9" font-family="Arial" font-size="14.00" fill="#666666">[tinyint(1)]</text>
<polygon fill="none" stroke="#000000" points="43,-282.5 43,-312.5 523,-312.5 523,-282.5 43,-282.5"/>
<text text-anchor="start" x="50" y="-293.9" font-family="Arial" font-size="14.00" fill="#000000">is_lessor_create_user_reserve_enabled    </text>
<text text-anchor="start" x="333.1528" y="-293.9" font-family="Arial" font-size="14.00" fill="#666666">[tinyint(1)]</text>
<polygon fill="none" stroke="#000000" points="43,-252.5 43,-282.5 523,-282.5 523,-252.5 43,-252.5"/>
<text text-anchor="start" x="50" y="-263.9" font-family="Arial" font-size="14.00" fill="#000000">is_reserve_cancel_reminder_mail_enabled    </text>
<text text-anchor="start" x="351.0252" y="-263.9" font-family="Arial" font-size="14.00" fill="#666666">[tinyint(1)]</text>
<polygon fill="none" stroke="#000000" points="43,-222.5 43,-252.5 523,-252.5 523,-222.5 43,-222.5"/>
<text text-anchor="start" x="50" y="-233.9" font-family="Arial" font-size="14.00" fill="#000000">is_display_tenant_reservation_history_enabled    </text>
<text text-anchor="start" x="375.9536" y="-233.9" font-family="Arial" font-size="14.00" fill="#666666">[tinyint(1)]</text>
<polygon fill="none" stroke="#000000" points="43,-192.5 43,-222.5 523,-222.5 523,-192.5 43,-192.5"/>
<text text-anchor="start" x="50" y="-203.9" font-family="Arial" font-size="14.00" fill="#000000">is_room_one_day_rental_enabled    </text>
<text text-anchor="start" x="295.8316" y="-203.9" font-family="Arial" font-size="14.00" fill="#666666">[tinyint(1)]</text>
<polygon fill="none" stroke="#000000" points="43,-162.5 43,-192.5 523,-192.5 523,-162.5 43,-162.5"/>
<text text-anchor="start" x="50" y="-173.9" font-family="Arial" font-size="14.00" fill="#000000">is_auto_payout    </text>
<text text-anchor="start" x="179.136" y="-173.9" font-family="Arial" font-size="14.00" fill="#666666">[tinyint(1)]</text>
<polygon fill="none" stroke="#000000" points="43,-132.5 43,-162.5 523,-162.5 523,-132.5 43,-132.5"/>
<text text-anchor="start" x="50" y="-143.9" font-family="Arial" font-size="14.00" fill="#000000">is_room_lottery_setting_enabled    </text>
<text text-anchor="start" x="286.4796" y="-143.9" font-family="Arial" font-size="14.00" fill="#666666">[tinyint(1)]</text>
<polygon fill="none" stroke="#000000" points="43,-102.5 43,-132.5 523,-132.5 523,-102.5 43,-102.5"/>
<text text-anchor="start" x="50" y="-113.9" font-family="Arial" font-size="14.00" fill="#000000">is_display_estimate_button_enabled    </text>
<text text-anchor="start" x="310.6128" y="-113.9" font-family="Arial" font-size="14.00" fill="#666666">[tinyint(1)]</text>
<polygon fill="none" stroke="#000000" points="43,-72.5 43,-102.5 523,-102.5 523,-72.5 43,-72.5"/>
<text text-anchor="start" x="50" y="-83.9" font-family="Arial" font-size="14.00" fill="#000000">is_group_custom_cancel_policy_enabled    </text>
<text text-anchor="start" x="340.1668" y="-83.9" font-family="Arial" font-size="14.00" fill="#666666">[tinyint(1)]</text>
<polygon fill="none" stroke="#000000" points="43,-42.5 43,-72.5 523,-72.5 523,-42.5 43,-42.5"/>
<text text-anchor="start" x="50" y="-53.9" font-family="Arial" font-size="14.00" fill="#000000">status_updated_at    </text>
<text text-anchor="start" x="199.3758" y="-53.9" font-family="Arial" font-size="14.00" fill="#666666">[datetime]</text>
</g>
<!-- sk_questions&#45;&gt;sk_lessor_parents -->
<g id="edge1" class="edge">
<title>sk_questions:lessor_parent_id&#45;&gt;sk_lessor_parents:user_id</title>
<path fill="none" stroke="#000000" d="M416.2056,-2405.5625C484.422,-2380.8238 587.1432,-2127.5 523,-2127.5"/>
<polygon fill="#000000" stroke="#000000" points="415.8245,-2405.6347 405.1606,-2403.079 410.9123,-2406.5674 406,-2407.5 406,-2407.5 406,-2407.5 410.9123,-2406.5674 406.8394,-2411.921 415.8245,-2405.6347 415.8245,-2405.6347"/>
<text text-anchor="start" x="412.5405" y="-2417.5" font-family="Arial" font-size="10.00" fill="#000000">FOREIGN KEY (lessor_parent_id) REFERENCES sk_lessor_parents (user_id)</text>
</g>
</g>
</svg>
