<?xml version="1.0" encoding="UTF-8" standalone="no"?>
<!DOCTYPE svg PUBLIC "-//W3C//DTD SVG 1.1//EN"
 "http://www.w3.org/Graphics/SVG/1.1/DTD/svg11.dtd">
<!-- Generated by graphviz version 2.40.1 (20161225.0304)
 -->
<!-- Title: sk_room_charge_utility_times Pages: 1 -->
<svg width="696pt" height="2212pt"
 viewBox="0.00 0.00 695.50 2212.00" xmlns="http://www.w3.org/2000/svg" xmlns:xlink="http://www.w3.org/1999/xlink">
<g id="graph0" class="graph" transform="scale(1 1) rotate(0) translate(4 2208)">
<title>sk_room_charge_utility_times</title>
<polygon fill="#ffffff" stroke="transparent" points="-4,4 -4,-2208 691.5,-2208 691.5,4 -4,4"/>
<!-- sk_room_charge_utility_times -->
<g id="node1" class="node">
<title>sk_room_charge_utility_times</title>
<polygon fill="#efefef" stroke="transparent" points="46.5,-2122.5 46.5,-2157.5 425.5,-2157.5 425.5,-2122.5 46.5,-2122.5"/>
<polygon fill="none" stroke="#000000" points="46.5,-2122.5 46.5,-2157.5 425.5,-2157.5 425.5,-2122.5 46.5,-2122.5"/>
<text text-anchor="start" x="53.2027" y="-2135.3" font-family="Arial Bold" font-size="18.00" fill="#000000">sk_room_charge_utility_times</text>
<text text-anchor="start" x="291.2293" y="-2135.3" font-family="Arial" font-size="14.00" fill="#000000">    </text>
<text text-anchor="start" x="325.4341" y="-2135.3" font-family="Arial" font-size="14.00" fill="#666666">[BASE TABLE]</text>
<polygon fill="none" stroke="#000000" points="46.5,-2092.5 46.5,-2122.5 425.5,-2122.5 425.5,-2092.5 46.5,-2092.5"/>
<text text-anchor="start" x="53.5" y="-2103.9" font-family="Arial" font-size="14.00" fill="#000000">id </text>
<text text-anchor="start" x="68.2798" y="-2103.9" font-family="Arial" font-size="14.00" fill="#666666">[int(11) unsigned]</text>
<polygon fill="none" stroke="#000000" points="46.5,-2062.5 46.5,-2092.5 425.5,-2092.5 425.5,-2062.5 46.5,-2062.5"/>
<text text-anchor="start" x="53.5" y="-2073.9" font-family="Arial" font-size="14.00" fill="#000000">room_id </text>
<text text-anchor="start" x="107.9488" y="-2073.9" font-family="Arial" font-size="14.00" fill="#666666">[int(11) unsigned]</text>
<polygon fill="none" stroke="#000000" points="46.5,-2032.5 46.5,-2062.5 425.5,-2062.5 425.5,-2032.5 46.5,-2032.5"/>
<text text-anchor="start" x="53.5" y="-2043.9" font-family="Arial" font-size="14.00" fill="#000000">utility_time </text>
<text text-anchor="start" x="123.4972" y="-2043.9" font-family="Arial" font-size="14.00" fill="#666666">[smallint(6)]</text>
<polygon fill="none" stroke="#000000" points="46.5,-2002.5 46.5,-2032.5 425.5,-2032.5 425.5,-2002.5 46.5,-2002.5"/>
<text text-anchor="start" x="53.5" y="-2013.9" font-family="Arial" font-size="14.00" fill="#000000">minute </text>
<text text-anchor="start" x="99.3962" y="-2013.9" font-family="Arial" font-size="14.00" fill="#666666">[smallint(6)]</text>
<polygon fill="none" stroke="#000000" points="46.5,-1972.5 46.5,-2002.5 425.5,-2002.5 425.5,-1972.5 46.5,-1972.5"/>
<text text-anchor="start" x="53.5" y="-1983.9" font-family="Arial" font-size="14.00" fill="#000000">price </text>
<text text-anchor="start" x="87.723" y="-1983.9" font-family="Arial" font-size="14.00" fill="#666666">[int(11)]</text>
<polygon fill="none" stroke="#000000" stroke-width="3" points="44.5,-1971.5 44.5,-2159.5 426.5,-2159.5 426.5,-1971.5 44.5,-1971.5"/>
</g>
<!-- sk_rooms -->
<g id="node2" class="node">
<title>sk_rooms</title>
<polygon fill="#efefef" stroke="transparent" points="80.5,-1812.5 80.5,-1847.5 392.5,-1847.5 392.5,-1812.5 80.5,-1812.5"/>
<polygon fill="none" stroke="#000000" points="80.5,-1812.5 80.5,-1847.5 392.5,-1847.5 392.5,-1812.5 80.5,-1812.5"/>
<text text-anchor="start" x="133.7145" y="-1825.3" font-family="Arial Bold" font-size="18.00" fill="#000000">sk_rooms</text>
<text text-anchor="start" x="211.7175" y="-1825.3" font-family="Arial" font-size="14.00" fill="#000000">    </text>
<text text-anchor="start" x="245.9223" y="-1825.3" font-family="Arial" font-size="14.00" fill="#666666">[BASE TABLE]</text>
<polygon fill="none" stroke="#000000" points="80.5,-1782.5 80.5,-1812.5 392.5,-1812.5 392.5,-1782.5 80.5,-1782.5"/>
<text text-anchor="start" x="87.5" y="-1793.9" font-family="Arial" font-size="14.00" fill="#000000">id    </text>
<text text-anchor="start" x="132.594" y="-1793.9" font-family="Arial" font-size="14.00" fill="#666666">[int(11) unsigned]</text>
<polygon fill="none" stroke="#000000" points="80.5,-1752.5 80.5,-1782.5 392.5,-1782.5 392.5,-1752.5 80.5,-1752.5"/>
<text text-anchor="start" x="87.5" y="-1763.9" font-family="Arial" font-size="14.00" fill="#000000">is_deleted    </text>
<text text-anchor="start" x="185.5042" y="-1763.9" font-family="Arial" font-size="14.00" fill="#666666">[tinyint(1)]</text>
<polygon fill="none" stroke="#000000" points="80.5,-1722.5 80.5,-1752.5 392.5,-1752.5 392.5,-1722.5 80.5,-1722.5"/>
<text text-anchor="start" x="87.5" y="-1733.9" font-family="Arial" font-size="14.00" fill="#000000">is_public    </text>
<text text-anchor="start" x="176.155" y="-1733.9" font-family="Arial" font-size="14.00" fill="#666666">[tinyint(1)]</text>
<polygon fill="none" stroke="#000000" points="80.5,-1692.5 80.5,-1722.5 392.5,-1722.5 392.5,-1692.5 80.5,-1692.5"/>
<text text-anchor="start" x="87.5" y="-1703.9" font-family="Arial" font-size="14.00" fill="#000000">is_set    </text>
<text text-anchor="start" x="158.2672" y="-1703.9" font-family="Arial" font-size="14.00" fill="#666666">[tinyint(1)]</text>
<polygon fill="none" stroke="#000000" points="80.5,-1662.5 80.5,-1692.5 392.5,-1692.5 392.5,-1662.5 80.5,-1662.5"/>
<text text-anchor="start" x="87.5" y="-1673.9" font-family="Arial" font-size="14.00" fill="#000000">property_id    </text>
<text text-anchor="start" x="191.7188" y="-1673.9" font-family="Arial" font-size="14.00" fill="#666666">[int(11) unsigned]</text>
<polygon fill="none" stroke="#000000" points="80.5,-1632.5 80.5,-1662.5 392.5,-1662.5 392.5,-1632.5 80.5,-1632.5"/>
<text text-anchor="start" x="87.5" y="-1643.9" font-family="Arial" font-size="14.00" fill="#000000">lessor_id    </text>
<text text-anchor="start" x="177.709" y="-1643.9" font-family="Arial" font-size="14.00" fill="#666666">[int(11) unsigned]</text>
<polygon fill="none" stroke="#000000" points="80.5,-1602.5 80.5,-1632.5 392.5,-1632.5 392.5,-1602.5 80.5,-1602.5"/>
<text text-anchor="start" x="87.5" y="-1613.9" font-family="Arial" font-size="14.00" fill="#000000">name    </text>
<text text-anchor="start" x="156.7132" y="-1613.9" font-family="Arial" font-size="14.00" fill="#666666">[varchar(200)]</text>
<polygon fill="none" stroke="#000000" points="80.5,-1572.5 80.5,-1602.5 392.5,-1602.5 392.5,-1572.5 80.5,-1572.5"/>
<text text-anchor="start" x="87.5" y="-1583.9" font-family="Arial" font-size="14.00" fill="#000000">voice_name    </text>
<text text-anchor="start" x="197.1676" y="-1583.9" font-family="Arial" font-size="14.00" fill="#666666">[varchar(200)]</text>
<polygon fill="none" stroke="#000000" points="80.5,-1542.5 80.5,-1572.5 392.5,-1572.5 392.5,-1542.5 80.5,-1542.5"/>
<text text-anchor="start" x="87.5" y="-1553.9" font-family="Arial" font-size="14.00" fill="#000000">description_url    </text>
<text text-anchor="start" x="212.7146" y="-1553.9" font-family="Arial" font-size="14.00" fill="#666666">[varchar(1000)]</text>
<polygon fill="none" stroke="#000000" points="80.5,-1512.5 80.5,-1542.5 392.5,-1542.5 392.5,-1512.5 80.5,-1512.5"/>
<text text-anchor="start" x="87.5" y="-1523.9" font-family="Arial" font-size="14.00" fill="#000000">exclusive_area    </text>
<text text-anchor="start" x="215.0568" y="-1523.9" font-family="Arial" font-size="14.00" fill="#666666">[decimal(10,2)]</text>
<polygon fill="none" stroke="#000000" points="80.5,-1482.5 80.5,-1512.5 392.5,-1512.5 392.5,-1482.5 80.5,-1482.5"/>
<text text-anchor="start" x="87.5" y="-1493.9" font-family="Arial" font-size="14.00" fill="#000000">ceiling_height    </text>
<text text-anchor="start" x="207.2826" y="-1493.9" font-family="Arial" font-size="14.00" fill="#666666">[decimal(10,2)]</text>
<polygon fill="none" stroke="#000000" points="80.5,-1452.5 80.5,-1482.5 392.5,-1482.5 392.5,-1452.5 80.5,-1452.5"/>
<text text-anchor="start" x="87.5" y="-1463.9" font-family="Arial" font-size="14.00" fill="#000000">floor    </text>
<text text-anchor="start" x="148.9278" y="-1463.9" font-family="Arial" font-size="14.00" fill="#666666">[smallint(5)]</text>
<polygon fill="none" stroke="#000000" points="80.5,-1422.5 80.5,-1452.5 392.5,-1452.5 392.5,-1422.5 80.5,-1422.5"/>
<text text-anchor="start" x="87.5" y="-1433.9" font-family="Arial" font-size="14.00" fill="#000000">minimum_time    </text>
<text text-anchor="start" x="212.688" y="-1433.9" font-family="Arial" font-size="14.00" fill="#666666">[time]</text>
<polygon fill="none" stroke="#000000" points="80.5,-1392.5 80.5,-1422.5 392.5,-1422.5 392.5,-1392.5 80.5,-1392.5"/>
<text text-anchor="start" x="87.5" y="-1403.9" font-family="Arial" font-size="14.00" fill="#000000">maximum_time    </text>
<text text-anchor="start" x="216.5814" y="-1403.9" font-family="Arial" font-size="14.00" fill="#666666">[time]</text>
<polygon fill="none" stroke="#000000" points="80.5,-1362.5 80.5,-1392.5 392.5,-1392.5 392.5,-1362.5 80.5,-1362.5"/>
<text text-anchor="start" x="87.5" y="-1373.9" font-family="Arial" font-size="14.00" fill="#000000">start_date    </text>
<text text-anchor="start" x="183.9502" y="-1373.9" font-family="Arial" font-size="14.00" fill="#666666">[date]</text>
<polygon fill="none" stroke="#000000" points="80.5,-1332.5 80.5,-1362.5 392.5,-1362.5 392.5,-1332.5 80.5,-1332.5"/>
<text text-anchor="start" x="87.5" y="-1343.9" font-family="Arial" font-size="14.00" fill="#000000">end_date    </text>
<text text-anchor="start" x="180.0736" y="-1343.9" font-family="Arial" font-size="14.00" fill="#666666">[date]</text>
<polygon fill="none" stroke="#000000" points="80.5,-1302.5 80.5,-1332.5 392.5,-1332.5 392.5,-1302.5 80.5,-1302.5"/>
<text text-anchor="start" x="87.5" y="-1313.9" font-family="Arial" font-size="14.00" fill="#000000">is_ninjalock    </text>
<text text-anchor="start" x="194.0442" y="-1313.9" font-family="Arial" font-size="14.00" fill="#666666">[tinyint(1)]</text>
<polygon fill="none" stroke="#000000" points="80.5,-1272.5 80.5,-1302.5 392.5,-1302.5 392.5,-1272.5 80.5,-1272.5"/>
<text text-anchor="start" x="87.5" y="-1283.9" font-family="Arial" font-size="14.00" fill="#000000">is_display_entrance_note    </text>
<text text-anchor="start" x="280.4228" y="-1283.9" font-family="Arial" font-size="14.00" fill="#666666">[tinyint(1)]</text>
<polygon fill="none" stroke="#000000" points="80.5,-1242.5 80.5,-1272.5 392.5,-1272.5 392.5,-1242.5 80.5,-1242.5"/>
<text text-anchor="start" x="87.1487" y="-1253.9" font-family="Arial" font-size="14.00" fill="#000000">is_using_custom_business_hour    </text>
<text text-anchor="start" x="324.4067" y="-1253.9" font-family="Arial" font-size="14.00" fill="#666666">[tinyint(1)]</text>
<polygon fill="none" stroke="#000000" points="80.5,-1212.5 80.5,-1242.5 392.5,-1242.5 392.5,-1212.5 80.5,-1212.5"/>
<text text-anchor="start" x="87.5" y="-1223.9" font-family="Arial" font-size="14.00" fill="#000000">has_local_area_network    </text>
<text text-anchor="start" x="273.4102" y="-1223.9" font-family="Arial" font-size="14.00" fill="#666666">[tinyint(1)]</text>
<polygon fill="none" stroke="#000000" points="80.5,-1182.5 80.5,-1212.5 392.5,-1212.5 392.5,-1182.5 80.5,-1182.5"/>
<text text-anchor="start" x="87.5" y="-1193.9" font-family="Arial" font-size="14.00" fill="#000000">basic_price    </text>
<text text-anchor="start" x="192.4916" y="-1193.9" font-family="Arial" font-size="14.00" fill="#666666">[int(11) unsigned]</text>
<polygon fill="none" stroke="#000000" points="80.5,-1152.5 80.5,-1182.5 392.5,-1182.5 392.5,-1152.5 80.5,-1152.5"/>
<text text-anchor="start" x="87.5" y="-1163.9" font-family="Arial" font-size="14.00" fill="#000000">extend_price    </text>
<text text-anchor="start" x="201.8408" y="-1163.9" font-family="Arial" font-size="14.00" fill="#666666">[int(11)]</text>
<polygon fill="none" stroke="#000000" points="80.5,-1122.5 80.5,-1152.5 392.5,-1152.5 392.5,-1122.5 80.5,-1122.5"/>
<text text-anchor="start" x="87.5" y="-1133.9" font-family="Arial" font-size="14.00" fill="#000000">max_price    </text>
<text text-anchor="start" x="186.263" y="-1133.9" font-family="Arial" font-size="14.00" fill="#666666">[int(11)]</text>
<polygon fill="none" stroke="#000000" points="80.5,-1092.5 80.5,-1122.5 392.5,-1122.5 392.5,-1092.5 80.5,-1092.5"/>
<text text-anchor="start" x="87.5" y="-1103.9" font-family="Arial" font-size="14.00" fill="#000000">memo    </text>
<text text-anchor="start" x="160.5912" y="-1103.9" font-family="Arial" font-size="14.00" fill="#666666">[varchar(2000)]</text>
<polygon fill="none" stroke="#000000" points="80.5,-1062.5 80.5,-1092.5 392.5,-1092.5 392.5,-1062.5 80.5,-1062.5"/>
<text text-anchor="start" x="87.5" y="-1073.9" font-family="Arial" font-size="14.00" fill="#000000">floor_position    </text>
<text text-anchor="start" x="204.9446" y="-1073.9" font-family="Arial" font-size="14.00" fill="#666666">[smallint(5)]</text>
<polygon fill="none" stroke="#000000" points="80.5,-1032.5 80.5,-1062.5 392.5,-1062.5 392.5,-1032.5 80.5,-1032.5"/>
<text text-anchor="start" x="87.5" y="-1043.9" font-family="Arial" font-size="14.00" fill="#000000">is_tablet_linked    </text>
<text text-anchor="start" x="218.1732" y="-1043.9" font-family="Arial" font-size="14.00" fill="#666666">[int(11)]</text>
<polygon fill="none" stroke="#000000" points="80.5,-1002.5 80.5,-1032.5 392.5,-1032.5 392.5,-1002.5 80.5,-1002.5"/>
<text text-anchor="start" x="87.5" y="-1013.9" font-family="Arial" font-size="14.00" fill="#000000">batch_mail    </text>
<text text-anchor="start" x="189.3822" y="-1013.9" font-family="Arial" font-size="14.00" fill="#666666">[int(11)]</text>
<polygon fill="none" stroke="#000000" points="80.5,-972.5 80.5,-1002.5 392.5,-1002.5 392.5,-972.5 80.5,-972.5"/>
<text text-anchor="start" x="87.5" y="-983.9" font-family="Arial" font-size="14.00" fill="#000000">batch_mail_owner    </text>
<text text-anchor="start" x="235.2798" y="-983.9" font-family="Arial" font-size="14.00" fill="#666666">[int(11)]</text>
<polygon fill="none" stroke="#000000" points="80.5,-942.5 80.5,-972.5 392.5,-972.5 392.5,-942.5 80.5,-942.5"/>
<text text-anchor="start" x="87.5" y="-953.9" font-family="Arial" font-size="14.00" fill="#000000">guide_text    </text>
<text text-anchor="start" x="186.2882" y="-953.9" font-family="Arial" font-size="14.00" fill="#666666">[text]</text>
<polygon fill="none" stroke="#000000" points="80.5,-912.5 80.5,-942.5 392.5,-942.5 392.5,-912.5 80.5,-912.5"/>
<text text-anchor="start" x="87.5" y="-923.9" font-family="Arial" font-size="14.00" fill="#000000">eating_text    </text>
<text text-anchor="start" x="190.1788" y="-923.9" font-family="Arial" font-size="14.00" fill="#666666">[varchar(1000)]</text>
<polygon fill="none" stroke="#000000" points="80.5,-882.5 80.5,-912.5 392.5,-912.5 392.5,-882.5 80.5,-882.5"/>
<text text-anchor="start" x="87.5" y="-893.9" font-family="Arial" font-size="14.00" fill="#000000">cleanup_text    </text>
<text text-anchor="start" x="201.0708" y="-893.9" font-family="Arial" font-size="14.00" fill="#666666">[varchar(1000)]</text>
<polygon fill="none" stroke="#000000" points="80.5,-852.5 80.5,-882.5 392.5,-882.5 392.5,-852.5 80.5,-852.5"/>
<text text-anchor="start" x="87.5" y="-863.9" font-family="Arial" font-size="14.00" fill="#000000">facility_text    </text>
<text text-anchor="start" x="190.9348" y="-863.9" font-family="Arial" font-size="14.00" fill="#666666">[varchar(1000)]</text>
<polygon fill="none" stroke="#000000" points="80.5,-822.5 80.5,-852.5 392.5,-852.5 392.5,-822.5 80.5,-822.5"/>
<text text-anchor="start" x="87.5" y="-833.9" font-family="Arial" font-size="14.00" fill="#000000">change_layout    </text>
<text text-anchor="start" x="212.7454" y="-833.9" font-family="Arial" font-size="14.00" fill="#666666">[smallint(2)]</text>
<polygon fill="none" stroke="#000000" points="80.5,-792.5 80.5,-822.5 392.5,-822.5 392.5,-792.5 80.5,-792.5"/>
<text text-anchor="start" x="87.5" y="-803.9" font-family="Arial" font-size="14.00" fill="#000000">reservation_unit_an_hour    </text>
<text text-anchor="start" x="280.42" y="-803.9" font-family="Arial" font-size="14.00" fill="#666666">[tinyint(1)]</text>
<polygon fill="none" stroke="#000000" points="80.5,-762.5 80.5,-792.5 392.5,-792.5 392.5,-762.5 80.5,-762.5"/>
<text text-anchor="start" x="87.5" y="-773.9" font-family="Arial" font-size="14.00" fill="#000000">payment_period    </text>
<text text-anchor="start" x="222.0666" y="-773.9" font-family="Arial" font-size="14.00" fill="#666666">[int(11)]</text>
<polygon fill="none" stroke="#000000" points="80.5,-732.5 80.5,-762.5 392.5,-762.5 392.5,-732.5 80.5,-732.5"/>
<text text-anchor="start" x="87.5" y="-743.9" font-family="Arial" font-size="14.00" fill="#000000">sort_order    </text>
<text text-anchor="start" x="185.4902" y="-743.9" font-family="Arial" font-size="14.00" fill="#666666">[int(11)]</text>
<polygon fill="none" stroke="#000000" points="80.5,-702.5 80.5,-732.5 392.5,-732.5 392.5,-702.5 80.5,-702.5"/>
<text text-anchor="start" x="87.5" y="-713.9" font-family="Arial" font-size="14.00" fill="#000000">allow_tentative    </text>
<text text-anchor="start" x="214.2812" y="-713.9" font-family="Arial" font-size="14.00" fill="#666666">[tinyint(1)]</text>
<polygon fill="none" stroke="#000000" points="80.5,-672.5 80.5,-702.5 392.5,-702.5 392.5,-672.5 80.5,-672.5"/>
<text text-anchor="start" x="87.5" y="-683.9" font-family="Arial" font-size="14.00" fill="#000000">allow_change_reserved    </text>
<text text-anchor="start" x="269.5196" y="-683.9" font-family="Arial" font-size="14.00" fill="#666666">[tinyint(1)]</text>
<polygon fill="none" stroke="#000000" points="80.5,-642.5 80.5,-672.5 392.5,-672.5 392.5,-642.5 80.5,-642.5"/>
<text text-anchor="start" x="87.5" y="-653.9" font-family="Arial" font-size="14.00" fill="#000000">allow_extend_reservation    </text>
<text text-anchor="start" x="280.4074" y="-653.9" font-family="Arial" font-size="14.00" fill="#666666">[tinyint(1)]</text>
<polygon fill="none" stroke="#000000" points="80.5,-612.5 80.5,-642.5 392.5,-642.5 392.5,-612.5 80.5,-612.5"/>
<text text-anchor="start" x="87.5" y="-623.9" font-family="Arial" font-size="14.00" fill="#000000">change_reserved_limit_date    </text>
<text text-anchor="start" x="297.5266" y="-623.9" font-family="Arial" font-size="14.00" fill="#666666">[int(11)]</text>
<polygon fill="none" stroke="#000000" points="80.5,-582.5 80.5,-612.5 392.5,-612.5 392.5,-582.5 80.5,-582.5"/>
<text text-anchor="start" x="87.5" y="-593.9" font-family="Arial" font-size="14.00" fill="#000000">tentative_period    </text>
<text text-anchor="start" x="221.2938" y="-593.9" font-family="Arial" font-size="14.00" fill="#666666">[int(11)]</text>
<polygon fill="none" stroke="#000000" points="80.5,-552.5 80.5,-582.5 392.5,-582.5 392.5,-552.5 80.5,-552.5"/>
<text text-anchor="start" x="87.5" y="-563.9" font-family="Arial" font-size="14.00" fill="#000000">tentative_limit_date    </text>
<text text-anchor="start" x="242.2882" y="-563.9" font-family="Arial" font-size="14.00" fill="#666666">[int(11)]</text>
<polygon fill="none" stroke="#000000" points="80.5,-522.5 80.5,-552.5 392.5,-552.5 392.5,-522.5 80.5,-522.5"/>
<text text-anchor="start" x="87.5" y="-533.9" font-family="Arial" font-size="14.00" fill="#000000">include_tax    </text>
<text text-anchor="start" x="192.5042" y="-533.9" font-family="Arial" font-size="14.00" fill="#666666">[tinyint(1)]</text>
<polygon fill="none" stroke="#000000" points="80.5,-492.5 80.5,-522.5 392.5,-522.5 392.5,-492.5 80.5,-492.5"/>
<text text-anchor="start" x="87.5" y="-503.9" font-family="Arial" font-size="14.00" fill="#000000">ninjalock_serial    </text>
<text text-anchor="start" x="217.3766" y="-503.9" font-family="Arial" font-size="14.00" fill="#666666">[varchar(24)]</text>
<polygon fill="none" stroke="#000000" points="80.5,-462.5 80.5,-492.5 392.5,-492.5 392.5,-462.5 80.5,-462.5"/>
<text text-anchor="start" x="87.5" y="-473.9" font-family="Arial" font-size="14.00" fill="#000000">created_datetime    </text>
<text text-anchor="start" x="229.8478" y="-473.9" font-family="Arial" font-size="14.00" fill="#666666">[timestamp]</text>
<polygon fill="none" stroke="#000000" points="80.5,-432.5 80.5,-462.5 392.5,-462.5 392.5,-432.5 80.5,-432.5"/>
<text text-anchor="start" x="87.5" y="-443.9" font-family="Arial" font-size="14.00" fill="#000000">updated_datetime    </text>
<text text-anchor="start" x="233.7524" y="-443.9" font-family="Arial" font-size="14.00" fill="#666666">[timestamp]</text>
<polygon fill="none" stroke="#000000" points="80.5,-402.5 80.5,-432.5 392.5,-432.5 392.5,-402.5 80.5,-402.5"/>
<text text-anchor="start" x="87.5" y="-413.9" font-family="Arial" font-size="14.00" fill="#000000">start_reservable_time    </text>
<text text-anchor="start" x="256.2756" y="-413.9" font-family="Arial" font-size="14.00" fill="#666666">[smallint(3)]</text>
<polygon fill="none" stroke="#000000" points="80.5,-372.5 80.5,-402.5 392.5,-402.5 392.5,-372.5 80.5,-372.5"/>
<text text-anchor="start" x="87.5" y="-383.9" font-family="Arial" font-size="14.00" fill="#000000">end_reservable_time    </text>
<text text-anchor="start" x="252.399" y="-383.9" font-family="Arial" font-size="14.00" fill="#666666">[smallint(3)]</text>
<polygon fill="none" stroke="#000000" points="80.5,-342.5 80.5,-372.5 392.5,-372.5 392.5,-342.5 80.5,-342.5"/>
<text text-anchor="start" x="87.5" y="-353.9" font-family="Arial" font-size="14.00" fill="#000000">is_set_reservable_time    </text>
<text text-anchor="start" x="265.6136" y="-353.9" font-family="Arial" font-size="14.00" fill="#666666">[tinyint(1)]</text>
<polygon fill="none" stroke="#000000" points="80.5,-312.5 80.5,-342.5 392.5,-342.5 392.5,-312.5 80.5,-312.5"/>
<text text-anchor="start" x="87.5" y="-323.9" font-family="Arial" font-size="14.00" fill="#000000">is_buffer_time_setting_enabled    </text>
<text text-anchor="start" x="316.2096" y="-323.9" font-family="Arial" font-size="14.00" fill="#666666">[tinyint(1)]</text>
<polygon fill="none" stroke="#000000" points="80.5,-282.5 80.5,-312.5 392.5,-312.5 392.5,-282.5 80.5,-282.5"/>
<text text-anchor="start" x="87.5" y="-293.9" font-family="Arial" font-size="14.00" fill="#000000">buffer_time    </text>
<text text-anchor="start" x="191.7174" y="-293.9" font-family="Arial" font-size="14.00" fill="#666666">[time]</text>
<polygon fill="none" stroke="#000000" points="80.5,-252.5 80.5,-282.5 392.5,-282.5 392.5,-252.5 80.5,-252.5"/>
<text text-anchor="start" x="87.5" y="-263.9" font-family="Arial" font-size="14.00" fill="#000000">buffer_time_control    </text>
<text text-anchor="start" x="241.5056" y="-263.9" font-family="Arial" font-size="14.00" fill="#666666">[smallint(3)]</text>
<polygon fill="none" stroke="#000000" points="80.5,-222.5 80.5,-252.5 392.5,-252.5 392.5,-222.5 80.5,-222.5"/>
<text text-anchor="start" x="87.5" y="-233.9" font-family="Arial" font-size="14.00" fill="#000000">is_one_day_rental_enabled    </text>
<text text-anchor="start" x="293.6626" y="-233.9" font-family="Arial" font-size="14.00" fill="#666666">[tinyint(1)]</text>
<polygon fill="none" stroke="#000000" points="80.5,-192.5 80.5,-222.5 392.5,-222.5 392.5,-192.5 80.5,-192.5"/>
<text text-anchor="start" x="87.5" y="-203.9" font-family="Arial" font-size="14.00" fill="#000000">owner_buffer_time    </text>
<text text-anchor="start" x="237.615" y="-203.9" font-family="Arial" font-size="14.00" fill="#666666">[time]</text>
<polygon fill="none" stroke="#000000" points="80.5,-162.5 80.5,-192.5 392.5,-192.5 392.5,-162.5 80.5,-162.5"/>
<text text-anchor="start" x="87.5" y="-173.9" font-family="Arial" font-size="14.00" fill="#000000">external_buffer_time    </text>
<text text-anchor="start" x="249.2882" y="-173.9" font-family="Arial" font-size="14.00" fill="#666666">[time]</text>
<polygon fill="none" stroke="#000000" points="80.5,-132.5 80.5,-162.5 392.5,-162.5 392.5,-132.5 80.5,-132.5"/>
<text text-anchor="start" x="87.5" y="-143.9" font-family="Arial" font-size="14.00" fill="#000000">owner_buffer_time_control    </text>
<text text-anchor="start" x="287.4032" y="-143.9" font-family="Arial" font-size="14.00" fill="#666666">[smallint(3)]</text>
<polygon fill="none" stroke="#000000" points="80.5,-102.5 80.5,-132.5 392.5,-132.5 392.5,-102.5 80.5,-102.5"/>
<text text-anchor="start" x="87.5" y="-113.9" font-family="Arial" font-size="14.00" fill="#000000">external_buffer_time_control    </text>
<text text-anchor="start" x="299.0764" y="-113.9" font-family="Arial" font-size="14.00" fill="#666666">[smallint(3)]</text>
<polygon fill="none" stroke="#000000" points="80.5,-72.5 80.5,-102.5 392.5,-102.5 392.5,-72.5 80.5,-72.5"/>
<text text-anchor="start" x="87.5" y="-83.9" font-family="Arial" font-size="14.00" fill="#000000">is_lottery_setting_enabled    </text>
<text text-anchor="start" x="284.3106" y="-83.9" font-family="Arial" font-size="14.00" fill="#666666">[tinyint(1)]</text>
<polygon fill="none" stroke="#000000" points="80.5,-42.5 80.5,-72.5 392.5,-72.5 392.5,-42.5 80.5,-42.5"/>
<text text-anchor="start" x="87.5" y="-53.9" font-family="Arial" font-size="14.00" fill="#000000">lottery_period    </text>
<text text-anchor="start" x="206.4986" y="-53.9" font-family="Arial" font-size="14.00" fill="#666666">[int(5)]</text>
</g>
<!-- sk_room_charge_utility_times&#45;&gt;sk_rooms -->
<g id="edge1" class="edge">
<title>sk_room_charge_utility_times:room_id&#45;&gt;sk_rooms:id</title>
<path fill="none" stroke="#000000" d="M435.6863,-2076.6204C489.9025,-2066.6269 467.8273,-1973.9739 425.5,-1927 373.9,-1869.7355 132.1,-1948.2645 80.5,-1891 52.6824,-1860.1286 38.9444,-1797.5 80.5,-1797.5"/>
<polygon fill="#000000" stroke="#000000" points="435.4629,-2076.6396 425.1128,-2073.0167 430.4815,-2077.0698 425.5,-2077.5 425.5,-2077.5 425.5,-2077.5 430.4815,-2077.0698 425.8872,-2081.9833 435.4629,-2076.6396 435.4629,-2076.6396"/>
<text text-anchor="start" x="432.3365" y="-2087.5" font-family="Arial" font-size="10.00" fill="#000000">FOREIGN KEY (room_id) REFERENCES sk_rooms (id)</text>
</g>
</g>
</svg>
