<?xml version="1.0" encoding="UTF-8" standalone="no"?>
<!DOCTYPE svg PUBLIC "-//W3C//DTD SVG 1.1//EN"
 "http://www.w3.org/Graphics/SVG/1.1/DTD/svg11.dtd">
<!-- Generated by graphviz version 2.40.1 (20161225.0304)
 -->
<!-- Title: sk_room_charge_days Pages: 1 -->
<svg width="640pt" height="2182pt"
 viewBox="0.00 0.00 639.50 2182.00" xmlns="http://www.w3.org/2000/svg" xmlns:xlink="http://www.w3.org/1999/xlink">
<g id="graph0" class="graph" transform="scale(1 1) rotate(0) translate(4 2178)">
<title>sk_room_charge_days</title>
<polygon fill="#ffffff" stroke="transparent" points="-4,4 -4,-2178 635.5,-2178 635.5,4 -4,4"/>
<!-- sk_room_charge_days -->
<g id="node1" class="node">
<title>sk_room_charge_days</title>
<polygon fill="#efefef" stroke="transparent" points="46.5,-2092.5 46.5,-2127.5 369.5,-2127.5 369.5,-2092.5 46.5,-2092.5"/>
<polygon fill="none" stroke="#000000" points="46.5,-2092.5 46.5,-2127.5 369.5,-2127.5 369.5,-2092.5 46.5,-2092.5"/>
<text text-anchor="start" x="53.1936" y="-2105.3" font-family="Arial Bold" font-size="18.00" fill="#000000">sk_room_charge_days</text>
<text text-anchor="start" x="235.2384" y="-2105.3" font-family="Arial" font-size="14.00" fill="#000000">    </text>
<text text-anchor="start" x="269.4432" y="-2105.3" font-family="Arial" font-size="14.00" fill="#666666">[BASE TABLE]</text>
<polygon fill="none" stroke="#000000" points="46.5,-2062.5 46.5,-2092.5 369.5,-2092.5 369.5,-2062.5 46.5,-2062.5"/>
<text text-anchor="start" x="53.5" y="-2073.9" font-family="Arial" font-size="14.00" fill="#000000">id </text>
<text text-anchor="start" x="68.2798" y="-2073.9" font-family="Arial" font-size="14.00" fill="#666666">[int(11) unsigned]</text>
<polygon fill="none" stroke="#000000" points="46.5,-2032.5 46.5,-2062.5 369.5,-2062.5 369.5,-2032.5 46.5,-2032.5"/>
<text text-anchor="start" x="53.5" y="-2043.9" font-family="Arial" font-size="14.00" fill="#000000">room_id </text>
<text text-anchor="start" x="107.9488" y="-2043.9" font-family="Arial" font-size="14.00" fill="#666666">[int(11) unsigned]</text>
<polygon fill="none" stroke="#000000" points="46.5,-2002.5 46.5,-2032.5 369.5,-2032.5 369.5,-2002.5 46.5,-2002.5"/>
<text text-anchor="start" x="53.5" y="-2013.9" font-family="Arial" font-size="14.00" fill="#000000">day </text>
<text text-anchor="start" x="79.9558" y="-2013.9" font-family="Arial" font-size="14.00" fill="#666666">[date]</text>
<polygon fill="none" stroke="#000000" points="46.5,-1972.5 46.5,-2002.5 369.5,-2002.5 369.5,-1972.5 46.5,-1972.5"/>
<text text-anchor="start" x="53.5" y="-1983.9" font-family="Arial" font-size="14.00" fill="#000000">price </text>
<text text-anchor="start" x="87.723" y="-1983.9" font-family="Arial" font-size="14.00" fill="#666666">[int(11)]</text>
<polygon fill="none" stroke="#000000" stroke-width="3" points="44.5,-1971.5 44.5,-2129.5 370.5,-2129.5 370.5,-1971.5 44.5,-1971.5"/>
</g>
<!-- sk_rooms -->
<g id="node2" class="node">
<title>sk_rooms</title>
<polygon fill="#efefef" stroke="transparent" points="52.5,-1812.5 52.5,-1847.5 364.5,-1847.5 364.5,-1812.5 52.5,-1812.5"/>
<polygon fill="none" stroke="#000000" points="52.5,-1812.5 52.5,-1847.5 364.5,-1847.5 364.5,-1812.5 52.5,-1812.5"/>
<text text-anchor="start" x="105.7145" y="-1825.3" font-family="Arial Bold" font-size="18.00" fill="#000000">sk_rooms</text>
<text text-anchor="start" x="183.7175" y="-1825.3" font-family="Arial" font-size="14.00" fill="#000000">    </text>
<text text-anchor="start" x="217.9223" y="-1825.3" font-family="Arial" font-size="14.00" fill="#666666">[BASE TABLE]</text>
<polygon fill="none" stroke="#000000" points="52.5,-1782.5 52.5,-1812.5 364.5,-1812.5 364.5,-1782.5 52.5,-1782.5"/>
<text text-anchor="start" x="59.5" y="-1793.9" font-family="Arial" font-size="14.00" fill="#000000">id    </text>
<text text-anchor="start" x="104.594" y="-1793.9" font-family="Arial" font-size="14.00" fill="#666666">[int(11) unsigned]</text>
<polygon fill="none" stroke="#000000" points="52.5,-1752.5 52.5,-1782.5 364.5,-1782.5 364.5,-1752.5 52.5,-1752.5"/>
<text text-anchor="start" x="59.5" y="-1763.9" font-family="Arial" font-size="14.00" fill="#000000">is_deleted    </text>
<text text-anchor="start" x="157.5042" y="-1763.9" font-family="Arial" font-size="14.00" fill="#666666">[tinyint(1)]</text>
<polygon fill="none" stroke="#000000" points="52.5,-1722.5 52.5,-1752.5 364.5,-1752.5 364.5,-1722.5 52.5,-1722.5"/>
<text text-anchor="start" x="59.5" y="-1733.9" font-family="Arial" font-size="14.00" fill="#000000">is_public    </text>
<text text-anchor="start" x="148.155" y="-1733.9" font-family="Arial" font-size="14.00" fill="#666666">[tinyint(1)]</text>
<polygon fill="none" stroke="#000000" points="52.5,-1692.5 52.5,-1722.5 364.5,-1722.5 364.5,-1692.5 52.5,-1692.5"/>
<text text-anchor="start" x="59.5" y="-1703.9" font-family="Arial" font-size="14.00" fill="#000000">is_set    </text>
<text text-anchor="start" x="130.2672" y="-1703.9" font-family="Arial" font-size="14.00" fill="#666666">[tinyint(1)]</text>
<polygon fill="none" stroke="#000000" points="52.5,-1662.5 52.5,-1692.5 364.5,-1692.5 364.5,-1662.5 52.5,-1662.5"/>
<text text-anchor="start" x="59.5" y="-1673.9" font-family="Arial" font-size="14.00" fill="#000000">property_id    </text>
<text text-anchor="start" x="163.7188" y="-1673.9" font-family="Arial" font-size="14.00" fill="#666666">[int(11) unsigned]</text>
<polygon fill="none" stroke="#000000" points="52.5,-1632.5 52.5,-1662.5 364.5,-1662.5 364.5,-1632.5 52.5,-1632.5"/>
<text text-anchor="start" x="59.5" y="-1643.9" font-family="Arial" font-size="14.00" fill="#000000">lessor_id    </text>
<text text-anchor="start" x="149.709" y="-1643.9" font-family="Arial" font-size="14.00" fill="#666666">[int(11) unsigned]</text>
<polygon fill="none" stroke="#000000" points="52.5,-1602.5 52.5,-1632.5 364.5,-1632.5 364.5,-1602.5 52.5,-1602.5"/>
<text text-anchor="start" x="59.5" y="-1613.9" font-family="Arial" font-size="14.00" fill="#000000">name    </text>
<text text-anchor="start" x="128.7132" y="-1613.9" font-family="Arial" font-size="14.00" fill="#666666">[varchar(200)]</text>
<polygon fill="none" stroke="#000000" points="52.5,-1572.5 52.5,-1602.5 364.5,-1602.5 364.5,-1572.5 52.5,-1572.5"/>
<text text-anchor="start" x="59.5" y="-1583.9" font-family="Arial" font-size="14.00" fill="#000000">voice_name    </text>
<text text-anchor="start" x="169.1676" y="-1583.9" font-family="Arial" font-size="14.00" fill="#666666">[varchar(200)]</text>
<polygon fill="none" stroke="#000000" points="52.5,-1542.5 52.5,-1572.5 364.5,-1572.5 364.5,-1542.5 52.5,-1542.5"/>
<text text-anchor="start" x="59.5" y="-1553.9" font-family="Arial" font-size="14.00" fill="#000000">description_url    </text>
<text text-anchor="start" x="184.7146" y="-1553.9" font-family="Arial" font-size="14.00" fill="#666666">[varchar(1000)]</text>
<polygon fill="none" stroke="#000000" points="52.5,-1512.5 52.5,-1542.5 364.5,-1542.5 364.5,-1512.5 52.5,-1512.5"/>
<text text-anchor="start" x="59.5" y="-1523.9" font-family="Arial" font-size="14.00" fill="#000000">exclusive_area    </text>
<text text-anchor="start" x="187.0568" y="-1523.9" font-family="Arial" font-size="14.00" fill="#666666">[decimal(10,2)]</text>
<polygon fill="none" stroke="#000000" points="52.5,-1482.5 52.5,-1512.5 364.5,-1512.5 364.5,-1482.5 52.5,-1482.5"/>
<text text-anchor="start" x="59.5" y="-1493.9" font-family="Arial" font-size="14.00" fill="#000000">ceiling_height    </text>
<text text-anchor="start" x="179.2826" y="-1493.9" font-family="Arial" font-size="14.00" fill="#666666">[decimal(10,2)]</text>
<polygon fill="none" stroke="#000000" points="52.5,-1452.5 52.5,-1482.5 364.5,-1482.5 364.5,-1452.5 52.5,-1452.5"/>
<text text-anchor="start" x="59.5" y="-1463.9" font-family="Arial" font-size="14.00" fill="#000000">floor    </text>
<text text-anchor="start" x="120.9278" y="-1463.9" font-family="Arial" font-size="14.00" fill="#666666">[smallint(5)]</text>
<polygon fill="none" stroke="#000000" points="52.5,-1422.5 52.5,-1452.5 364.5,-1452.5 364.5,-1422.5 52.5,-1422.5"/>
<text text-anchor="start" x="59.5" y="-1433.9" font-family="Arial" font-size="14.00" fill="#000000">minimum_time    </text>
<text text-anchor="start" x="184.688" y="-1433.9" font-family="Arial" font-size="14.00" fill="#666666">[time]</text>
<polygon fill="none" stroke="#000000" points="52.5,-1392.5 52.5,-1422.5 364.5,-1422.5 364.5,-1392.5 52.5,-1392.5"/>
<text text-anchor="start" x="59.5" y="-1403.9" font-family="Arial" font-size="14.00" fill="#000000">maximum_time    </text>
<text text-anchor="start" x="188.5814" y="-1403.9" font-family="Arial" font-size="14.00" fill="#666666">[time]</text>
<polygon fill="none" stroke="#000000" points="52.5,-1362.5 52.5,-1392.5 364.5,-1392.5 364.5,-1362.5 52.5,-1362.5"/>
<text text-anchor="start" x="59.5" y="-1373.9" font-family="Arial" font-size="14.00" fill="#000000">start_date    </text>
<text text-anchor="start" x="155.9502" y="-1373.9" font-family="Arial" font-size="14.00" fill="#666666">[date]</text>
<polygon fill="none" stroke="#000000" points="52.5,-1332.5 52.5,-1362.5 364.5,-1362.5 364.5,-1332.5 52.5,-1332.5"/>
<text text-anchor="start" x="59.5" y="-1343.9" font-family="Arial" font-size="14.00" fill="#000000">end_date    </text>
<text text-anchor="start" x="152.0736" y="-1343.9" font-family="Arial" font-size="14.00" fill="#666666">[date]</text>
<polygon fill="none" stroke="#000000" points="52.5,-1302.5 52.5,-1332.5 364.5,-1332.5 364.5,-1302.5 52.5,-1302.5"/>
<text text-anchor="start" x="59.5" y="-1313.9" font-family="Arial" font-size="14.00" fill="#000000">is_ninjalock    </text>
<text text-anchor="start" x="166.0442" y="-1313.9" font-family="Arial" font-size="14.00" fill="#666666">[tinyint(1)]</text>
<polygon fill="none" stroke="#000000" points="52.5,-1272.5 52.5,-1302.5 364.5,-1302.5 364.5,-1272.5 52.5,-1272.5"/>
<text text-anchor="start" x="59.5" y="-1283.9" font-family="Arial" font-size="14.00" fill="#000000">is_display_entrance_note    </text>
<text text-anchor="start" x="252.4228" y="-1283.9" font-family="Arial" font-size="14.00" fill="#666666">[tinyint(1)]</text>
<polygon fill="none" stroke="#000000" points="52.5,-1242.5 52.5,-1272.5 364.5,-1272.5 364.5,-1242.5 52.5,-1242.5"/>
<text text-anchor="start" x="59.1487" y="-1253.9" font-family="Arial" font-size="14.00" fill="#000000">is_using_custom_business_hour    </text>
<text text-anchor="start" x="296.4067" y="-1253.9" font-family="Arial" font-size="14.00" fill="#666666">[tinyint(1)]</text>
<polygon fill="none" stroke="#000000" points="52.5,-1212.5 52.5,-1242.5 364.5,-1242.5 364.5,-1212.5 52.5,-1212.5"/>
<text text-anchor="start" x="59.5" y="-1223.9" font-family="Arial" font-size="14.00" fill="#000000">has_local_area_network    </text>
<text text-anchor="start" x="245.4102" y="-1223.9" font-family="Arial" font-size="14.00" fill="#666666">[tinyint(1)]</text>
<polygon fill="none" stroke="#000000" points="52.5,-1182.5 52.5,-1212.5 364.5,-1212.5 364.5,-1182.5 52.5,-1182.5"/>
<text text-anchor="start" x="59.5" y="-1193.9" font-family="Arial" font-size="14.00" fill="#000000">basic_price    </text>
<text text-anchor="start" x="164.4916" y="-1193.9" font-family="Arial" font-size="14.00" fill="#666666">[int(11) unsigned]</text>
<polygon fill="none" stroke="#000000" points="52.5,-1152.5 52.5,-1182.5 364.5,-1182.5 364.5,-1152.5 52.5,-1152.5"/>
<text text-anchor="start" x="59.5" y="-1163.9" font-family="Arial" font-size="14.00" fill="#000000">extend_price    </text>
<text text-anchor="start" x="173.8408" y="-1163.9" font-family="Arial" font-size="14.00" fill="#666666">[int(11)]</text>
<polygon fill="none" stroke="#000000" points="52.5,-1122.5 52.5,-1152.5 364.5,-1152.5 364.5,-1122.5 52.5,-1122.5"/>
<text text-anchor="start" x="59.5" y="-1133.9" font-family="Arial" font-size="14.00" fill="#000000">max_price    </text>
<text text-anchor="start" x="158.263" y="-1133.9" font-family="Arial" font-size="14.00" fill="#666666">[int(11)]</text>
<polygon fill="none" stroke="#000000" points="52.5,-1092.5 52.5,-1122.5 364.5,-1122.5 364.5,-1092.5 52.5,-1092.5"/>
<text text-anchor="start" x="59.5" y="-1103.9" font-family="Arial" font-size="14.00" fill="#000000">memo    </text>
<text text-anchor="start" x="132.5912" y="-1103.9" font-family="Arial" font-size="14.00" fill="#666666">[varchar(2000)]</text>
<polygon fill="none" stroke="#000000" points="52.5,-1062.5 52.5,-1092.5 364.5,-1092.5 364.5,-1062.5 52.5,-1062.5"/>
<text text-anchor="start" x="59.5" y="-1073.9" font-family="Arial" font-size="14.00" fill="#000000">floor_position    </text>
<text text-anchor="start" x="176.9446" y="-1073.9" font-family="Arial" font-size="14.00" fill="#666666">[smallint(5)]</text>
<polygon fill="none" stroke="#000000" points="52.5,-1032.5 52.5,-1062.5 364.5,-1062.5 364.5,-1032.5 52.5,-1032.5"/>
<text text-anchor="start" x="59.5" y="-1043.9" font-family="Arial" font-size="14.00" fill="#000000">is_tablet_linked    </text>
<text text-anchor="start" x="190.1732" y="-1043.9" font-family="Arial" font-size="14.00" fill="#666666">[int(11)]</text>
<polygon fill="none" stroke="#000000" points="52.5,-1002.5 52.5,-1032.5 364.5,-1032.5 364.5,-1002.5 52.5,-1002.5"/>
<text text-anchor="start" x="59.5" y="-1013.9" font-family="Arial" font-size="14.00" fill="#000000">batch_mail    </text>
<text text-anchor="start" x="161.3822" y="-1013.9" font-family="Arial" font-size="14.00" fill="#666666">[int(11)]</text>
<polygon fill="none" stroke="#000000" points="52.5,-972.5 52.5,-1002.5 364.5,-1002.5 364.5,-972.5 52.5,-972.5"/>
<text text-anchor="start" x="59.5" y="-983.9" font-family="Arial" font-size="14.00" fill="#000000">batch_mail_owner    </text>
<text text-anchor="start" x="207.2798" y="-983.9" font-family="Arial" font-size="14.00" fill="#666666">[int(11)]</text>
<polygon fill="none" stroke="#000000" points="52.5,-942.5 52.5,-972.5 364.5,-972.5 364.5,-942.5 52.5,-942.5"/>
<text text-anchor="start" x="59.5" y="-953.9" font-family="Arial" font-size="14.00" fill="#000000">guide_text    </text>
<text text-anchor="start" x="158.2882" y="-953.9" font-family="Arial" font-size="14.00" fill="#666666">[text]</text>
<polygon fill="none" stroke="#000000" points="52.5,-912.5 52.5,-942.5 364.5,-942.5 364.5,-912.5 52.5,-912.5"/>
<text text-anchor="start" x="59.5" y="-923.9" font-family="Arial" font-size="14.00" fill="#000000">eating_text    </text>
<text text-anchor="start" x="162.1788" y="-923.9" font-family="Arial" font-size="14.00" fill="#666666">[varchar(1000)]</text>
<polygon fill="none" stroke="#000000" points="52.5,-882.5 52.5,-912.5 364.5,-912.5 364.5,-882.5 52.5,-882.5"/>
<text text-anchor="start" x="59.5" y="-893.9" font-family="Arial" font-size="14.00" fill="#000000">cleanup_text    </text>
<text text-anchor="start" x="173.0708" y="-893.9" font-family="Arial" font-size="14.00" fill="#666666">[varchar(1000)]</text>
<polygon fill="none" stroke="#000000" points="52.5,-852.5 52.5,-882.5 364.5,-882.5 364.5,-852.5 52.5,-852.5"/>
<text text-anchor="start" x="59.5" y="-863.9" font-family="Arial" font-size="14.00" fill="#000000">facility_text    </text>
<text text-anchor="start" x="162.9348" y="-863.9" font-family="Arial" font-size="14.00" fill="#666666">[varchar(1000)]</text>
<polygon fill="none" stroke="#000000" points="52.5,-822.5 52.5,-852.5 364.5,-852.5 364.5,-822.5 52.5,-822.5"/>
<text text-anchor="start" x="59.5" y="-833.9" font-family="Arial" font-size="14.00" fill="#000000">change_layout    </text>
<text text-anchor="start" x="184.7454" y="-833.9" font-family="Arial" font-size="14.00" fill="#666666">[smallint(2)]</text>
<polygon fill="none" stroke="#000000" points="52.5,-792.5 52.5,-822.5 364.5,-822.5 364.5,-792.5 52.5,-792.5"/>
<text text-anchor="start" x="59.5" y="-803.9" font-family="Arial" font-size="14.00" fill="#000000">reservation_unit_an_hour    </text>
<text text-anchor="start" x="252.42" y="-803.9" font-family="Arial" font-size="14.00" fill="#666666">[tinyint(1)]</text>
<polygon fill="none" stroke="#000000" points="52.5,-762.5 52.5,-792.5 364.5,-792.5 364.5,-762.5 52.5,-762.5"/>
<text text-anchor="start" x="59.5" y="-773.9" font-family="Arial" font-size="14.00" fill="#000000">payment_period    </text>
<text text-anchor="start" x="194.0666" y="-773.9" font-family="Arial" font-size="14.00" fill="#666666">[int(11)]</text>
<polygon fill="none" stroke="#000000" points="52.5,-732.5 52.5,-762.5 364.5,-762.5 364.5,-732.5 52.5,-732.5"/>
<text text-anchor="start" x="59.5" y="-743.9" font-family="Arial" font-size="14.00" fill="#000000">sort_order    </text>
<text text-anchor="start" x="157.4902" y="-743.9" font-family="Arial" font-size="14.00" fill="#666666">[int(11)]</text>
<polygon fill="none" stroke="#000000" points="52.5,-702.5 52.5,-732.5 364.5,-732.5 364.5,-702.5 52.5,-702.5"/>
<text text-anchor="start" x="59.5" y="-713.9" font-family="Arial" font-size="14.00" fill="#000000">allow_tentative    </text>
<text text-anchor="start" x="186.2812" y="-713.9" font-family="Arial" font-size="14.00" fill="#666666">[tinyint(1)]</text>
<polygon fill="none" stroke="#000000" points="52.5,-672.5 52.5,-702.5 364.5,-702.5 364.5,-672.5 52.5,-672.5"/>
<text text-anchor="start" x="59.5" y="-683.9" font-family="Arial" font-size="14.00" fill="#000000">allow_change_reserved    </text>
<text text-anchor="start" x="241.5196" y="-683.9" font-family="Arial" font-size="14.00" fill="#666666">[tinyint(1)]</text>
<polygon fill="none" stroke="#000000" points="52.5,-642.5 52.5,-672.5 364.5,-672.5 364.5,-642.5 52.5,-642.5"/>
<text text-anchor="start" x="59.5" y="-653.9" font-family="Arial" font-size="14.00" fill="#000000">allow_extend_reservation    </text>
<text text-anchor="start" x="252.4074" y="-653.9" font-family="Arial" font-size="14.00" fill="#666666">[tinyint(1)]</text>
<polygon fill="none" stroke="#000000" points="52.5,-612.5 52.5,-642.5 364.5,-642.5 364.5,-612.5 52.5,-612.5"/>
<text text-anchor="start" x="59.5" y="-623.9" font-family="Arial" font-size="14.00" fill="#000000">change_reserved_limit_date    </text>
<text text-anchor="start" x="269.5266" y="-623.9" font-family="Arial" font-size="14.00" fill="#666666">[int(11)]</text>
<polygon fill="none" stroke="#000000" points="52.5,-582.5 52.5,-612.5 364.5,-612.5 364.5,-582.5 52.5,-582.5"/>
<text text-anchor="start" x="59.5" y="-593.9" font-family="Arial" font-size="14.00" fill="#000000">tentative_period    </text>
<text text-anchor="start" x="193.2938" y="-593.9" font-family="Arial" font-size="14.00" fill="#666666">[int(11)]</text>
<polygon fill="none" stroke="#000000" points="52.5,-552.5 52.5,-582.5 364.5,-582.5 364.5,-552.5 52.5,-552.5"/>
<text text-anchor="start" x="59.5" y="-563.9" font-family="Arial" font-size="14.00" fill="#000000">tentative_limit_date    </text>
<text text-anchor="start" x="214.2882" y="-563.9" font-family="Arial" font-size="14.00" fill="#666666">[int(11)]</text>
<polygon fill="none" stroke="#000000" points="52.5,-522.5 52.5,-552.5 364.5,-552.5 364.5,-522.5 52.5,-522.5"/>
<text text-anchor="start" x="59.5" y="-533.9" font-family="Arial" font-size="14.00" fill="#000000">include_tax    </text>
<text text-anchor="start" x="164.5042" y="-533.9" font-family="Arial" font-size="14.00" fill="#666666">[tinyint(1)]</text>
<polygon fill="none" stroke="#000000" points="52.5,-492.5 52.5,-522.5 364.5,-522.5 364.5,-492.5 52.5,-492.5"/>
<text text-anchor="start" x="59.5" y="-503.9" font-family="Arial" font-size="14.00" fill="#000000">ninjalock_serial    </text>
<text text-anchor="start" x="189.3766" y="-503.9" font-family="Arial" font-size="14.00" fill="#666666">[varchar(24)]</text>
<polygon fill="none" stroke="#000000" points="52.5,-462.5 52.5,-492.5 364.5,-492.5 364.5,-462.5 52.5,-462.5"/>
<text text-anchor="start" x="59.5" y="-473.9" font-family="Arial" font-size="14.00" fill="#000000">created_datetime    </text>
<text text-anchor="start" x="201.8478" y="-473.9" font-family="Arial" font-size="14.00" fill="#666666">[timestamp]</text>
<polygon fill="none" stroke="#000000" points="52.5,-432.5 52.5,-462.5 364.5,-462.5 364.5,-432.5 52.5,-432.5"/>
<text text-anchor="start" x="59.5" y="-443.9" font-family="Arial" font-size="14.00" fill="#000000">updated_datetime    </text>
<text text-anchor="start" x="205.7524" y="-443.9" font-family="Arial" font-size="14.00" fill="#666666">[timestamp]</text>
<polygon fill="none" stroke="#000000" points="52.5,-402.5 52.5,-432.5 364.5,-432.5 364.5,-402.5 52.5,-402.5"/>
<text text-anchor="start" x="59.5" y="-413.9" font-family="Arial" font-size="14.00" fill="#000000">start_reservable_time    </text>
<text text-anchor="start" x="228.2756" y="-413.9" font-family="Arial" font-size="14.00" fill="#666666">[smallint(3)]</text>
<polygon fill="none" stroke="#000000" points="52.5,-372.5 52.5,-402.5 364.5,-402.5 364.5,-372.5 52.5,-372.5"/>
<text text-anchor="start" x="59.5" y="-383.9" font-family="Arial" font-size="14.00" fill="#000000">end_reservable_time    </text>
<text text-anchor="start" x="224.399" y="-383.9" font-family="Arial" font-size="14.00" fill="#666666">[smallint(3)]</text>
<polygon fill="none" stroke="#000000" points="52.5,-342.5 52.5,-372.5 364.5,-372.5 364.5,-342.5 52.5,-342.5"/>
<text text-anchor="start" x="59.5" y="-353.9" font-family="Arial" font-size="14.00" fill="#000000">is_set_reservable_time    </text>
<text text-anchor="start" x="237.6136" y="-353.9" font-family="Arial" font-size="14.00" fill="#666666">[tinyint(1)]</text>
<polygon fill="none" stroke="#000000" points="52.5,-312.5 52.5,-342.5 364.5,-342.5 364.5,-312.5 52.5,-312.5"/>
<text text-anchor="start" x="59.5" y="-323.9" font-family="Arial" font-size="14.00" fill="#000000">is_buffer_time_setting_enabled    </text>
<text text-anchor="start" x="288.2096" y="-323.9" font-family="Arial" font-size="14.00" fill="#666666">[tinyint(1)]</text>
<polygon fill="none" stroke="#000000" points="52.5,-282.5 52.5,-312.5 364.5,-312.5 364.5,-282.5 52.5,-282.5"/>
<text text-anchor="start" x="59.5" y="-293.9" font-family="Arial" font-size="14.00" fill="#000000">buffer_time    </text>
<text text-anchor="start" x="163.7174" y="-293.9" font-family="Arial" font-size="14.00" fill="#666666">[time]</text>
<polygon fill="none" stroke="#000000" points="52.5,-252.5 52.5,-282.5 364.5,-282.5 364.5,-252.5 52.5,-252.5"/>
<text text-anchor="start" x="59.5" y="-263.9" font-family="Arial" font-size="14.00" fill="#000000">buffer_time_control    </text>
<text text-anchor="start" x="213.5056" y="-263.9" font-family="Arial" font-size="14.00" fill="#666666">[smallint(3)]</text>
<polygon fill="none" stroke="#000000" points="52.5,-222.5 52.5,-252.5 364.5,-252.5 364.5,-222.5 52.5,-222.5"/>
<text text-anchor="start" x="59.5" y="-233.9" font-family="Arial" font-size="14.00" fill="#000000">is_one_day_rental_enabled    </text>
<text text-anchor="start" x="265.6626" y="-233.9" font-family="Arial" font-size="14.00" fill="#666666">[tinyint(1)]</text>
<polygon fill="none" stroke="#000000" points="52.5,-192.5 52.5,-222.5 364.5,-222.5 364.5,-192.5 52.5,-192.5"/>
<text text-anchor="start" x="59.5" y="-203.9" font-family="Arial" font-size="14.00" fill="#000000">owner_buffer_time    </text>
<text text-anchor="start" x="209.615" y="-203.9" font-family="Arial" font-size="14.00" fill="#666666">[time]</text>
<polygon fill="none" stroke="#000000" points="52.5,-162.5 52.5,-192.5 364.5,-192.5 364.5,-162.5 52.5,-162.5"/>
<text text-anchor="start" x="59.5" y="-173.9" font-family="Arial" font-size="14.00" fill="#000000">external_buffer_time    </text>
<text text-anchor="start" x="221.2882" y="-173.9" font-family="Arial" font-size="14.00" fill="#666666">[time]</text>
<polygon fill="none" stroke="#000000" points="52.5,-132.5 52.5,-162.5 364.5,-162.5 364.5,-132.5 52.5,-132.5"/>
<text text-anchor="start" x="59.5" y="-143.9" font-family="Arial" font-size="14.00" fill="#000000">owner_buffer_time_control    </text>
<text text-anchor="start" x="259.4032" y="-143.9" font-family="Arial" font-size="14.00" fill="#666666">[smallint(3)]</text>
<polygon fill="none" stroke="#000000" points="52.5,-102.5 52.5,-132.5 364.5,-132.5 364.5,-102.5 52.5,-102.5"/>
<text text-anchor="start" x="59.5" y="-113.9" font-family="Arial" font-size="14.00" fill="#000000">external_buffer_time_control    </text>
<text text-anchor="start" x="271.0764" y="-113.9" font-family="Arial" font-size="14.00" fill="#666666">[smallint(3)]</text>
<polygon fill="none" stroke="#000000" points="52.5,-72.5 52.5,-102.5 364.5,-102.5 364.5,-72.5 52.5,-72.5"/>
<text text-anchor="start" x="59.5" y="-83.9" font-family="Arial" font-size="14.00" fill="#000000">is_lottery_setting_enabled    </text>
<text text-anchor="start" x="256.3106" y="-83.9" font-family="Arial" font-size="14.00" fill="#666666">[tinyint(1)]</text>
<polygon fill="none" stroke="#000000" points="52.5,-42.5 52.5,-72.5 364.5,-72.5 364.5,-42.5 52.5,-42.5"/>
<text text-anchor="start" x="59.5" y="-53.9" font-family="Arial" font-size="14.00" fill="#000000">lottery_period    </text>
<text text-anchor="start" x="178.4986" y="-53.9" font-family="Arial" font-size="14.00" fill="#666666">[int(5)]</text>
</g>
<!-- sk_room_charge_days&#45;&gt;sk_rooms -->
<g id="edge1" class="edge">
<title>sk_room_charge_days:room_id&#45;&gt;sk_rooms:id</title>
<path fill="none" stroke="#000000" d="M379.4987,-2046.4095C420.527,-2036.6769 402.7307,-1964.2181 369.5,-1927 275.0623,-1821.2305 146.9377,-1996.7695 52.5,-1891 24.8232,-1860.0022 10.9444,-1797.5 52.5,-1797.5"/>
<polygon fill="#000000" stroke="#000000" points="379.441,-2046.4157 369.012,-2043.0265 374.4705,-2046.9578 369.5,-2047.5 369.5,-2047.5 369.5,-2047.5 374.4705,-2046.9578 369.988,-2051.9735 379.441,-2046.4157 379.441,-2046.4157"/>
<text text-anchor="start" x="376.3365" y="-2057.5" font-family="Arial" font-size="10.00" fill="#000000">FOREIGN KEY (room_id) REFERENCES sk_rooms (id)</text>
</g>
</g>
</svg>
