<?xml version="1.0" encoding="UTF-8" standalone="no"?>
<!DOCTYPE svg PUBLIC "-//W3C//DTD SVG 1.1//EN"
 "http://www.w3.org/Graphics/SVG/1.1/DTD/svg11.dtd">
<!-- Generated by graphviz version 2.40.1 (20161225.0304)
 -->
<!-- Title: sk_room_charge_early_days Pages: 1 -->
<svg width="688pt" height="2182pt"
 viewBox="0.00 0.00 688.00 2182.00" xmlns="http://www.w3.org/2000/svg" xmlns:xlink="http://www.w3.org/1999/xlink">
<g id="graph0" class="graph" transform="scale(1 1) rotate(0) translate(4 2178)">
<title>sk_room_charge_early_days</title>
<polygon fill="#ffffff" stroke="transparent" points="-4,4 -4,-2178 684,-2178 684,4 -4,4"/>
<!-- sk_room_charge_early_days -->
<g id="node1" class="node">
<title>sk_room_charge_early_days</title>
<polygon fill="#efefef" stroke="transparent" points="46,-2092.5 46,-2127.5 418,-2127.5 418,-2092.5 46,-2092.5"/>
<polygon fill="none" stroke="#000000" points="46,-2092.5 46,-2127.5 418,-2127.5 418,-2092.5 46,-2092.5"/>
<text text-anchor="start" x="52.6911" y="-2105.3" font-family="Arial Bold" font-size="18.00" fill="#000000">sk_room_charge_early_days</text>
<text text-anchor="start" x="283.7409" y="-2105.3" font-family="Arial" font-size="14.00" fill="#000000">    </text>
<text text-anchor="start" x="317.9457" y="-2105.3" font-family="Arial" font-size="14.00" fill="#666666">[BASE TABLE]</text>
<polygon fill="none" stroke="#000000" points="46,-2062.5 46,-2092.5 418,-2092.5 418,-2062.5 46,-2062.5"/>
<text text-anchor="start" x="53" y="-2073.9" font-family="Arial" font-size="14.00" fill="#000000">id </text>
<text text-anchor="start" x="67.7798" y="-2073.9" font-family="Arial" font-size="14.00" fill="#666666">[int(11) unsigned]</text>
<polygon fill="none" stroke="#000000" points="46,-2032.5 46,-2062.5 418,-2062.5 418,-2032.5 46,-2032.5"/>
<text text-anchor="start" x="53" y="-2043.9" font-family="Arial" font-size="14.00" fill="#000000">room_id </text>
<text text-anchor="start" x="107.4488" y="-2043.9" font-family="Arial" font-size="14.00" fill="#666666">[int(11) unsigned]</text>
<polygon fill="none" stroke="#000000" points="46,-2002.5 46,-2032.5 418,-2032.5 418,-2002.5 46,-2002.5"/>
<text text-anchor="start" x="53" y="-2013.9" font-family="Arial" font-size="14.00" fill="#000000">early_day </text>
<text text-anchor="start" x="117.5708" y="-2013.9" font-family="Arial" font-size="14.00" fill="#666666">[smallint(6)]</text>
<polygon fill="none" stroke="#000000" points="46,-1972.5 46,-2002.5 418,-2002.5 418,-1972.5 46,-1972.5"/>
<text text-anchor="start" x="53" y="-1983.9" font-family="Arial" font-size="14.00" fill="#000000">price </text>
<text text-anchor="start" x="87.223" y="-1983.9" font-family="Arial" font-size="14.00" fill="#666666">[int(11)]</text>
<polygon fill="none" stroke="#000000" stroke-width="3" points="44.5,-1971.5 44.5,-2129.5 419.5,-2129.5 419.5,-1971.5 44.5,-1971.5"/>
</g>
<!-- sk_rooms -->
<g id="node2" class="node">
<title>sk_rooms</title>
<polygon fill="#efefef" stroke="transparent" points="76,-1812.5 76,-1847.5 388,-1847.5 388,-1812.5 76,-1812.5"/>
<polygon fill="none" stroke="#000000" points="76,-1812.5 76,-1847.5 388,-1847.5 388,-1812.5 76,-1812.5"/>
<text text-anchor="start" x="129.2145" y="-1825.3" font-family="Arial Bold" font-size="18.00" fill="#000000">sk_rooms</text>
<text text-anchor="start" x="207.2175" y="-1825.3" font-family="Arial" font-size="14.00" fill="#000000">    </text>
<text text-anchor="start" x="241.4223" y="-1825.3" font-family="Arial" font-size="14.00" fill="#666666">[BASE TABLE]</text>
<polygon fill="none" stroke="#000000" points="76,-1782.5 76,-1812.5 388,-1812.5 388,-1782.5 76,-1782.5"/>
<text text-anchor="start" x="83" y="-1793.9" font-family="Arial" font-size="14.00" fill="#000000">id    </text>
<text text-anchor="start" x="128.094" y="-1793.9" font-family="Arial" font-size="14.00" fill="#666666">[int(11) unsigned]</text>
<polygon fill="none" stroke="#000000" points="76,-1752.5 76,-1782.5 388,-1782.5 388,-1752.5 76,-1752.5"/>
<text text-anchor="start" x="83" y="-1763.9" font-family="Arial" font-size="14.00" fill="#000000">is_deleted    </text>
<text text-anchor="start" x="181.0042" y="-1763.9" font-family="Arial" font-size="14.00" fill="#666666">[tinyint(1)]</text>
<polygon fill="none" stroke="#000000" points="76,-1722.5 76,-1752.5 388,-1752.5 388,-1722.5 76,-1722.5"/>
<text text-anchor="start" x="83" y="-1733.9" font-family="Arial" font-size="14.00" fill="#000000">is_public    </text>
<text text-anchor="start" x="171.655" y="-1733.9" font-family="Arial" font-size="14.00" fill="#666666">[tinyint(1)]</text>
<polygon fill="none" stroke="#000000" points="76,-1692.5 76,-1722.5 388,-1722.5 388,-1692.5 76,-1692.5"/>
<text text-anchor="start" x="83" y="-1703.9" font-family="Arial" font-size="14.00" fill="#000000">is_set    </text>
<text text-anchor="start" x="153.7672" y="-1703.9" font-family="Arial" font-size="14.00" fill="#666666">[tinyint(1)]</text>
<polygon fill="none" stroke="#000000" points="76,-1662.5 76,-1692.5 388,-1692.5 388,-1662.5 76,-1662.5"/>
<text text-anchor="start" x="83" y="-1673.9" font-family="Arial" font-size="14.00" fill="#000000">property_id    </text>
<text text-anchor="start" x="187.2188" y="-1673.9" font-family="Arial" font-size="14.00" fill="#666666">[int(11) unsigned]</text>
<polygon fill="none" stroke="#000000" points="76,-1632.5 76,-1662.5 388,-1662.5 388,-1632.5 76,-1632.5"/>
<text text-anchor="start" x="83" y="-1643.9" font-family="Arial" font-size="14.00" fill="#000000">lessor_id    </text>
<text text-anchor="start" x="173.209" y="-1643.9" font-family="Arial" font-size="14.00" fill="#666666">[int(11) unsigned]</text>
<polygon fill="none" stroke="#000000" points="76,-1602.5 76,-1632.5 388,-1632.5 388,-1602.5 76,-1602.5"/>
<text text-anchor="start" x="83" y="-1613.9" font-family="Arial" font-size="14.00" fill="#000000">name    </text>
<text text-anchor="start" x="152.2132" y="-1613.9" font-family="Arial" font-size="14.00" fill="#666666">[varchar(200)]</text>
<polygon fill="none" stroke="#000000" points="76,-1572.5 76,-1602.5 388,-1602.5 388,-1572.5 76,-1572.5"/>
<text text-anchor="start" x="83" y="-1583.9" font-family="Arial" font-size="14.00" fill="#000000">voice_name    </text>
<text text-anchor="start" x="192.6676" y="-1583.9" font-family="Arial" font-size="14.00" fill="#666666">[varchar(200)]</text>
<polygon fill="none" stroke="#000000" points="76,-1542.5 76,-1572.5 388,-1572.5 388,-1542.5 76,-1542.5"/>
<text text-anchor="start" x="83" y="-1553.9" font-family="Arial" font-size="14.00" fill="#000000">description_url    </text>
<text text-anchor="start" x="208.2146" y="-1553.9" font-family="Arial" font-size="14.00" fill="#666666">[varchar(1000)]</text>
<polygon fill="none" stroke="#000000" points="76,-1512.5 76,-1542.5 388,-1542.5 388,-1512.5 76,-1512.5"/>
<text text-anchor="start" x="83" y="-1523.9" font-family="Arial" font-size="14.00" fill="#000000">exclusive_area    </text>
<text text-anchor="start" x="210.5568" y="-1523.9" font-family="Arial" font-size="14.00" fill="#666666">[decimal(10,2)]</text>
<polygon fill="none" stroke="#000000" points="76,-1482.5 76,-1512.5 388,-1512.5 388,-1482.5 76,-1482.5"/>
<text text-anchor="start" x="83" y="-1493.9" font-family="Arial" font-size="14.00" fill="#000000">ceiling_height    </text>
<text text-anchor="start" x="202.7826" y="-1493.9" font-family="Arial" font-size="14.00" fill="#666666">[decimal(10,2)]</text>
<polygon fill="none" stroke="#000000" points="76,-1452.5 76,-1482.5 388,-1482.5 388,-1452.5 76,-1452.5"/>
<text text-anchor="start" x="83" y="-1463.9" font-family="Arial" font-size="14.00" fill="#000000">floor    </text>
<text text-anchor="start" x="144.4278" y="-1463.9" font-family="Arial" font-size="14.00" fill="#666666">[smallint(5)]</text>
<polygon fill="none" stroke="#000000" points="76,-1422.5 76,-1452.5 388,-1452.5 388,-1422.5 76,-1422.5"/>
<text text-anchor="start" x="83" y="-1433.9" font-family="Arial" font-size="14.00" fill="#000000">minimum_time    </text>
<text text-anchor="start" x="208.188" y="-1433.9" font-family="Arial" font-size="14.00" fill="#666666">[time]</text>
<polygon fill="none" stroke="#000000" points="76,-1392.5 76,-1422.5 388,-1422.5 388,-1392.5 76,-1392.5"/>
<text text-anchor="start" x="83" y="-1403.9" font-family="Arial" font-size="14.00" fill="#000000">maximum_time    </text>
<text text-anchor="start" x="212.0814" y="-1403.9" font-family="Arial" font-size="14.00" fill="#666666">[time]</text>
<polygon fill="none" stroke="#000000" points="76,-1362.5 76,-1392.5 388,-1392.5 388,-1362.5 76,-1362.5"/>
<text text-anchor="start" x="83" y="-1373.9" font-family="Arial" font-size="14.00" fill="#000000">start_date    </text>
<text text-anchor="start" x="179.4502" y="-1373.9" font-family="Arial" font-size="14.00" fill="#666666">[date]</text>
<polygon fill="none" stroke="#000000" points="76,-1332.5 76,-1362.5 388,-1362.5 388,-1332.5 76,-1332.5"/>
<text text-anchor="start" x="83" y="-1343.9" font-family="Arial" font-size="14.00" fill="#000000">end_date    </text>
<text text-anchor="start" x="175.5736" y="-1343.9" font-family="Arial" font-size="14.00" fill="#666666">[date]</text>
<polygon fill="none" stroke="#000000" points="76,-1302.5 76,-1332.5 388,-1332.5 388,-1302.5 76,-1302.5"/>
<text text-anchor="start" x="83" y="-1313.9" font-family="Arial" font-size="14.00" fill="#000000">is_ninjalock    </text>
<text text-anchor="start" x="189.5442" y="-1313.9" font-family="Arial" font-size="14.00" fill="#666666">[tinyint(1)]</text>
<polygon fill="none" stroke="#000000" points="76,-1272.5 76,-1302.5 388,-1302.5 388,-1272.5 76,-1272.5"/>
<text text-anchor="start" x="83" y="-1283.9" font-family="Arial" font-size="14.00" fill="#000000">is_display_entrance_note    </text>
<text text-anchor="start" x="275.9228" y="-1283.9" font-family="Arial" font-size="14.00" fill="#666666">[tinyint(1)]</text>
<polygon fill="none" stroke="#000000" points="76,-1242.5 76,-1272.5 388,-1272.5 388,-1242.5 76,-1242.5"/>
<text text-anchor="start" x="82.6487" y="-1253.9" font-family="Arial" font-size="14.00" fill="#000000">is_using_custom_business_hour    </text>
<text text-anchor="start" x="319.9067" y="-1253.9" font-family="Arial" font-size="14.00" fill="#666666">[tinyint(1)]</text>
<polygon fill="none" stroke="#000000" points="76,-1212.5 76,-1242.5 388,-1242.5 388,-1212.5 76,-1212.5"/>
<text text-anchor="start" x="83" y="-1223.9" font-family="Arial" font-size="14.00" fill="#000000">has_local_area_network    </text>
<text text-anchor="start" x="268.9102" y="-1223.9" font-family="Arial" font-size="14.00" fill="#666666">[tinyint(1)]</text>
<polygon fill="none" stroke="#000000" points="76,-1182.5 76,-1212.5 388,-1212.5 388,-1182.5 76,-1182.5"/>
<text text-anchor="start" x="83" y="-1193.9" font-family="Arial" font-size="14.00" fill="#000000">basic_price    </text>
<text text-anchor="start" x="187.9916" y="-1193.9" font-family="Arial" font-size="14.00" fill="#666666">[int(11) unsigned]</text>
<polygon fill="none" stroke="#000000" points="76,-1152.5 76,-1182.5 388,-1182.5 388,-1152.5 76,-1152.5"/>
<text text-anchor="start" x="83" y="-1163.9" font-family="Arial" font-size="14.00" fill="#000000">extend_price    </text>
<text text-anchor="start" x="197.3408" y="-1163.9" font-family="Arial" font-size="14.00" fill="#666666">[int(11)]</text>
<polygon fill="none" stroke="#000000" points="76,-1122.5 76,-1152.5 388,-1152.5 388,-1122.5 76,-1122.5"/>
<text text-anchor="start" x="83" y="-1133.9" font-family="Arial" font-size="14.00" fill="#000000">max_price    </text>
<text text-anchor="start" x="181.763" y="-1133.9" font-family="Arial" font-size="14.00" fill="#666666">[int(11)]</text>
<polygon fill="none" stroke="#000000" points="76,-1092.5 76,-1122.5 388,-1122.5 388,-1092.5 76,-1092.5"/>
<text text-anchor="start" x="83" y="-1103.9" font-family="Arial" font-size="14.00" fill="#000000">memo    </text>
<text text-anchor="start" x="156.0912" y="-1103.9" font-family="Arial" font-size="14.00" fill="#666666">[varchar(2000)]</text>
<polygon fill="none" stroke="#000000" points="76,-1062.5 76,-1092.5 388,-1092.5 388,-1062.5 76,-1062.5"/>
<text text-anchor="start" x="83" y="-1073.9" font-family="Arial" font-size="14.00" fill="#000000">floor_position    </text>
<text text-anchor="start" x="200.4446" y="-1073.9" font-family="Arial" font-size="14.00" fill="#666666">[smallint(5)]</text>
<polygon fill="none" stroke="#000000" points="76,-1032.5 76,-1062.5 388,-1062.5 388,-1032.5 76,-1032.5"/>
<text text-anchor="start" x="83" y="-1043.9" font-family="Arial" font-size="14.00" fill="#000000">is_tablet_linked    </text>
<text text-anchor="start" x="213.6732" y="-1043.9" font-family="Arial" font-size="14.00" fill="#666666">[int(11)]</text>
<polygon fill="none" stroke="#000000" points="76,-1002.5 76,-1032.5 388,-1032.5 388,-1002.5 76,-1002.5"/>
<text text-anchor="start" x="83" y="-1013.9" font-family="Arial" font-size="14.00" fill="#000000">batch_mail    </text>
<text text-anchor="start" x="184.8822" y="-1013.9" font-family="Arial" font-size="14.00" fill="#666666">[int(11)]</text>
<polygon fill="none" stroke="#000000" points="76,-972.5 76,-1002.5 388,-1002.5 388,-972.5 76,-972.5"/>
<text text-anchor="start" x="83" y="-983.9" font-family="Arial" font-size="14.00" fill="#000000">batch_mail_owner    </text>
<text text-anchor="start" x="230.7798" y="-983.9" font-family="Arial" font-size="14.00" fill="#666666">[int(11)]</text>
<polygon fill="none" stroke="#000000" points="76,-942.5 76,-972.5 388,-972.5 388,-942.5 76,-942.5"/>
<text text-anchor="start" x="83" y="-953.9" font-family="Arial" font-size="14.00" fill="#000000">guide_text    </text>
<text text-anchor="start" x="181.7882" y="-953.9" font-family="Arial" font-size="14.00" fill="#666666">[text]</text>
<polygon fill="none" stroke="#000000" points="76,-912.5 76,-942.5 388,-942.5 388,-912.5 76,-912.5"/>
<text text-anchor="start" x="83" y="-923.9" font-family="Arial" font-size="14.00" fill="#000000">eating_text    </text>
<text text-anchor="start" x="185.6788" y="-923.9" font-family="Arial" font-size="14.00" fill="#666666">[varchar(1000)]</text>
<polygon fill="none" stroke="#000000" points="76,-882.5 76,-912.5 388,-912.5 388,-882.5 76,-882.5"/>
<text text-anchor="start" x="83" y="-893.9" font-family="Arial" font-size="14.00" fill="#000000">cleanup_text    </text>
<text text-anchor="start" x="196.5708" y="-893.9" font-family="Arial" font-size="14.00" fill="#666666">[varchar(1000)]</text>
<polygon fill="none" stroke="#000000" points="76,-852.5 76,-882.5 388,-882.5 388,-852.5 76,-852.5"/>
<text text-anchor="start" x="83" y="-863.9" font-family="Arial" font-size="14.00" fill="#000000">facility_text    </text>
<text text-anchor="start" x="186.4348" y="-863.9" font-family="Arial" font-size="14.00" fill="#666666">[varchar(1000)]</text>
<polygon fill="none" stroke="#000000" points="76,-822.5 76,-852.5 388,-852.5 388,-822.5 76,-822.5"/>
<text text-anchor="start" x="83" y="-833.9" font-family="Arial" font-size="14.00" fill="#000000">change_layout    </text>
<text text-anchor="start" x="208.2454" y="-833.9" font-family="Arial" font-size="14.00" fill="#666666">[smallint(2)]</text>
<polygon fill="none" stroke="#000000" points="76,-792.5 76,-822.5 388,-822.5 388,-792.5 76,-792.5"/>
<text text-anchor="start" x="83" y="-803.9" font-family="Arial" font-size="14.00" fill="#000000">reservation_unit_an_hour    </text>
<text text-anchor="start" x="275.92" y="-803.9" font-family="Arial" font-size="14.00" fill="#666666">[tinyint(1)]</text>
<polygon fill="none" stroke="#000000" points="76,-762.5 76,-792.5 388,-792.5 388,-762.5 76,-762.5"/>
<text text-anchor="start" x="83" y="-773.9" font-family="Arial" font-size="14.00" fill="#000000">payment_period    </text>
<text text-anchor="start" x="217.5666" y="-773.9" font-family="Arial" font-size="14.00" fill="#666666">[int(11)]</text>
<polygon fill="none" stroke="#000000" points="76,-732.5 76,-762.5 388,-762.5 388,-732.5 76,-732.5"/>
<text text-anchor="start" x="83" y="-743.9" font-family="Arial" font-size="14.00" fill="#000000">sort_order    </text>
<text text-anchor="start" x="180.9902" y="-743.9" font-family="Arial" font-size="14.00" fill="#666666">[int(11)]</text>
<polygon fill="none" stroke="#000000" points="76,-702.5 76,-732.5 388,-732.5 388,-702.5 76,-702.5"/>
<text text-anchor="start" x="83" y="-713.9" font-family="Arial" font-size="14.00" fill="#000000">allow_tentative    </text>
<text text-anchor="start" x="209.7812" y="-713.9" font-family="Arial" font-size="14.00" fill="#666666">[tinyint(1)]</text>
<polygon fill="none" stroke="#000000" points="76,-672.5 76,-702.5 388,-702.5 388,-672.5 76,-672.5"/>
<text text-anchor="start" x="83" y="-683.9" font-family="Arial" font-size="14.00" fill="#000000">allow_change_reserved    </text>
<text text-anchor="start" x="265.0196" y="-683.9" font-family="Arial" font-size="14.00" fill="#666666">[tinyint(1)]</text>
<polygon fill="none" stroke="#000000" points="76,-642.5 76,-672.5 388,-672.5 388,-642.5 76,-642.5"/>
<text text-anchor="start" x="83" y="-653.9" font-family="Arial" font-size="14.00" fill="#000000">allow_extend_reservation    </text>
<text text-anchor="start" x="275.9074" y="-653.9" font-family="Arial" font-size="14.00" fill="#666666">[tinyint(1)]</text>
<polygon fill="none" stroke="#000000" points="76,-612.5 76,-642.5 388,-642.5 388,-612.5 76,-612.5"/>
<text text-anchor="start" x="83" y="-623.9" font-family="Arial" font-size="14.00" fill="#000000">change_reserved_limit_date    </text>
<text text-anchor="start" x="293.0266" y="-623.9" font-family="Arial" font-size="14.00" fill="#666666">[int(11)]</text>
<polygon fill="none" stroke="#000000" points="76,-582.5 76,-612.5 388,-612.5 388,-582.5 76,-582.5"/>
<text text-anchor="start" x="83" y="-593.9" font-family="Arial" font-size="14.00" fill="#000000">tentative_period    </text>
<text text-anchor="start" x="216.7938" y="-593.9" font-family="Arial" font-size="14.00" fill="#666666">[int(11)]</text>
<polygon fill="none" stroke="#000000" points="76,-552.5 76,-582.5 388,-582.5 388,-552.5 76,-552.5"/>
<text text-anchor="start" x="83" y="-563.9" font-family="Arial" font-size="14.00" fill="#000000">tentative_limit_date    </text>
<text text-anchor="start" x="237.7882" y="-563.9" font-family="Arial" font-size="14.00" fill="#666666">[int(11)]</text>
<polygon fill="none" stroke="#000000" points="76,-522.5 76,-552.5 388,-552.5 388,-522.5 76,-522.5"/>
<text text-anchor="start" x="83" y="-533.9" font-family="Arial" font-size="14.00" fill="#000000">include_tax    </text>
<text text-anchor="start" x="188.0042" y="-533.9" font-family="Arial" font-size="14.00" fill="#666666">[tinyint(1)]</text>
<polygon fill="none" stroke="#000000" points="76,-492.5 76,-522.5 388,-522.5 388,-492.5 76,-492.5"/>
<text text-anchor="start" x="83" y="-503.9" font-family="Arial" font-size="14.00" fill="#000000">ninjalock_serial    </text>
<text text-anchor="start" x="212.8766" y="-503.9" font-family="Arial" font-size="14.00" fill="#666666">[varchar(24)]</text>
<polygon fill="none" stroke="#000000" points="76,-462.5 76,-492.5 388,-492.5 388,-462.5 76,-462.5"/>
<text text-anchor="start" x="83" y="-473.9" font-family="Arial" font-size="14.00" fill="#000000">created_datetime    </text>
<text text-anchor="start" x="225.3478" y="-473.9" font-family="Arial" font-size="14.00" fill="#666666">[timestamp]</text>
<polygon fill="none" stroke="#000000" points="76,-432.5 76,-462.5 388,-462.5 388,-432.5 76,-432.5"/>
<text text-anchor="start" x="83" y="-443.9" font-family="Arial" font-size="14.00" fill="#000000">updated_datetime    </text>
<text text-anchor="start" x="229.2524" y="-443.9" font-family="Arial" font-size="14.00" fill="#666666">[timestamp]</text>
<polygon fill="none" stroke="#000000" points="76,-402.5 76,-432.5 388,-432.5 388,-402.5 76,-402.5"/>
<text text-anchor="start" x="83" y="-413.9" font-family="Arial" font-size="14.00" fill="#000000">start_reservable_time    </text>
<text text-anchor="start" x="251.7756" y="-413.9" font-family="Arial" font-size="14.00" fill="#666666">[smallint(3)]</text>
<polygon fill="none" stroke="#000000" points="76,-372.5 76,-402.5 388,-402.5 388,-372.5 76,-372.5"/>
<text text-anchor="start" x="83" y="-383.9" font-family="Arial" font-size="14.00" fill="#000000">end_reservable_time    </text>
<text text-anchor="start" x="247.899" y="-383.9" font-family="Arial" font-size="14.00" fill="#666666">[smallint(3)]</text>
<polygon fill="none" stroke="#000000" points="76,-342.5 76,-372.5 388,-372.5 388,-342.5 76,-342.5"/>
<text text-anchor="start" x="83" y="-353.9" font-family="Arial" font-size="14.00" fill="#000000">is_set_reservable_time    </text>
<text text-anchor="start" x="261.1136" y="-353.9" font-family="Arial" font-size="14.00" fill="#666666">[tinyint(1)]</text>
<polygon fill="none" stroke="#000000" points="76,-312.5 76,-342.5 388,-342.5 388,-312.5 76,-312.5"/>
<text text-anchor="start" x="83" y="-323.9" font-family="Arial" font-size="14.00" fill="#000000">is_buffer_time_setting_enabled    </text>
<text text-anchor="start" x="311.7096" y="-323.9" font-family="Arial" font-size="14.00" fill="#666666">[tinyint(1)]</text>
<polygon fill="none" stroke="#000000" points="76,-282.5 76,-312.5 388,-312.5 388,-282.5 76,-282.5"/>
<text text-anchor="start" x="83" y="-293.9" font-family="Arial" font-size="14.00" fill="#000000">buffer_time    </text>
<text text-anchor="start" x="187.2174" y="-293.9" font-family="Arial" font-size="14.00" fill="#666666">[time]</text>
<polygon fill="none" stroke="#000000" points="76,-252.5 76,-282.5 388,-282.5 388,-252.5 76,-252.5"/>
<text text-anchor="start" x="83" y="-263.9" font-family="Arial" font-size="14.00" fill="#000000">buffer_time_control    </text>
<text text-anchor="start" x="237.0056" y="-263.9" font-family="Arial" font-size="14.00" fill="#666666">[smallint(3)]</text>
<polygon fill="none" stroke="#000000" points="76,-222.5 76,-252.5 388,-252.5 388,-222.5 76,-222.5"/>
<text text-anchor="start" x="83" y="-233.9" font-family="Arial" font-size="14.00" fill="#000000">is_one_day_rental_enabled    </text>
<text text-anchor="start" x="289.1626" y="-233.9" font-family="Arial" font-size="14.00" fill="#666666">[tinyint(1)]</text>
<polygon fill="none" stroke="#000000" points="76,-192.5 76,-222.5 388,-222.5 388,-192.5 76,-192.5"/>
<text text-anchor="start" x="83" y="-203.9" font-family="Arial" font-size="14.00" fill="#000000">owner_buffer_time    </text>
<text text-anchor="start" x="233.115" y="-203.9" font-family="Arial" font-size="14.00" fill="#666666">[time]</text>
<polygon fill="none" stroke="#000000" points="76,-162.5 76,-192.5 388,-192.5 388,-162.5 76,-162.5"/>
<text text-anchor="start" x="83" y="-173.9" font-family="Arial" font-size="14.00" fill="#000000">external_buffer_time    </text>
<text text-anchor="start" x="244.7882" y="-173.9" font-family="Arial" font-size="14.00" fill="#666666">[time]</text>
<polygon fill="none" stroke="#000000" points="76,-132.5 76,-162.5 388,-162.5 388,-132.5 76,-132.5"/>
<text text-anchor="start" x="83" y="-143.9" font-family="Arial" font-size="14.00" fill="#000000">owner_buffer_time_control    </text>
<text text-anchor="start" x="282.9032" y="-143.9" font-family="Arial" font-size="14.00" fill="#666666">[smallint(3)]</text>
<polygon fill="none" stroke="#000000" points="76,-102.5 76,-132.5 388,-132.5 388,-102.5 76,-102.5"/>
<text text-anchor="start" x="83" y="-113.9" font-family="Arial" font-size="14.00" fill="#000000">external_buffer_time_control    </text>
<text text-anchor="start" x="294.5764" y="-113.9" font-family="Arial" font-size="14.00" fill="#666666">[smallint(3)]</text>
<polygon fill="none" stroke="#000000" points="76,-72.5 76,-102.5 388,-102.5 388,-72.5 76,-72.5"/>
<text text-anchor="start" x="83" y="-83.9" font-family="Arial" font-size="14.00" fill="#000000">is_lottery_setting_enabled    </text>
<text text-anchor="start" x="279.8106" y="-83.9" font-family="Arial" font-size="14.00" fill="#666666">[tinyint(1)]</text>
<polygon fill="none" stroke="#000000" points="76,-42.5 76,-72.5 388,-72.5 388,-42.5 76,-42.5"/>
<text text-anchor="start" x="83" y="-53.9" font-family="Arial" font-size="14.00" fill="#000000">lottery_period    </text>
<text text-anchor="start" x="201.9986" y="-53.9" font-family="Arial" font-size="14.00" fill="#666666">[int(5)]</text>
</g>
<!-- sk_room_charge_early_days&#45;&gt;sk_rooms -->
<g id="edge1" class="edge">
<title>sk_room_charge_early_days:room_id&#45;&gt;sk_rooms:id</title>
<path fill="none" stroke="#000000" d="M428.0775,-2046.7828C527.9533,-2032.1191 496.4111,-1797.5 388,-1797.5"/>
<polygon fill="#000000" stroke="#000000" points="427.9748,-2046.7901 417.6805,-2043.0114 422.9874,-2047.145 418,-2047.5 418,-2047.5 418,-2047.5 422.9874,-2047.145 418.3195,-2051.9886 427.9748,-2046.7901 427.9748,-2046.7901"/>
<text text-anchor="start" x="424.8365" y="-2057.5" font-family="Arial" font-size="10.00" fill="#000000">FOREIGN KEY (room_id) REFERENCES sk_rooms (id)</text>
</g>
</g>
</svg>
