<?xml version="1.0" encoding="UTF-8" standalone="no"?>
<!DOCTYPE svg PUBLIC "-//W3C//DTD SVG 1.1//EN"
 "http://www.w3.org/Graphics/SVG/1.1/DTD/svg11.dtd">
<!-- Generated by graphviz version 2.40.1 (20161225.0304)
 -->
<!-- Title: sk_regions Pages: 1 -->
<svg width="643pt" height="2279pt"
 viewBox="0.00 0.00 642.50 2279.00" xmlns="http://www.w3.org/2000/svg" xmlns:xlink="http://www.w3.org/1999/xlink">
<g id="graph0" class="graph" transform="scale(1 1) rotate(0) translate(4 2275)">
<title>sk_regions</title>
<polygon fill="#ffffff" stroke="transparent" points="-4,4 -4,-2275 638.5,-2275 638.5,4 -4,4"/>
<!-- sk_regions -->
<g id="node1" class="node">
<title>sk_regions</title>
<polygon fill="#efefef" stroke="transparent" points="89.5,-622.5 89.5,-657.5 317.5,-657.5 317.5,-622.5 89.5,-622.5"/>
<polygon fill="none" stroke="#000000" points="89.5,-622.5 89.5,-657.5 317.5,-657.5 317.5,-622.5 89.5,-622.5"/>
<text text-anchor="start" x="96.2073" y="-635.3" font-family="Arial Bold" font-size="18.00" fill="#000000">sk_regions</text>
<text text-anchor="start" x="183.2247" y="-635.3" font-family="Arial" font-size="14.00" fill="#000000">    </text>
<text text-anchor="start" x="217.4295" y="-635.3" font-family="Arial" font-size="14.00" fill="#666666">[BASE TABLE]</text>
<polygon fill="none" stroke="#000000" points="89.5,-592.5 89.5,-622.5 317.5,-622.5 317.5,-592.5 89.5,-592.5"/>
<text text-anchor="start" x="96.5" y="-603.9" font-family="Arial" font-size="14.00" fill="#000000">id </text>
<text text-anchor="start" x="111.2798" y="-603.9" font-family="Arial" font-size="14.00" fill="#666666">[int(11)]</text>
<polygon fill="none" stroke="#000000" points="89.5,-562.5 89.5,-592.5 317.5,-592.5 317.5,-562.5 89.5,-562.5"/>
<text text-anchor="start" x="96.5" y="-573.9" font-family="Arial" font-size="14.00" fill="#000000">lat </text>
<text text-anchor="start" x="115.1704" y="-573.9" font-family="Arial" font-size="14.00" fill="#666666">[decimal(24,20)]</text>
<polygon fill="none" stroke="#000000" points="89.5,-532.5 89.5,-562.5 317.5,-562.5 317.5,-532.5 89.5,-532.5"/>
<text text-anchor="start" x="96.5" y="-543.9" font-family="Arial" font-size="14.00" fill="#000000">lng </text>
<text text-anchor="start" x="119.0624" y="-543.9" font-family="Arial" font-size="14.00" fill="#666666">[decimal(24,20)]</text>
<polygon fill="none" stroke="#000000" points="89.5,-502.5 89.5,-532.5 317.5,-532.5 317.5,-502.5 89.5,-502.5"/>
<text text-anchor="start" x="96.5" y="-513.9" font-family="Arial" font-size="14.00" fill="#000000">name </text>
<text text-anchor="start" x="135.399" y="-513.9" font-family="Arial" font-size="14.00" fill="#666666">[varchar(255)]</text>
<polygon fill="none" stroke="#000000" points="89.5,-472.5 89.5,-502.5 317.5,-502.5 317.5,-472.5 89.5,-472.5"/>
<text text-anchor="start" x="96.5" y="-483.9" font-family="Arial" font-size="14.00" fill="#000000">name_furigana </text>
<text text-anchor="start" x="193.7524" y="-483.9" font-family="Arial" font-size="14.00" fill="#666666">[varchar(255)]</text>
<polygon fill="none" stroke="#000000" points="89.5,-442.5 89.5,-472.5 317.5,-472.5 317.5,-442.5 89.5,-442.5"/>
<text text-anchor="start" x="96.5" y="-453.9" font-family="Arial" font-size="14.00" fill="#000000">city_id </text>
<text text-anchor="start" x="140.0596" y="-453.9" font-family="Arial" font-size="14.00" fill="#666666">[int(11)]</text>
<polygon fill="none" stroke="#000000" points="89.5,-412.5 89.5,-442.5 317.5,-442.5 317.5,-412.5 89.5,-412.5"/>
<text text-anchor="start" x="96.5" y="-423.9" font-family="Arial" font-size="14.00" fill="#000000">name_initial </text>
<text text-anchor="start" x="175.0638" y="-423.9" font-family="Arial" font-size="14.00" fill="#666666">[varchar(1)]</text>
<polygon fill="none" stroke="#000000" stroke-width="3" points="88,-411.5 88,-659.5 319,-659.5 319,-411.5 88,-411.5"/>
</g>
<!-- sk_cities -->
<g id="node3" class="node">
<title>sk_cities</title>
<polygon fill="#efefef" stroke="transparent" points="89.5,-252.5 89.5,-287.5 317.5,-287.5 317.5,-252.5 89.5,-252.5"/>
<polygon fill="none" stroke="#000000" points="89.5,-252.5 89.5,-287.5 317.5,-287.5 317.5,-252.5 89.5,-252.5"/>
<text text-anchor="start" x="105.2145" y="-265.3" font-family="Arial Bold" font-size="18.00" fill="#000000">sk_cities</text>
<text text-anchor="start" x="174.2175" y="-265.3" font-family="Arial" font-size="14.00" fill="#000000">    </text>
<text text-anchor="start" x="208.4223" y="-265.3" font-family="Arial" font-size="14.00" fill="#666666">[BASE TABLE]</text>
<polygon fill="none" stroke="#000000" points="89.5,-222.5 89.5,-252.5 317.5,-252.5 317.5,-222.5 89.5,-222.5"/>
<text text-anchor="start" x="96.5" y="-233.9" font-family="Arial" font-size="14.00" fill="#000000">id    </text>
<text text-anchor="start" x="141.594" y="-233.9" font-family="Arial" font-size="14.00" fill="#666666">[int(11)]</text>
<polygon fill="none" stroke="#000000" points="89.5,-192.5 89.5,-222.5 317.5,-222.5 317.5,-192.5 89.5,-192.5"/>
<text text-anchor="start" x="96.5" y="-203.9" font-family="Arial" font-size="14.00" fill="#000000">lat    </text>
<text text-anchor="start" x="145.4846" y="-203.9" font-family="Arial" font-size="14.00" fill="#666666">[decimal(24,20)]</text>
<polygon fill="none" stroke="#000000" points="89.5,-162.5 89.5,-192.5 317.5,-192.5 317.5,-162.5 89.5,-162.5"/>
<text text-anchor="start" x="96.5" y="-173.9" font-family="Arial" font-size="14.00" fill="#000000">lng    </text>
<text text-anchor="start" x="149.3766" y="-173.9" font-family="Arial" font-size="14.00" fill="#666666">[decimal(24,20)]</text>
<polygon fill="none" stroke="#000000" points="89.5,-132.5 89.5,-162.5 317.5,-162.5 317.5,-132.5 89.5,-132.5"/>
<text text-anchor="start" x="96.5" y="-143.9" font-family="Arial" font-size="14.00" fill="#000000">name    </text>
<text text-anchor="start" x="165.7132" y="-143.9" font-family="Arial" font-size="14.00" fill="#666666">[varchar(255)]</text>
<polygon fill="none" stroke="#000000" points="89.5,-102.5 89.5,-132.5 317.5,-132.5 317.5,-102.5 89.5,-102.5"/>
<text text-anchor="start" x="96.1571" y="-113.9" font-family="Arial" font-size="14.00" fill="#000000">name_furigana    </text>
<text text-anchor="start" x="223.7237" y="-113.9" font-family="Arial" font-size="14.00" fill="#666666">[varchar(255)]</text>
<polygon fill="none" stroke="#000000" points="89.5,-72.5 89.5,-102.5 317.5,-102.5 317.5,-72.5 89.5,-72.5"/>
<text text-anchor="start" x="96.5" y="-83.9" font-family="Arial" font-size="14.00" fill="#000000">name_initial    </text>
<text text-anchor="start" x="205.378" y="-83.9" font-family="Arial" font-size="14.00" fill="#666666">[varchar(1)]</text>
<polygon fill="none" stroke="#000000" points="89.5,-42.5 89.5,-72.5 317.5,-72.5 317.5,-42.5 89.5,-42.5"/>
<text text-anchor="start" x="96.5" y="-53.9" font-family="Arial" font-size="14.00" fill="#000000">pref_id    </text>
<text text-anchor="start" x="173.493" y="-53.9" font-family="Arial" font-size="14.00" fill="#666666">[int(11)]</text>
</g>
<!-- sk_regions&#45;&gt;sk_cities -->
<g id="edge2" class="edge">
<title>sk_regions:city_id&#45;&gt;sk_cities:id</title>
<path fill="none" stroke="#000000" d="M327.716,-456.6591C415.1501,-441.8888 411.7448,-237.5 317.5,-237.5"/>
<polygon fill="#000000" stroke="#000000" points="327.4663,-456.6795 317.1308,-453.0152 322.4831,-457.0898 317.5,-457.5 317.5,-457.5 317.5,-457.5 322.4831,-457.0898 317.8692,-461.9848 327.4663,-456.6795 327.4663,-456.6795"/>
<text text-anchor="start" x="324.7255" y="-467.5" font-family="Arial" font-size="10.00" fill="#000000">FOREIGN KEY (city_id) REFERENCES sk_cities (id)</text>
</g>
<!-- sk_properties -->
<g id="node2" class="node">
<title>sk_properties</title>
<polygon fill="#efefef" stroke="transparent" points="43.5,-2192.5 43.5,-2227.5 362.5,-2227.5 362.5,-2192.5 43.5,-2192.5"/>
<polygon fill="none" stroke="#000000" points="43.5,-2192.5 43.5,-2227.5 362.5,-2227.5 362.5,-2192.5 43.5,-2192.5"/>
<text text-anchor="start" x="85.207" y="-2205.3" font-family="Arial Bold" font-size="18.00" fill="#000000">sk_properties</text>
<text text-anchor="start" x="193.225" y="-2205.3" font-family="Arial" font-size="14.00" fill="#000000">    </text>
<text text-anchor="start" x="227.4298" y="-2205.3" font-family="Arial" font-size="14.00" fill="#666666">[BASE TABLE]</text>
<polygon fill="none" stroke="#000000" points="43.5,-2162.5 43.5,-2192.5 362.5,-2192.5 362.5,-2162.5 43.5,-2162.5"/>
<text text-anchor="start" x="50.5" y="-2173.9" font-family="Arial" font-size="14.00" fill="#000000">id    </text>
<text text-anchor="start" x="95.594" y="-2173.9" font-family="Arial" font-size="14.00" fill="#666666">[int(11) unsigned]</text>
<polygon fill="none" stroke="#000000" points="43.5,-2132.5 43.5,-2162.5 362.5,-2162.5 362.5,-2132.5 43.5,-2132.5"/>
<text text-anchor="start" x="50.5" y="-2143.9" font-family="Arial" font-size="14.00" fill="#000000">is_deleted    </text>
<text text-anchor="start" x="148.5042" y="-2143.9" font-family="Arial" font-size="14.00" fill="#666666">[tinyint(1)]</text>
<polygon fill="none" stroke="#000000" points="43.5,-2102.5 43.5,-2132.5 362.5,-2132.5 362.5,-2102.5 43.5,-2102.5"/>
<text text-anchor="start" x="50.5" y="-2113.9" font-family="Arial" font-size="14.00" fill="#000000">hide    </text>
<text text-anchor="start" x="111.1592" y="-2113.9" font-family="Arial" font-size="14.00" fill="#666666">[smallint(6) unsigned]</text>
<polygon fill="none" stroke="#000000" points="43.5,-2072.5 43.5,-2102.5 362.5,-2102.5 362.5,-2072.5 43.5,-2072.5"/>
<text text-anchor="start" x="50.5" y="-2083.9" font-family="Arial" font-size="14.00" fill="#000000">is_listable    </text>
<text text-anchor="start" x="146.1522" y="-2083.9" font-family="Arial" font-size="14.00" fill="#666666">[tinyint(1)]</text>
<polygon fill="none" stroke="#000000" points="43.5,-2042.5 43.5,-2072.5 362.5,-2072.5 362.5,-2042.5 43.5,-2042.5"/>
<text text-anchor="start" x="50.5" y="-2053.9" font-family="Arial" font-size="14.00" fill="#000000">lessor_id    </text>
<text text-anchor="start" x="140.709" y="-2053.9" font-family="Arial" font-size="14.00" fill="#666666">[int(11) unsigned]</text>
<polygon fill="none" stroke="#000000" points="43.5,-2012.5 43.5,-2042.5 362.5,-2042.5 362.5,-2012.5 43.5,-2012.5"/>
<text text-anchor="start" x="50.5" y="-2023.9" font-family="Arial" font-size="14.00" fill="#000000">name    </text>
<text text-anchor="start" x="119.7132" y="-2023.9" font-family="Arial" font-size="14.00" fill="#666666">[varchar(200)]</text>
<polygon fill="none" stroke="#000000" points="43.5,-1982.5 43.5,-2012.5 362.5,-2012.5 362.5,-1982.5 43.5,-1982.5"/>
<text text-anchor="start" x="50.5" y="-1993.9" font-family="Arial" font-size="14.00" fill="#000000">voice_name    </text>
<text text-anchor="start" x="160.1676" y="-1993.9" font-family="Arial" font-size="14.00" fill="#666666">[varchar(200)]</text>
<polygon fill="none" stroke="#000000" points="43.5,-1952.5 43.5,-1982.5 362.5,-1982.5 362.5,-1952.5 43.5,-1952.5"/>
<text text-anchor="start" x="50.5" y="-1963.9" font-family="Arial" font-size="14.00" fill="#000000">description_url    </text>
<text text-anchor="start" x="175.7146" y="-1963.9" font-family="Arial" font-size="14.00" fill="#666666">[varchar(1000)]</text>
<polygon fill="none" stroke="#000000" points="43.5,-1922.5 43.5,-1952.5 362.5,-1952.5 362.5,-1922.5 43.5,-1922.5"/>
<text text-anchor="start" x="50.5" y="-1933.9" font-family="Arial" font-size="14.00" fill="#000000">brochure    </text>
<text text-anchor="start" x="139.939" y="-1933.9" font-family="Arial" font-size="14.00" fill="#666666">[varchar(1000)]</text>
<polygon fill="none" stroke="#000000" points="43.5,-1892.5 43.5,-1922.5 362.5,-1922.5 362.5,-1892.5 43.5,-1892.5"/>
<text text-anchor="start" x="50.5" y="-1903.9" font-family="Arial" font-size="14.00" fill="#000000">postal    </text>
<text text-anchor="start" x="122.0498" y="-1903.9" font-family="Arial" font-size="14.00" fill="#666666">[varchar(8)]</text>
<polygon fill="none" stroke="#000000" points="43.5,-1862.5 43.5,-1892.5 362.5,-1892.5 362.5,-1862.5 43.5,-1862.5"/>
<text text-anchor="start" x="50.5" y="-1873.9" font-family="Arial" font-size="14.00" fill="#000000">prefecture    </text>
<text text-anchor="start" x="147.7202" y="-1873.9" font-family="Arial" font-size="14.00" fill="#666666">[varchar(20)]</text>
<polygon fill="none" stroke="#000000" points="43.5,-1832.5 43.5,-1862.5 362.5,-1862.5 362.5,-1832.5 43.5,-1832.5"/>
<text text-anchor="start" x="50.5" y="-1843.9" font-family="Arial" font-size="14.00" fill="#000000">address    </text>
<text text-anchor="start" x="134.4958" y="-1843.9" font-family="Arial" font-size="14.00" fill="#666666">[varchar(400)]</text>
<polygon fill="none" stroke="#000000" points="43.5,-1802.5 43.5,-1832.5 362.5,-1832.5 362.5,-1802.5 43.5,-1802.5"/>
<text text-anchor="start" x="50.5" y="-1813.9" font-family="Arial" font-size="14.00" fill="#000000">caution    </text>
<text text-anchor="start" x="129.8324" y="-1813.9" font-family="Arial" font-size="14.00" fill="#666666">[text]</text>
<polygon fill="none" stroke="#000000" points="43.5,-1772.5 43.5,-1802.5 362.5,-1802.5 362.5,-1772.5 43.5,-1772.5"/>
<text text-anchor="start" x="50.5" y="-1783.9" font-family="Arial" font-size="14.00" fill="#000000">is_send_reserved_email    </text>
<text text-anchor="start" x="236.3976" y="-1783.9" font-family="Arial" font-size="14.00" fill="#666666">[tinyint(1)]</text>
<polygon fill="none" stroke="#000000" points="43.5,-1742.5 43.5,-1772.5 362.5,-1772.5 362.5,-1742.5 43.5,-1742.5"/>
<text text-anchor="start" x="50.5" y="-1753.9" font-family="Arial" font-size="14.00" fill="#000000">hide_password    </text>
<text text-anchor="start" x="178.8394" y="-1753.9" font-family="Arial" font-size="14.00" fill="#666666">[varchar(50)]</text>
<polygon fill="none" stroke="#000000" points="43.5,-1712.5 43.5,-1742.5 362.5,-1742.5 362.5,-1712.5 43.5,-1712.5"/>
<text text-anchor="start" x="50.5" y="-1723.9" font-family="Arial" font-size="14.00" fill="#000000">terms    </text>
<text text-anchor="start" x="119.6992" y="-1723.9" font-family="Arial" font-size="14.00" fill="#666666">[text]</text>
<polygon fill="none" stroke="#000000" points="43.5,-1682.5 43.5,-1712.5 362.5,-1712.5 362.5,-1682.5 43.5,-1682.5"/>
<text text-anchor="start" x="50.5" y="-1693.9" font-family="Arial" font-size="14.00" fill="#000000">access    </text>
<text text-anchor="start" x="128.27" y="-1693.9" font-family="Arial" font-size="14.00" fill="#666666">[text]</text>
<polygon fill="none" stroke="#000000" points="43.5,-1652.5 43.5,-1682.5 362.5,-1682.5 362.5,-1652.5 43.5,-1652.5"/>
<text text-anchor="start" x="50.5" y="-1663.9" font-family="Arial" font-size="14.00" fill="#000000">specified_cm_tran    </text>
<text text-anchor="start" x="198.2812" y="-1663.9" font-family="Arial" font-size="14.00" fill="#666666">[text]</text>
<polygon fill="none" stroke="#000000" points="43.5,-1622.5 43.5,-1652.5 362.5,-1652.5 362.5,-1622.5 43.5,-1622.5"/>
<text text-anchor="start" x="50.5" y="-1633.9" font-family="Arial" font-size="14.00" fill="#000000">introduction    </text>
<text text-anchor="start" x="157.0554" y="-1633.9" font-family="Arial" font-size="14.00" fill="#666666">[text]</text>
<polygon fill="none" stroke="#000000" points="43.5,-1592.5 43.5,-1622.5 362.5,-1622.5 362.5,-1592.5 43.5,-1592.5"/>
<text text-anchor="start" x="50.5" y="-1603.9" font-family="Arial" font-size="14.00" fill="#000000">catchcopy    </text>
<text text-anchor="start" x="147.7258" y="-1603.9" font-family="Arial" font-size="14.00" fill="#666666">[varchar(100)]</text>
<polygon fill="none" stroke="#000000" points="43.5,-1562.5 43.5,-1592.5 362.5,-1592.5 362.5,-1562.5 43.5,-1562.5"/>
<text text-anchor="start" x="50.5" y="-1573.9" font-family="Arial" font-size="14.00" fill="#000000">discount_info    </text>
<text text-anchor="start" x="167.1774" y="-1573.9" font-family="Arial" font-size="14.00" fill="#666666">[text]</text>
<polygon fill="none" stroke="#000000" points="43.5,-1532.5 43.5,-1562.5 362.5,-1562.5 362.5,-1532.5 43.5,-1532.5"/>
<text text-anchor="start" x="50.5" y="-1543.9" font-family="Arial" font-size="14.00" fill="#000000">buffer_time    </text>
<text text-anchor="start" x="154.7174" y="-1543.9" font-family="Arial" font-size="14.00" fill="#666666">[time]</text>
<polygon fill="none" stroke="#000000" points="43.5,-1502.5 43.5,-1532.5 362.5,-1532.5 362.5,-1502.5 43.5,-1502.5"/>
<text text-anchor="start" x="50.5" y="-1513.9" font-family="Arial" font-size="14.00" fill="#000000">buffer_time_control    </text>
<text text-anchor="start" x="204.5056" y="-1513.9" font-family="Arial" font-size="14.00" fill="#666666">[smallint(3)]</text>
<polygon fill="none" stroke="#000000" points="43.5,-1472.5 43.5,-1502.5 362.5,-1502.5 362.5,-1472.5 43.5,-1472.5"/>
<text text-anchor="start" x="50.5" y="-1483.9" font-family="Arial" font-size="14.00" fill="#000000">sort_order    </text>
<text text-anchor="start" x="148.4902" y="-1483.9" font-family="Arial" font-size="14.00" fill="#666666">[int(11)]</text>
<polygon fill="none" stroke="#000000" points="43.5,-1442.5 43.5,-1472.5 362.5,-1472.5 362.5,-1442.5 43.5,-1442.5"/>
<text text-anchor="start" x="50.5" y="-1453.9" font-family="Arial" font-size="14.00" fill="#000000">is_approve    </text>
<text text-anchor="start" x="153.1676" y="-1453.9" font-family="Arial" font-size="14.00" fill="#666666">[tinyint(1)]</text>
<polygon fill="none" stroke="#000000" points="43.5,-1412.5 43.5,-1442.5 362.5,-1442.5 362.5,-1412.5 43.5,-1412.5"/>
<text text-anchor="start" x="50.5" y="-1423.9" font-family="Arial" font-size="14.00" fill="#000000">fixed_limit_date_after_approve    </text>
<text text-anchor="start" x="276.0876" y="-1423.9" font-family="Arial" font-size="14.00" fill="#666666">[int(11)]</text>
<polygon fill="none" stroke="#000000" points="43.5,-1382.5 43.5,-1412.5 362.5,-1412.5 362.5,-1382.5 43.5,-1382.5"/>
<text text-anchor="start" x="50.5" y="-1393.9" font-family="Arial" font-size="14.00" fill="#000000">fixed_limit_date_before_first_time    </text>
<text text-anchor="start" x="293.96" y="-1393.9" font-family="Arial" font-size="14.00" fill="#666666">[int(11)]</text>
<polygon fill="none" stroke="#000000" points="43.5,-1352.5 43.5,-1382.5 362.5,-1382.5 362.5,-1352.5 43.5,-1352.5"/>
<text text-anchor="start" x="50.5" y="-1363.9" font-family="Arial" font-size="14.00" fill="#000000">enable_reserve_lock    </text>
<text text-anchor="start" x="213.8478" y="-1363.9" font-family="Arial" font-size="14.00" fill="#666666">[tinyint(1) unsigned]</text>
<polygon fill="none" stroke="#000000" points="43.5,-1322.5 43.5,-1352.5 362.5,-1352.5 362.5,-1322.5 43.5,-1322.5"/>
<text text-anchor="start" x="50.5" y="-1333.9" font-family="Arial" font-size="14.00" fill="#000000">reserve_lock_time    </text>
<text text-anchor="start" x="198.2686" y="-1333.9" font-family="Arial" font-size="14.00" fill="#666666">[time]</text>
<polygon fill="none" stroke="#000000" points="43.5,-1292.5 43.5,-1322.5 362.5,-1322.5 362.5,-1292.5 43.5,-1292.5"/>
<text text-anchor="start" x="50.5" y="-1303.9" font-family="Arial" font-size="14.00" fill="#000000">reserve_lock_target    </text>
<text text-anchor="start" x="207.6178" y="-1303.9" font-family="Arial" font-size="14.00" fill="#666666">[smallint(6) unsigned]</text>
<polygon fill="none" stroke="#000000" points="43.5,-1262.5 43.5,-1292.5 362.5,-1292.5 362.5,-1262.5 43.5,-1262.5"/>
<text text-anchor="start" x="50.5" y="-1273.9" font-family="Arial" font-size="14.00" fill="#000000">enable_reserve_unlock    </text>
<text text-anchor="start" x="229.413" y="-1273.9" font-family="Arial" font-size="14.00" fill="#666666">[tinyint(1) unsigned]</text>
<polygon fill="none" stroke="#000000" points="43.5,-1232.5 43.5,-1262.5 362.5,-1262.5 362.5,-1232.5 43.5,-1232.5"/>
<text text-anchor="start" x="50.5" y="-1243.9" font-family="Arial" font-size="14.00" fill="#000000">reserve_unlock_time    </text>
<text text-anchor="start" x="213.8338" y="-1243.9" font-family="Arial" font-size="14.00" fill="#666666">[time]</text>
<polygon fill="none" stroke="#000000" points="43.5,-1202.5 43.5,-1232.5 362.5,-1232.5 362.5,-1202.5 43.5,-1202.5"/>
<text text-anchor="start" x="50.1515" y="-1213.9" font-family="Arial" font-size="14.00" fill="#000000">reserve_unlock_target    </text>
<text text-anchor="start" x="222.8345" y="-1213.9" font-family="Arial" font-size="14.00" fill="#666666">[smallint(6) unsigned]</text>
<polygon fill="none" stroke="#000000" points="43.5,-1172.5 43.5,-1202.5 362.5,-1202.5 362.5,-1172.5 43.5,-1172.5"/>
<text text-anchor="start" x="50.5" y="-1183.9" font-family="Arial" font-size="14.00" fill="#000000">cancel_charge_payment_limit_date    </text>
<text text-anchor="start" x="304.8716" y="-1183.9" font-family="Arial" font-size="14.00" fill="#666666">[int(11)]</text>
<polygon fill="none" stroke="#000000" points="43.5,-1142.5 43.5,-1172.5 362.5,-1172.5 362.5,-1142.5 43.5,-1142.5"/>
<text text-anchor="start" x="50.5" y="-1153.9" font-family="Arial" font-size="14.00" fill="#000000">is_using_origin_cancel_policy    </text>
<text text-anchor="start" x="269.8506" y="-1153.9" font-family="Arial" font-size="14.00" fill="#666666">[smallint(1)]</text>
<polygon fill="none" stroke="#000000" points="43.5,-1112.5 43.5,-1142.5 362.5,-1142.5 362.5,-1112.5 43.5,-1112.5"/>
<text text-anchor="start" x="50.5" y="-1123.9" font-family="Arial" font-size="14.00" fill="#000000">pref_id    </text>
<text text-anchor="start" x="127.493" y="-1123.9" font-family="Arial" font-size="14.00" fill="#666666">[int(11)]</text>
<polygon fill="none" stroke="#000000" points="43.5,-1082.5 43.5,-1112.5 362.5,-1112.5 362.5,-1082.5 43.5,-1082.5"/>
<text text-anchor="start" x="50.5" y="-1093.9" font-family="Arial" font-size="14.00" fill="#000000">city_id    </text>
<text text-anchor="start" x="124.3738" y="-1093.9" font-family="Arial" font-size="14.00" fill="#666666">[int(11)]</text>
<polygon fill="none" stroke="#000000" points="43.5,-1052.5 43.5,-1082.5 362.5,-1082.5 362.5,-1052.5 43.5,-1052.5"/>
<text text-anchor="start" x="50.5" y="-1063.9" font-family="Arial" font-size="14.00" fill="#000000">region_id    </text>
<text text-anchor="start" x="142.2742" y="-1063.9" font-family="Arial" font-size="14.00" fill="#666666">[int(11)]</text>
<polygon fill="none" stroke="#000000" points="43.5,-1022.5 43.5,-1052.5 362.5,-1052.5 362.5,-1022.5 43.5,-1022.5"/>
<text text-anchor="start" x="50.5" y="-1033.9" font-family="Arial" font-size="14.00" fill="#000000">lat    </text>
<text text-anchor="start" x="99.4846" y="-1033.9" font-family="Arial" font-size="14.00" fill="#666666">[decimal(24,20)]</text>
<polygon fill="none" stroke="#000000" points="43.5,-992.5 43.5,-1022.5 362.5,-1022.5 362.5,-992.5 43.5,-992.5"/>
<text text-anchor="start" x="50.5" y="-1003.9" font-family="Arial" font-size="14.00" fill="#000000">lng    </text>
<text text-anchor="start" x="103.3766" y="-1003.9" font-family="Arial" font-size="14.00" fill="#666666">[decimal(24,20)]</text>
<polygon fill="none" stroke="#000000" points="43.5,-962.5 43.5,-992.5 362.5,-992.5 362.5,-962.5 43.5,-962.5"/>
<text text-anchor="start" x="50.5" y="-973.9" font-family="Arial" font-size="14.00" fill="#000000">created_datetime    </text>
<text text-anchor="start" x="192.8478" y="-973.9" font-family="Arial" font-size="14.00" fill="#666666">[timestamp]</text>
<polygon fill="none" stroke="#000000" points="43.5,-932.5 43.5,-962.5 362.5,-962.5 362.5,-932.5 43.5,-932.5"/>
<text text-anchor="start" x="50.5" y="-943.9" font-family="Arial" font-size="14.00" fill="#000000">updated_datetime    </text>
<text text-anchor="start" x="196.7524" y="-943.9" font-family="Arial" font-size="14.00" fill="#666666">[timestamp]</text>
<polygon fill="none" stroke="#000000" points="43.5,-902.5 43.5,-932.5 362.5,-932.5 362.5,-902.5 43.5,-902.5"/>
<text text-anchor="start" x="50.5" y="-913.9" font-family="Arial" font-size="14.00" fill="#000000">owner_buffer_time    </text>
<text text-anchor="start" x="200.615" y="-913.9" font-family="Arial" font-size="14.00" fill="#666666">[time]</text>
<polygon fill="none" stroke="#000000" points="43.5,-872.5 43.5,-902.5 362.5,-902.5 362.5,-872.5 43.5,-872.5"/>
<text text-anchor="start" x="50.5" y="-883.9" font-family="Arial" font-size="14.00" fill="#000000">external_buffer_time    </text>
<text text-anchor="start" x="212.2882" y="-883.9" font-family="Arial" font-size="14.00" fill="#666666">[time]</text>
<polygon fill="none" stroke="#000000" points="43.5,-842.5 43.5,-872.5 362.5,-872.5 362.5,-842.5 43.5,-842.5"/>
<text text-anchor="start" x="50.5" y="-853.9" font-family="Arial" font-size="14.00" fill="#000000">owner_buffer_time_control    </text>
<text text-anchor="start" x="250.4032" y="-853.9" font-family="Arial" font-size="14.00" fill="#666666">[smallint(3)]</text>
<polygon fill="none" stroke="#000000" points="43.5,-812.5 43.5,-842.5 362.5,-842.5 362.5,-812.5 43.5,-812.5"/>
<text text-anchor="start" x="50.5" y="-823.9" font-family="Arial" font-size="14.00" fill="#000000">external_buffer_time_control    </text>
<text text-anchor="start" x="262.0764" y="-823.9" font-family="Arial" font-size="14.00" fill="#666666">[smallint(3)]</text>
<polygon fill="none" stroke="#000000" points="43.5,-782.5 43.5,-812.5 362.5,-812.5 362.5,-782.5 43.5,-782.5"/>
<text text-anchor="start" x="50.5" y="-793.9" font-family="Arial" font-size="14.00" fill="#000000">approved_mail_note    </text>
<text text-anchor="start" x="211.521" y="-793.9" font-family="Arial" font-size="14.00" fill="#666666">[text]</text>
</g>
<!-- sk_properties&#45;&gt;sk_regions -->
<g id="edge1" class="edge">
<title>sk_properties:region_id&#45;&gt;sk_regions:id</title>
<path fill="none" stroke="#000000" d="M372.4716,-1065.6061C432.8008,-1041.3814 408.1372,-792.0503 362.5,-740 281.8166,-647.9785 170.1834,-796.0215 89.5,-704 61.2248,-671.7514 46.6111,-607.5 89.5,-607.5"/>
<polygon fill="#000000" stroke="#000000" points="372.3244,-1065.634 361.6603,-1063.079 367.4122,-1066.567 362.5,-1067.5 362.5,-1067.5 362.5,-1067.5 367.4122,-1066.567 363.3397,-1071.921 372.3244,-1065.634 372.3244,-1065.634"/>
<text text-anchor="start" x="369.3285" y="-1077.5" font-family="Arial" font-size="10.00" fill="#000000">FOREIGN KEY (region_id) REFERENCES sk_regions (id)</text>
</g>
</g>
</svg>
