<?xml version="1.0" encoding="UTF-8" standalone="no"?>
<!DOCTYPE svg PUBLIC "-//W3C//DTD SVG 1.1//EN"
 "http://www.w3.org/Graphics/SVG/1.1/DTD/svg11.dtd">
<!-- Generated by graphviz version 2.40.1 (20161225.0304)
 -->
<!-- Title: sk_reserve_cancels Pages: 1 -->
<svg width="649pt" height="2392pt"
 viewBox="0.00 0.00 648.50 2392.00" xmlns="http://www.w3.org/2000/svg" xmlns:xlink="http://www.w3.org/1999/xlink">
<g id="graph0" class="graph" transform="scale(1 1) rotate(0) translate(4 2388)">
<title>sk_reserve_cancels</title>
<polygon fill="#ffffff" stroke="transparent" points="-4,4 -4,-2388 644.5,-2388 644.5,4 -4,4"/>
<!-- sk_reserve_cancels -->
<g id="node1" class="node">
<title>sk_reserve_cancels</title>
<polygon fill="#efefef" stroke="transparent" points="283,-2302.5 283,-2337.5 583,-2337.5 583,-2302.5 283,-2302.5"/>
<polygon fill="none" stroke="#000000" points="283,-2302.5 283,-2337.5 583,-2337.5 583,-2302.5 283,-2302.5"/>
<text text-anchor="start" x="289.7019" y="-2315.3" font-family="Arial Bold" font-size="18.00" fill="#000000">sk_reserve_cancels</text>
<text text-anchor="start" x="448.7301" y="-2315.3" font-family="Arial" font-size="14.00" fill="#000000">    </text>
<text text-anchor="start" x="482.9349" y="-2315.3" font-family="Arial" font-size="14.00" fill="#666666">[BASE TABLE]</text>
<polygon fill="none" stroke="#000000" points="283,-2272.5 283,-2302.5 583,-2302.5 583,-2272.5 283,-2272.5"/>
<text text-anchor="start" x="290" y="-2283.9" font-family="Arial" font-size="14.00" fill="#000000">id </text>
<text text-anchor="start" x="304.7798" y="-2283.9" font-family="Arial" font-size="14.00" fill="#666666">[int(11) unsigned]</text>
<polygon fill="none" stroke="#000000" points="283,-2242.5 283,-2272.5 583,-2272.5 583,-2242.5 283,-2242.5"/>
<text text-anchor="start" x="290" y="-2253.9" font-family="Arial" font-size="14.00" fill="#000000">reserve_id </text>
<text text-anchor="start" x="359.2314" y="-2253.9" font-family="Arial" font-size="14.00" fill="#666666">[int(11) unsigned]</text>
<polygon fill="none" stroke="#000000" points="283,-2212.5 283,-2242.5 583,-2242.5 583,-2212.5 283,-2212.5"/>
<text text-anchor="start" x="290" y="-2223.9" font-family="Arial" font-size="14.00" fill="#000000">day </text>
<text text-anchor="start" x="316.4558" y="-2223.9" font-family="Arial" font-size="14.00" fill="#666666">[int(11) unsigned]</text>
<polygon fill="none" stroke="#000000" points="283,-2182.5 283,-2212.5 583,-2212.5 583,-2182.5 283,-2182.5"/>
<text text-anchor="start" x="290" y="-2193.9" font-family="Arial" font-size="14.00" fill="#000000">charge_percent </text>
<text text-anchor="start" x="391.1458" y="-2193.9" font-family="Arial" font-size="14.00" fill="#666666">[int(11) unsigned]</text>
<polygon fill="none" stroke="#000000" points="283,-2152.5 283,-2182.5 583,-2182.5 583,-2152.5 283,-2152.5"/>
<text text-anchor="start" x="290" y="-2163.9" font-family="Arial" font-size="14.00" fill="#000000">is_cancelable_during_usage_time </text>
<text text-anchor="start" x="505.5048" y="-2163.9" font-family="Arial" font-size="14.00" fill="#666666">[tinyint(1)]</text>
<polygon fill="none" stroke="#000000" stroke-width="3" points="281.5,-2151.5 281.5,-2339.5 584.5,-2339.5 584.5,-2151.5 281.5,-2151.5"/>
</g>
<!-- sk_reserves -->
<g id="node2" class="node">
<title>sk_reserves</title>
<polygon fill="#efefef" stroke="transparent" points="267,-1992.5 267,-2027.5 598,-2027.5 598,-1992.5 267,-1992.5"/>
<polygon fill="none" stroke="#000000" points="267,-1992.5 267,-2027.5 598,-2027.5 598,-1992.5 267,-1992.5"/>
<text text-anchor="start" x="320.2114" y="-2005.3" font-family="Arial Bold" font-size="18.00" fill="#000000">sk_reserves</text>
<text text-anchor="start" x="417.2206" y="-2005.3" font-family="Arial" font-size="14.00" fill="#000000">    </text>
<text text-anchor="start" x="451.4254" y="-2005.3" font-family="Arial" font-size="14.00" fill="#666666">[BASE TABLE]</text>
<polygon fill="none" stroke="#000000" points="267,-1962.5 267,-1992.5 598,-1992.5 598,-1962.5 267,-1962.5"/>
<text text-anchor="start" x="274" y="-1973.9" font-family="Arial" font-size="14.00" fill="#000000">id    </text>
<text text-anchor="start" x="319.094" y="-1973.9" font-family="Arial" font-size="14.00" fill="#666666">[int(11) unsigned]</text>
<polygon fill="none" stroke="#000000" points="267,-1932.5 267,-1962.5 598,-1962.5 598,-1932.5 267,-1932.5"/>
<text text-anchor="start" x="274" y="-1943.9" font-family="Arial" font-size="14.00" fill="#000000">cancel_date    </text>
<text text-anchor="start" x="383.6802" y="-1943.9" font-family="Arial" font-size="14.00" fill="#666666">[datetime]</text>
<polygon fill="none" stroke="#000000" points="267,-1902.5 267,-1932.5 598,-1932.5 598,-1902.5 267,-1902.5"/>
<text text-anchor="start" x="274" y="-1913.9" font-family="Arial" font-size="14.00" fill="#000000">is_tentative    </text>
<text text-anchor="start" x="379.0028" y="-1913.9" font-family="Arial" font-size="14.00" fill="#666666">[tinyint(1)]</text>
<polygon fill="none" stroke="#000000" points="267,-1872.5 267,-1902.5 598,-1902.5 598,-1872.5 267,-1872.5"/>
<text text-anchor="start" x="274" y="-1883.9" font-family="Arial" font-size="14.00" fill="#000000">payment_complete    </text>
<text text-anchor="start" x="426.4572" y="-1883.9" font-family="Arial" font-size="14.00" fill="#666666">[smallint(6)]</text>
<polygon fill="none" stroke="#000000" points="267,-1842.5 267,-1872.5 598,-1872.5 598,-1842.5 267,-1842.5"/>
<text text-anchor="start" x="274" y="-1853.9" font-family="Arial" font-size="14.00" fill="#000000">user_id    </text>
<text text-anchor="start" x="354.1024" y="-1853.9" font-family="Arial" font-size="14.00" fill="#666666">[int(11) unsigned]</text>
<polygon fill="none" stroke="#000000" points="267,-1812.5 267,-1842.5 598,-1842.5 598,-1812.5 267,-1812.5"/>
<text text-anchor="start" x="274" y="-1823.9" font-family="Arial" font-size="14.00" fill="#000000">room_id    </text>
<text text-anchor="start" x="358.763" y="-1823.9" font-family="Arial" font-size="14.00" fill="#666666">[int(11) unsigned]</text>
<polygon fill="none" stroke="#000000" points="267,-1782.5 267,-1812.5 598,-1812.5 598,-1782.5 267,-1782.5"/>
<text text-anchor="start" x="274" y="-1793.9" font-family="Arial" font-size="14.00" fill="#000000">first_time    </text>
<text text-anchor="start" x="364.9762" y="-1793.9" font-family="Arial" font-size="14.00" fill="#666666">[datetime]</text>
<polygon fill="none" stroke="#000000" points="267,-1752.5 267,-1782.5 598,-1782.5 598,-1752.5 267,-1752.5"/>
<text text-anchor="start" x="274" y="-1763.9" font-family="Arial" font-size="14.00" fill="#000000">last_time    </text>
<text text-anchor="start" x="364.2076" y="-1763.9" font-family="Arial" font-size="14.00" fill="#666666">[datetime]</text>
<polygon fill="none" stroke="#000000" points="267,-1722.5 267,-1752.5 598,-1752.5 598,-1722.5 267,-1722.5"/>
<text text-anchor="start" x="274" y="-1733.9" font-family="Arial" font-size="14.00" fill="#000000">transfer_method    </text>
<text text-anchor="start" x="410.1192" y="-1733.9" font-family="Arial" font-size="14.00" fill="#666666">[smallint(6)]</text>
<polygon fill="none" stroke="#000000" points="267,-1692.5 267,-1722.5 598,-1722.5 598,-1692.5 267,-1692.5"/>
<text text-anchor="start" x="274" y="-1703.9" font-family="Arial" font-size="14.00" fill="#000000">price_total    </text>
<text text-anchor="start" x="372.7728" y="-1703.9" font-family="Arial" font-size="14.00" fill="#666666">[int(11) unsigned]</text>
<polygon fill="none" stroke="#000000" points="267,-1662.5 267,-1692.5 598,-1692.5 598,-1662.5 267,-1662.5"/>
<text text-anchor="start" x="274" y="-1673.9" font-family="Arial" font-size="14.00" fill="#000000">price_total_without_tax    </text>
<text text-anchor="start" x="451.3534" y="-1673.9" font-family="Arial" font-size="14.00" fill="#666666">[int(11) unsigned]</text>
<polygon fill="none" stroke="#000000" points="267,-1632.5 267,-1662.5 598,-1662.5 598,-1632.5 267,-1632.5"/>
<text text-anchor="start" x="274" y="-1643.9" font-family="Arial" font-size="14.00" fill="#000000">price_discount    </text>
<text text-anchor="start" x="398.4474" y="-1643.9" font-family="Arial" font-size="14.00" fill="#666666">[int(11) unsigned]</text>
<polygon fill="none" stroke="#000000" points="267,-1602.5 267,-1632.5 598,-1632.5 598,-1602.5 267,-1602.5"/>
<text text-anchor="start" x="274" y="-1613.9" font-family="Arial" font-size="14.00" fill="#000000">price_room    </text>
<text text-anchor="start" x="378.2062" y="-1613.9" font-family="Arial" font-size="14.00" fill="#666666">[int(11) unsigned]</text>
<polygon fill="none" stroke="#000000" points="267,-1572.5 267,-1602.5 598,-1602.5 598,-1572.5 267,-1572.5"/>
<text text-anchor="start" x="274" y="-1583.9" font-family="Arial" font-size="14.00" fill="#000000">price_room_without_tax    </text>
<text text-anchor="start" x="456.7868" y="-1583.9" font-family="Arial" font-size="14.00" fill="#666666">[int(11) unsigned]</text>
<polygon fill="none" stroke="#000000" points="267,-1542.5 267,-1572.5 598,-1572.5 598,-1542.5 267,-1542.5"/>
<text text-anchor="start" x="274" y="-1553.9" font-family="Arial" font-size="14.00" fill="#000000">price_room_tax    </text>
<text text-anchor="start" x="404.662" y="-1553.9" font-family="Arial" font-size="14.00" fill="#666666">[int(11) unsigned]</text>
<polygon fill="none" stroke="#000000" points="267,-1512.5 267,-1542.5 598,-1542.5 598,-1512.5 267,-1512.5"/>
<text text-anchor="start" x="274" y="-1523.9" font-family="Arial" font-size="14.00" fill="#000000">price_tax    </text>
<text text-anchor="start" x="364.993" y="-1523.9" font-family="Arial" font-size="14.00" fill="#666666">[int(11) unsigned]</text>
<polygon fill="none" stroke="#000000" points="267,-1482.5 267,-1512.5 598,-1512.5 598,-1482.5 267,-1482.5"/>
<text text-anchor="start" x="274" y="-1493.9" font-family="Arial" font-size="14.00" fill="#000000">price_cancel    </text>
<text text-anchor="start" x="386.7742" y="-1493.9" font-family="Arial" font-size="14.00" fill="#666666">[int(11) unsigned]</text>
<polygon fill="none" stroke="#000000" points="267,-1452.5 267,-1482.5 598,-1482.5 598,-1452.5 267,-1452.5"/>
<text text-anchor="start" x="274" y="-1463.9" font-family="Arial" font-size="14.00" fill="#000000">discount_rate    </text>
<text text-anchor="start" x="392.2314" y="-1463.9" font-family="Arial" font-size="14.00" fill="#666666">[int(11)]</text>
<polygon fill="none" stroke="#000000" points="267,-1422.5 267,-1452.5 598,-1452.5 598,-1422.5 267,-1422.5"/>
<text text-anchor="start" x="274" y="-1433.9" font-family="Arial" font-size="14.00" fill="#000000">discount_name    </text>
<text text-anchor="start" x="403.1234" y="-1433.9" font-family="Arial" font-size="14.00" fill="#666666">[varchar(255)]</text>
<polygon fill="none" stroke="#000000" points="267,-1392.5 267,-1422.5 598,-1422.5 598,-1392.5 267,-1392.5"/>
<text text-anchor="start" x="274" y="-1403.9" font-family="Arial" font-size="14.00" fill="#000000">tax_rate    </text>
<text text-anchor="start" x="358.777" y="-1403.9" font-family="Arial" font-size="14.00" fill="#666666">[tinyint(4)]</text>
<polygon fill="none" stroke="#000000" points="267,-1362.5 267,-1392.5 598,-1392.5 598,-1362.5 267,-1362.5"/>
<text text-anchor="start" x="274" y="-1373.9" font-family="Arial" font-size="14.00" fill="#000000">group_id    </text>
<text text-anchor="start" x="362.6676" y="-1373.9" font-family="Arial" font-size="14.00" fill="#666666">[int(11) unsigned]</text>
<polygon fill="none" stroke="#000000" points="267,-1332.5 267,-1362.5 598,-1362.5 598,-1332.5 267,-1332.5"/>
<text text-anchor="start" x="274" y="-1343.9" font-family="Arial" font-size="14.00" fill="#000000">purpose    </text>
<text text-anchor="start" x="358.7784" y="-1343.9" font-family="Arial" font-size="14.00" fill="#666666">[varchar(255)]</text>
<polygon fill="none" stroke="#000000" points="267,-1302.5 267,-1332.5 598,-1332.5 598,-1302.5 267,-1302.5"/>
<text text-anchor="start" x="274" y="-1313.9" font-family="Arial" font-size="14.00" fill="#000000">created    </text>
<text text-anchor="start" x="354.8864" y="-1313.9" font-family="Arial" font-size="14.00" fill="#666666">[datetime]</text>
<polygon fill="none" stroke="#000000" points="267,-1272.5 267,-1302.5 598,-1302.5 598,-1272.5 267,-1272.5"/>
<text text-anchor="start" x="274" y="-1283.9" font-family="Arial" font-size="14.00" fill="#000000">modified    </text>
<text text-anchor="start" x="361.0996" y="-1283.9" font-family="Arial" font-size="14.00" fill="#666666">[datetime]</text>
<polygon fill="none" stroke="#000000" points="267,-1242.5 267,-1272.5 598,-1272.5 598,-1242.5 267,-1242.5"/>
<text text-anchor="start" x="274" y="-1253.9" font-family="Arial" font-size="14.00" fill="#000000">receipt_no    </text>
<text text-anchor="start" x="373.5582" y="-1253.9" font-family="Arial" font-size="14.00" fill="#666666">[varchar(32)]</text>
<polygon fill="none" stroke="#000000" points="267,-1212.5 267,-1242.5 598,-1242.5 598,-1212.5 267,-1212.5"/>
<text text-anchor="start" x="274" y="-1223.9" font-family="Arial" font-size="14.00" fill="#000000">receipt_password    </text>
<text text-anchor="start" x="417.8906" y="-1223.9" font-family="Arial" font-size="14.00" fill="#666666">[varchar(32)]</text>
<polygon fill="none" stroke="#000000" points="267,-1182.5 267,-1212.5 598,-1212.5 598,-1182.5 267,-1182.5"/>
<text text-anchor="start" x="274" y="-1193.9" font-family="Arial" font-size="14.00" fill="#000000">creditcard_brand    </text>
<text text-anchor="start" x="413.2272" y="-1193.9" font-family="Arial" font-size="14.00" fill="#666666">[int(10) unsigned]</text>
<polygon fill="none" stroke="#000000" points="267,-1152.5 267,-1182.5 598,-1182.5 598,-1152.5 267,-1152.5"/>
<text text-anchor="start" x="274" y="-1163.9" font-family="Arial" font-size="14.00" fill="#000000">auto_cancel    </text>
<text text-anchor="start" x="383.6802" y="-1163.9" font-family="Arial" font-size="14.00" fill="#666666">[tinyint(1)]</text>
<polygon fill="none" stroke="#000000" points="267,-1122.5 267,-1152.5 598,-1152.5 598,-1122.5 267,-1122.5"/>
<text text-anchor="start" x="274" y="-1133.9" font-family="Arial" font-size="14.00" fill="#000000">send_remind_mail    </text>
<text text-anchor="start" x="422.5498" y="-1133.9" font-family="Arial" font-size="14.00" fill="#666666">[tinyint(1)]</text>
<polygon fill="none" stroke="#000000" points="267,-1092.5 267,-1122.5 598,-1122.5 598,-1092.5 267,-1092.5"/>
<text text-anchor="start" x="274" y="-1103.9" font-family="Arial" font-size="14.00" fill="#000000">include_tax    </text>
<text text-anchor="start" x="379.0042" y="-1103.9" font-family="Arial" font-size="14.00" fill="#666666">[tinyint(1)]</text>
<polygon fill="none" stroke="#000000" points="267,-1062.5 267,-1092.5 598,-1092.5 598,-1062.5 267,-1062.5"/>
<text text-anchor="start" x="274" y="-1073.9" font-family="Arial" font-size="14.00" fill="#000000">extend_reserve_id    </text>
<text text-anchor="start" x="423.3492" y="-1073.9" font-family="Arial" font-size="14.00" fill="#666666">[int(11) unsigned]</text>
<polygon fill="none" stroke="#000000" points="267,-1032.5 267,-1062.5 598,-1062.5 598,-1032.5 267,-1032.5"/>
<text text-anchor="start" x="274" y="-1043.9" font-family="Arial" font-size="14.00" fill="#000000">tentative_limit    </text>
<text text-anchor="start" x="393.7672" y="-1043.9" font-family="Arial" font-size="14.00" fill="#666666">[datetime]</text>
<polygon fill="none" stroke="#000000" points="267,-1002.5 267,-1032.5 598,-1032.5 598,-1002.5 267,-1002.5"/>
<text text-anchor="start" x="274" y="-1013.9" font-family="Arial" font-size="14.00" fill="#000000">is_bank_transfer_first_extend    </text>
<text text-anchor="start" x="491.8092" y="-1013.9" font-family="Arial" font-size="14.00" fill="#666666">[int(11)]</text>
<polygon fill="none" stroke="#000000" points="267,-972.5 267,-1002.5 598,-1002.5 598,-972.5 267,-972.5"/>
<text text-anchor="start" x="274" y="-983.9" font-family="Arial" font-size="14.00" fill="#000000">memo    </text>
<text text-anchor="start" x="347.0912" y="-983.9" font-family="Arial" font-size="14.00" fill="#666666">[varchar(1000)]</text>
<polygon fill="none" stroke="#000000" points="267,-942.5 267,-972.5 598,-972.5 598,-942.5 267,-942.5"/>
<text text-anchor="start" x="274" y="-953.9" font-family="Arial" font-size="14.00" fill="#000000">memo_owner    </text>
<text text-anchor="start" x="392.9888" y="-953.9" font-family="Arial" font-size="14.00" fill="#666666">[varchar(1000)]</text>
<polygon fill="none" stroke="#000000" points="267,-912.5 267,-942.5 598,-942.5 598,-912.5 267,-912.5"/>
<text text-anchor="start" x="274" y="-923.9" font-family="Arial" font-size="14.00" fill="#000000">owner_memo    </text>
<text text-anchor="start" x="392.9888" y="-923.9" font-family="Arial" font-size="14.00" fill="#666666">[varchar(1000)]</text>
<polygon fill="none" stroke="#000000" points="267,-882.5 267,-912.5 598,-912.5 598,-882.5 267,-882.5"/>
<text text-anchor="start" x="274" y="-893.9" font-family="Arial" font-size="14.00" fill="#000000">cancellation_note    </text>
<text text-anchor="start" x="417.1318" y="-893.9" font-family="Arial" font-size="14.00" fill="#666666">[varchar(1000)]</text>
<polygon fill="none" stroke="#000000" points="267,-852.5 267,-882.5 598,-882.5 598,-852.5 267,-852.5"/>
<text text-anchor="start" x="274" y="-863.9" font-family="Arial" font-size="14.00" fill="#000000">autolock_progress    </text>
<text text-anchor="start" x="422.5666" y="-863.9" font-family="Arial" font-size="14.00" fill="#666666">[tinyint(4)]</text>
<polygon fill="none" stroke="#000000" points="267,-822.5 267,-852.5 598,-852.5 598,-822.5 267,-822.5"/>
<text text-anchor="start" x="274" y="-833.9" font-family="Arial" font-size="14.00" fill="#000000">is_waitlist    </text>
<text text-anchor="start" x="368.0842" y="-833.9" font-family="Arial" font-size="14.00" fill="#666666">[tinyint(1)]</text>
<polygon fill="none" stroke="#000000" points="267,-792.5 267,-822.5 598,-822.5 598,-792.5 267,-792.5"/>
<text text-anchor="start" x="274" y="-803.9" font-family="Arial" font-size="14.00" fill="#000000">customer_name    </text>
<text text-anchor="start" x="408.5554" y="-803.9" font-family="Arial" font-size="14.00" fill="#666666">[varchar(200)]</text>
<polygon fill="none" stroke="#000000" points="267,-762.5 267,-792.5 598,-792.5 598,-762.5 267,-762.5"/>
<text text-anchor="start" x="274" y="-773.9" font-family="Arial" font-size="14.00" fill="#000000">customer_tel    </text>
<text text-anchor="start" x="388.3268" y="-773.9" font-family="Arial" font-size="14.00" fill="#666666">[varchar(13)]</text>
<polygon fill="none" stroke="#000000" points="267,-732.5 267,-762.5 598,-762.5 598,-732.5 267,-732.5"/>
<text text-anchor="start" x="274" y="-743.9" font-family="Arial" font-size="14.00" fill="#000000">customer_mail    </text>
<text text-anchor="start" x="399.2034" y="-743.9" font-family="Arial" font-size="14.00" fill="#666666">[varchar(255)]</text>
<polygon fill="none" stroke="#000000" points="267,-702.5 267,-732.5 598,-732.5 598,-702.5 267,-702.5"/>
<text text-anchor="start" x="274" y="-713.9" font-family="Arial" font-size="14.00" fill="#000000">sales_charge    </text>
<text text-anchor="start" x="391.4502" y="-713.9" font-family="Arial" font-size="14.00" fill="#666666">[varchar(200)]</text>
<polygon fill="none" stroke="#000000" points="267,-672.5 267,-702.5 598,-702.5 598,-672.5 267,-672.5"/>
<text text-anchor="start" x="274" y="-683.9" font-family="Arial" font-size="14.00" fill="#000000">assistant    </text>
<text text-anchor="start" x="363.4404" y="-683.9" font-family="Arial" font-size="14.00" fill="#666666">[varchar(200)]</text>
<polygon fill="none" stroke="#000000" points="267,-642.5 267,-672.5 598,-672.5 598,-642.5 267,-642.5"/>
<text text-anchor="start" x="274" y="-653.9" font-family="Arial" font-size="14.00" fill="#000000">subscriber    </text>
<text text-anchor="start" x="372.763" y="-653.9" font-family="Arial" font-size="14.00" fill="#666666">[varchar(200)]</text>
<polygon fill="none" stroke="#000000" points="267,-612.5 267,-642.5 598,-642.5 598,-612.5 267,-612.5"/>
<text text-anchor="start" x="274" y="-623.9" font-family="Arial" font-size="14.00" fill="#000000">meeting_name    </text>
<text text-anchor="start" x="400.784" y="-623.9" font-family="Arial" font-size="14.00" fill="#666666">[varchar(200)]</text>
<polygon fill="none" stroke="#000000" points="267,-582.5 267,-612.5 598,-612.5 598,-582.5 267,-582.5"/>
<text text-anchor="start" x="274" y="-593.9" font-family="Arial" font-size="14.00" fill="#000000">industry    </text>
<text text-anchor="start" x="357.2104" y="-593.9" font-family="Arial" font-size="14.00" fill="#666666">[smallint(6)]</text>
<polygon fill="none" stroke="#000000" points="267,-552.5 267,-582.5 598,-582.5 598,-552.5 267,-552.5"/>
<text text-anchor="start" x="274" y="-563.9" font-family="Arial" font-size="14.00" fill="#000000">persons    </text>
<text text-anchor="start" x="357.9958" y="-563.9" font-family="Arial" font-size="14.00" fill="#666666">[smallint(6)]</text>
<polygon fill="none" stroke="#000000" points="267,-522.5 267,-552.5 598,-552.5 598,-522.5 267,-522.5"/>
<text text-anchor="start" x="274" y="-533.9" font-family="Arial" font-size="14.00" fill="#000000">accuracy    </text>
<text text-anchor="start" x="364.2132" y="-533.9" font-family="Arial" font-size="14.00" fill="#666666">[varchar(10)]</text>
<polygon fill="none" stroke="#000000" points="267,-492.5 267,-522.5 598,-522.5 598,-492.5 267,-492.5"/>
<text text-anchor="start" x="274" y="-503.9" font-family="Arial" font-size="14.00" fill="#000000">parent_reserve_id    </text>
<text text-anchor="start" x="421.0098" y="-503.9" font-family="Arial" font-size="14.00" fill="#666666">[int(11)]</text>
<polygon fill="none" stroke="#000000" points="267,-462.5 267,-492.5 598,-492.5 598,-462.5 267,-462.5"/>
<text text-anchor="start" x="274" y="-473.9" font-family="Arial" font-size="14.00" fill="#000000">is_thankyou_mail    </text>
<text text-anchor="start" x="416.3366" y="-473.9" font-family="Arial" font-size="14.00" fill="#666666">[tinyint(1)]</text>
<polygon fill="none" stroke="#000000" points="267,-432.5 267,-462.5 598,-462.5 598,-432.5 267,-432.5"/>
<text text-anchor="start" x="274" y="-443.9" font-family="Arial" font-size="14.00" fill="#000000">approve_state    </text>
<text text-anchor="start" x="396.9074" y="-443.9" font-family="Arial" font-size="14.00" fill="#666666">[char(1)]</text>
<polygon fill="none" stroke="#000000" points="267,-402.5 267,-432.5 598,-432.5 598,-402.5 267,-402.5"/>
<text text-anchor="start" x="274" y="-413.9" font-family="Arial" font-size="14.00" fill="#000000">layout_name    </text>
<text text-anchor="start" x="388.3408" y="-413.9" font-family="Arial" font-size="14.00" fill="#666666">[varchar(200)]</text>
<polygon fill="none" stroke="#000000" points="267,-372.5 267,-402.5 598,-402.5 598,-372.5 267,-372.5"/>
<text text-anchor="start" x="274" y="-383.9" font-family="Arial" font-size="14.00" fill="#000000">is_reservation_reminder_mail_sent    </text>
<text text-anchor="start" x="526.0042" y="-383.9" font-family="Arial" font-size="14.00" fill="#666666">[tinyint(1)]</text>
<polygon fill="none" stroke="#000000" points="267,-342.5 267,-372.5 598,-372.5 598,-342.5 267,-342.5"/>
<text text-anchor="start" x="273.8275" y="-353.9" font-family="Arial" font-size="14.00" fill="#000000">is_remotelock_password_mail_sent    </text>
<text text-anchor="start" x="529.7279" y="-353.9" font-family="Arial" font-size="14.00" fill="#666666">[tinyint(1)]</text>
<polygon fill="none" stroke="#000000" points="267,-312.5 267,-342.5 598,-342.5 598,-312.5 267,-312.5"/>
<text text-anchor="start" x="274" y="-323.9" font-family="Arial" font-size="14.00" fill="#000000">sent_remotelock_password_mail    </text>
<text text-anchor="start" x="512.0112" y="-323.9" font-family="Arial" font-size="14.00" fill="#666666">[tinyint(1)]</text>
<polygon fill="none" stroke="#000000" points="267,-282.5 267,-312.5 598,-312.5 598,-282.5 267,-282.5"/>
<text text-anchor="start" x="274" y="-293.9" font-family="Arial" font-size="14.00" fill="#000000">request_price_room_to_free    </text>
<text text-anchor="start" x="484.0252" y="-293.9" font-family="Arial" font-size="14.00" fill="#666666">[tinyint(1)]</text>
<polygon fill="none" stroke="#000000" points="267,-252.5 267,-282.5 598,-282.5 598,-252.5 267,-252.5"/>
<text text-anchor="start" x="274" y="-263.9" font-family="Arial" font-size="14.00" fill="#000000">is_changed_price_to_free    </text>
<text text-anchor="start" x="469.2594" y="-263.9" font-family="Arial" font-size="14.00" fill="#666666">[tinyint(1)]</text>
<polygon fill="none" stroke="#000000" points="267,-222.5 267,-252.5 598,-252.5 598,-222.5 267,-222.5"/>
<text text-anchor="start" x="274" y="-233.9" font-family="Arial" font-size="14.00" fill="#000000">usage_type    </text>
<text text-anchor="start" x="380.5736" y="-233.9" font-family="Arial" font-size="14.00" fill="#666666">[tinyint(2)]</text>
<polygon fill="none" stroke="#000000" points="267,-192.5 267,-222.5 598,-222.5 598,-192.5 267,-192.5"/>
<text text-anchor="start" x="274" y="-203.9" font-family="Arial" font-size="14.00" fill="#000000">customer_address    </text>
<text text-anchor="start" x="423.338" y="-203.9" font-family="Arial" font-size="14.00" fill="#666666">[text]</text>
<polygon fill="none" stroke="#000000" points="267,-162.5 267,-192.5 598,-192.5 598,-162.5 267,-162.5"/>
<text text-anchor="start" x="274" y="-173.9" font-family="Arial" font-size="14.00" fill="#000000">customer_department_name    </text>
<text text-anchor="start" x="487.136" y="-173.9" font-family="Arial" font-size="14.00" fill="#666666">[varchar(255)]</text>
<polygon fill="none" stroke="#000000" points="267,-132.5 267,-162.5 598,-162.5 598,-132.5 267,-132.5"/>
<text text-anchor="start" x="274" y="-143.9" font-family="Arial" font-size="14.00" fill="#000000">mynavi_persons    </text>
<text text-anchor="start" x="410.1108" y="-143.9" font-family="Arial" font-size="14.00" fill="#666666">[varchar(255)]</text>
<polygon fill="none" stroke="#000000" points="267,-102.5 267,-132.5 598,-132.5 598,-102.5 267,-102.5"/>
<text text-anchor="start" x="274" y="-113.9" font-family="Arial" font-size="14.00" fill="#000000">mynavi_job_request_number    </text>
<text text-anchor="start" x="488.69" y="-113.9" font-family="Arial" font-size="14.00" fill="#666666">[varchar(8)]</text>
<polygon fill="none" stroke="#000000" points="267,-72.5 267,-102.5 598,-102.5 598,-72.5 267,-72.5"/>
<text text-anchor="start" x="274" y="-83.9" font-family="Arial" font-size="14.00" fill="#000000">delivery    </text>
<text text-anchor="start" x="356.4264" y="-83.9" font-family="Arial" font-size="14.00" fill="#666666">[tinyint(2)]</text>
<polygon fill="none" stroke="#000000" points="267,-42.5 267,-72.5 598,-72.5 598,-42.5 267,-42.5"/>
<text text-anchor="start" x="274" y="-53.9" font-family="Arial" font-size="14.00" fill="#000000">custom_reserve_items_detail    </text>
<text text-anchor="start" x="490.23" y="-53.9" font-family="Arial" font-size="14.00" fill="#666666">[text]</text>
</g>
<!-- sk_reserve_cancels&#45;&gt;sk_reserves -->
<g id="edge1" class="edge">
<title>sk_reserve_cancels:reserve_id&#45;&gt;sk_reserves:id</title>
<path fill="none" stroke="#000000" d="M272.8158,-2256.6222C218.6228,-2246.6496 240.9039,-2154.1812 283,-2107 376.8121,-2001.8559 504.1879,-2176.1441 598,-2071 625.6657,-2039.9924 639.5556,-1977.5 598,-1977.5"/>
<polygon fill="#000000" stroke="#000000" points="273.0369,-2256.6412 282.6135,-2261.9834 278.0185,-2257.0706 283,-2257.5 283,-2257.5 283,-2257.5 278.0185,-2257.0706 283.3865,-2253.0166 273.0369,-2256.6412 273.0369,-2256.6412"/>
<text text-anchor="start" x="7.2775" y="-2267.5" font-family="Arial" font-size="10.00" fill="#000000">FOREIGN KEY (reserve_id) REFERENCES sk_reserves (id)</text>
</g>
</g>
</svg>
