<?xml version="1.0" encoding="UTF-8" standalone="no"?>
<!DOCTYPE svg PUBLIC "-//W3C//DTD SVG 1.1//EN"
 "http://www.w3.org/Graphics/SVG/1.1/DTD/svg11.dtd">
<!-- Generated by graphviz version 2.40.1 (20161225.0304)
 -->
<!-- Title: sk_room_sets Pages: 1 -->
<svg width="353pt" height="225pt"
 viewBox="0.00 0.00 353.00 225.00" xmlns="http://www.w3.org/2000/svg" xmlns:xlink="http://www.w3.org/1999/xlink">
<g id="graph0" class="graph" transform="scale(1 1) rotate(0) translate(4 221)">
<title>sk_room_sets</title>
<polygon fill="#ffffff" stroke="transparent" points="-4,4 -4,-221 349,-221 349,4 -4,4"/>
<!-- sk_room_sets -->
<g id="node1" class="node">
<title>sk_room_sets</title>
<polygon fill="#efefef" stroke="transparent" points="46.5,-135.5 46.5,-170.5 299.5,-170.5 299.5,-135.5 46.5,-135.5"/>
<polygon fill="none" stroke="#000000" points="46.5,-135.5 46.5,-170.5 299.5,-170.5 299.5,-135.5 46.5,-135.5"/>
<text text-anchor="start" x="53.2072" y="-148.3" font-family="Arial Bold" font-size="18.00" fill="#000000">sk_room_sets</text>
<text text-anchor="start" x="165.2248" y="-148.3" font-family="Arial" font-size="14.00" fill="#000000">    </text>
<text text-anchor="start" x="199.4296" y="-148.3" font-family="Arial" font-size="14.00" fill="#666666">[BASE TABLE]</text>
<polygon fill="none" stroke="#000000" points="46.5,-105.5 46.5,-135.5 299.5,-135.5 299.5,-105.5 46.5,-105.5"/>
<text text-anchor="start" x="53.5" y="-116.9" font-family="Arial" font-size="14.00" fill="#000000">id </text>
<text text-anchor="start" x="68.2798" y="-116.9" font-family="Arial" font-size="14.00" fill="#666666">[int(11) unsigned]</text>
<polygon fill="none" stroke="#000000" points="46.5,-75.5 46.5,-105.5 299.5,-105.5 299.5,-75.5 46.5,-75.5"/>
<text text-anchor="start" x="53.5" y="-86.9" font-family="Arial" font-size="14.00" fill="#000000">room_set_id </text>
<text text-anchor="start" x="134.4046" y="-86.9" font-family="Arial" font-size="14.00" fill="#666666">[int(11) unsigned]</text>
<polygon fill="none" stroke="#000000" points="46.5,-45.5 46.5,-75.5 299.5,-75.5 299.5,-45.5 46.5,-45.5"/>
<text text-anchor="start" x="53.5" y="-56.9" font-family="Arial" font-size="14.00" fill="#000000">room_id </text>
<text text-anchor="start" x="107.9488" y="-56.9" font-family="Arial" font-size="14.00" fill="#666666">[int(11) unsigned]</text>
<polygon fill="none" stroke="#000000" stroke-width="3" points="44.5,-44.5 44.5,-172.5 300.5,-172.5 300.5,-44.5 44.5,-44.5"/>
</g>
</g>
</svg>
