<?xml version="1.0" encoding="UTF-8" standalone="no"?>
<!DOCTYPE svg PUBLIC "-//W3C//DTD SVG 1.1//EN"
 "http://www.w3.org/Graphics/SVG/1.1/DTD/svg11.dtd">
<!-- Generated by graphviz version 2.40.1 (20161225.0304)
 -->
<!-- Title: sk_room_plan_time_ranges Pages: 1 -->
<svg width="699pt" height="922pt"
 viewBox="0.00 0.00 698.50 922.00" xmlns="http://www.w3.org/2000/svg" xmlns:xlink="http://www.w3.org/1999/xlink">
<g id="graph0" class="graph" transform="scale(1 1) rotate(0) translate(4 918)">
<title>sk_room_plan_time_ranges</title>
<polygon fill="#ffffff" stroke="transparent" points="-4,4 -4,-918 694.5,-918 694.5,4 -4,4"/>
<!-- sk_room_plan_time_ranges -->
<g id="node1" class="node">
<title>sk_room_plan_time_ranges</title>
<polygon fill="#efefef" stroke="transparent" points="282,-832.5 282,-867.5 645,-867.5 645,-832.5 282,-832.5"/>
<polygon fill="none" stroke="#000000" points="282,-832.5 282,-867.5 645,-867.5 645,-832.5 282,-832.5"/>
<text text-anchor="start" x="288.6929" y="-845.3" font-family="Arial Bold" font-size="18.00" fill="#000000">sk_room_plan_time_ranges</text>
<text text-anchor="start" x="510.7391" y="-845.3" font-family="Arial" font-size="14.00" fill="#000000">    </text>
<text text-anchor="start" x="544.9439" y="-845.3" font-family="Arial" font-size="14.00" fill="#666666">[BASE TABLE]</text>
<polygon fill="none" stroke="#000000" points="282,-802.5 282,-832.5 645,-832.5 645,-802.5 282,-802.5"/>
<text text-anchor="start" x="289" y="-813.9" font-family="Arial" font-size="14.00" fill="#000000">id </text>
<text text-anchor="start" x="303.7798" y="-813.9" font-family="Arial" font-size="14.00" fill="#666666">[int(11) unsigned]</text>
<polygon fill="none" stroke="#000000" points="282,-772.5 282,-802.5 645,-802.5 645,-772.5 282,-772.5"/>
<text text-anchor="start" x="289" y="-783.9" font-family="Arial" font-size="14.00" fill="#000000">plan_id </text>
<text text-anchor="start" x="338.0168" y="-783.9" font-family="Arial" font-size="14.00" fill="#666666">[int(11) unsigned]</text>
<polygon fill="none" stroke="#000000" points="282,-742.5 282,-772.5 645,-772.5 645,-742.5 282,-742.5"/>
<text text-anchor="start" x="289" y="-753.9" font-family="Arial" font-size="14.00" fill="#000000">day </text>
<text text-anchor="start" x="315.4558" y="-753.9" font-family="Arial" font-size="14.00" fill="#666666">[tinyint(1)]</text>
<polygon fill="none" stroke="#000000" points="282,-712.5 282,-742.5 645,-742.5 645,-712.5 282,-712.5"/>
<text text-anchor="start" x="289" y="-723.9" font-family="Arial" font-size="14.00" fill="#000000">start_time </text>
<text text-anchor="start" x="354.338" y="-723.9" font-family="Arial" font-size="14.00" fill="#666666">[time]</text>
<polygon fill="none" stroke="#000000" points="282,-682.5 282,-712.5 645,-712.5 645,-682.5 282,-682.5"/>
<text text-anchor="start" x="289" y="-693.9" font-family="Arial" font-size="14.00" fill="#000000">end_time </text>
<text text-anchor="start" x="350.4614" y="-693.9" font-family="Arial" font-size="14.00" fill="#666666">[time]</text>
<polygon fill="none" stroke="#000000" stroke-width="3" points="280,-681.5 280,-869.5 646,-869.5 646,-681.5 280,-681.5"/>
</g>
<!-- sk_room_plans -->
<g id="node2" class="node">
<title>sk_room_plans</title>
<polygon fill="#efefef" stroke="transparent" points="328,-522.5 328,-557.5 599,-557.5 599,-522.5 328,-522.5"/>
<polygon fill="none" stroke="#000000" points="328,-522.5 328,-557.5 599,-557.5 599,-522.5 328,-522.5"/>
<text text-anchor="start" x="338.705" y="-535.3" font-family="Arial Bold" font-size="18.00" fill="#000000">sk_room_plans</text>
<text text-anchor="start" x="460.727" y="-535.3" font-family="Arial" font-size="14.00" fill="#000000">    </text>
<text text-anchor="start" x="494.9318" y="-535.3" font-family="Arial" font-size="14.00" fill="#666666">[BASE TABLE]</text>
<polygon fill="none" stroke="#000000" points="328,-492.5 328,-522.5 599,-522.5 599,-492.5 328,-492.5"/>
<text text-anchor="start" x="335" y="-503.9" font-family="Arial" font-size="14.00" fill="#000000">id    </text>
<text text-anchor="start" x="380.094" y="-503.9" font-family="Arial" font-size="14.00" fill="#666666">[int(11) unsigned]</text>
<polygon fill="none" stroke="#000000" points="328,-462.5 328,-492.5 599,-492.5 599,-462.5 328,-462.5"/>
<text text-anchor="start" x="335" y="-473.9" font-family="Arial" font-size="14.00" fill="#000000">room_id    </text>
<text text-anchor="start" x="419.763" y="-473.9" font-family="Arial" font-size="14.00" fill="#666666">[int(11) unsigned]</text>
<polygon fill="none" stroke="#000000" points="328,-432.5 328,-462.5 599,-462.5 599,-432.5 328,-432.5"/>
<text text-anchor="start" x="335" y="-443.9" font-family="Arial" font-size="14.00" fill="#000000">name    </text>
<text text-anchor="start" x="404.2132" y="-443.9" font-family="Arial" font-size="14.00" fill="#666666">[varchar(255)]</text>
<polygon fill="none" stroke="#000000" points="328,-402.5 328,-432.5 599,-432.5 599,-402.5 328,-402.5"/>
<text text-anchor="start" x="335" y="-413.9" font-family="Arial" font-size="14.00" fill="#000000">description    </text>
<text text-anchor="start" x="436.8822" y="-413.9" font-family="Arial" font-size="14.00" fill="#666666">[text]</text>
<polygon fill="none" stroke="#000000" points="328,-372.5 328,-402.5 599,-402.5 599,-372.5 328,-372.5"/>
<text text-anchor="start" x="335" y="-383.9" font-family="Arial" font-size="14.00" fill="#000000">rent_type    </text>
<text text-anchor="start" x="427.5596" y="-383.9" font-family="Arial" font-size="14.00" fill="#666666">[tinyint(1)]</text>
<polygon fill="none" stroke="#000000" points="328,-342.5 328,-372.5 599,-372.5 599,-342.5 328,-342.5"/>
<text text-anchor="start" x="335" y="-353.9" font-family="Arial" font-size="14.00" fill="#000000">price    </text>
<text text-anchor="start" x="399.5372" y="-353.9" font-family="Arial" font-size="14.00" fill="#666666">[int(15)]</text>
<polygon fill="none" stroke="#000000" points="328,-312.5 328,-342.5 599,-342.5 599,-312.5 328,-312.5"/>
<text text-anchor="start" x="335" y="-323.9" font-family="Arial" font-size="14.00" fill="#000000">rent_unit_type    </text>
<text text-anchor="start" x="457.9046" y="-323.9" font-family="Arial" font-size="14.00" fill="#666666">[smallint(6)]</text>
<polygon fill="none" stroke="#000000" points="328,-282.5 328,-312.5 599,-312.5 599,-282.5 328,-282.5"/>
<text text-anchor="start" x="335" y="-293.9" font-family="Arial" font-size="14.00" fill="#000000">rent_unit_duration    </text>
<text text-anchor="start" x="482.0196" y="-293.9" font-family="Arial" font-size="14.00" fill="#666666">[smallint(6)]</text>
<polygon fill="none" stroke="#000000" points="328,-252.5 328,-282.5 599,-282.5 599,-252.5 328,-252.5"/>
<text text-anchor="start" x="335" y="-263.9" font-family="Arial" font-size="14.00" fill="#000000">rent_minimum_duration    </text>
<text text-anchor="start" x="516.2174" y="-263.9" font-family="Arial" font-size="14.00" fill="#666666">[smallint(6)]</text>
<polygon fill="none" stroke="#000000" points="328,-222.5 328,-252.5 599,-252.5 599,-222.5 328,-222.5"/>
<text text-anchor="start" x="334.784" y="-233.9" font-family="Arial" font-size="14.00" fill="#000000">rent_maximum_duration    </text>
<text text-anchor="start" x="519.8948" y="-233.9" font-family="Arial" font-size="14.00" fill="#666666">[smallint(6)]</text>
<polygon fill="none" stroke="#000000" points="328,-192.5 328,-222.5 599,-222.5 599,-192.5 328,-192.5"/>
<text text-anchor="start" x="335" y="-203.9" font-family="Arial" font-size="14.00" fill="#000000">plan_start_date    </text>
<text text-anchor="start" x="465.6872" y="-203.9" font-family="Arial" font-size="14.00" fill="#666666">[date]</text>
<polygon fill="none" stroke="#000000" points="328,-162.5 328,-192.5 599,-192.5 599,-162.5 328,-162.5"/>
<text text-anchor="start" x="335" y="-173.9" font-family="Arial" font-size="14.00" fill="#000000">plan_end_date    </text>
<text text-anchor="start" x="461.8106" y="-173.9" font-family="Arial" font-size="14.00" fill="#666666">[date]</text>
<polygon fill="none" stroke="#000000" points="328,-132.5 328,-162.5 599,-162.5 599,-132.5 328,-132.5"/>
<text text-anchor="start" x="335" y="-143.9" font-family="Arial" font-size="14.00" fill="#000000">is_confirm_required    </text>
<text text-anchor="start" x="492.101" y="-143.9" font-family="Arial" font-size="14.00" fill="#666666">[tinyint(1)]</text>
<polygon fill="none" stroke="#000000" points="328,-102.5 328,-132.5 599,-132.5 599,-102.5 328,-102.5"/>
<text text-anchor="start" x="335" y="-113.9" font-family="Arial" font-size="14.00" fill="#000000">status    </text>
<text text-anchor="start" x="406.5512" y="-113.9" font-family="Arial" font-size="14.00" fill="#666666">[tinyint(1)]</text>
<polygon fill="none" stroke="#000000" points="328,-72.5 328,-102.5 599,-102.5 599,-72.5 328,-72.5"/>
<text text-anchor="start" x="335" y="-83.9" font-family="Arial" font-size="14.00" fill="#000000">created_at    </text>
<text text-anchor="start" x="435.3422" y="-83.9" font-family="Arial" font-size="14.00" fill="#666666">[timestamp]</text>
<polygon fill="none" stroke="#000000" points="328,-42.5 328,-72.5 599,-72.5 599,-42.5 328,-42.5"/>
<text text-anchor="start" x="335" y="-53.9" font-family="Arial" font-size="14.00" fill="#000000">updated_at    </text>
<text text-anchor="start" x="439.2468" y="-53.9" font-family="Arial" font-size="14.00" fill="#666666">[timestamp]</text>
</g>
<!-- sk_room_plan_time_ranges&#45;&gt;sk_room_plans -->
<g id="edge1" class="edge">
<title>sk_room_plan_time_ranges:plan_id&#45;&gt;sk_room_plans:id</title>
<path fill="none" stroke="#000000" d="M271.6974,-786.839C158.5571,-771.8652 205.4589,-507.5 328,-507.5"/>
<polygon fill="#000000" stroke="#000000" points="272.0205,-786.8596 281.7118,-791.9908 277.0103,-787.1798 282,-787.5 282,-787.5 282,-787.5 277.0103,-787.1798 282.2882,-783.0092 272.0205,-786.8596 272.0205,-786.8596"/>
<text text-anchor="start" x="6.549" y="-797.5" font-family="Arial" font-size="10.00" fill="#000000">FOREIGN KEY (plan_id) REFERENCES sk_room_plans (id)</text>
</g>
</g>
</svg>
