<?xml version="1.0" encoding="UTF-8" standalone="no"?>
<!DOCTYPE svg PUBLIC "-//W3C//DTD SVG 1.1//EN"
 "http://www.w3.org/Graphics/SVG/1.1/DTD/svg11.dtd">
<!-- Generated by graphviz version 2.40.1 (20161225.0304)
 -->
<!-- Title: sk_room_events Pages: 1 -->
<svg width="501pt" height="2362pt"
 viewBox="0.00 0.00 500.50 2362.00" xmlns="http://www.w3.org/2000/svg" xmlns:xlink="http://www.w3.org/1999/xlink">
<g id="graph0" class="graph" transform="scale(1 1) rotate(0) translate(4 2358)">
<title>sk_room_events</title>
<polygon fill="#ffffff" stroke="transparent" points="-4,4 -4,-2358 496.5,-2358 496.5,4 -4,4"/>
<!-- sk_room_events -->
<g id="node1" class="node">
<title>sk_room_events</title>
<polygon fill="#efefef" stroke="transparent" points="72.5,-2272.5 72.5,-2307.5 345.5,-2307.5 345.5,-2272.5 72.5,-2272.5"/>
<polygon fill="none" stroke="#000000" points="72.5,-2272.5 72.5,-2307.5 345.5,-2307.5 345.5,-2272.5 72.5,-2272.5"/>
<text text-anchor="start" x="79.201" y="-2285.3" font-family="Arial Bold" font-size="18.00" fill="#000000">sk_room_events</text>
<text text-anchor="start" x="211.231" y="-2285.3" font-family="Arial" font-size="14.00" fill="#000000">    </text>
<text text-anchor="start" x="245.4358" y="-2285.3" font-family="Arial" font-size="14.00" fill="#666666">[BASE TABLE]</text>
<polygon fill="none" stroke="#000000" points="72.5,-2242.5 72.5,-2272.5 345.5,-2272.5 345.5,-2242.5 72.5,-2242.5"/>
<text text-anchor="start" x="79.5" y="-2253.9" font-family="Arial" font-size="14.00" fill="#000000">id </text>
<text text-anchor="start" x="94.2798" y="-2253.9" font-family="Arial" font-size="14.00" fill="#666666">[int(11) unsigned]</text>
<polygon fill="none" stroke="#000000" points="72.5,-2212.5 72.5,-2242.5 345.5,-2242.5 345.5,-2212.5 72.5,-2212.5"/>
<text text-anchor="start" x="79.5" y="-2223.9" font-family="Arial" font-size="14.00" fill="#000000">event_id </text>
<text text-anchor="start" x="136.3008" y="-2223.9" font-family="Arial" font-size="14.00" fill="#666666">[varchar(255)]</text>
<polygon fill="none" stroke="#000000" points="72.5,-2182.5 72.5,-2212.5 345.5,-2212.5 345.5,-2182.5 72.5,-2182.5"/>
<text text-anchor="start" x="79.5" y="-2193.9" font-family="Arial" font-size="14.00" fill="#000000">calendar_id </text>
<text text-anchor="start" x="155.7426" y="-2193.9" font-family="Arial" font-size="14.00" fill="#666666">[varchar(255)]</text>
<polygon fill="none" stroke="#000000" points="72.5,-2152.5 72.5,-2182.5 345.5,-2182.5 345.5,-2152.5 72.5,-2152.5"/>
<text text-anchor="start" x="79.5" y="-2163.9" font-family="Arial" font-size="14.00" fill="#000000">reserve_id </text>
<text text-anchor="start" x="148.7314" y="-2163.9" font-family="Arial" font-size="14.00" fill="#666666">[int(11) unsigned]</text>
<polygon fill="none" stroke="#000000" stroke-width="3" points="70.5,-2151.5 70.5,-2309.5 346.5,-2309.5 346.5,-2151.5 70.5,-2151.5"/>
</g>
<!-- sk_reserves -->
<g id="node2" class="node">
<title>sk_reserves</title>
<polygon fill="#efefef" stroke="transparent" points="43.5,-1992.5 43.5,-2027.5 374.5,-2027.5 374.5,-1992.5 43.5,-1992.5"/>
<polygon fill="none" stroke="#000000" points="43.5,-1992.5 43.5,-2027.5 374.5,-2027.5 374.5,-1992.5 43.5,-1992.5"/>
<text text-anchor="start" x="96.7114" y="-2005.3" font-family="Arial Bold" font-size="18.00" fill="#000000">sk_reserves</text>
<text text-anchor="start" x="193.7206" y="-2005.3" font-family="Arial" font-size="14.00" fill="#000000">    </text>
<text text-anchor="start" x="227.9254" y="-2005.3" font-family="Arial" font-size="14.00" fill="#666666">[BASE TABLE]</text>
<polygon fill="none" stroke="#000000" points="43.5,-1962.5 43.5,-1992.5 374.5,-1992.5 374.5,-1962.5 43.5,-1962.5"/>
<text text-anchor="start" x="50.5" y="-1973.9" font-family="Arial" font-size="14.00" fill="#000000">id    </text>
<text text-anchor="start" x="95.594" y="-1973.9" font-family="Arial" font-size="14.00" fill="#666666">[int(11) unsigned]</text>
<polygon fill="none" stroke="#000000" points="43.5,-1932.5 43.5,-1962.5 374.5,-1962.5 374.5,-1932.5 43.5,-1932.5"/>
<text text-anchor="start" x="50.5" y="-1943.9" font-family="Arial" font-size="14.00" fill="#000000">cancel_date    </text>
<text text-anchor="start" x="160.1802" y="-1943.9" font-family="Arial" font-size="14.00" fill="#666666">[datetime]</text>
<polygon fill="none" stroke="#000000" points="43.5,-1902.5 43.5,-1932.5 374.5,-1932.5 374.5,-1902.5 43.5,-1902.5"/>
<text text-anchor="start" x="50.5" y="-1913.9" font-family="Arial" font-size="14.00" fill="#000000">is_tentative    </text>
<text text-anchor="start" x="155.5028" y="-1913.9" font-family="Arial" font-size="14.00" fill="#666666">[tinyint(1)]</text>
<polygon fill="none" stroke="#000000" points="43.5,-1872.5 43.5,-1902.5 374.5,-1902.5 374.5,-1872.5 43.5,-1872.5"/>
<text text-anchor="start" x="50.5" y="-1883.9" font-family="Arial" font-size="14.00" fill="#000000">payment_complete    </text>
<text text-anchor="start" x="202.9572" y="-1883.9" font-family="Arial" font-size="14.00" fill="#666666">[smallint(6)]</text>
<polygon fill="none" stroke="#000000" points="43.5,-1842.5 43.5,-1872.5 374.5,-1872.5 374.5,-1842.5 43.5,-1842.5"/>
<text text-anchor="start" x="50.5" y="-1853.9" font-family="Arial" font-size="14.00" fill="#000000">user_id    </text>
<text text-anchor="start" x="130.6024" y="-1853.9" font-family="Arial" font-size="14.00" fill="#666666">[int(11) unsigned]</text>
<polygon fill="none" stroke="#000000" points="43.5,-1812.5 43.5,-1842.5 374.5,-1842.5 374.5,-1812.5 43.5,-1812.5"/>
<text text-anchor="start" x="50.5" y="-1823.9" font-family="Arial" font-size="14.00" fill="#000000">room_id    </text>
<text text-anchor="start" x="135.263" y="-1823.9" font-family="Arial" font-size="14.00" fill="#666666">[int(11) unsigned]</text>
<polygon fill="none" stroke="#000000" points="43.5,-1782.5 43.5,-1812.5 374.5,-1812.5 374.5,-1782.5 43.5,-1782.5"/>
<text text-anchor="start" x="50.5" y="-1793.9" font-family="Arial" font-size="14.00" fill="#000000">first_time    </text>
<text text-anchor="start" x="141.4762" y="-1793.9" font-family="Arial" font-size="14.00" fill="#666666">[datetime]</text>
<polygon fill="none" stroke="#000000" points="43.5,-1752.5 43.5,-1782.5 374.5,-1782.5 374.5,-1752.5 43.5,-1752.5"/>
<text text-anchor="start" x="50.5" y="-1763.9" font-family="Arial" font-size="14.00" fill="#000000">last_time    </text>
<text text-anchor="start" x="140.7076" y="-1763.9" font-family="Arial" font-size="14.00" fill="#666666">[datetime]</text>
<polygon fill="none" stroke="#000000" points="43.5,-1722.5 43.5,-1752.5 374.5,-1752.5 374.5,-1722.5 43.5,-1722.5"/>
<text text-anchor="start" x="50.5" y="-1733.9" font-family="Arial" font-size="14.00" fill="#000000">transfer_method    </text>
<text text-anchor="start" x="186.6192" y="-1733.9" font-family="Arial" font-size="14.00" fill="#666666">[smallint(6)]</text>
<polygon fill="none" stroke="#000000" points="43.5,-1692.5 43.5,-1722.5 374.5,-1722.5 374.5,-1692.5 43.5,-1692.5"/>
<text text-anchor="start" x="50.5" y="-1703.9" font-family="Arial" font-size="14.00" fill="#000000">price_total    </text>
<text text-anchor="start" x="149.2728" y="-1703.9" font-family="Arial" font-size="14.00" fill="#666666">[int(11) unsigned]</text>
<polygon fill="none" stroke="#000000" points="43.5,-1662.5 43.5,-1692.5 374.5,-1692.5 374.5,-1662.5 43.5,-1662.5"/>
<text text-anchor="start" x="50.5" y="-1673.9" font-family="Arial" font-size="14.00" fill="#000000">price_total_without_tax    </text>
<text text-anchor="start" x="227.8534" y="-1673.9" font-family="Arial" font-size="14.00" fill="#666666">[int(11) unsigned]</text>
<polygon fill="none" stroke="#000000" points="43.5,-1632.5 43.5,-1662.5 374.5,-1662.5 374.5,-1632.5 43.5,-1632.5"/>
<text text-anchor="start" x="50.5" y="-1643.9" font-family="Arial" font-size="14.00" fill="#000000">price_discount    </text>
<text text-anchor="start" x="174.9474" y="-1643.9" font-family="Arial" font-size="14.00" fill="#666666">[int(11) unsigned]</text>
<polygon fill="none" stroke="#000000" points="43.5,-1602.5 43.5,-1632.5 374.5,-1632.5 374.5,-1602.5 43.5,-1602.5"/>
<text text-anchor="start" x="50.5" y="-1613.9" font-family="Arial" font-size="14.00" fill="#000000">price_room    </text>
<text text-anchor="start" x="154.7062" y="-1613.9" font-family="Arial" font-size="14.00" fill="#666666">[int(11) unsigned]</text>
<polygon fill="none" stroke="#000000" points="43.5,-1572.5 43.5,-1602.5 374.5,-1602.5 374.5,-1572.5 43.5,-1572.5"/>
<text text-anchor="start" x="50.5" y="-1583.9" font-family="Arial" font-size="14.00" fill="#000000">price_room_without_tax    </text>
<text text-anchor="start" x="233.2868" y="-1583.9" font-family="Arial" font-size="14.00" fill="#666666">[int(11) unsigned]</text>
<polygon fill="none" stroke="#000000" points="43.5,-1542.5 43.5,-1572.5 374.5,-1572.5 374.5,-1542.5 43.5,-1542.5"/>
<text text-anchor="start" x="50.5" y="-1553.9" font-family="Arial" font-size="14.00" fill="#000000">price_room_tax    </text>
<text text-anchor="start" x="181.162" y="-1553.9" font-family="Arial" font-size="14.00" fill="#666666">[int(11) unsigned]</text>
<polygon fill="none" stroke="#000000" points="43.5,-1512.5 43.5,-1542.5 374.5,-1542.5 374.5,-1512.5 43.5,-1512.5"/>
<text text-anchor="start" x="50.5" y="-1523.9" font-family="Arial" font-size="14.00" fill="#000000">price_tax    </text>
<text text-anchor="start" x="141.493" y="-1523.9" font-family="Arial" font-size="14.00" fill="#666666">[int(11) unsigned]</text>
<polygon fill="none" stroke="#000000" points="43.5,-1482.5 43.5,-1512.5 374.5,-1512.5 374.5,-1482.5 43.5,-1482.5"/>
<text text-anchor="start" x="50.5" y="-1493.9" font-family="Arial" font-size="14.00" fill="#000000">price_cancel    </text>
<text text-anchor="start" x="163.2742" y="-1493.9" font-family="Arial" font-size="14.00" fill="#666666">[int(11) unsigned]</text>
<polygon fill="none" stroke="#000000" points="43.5,-1452.5 43.5,-1482.5 374.5,-1482.5 374.5,-1452.5 43.5,-1452.5"/>
<text text-anchor="start" x="50.5" y="-1463.9" font-family="Arial" font-size="14.00" fill="#000000">discount_rate    </text>
<text text-anchor="start" x="168.7314" y="-1463.9" font-family="Arial" font-size="14.00" fill="#666666">[int(11)]</text>
<polygon fill="none" stroke="#000000" points="43.5,-1422.5 43.5,-1452.5 374.5,-1452.5 374.5,-1422.5 43.5,-1422.5"/>
<text text-anchor="start" x="50.5" y="-1433.9" font-family="Arial" font-size="14.00" fill="#000000">discount_name    </text>
<text text-anchor="start" x="179.6234" y="-1433.9" font-family="Arial" font-size="14.00" fill="#666666">[varchar(255)]</text>
<polygon fill="none" stroke="#000000" points="43.5,-1392.5 43.5,-1422.5 374.5,-1422.5 374.5,-1392.5 43.5,-1392.5"/>
<text text-anchor="start" x="50.5" y="-1403.9" font-family="Arial" font-size="14.00" fill="#000000">tax_rate    </text>
<text text-anchor="start" x="135.277" y="-1403.9" font-family="Arial" font-size="14.00" fill="#666666">[tinyint(4)]</text>
<polygon fill="none" stroke="#000000" points="43.5,-1362.5 43.5,-1392.5 374.5,-1392.5 374.5,-1362.5 43.5,-1362.5"/>
<text text-anchor="start" x="50.5" y="-1373.9" font-family="Arial" font-size="14.00" fill="#000000">group_id    </text>
<text text-anchor="start" x="139.1676" y="-1373.9" font-family="Arial" font-size="14.00" fill="#666666">[int(11) unsigned]</text>
<polygon fill="none" stroke="#000000" points="43.5,-1332.5 43.5,-1362.5 374.5,-1362.5 374.5,-1332.5 43.5,-1332.5"/>
<text text-anchor="start" x="50.5" y="-1343.9" font-family="Arial" font-size="14.00" fill="#000000">purpose    </text>
<text text-anchor="start" x="135.2784" y="-1343.9" font-family="Arial" font-size="14.00" fill="#666666">[varchar(255)]</text>
<polygon fill="none" stroke="#000000" points="43.5,-1302.5 43.5,-1332.5 374.5,-1332.5 374.5,-1302.5 43.5,-1302.5"/>
<text text-anchor="start" x="50.5" y="-1313.9" font-family="Arial" font-size="14.00" fill="#000000">created    </text>
<text text-anchor="start" x="131.3864" y="-1313.9" font-family="Arial" font-size="14.00" fill="#666666">[datetime]</text>
<polygon fill="none" stroke="#000000" points="43.5,-1272.5 43.5,-1302.5 374.5,-1302.5 374.5,-1272.5 43.5,-1272.5"/>
<text text-anchor="start" x="50.5" y="-1283.9" font-family="Arial" font-size="14.00" fill="#000000">modified    </text>
<text text-anchor="start" x="137.5996" y="-1283.9" font-family="Arial" font-size="14.00" fill="#666666">[datetime]</text>
<polygon fill="none" stroke="#000000" points="43.5,-1242.5 43.5,-1272.5 374.5,-1272.5 374.5,-1242.5 43.5,-1242.5"/>
<text text-anchor="start" x="50.5" y="-1253.9" font-family="Arial" font-size="14.00" fill="#000000">receipt_no    </text>
<text text-anchor="start" x="150.0582" y="-1253.9" font-family="Arial" font-size="14.00" fill="#666666">[varchar(32)]</text>
<polygon fill="none" stroke="#000000" points="43.5,-1212.5 43.5,-1242.5 374.5,-1242.5 374.5,-1212.5 43.5,-1212.5"/>
<text text-anchor="start" x="50.5" y="-1223.9" font-family="Arial" font-size="14.00" fill="#000000">receipt_password    </text>
<text text-anchor="start" x="194.3906" y="-1223.9" font-family="Arial" font-size="14.00" fill="#666666">[varchar(32)]</text>
<polygon fill="none" stroke="#000000" points="43.5,-1182.5 43.5,-1212.5 374.5,-1212.5 374.5,-1182.5 43.5,-1182.5"/>
<text text-anchor="start" x="50.5" y="-1193.9" font-family="Arial" font-size="14.00" fill="#000000">creditcard_brand    </text>
<text text-anchor="start" x="189.7272" y="-1193.9" font-family="Arial" font-size="14.00" fill="#666666">[int(10) unsigned]</text>
<polygon fill="none" stroke="#000000" points="43.5,-1152.5 43.5,-1182.5 374.5,-1182.5 374.5,-1152.5 43.5,-1152.5"/>
<text text-anchor="start" x="50.5" y="-1163.9" font-family="Arial" font-size="14.00" fill="#000000">auto_cancel    </text>
<text text-anchor="start" x="160.1802" y="-1163.9" font-family="Arial" font-size="14.00" fill="#666666">[tinyint(1)]</text>
<polygon fill="none" stroke="#000000" points="43.5,-1122.5 43.5,-1152.5 374.5,-1152.5 374.5,-1122.5 43.5,-1122.5"/>
<text text-anchor="start" x="50.5" y="-1133.9" font-family="Arial" font-size="14.00" fill="#000000">send_remind_mail    </text>
<text text-anchor="start" x="199.0498" y="-1133.9" font-family="Arial" font-size="14.00" fill="#666666">[tinyint(1)]</text>
<polygon fill="none" stroke="#000000" points="43.5,-1092.5 43.5,-1122.5 374.5,-1122.5 374.5,-1092.5 43.5,-1092.5"/>
<text text-anchor="start" x="50.5" y="-1103.9" font-family="Arial" font-size="14.00" fill="#000000">include_tax    </text>
<text text-anchor="start" x="155.5042" y="-1103.9" font-family="Arial" font-size="14.00" fill="#666666">[tinyint(1)]</text>
<polygon fill="none" stroke="#000000" points="43.5,-1062.5 43.5,-1092.5 374.5,-1092.5 374.5,-1062.5 43.5,-1062.5"/>
<text text-anchor="start" x="50.5" y="-1073.9" font-family="Arial" font-size="14.00" fill="#000000">extend_reserve_id    </text>
<text text-anchor="start" x="199.8492" y="-1073.9" font-family="Arial" font-size="14.00" fill="#666666">[int(11) unsigned]</text>
<polygon fill="none" stroke="#000000" points="43.5,-1032.5 43.5,-1062.5 374.5,-1062.5 374.5,-1032.5 43.5,-1032.5"/>
<text text-anchor="start" x="50.5" y="-1043.9" font-family="Arial" font-size="14.00" fill="#000000">tentative_limit    </text>
<text text-anchor="start" x="170.2672" y="-1043.9" font-family="Arial" font-size="14.00" fill="#666666">[datetime]</text>
<polygon fill="none" stroke="#000000" points="43.5,-1002.5 43.5,-1032.5 374.5,-1032.5 374.5,-1002.5 43.5,-1002.5"/>
<text text-anchor="start" x="50.5" y="-1013.9" font-family="Arial" font-size="14.00" fill="#000000">is_bank_transfer_first_extend    </text>
<text text-anchor="start" x="268.3092" y="-1013.9" font-family="Arial" font-size="14.00" fill="#666666">[int(11)]</text>
<polygon fill="none" stroke="#000000" points="43.5,-972.5 43.5,-1002.5 374.5,-1002.5 374.5,-972.5 43.5,-972.5"/>
<text text-anchor="start" x="50.5" y="-983.9" font-family="Arial" font-size="14.00" fill="#000000">memo    </text>
<text text-anchor="start" x="123.5912" y="-983.9" font-family="Arial" font-size="14.00" fill="#666666">[varchar(1000)]</text>
<polygon fill="none" stroke="#000000" points="43.5,-942.5 43.5,-972.5 374.5,-972.5 374.5,-942.5 43.5,-942.5"/>
<text text-anchor="start" x="50.5" y="-953.9" font-family="Arial" font-size="14.00" fill="#000000">memo_owner    </text>
<text text-anchor="start" x="169.4888" y="-953.9" font-family="Arial" font-size="14.00" fill="#666666">[varchar(1000)]</text>
<polygon fill="none" stroke="#000000" points="43.5,-912.5 43.5,-942.5 374.5,-942.5 374.5,-912.5 43.5,-912.5"/>
<text text-anchor="start" x="50.5" y="-923.9" font-family="Arial" font-size="14.00" fill="#000000">owner_memo    </text>
<text text-anchor="start" x="169.4888" y="-923.9" font-family="Arial" font-size="14.00" fill="#666666">[varchar(1000)]</text>
<polygon fill="none" stroke="#000000" points="43.5,-882.5 43.5,-912.5 374.5,-912.5 374.5,-882.5 43.5,-882.5"/>
<text text-anchor="start" x="50.5" y="-893.9" font-family="Arial" font-size="14.00" fill="#000000">cancellation_note    </text>
<text text-anchor="start" x="193.6318" y="-893.9" font-family="Arial" font-size="14.00" fill="#666666">[varchar(1000)]</text>
<polygon fill="none" stroke="#000000" points="43.5,-852.5 43.5,-882.5 374.5,-882.5 374.5,-852.5 43.5,-852.5"/>
<text text-anchor="start" x="50.5" y="-863.9" font-family="Arial" font-size="14.00" fill="#000000">autolock_progress    </text>
<text text-anchor="start" x="199.0666" y="-863.9" font-family="Arial" font-size="14.00" fill="#666666">[tinyint(4)]</text>
<polygon fill="none" stroke="#000000" points="43.5,-822.5 43.5,-852.5 374.5,-852.5 374.5,-822.5 43.5,-822.5"/>
<text text-anchor="start" x="50.5" y="-833.9" font-family="Arial" font-size="14.00" fill="#000000">is_waitlist    </text>
<text text-anchor="start" x="144.5842" y="-833.9" font-family="Arial" font-size="14.00" fill="#666666">[tinyint(1)]</text>
<polygon fill="none" stroke="#000000" points="43.5,-792.5 43.5,-822.5 374.5,-822.5 374.5,-792.5 43.5,-792.5"/>
<text text-anchor="start" x="50.5" y="-803.9" font-family="Arial" font-size="14.00" fill="#000000">customer_name    </text>
<text text-anchor="start" x="185.0554" y="-803.9" font-family="Arial" font-size="14.00" fill="#666666">[varchar(200)]</text>
<polygon fill="none" stroke="#000000" points="43.5,-762.5 43.5,-792.5 374.5,-792.5 374.5,-762.5 43.5,-762.5"/>
<text text-anchor="start" x="50.5" y="-773.9" font-family="Arial" font-size="14.00" fill="#000000">customer_tel    </text>
<text text-anchor="start" x="164.8268" y="-773.9" font-family="Arial" font-size="14.00" fill="#666666">[varchar(13)]</text>
<polygon fill="none" stroke="#000000" points="43.5,-732.5 43.5,-762.5 374.5,-762.5 374.5,-732.5 43.5,-732.5"/>
<text text-anchor="start" x="50.5" y="-743.9" font-family="Arial" font-size="14.00" fill="#000000">customer_mail    </text>
<text text-anchor="start" x="175.7034" y="-743.9" font-family="Arial" font-size="14.00" fill="#666666">[varchar(255)]</text>
<polygon fill="none" stroke="#000000" points="43.5,-702.5 43.5,-732.5 374.5,-732.5 374.5,-702.5 43.5,-702.5"/>
<text text-anchor="start" x="50.5" y="-713.9" font-family="Arial" font-size="14.00" fill="#000000">sales_charge    </text>
<text text-anchor="start" x="167.9502" y="-713.9" font-family="Arial" font-size="14.00" fill="#666666">[varchar(200)]</text>
<polygon fill="none" stroke="#000000" points="43.5,-672.5 43.5,-702.5 374.5,-702.5 374.5,-672.5 43.5,-672.5"/>
<text text-anchor="start" x="50.5" y="-683.9" font-family="Arial" font-size="14.00" fill="#000000">assistant    </text>
<text text-anchor="start" x="139.9404" y="-683.9" font-family="Arial" font-size="14.00" fill="#666666">[varchar(200)]</text>
<polygon fill="none" stroke="#000000" points="43.5,-642.5 43.5,-672.5 374.5,-672.5 374.5,-642.5 43.5,-642.5"/>
<text text-anchor="start" x="50.5" y="-653.9" font-family="Arial" font-size="14.00" fill="#000000">subscriber    </text>
<text text-anchor="start" x="149.263" y="-653.9" font-family="Arial" font-size="14.00" fill="#666666">[varchar(200)]</text>
<polygon fill="none" stroke="#000000" points="43.5,-612.5 43.5,-642.5 374.5,-642.5 374.5,-612.5 43.5,-612.5"/>
<text text-anchor="start" x="50.5" y="-623.9" font-family="Arial" font-size="14.00" fill="#000000">meeting_name    </text>
<text text-anchor="start" x="177.284" y="-623.9" font-family="Arial" font-size="14.00" fill="#666666">[varchar(200)]</text>
<polygon fill="none" stroke="#000000" points="43.5,-582.5 43.5,-612.5 374.5,-612.5 374.5,-582.5 43.5,-582.5"/>
<text text-anchor="start" x="50.5" y="-593.9" font-family="Arial" font-size="14.00" fill="#000000">industry    </text>
<text text-anchor="start" x="133.7104" y="-593.9" font-family="Arial" font-size="14.00" fill="#666666">[smallint(6)]</text>
<polygon fill="none" stroke="#000000" points="43.5,-552.5 43.5,-582.5 374.5,-582.5 374.5,-552.5 43.5,-552.5"/>
<text text-anchor="start" x="50.5" y="-563.9" font-family="Arial" font-size="14.00" fill="#000000">persons    </text>
<text text-anchor="start" x="134.4958" y="-563.9" font-family="Arial" font-size="14.00" fill="#666666">[smallint(6)]</text>
<polygon fill="none" stroke="#000000" points="43.5,-522.5 43.5,-552.5 374.5,-552.5 374.5,-522.5 43.5,-522.5"/>
<text text-anchor="start" x="50.5" y="-533.9" font-family="Arial" font-size="14.00" fill="#000000">accuracy    </text>
<text text-anchor="start" x="140.7132" y="-533.9" font-family="Arial" font-size="14.00" fill="#666666">[varchar(10)]</text>
<polygon fill="none" stroke="#000000" points="43.5,-492.5 43.5,-522.5 374.5,-522.5 374.5,-492.5 43.5,-492.5"/>
<text text-anchor="start" x="50.5" y="-503.9" font-family="Arial" font-size="14.00" fill="#000000">parent_reserve_id    </text>
<text text-anchor="start" x="197.5098" y="-503.9" font-family="Arial" font-size="14.00" fill="#666666">[int(11)]</text>
<polygon fill="none" stroke="#000000" points="43.5,-462.5 43.5,-492.5 374.5,-492.5 374.5,-462.5 43.5,-462.5"/>
<text text-anchor="start" x="50.5" y="-473.9" font-family="Arial" font-size="14.00" fill="#000000">is_thankyou_mail    </text>
<text text-anchor="start" x="192.8366" y="-473.9" font-family="Arial" font-size="14.00" fill="#666666">[tinyint(1)]</text>
<polygon fill="none" stroke="#000000" points="43.5,-432.5 43.5,-462.5 374.5,-462.5 374.5,-432.5 43.5,-432.5"/>
<text text-anchor="start" x="50.5" y="-443.9" font-family="Arial" font-size="14.00" fill="#000000">approve_state    </text>
<text text-anchor="start" x="173.4074" y="-443.9" font-family="Arial" font-size="14.00" fill="#666666">[char(1)]</text>
<polygon fill="none" stroke="#000000" points="43.5,-402.5 43.5,-432.5 374.5,-432.5 374.5,-402.5 43.5,-402.5"/>
<text text-anchor="start" x="50.5" y="-413.9" font-family="Arial" font-size="14.00" fill="#000000">layout_name    </text>
<text text-anchor="start" x="164.8408" y="-413.9" font-family="Arial" font-size="14.00" fill="#666666">[varchar(200)]</text>
<polygon fill="none" stroke="#000000" points="43.5,-372.5 43.5,-402.5 374.5,-402.5 374.5,-372.5 43.5,-372.5"/>
<text text-anchor="start" x="50.5" y="-383.9" font-family="Arial" font-size="14.00" fill="#000000">is_reservation_reminder_mail_sent    </text>
<text text-anchor="start" x="302.5042" y="-383.9" font-family="Arial" font-size="14.00" fill="#666666">[tinyint(1)]</text>
<polygon fill="none" stroke="#000000" points="43.5,-342.5 43.5,-372.5 374.5,-372.5 374.5,-342.5 43.5,-342.5"/>
<text text-anchor="start" x="50.3275" y="-353.9" font-family="Arial" font-size="14.00" fill="#000000">is_remotelock_password_mail_sent    </text>
<text text-anchor="start" x="306.2279" y="-353.9" font-family="Arial" font-size="14.00" fill="#666666">[tinyint(1)]</text>
<polygon fill="none" stroke="#000000" points="43.5,-312.5 43.5,-342.5 374.5,-342.5 374.5,-312.5 43.5,-312.5"/>
<text text-anchor="start" x="50.5" y="-323.9" font-family="Arial" font-size="14.00" fill="#000000">sent_remotelock_password_mail    </text>
<text text-anchor="start" x="288.5112" y="-323.9" font-family="Arial" font-size="14.00" fill="#666666">[tinyint(1)]</text>
<polygon fill="none" stroke="#000000" points="43.5,-282.5 43.5,-312.5 374.5,-312.5 374.5,-282.5 43.5,-282.5"/>
<text text-anchor="start" x="50.5" y="-293.9" font-family="Arial" font-size="14.00" fill="#000000">request_price_room_to_free    </text>
<text text-anchor="start" x="260.5252" y="-293.9" font-family="Arial" font-size="14.00" fill="#666666">[tinyint(1)]</text>
<polygon fill="none" stroke="#000000" points="43.5,-252.5 43.5,-282.5 374.5,-282.5 374.5,-252.5 43.5,-252.5"/>
<text text-anchor="start" x="50.5" y="-263.9" font-family="Arial" font-size="14.00" fill="#000000">is_changed_price_to_free    </text>
<text text-anchor="start" x="245.7594" y="-263.9" font-family="Arial" font-size="14.00" fill="#666666">[tinyint(1)]</text>
<polygon fill="none" stroke="#000000" points="43.5,-222.5 43.5,-252.5 374.5,-252.5 374.5,-222.5 43.5,-222.5"/>
<text text-anchor="start" x="50.5" y="-233.9" font-family="Arial" font-size="14.00" fill="#000000">usage_type    </text>
<text text-anchor="start" x="157.0736" y="-233.9" font-family="Arial" font-size="14.00" fill="#666666">[tinyint(2)]</text>
<polygon fill="none" stroke="#000000" points="43.5,-192.5 43.5,-222.5 374.5,-222.5 374.5,-192.5 43.5,-192.5"/>
<text text-anchor="start" x="50.5" y="-203.9" font-family="Arial" font-size="14.00" fill="#000000">customer_address    </text>
<text text-anchor="start" x="199.838" y="-203.9" font-family="Arial" font-size="14.00" fill="#666666">[text]</text>
<polygon fill="none" stroke="#000000" points="43.5,-162.5 43.5,-192.5 374.5,-192.5 374.5,-162.5 43.5,-162.5"/>
<text text-anchor="start" x="50.5" y="-173.9" font-family="Arial" font-size="14.00" fill="#000000">customer_department_name    </text>
<text text-anchor="start" x="263.636" y="-173.9" font-family="Arial" font-size="14.00" fill="#666666">[varchar(255)]</text>
<polygon fill="none" stroke="#000000" points="43.5,-132.5 43.5,-162.5 374.5,-162.5 374.5,-132.5 43.5,-132.5"/>
<text text-anchor="start" x="50.5" y="-143.9" font-family="Arial" font-size="14.00" fill="#000000">mynavi_persons    </text>
<text text-anchor="start" x="186.6108" y="-143.9" font-family="Arial" font-size="14.00" fill="#666666">[varchar(255)]</text>
<polygon fill="none" stroke="#000000" points="43.5,-102.5 43.5,-132.5 374.5,-132.5 374.5,-102.5 43.5,-102.5"/>
<text text-anchor="start" x="50.5" y="-113.9" font-family="Arial" font-size="14.00" fill="#000000">mynavi_job_request_number    </text>
<text text-anchor="start" x="265.19" y="-113.9" font-family="Arial" font-size="14.00" fill="#666666">[varchar(8)]</text>
<polygon fill="none" stroke="#000000" points="43.5,-72.5 43.5,-102.5 374.5,-102.5 374.5,-72.5 43.5,-72.5"/>
<text text-anchor="start" x="50.5" y="-83.9" font-family="Arial" font-size="14.00" fill="#000000">delivery    </text>
<text text-anchor="start" x="132.9264" y="-83.9" font-family="Arial" font-size="14.00" fill="#666666">[tinyint(2)]</text>
<polygon fill="none" stroke="#000000" points="43.5,-42.5 43.5,-72.5 374.5,-72.5 374.5,-42.5 43.5,-42.5"/>
<text text-anchor="start" x="50.5" y="-53.9" font-family="Arial" font-size="14.00" fill="#000000">custom_reserve_items_detail    </text>
<text text-anchor="start" x="266.73" y="-53.9" font-family="Arial" font-size="14.00" fill="#666666">[text]</text>
</g>
<!-- sk_room_events&#45;&gt;sk_reserves -->
<g id="edge1" class="edge">
<title>sk_room_events:reserve_id&#45;&gt;sk_reserves:id</title>
<path fill="none" stroke="#000000" d="M208.7764,-2142.3211C198.6504,-2076.3563 85.0108,-2137.6242 43.5,-2071 21.5249,-2035.7302 1.9444,-1977.5 43.5,-1977.5"/>
<polygon fill="#000000" stroke="#000000" points="208.7909,-2142.5252 205.0113,-2152.8191 209.1454,-2147.5126 209.5,-2152.5 209.5,-2152.5 209.5,-2152.5 209.1454,-2147.5126 213.9887,-2152.1809 208.7909,-2142.5252 208.7909,-2142.5252"/>
<text text-anchor="start" x="216.7775" y="-2162.5" font-family="Arial" font-size="10.00" fill="#000000">FOREIGN KEY (reserve_id) REFERENCES sk_reserves (id)</text>
</g>
</g>
</svg>
