<?xml version="1.0" encoding="UTF-8" standalone="no"?>
<!DOCTYPE svg PUBLIC "-//W3C//DTD SVG 1.1//EN"
 "http://www.w3.org/Graphics/SVG/1.1/DTD/svg11.dtd">
<!-- Generated by graphviz version 2.40.1 (20161225.0304)
 -->
<!-- Title: sk_room_plans Pages: 1 -->
<svg width="865pt" height="2849pt"
 viewBox="0.00 0.00 865.00 2849.00" xmlns="http://www.w3.org/2000/svg" xmlns:xlink="http://www.w3.org/1999/xlink">
<g id="graph0" class="graph" transform="scale(1 1) rotate(0) translate(4 2845)">
<title>sk_room_plans</title>
<polygon fill="#ffffff" stroke="transparent" points="-4,4 -4,-2845 861,-2845 861,4 -4,4"/>
<!-- sk_room_plans -->
<g id="node1" class="node">
<title>sk_room_plans</title>
<polygon fill="#efefef" stroke="transparent" points="332,-2452.5 332,-2487.5 595,-2487.5 595,-2452.5 332,-2452.5"/>
<polygon fill="none" stroke="#000000" points="332,-2452.5 332,-2487.5 595,-2487.5 595,-2452.5 332,-2452.5"/>
<text text-anchor="start" x="338.705" y="-2465.3" font-family="Arial Bold" font-size="18.00" fill="#000000">sk_room_plans</text>
<text text-anchor="start" x="460.727" y="-2465.3" font-family="Arial" font-size="14.00" fill="#000000">    </text>
<text text-anchor="start" x="494.9318" y="-2465.3" font-family="Arial" font-size="14.00" fill="#666666">[BASE TABLE]</text>
<polygon fill="none" stroke="#000000" points="332,-2422.5 332,-2452.5 595,-2452.5 595,-2422.5 332,-2422.5"/>
<text text-anchor="start" x="339" y="-2433.9" font-family="Arial" font-size="14.00" fill="#000000">id </text>
<text text-anchor="start" x="353.7798" y="-2433.9" font-family="Arial" font-size="14.00" fill="#666666">[int(11) unsigned]</text>
<polygon fill="none" stroke="#000000" points="332,-2392.5 332,-2422.5 595,-2422.5 595,-2392.5 332,-2392.5"/>
<text text-anchor="start" x="339" y="-2403.9" font-family="Arial" font-size="14.00" fill="#000000">room_id </text>
<text text-anchor="start" x="393.4488" y="-2403.9" font-family="Arial" font-size="14.00" fill="#666666">[int(11) unsigned]</text>
<polygon fill="none" stroke="#000000" points="332,-2362.5 332,-2392.5 595,-2392.5 595,-2362.5 332,-2362.5"/>
<text text-anchor="start" x="339" y="-2373.9" font-family="Arial" font-size="14.00" fill="#000000">name </text>
<text text-anchor="start" x="377.899" y="-2373.9" font-family="Arial" font-size="14.00" fill="#666666">[varchar(255)]</text>
<polygon fill="none" stroke="#000000" points="332,-2332.5 332,-2362.5 595,-2362.5 595,-2332.5 332,-2332.5"/>
<text text-anchor="start" x="339" y="-2343.9" font-family="Arial" font-size="14.00" fill="#000000">description </text>
<text text-anchor="start" x="410.568" y="-2343.9" font-family="Arial" font-size="14.00" fill="#666666">[text]</text>
<polygon fill="none" stroke="#000000" points="332,-2302.5 332,-2332.5 595,-2332.5 595,-2302.5 332,-2302.5"/>
<text text-anchor="start" x="339" y="-2313.9" font-family="Arial" font-size="14.00" fill="#000000">rent_type </text>
<text text-anchor="start" x="401.2454" y="-2313.9" font-family="Arial" font-size="14.00" fill="#666666">[tinyint(1)]</text>
<polygon fill="none" stroke="#000000" points="332,-2272.5 332,-2302.5 595,-2302.5 595,-2272.5 332,-2272.5"/>
<text text-anchor="start" x="339" y="-2283.9" font-family="Arial" font-size="14.00" fill="#000000">price </text>
<text text-anchor="start" x="373.223" y="-2283.9" font-family="Arial" font-size="14.00" fill="#666666">[int(15)]</text>
<polygon fill="none" stroke="#000000" points="332,-2242.5 332,-2272.5 595,-2272.5 595,-2242.5 332,-2242.5"/>
<text text-anchor="start" x="339" y="-2253.9" font-family="Arial" font-size="14.00" fill="#000000">rent_unit_type </text>
<text text-anchor="start" x="431.5904" y="-2253.9" font-family="Arial" font-size="14.00" fill="#666666">[smallint(6)]</text>
<polygon fill="none" stroke="#000000" points="332,-2212.5 332,-2242.5 595,-2242.5 595,-2212.5 332,-2212.5"/>
<text text-anchor="start" x="339" y="-2223.9" font-family="Arial" font-size="14.00" fill="#000000">rent_unit_duration </text>
<text text-anchor="start" x="455.7054" y="-2223.9" font-family="Arial" font-size="14.00" fill="#666666">[smallint(6)]</text>
<polygon fill="none" stroke="#000000" points="332,-2182.5 332,-2212.5 595,-2212.5 595,-2182.5 332,-2182.5"/>
<text text-anchor="start" x="339" y="-2193.9" font-family="Arial" font-size="14.00" fill="#000000">rent_minimum_duration </text>
<text text-anchor="start" x="489.9032" y="-2193.9" font-family="Arial" font-size="14.00" fill="#666666">[smallint(6)]</text>
<polygon fill="none" stroke="#000000" points="332,-2152.5 332,-2182.5 595,-2182.5 595,-2152.5 332,-2152.5"/>
<text text-anchor="start" x="339" y="-2163.9" font-family="Arial" font-size="14.00" fill="#000000">rent_maximum_duration </text>
<text text-anchor="start" x="493.7966" y="-2163.9" font-family="Arial" font-size="14.00" fill="#666666">[smallint(6)]</text>
<polygon fill="none" stroke="#000000" points="332,-2122.5 332,-2152.5 595,-2152.5 595,-2122.5 332,-2122.5"/>
<text text-anchor="start" x="339" y="-2133.9" font-family="Arial" font-size="14.00" fill="#000000">plan_start_date </text>
<text text-anchor="start" x="439.373" y="-2133.9" font-family="Arial" font-size="14.00" fill="#666666">[date]</text>
<polygon fill="none" stroke="#000000" points="332,-2092.5 332,-2122.5 595,-2122.5 595,-2092.5 332,-2092.5"/>
<text text-anchor="start" x="339" y="-2103.9" font-family="Arial" font-size="14.00" fill="#000000">plan_end_date </text>
<text text-anchor="start" x="435.4964" y="-2103.9" font-family="Arial" font-size="14.00" fill="#666666">[date]</text>
<polygon fill="none" stroke="#000000" points="332,-2062.5 332,-2092.5 595,-2092.5 595,-2062.5 332,-2062.5"/>
<text text-anchor="start" x="339" y="-2073.9" font-family="Arial" font-size="14.00" fill="#000000">is_confirm_required </text>
<text text-anchor="start" x="465.7868" y="-2073.9" font-family="Arial" font-size="14.00" fill="#666666">[tinyint(1)]</text>
<polygon fill="none" stroke="#000000" points="332,-2032.5 332,-2062.5 595,-2062.5 595,-2032.5 332,-2032.5"/>
<text text-anchor="start" x="339" y="-2043.9" font-family="Arial" font-size="14.00" fill="#000000">status </text>
<text text-anchor="start" x="380.237" y="-2043.9" font-family="Arial" font-size="14.00" fill="#666666">[tinyint(1)]</text>
<polygon fill="none" stroke="#000000" points="332,-2002.5 332,-2032.5 595,-2032.5 595,-2002.5 332,-2002.5"/>
<text text-anchor="start" x="339" y="-2013.9" font-family="Arial" font-size="14.00" fill="#000000">created_at </text>
<text text-anchor="start" x="409.028" y="-2013.9" font-family="Arial" font-size="14.00" fill="#666666">[timestamp]</text>
<polygon fill="none" stroke="#000000" points="332,-1972.5 332,-2002.5 595,-2002.5 595,-1972.5 332,-1972.5"/>
<text text-anchor="start" x="339" y="-1983.9" font-family="Arial" font-size="14.00" fill="#000000">updated_at </text>
<text text-anchor="start" x="412.9326" y="-1983.9" font-family="Arial" font-size="14.00" fill="#666666">[timestamp]</text>
<polygon fill="none" stroke="#000000" stroke-width="3" points="330,-1971.5 330,-2489.5 596,-2489.5 596,-1971.5 330,-1971.5"/>
</g>
<!-- sk_rooms -->
<g id="node3" class="node">
<title>sk_rooms</title>
<polygon fill="#efefef" stroke="transparent" points="308,-1812.5 308,-1847.5 620,-1847.5 620,-1812.5 308,-1812.5"/>
<polygon fill="none" stroke="#000000" points="308,-1812.5 308,-1847.5 620,-1847.5 620,-1812.5 308,-1812.5"/>
<text text-anchor="start" x="361.2145" y="-1825.3" font-family="Arial Bold" font-size="18.00" fill="#000000">sk_rooms</text>
<text text-anchor="start" x="439.2175" y="-1825.3" font-family="Arial" font-size="14.00" fill="#000000">    </text>
<text text-anchor="start" x="473.4223" y="-1825.3" font-family="Arial" font-size="14.00" fill="#666666">[BASE TABLE]</text>
<polygon fill="none" stroke="#000000" points="308,-1782.5 308,-1812.5 620,-1812.5 620,-1782.5 308,-1782.5"/>
<text text-anchor="start" x="315" y="-1793.9" font-family="Arial" font-size="14.00" fill="#000000">id    </text>
<text text-anchor="start" x="360.094" y="-1793.9" font-family="Arial" font-size="14.00" fill="#666666">[int(11) unsigned]</text>
<polygon fill="none" stroke="#000000" points="308,-1752.5 308,-1782.5 620,-1782.5 620,-1752.5 308,-1752.5"/>
<text text-anchor="start" x="315" y="-1763.9" font-family="Arial" font-size="14.00" fill="#000000">is_deleted    </text>
<text text-anchor="start" x="413.0042" y="-1763.9" font-family="Arial" font-size="14.00" fill="#666666">[tinyint(1)]</text>
<polygon fill="none" stroke="#000000" points="308,-1722.5 308,-1752.5 620,-1752.5 620,-1722.5 308,-1722.5"/>
<text text-anchor="start" x="315" y="-1733.9" font-family="Arial" font-size="14.00" fill="#000000">is_public    </text>
<text text-anchor="start" x="403.655" y="-1733.9" font-family="Arial" font-size="14.00" fill="#666666">[tinyint(1)]</text>
<polygon fill="none" stroke="#000000" points="308,-1692.5 308,-1722.5 620,-1722.5 620,-1692.5 308,-1692.5"/>
<text text-anchor="start" x="315" y="-1703.9" font-family="Arial" font-size="14.00" fill="#000000">is_set    </text>
<text text-anchor="start" x="385.7672" y="-1703.9" font-family="Arial" font-size="14.00" fill="#666666">[tinyint(1)]</text>
<polygon fill="none" stroke="#000000" points="308,-1662.5 308,-1692.5 620,-1692.5 620,-1662.5 308,-1662.5"/>
<text text-anchor="start" x="315" y="-1673.9" font-family="Arial" font-size="14.00" fill="#000000">property_id    </text>
<text text-anchor="start" x="419.2188" y="-1673.9" font-family="Arial" font-size="14.00" fill="#666666">[int(11) unsigned]</text>
<polygon fill="none" stroke="#000000" points="308,-1632.5 308,-1662.5 620,-1662.5 620,-1632.5 308,-1632.5"/>
<text text-anchor="start" x="315" y="-1643.9" font-family="Arial" font-size="14.00" fill="#000000">lessor_id    </text>
<text text-anchor="start" x="405.209" y="-1643.9" font-family="Arial" font-size="14.00" fill="#666666">[int(11) unsigned]</text>
<polygon fill="none" stroke="#000000" points="308,-1602.5 308,-1632.5 620,-1632.5 620,-1602.5 308,-1602.5"/>
<text text-anchor="start" x="315" y="-1613.9" font-family="Arial" font-size="14.00" fill="#000000">name    </text>
<text text-anchor="start" x="384.2132" y="-1613.9" font-family="Arial" font-size="14.00" fill="#666666">[varchar(200)]</text>
<polygon fill="none" stroke="#000000" points="308,-1572.5 308,-1602.5 620,-1602.5 620,-1572.5 308,-1572.5"/>
<text text-anchor="start" x="315" y="-1583.9" font-family="Arial" font-size="14.00" fill="#000000">voice_name    </text>
<text text-anchor="start" x="424.6676" y="-1583.9" font-family="Arial" font-size="14.00" fill="#666666">[varchar(200)]</text>
<polygon fill="none" stroke="#000000" points="308,-1542.5 308,-1572.5 620,-1572.5 620,-1542.5 308,-1542.5"/>
<text text-anchor="start" x="315" y="-1553.9" font-family="Arial" font-size="14.00" fill="#000000">description_url    </text>
<text text-anchor="start" x="440.2146" y="-1553.9" font-family="Arial" font-size="14.00" fill="#666666">[varchar(1000)]</text>
<polygon fill="none" stroke="#000000" points="308,-1512.5 308,-1542.5 620,-1542.5 620,-1512.5 308,-1512.5"/>
<text text-anchor="start" x="315" y="-1523.9" font-family="Arial" font-size="14.00" fill="#000000">exclusive_area    </text>
<text text-anchor="start" x="442.5568" y="-1523.9" font-family="Arial" font-size="14.00" fill="#666666">[decimal(10,2)]</text>
<polygon fill="none" stroke="#000000" points="308,-1482.5 308,-1512.5 620,-1512.5 620,-1482.5 308,-1482.5"/>
<text text-anchor="start" x="315" y="-1493.9" font-family="Arial" font-size="14.00" fill="#000000">ceiling_height    </text>
<text text-anchor="start" x="434.7826" y="-1493.9" font-family="Arial" font-size="14.00" fill="#666666">[decimal(10,2)]</text>
<polygon fill="none" stroke="#000000" points="308,-1452.5 308,-1482.5 620,-1482.5 620,-1452.5 308,-1452.5"/>
<text text-anchor="start" x="315" y="-1463.9" font-family="Arial" font-size="14.00" fill="#000000">floor    </text>
<text text-anchor="start" x="376.4278" y="-1463.9" font-family="Arial" font-size="14.00" fill="#666666">[smallint(5)]</text>
<polygon fill="none" stroke="#000000" points="308,-1422.5 308,-1452.5 620,-1452.5 620,-1422.5 308,-1422.5"/>
<text text-anchor="start" x="315" y="-1433.9" font-family="Arial" font-size="14.00" fill="#000000">minimum_time    </text>
<text text-anchor="start" x="440.188" y="-1433.9" font-family="Arial" font-size="14.00" fill="#666666">[time]</text>
<polygon fill="none" stroke="#000000" points="308,-1392.5 308,-1422.5 620,-1422.5 620,-1392.5 308,-1392.5"/>
<text text-anchor="start" x="315" y="-1403.9" font-family="Arial" font-size="14.00" fill="#000000">maximum_time    </text>
<text text-anchor="start" x="444.0814" y="-1403.9" font-family="Arial" font-size="14.00" fill="#666666">[time]</text>
<polygon fill="none" stroke="#000000" points="308,-1362.5 308,-1392.5 620,-1392.5 620,-1362.5 308,-1362.5"/>
<text text-anchor="start" x="315" y="-1373.9" font-family="Arial" font-size="14.00" fill="#000000">start_date    </text>
<text text-anchor="start" x="411.4502" y="-1373.9" font-family="Arial" font-size="14.00" fill="#666666">[date]</text>
<polygon fill="none" stroke="#000000" points="308,-1332.5 308,-1362.5 620,-1362.5 620,-1332.5 308,-1332.5"/>
<text text-anchor="start" x="315" y="-1343.9" font-family="Arial" font-size="14.00" fill="#000000">end_date    </text>
<text text-anchor="start" x="407.5736" y="-1343.9" font-family="Arial" font-size="14.00" fill="#666666">[date]</text>
<polygon fill="none" stroke="#000000" points="308,-1302.5 308,-1332.5 620,-1332.5 620,-1302.5 308,-1302.5"/>
<text text-anchor="start" x="315" y="-1313.9" font-family="Arial" font-size="14.00" fill="#000000">is_ninjalock    </text>
<text text-anchor="start" x="421.5442" y="-1313.9" font-family="Arial" font-size="14.00" fill="#666666">[tinyint(1)]</text>
<polygon fill="none" stroke="#000000" points="308,-1272.5 308,-1302.5 620,-1302.5 620,-1272.5 308,-1272.5"/>
<text text-anchor="start" x="315" y="-1283.9" font-family="Arial" font-size="14.00" fill="#000000">is_display_entrance_note    </text>
<text text-anchor="start" x="507.9228" y="-1283.9" font-family="Arial" font-size="14.00" fill="#666666">[tinyint(1)]</text>
<polygon fill="none" stroke="#000000" points="308,-1242.5 308,-1272.5 620,-1272.5 620,-1242.5 308,-1242.5"/>
<text text-anchor="start" x="314.6487" y="-1253.9" font-family="Arial" font-size="14.00" fill="#000000">is_using_custom_business_hour    </text>
<text text-anchor="start" x="551.9067" y="-1253.9" font-family="Arial" font-size="14.00" fill="#666666">[tinyint(1)]</text>
<polygon fill="none" stroke="#000000" points="308,-1212.5 308,-1242.5 620,-1242.5 620,-1212.5 308,-1212.5"/>
<text text-anchor="start" x="315" y="-1223.9" font-family="Arial" font-size="14.00" fill="#000000">has_local_area_network    </text>
<text text-anchor="start" x="500.9102" y="-1223.9" font-family="Arial" font-size="14.00" fill="#666666">[tinyint(1)]</text>
<polygon fill="none" stroke="#000000" points="308,-1182.5 308,-1212.5 620,-1212.5 620,-1182.5 308,-1182.5"/>
<text text-anchor="start" x="315" y="-1193.9" font-family="Arial" font-size="14.00" fill="#000000">basic_price    </text>
<text text-anchor="start" x="419.9916" y="-1193.9" font-family="Arial" font-size="14.00" fill="#666666">[int(11) unsigned]</text>
<polygon fill="none" stroke="#000000" points="308,-1152.5 308,-1182.5 620,-1182.5 620,-1152.5 308,-1152.5"/>
<text text-anchor="start" x="315" y="-1163.9" font-family="Arial" font-size="14.00" fill="#000000">extend_price    </text>
<text text-anchor="start" x="429.3408" y="-1163.9" font-family="Arial" font-size="14.00" fill="#666666">[int(11)]</text>
<polygon fill="none" stroke="#000000" points="308,-1122.5 308,-1152.5 620,-1152.5 620,-1122.5 308,-1122.5"/>
<text text-anchor="start" x="315" y="-1133.9" font-family="Arial" font-size="14.00" fill="#000000">max_price    </text>
<text text-anchor="start" x="413.763" y="-1133.9" font-family="Arial" font-size="14.00" fill="#666666">[int(11)]</text>
<polygon fill="none" stroke="#000000" points="308,-1092.5 308,-1122.5 620,-1122.5 620,-1092.5 308,-1092.5"/>
<text text-anchor="start" x="315" y="-1103.9" font-family="Arial" font-size="14.00" fill="#000000">memo    </text>
<text text-anchor="start" x="388.0912" y="-1103.9" font-family="Arial" font-size="14.00" fill="#666666">[varchar(2000)]</text>
<polygon fill="none" stroke="#000000" points="308,-1062.5 308,-1092.5 620,-1092.5 620,-1062.5 308,-1062.5"/>
<text text-anchor="start" x="315" y="-1073.9" font-family="Arial" font-size="14.00" fill="#000000">floor_position    </text>
<text text-anchor="start" x="432.4446" y="-1073.9" font-family="Arial" font-size="14.00" fill="#666666">[smallint(5)]</text>
<polygon fill="none" stroke="#000000" points="308,-1032.5 308,-1062.5 620,-1062.5 620,-1032.5 308,-1032.5"/>
<text text-anchor="start" x="315" y="-1043.9" font-family="Arial" font-size="14.00" fill="#000000">is_tablet_linked    </text>
<text text-anchor="start" x="445.6732" y="-1043.9" font-family="Arial" font-size="14.00" fill="#666666">[int(11)]</text>
<polygon fill="none" stroke="#000000" points="308,-1002.5 308,-1032.5 620,-1032.5 620,-1002.5 308,-1002.5"/>
<text text-anchor="start" x="315" y="-1013.9" font-family="Arial" font-size="14.00" fill="#000000">batch_mail    </text>
<text text-anchor="start" x="416.8822" y="-1013.9" font-family="Arial" font-size="14.00" fill="#666666">[int(11)]</text>
<polygon fill="none" stroke="#000000" points="308,-972.5 308,-1002.5 620,-1002.5 620,-972.5 308,-972.5"/>
<text text-anchor="start" x="315" y="-983.9" font-family="Arial" font-size="14.00" fill="#000000">batch_mail_owner    </text>
<text text-anchor="start" x="462.7798" y="-983.9" font-family="Arial" font-size="14.00" fill="#666666">[int(11)]</text>
<polygon fill="none" stroke="#000000" points="308,-942.5 308,-972.5 620,-972.5 620,-942.5 308,-942.5"/>
<text text-anchor="start" x="315" y="-953.9" font-family="Arial" font-size="14.00" fill="#000000">guide_text    </text>
<text text-anchor="start" x="413.7882" y="-953.9" font-family="Arial" font-size="14.00" fill="#666666">[text]</text>
<polygon fill="none" stroke="#000000" points="308,-912.5 308,-942.5 620,-942.5 620,-912.5 308,-912.5"/>
<text text-anchor="start" x="315" y="-923.9" font-family="Arial" font-size="14.00" fill="#000000">eating_text    </text>
<text text-anchor="start" x="417.6788" y="-923.9" font-family="Arial" font-size="14.00" fill="#666666">[varchar(1000)]</text>
<polygon fill="none" stroke="#000000" points="308,-882.5 308,-912.5 620,-912.5 620,-882.5 308,-882.5"/>
<text text-anchor="start" x="315" y="-893.9" font-family="Arial" font-size="14.00" fill="#000000">cleanup_text    </text>
<text text-anchor="start" x="428.5708" y="-893.9" font-family="Arial" font-size="14.00" fill="#666666">[varchar(1000)]</text>
<polygon fill="none" stroke="#000000" points="308,-852.5 308,-882.5 620,-882.5 620,-852.5 308,-852.5"/>
<text text-anchor="start" x="315" y="-863.9" font-family="Arial" font-size="14.00" fill="#000000">facility_text    </text>
<text text-anchor="start" x="418.4348" y="-863.9" font-family="Arial" font-size="14.00" fill="#666666">[varchar(1000)]</text>
<polygon fill="none" stroke="#000000" points="308,-822.5 308,-852.5 620,-852.5 620,-822.5 308,-822.5"/>
<text text-anchor="start" x="315" y="-833.9" font-family="Arial" font-size="14.00" fill="#000000">change_layout    </text>
<text text-anchor="start" x="440.2454" y="-833.9" font-family="Arial" font-size="14.00" fill="#666666">[smallint(2)]</text>
<polygon fill="none" stroke="#000000" points="308,-792.5 308,-822.5 620,-822.5 620,-792.5 308,-792.5"/>
<text text-anchor="start" x="315" y="-803.9" font-family="Arial" font-size="14.00" fill="#000000">reservation_unit_an_hour    </text>
<text text-anchor="start" x="507.92" y="-803.9" font-family="Arial" font-size="14.00" fill="#666666">[tinyint(1)]</text>
<polygon fill="none" stroke="#000000" points="308,-762.5 308,-792.5 620,-792.5 620,-762.5 308,-762.5"/>
<text text-anchor="start" x="315" y="-773.9" font-family="Arial" font-size="14.00" fill="#000000">payment_period    </text>
<text text-anchor="start" x="449.5666" y="-773.9" font-family="Arial" font-size="14.00" fill="#666666">[int(11)]</text>
<polygon fill="none" stroke="#000000" points="308,-732.5 308,-762.5 620,-762.5 620,-732.5 308,-732.5"/>
<text text-anchor="start" x="315" y="-743.9" font-family="Arial" font-size="14.00" fill="#000000">sort_order    </text>
<text text-anchor="start" x="412.9902" y="-743.9" font-family="Arial" font-size="14.00" fill="#666666">[int(11)]</text>
<polygon fill="none" stroke="#000000" points="308,-702.5 308,-732.5 620,-732.5 620,-702.5 308,-702.5"/>
<text text-anchor="start" x="315" y="-713.9" font-family="Arial" font-size="14.00" fill="#000000">allow_tentative    </text>
<text text-anchor="start" x="441.7812" y="-713.9" font-family="Arial" font-size="14.00" fill="#666666">[tinyint(1)]</text>
<polygon fill="none" stroke="#000000" points="308,-672.5 308,-702.5 620,-702.5 620,-672.5 308,-672.5"/>
<text text-anchor="start" x="315" y="-683.9" font-family="Arial" font-size="14.00" fill="#000000">allow_change_reserved    </text>
<text text-anchor="start" x="497.0196" y="-683.9" font-family="Arial" font-size="14.00" fill="#666666">[tinyint(1)]</text>
<polygon fill="none" stroke="#000000" points="308,-642.5 308,-672.5 620,-672.5 620,-642.5 308,-642.5"/>
<text text-anchor="start" x="315" y="-653.9" font-family="Arial" font-size="14.00" fill="#000000">allow_extend_reservation    </text>
<text text-anchor="start" x="507.9074" y="-653.9" font-family="Arial" font-size="14.00" fill="#666666">[tinyint(1)]</text>
<polygon fill="none" stroke="#000000" points="308,-612.5 308,-642.5 620,-642.5 620,-612.5 308,-612.5"/>
<text text-anchor="start" x="315" y="-623.9" font-family="Arial" font-size="14.00" fill="#000000">change_reserved_limit_date    </text>
<text text-anchor="start" x="525.0266" y="-623.9" font-family="Arial" font-size="14.00" fill="#666666">[int(11)]</text>
<polygon fill="none" stroke="#000000" points="308,-582.5 308,-612.5 620,-612.5 620,-582.5 308,-582.5"/>
<text text-anchor="start" x="315" y="-593.9" font-family="Arial" font-size="14.00" fill="#000000">tentative_period    </text>
<text text-anchor="start" x="448.7938" y="-593.9" font-family="Arial" font-size="14.00" fill="#666666">[int(11)]</text>
<polygon fill="none" stroke="#000000" points="308,-552.5 308,-582.5 620,-582.5 620,-552.5 308,-552.5"/>
<text text-anchor="start" x="315" y="-563.9" font-family="Arial" font-size="14.00" fill="#000000">tentative_limit_date    </text>
<text text-anchor="start" x="469.7882" y="-563.9" font-family="Arial" font-size="14.00" fill="#666666">[int(11)]</text>
<polygon fill="none" stroke="#000000" points="308,-522.5 308,-552.5 620,-552.5 620,-522.5 308,-522.5"/>
<text text-anchor="start" x="315" y="-533.9" font-family="Arial" font-size="14.00" fill="#000000">include_tax    </text>
<text text-anchor="start" x="420.0042" y="-533.9" font-family="Arial" font-size="14.00" fill="#666666">[tinyint(1)]</text>
<polygon fill="none" stroke="#000000" points="308,-492.5 308,-522.5 620,-522.5 620,-492.5 308,-492.5"/>
<text text-anchor="start" x="315" y="-503.9" font-family="Arial" font-size="14.00" fill="#000000">ninjalock_serial    </text>
<text text-anchor="start" x="444.8766" y="-503.9" font-family="Arial" font-size="14.00" fill="#666666">[varchar(24)]</text>
<polygon fill="none" stroke="#000000" points="308,-462.5 308,-492.5 620,-492.5 620,-462.5 308,-462.5"/>
<text text-anchor="start" x="315" y="-473.9" font-family="Arial" font-size="14.00" fill="#000000">created_datetime    </text>
<text text-anchor="start" x="457.3478" y="-473.9" font-family="Arial" font-size="14.00" fill="#666666">[timestamp]</text>
<polygon fill="none" stroke="#000000" points="308,-432.5 308,-462.5 620,-462.5 620,-432.5 308,-432.5"/>
<text text-anchor="start" x="315" y="-443.9" font-family="Arial" font-size="14.00" fill="#000000">updated_datetime    </text>
<text text-anchor="start" x="461.2524" y="-443.9" font-family="Arial" font-size="14.00" fill="#666666">[timestamp]</text>
<polygon fill="none" stroke="#000000" points="308,-402.5 308,-432.5 620,-432.5 620,-402.5 308,-402.5"/>
<text text-anchor="start" x="315" y="-413.9" font-family="Arial" font-size="14.00" fill="#000000">start_reservable_time    </text>
<text text-anchor="start" x="483.7756" y="-413.9" font-family="Arial" font-size="14.00" fill="#666666">[smallint(3)]</text>
<polygon fill="none" stroke="#000000" points="308,-372.5 308,-402.5 620,-402.5 620,-372.5 308,-372.5"/>
<text text-anchor="start" x="315" y="-383.9" font-family="Arial" font-size="14.00" fill="#000000">end_reservable_time    </text>
<text text-anchor="start" x="479.899" y="-383.9" font-family="Arial" font-size="14.00" fill="#666666">[smallint(3)]</text>
<polygon fill="none" stroke="#000000" points="308,-342.5 308,-372.5 620,-372.5 620,-342.5 308,-342.5"/>
<text text-anchor="start" x="315" y="-353.9" font-family="Arial" font-size="14.00" fill="#000000">is_set_reservable_time    </text>
<text text-anchor="start" x="493.1136" y="-353.9" font-family="Arial" font-size="14.00" fill="#666666">[tinyint(1)]</text>
<polygon fill="none" stroke="#000000" points="308,-312.5 308,-342.5 620,-342.5 620,-312.5 308,-312.5"/>
<text text-anchor="start" x="315" y="-323.9" font-family="Arial" font-size="14.00" fill="#000000">is_buffer_time_setting_enabled    </text>
<text text-anchor="start" x="543.7096" y="-323.9" font-family="Arial" font-size="14.00" fill="#666666">[tinyint(1)]</text>
<polygon fill="none" stroke="#000000" points="308,-282.5 308,-312.5 620,-312.5 620,-282.5 308,-282.5"/>
<text text-anchor="start" x="315" y="-293.9" font-family="Arial" font-size="14.00" fill="#000000">buffer_time    </text>
<text text-anchor="start" x="419.2174" y="-293.9" font-family="Arial" font-size="14.00" fill="#666666">[time]</text>
<polygon fill="none" stroke="#000000" points="308,-252.5 308,-282.5 620,-282.5 620,-252.5 308,-252.5"/>
<text text-anchor="start" x="315" y="-263.9" font-family="Arial" font-size="14.00" fill="#000000">buffer_time_control    </text>
<text text-anchor="start" x="469.0056" y="-263.9" font-family="Arial" font-size="14.00" fill="#666666">[smallint(3)]</text>
<polygon fill="none" stroke="#000000" points="308,-222.5 308,-252.5 620,-252.5 620,-222.5 308,-222.5"/>
<text text-anchor="start" x="315" y="-233.9" font-family="Arial" font-size="14.00" fill="#000000">is_one_day_rental_enabled    </text>
<text text-anchor="start" x="521.1626" y="-233.9" font-family="Arial" font-size="14.00" fill="#666666">[tinyint(1)]</text>
<polygon fill="none" stroke="#000000" points="308,-192.5 308,-222.5 620,-222.5 620,-192.5 308,-192.5"/>
<text text-anchor="start" x="315" y="-203.9" font-family="Arial" font-size="14.00" fill="#000000">owner_buffer_time    </text>
<text text-anchor="start" x="465.115" y="-203.9" font-family="Arial" font-size="14.00" fill="#666666">[time]</text>
<polygon fill="none" stroke="#000000" points="308,-162.5 308,-192.5 620,-192.5 620,-162.5 308,-162.5"/>
<text text-anchor="start" x="315" y="-173.9" font-family="Arial" font-size="14.00" fill="#000000">external_buffer_time    </text>
<text text-anchor="start" x="476.7882" y="-173.9" font-family="Arial" font-size="14.00" fill="#666666">[time]</text>
<polygon fill="none" stroke="#000000" points="308,-132.5 308,-162.5 620,-162.5 620,-132.5 308,-132.5"/>
<text text-anchor="start" x="315" y="-143.9" font-family="Arial" font-size="14.00" fill="#000000">owner_buffer_time_control    </text>
<text text-anchor="start" x="514.9032" y="-143.9" font-family="Arial" font-size="14.00" fill="#666666">[smallint(3)]</text>
<polygon fill="none" stroke="#000000" points="308,-102.5 308,-132.5 620,-132.5 620,-102.5 308,-102.5"/>
<text text-anchor="start" x="315" y="-113.9" font-family="Arial" font-size="14.00" fill="#000000">external_buffer_time_control    </text>
<text text-anchor="start" x="526.5764" y="-113.9" font-family="Arial" font-size="14.00" fill="#666666">[smallint(3)]</text>
<polygon fill="none" stroke="#000000" points="308,-72.5 308,-102.5 620,-102.5 620,-72.5 308,-72.5"/>
<text text-anchor="start" x="315" y="-83.9" font-family="Arial" font-size="14.00" fill="#000000">is_lottery_setting_enabled    </text>
<text text-anchor="start" x="511.8106" y="-83.9" font-family="Arial" font-size="14.00" fill="#666666">[tinyint(1)]</text>
<polygon fill="none" stroke="#000000" points="308,-42.5 308,-72.5 620,-72.5 620,-42.5 308,-42.5"/>
<text text-anchor="start" x="315" y="-53.9" font-family="Arial" font-size="14.00" fill="#000000">lottery_period    </text>
<text text-anchor="start" x="433.9986" y="-53.9" font-family="Arial" font-size="14.00" fill="#666666">[int(5)]</text>
</g>
<!-- sk_room_plans&#45;&gt;sk_rooms -->
<g id="edge2" class="edge">
<title>sk_room_plans:room_id&#45;&gt;sk_rooms:id</title>
<path fill="none" stroke="#000000" d="M605.1015,-2407.2525C806.209,-2397.2171 734.0205,-2084.548 595,-1927 509.9426,-1830.6068 393.0574,-1987.3932 308,-1891 280.5051,-1859.8408 266.4444,-1797.5 308,-1797.5"/>
<polygon fill="#000000" stroke="#000000" points="604.997,-2407.2549 594.8897,-2403.0014 599.9985,-2407.3775 595,-2407.5 595,-2407.5 595,-2407.5 599.9985,-2407.3775 595.1103,-2411.9986 604.997,-2407.2549 604.997,-2407.2549"/>
<text text-anchor="start" x="601.8365" y="-2417.5" font-family="Arial" font-size="10.00" fill="#000000">FOREIGN KEY (room_id) REFERENCES sk_rooms (id)</text>
</g>
<!-- sk_room_plan_time_ranges -->
<g id="node2" class="node">
<title>sk_room_plan_time_ranges</title>
<polygon fill="#efefef" stroke="transparent" points="282,-2762.5 282,-2797.5 645,-2797.5 645,-2762.5 282,-2762.5"/>
<polygon fill="none" stroke="#000000" points="282,-2762.5 282,-2797.5 645,-2797.5 645,-2762.5 282,-2762.5"/>
<text text-anchor="start" x="288.6929" y="-2775.3" font-family="Arial Bold" font-size="18.00" fill="#000000">sk_room_plan_time_ranges</text>
<text text-anchor="start" x="510.7391" y="-2775.3" font-family="Arial" font-size="14.00" fill="#000000">    </text>
<text text-anchor="start" x="544.9439" y="-2775.3" font-family="Arial" font-size="14.00" fill="#666666">[BASE TABLE]</text>
<polygon fill="none" stroke="#000000" points="282,-2732.5 282,-2762.5 645,-2762.5 645,-2732.5 282,-2732.5"/>
<text text-anchor="start" x="289" y="-2743.9" font-family="Arial" font-size="14.00" fill="#000000">id    </text>
<text text-anchor="start" x="334.094" y="-2743.9" font-family="Arial" font-size="14.00" fill="#666666">[int(11) unsigned]</text>
<polygon fill="none" stroke="#000000" points="282,-2702.5 282,-2732.5 645,-2732.5 645,-2702.5 282,-2702.5"/>
<text text-anchor="start" x="289" y="-2713.9" font-family="Arial" font-size="14.00" fill="#000000">plan_id    </text>
<text text-anchor="start" x="368.331" y="-2713.9" font-family="Arial" font-size="14.00" fill="#666666">[int(11) unsigned]</text>
<polygon fill="none" stroke="#000000" points="282,-2672.5 282,-2702.5 645,-2702.5 645,-2672.5 282,-2672.5"/>
<text text-anchor="start" x="289" y="-2683.9" font-family="Arial" font-size="14.00" fill="#000000">day    </text>
<text text-anchor="start" x="345.77" y="-2683.9" font-family="Arial" font-size="14.00" fill="#666666">[tinyint(1)]</text>
<polygon fill="none" stroke="#000000" points="282,-2642.5 282,-2672.5 645,-2672.5 645,-2642.5 282,-2642.5"/>
<text text-anchor="start" x="289" y="-2653.9" font-family="Arial" font-size="14.00" fill="#000000">start_time    </text>
<text text-anchor="start" x="384.6522" y="-2653.9" font-family="Arial" font-size="14.00" fill="#666666">[time]</text>
<polygon fill="none" stroke="#000000" points="282,-2612.5 282,-2642.5 645,-2642.5 645,-2612.5 282,-2612.5"/>
<text text-anchor="start" x="289" y="-2623.9" font-family="Arial" font-size="14.00" fill="#000000">end_time    </text>
<text text-anchor="start" x="380.7756" y="-2623.9" font-family="Arial" font-size="14.00" fill="#666666">[time]</text>
</g>
<!-- sk_room_plan_time_ranges&#45;&gt;sk_room_plans -->
<g id="edge1" class="edge">
<title>sk_room_plan_time_ranges:plan_id&#45;&gt;sk_room_plans:id</title>
<path fill="none" stroke="#000000" d="M271.682,-2716.839C158.4803,-2701.8652 209.1671,-2437.5 332,-2437.5"/>
<polygon fill="#000000" stroke="#000000" points="272.0205,-2716.8606 281.7123,-2721.9908 277.0102,-2717.1803 282,-2717.5 282,-2717.5 282,-2717.5 277.0102,-2717.1803 282.2877,-2713.0092 272.0205,-2716.8606 272.0205,-2716.8606"/>
<text text-anchor="start" x="6.549" y="-2727.5" font-family="Arial" font-size="10.00" fill="#000000">FOREIGN KEY (plan_id) REFERENCES sk_room_plans (id)</text>
</g>
</g>
</svg>
