<?xml version="1.0" encoding="UTF-8" standalone="no"?>
<!DOCTYPE svg PUBLIC "-//W3C//DTD SVG 1.1//EN"
 "http://www.w3.org/Graphics/SVG/1.1/DTD/svg11.dtd">
<!-- Generated by graphviz version 2.40.1 (20161225.0304)
 -->
<!-- Title: sk_tenants Pages: 1 -->
<svg width="858pt" height="2099pt"
 viewBox="0.00 0.00 857.50 2099.00" xmlns="http://www.w3.org/2000/svg" xmlns:xlink="http://www.w3.org/1999/xlink">
<g id="graph0" class="graph" transform="scale(1 1) rotate(0) translate(4 2095)">
<title>sk_tenants</title>
<polygon fill="#ffffff" stroke="transparent" points="-4,4 -4,-2095 853.5,-2095 853.5,4 -4,4"/>
<!-- sk_tenants -->
<g id="node1" class="node">
<title>sk_tenants</title>
<polygon fill="#efefef" stroke="transparent" points="312.5,-1492.5 312.5,-1527.5 547.5,-1527.5 547.5,-1492.5 312.5,-1492.5"/>
<polygon fill="none" stroke="#000000" points="312.5,-1492.5 312.5,-1527.5 547.5,-1527.5 547.5,-1492.5 312.5,-1492.5"/>
<text text-anchor="start" x="322.6983" y="-1505.3" font-family="Arial Bold" font-size="18.00" fill="#000000">sk_tenants</text>
<text text-anchor="start" x="409.7337" y="-1505.3" font-family="Arial" font-size="14.00" fill="#000000">    </text>
<text text-anchor="start" x="443.9385" y="-1505.3" font-family="Arial" font-size="14.00" fill="#666666">[BASE TABLE]</text>
<polygon fill="none" stroke="#000000" points="312.5,-1462.5 312.5,-1492.5 547.5,-1492.5 547.5,-1462.5 312.5,-1462.5"/>
<text text-anchor="start" x="319.5" y="-1473.9" font-family="Arial" font-size="14.00" fill="#000000">user_id </text>
<text text-anchor="start" x="369.2882" y="-1473.9" font-family="Arial" font-size="14.00" fill="#666666">[int(11) unsigned]</text>
<polygon fill="none" stroke="#000000" points="312.5,-1432.5 312.5,-1462.5 547.5,-1462.5 547.5,-1432.5 312.5,-1432.5"/>
<text text-anchor="start" x="319.5" y="-1443.9" font-family="Arial" font-size="14.00" fill="#000000">type </text>
<text text-anchor="start" x="349.8464" y="-1443.9" font-family="Arial" font-size="14.00" fill="#666666">[smallint(6)]</text>
<polygon fill="none" stroke="#000000" points="312.5,-1402.5 312.5,-1432.5 547.5,-1432.5 547.5,-1402.5 312.5,-1402.5"/>
<text text-anchor="start" x="319.5" y="-1413.9" font-family="Arial" font-size="14.00" fill="#000000">corporate_name </text>
<text text-anchor="start" x="425.3064" y="-1413.9" font-family="Arial" font-size="14.00" fill="#666666">[varchar(200)]</text>
<polygon fill="none" stroke="#000000" points="312.5,-1372.5 312.5,-1402.5 547.5,-1402.5 547.5,-1372.5 312.5,-1372.5"/>
<text text-anchor="start" x="319.5" y="-1383.9" font-family="Arial" font-size="14.00" fill="#000000">department_name </text>
<text text-anchor="start" x="436.9796" y="-1383.9" font-family="Arial" font-size="14.00" fill="#666666">[varchar(200)]</text>
<polygon fill="none" stroke="#000000" points="312.5,-1342.5 312.5,-1372.5 547.5,-1372.5 547.5,-1342.5 312.5,-1342.5"/>
<text text-anchor="start" x="319.5" y="-1353.9" font-family="Arial" font-size="14.00" fill="#000000">corporate_postal </text>
<text text-anchor="start" x="427.643" y="-1353.9" font-family="Arial" font-size="14.00" fill="#666666">[varchar(8)]</text>
<polygon fill="none" stroke="#000000" points="312.5,-1312.5 312.5,-1342.5 547.5,-1342.5 547.5,-1312.5 312.5,-1312.5"/>
<text text-anchor="start" x="319.5" y="-1323.9" font-family="Arial" font-size="14.00" fill="#000000">corporate_prefecture </text>
<text text-anchor="start" x="453.3134" y="-1323.9" font-family="Arial" font-size="14.00" fill="#666666">[varchar(40)]</text>
<polygon fill="none" stroke="#000000" points="312.5,-1282.5 312.5,-1312.5 547.5,-1312.5 547.5,-1282.5 312.5,-1282.5"/>
<text text-anchor="start" x="319.5" y="-1293.9" font-family="Arial" font-size="14.00" fill="#000000">corporate_address </text>
<text text-anchor="start" x="440.089" y="-1293.9" font-family="Arial" font-size="14.00" fill="#666666">[varchar(500)]</text>
<polygon fill="none" stroke="#000000" points="312.5,-1252.5 312.5,-1282.5 547.5,-1282.5 547.5,-1252.5 312.5,-1252.5"/>
<text text-anchor="start" x="319.5" y="-1263.9" font-family="Arial" font-size="14.00" fill="#000000">corporate_tel </text>
<text text-anchor="start" x="405.0778" y="-1263.9" font-family="Arial" font-size="14.00" fill="#666666">[varchar(13)]</text>
<polygon fill="none" stroke="#000000" points="312.5,-1222.5 312.5,-1252.5 547.5,-1252.5 547.5,-1222.5 312.5,-1222.5"/>
<text text-anchor="start" x="319.5" y="-1233.9" font-family="Arial" font-size="14.00" fill="#000000">dept_last_name </text>
<text text-anchor="start" x="422.9824" y="-1233.9" font-family="Arial" font-size="14.00" fill="#666666">[varchar(40)]</text>
<polygon fill="none" stroke="#000000" points="312.5,-1192.5 312.5,-1222.5 547.5,-1222.5 547.5,-1192.5 312.5,-1192.5"/>
<text text-anchor="start" x="319.5" y="-1203.9" font-family="Arial" font-size="14.00" fill="#000000">dept_last_name_kana </text>
<text text-anchor="start" x="461.1128" y="-1203.9" font-family="Arial" font-size="14.00" fill="#666666">[varchar(40)]</text>
<polygon fill="none" stroke="#000000" points="312.5,-1162.5 312.5,-1192.5 547.5,-1192.5 547.5,-1162.5 312.5,-1162.5"/>
<text text-anchor="start" x="319.5" y="-1173.9" font-family="Arial" font-size="14.00" fill="#000000">dept_first_name </text>
<text text-anchor="start" x="423.751" y="-1173.9" font-family="Arial" font-size="14.00" fill="#666666">[varchar(40)]</text>
<polygon fill="none" stroke="#000000" points="312.5,-1132.5 312.5,-1162.5 547.5,-1162.5 547.5,-1132.5 312.5,-1132.5"/>
<text text-anchor="start" x="319.141" y="-1143.9" font-family="Arial" font-size="14.00" fill="#000000">dept_first_name_kana </text>
<text text-anchor="start" x="461.5224" y="-1143.9" font-family="Arial" font-size="14.00" fill="#666666">[varchar(40)]</text>
<polygon fill="none" stroke="#000000" points="312.5,-1102.5 312.5,-1132.5 547.5,-1132.5 547.5,-1102.5 312.5,-1102.5"/>
<text text-anchor="start" x="319.5" y="-1113.9" font-family="Arial" font-size="14.00" fill="#000000">dept_birthday </text>
<text text-anchor="start" x="408.1998" y="-1113.9" font-family="Arial" font-size="14.00" fill="#666666">[date]</text>
<polygon fill="none" stroke="#000000" stroke-width="3" points="310.5,-1101.5 310.5,-1529.5 548.5,-1529.5 548.5,-1101.5 310.5,-1101.5"/>
</g>
<!-- sk_users -->
<g id="node2" class="node">
<title>sk_users</title>
<polygon fill="#efefef" stroke="transparent" points="279.5,-942.5 279.5,-977.5 580.5,-977.5 580.5,-942.5 279.5,-942.5"/>
<polygon fill="none" stroke="#000000" points="279.5,-942.5 279.5,-977.5 580.5,-977.5 580.5,-942.5 279.5,-942.5"/>
<text text-anchor="start" x="330.2106" y="-955.3" font-family="Arial Bold" font-size="18.00" fill="#000000">sk_users</text>
<text text-anchor="start" x="402.2214" y="-955.3" font-family="Arial" font-size="14.00" fill="#000000">    </text>
<text text-anchor="start" x="436.4262" y="-955.3" font-family="Arial" font-size="14.00" fill="#666666">[BASE TABLE]</text>
<polygon fill="none" stroke="#000000" points="279.5,-912.5 279.5,-942.5 580.5,-942.5 580.5,-912.5 279.5,-912.5"/>
<text text-anchor="start" x="286.5" y="-923.9" font-family="Arial" font-size="14.00" fill="#000000">id    </text>
<text text-anchor="start" x="331.594" y="-923.9" font-family="Arial" font-size="14.00" fill="#666666">[int(11) unsigned]</text>
<polygon fill="none" stroke="#000000" points="279.5,-882.5 279.5,-912.5 580.5,-912.5 580.5,-882.5 279.5,-882.5"/>
<text text-anchor="start" x="286.5" y="-893.9" font-family="Arial" font-size="14.00" fill="#000000">is_deleted    </text>
<text text-anchor="start" x="384.5042" y="-893.9" font-family="Arial" font-size="14.00" fill="#666666">[tinyint(1)]</text>
<polygon fill="none" stroke="#000000" points="279.5,-852.5 279.5,-882.5 580.5,-882.5 580.5,-852.5 279.5,-852.5"/>
<text text-anchor="start" x="286.5" y="-863.9" font-family="Arial" font-size="14.00" fill="#000000">email    </text>
<text text-anchor="start" x="354.1438" y="-863.9" font-family="Arial" font-size="14.00" fill="#666666">[varchar(255)]</text>
<polygon fill="none" stroke="#000000" points="279.5,-822.5 279.5,-852.5 580.5,-852.5 580.5,-822.5 279.5,-822.5"/>
<text text-anchor="start" x="286.5" y="-833.9" font-family="Arial" font-size="14.00" fill="#000000">password    </text>
<text text-anchor="start" x="380.6024" y="-833.9" font-family="Arial" font-size="14.00" fill="#666666">[varchar(255)]</text>
<polygon fill="none" stroke="#000000" points="279.5,-792.5 279.5,-822.5 580.5,-822.5 580.5,-792.5 279.5,-792.5"/>
<text text-anchor="start" x="286.5" y="-803.9" font-family="Arial" font-size="14.00" fill="#000000">role    </text>
<text text-anchor="start" x="344.0372" y="-803.9" font-family="Arial" font-size="14.00" fill="#666666">[smallint(6)]</text>
<polygon fill="none" stroke="#000000" points="279.5,-762.5 279.5,-792.5 580.5,-792.5 580.5,-762.5 279.5,-762.5"/>
<text text-anchor="start" x="286.5" y="-773.9" font-family="Arial" font-size="14.00" fill="#000000">last_name    </text>
<text text-anchor="start" x="385.2756" y="-773.9" font-family="Arial" font-size="14.00" fill="#666666">[varchar(40)]</text>
<polygon fill="none" stroke="#000000" points="279.5,-732.5 279.5,-762.5 580.5,-762.5 580.5,-732.5 279.5,-732.5"/>
<text text-anchor="start" x="286.5" y="-743.9" font-family="Arial" font-size="14.00" fill="#000000">last_name_kana    </text>
<text text-anchor="start" x="423.406" y="-743.9" font-family="Arial" font-size="14.00" fill="#666666">[varchar(40)]</text>
<polygon fill="none" stroke="#000000" points="279.5,-702.5 279.5,-732.5 580.5,-732.5 580.5,-702.5 279.5,-702.5"/>
<text text-anchor="start" x="286.5" y="-713.9" font-family="Arial" font-size="14.00" fill="#000000">first_name    </text>
<text text-anchor="start" x="386.0442" y="-713.9" font-family="Arial" font-size="14.00" fill="#666666">[varchar(40)]</text>
<polygon fill="none" stroke="#000000" points="279.5,-672.5 279.5,-702.5 580.5,-702.5 580.5,-672.5 279.5,-672.5"/>
<text text-anchor="start" x="286.5" y="-683.9" font-family="Arial" font-size="14.00" fill="#000000">first_name_kana    </text>
<text text-anchor="start" x="424.1746" y="-683.9" font-family="Arial" font-size="14.00" fill="#666666">[varchar(40)]</text>
<polygon fill="none" stroke="#000000" points="279.5,-642.5 279.5,-672.5 580.5,-672.5 580.5,-642.5 279.5,-642.5"/>
<text text-anchor="start" x="286.5" y="-653.9" font-family="Arial" font-size="14.00" fill="#000000">postal    </text>
<text text-anchor="start" x="358.0498" y="-653.9" font-family="Arial" font-size="14.00" fill="#666666">[varchar(8)]</text>
<polygon fill="none" stroke="#000000" points="279.5,-612.5 279.5,-642.5 580.5,-642.5 580.5,-612.5 279.5,-612.5"/>
<text text-anchor="start" x="286.5" y="-623.9" font-family="Arial" font-size="14.00" fill="#000000">mynavi_employee_id    </text>
<text text-anchor="start" x="452.1718" y="-623.9" font-family="Arial" font-size="14.00" fill="#666666">[varchar(255)]</text>
<polygon fill="none" stroke="#000000" points="279.5,-582.5 279.5,-612.5 580.5,-612.5 580.5,-582.5 279.5,-582.5"/>
<text text-anchor="start" x="286.5" y="-593.9" font-family="Arial" font-size="14.00" fill="#000000">prefecture    </text>
<text text-anchor="start" x="383.7202" y="-593.9" font-family="Arial" font-size="14.00" fill="#666666">[varchar(20)]</text>
<polygon fill="none" stroke="#000000" points="279.5,-552.5 279.5,-582.5 580.5,-582.5 580.5,-552.5 279.5,-552.5"/>
<text text-anchor="start" x="286.5" y="-563.9" font-family="Arial" font-size="14.00" fill="#000000">address    </text>
<text text-anchor="start" x="370.4958" y="-563.9" font-family="Arial" font-size="14.00" fill="#666666">[varchar(500)]</text>
<polygon fill="none" stroke="#000000" points="279.5,-522.5 279.5,-552.5 580.5,-552.5 580.5,-522.5 279.5,-522.5"/>
<text text-anchor="start" x="286.5" y="-533.9" font-family="Arial" font-size="14.00" fill="#000000">tel    </text>
<text text-anchor="start" x="335.4846" y="-533.9" font-family="Arial" font-size="14.00" fill="#666666">[varchar(13)]</text>
<polygon fill="none" stroke="#000000" points="279.5,-492.5 279.5,-522.5 580.5,-522.5 580.5,-492.5 279.5,-492.5"/>
<text text-anchor="start" x="286.5" y="-503.9" font-family="Arial" font-size="14.00" fill="#000000">is_registerd    </text>
<text text-anchor="start" x="393.0428" y="-503.9" font-family="Arial" font-size="14.00" fill="#666666">[tinyint(1) unsigned]</text>
<polygon fill="none" stroke="#000000" points="279.5,-462.5 279.5,-492.5 580.5,-492.5 580.5,-462.5 279.5,-462.5"/>
<text text-anchor="start" x="286.5" y="-473.9" font-family="Arial" font-size="14.00" fill="#000000">register_token    </text>
<text text-anchor="start" x="409.392" y="-473.9" font-family="Arial" font-size="14.00" fill="#666666">[varchar(64)]</text>
<polygon fill="none" stroke="#000000" points="279.5,-432.5 279.5,-462.5 580.5,-462.5 580.5,-432.5 279.5,-432.5"/>
<text text-anchor="start" x="286.5" y="-443.9" font-family="Arial" font-size="14.00" fill="#000000">register_created    </text>
<text text-anchor="start" x="421.8352" y="-443.9" font-family="Arial" font-size="14.00" fill="#666666">[datetime]</text>
<polygon fill="none" stroke="#000000" points="279.5,-402.5 279.5,-432.5 580.5,-432.5 580.5,-402.5 279.5,-402.5"/>
<text text-anchor="start" x="286.5" y="-413.9" font-family="Arial" font-size="14.00" fill="#000000">registerd_redirect_url    </text>
<text text-anchor="start" x="452.9348" y="-413.9" font-family="Arial" font-size="14.00" fill="#666666">[varchar(1000)]</text>
<polygon fill="none" stroke="#000000" points="279.5,-372.5 279.5,-402.5 580.5,-402.5 580.5,-372.5 279.5,-372.5"/>
<text text-anchor="start" x="286.4923" y="-383.9" font-family="Arial" font-size="14.00" fill="#000000">password_remember_token    </text>
<text text-anchor="start" x="494.1711" y="-383.9" font-family="Arial" font-size="14.00" fill="#666666">[varchar(64)]</text>
<polygon fill="none" stroke="#000000" points="279.5,-342.5 279.5,-372.5 580.5,-372.5 580.5,-342.5 279.5,-342.5"/>
<text text-anchor="start" x="286.5" y="-353.9" font-family="Arial" font-size="14.00" fill="#000000">password_remember_created    </text>
<text text-anchor="start" x="506.622" y="-353.9" font-family="Arial" font-size="14.00" fill="#666666">[datetime]</text>
<polygon fill="none" stroke="#000000" points="279.5,-312.5 279.5,-342.5 580.5,-342.5 580.5,-312.5 279.5,-312.5"/>
<text text-anchor="start" x="286.5" y="-323.9" font-family="Arial" font-size="14.00" fill="#000000">update_email    </text>
<text text-anchor="start" x="404.73" y="-323.9" font-family="Arial" font-size="14.00" fill="#666666">[varchar(255)]</text>
<polygon fill="none" stroke="#000000" points="279.5,-282.5 279.5,-312.5 580.5,-312.5 580.5,-282.5 279.5,-282.5"/>
<text text-anchor="start" x="286.5" y="-293.9" font-family="Arial" font-size="14.00" fill="#000000">update_email_token    </text>
<text text-anchor="start" x="446.751" y="-293.9" font-family="Arial" font-size="14.00" fill="#666666">[varchar(64)]</text>
<polygon fill="none" stroke="#000000" points="279.5,-252.5 279.5,-282.5 580.5,-282.5 580.5,-252.5 279.5,-252.5"/>
<text text-anchor="start" x="286.5" y="-263.9" font-family="Arial" font-size="14.00" fill="#000000">update_email_created    </text>
<text text-anchor="start" x="459.1942" y="-263.9" font-family="Arial" font-size="14.00" fill="#666666">[datetime]</text>
<polygon fill="none" stroke="#000000" points="279.5,-222.5 279.5,-252.5 580.5,-252.5 580.5,-222.5 279.5,-222.5"/>
<text text-anchor="start" x="286.5" y="-233.9" font-family="Arial" font-size="14.00" fill="#000000">user_image_id    </text>
<text text-anchor="start" x="412.5" y="-233.9" font-family="Arial" font-size="14.00" fill="#666666">[bigint(21) unsigned]</text>
<polygon fill="none" stroke="#000000" points="279.5,-192.5 279.5,-222.5 580.5,-222.5 580.5,-192.5 279.5,-192.5"/>
<text text-anchor="start" x="286.5" y="-203.9" font-family="Arial" font-size="14.00" fill="#000000">birthday    </text>
<text text-anchor="start" x="370.493" y="-203.9" font-family="Arial" font-size="14.00" fill="#666666">[date]</text>
<polygon fill="none" stroke="#000000" points="279.5,-162.5 279.5,-192.5 580.5,-192.5 580.5,-162.5 279.5,-162.5"/>
<text text-anchor="start" x="286.5" y="-173.9" font-family="Arial" font-size="14.00" fill="#000000">where_to_know    </text>
<text text-anchor="start" x="418.73" y="-173.9" font-family="Arial" font-size="14.00" fill="#666666">[smallint(6)]</text>
<polygon fill="none" stroke="#000000" points="279.5,-132.5 279.5,-162.5 580.5,-162.5 580.5,-132.5 279.5,-132.5"/>
<text text-anchor="start" x="286.5" y="-143.9" font-family="Arial" font-size="14.00" fill="#000000">apply_lessor_parent_ids    </text>
<text text-anchor="start" x="472.4102" y="-143.9" font-family="Arial" font-size="14.00" fill="#666666">[varchar(100)]</text>
<polygon fill="none" stroke="#000000" points="279.5,-102.5 279.5,-132.5 580.5,-132.5 580.5,-102.5 279.5,-102.5"/>
<text text-anchor="start" x="286.5" y="-113.9" font-family="Arial" font-size="14.00" fill="#000000">check_terms_date    </text>
<text text-anchor="start" x="435.068" y="-113.9" font-family="Arial" font-size="14.00" fill="#666666">[datetime]</text>
<polygon fill="none" stroke="#000000" points="279.5,-72.5 279.5,-102.5 580.5,-102.5 580.5,-72.5 279.5,-72.5"/>
<text text-anchor="start" x="286.5" y="-83.9" font-family="Arial" font-size="14.00" fill="#000000">created    </text>
<text text-anchor="start" x="367.3864" y="-83.9" font-family="Arial" font-size="14.00" fill="#666666">[datetime]</text>
<polygon fill="none" stroke="#000000" points="279.5,-42.5 279.5,-72.5 580.5,-72.5 580.5,-42.5 279.5,-42.5"/>
<text text-anchor="start" x="286.5" y="-53.9" font-family="Arial" font-size="14.00" fill="#000000">modified    </text>
<text text-anchor="start" x="373.5996" y="-53.9" font-family="Arial" font-size="14.00" fill="#666666">[datetime]</text>
</g>
<!-- sk_tenants&#45;&gt;sk_users -->
<g id="edge1" class="edge">
<title>sk_tenants:user_id&#45;&gt;sk_users:id</title>
<path fill="none" stroke="#000000" d="M302.2249,-1477.1723C66.7371,-1462.0341 38.0835,-927.5 279.5,-927.5"/>
<polygon fill="#000000" stroke="#000000" points="302.5051,-1477.1811 312.3565,-1481.9977 307.5025,-1477.3406 312.5,-1477.5 312.5,-1477.5 312.5,-1477.5 307.5025,-1477.3406 312.6435,-1473.0023 302.5051,-1477.1811 302.5051,-1477.1811"/>
<text text-anchor="start" x="64.6655" y="-1487.5" font-family="Arial" font-size="10.00" fill="#000000">FOREIGN KEY (user_id) REFERENCES sk_users (id)</text>
</g>
<!-- sk_lessor_parents_users -->
<g id="node3" class="node">
<title>sk_lessor_parents_users</title>
<polygon fill="#efefef" stroke="transparent" points="43.5,-2012.5 43.5,-2047.5 384.5,-2047.5 384.5,-2012.5 43.5,-2012.5"/>
<polygon fill="none" stroke="#000000" points="43.5,-2012.5 43.5,-2047.5 384.5,-2047.5 384.5,-2012.5 43.5,-2012.5"/>
<text text-anchor="start" x="50.1954" y="-2025.3" font-family="Arial Bold" font-size="18.00" fill="#000000">sk_lessor_parents_users</text>
<text text-anchor="start" x="250.2366" y="-2025.3" font-family="Arial" font-size="14.00" fill="#000000">    </text>
<text text-anchor="start" x="284.4414" y="-2025.3" font-family="Arial" font-size="14.00" fill="#666666">[BASE TABLE]</text>
<polygon fill="none" stroke="#000000" points="43.5,-1982.5 43.5,-2012.5 384.5,-2012.5 384.5,-1982.5 43.5,-1982.5"/>
<text text-anchor="start" x="50.5" y="-1993.9" font-family="Arial" font-size="14.00" fill="#000000">id    </text>
<text text-anchor="start" x="95.594" y="-1993.9" font-family="Arial" font-size="14.00" fill="#666666">[int(11) unsigned]</text>
<polygon fill="none" stroke="#000000" points="43.5,-1952.5 43.5,-1982.5 384.5,-1982.5 384.5,-1952.5 43.5,-1952.5"/>
<text text-anchor="start" x="50.5" y="-1963.9" font-family="Arial" font-size="14.00" fill="#000000">lessor_parent_id    </text>
<text text-anchor="start" x="188.1732" y="-1963.9" font-family="Arial" font-size="14.00" fill="#666666">[int(11) unsigned]</text>
<polygon fill="none" stroke="#000000" points="43.5,-1922.5 43.5,-1952.5 384.5,-1952.5 384.5,-1922.5 43.5,-1922.5"/>
<text text-anchor="start" x="50.5" y="-1933.9" font-family="Arial" font-size="14.00" fill="#000000">user_id    </text>
<text text-anchor="start" x="130.6024" y="-1933.9" font-family="Arial" font-size="14.00" fill="#666666">[int(11) unsigned]</text>
<polygon fill="none" stroke="#000000" points="43.5,-1892.5 43.5,-1922.5 384.5,-1922.5 384.5,-1892.5 43.5,-1892.5"/>
<text text-anchor="start" x="50.5" y="-1903.9" font-family="Arial" font-size="14.00" fill="#000000">stripe_customer_id    </text>
<text text-anchor="start" x="202.9418" y="-1903.9" font-family="Arial" font-size="14.00" fill="#666666">[varchar(255)]</text>
<polygon fill="none" stroke="#000000" points="43.5,-1862.5 43.5,-1892.5 384.5,-1892.5 384.5,-1862.5 43.5,-1862.5"/>
<text text-anchor="start" x="50.5" y="-1873.9" font-family="Arial" font-size="14.00" fill="#000000">stripe_subscription_id    </text>
<text text-anchor="start" x="220.0596" y="-1873.9" font-family="Arial" font-size="14.00" fill="#666666">[varchar(255)]</text>
<polygon fill="none" stroke="#000000" points="43.5,-1832.5 43.5,-1862.5 384.5,-1862.5 384.5,-1832.5 43.5,-1832.5"/>
<text text-anchor="start" x="50.5" y="-1843.9" font-family="Arial" font-size="14.00" fill="#000000">status    </text>
<text text-anchor="start" x="122.0512" y="-1843.9" font-family="Arial" font-size="14.00" fill="#666666">[smallint(6)]</text>
<polygon fill="none" stroke="#000000" points="43.5,-1802.5 43.5,-1832.5 384.5,-1832.5 384.5,-1802.5 43.5,-1802.5"/>
<text text-anchor="start" x="50.5" y="-1813.9" font-family="Arial" font-size="14.00" fill="#000000">group_id    </text>
<text text-anchor="start" x="139.1676" y="-1813.9" font-family="Arial" font-size="14.00" fill="#666666">[int(11) unsigned]</text>
<polygon fill="none" stroke="#000000" points="43.5,-1772.5 43.5,-1802.5 384.5,-1802.5 384.5,-1772.5 43.5,-1772.5"/>
<text text-anchor="start" x="50.5" y="-1783.9" font-family="Arial" font-size="14.00" fill="#000000">temporary_group_id    </text>
<text text-anchor="start" x="209.953" y="-1783.9" font-family="Arial" font-size="14.00" fill="#666666">[int(11)]</text>
<polygon fill="none" stroke="#000000" points="43.5,-1742.5 43.5,-1772.5 384.5,-1772.5 384.5,-1742.5 43.5,-1742.5"/>
<text text-anchor="start" x="50.5" y="-1753.9" font-family="Arial" font-size="14.00" fill="#000000">approval_date    </text>
<text text-anchor="start" x="173.406" y="-1753.9" font-family="Arial" font-size="14.00" fill="#666666">[datetime]</text>
<polygon fill="none" stroke="#000000" points="43.5,-1712.5 43.5,-1742.5 384.5,-1742.5 384.5,-1712.5 43.5,-1712.5"/>
<text text-anchor="start" x="50.5" y="-1723.9" font-family="Arial" font-size="14.00" fill="#000000">subscription_purchase_date    </text>
<text text-anchor="start" x="259.7594" y="-1723.9" font-family="Arial" font-size="14.00" fill="#666666">[datetime]</text>
<polygon fill="none" stroke="#000000" points="43.5,-1682.5 43.5,-1712.5 384.5,-1712.5 384.5,-1682.5 43.5,-1682.5"/>
<text text-anchor="start" x="50.5" y="-1693.9" font-family="Arial" font-size="14.00" fill="#000000">memo    </text>
<text text-anchor="start" x="123.5912" y="-1693.9" font-family="Arial" font-size="14.00" fill="#666666">[text]</text>
<polygon fill="none" stroke="#000000" points="43.5,-1652.5 43.5,-1682.5 384.5,-1682.5 384.5,-1652.5 43.5,-1652.5"/>
<text text-anchor="start" x="50.5" y="-1663.9" font-family="Arial" font-size="14.00" fill="#000000">has_changed_subgroup    </text>
<text text-anchor="start" x="234.887" y="-1663.9" font-family="Arial" font-size="14.00" fill="#666666">[tinyint(1)]</text>
</g>
<!-- sk_lessor_parents_users&#45;&gt;sk_tenants -->
<g id="edge2" class="edge">
<title>sk_lessor_parents_users:user_id&#45;&gt;sk_tenants:user_id</title>
<path fill="none" stroke="#000000" d="M394.4054,-1935.655C453.8981,-1912.0489 420.8933,-1668.8856 384.5,-1610 365.6909,-1579.5662 331.3091,-1604.4338 312.5,-1574 289.952,-1537.5165 269.6111,-1477.5 312.5,-1477.5"/>
<polygon fill="#000000" stroke="#000000" points="394.3309,-1935.6688 383.6759,-1933.0761 389.4155,-1936.5844 384.5,-1937.5 384.5,-1937.5 384.5,-1937.5 389.4155,-1936.5844 385.3241,-1941.9239 394.3309,-1935.6688 394.3309,-1935.6688"/>
<text text-anchor="start" x="391.989" y="-1947.5" font-family="Arial" font-size="10.00" fill="#000000">FOREIGN KEY (user_id) REFERENCES sk_tenants (user_id)</text>
</g>
<!-- sk_properties_tenants -->
<g id="node4" class="node">
<title>sk_properties_tenants</title>
<polygon fill="#efefef" stroke="transparent" points="488.5,-1907.5 488.5,-1942.5 806.5,-1942.5 806.5,-1907.5 488.5,-1907.5"/>
<polygon fill="none" stroke="#000000" points="488.5,-1907.5 488.5,-1942.5 806.5,-1942.5 806.5,-1907.5 488.5,-1907.5"/>
<text text-anchor="start" x="495.1893" y="-1920.3" font-family="Arial Bold" font-size="18.00" fill="#000000">sk_properties_tenants</text>
<text text-anchor="start" x="672.2427" y="-1920.3" font-family="Arial" font-size="14.00" fill="#000000">    </text>
<text text-anchor="start" x="706.4475" y="-1920.3" font-family="Arial" font-size="14.00" fill="#666666">[BASE TABLE]</text>
<polygon fill="none" stroke="#000000" points="488.5,-1877.5 488.5,-1907.5 806.5,-1907.5 806.5,-1877.5 488.5,-1877.5"/>
<text text-anchor="start" x="495.5" y="-1888.9" font-family="Arial" font-size="14.00" fill="#000000">id    </text>
<text text-anchor="start" x="540.594" y="-1888.9" font-family="Arial" font-size="14.00" fill="#666666">[bigint(21) unsigned]</text>
<polygon fill="none" stroke="#000000" points="488.5,-1847.5 488.5,-1877.5 806.5,-1877.5 806.5,-1847.5 488.5,-1847.5"/>
<text text-anchor="start" x="495.5" y="-1858.9" font-family="Arial" font-size="14.00" fill="#000000">is_disabled    </text>
<text text-anchor="start" x="599.7202" y="-1858.9" font-family="Arial" font-size="14.00" fill="#666666">[tinyint(1)]</text>
<polygon fill="none" stroke="#000000" points="488.5,-1817.5 488.5,-1847.5 806.5,-1847.5 806.5,-1817.5 488.5,-1817.5"/>
<text text-anchor="start" x="495.5" y="-1828.9" font-family="Arial" font-size="14.00" fill="#000000">property_id    </text>
<text text-anchor="start" x="599.7188" y="-1828.9" font-family="Arial" font-size="14.00" fill="#666666">[int(11) unsigned]</text>
<polygon fill="none" stroke="#000000" points="488.5,-1787.5 488.5,-1817.5 806.5,-1817.5 806.5,-1787.5 488.5,-1787.5"/>
<text text-anchor="start" x="495.5" y="-1798.9" font-family="Arial" font-size="14.00" fill="#000000">tenant_id    </text>
<text text-anchor="start" x="587.2882" y="-1798.9" font-family="Arial" font-size="14.00" fill="#666666">[int(11) unsigned]</text>
<polygon fill="none" stroke="#000000" points="488.5,-1757.5 488.5,-1787.5 806.5,-1787.5 806.5,-1757.5 488.5,-1757.5"/>
<text text-anchor="start" x="495.5" y="-1768.9" font-family="Arial" font-size="14.00" fill="#000000">description    </text>
<text text-anchor="start" x="597.3822" y="-1768.9" font-family="Arial" font-size="14.00" fill="#666666">[text]</text>
</g>
<!-- sk_properties_tenants&#45;&gt;sk_tenants -->
<g id="edge3" class="edge">
<title>sk_properties_tenants:tenant_id&#45;&gt;sk_tenants:user_id</title>
<path fill="none" stroke="#000000" d="M478.2671,-1801.8821C359.2787,-1786.2056 690.5778,-1477.5 547.5,-1477.5"/>
<polygon fill="#000000" stroke="#000000" points="478.5182,-1801.8971 488.2287,-1806.9918 483.5091,-1802.1986 488.5,-1802.5 488.5,-1802.5 488.5,-1802.5 483.5091,-1802.1986 488.7713,-1798.0082 478.5182,-1801.8971 478.5182,-1801.8971"/>
<text text-anchor="start" x="495.8155" y="-1812.5" font-family="Arial" font-size="10.00" fill="#000000">FOREIGN KEY (tenant_id) REFERENCES sk_tenants (user_id)</text>
</g>
</g>
</svg>
