<?xml version="1.0" encoding="UTF-8" standalone="no"?>
<!DOCTYPE svg PUBLIC "-//W3C//DTD SVG 1.1//EN"
 "http://www.w3.org/Graphics/SVG/1.1/DTD/svg11.dtd">
<!-- Generated by graphviz version 2.40.1 (20161225.0304)
 -->
<!-- Title: sk_user_images Pages: 1 -->
<svg width="592pt" height="1342pt"
 viewBox="0.00 0.00 591.50 1342.00" xmlns="http://www.w3.org/2000/svg" xmlns:xlink="http://www.w3.org/1999/xlink">
<g id="graph0" class="graph" transform="scale(1 1) rotate(0) translate(4 1338)">
<title>sk_user_images</title>
<polygon fill="#ffffff" stroke="transparent" points="-4,4 -4,-1338 587.5,-1338 587.5,4 -4,4"/>
<!-- sk_user_images -->
<g id="node1" class="node">
<title>sk_user_images</title>
<polygon fill="#efefef" stroke="transparent" points="255,-1252.5 255,-1287.5 527,-1287.5 527,-1252.5 255,-1252.5"/>
<polygon fill="none" stroke="#000000" points="255,-1252.5 255,-1287.5 527,-1287.5 527,-1252.5 255,-1252.5"/>
<text text-anchor="start" x="261.705" y="-1265.3" font-family="Arial Bold" font-size="18.00" fill="#000000">sk_user_images</text>
<text text-anchor="start" x="392.727" y="-1265.3" font-family="Arial" font-size="14.00" fill="#000000">    </text>
<text text-anchor="start" x="426.9318" y="-1265.3" font-family="Arial" font-size="14.00" fill="#666666">[BASE TABLE]</text>
<polygon fill="none" stroke="#000000" points="255,-1222.5 255,-1252.5 527,-1252.5 527,-1222.5 255,-1222.5"/>
<text text-anchor="start" x="262" y="-1233.9" font-family="Arial" font-size="14.00" fill="#000000">id </text>
<text text-anchor="start" x="276.7798" y="-1233.9" font-family="Arial" font-size="14.00" fill="#666666">[int(11) unsigned]</text>
<polygon fill="none" stroke="#000000" points="255,-1192.5 255,-1222.5 527,-1222.5 527,-1192.5 255,-1192.5"/>
<text text-anchor="start" x="262" y="-1203.9" font-family="Arial" font-size="14.00" fill="#000000">user_id </text>
<text text-anchor="start" x="311.7882" y="-1203.9" font-family="Arial" font-size="14.00" fill="#666666">[int(11) unsigned]</text>
<polygon fill="none" stroke="#000000" points="255,-1162.5 255,-1192.5 527,-1192.5 527,-1162.5 255,-1162.5"/>
<text text-anchor="start" x="262" y="-1173.9" font-family="Arial" font-size="14.00" fill="#000000">image </text>
<text text-anchor="start" x="304.0056" y="-1173.9" font-family="Arial" font-size="14.00" fill="#666666">[varchar(1000)]</text>
<polygon fill="none" stroke="#000000" points="255,-1132.5 255,-1162.5 527,-1162.5 527,-1132.5 255,-1132.5"/>
<text text-anchor="start" x="262" y="-1143.9" font-family="Arial" font-size="14.00" fill="#000000">sort_order </text>
<text text-anchor="start" x="329.676" y="-1143.9" font-family="Arial" font-size="14.00" fill="#666666">[smallint(6) unsigned]</text>
<polygon fill="none" stroke="#000000" points="255,-1102.5 255,-1132.5 527,-1132.5 527,-1102.5 255,-1102.5"/>
<text text-anchor="start" x="262" y="-1113.9" font-family="Arial" font-size="14.00" fill="#000000">image_data </text>
<text text-anchor="start" x="339.0266" y="-1113.9" font-family="Arial" font-size="14.00" fill="#666666">[longtext]</text>
<polygon fill="none" stroke="#000000" stroke-width="3" points="253.5,-1101.5 253.5,-1289.5 528.5,-1289.5 528.5,-1101.5 253.5,-1101.5"/>
</g>
<!-- sk_users -->
<g id="node2" class="node">
<title>sk_users</title>
<polygon fill="#efefef" stroke="transparent" points="240,-942.5 240,-977.5 541,-977.5 541,-942.5 240,-942.5"/>
<polygon fill="none" stroke="#000000" points="240,-942.5 240,-977.5 541,-977.5 541,-942.5 240,-942.5"/>
<text text-anchor="start" x="290.7106" y="-955.3" font-family="Arial Bold" font-size="18.00" fill="#000000">sk_users</text>
<text text-anchor="start" x="362.7214" y="-955.3" font-family="Arial" font-size="14.00" fill="#000000">    </text>
<text text-anchor="start" x="396.9262" y="-955.3" font-family="Arial" font-size="14.00" fill="#666666">[BASE TABLE]</text>
<polygon fill="none" stroke="#000000" points="240,-912.5 240,-942.5 541,-942.5 541,-912.5 240,-912.5"/>
<text text-anchor="start" x="247" y="-923.9" font-family="Arial" font-size="14.00" fill="#000000">id    </text>
<text text-anchor="start" x="292.094" y="-923.9" font-family="Arial" font-size="14.00" fill="#666666">[int(11) unsigned]</text>
<polygon fill="none" stroke="#000000" points="240,-882.5 240,-912.5 541,-912.5 541,-882.5 240,-882.5"/>
<text text-anchor="start" x="247" y="-893.9" font-family="Arial" font-size="14.00" fill="#000000">is_deleted    </text>
<text text-anchor="start" x="345.0042" y="-893.9" font-family="Arial" font-size="14.00" fill="#666666">[tinyint(1)]</text>
<polygon fill="none" stroke="#000000" points="240,-852.5 240,-882.5 541,-882.5 541,-852.5 240,-852.5"/>
<text text-anchor="start" x="247" y="-863.9" font-family="Arial" font-size="14.00" fill="#000000">email    </text>
<text text-anchor="start" x="314.6438" y="-863.9" font-family="Arial" font-size="14.00" fill="#666666">[varchar(255)]</text>
<polygon fill="none" stroke="#000000" points="240,-822.5 240,-852.5 541,-852.5 541,-822.5 240,-822.5"/>
<text text-anchor="start" x="247" y="-833.9" font-family="Arial" font-size="14.00" fill="#000000">password    </text>
<text text-anchor="start" x="341.1024" y="-833.9" font-family="Arial" font-size="14.00" fill="#666666">[varchar(255)]</text>
<polygon fill="none" stroke="#000000" points="240,-792.5 240,-822.5 541,-822.5 541,-792.5 240,-792.5"/>
<text text-anchor="start" x="247" y="-803.9" font-family="Arial" font-size="14.00" fill="#000000">role    </text>
<text text-anchor="start" x="304.5372" y="-803.9" font-family="Arial" font-size="14.00" fill="#666666">[smallint(6)]</text>
<polygon fill="none" stroke="#000000" points="240,-762.5 240,-792.5 541,-792.5 541,-762.5 240,-762.5"/>
<text text-anchor="start" x="247" y="-773.9" font-family="Arial" font-size="14.00" fill="#000000">last_name    </text>
<text text-anchor="start" x="345.7756" y="-773.9" font-family="Arial" font-size="14.00" fill="#666666">[varchar(40)]</text>
<polygon fill="none" stroke="#000000" points="240,-732.5 240,-762.5 541,-762.5 541,-732.5 240,-732.5"/>
<text text-anchor="start" x="247" y="-743.9" font-family="Arial" font-size="14.00" fill="#000000">last_name_kana    </text>
<text text-anchor="start" x="383.906" y="-743.9" font-family="Arial" font-size="14.00" fill="#666666">[varchar(40)]</text>
<polygon fill="none" stroke="#000000" points="240,-702.5 240,-732.5 541,-732.5 541,-702.5 240,-702.5"/>
<text text-anchor="start" x="247" y="-713.9" font-family="Arial" font-size="14.00" fill="#000000">first_name    </text>
<text text-anchor="start" x="346.5442" y="-713.9" font-family="Arial" font-size="14.00" fill="#666666">[varchar(40)]</text>
<polygon fill="none" stroke="#000000" points="240,-672.5 240,-702.5 541,-702.5 541,-672.5 240,-672.5"/>
<text text-anchor="start" x="247" y="-683.9" font-family="Arial" font-size="14.00" fill="#000000">first_name_kana    </text>
<text text-anchor="start" x="384.6746" y="-683.9" font-family="Arial" font-size="14.00" fill="#666666">[varchar(40)]</text>
<polygon fill="none" stroke="#000000" points="240,-642.5 240,-672.5 541,-672.5 541,-642.5 240,-642.5"/>
<text text-anchor="start" x="247" y="-653.9" font-family="Arial" font-size="14.00" fill="#000000">postal    </text>
<text text-anchor="start" x="318.5498" y="-653.9" font-family="Arial" font-size="14.00" fill="#666666">[varchar(8)]</text>
<polygon fill="none" stroke="#000000" points="240,-612.5 240,-642.5 541,-642.5 541,-612.5 240,-612.5"/>
<text text-anchor="start" x="247" y="-623.9" font-family="Arial" font-size="14.00" fill="#000000">mynavi_employee_id    </text>
<text text-anchor="start" x="412.6718" y="-623.9" font-family="Arial" font-size="14.00" fill="#666666">[varchar(255)]</text>
<polygon fill="none" stroke="#000000" points="240,-582.5 240,-612.5 541,-612.5 541,-582.5 240,-582.5"/>
<text text-anchor="start" x="247" y="-593.9" font-family="Arial" font-size="14.00" fill="#000000">prefecture    </text>
<text text-anchor="start" x="344.2202" y="-593.9" font-family="Arial" font-size="14.00" fill="#666666">[varchar(20)]</text>
<polygon fill="none" stroke="#000000" points="240,-552.5 240,-582.5 541,-582.5 541,-552.5 240,-552.5"/>
<text text-anchor="start" x="247" y="-563.9" font-family="Arial" font-size="14.00" fill="#000000">address    </text>
<text text-anchor="start" x="330.9958" y="-563.9" font-family="Arial" font-size="14.00" fill="#666666">[varchar(500)]</text>
<polygon fill="none" stroke="#000000" points="240,-522.5 240,-552.5 541,-552.5 541,-522.5 240,-522.5"/>
<text text-anchor="start" x="247" y="-533.9" font-family="Arial" font-size="14.00" fill="#000000">tel    </text>
<text text-anchor="start" x="295.9846" y="-533.9" font-family="Arial" font-size="14.00" fill="#666666">[varchar(13)]</text>
<polygon fill="none" stroke="#000000" points="240,-492.5 240,-522.5 541,-522.5 541,-492.5 240,-492.5"/>
<text text-anchor="start" x="247" y="-503.9" font-family="Arial" font-size="14.00" fill="#000000">is_registerd    </text>
<text text-anchor="start" x="353.5428" y="-503.9" font-family="Arial" font-size="14.00" fill="#666666">[tinyint(1) unsigned]</text>
<polygon fill="none" stroke="#000000" points="240,-462.5 240,-492.5 541,-492.5 541,-462.5 240,-462.5"/>
<text text-anchor="start" x="247" y="-473.9" font-family="Arial" font-size="14.00" fill="#000000">register_token    </text>
<text text-anchor="start" x="369.892" y="-473.9" font-family="Arial" font-size="14.00" fill="#666666">[varchar(64)]</text>
<polygon fill="none" stroke="#000000" points="240,-432.5 240,-462.5 541,-462.5 541,-432.5 240,-432.5"/>
<text text-anchor="start" x="247" y="-443.9" font-family="Arial" font-size="14.00" fill="#000000">register_created    </text>
<text text-anchor="start" x="382.3352" y="-443.9" font-family="Arial" font-size="14.00" fill="#666666">[datetime]</text>
<polygon fill="none" stroke="#000000" points="240,-402.5 240,-432.5 541,-432.5 541,-402.5 240,-402.5"/>
<text text-anchor="start" x="247" y="-413.9" font-family="Arial" font-size="14.00" fill="#000000">registerd_redirect_url    </text>
<text text-anchor="start" x="413.4348" y="-413.9" font-family="Arial" font-size="14.00" fill="#666666">[varchar(1000)]</text>
<polygon fill="none" stroke="#000000" points="240,-372.5 240,-402.5 541,-402.5 541,-372.5 240,-372.5"/>
<text text-anchor="start" x="246.9923" y="-383.9" font-family="Arial" font-size="14.00" fill="#000000">password_remember_token    </text>
<text text-anchor="start" x="454.6711" y="-383.9" font-family="Arial" font-size="14.00" fill="#666666">[varchar(64)]</text>
<polygon fill="none" stroke="#000000" points="240,-342.5 240,-372.5 541,-372.5 541,-342.5 240,-342.5"/>
<text text-anchor="start" x="247" y="-353.9" font-family="Arial" font-size="14.00" fill="#000000">password_remember_created    </text>
<text text-anchor="start" x="467.122" y="-353.9" font-family="Arial" font-size="14.00" fill="#666666">[datetime]</text>
<polygon fill="none" stroke="#000000" points="240,-312.5 240,-342.5 541,-342.5 541,-312.5 240,-312.5"/>
<text text-anchor="start" x="247" y="-323.9" font-family="Arial" font-size="14.00" fill="#000000">update_email    </text>
<text text-anchor="start" x="365.23" y="-323.9" font-family="Arial" font-size="14.00" fill="#666666">[varchar(255)]</text>
<polygon fill="none" stroke="#000000" points="240,-282.5 240,-312.5 541,-312.5 541,-282.5 240,-282.5"/>
<text text-anchor="start" x="247" y="-293.9" font-family="Arial" font-size="14.00" fill="#000000">update_email_token    </text>
<text text-anchor="start" x="407.251" y="-293.9" font-family="Arial" font-size="14.00" fill="#666666">[varchar(64)]</text>
<polygon fill="none" stroke="#000000" points="240,-252.5 240,-282.5 541,-282.5 541,-252.5 240,-252.5"/>
<text text-anchor="start" x="247" y="-263.9" font-family="Arial" font-size="14.00" fill="#000000">update_email_created    </text>
<text text-anchor="start" x="419.6942" y="-263.9" font-family="Arial" font-size="14.00" fill="#666666">[datetime]</text>
<polygon fill="none" stroke="#000000" points="240,-222.5 240,-252.5 541,-252.5 541,-222.5 240,-222.5"/>
<text text-anchor="start" x="247" y="-233.9" font-family="Arial" font-size="14.00" fill="#000000">user_image_id    </text>
<text text-anchor="start" x="373" y="-233.9" font-family="Arial" font-size="14.00" fill="#666666">[bigint(21) unsigned]</text>
<polygon fill="none" stroke="#000000" points="240,-192.5 240,-222.5 541,-222.5 541,-192.5 240,-192.5"/>
<text text-anchor="start" x="247" y="-203.9" font-family="Arial" font-size="14.00" fill="#000000">birthday    </text>
<text text-anchor="start" x="330.993" y="-203.9" font-family="Arial" font-size="14.00" fill="#666666">[date]</text>
<polygon fill="none" stroke="#000000" points="240,-162.5 240,-192.5 541,-192.5 541,-162.5 240,-162.5"/>
<text text-anchor="start" x="247" y="-173.9" font-family="Arial" font-size="14.00" fill="#000000">where_to_know    </text>
<text text-anchor="start" x="379.23" y="-173.9" font-family="Arial" font-size="14.00" fill="#666666">[smallint(6)]</text>
<polygon fill="none" stroke="#000000" points="240,-132.5 240,-162.5 541,-162.5 541,-132.5 240,-132.5"/>
<text text-anchor="start" x="247" y="-143.9" font-family="Arial" font-size="14.00" fill="#000000">apply_lessor_parent_ids    </text>
<text text-anchor="start" x="432.9102" y="-143.9" font-family="Arial" font-size="14.00" fill="#666666">[varchar(100)]</text>
<polygon fill="none" stroke="#000000" points="240,-102.5 240,-132.5 541,-132.5 541,-102.5 240,-102.5"/>
<text text-anchor="start" x="247" y="-113.9" font-family="Arial" font-size="14.00" fill="#000000">check_terms_date    </text>
<text text-anchor="start" x="395.568" y="-113.9" font-family="Arial" font-size="14.00" fill="#666666">[datetime]</text>
<polygon fill="none" stroke="#000000" points="240,-72.5 240,-102.5 541,-102.5 541,-72.5 240,-72.5"/>
<text text-anchor="start" x="247" y="-83.9" font-family="Arial" font-size="14.00" fill="#000000">created    </text>
<text text-anchor="start" x="327.8864" y="-83.9" font-family="Arial" font-size="14.00" fill="#666666">[datetime]</text>
<polygon fill="none" stroke="#000000" points="240,-42.5 240,-72.5 541,-72.5 541,-42.5 240,-42.5"/>
<text text-anchor="start" x="247" y="-53.9" font-family="Arial" font-size="14.00" fill="#000000">modified    </text>
<text text-anchor="start" x="334.0996" y="-53.9" font-family="Arial" font-size="14.00" fill="#666666">[datetime]</text>
</g>
<!-- sk_user_images&#45;&gt;sk_users -->
<g id="edge1" class="edge">
<title>sk_user_images:user_id&#45;&gt;sk_users:id</title>
<path fill="none" stroke="#000000" d="M244.8182,-1206.6244C190.6523,-1196.6758 213.174,-1104.4208 255,-1057 339.7449,-960.9191 456.2551,-1117.0809 541,-1021 568.4882,-989.8349 582.5556,-927.5 541,-927.5"/>
<polygon fill="#000000" stroke="#000000" points="245.0368,-1206.6431 254.6144,-1211.9835 250.0184,-1207.0715 255,-1207.5 255,-1207.5 255,-1207.5 250.0184,-1207.0715 255.3856,-1203.0165 245.0368,-1206.6431 245.0368,-1206.6431"/>
<text text-anchor="start" x="7.1655" y="-1217.5" font-family="Arial" font-size="10.00" fill="#000000">FOREIGN KEY (user_id) REFERENCES sk_users (id)</text>
</g>
</g>
</svg>
