<?xml version="1.0" encoding="UTF-8" standalone="no"?>
<!DOCTYPE svg PUBLIC "-//W3C//DTD SVG 1.1//EN"
 "http://www.w3.org/Graphics/SVG/1.1/DTD/svg11.dtd">
<!-- Generated by graphviz version 2.40.1 (20161225.0304)
 -->
<!-- Title: sk_user_favorite_rooms Pages: 1 -->
<svg width="858pt" height="2182pt"
 viewBox="0.00 0.00 858.00 2182.00" xmlns="http://www.w3.org/2000/svg" xmlns:xlink="http://www.w3.org/1999/xlink">
<g id="graph0" class="graph" transform="scale(1 1) rotate(0) translate(4 2178)">
<title>sk_user_favorite_rooms</title>
<polygon fill="#ffffff" stroke="transparent" points="-4,4 -4,-2178 854,-2178 854,4 -4,4"/>
<!-- sk_user_favorite_rooms -->
<g id="node1" class="node">
<title>sk_user_favorite_rooms</title>
<polygon fill="#efefef" stroke="transparent" points="255,-2092.5 255,-2127.5 588,-2127.5 588,-2092.5 255,-2092.5"/>
<polygon fill="none" stroke="#000000" points="255,-2092.5 255,-2127.5 588,-2127.5 588,-2092.5 255,-2092.5"/>
<text text-anchor="start" x="261.7013" y="-2105.3" font-family="Arial Bold" font-size="18.00" fill="#000000">sk_user_favorite_rooms</text>
<text text-anchor="start" x="453.7307" y="-2105.3" font-family="Arial" font-size="14.00" fill="#000000">    </text>
<text text-anchor="start" x="487.9355" y="-2105.3" font-family="Arial" font-size="14.00" fill="#666666">[BASE TABLE]</text>
<polygon fill="none" stroke="#000000" points="255,-2062.5 255,-2092.5 588,-2092.5 588,-2062.5 255,-2062.5"/>
<text text-anchor="start" x="262" y="-2073.9" font-family="Arial" font-size="14.00" fill="#000000">id </text>
<text text-anchor="start" x="276.7798" y="-2073.9" font-family="Arial" font-size="14.00" fill="#666666">[int(11)]</text>
<polygon fill="none" stroke="#000000" points="255,-2032.5 255,-2062.5 588,-2062.5 588,-2032.5 255,-2032.5"/>
<text text-anchor="start" x="262" y="-2043.9" font-family="Arial" font-size="14.00" fill="#000000">user_id </text>
<text text-anchor="start" x="311.7882" y="-2043.9" font-family="Arial" font-size="14.00" fill="#666666">[int(11) unsigned]</text>
<polygon fill="none" stroke="#000000" points="255,-2002.5 255,-2032.5 588,-2032.5 588,-2002.5 255,-2002.5"/>
<text text-anchor="start" x="262" y="-2013.9" font-family="Arial" font-size="14.00" fill="#000000">room_id </text>
<text text-anchor="start" x="316.4488" y="-2013.9" font-family="Arial" font-size="14.00" fill="#666666">[int(11) unsigned]</text>
<polygon fill="none" stroke="#000000" points="255,-1972.5 255,-2002.5 588,-2002.5 588,-1972.5 255,-1972.5"/>
<text text-anchor="start" x="262" y="-1983.9" font-family="Arial" font-size="14.00" fill="#000000">created_at </text>
<text text-anchor="start" x="332.028" y="-1983.9" font-family="Arial" font-size="14.00" fill="#666666">[timestamp]</text>
<polygon fill="none" stroke="#000000" stroke-width="3" points="253,-1971.5 253,-2129.5 589,-2129.5 589,-1971.5 253,-1971.5"/>
</g>
<!-- sk_users -->
<g id="node2" class="node">
<title>sk_users</title>
<polygon fill="#efefef" stroke="transparent" points="66,-1377.5 66,-1412.5 367,-1412.5 367,-1377.5 66,-1377.5"/>
<polygon fill="none" stroke="#000000" points="66,-1377.5 66,-1412.5 367,-1412.5 367,-1377.5 66,-1377.5"/>
<text text-anchor="start" x="116.7106" y="-1390.3" font-family="Arial Bold" font-size="18.00" fill="#000000">sk_users</text>
<text text-anchor="start" x="188.7214" y="-1390.3" font-family="Arial" font-size="14.00" fill="#000000">    </text>
<text text-anchor="start" x="222.9262" y="-1390.3" font-family="Arial" font-size="14.00" fill="#666666">[BASE TABLE]</text>
<polygon fill="none" stroke="#000000" points="66,-1347.5 66,-1377.5 367,-1377.5 367,-1347.5 66,-1347.5"/>
<text text-anchor="start" x="73" y="-1358.9" font-family="Arial" font-size="14.00" fill="#000000">id    </text>
<text text-anchor="start" x="118.094" y="-1358.9" font-family="Arial" font-size="14.00" fill="#666666">[int(11) unsigned]</text>
<polygon fill="none" stroke="#000000" points="66,-1317.5 66,-1347.5 367,-1347.5 367,-1317.5 66,-1317.5"/>
<text text-anchor="start" x="73" y="-1328.9" font-family="Arial" font-size="14.00" fill="#000000">is_deleted    </text>
<text text-anchor="start" x="171.0042" y="-1328.9" font-family="Arial" font-size="14.00" fill="#666666">[tinyint(1)]</text>
<polygon fill="none" stroke="#000000" points="66,-1287.5 66,-1317.5 367,-1317.5 367,-1287.5 66,-1287.5"/>
<text text-anchor="start" x="73" y="-1298.9" font-family="Arial" font-size="14.00" fill="#000000">email    </text>
<text text-anchor="start" x="140.6438" y="-1298.9" font-family="Arial" font-size="14.00" fill="#666666">[varchar(255)]</text>
<polygon fill="none" stroke="#000000" points="66,-1257.5 66,-1287.5 367,-1287.5 367,-1257.5 66,-1257.5"/>
<text text-anchor="start" x="73" y="-1268.9" font-family="Arial" font-size="14.00" fill="#000000">password    </text>
<text text-anchor="start" x="167.1024" y="-1268.9" font-family="Arial" font-size="14.00" fill="#666666">[varchar(255)]</text>
<polygon fill="none" stroke="#000000" points="66,-1227.5 66,-1257.5 367,-1257.5 367,-1227.5 66,-1227.5"/>
<text text-anchor="start" x="73" y="-1238.9" font-family="Arial" font-size="14.00" fill="#000000">role    </text>
<text text-anchor="start" x="130.5372" y="-1238.9" font-family="Arial" font-size="14.00" fill="#666666">[smallint(6)]</text>
<polygon fill="none" stroke="#000000" points="66,-1197.5 66,-1227.5 367,-1227.5 367,-1197.5 66,-1197.5"/>
<text text-anchor="start" x="73" y="-1208.9" font-family="Arial" font-size="14.00" fill="#000000">last_name    </text>
<text text-anchor="start" x="171.7756" y="-1208.9" font-family="Arial" font-size="14.00" fill="#666666">[varchar(40)]</text>
<polygon fill="none" stroke="#000000" points="66,-1167.5 66,-1197.5 367,-1197.5 367,-1167.5 66,-1167.5"/>
<text text-anchor="start" x="73" y="-1178.9" font-family="Arial" font-size="14.00" fill="#000000">last_name_kana    </text>
<text text-anchor="start" x="209.906" y="-1178.9" font-family="Arial" font-size="14.00" fill="#666666">[varchar(40)]</text>
<polygon fill="none" stroke="#000000" points="66,-1137.5 66,-1167.5 367,-1167.5 367,-1137.5 66,-1137.5"/>
<text text-anchor="start" x="73" y="-1148.9" font-family="Arial" font-size="14.00" fill="#000000">first_name    </text>
<text text-anchor="start" x="172.5442" y="-1148.9" font-family="Arial" font-size="14.00" fill="#666666">[varchar(40)]</text>
<polygon fill="none" stroke="#000000" points="66,-1107.5 66,-1137.5 367,-1137.5 367,-1107.5 66,-1107.5"/>
<text text-anchor="start" x="73" y="-1118.9" font-family="Arial" font-size="14.00" fill="#000000">first_name_kana    </text>
<text text-anchor="start" x="210.6746" y="-1118.9" font-family="Arial" font-size="14.00" fill="#666666">[varchar(40)]</text>
<polygon fill="none" stroke="#000000" points="66,-1077.5 66,-1107.5 367,-1107.5 367,-1077.5 66,-1077.5"/>
<text text-anchor="start" x="73" y="-1088.9" font-family="Arial" font-size="14.00" fill="#000000">postal    </text>
<text text-anchor="start" x="144.5498" y="-1088.9" font-family="Arial" font-size="14.00" fill="#666666">[varchar(8)]</text>
<polygon fill="none" stroke="#000000" points="66,-1047.5 66,-1077.5 367,-1077.5 367,-1047.5 66,-1047.5"/>
<text text-anchor="start" x="73" y="-1058.9" font-family="Arial" font-size="14.00" fill="#000000">mynavi_employee_id    </text>
<text text-anchor="start" x="238.6718" y="-1058.9" font-family="Arial" font-size="14.00" fill="#666666">[varchar(255)]</text>
<polygon fill="none" stroke="#000000" points="66,-1017.5 66,-1047.5 367,-1047.5 367,-1017.5 66,-1017.5"/>
<text text-anchor="start" x="73" y="-1028.9" font-family="Arial" font-size="14.00" fill="#000000">prefecture    </text>
<text text-anchor="start" x="170.2202" y="-1028.9" font-family="Arial" font-size="14.00" fill="#666666">[varchar(20)]</text>
<polygon fill="none" stroke="#000000" points="66,-987.5 66,-1017.5 367,-1017.5 367,-987.5 66,-987.5"/>
<text text-anchor="start" x="73" y="-998.9" font-family="Arial" font-size="14.00" fill="#000000">address    </text>
<text text-anchor="start" x="156.9958" y="-998.9" font-family="Arial" font-size="14.00" fill="#666666">[varchar(500)]</text>
<polygon fill="none" stroke="#000000" points="66,-957.5 66,-987.5 367,-987.5 367,-957.5 66,-957.5"/>
<text text-anchor="start" x="73" y="-968.9" font-family="Arial" font-size="14.00" fill="#000000">tel    </text>
<text text-anchor="start" x="121.9846" y="-968.9" font-family="Arial" font-size="14.00" fill="#666666">[varchar(13)]</text>
<polygon fill="none" stroke="#000000" points="66,-927.5 66,-957.5 367,-957.5 367,-927.5 66,-927.5"/>
<text text-anchor="start" x="73" y="-938.9" font-family="Arial" font-size="14.00" fill="#000000">is_registerd    </text>
<text text-anchor="start" x="179.5428" y="-938.9" font-family="Arial" font-size="14.00" fill="#666666">[tinyint(1) unsigned]</text>
<polygon fill="none" stroke="#000000" points="66,-897.5 66,-927.5 367,-927.5 367,-897.5 66,-897.5"/>
<text text-anchor="start" x="73" y="-908.9" font-family="Arial" font-size="14.00" fill="#000000">register_token    </text>
<text text-anchor="start" x="195.892" y="-908.9" font-family="Arial" font-size="14.00" fill="#666666">[varchar(64)]</text>
<polygon fill="none" stroke="#000000" points="66,-867.5 66,-897.5 367,-897.5 367,-867.5 66,-867.5"/>
<text text-anchor="start" x="73" y="-878.9" font-family="Arial" font-size="14.00" fill="#000000">register_created    </text>
<text text-anchor="start" x="208.3352" y="-878.9" font-family="Arial" font-size="14.00" fill="#666666">[datetime]</text>
<polygon fill="none" stroke="#000000" points="66,-837.5 66,-867.5 367,-867.5 367,-837.5 66,-837.5"/>
<text text-anchor="start" x="73" y="-848.9" font-family="Arial" font-size="14.00" fill="#000000">registerd_redirect_url    </text>
<text text-anchor="start" x="239.4348" y="-848.9" font-family="Arial" font-size="14.00" fill="#666666">[varchar(1000)]</text>
<polygon fill="none" stroke="#000000" points="66,-807.5 66,-837.5 367,-837.5 367,-807.5 66,-807.5"/>
<text text-anchor="start" x="72.9923" y="-818.9" font-family="Arial" font-size="14.00" fill="#000000">password_remember_token    </text>
<text text-anchor="start" x="280.6711" y="-818.9" font-family="Arial" font-size="14.00" fill="#666666">[varchar(64)]</text>
<polygon fill="none" stroke="#000000" points="66,-777.5 66,-807.5 367,-807.5 367,-777.5 66,-777.5"/>
<text text-anchor="start" x="73" y="-788.9" font-family="Arial" font-size="14.00" fill="#000000">password_remember_created    </text>
<text text-anchor="start" x="293.122" y="-788.9" font-family="Arial" font-size="14.00" fill="#666666">[datetime]</text>
<polygon fill="none" stroke="#000000" points="66,-747.5 66,-777.5 367,-777.5 367,-747.5 66,-747.5"/>
<text text-anchor="start" x="73" y="-758.9" font-family="Arial" font-size="14.00" fill="#000000">update_email    </text>
<text text-anchor="start" x="191.23" y="-758.9" font-family="Arial" font-size="14.00" fill="#666666">[varchar(255)]</text>
<polygon fill="none" stroke="#000000" points="66,-717.5 66,-747.5 367,-747.5 367,-717.5 66,-717.5"/>
<text text-anchor="start" x="73" y="-728.9" font-family="Arial" font-size="14.00" fill="#000000">update_email_token    </text>
<text text-anchor="start" x="233.251" y="-728.9" font-family="Arial" font-size="14.00" fill="#666666">[varchar(64)]</text>
<polygon fill="none" stroke="#000000" points="66,-687.5 66,-717.5 367,-717.5 367,-687.5 66,-687.5"/>
<text text-anchor="start" x="73" y="-698.9" font-family="Arial" font-size="14.00" fill="#000000">update_email_created    </text>
<text text-anchor="start" x="245.6942" y="-698.9" font-family="Arial" font-size="14.00" fill="#666666">[datetime]</text>
<polygon fill="none" stroke="#000000" points="66,-657.5 66,-687.5 367,-687.5 367,-657.5 66,-657.5"/>
<text text-anchor="start" x="73" y="-668.9" font-family="Arial" font-size="14.00" fill="#000000">user_image_id    </text>
<text text-anchor="start" x="199" y="-668.9" font-family="Arial" font-size="14.00" fill="#666666">[bigint(21) unsigned]</text>
<polygon fill="none" stroke="#000000" points="66,-627.5 66,-657.5 367,-657.5 367,-627.5 66,-627.5"/>
<text text-anchor="start" x="73" y="-638.9" font-family="Arial" font-size="14.00" fill="#000000">birthday    </text>
<text text-anchor="start" x="156.993" y="-638.9" font-family="Arial" font-size="14.00" fill="#666666">[date]</text>
<polygon fill="none" stroke="#000000" points="66,-597.5 66,-627.5 367,-627.5 367,-597.5 66,-597.5"/>
<text text-anchor="start" x="73" y="-608.9" font-family="Arial" font-size="14.00" fill="#000000">where_to_know    </text>
<text text-anchor="start" x="205.23" y="-608.9" font-family="Arial" font-size="14.00" fill="#666666">[smallint(6)]</text>
<polygon fill="none" stroke="#000000" points="66,-567.5 66,-597.5 367,-597.5 367,-567.5 66,-567.5"/>
<text text-anchor="start" x="73" y="-578.9" font-family="Arial" font-size="14.00" fill="#000000">apply_lessor_parent_ids    </text>
<text text-anchor="start" x="258.9102" y="-578.9" font-family="Arial" font-size="14.00" fill="#666666">[varchar(100)]</text>
<polygon fill="none" stroke="#000000" points="66,-537.5 66,-567.5 367,-567.5 367,-537.5 66,-537.5"/>
<text text-anchor="start" x="73" y="-548.9" font-family="Arial" font-size="14.00" fill="#000000">check_terms_date    </text>
<text text-anchor="start" x="221.568" y="-548.9" font-family="Arial" font-size="14.00" fill="#666666">[datetime]</text>
<polygon fill="none" stroke="#000000" points="66,-507.5 66,-537.5 367,-537.5 367,-507.5 66,-507.5"/>
<text text-anchor="start" x="73" y="-518.9" font-family="Arial" font-size="14.00" fill="#000000">created    </text>
<text text-anchor="start" x="153.8864" y="-518.9" font-family="Arial" font-size="14.00" fill="#666666">[datetime]</text>
<polygon fill="none" stroke="#000000" points="66,-477.5 66,-507.5 367,-507.5 367,-477.5 66,-477.5"/>
<text text-anchor="start" x="73" y="-488.9" font-family="Arial" font-size="14.00" fill="#000000">modified    </text>
<text text-anchor="start" x="160.0996" y="-488.9" font-family="Arial" font-size="14.00" fill="#666666">[datetime]</text>
</g>
<!-- sk_user_favorite_rooms&#45;&gt;sk_users -->
<g id="edge1" class="edge">
<title>sk_user_favorite_rooms:user_id&#45;&gt;sk_users:id</title>
<path fill="none" stroke="#000000" d="M244.7138,-2046.2951C120.9455,-2014.461 517.4778,-1362.5 367,-1362.5"/>
<polygon fill="#000000" stroke="#000000" points="245.0679,-2046.3365 254.4764,-2051.9694 250.034,-2046.9182 255,-2047.5 255,-2047.5 255,-2047.5 250.034,-2046.9182 255.5236,-2043.0306 245.0679,-2046.3365 245.0679,-2046.3365"/>
<text text-anchor="start" x="7.1655" y="-2057.5" font-family="Arial" font-size="10.00" fill="#000000">FOREIGN KEY (user_id) REFERENCES sk_users (id)</text>
</g>
<!-- sk_rooms -->
<g id="node3" class="node">
<title>sk_rooms</title>
<polygon fill="#efefef" stroke="transparent" points="471,-1812.5 471,-1847.5 783,-1847.5 783,-1812.5 471,-1812.5"/>
<polygon fill="none" stroke="#000000" points="471,-1812.5 471,-1847.5 783,-1847.5 783,-1812.5 471,-1812.5"/>
<text text-anchor="start" x="524.2145" y="-1825.3" font-family="Arial Bold" font-size="18.00" fill="#000000">sk_rooms</text>
<text text-anchor="start" x="602.2175" y="-1825.3" font-family="Arial" font-size="14.00" fill="#000000">    </text>
<text text-anchor="start" x="636.4223" y="-1825.3" font-family="Arial" font-size="14.00" fill="#666666">[BASE TABLE]</text>
<polygon fill="none" stroke="#000000" points="471,-1782.5 471,-1812.5 783,-1812.5 783,-1782.5 471,-1782.5"/>
<text text-anchor="start" x="478" y="-1793.9" font-family="Arial" font-size="14.00" fill="#000000">id    </text>
<text text-anchor="start" x="523.094" y="-1793.9" font-family="Arial" font-size="14.00" fill="#666666">[int(11) unsigned]</text>
<polygon fill="none" stroke="#000000" points="471,-1752.5 471,-1782.5 783,-1782.5 783,-1752.5 471,-1752.5"/>
<text text-anchor="start" x="478" y="-1763.9" font-family="Arial" font-size="14.00" fill="#000000">is_deleted    </text>
<text text-anchor="start" x="576.0042" y="-1763.9" font-family="Arial" font-size="14.00" fill="#666666">[tinyint(1)]</text>
<polygon fill="none" stroke="#000000" points="471,-1722.5 471,-1752.5 783,-1752.5 783,-1722.5 471,-1722.5"/>
<text text-anchor="start" x="478" y="-1733.9" font-family="Arial" font-size="14.00" fill="#000000">is_public    </text>
<text text-anchor="start" x="566.655" y="-1733.9" font-family="Arial" font-size="14.00" fill="#666666">[tinyint(1)]</text>
<polygon fill="none" stroke="#000000" points="471,-1692.5 471,-1722.5 783,-1722.5 783,-1692.5 471,-1692.5"/>
<text text-anchor="start" x="478" y="-1703.9" font-family="Arial" font-size="14.00" fill="#000000">is_set    </text>
<text text-anchor="start" x="548.7672" y="-1703.9" font-family="Arial" font-size="14.00" fill="#666666">[tinyint(1)]</text>
<polygon fill="none" stroke="#000000" points="471,-1662.5 471,-1692.5 783,-1692.5 783,-1662.5 471,-1662.5"/>
<text text-anchor="start" x="478" y="-1673.9" font-family="Arial" font-size="14.00" fill="#000000">property_id    </text>
<text text-anchor="start" x="582.2188" y="-1673.9" font-family="Arial" font-size="14.00" fill="#666666">[int(11) unsigned]</text>
<polygon fill="none" stroke="#000000" points="471,-1632.5 471,-1662.5 783,-1662.5 783,-1632.5 471,-1632.5"/>
<text text-anchor="start" x="478" y="-1643.9" font-family="Arial" font-size="14.00" fill="#000000">lessor_id    </text>
<text text-anchor="start" x="568.209" y="-1643.9" font-family="Arial" font-size="14.00" fill="#666666">[int(11) unsigned]</text>
<polygon fill="none" stroke="#000000" points="471,-1602.5 471,-1632.5 783,-1632.5 783,-1602.5 471,-1602.5"/>
<text text-anchor="start" x="478" y="-1613.9" font-family="Arial" font-size="14.00" fill="#000000">name    </text>
<text text-anchor="start" x="547.2132" y="-1613.9" font-family="Arial" font-size="14.00" fill="#666666">[varchar(200)]</text>
<polygon fill="none" stroke="#000000" points="471,-1572.5 471,-1602.5 783,-1602.5 783,-1572.5 471,-1572.5"/>
<text text-anchor="start" x="478" y="-1583.9" font-family="Arial" font-size="14.00" fill="#000000">voice_name    </text>
<text text-anchor="start" x="587.6676" y="-1583.9" font-family="Arial" font-size="14.00" fill="#666666">[varchar(200)]</text>
<polygon fill="none" stroke="#000000" points="471,-1542.5 471,-1572.5 783,-1572.5 783,-1542.5 471,-1542.5"/>
<text text-anchor="start" x="478" y="-1553.9" font-family="Arial" font-size="14.00" fill="#000000">description_url    </text>
<text text-anchor="start" x="603.2146" y="-1553.9" font-family="Arial" font-size="14.00" fill="#666666">[varchar(1000)]</text>
<polygon fill="none" stroke="#000000" points="471,-1512.5 471,-1542.5 783,-1542.5 783,-1512.5 471,-1512.5"/>
<text text-anchor="start" x="478" y="-1523.9" font-family="Arial" font-size="14.00" fill="#000000">exclusive_area    </text>
<text text-anchor="start" x="605.5568" y="-1523.9" font-family="Arial" font-size="14.00" fill="#666666">[decimal(10,2)]</text>
<polygon fill="none" stroke="#000000" points="471,-1482.5 471,-1512.5 783,-1512.5 783,-1482.5 471,-1482.5"/>
<text text-anchor="start" x="478" y="-1493.9" font-family="Arial" font-size="14.00" fill="#000000">ceiling_height    </text>
<text text-anchor="start" x="597.7826" y="-1493.9" font-family="Arial" font-size="14.00" fill="#666666">[decimal(10,2)]</text>
<polygon fill="none" stroke="#000000" points="471,-1452.5 471,-1482.5 783,-1482.5 783,-1452.5 471,-1452.5"/>
<text text-anchor="start" x="478" y="-1463.9" font-family="Arial" font-size="14.00" fill="#000000">floor    </text>
<text text-anchor="start" x="539.4278" y="-1463.9" font-family="Arial" font-size="14.00" fill="#666666">[smallint(5)]</text>
<polygon fill="none" stroke="#000000" points="471,-1422.5 471,-1452.5 783,-1452.5 783,-1422.5 471,-1422.5"/>
<text text-anchor="start" x="478" y="-1433.9" font-family="Arial" font-size="14.00" fill="#000000">minimum_time    </text>
<text text-anchor="start" x="603.188" y="-1433.9" font-family="Arial" font-size="14.00" fill="#666666">[time]</text>
<polygon fill="none" stroke="#000000" points="471,-1392.5 471,-1422.5 783,-1422.5 783,-1392.5 471,-1392.5"/>
<text text-anchor="start" x="478" y="-1403.9" font-family="Arial" font-size="14.00" fill="#000000">maximum_time    </text>
<text text-anchor="start" x="607.0814" y="-1403.9" font-family="Arial" font-size="14.00" fill="#666666">[time]</text>
<polygon fill="none" stroke="#000000" points="471,-1362.5 471,-1392.5 783,-1392.5 783,-1362.5 471,-1362.5"/>
<text text-anchor="start" x="478" y="-1373.9" font-family="Arial" font-size="14.00" fill="#000000">start_date    </text>
<text text-anchor="start" x="574.4502" y="-1373.9" font-family="Arial" font-size="14.00" fill="#666666">[date]</text>
<polygon fill="none" stroke="#000000" points="471,-1332.5 471,-1362.5 783,-1362.5 783,-1332.5 471,-1332.5"/>
<text text-anchor="start" x="478" y="-1343.9" font-family="Arial" font-size="14.00" fill="#000000">end_date    </text>
<text text-anchor="start" x="570.5736" y="-1343.9" font-family="Arial" font-size="14.00" fill="#666666">[date]</text>
<polygon fill="none" stroke="#000000" points="471,-1302.5 471,-1332.5 783,-1332.5 783,-1302.5 471,-1302.5"/>
<text text-anchor="start" x="478" y="-1313.9" font-family="Arial" font-size="14.00" fill="#000000">is_ninjalock    </text>
<text text-anchor="start" x="584.5442" y="-1313.9" font-family="Arial" font-size="14.00" fill="#666666">[tinyint(1)]</text>
<polygon fill="none" stroke="#000000" points="471,-1272.5 471,-1302.5 783,-1302.5 783,-1272.5 471,-1272.5"/>
<text text-anchor="start" x="478" y="-1283.9" font-family="Arial" font-size="14.00" fill="#000000">is_display_entrance_note    </text>
<text text-anchor="start" x="670.9228" y="-1283.9" font-family="Arial" font-size="14.00" fill="#666666">[tinyint(1)]</text>
<polygon fill="none" stroke="#000000" points="471,-1242.5 471,-1272.5 783,-1272.5 783,-1242.5 471,-1242.5"/>
<text text-anchor="start" x="477.6487" y="-1253.9" font-family="Arial" font-size="14.00" fill="#000000">is_using_custom_business_hour    </text>
<text text-anchor="start" x="714.9067" y="-1253.9" font-family="Arial" font-size="14.00" fill="#666666">[tinyint(1)]</text>
<polygon fill="none" stroke="#000000" points="471,-1212.5 471,-1242.5 783,-1242.5 783,-1212.5 471,-1212.5"/>
<text text-anchor="start" x="478" y="-1223.9" font-family="Arial" font-size="14.00" fill="#000000">has_local_area_network    </text>
<text text-anchor="start" x="663.9102" y="-1223.9" font-family="Arial" font-size="14.00" fill="#666666">[tinyint(1)]</text>
<polygon fill="none" stroke="#000000" points="471,-1182.5 471,-1212.5 783,-1212.5 783,-1182.5 471,-1182.5"/>
<text text-anchor="start" x="478" y="-1193.9" font-family="Arial" font-size="14.00" fill="#000000">basic_price    </text>
<text text-anchor="start" x="582.9916" y="-1193.9" font-family="Arial" font-size="14.00" fill="#666666">[int(11) unsigned]</text>
<polygon fill="none" stroke="#000000" points="471,-1152.5 471,-1182.5 783,-1182.5 783,-1152.5 471,-1152.5"/>
<text text-anchor="start" x="478" y="-1163.9" font-family="Arial" font-size="14.00" fill="#000000">extend_price    </text>
<text text-anchor="start" x="592.3408" y="-1163.9" font-family="Arial" font-size="14.00" fill="#666666">[int(11)]</text>
<polygon fill="none" stroke="#000000" points="471,-1122.5 471,-1152.5 783,-1152.5 783,-1122.5 471,-1122.5"/>
<text text-anchor="start" x="478" y="-1133.9" font-family="Arial" font-size="14.00" fill="#000000">max_price    </text>
<text text-anchor="start" x="576.763" y="-1133.9" font-family="Arial" font-size="14.00" fill="#666666">[int(11)]</text>
<polygon fill="none" stroke="#000000" points="471,-1092.5 471,-1122.5 783,-1122.5 783,-1092.5 471,-1092.5"/>
<text text-anchor="start" x="478" y="-1103.9" font-family="Arial" font-size="14.00" fill="#000000">memo    </text>
<text text-anchor="start" x="551.0912" y="-1103.9" font-family="Arial" font-size="14.00" fill="#666666">[varchar(2000)]</text>
<polygon fill="none" stroke="#000000" points="471,-1062.5 471,-1092.5 783,-1092.5 783,-1062.5 471,-1062.5"/>
<text text-anchor="start" x="478" y="-1073.9" font-family="Arial" font-size="14.00" fill="#000000">floor_position    </text>
<text text-anchor="start" x="595.4446" y="-1073.9" font-family="Arial" font-size="14.00" fill="#666666">[smallint(5)]</text>
<polygon fill="none" stroke="#000000" points="471,-1032.5 471,-1062.5 783,-1062.5 783,-1032.5 471,-1032.5"/>
<text text-anchor="start" x="478" y="-1043.9" font-family="Arial" font-size="14.00" fill="#000000">is_tablet_linked    </text>
<text text-anchor="start" x="608.6732" y="-1043.9" font-family="Arial" font-size="14.00" fill="#666666">[int(11)]</text>
<polygon fill="none" stroke="#000000" points="471,-1002.5 471,-1032.5 783,-1032.5 783,-1002.5 471,-1002.5"/>
<text text-anchor="start" x="478" y="-1013.9" font-family="Arial" font-size="14.00" fill="#000000">batch_mail    </text>
<text text-anchor="start" x="579.8822" y="-1013.9" font-family="Arial" font-size="14.00" fill="#666666">[int(11)]</text>
<polygon fill="none" stroke="#000000" points="471,-972.5 471,-1002.5 783,-1002.5 783,-972.5 471,-972.5"/>
<text text-anchor="start" x="478" y="-983.9" font-family="Arial" font-size="14.00" fill="#000000">batch_mail_owner    </text>
<text text-anchor="start" x="625.7798" y="-983.9" font-family="Arial" font-size="14.00" fill="#666666">[int(11)]</text>
<polygon fill="none" stroke="#000000" points="471,-942.5 471,-972.5 783,-972.5 783,-942.5 471,-942.5"/>
<text text-anchor="start" x="478" y="-953.9" font-family="Arial" font-size="14.00" fill="#000000">guide_text    </text>
<text text-anchor="start" x="576.7882" y="-953.9" font-family="Arial" font-size="14.00" fill="#666666">[text]</text>
<polygon fill="none" stroke="#000000" points="471,-912.5 471,-942.5 783,-942.5 783,-912.5 471,-912.5"/>
<text text-anchor="start" x="478" y="-923.9" font-family="Arial" font-size="14.00" fill="#000000">eating_text    </text>
<text text-anchor="start" x="580.6788" y="-923.9" font-family="Arial" font-size="14.00" fill="#666666">[varchar(1000)]</text>
<polygon fill="none" stroke="#000000" points="471,-882.5 471,-912.5 783,-912.5 783,-882.5 471,-882.5"/>
<text text-anchor="start" x="478" y="-893.9" font-family="Arial" font-size="14.00" fill="#000000">cleanup_text    </text>
<text text-anchor="start" x="591.5708" y="-893.9" font-family="Arial" font-size="14.00" fill="#666666">[varchar(1000)]</text>
<polygon fill="none" stroke="#000000" points="471,-852.5 471,-882.5 783,-882.5 783,-852.5 471,-852.5"/>
<text text-anchor="start" x="478" y="-863.9" font-family="Arial" font-size="14.00" fill="#000000">facility_text    </text>
<text text-anchor="start" x="581.4348" y="-863.9" font-family="Arial" font-size="14.00" fill="#666666">[varchar(1000)]</text>
<polygon fill="none" stroke="#000000" points="471,-822.5 471,-852.5 783,-852.5 783,-822.5 471,-822.5"/>
<text text-anchor="start" x="478" y="-833.9" font-family="Arial" font-size="14.00" fill="#000000">change_layout    </text>
<text text-anchor="start" x="603.2454" y="-833.9" font-family="Arial" font-size="14.00" fill="#666666">[smallint(2)]</text>
<polygon fill="none" stroke="#000000" points="471,-792.5 471,-822.5 783,-822.5 783,-792.5 471,-792.5"/>
<text text-anchor="start" x="478" y="-803.9" font-family="Arial" font-size="14.00" fill="#000000">reservation_unit_an_hour    </text>
<text text-anchor="start" x="670.92" y="-803.9" font-family="Arial" font-size="14.00" fill="#666666">[tinyint(1)]</text>
<polygon fill="none" stroke="#000000" points="471,-762.5 471,-792.5 783,-792.5 783,-762.5 471,-762.5"/>
<text text-anchor="start" x="478" y="-773.9" font-family="Arial" font-size="14.00" fill="#000000">payment_period    </text>
<text text-anchor="start" x="612.5666" y="-773.9" font-family="Arial" font-size="14.00" fill="#666666">[int(11)]</text>
<polygon fill="none" stroke="#000000" points="471,-732.5 471,-762.5 783,-762.5 783,-732.5 471,-732.5"/>
<text text-anchor="start" x="478" y="-743.9" font-family="Arial" font-size="14.00" fill="#000000">sort_order    </text>
<text text-anchor="start" x="575.9902" y="-743.9" font-family="Arial" font-size="14.00" fill="#666666">[int(11)]</text>
<polygon fill="none" stroke="#000000" points="471,-702.5 471,-732.5 783,-732.5 783,-702.5 471,-702.5"/>
<text text-anchor="start" x="478" y="-713.9" font-family="Arial" font-size="14.00" fill="#000000">allow_tentative    </text>
<text text-anchor="start" x="604.7812" y="-713.9" font-family="Arial" font-size="14.00" fill="#666666">[tinyint(1)]</text>
<polygon fill="none" stroke="#000000" points="471,-672.5 471,-702.5 783,-702.5 783,-672.5 471,-672.5"/>
<text text-anchor="start" x="478" y="-683.9" font-family="Arial" font-size="14.00" fill="#000000">allow_change_reserved    </text>
<text text-anchor="start" x="660.0196" y="-683.9" font-family="Arial" font-size="14.00" fill="#666666">[tinyint(1)]</text>
<polygon fill="none" stroke="#000000" points="471,-642.5 471,-672.5 783,-672.5 783,-642.5 471,-642.5"/>
<text text-anchor="start" x="478" y="-653.9" font-family="Arial" font-size="14.00" fill="#000000">allow_extend_reservation    </text>
<text text-anchor="start" x="670.9074" y="-653.9" font-family="Arial" font-size="14.00" fill="#666666">[tinyint(1)]</text>
<polygon fill="none" stroke="#000000" points="471,-612.5 471,-642.5 783,-642.5 783,-612.5 471,-612.5"/>
<text text-anchor="start" x="478" y="-623.9" font-family="Arial" font-size="14.00" fill="#000000">change_reserved_limit_date    </text>
<text text-anchor="start" x="688.0266" y="-623.9" font-family="Arial" font-size="14.00" fill="#666666">[int(11)]</text>
<polygon fill="none" stroke="#000000" points="471,-582.5 471,-612.5 783,-612.5 783,-582.5 471,-582.5"/>
<text text-anchor="start" x="478" y="-593.9" font-family="Arial" font-size="14.00" fill="#000000">tentative_period    </text>
<text text-anchor="start" x="611.7938" y="-593.9" font-family="Arial" font-size="14.00" fill="#666666">[int(11)]</text>
<polygon fill="none" stroke="#000000" points="471,-552.5 471,-582.5 783,-582.5 783,-552.5 471,-552.5"/>
<text text-anchor="start" x="478" y="-563.9" font-family="Arial" font-size="14.00" fill="#000000">tentative_limit_date    </text>
<text text-anchor="start" x="632.7882" y="-563.9" font-family="Arial" font-size="14.00" fill="#666666">[int(11)]</text>
<polygon fill="none" stroke="#000000" points="471,-522.5 471,-552.5 783,-552.5 783,-522.5 471,-522.5"/>
<text text-anchor="start" x="478" y="-533.9" font-family="Arial" font-size="14.00" fill="#000000">include_tax    </text>
<text text-anchor="start" x="583.0042" y="-533.9" font-family="Arial" font-size="14.00" fill="#666666">[tinyint(1)]</text>
<polygon fill="none" stroke="#000000" points="471,-492.5 471,-522.5 783,-522.5 783,-492.5 471,-492.5"/>
<text text-anchor="start" x="478" y="-503.9" font-family="Arial" font-size="14.00" fill="#000000">ninjalock_serial    </text>
<text text-anchor="start" x="607.8766" y="-503.9" font-family="Arial" font-size="14.00" fill="#666666">[varchar(24)]</text>
<polygon fill="none" stroke="#000000" points="471,-462.5 471,-492.5 783,-492.5 783,-462.5 471,-462.5"/>
<text text-anchor="start" x="478" y="-473.9" font-family="Arial" font-size="14.00" fill="#000000">created_datetime    </text>
<text text-anchor="start" x="620.3478" y="-473.9" font-family="Arial" font-size="14.00" fill="#666666">[timestamp]</text>
<polygon fill="none" stroke="#000000" points="471,-432.5 471,-462.5 783,-462.5 783,-432.5 471,-432.5"/>
<text text-anchor="start" x="478" y="-443.9" font-family="Arial" font-size="14.00" fill="#000000">updated_datetime    </text>
<text text-anchor="start" x="624.2524" y="-443.9" font-family="Arial" font-size="14.00" fill="#666666">[timestamp]</text>
<polygon fill="none" stroke="#000000" points="471,-402.5 471,-432.5 783,-432.5 783,-402.5 471,-402.5"/>
<text text-anchor="start" x="478" y="-413.9" font-family="Arial" font-size="14.00" fill="#000000">start_reservable_time    </text>
<text text-anchor="start" x="646.7756" y="-413.9" font-family="Arial" font-size="14.00" fill="#666666">[smallint(3)]</text>
<polygon fill="none" stroke="#000000" points="471,-372.5 471,-402.5 783,-402.5 783,-372.5 471,-372.5"/>
<text text-anchor="start" x="478" y="-383.9" font-family="Arial" font-size="14.00" fill="#000000">end_reservable_time    </text>
<text text-anchor="start" x="642.899" y="-383.9" font-family="Arial" font-size="14.00" fill="#666666">[smallint(3)]</text>
<polygon fill="none" stroke="#000000" points="471,-342.5 471,-372.5 783,-372.5 783,-342.5 471,-342.5"/>
<text text-anchor="start" x="478" y="-353.9" font-family="Arial" font-size="14.00" fill="#000000">is_set_reservable_time    </text>
<text text-anchor="start" x="656.1136" y="-353.9" font-family="Arial" font-size="14.00" fill="#666666">[tinyint(1)]</text>
<polygon fill="none" stroke="#000000" points="471,-312.5 471,-342.5 783,-342.5 783,-312.5 471,-312.5"/>
<text text-anchor="start" x="478" y="-323.9" font-family="Arial" font-size="14.00" fill="#000000">is_buffer_time_setting_enabled    </text>
<text text-anchor="start" x="706.7096" y="-323.9" font-family="Arial" font-size="14.00" fill="#666666">[tinyint(1)]</text>
<polygon fill="none" stroke="#000000" points="471,-282.5 471,-312.5 783,-312.5 783,-282.5 471,-282.5"/>
<text text-anchor="start" x="478" y="-293.9" font-family="Arial" font-size="14.00" fill="#000000">buffer_time    </text>
<text text-anchor="start" x="582.2174" y="-293.9" font-family="Arial" font-size="14.00" fill="#666666">[time]</text>
<polygon fill="none" stroke="#000000" points="471,-252.5 471,-282.5 783,-282.5 783,-252.5 471,-252.5"/>
<text text-anchor="start" x="478" y="-263.9" font-family="Arial" font-size="14.00" fill="#000000">buffer_time_control    </text>
<text text-anchor="start" x="632.0056" y="-263.9" font-family="Arial" font-size="14.00" fill="#666666">[smallint(3)]</text>
<polygon fill="none" stroke="#000000" points="471,-222.5 471,-252.5 783,-252.5 783,-222.5 471,-222.5"/>
<text text-anchor="start" x="478" y="-233.9" font-family="Arial" font-size="14.00" fill="#000000">is_one_day_rental_enabled    </text>
<text text-anchor="start" x="684.1626" y="-233.9" font-family="Arial" font-size="14.00" fill="#666666">[tinyint(1)]</text>
<polygon fill="none" stroke="#000000" points="471,-192.5 471,-222.5 783,-222.5 783,-192.5 471,-192.5"/>
<text text-anchor="start" x="478" y="-203.9" font-family="Arial" font-size="14.00" fill="#000000">owner_buffer_time    </text>
<text text-anchor="start" x="628.115" y="-203.9" font-family="Arial" font-size="14.00" fill="#666666">[time]</text>
<polygon fill="none" stroke="#000000" points="471,-162.5 471,-192.5 783,-192.5 783,-162.5 471,-162.5"/>
<text text-anchor="start" x="478" y="-173.9" font-family="Arial" font-size="14.00" fill="#000000">external_buffer_time    </text>
<text text-anchor="start" x="639.7882" y="-173.9" font-family="Arial" font-size="14.00" fill="#666666">[time]</text>
<polygon fill="none" stroke="#000000" points="471,-132.5 471,-162.5 783,-162.5 783,-132.5 471,-132.5"/>
<text text-anchor="start" x="478" y="-143.9" font-family="Arial" font-size="14.00" fill="#000000">owner_buffer_time_control    </text>
<text text-anchor="start" x="677.9032" y="-143.9" font-family="Arial" font-size="14.00" fill="#666666">[smallint(3)]</text>
<polygon fill="none" stroke="#000000" points="471,-102.5 471,-132.5 783,-132.5 783,-102.5 471,-102.5"/>
<text text-anchor="start" x="478" y="-113.9" font-family="Arial" font-size="14.00" fill="#000000">external_buffer_time_control    </text>
<text text-anchor="start" x="689.5764" y="-113.9" font-family="Arial" font-size="14.00" fill="#666666">[smallint(3)]</text>
<polygon fill="none" stroke="#000000" points="471,-72.5 471,-102.5 783,-102.5 783,-72.5 471,-72.5"/>
<text text-anchor="start" x="478" y="-83.9" font-family="Arial" font-size="14.00" fill="#000000">is_lottery_setting_enabled    </text>
<text text-anchor="start" x="674.8106" y="-83.9" font-family="Arial" font-size="14.00" fill="#666666">[tinyint(1)]</text>
<polygon fill="none" stroke="#000000" points="471,-42.5 471,-72.5 783,-72.5 783,-42.5 471,-42.5"/>
<text text-anchor="start" x="478" y="-53.9" font-family="Arial" font-size="14.00" fill="#000000">lottery_period    </text>
<text text-anchor="start" x="596.9986" y="-53.9" font-family="Arial" font-size="14.00" fill="#666666">[int(5)]</text>
</g>
<!-- sk_user_favorite_rooms&#45;&gt;sk_rooms -->
<g id="edge2" class="edge">
<title>sk_user_favorite_rooms:room_id&#45;&gt;sk_rooms:id</title>
<path fill="none" stroke="#000000" d="M598.2116,-2015.9146C624.9613,-2006.3894 609.5625,-1956.1947 588,-1927 555.6774,-1883.2365 503.3226,-1934.7635 471,-1891 446.3118,-1857.5731 429.4444,-1797.5 471,-1797.5"/>
<polygon fill="#000000" stroke="#000000" points="597.8816,-2015.9658 587.3096,-2013.0533 592.9408,-2016.7329 588,-2017.5 588,-2017.5 588,-2017.5 592.9408,-2016.7329 588.6904,-2021.9467 597.8816,-2015.9658 597.8816,-2015.9658"/>
<text text-anchor="start" x="594.8365" y="-2027.5" font-family="Arial" font-size="10.00" fill="#000000">FOREIGN KEY (room_id) REFERENCES sk_rooms (id)</text>
</g>
</g>
</svg>
