<?xml version="1.0" encoding="UTF-8" standalone="no"?>
<!DOCTYPE svg PUBLIC "-//W3C//DTD SVG 1.1//EN"
 "http://www.w3.org/Graphics/SVG/1.1/DTD/svg11.dtd">
<!-- Generated by graphviz version 2.40.1 (20161225.0304)
 -->
<!-- Title: sk_user_documents Pages: 1 -->
<svg width="402pt" height="345pt"
 viewBox="0.00 0.00 402.00 345.00" xmlns="http://www.w3.org/2000/svg" xmlns:xlink="http://www.w3.org/1999/xlink">
<g id="graph0" class="graph" transform="scale(1 1) rotate(0) translate(4 341)">
<title>sk_user_documents</title>
<polygon fill="#ffffff" stroke="transparent" points="-4,4 -4,-341 398,-341 398,4 -4,4"/>
<!-- sk_user_documents -->
<g id="node1" class="node">
<title>sk_user_documents</title>
<polygon fill="#efefef" stroke="transparent" points="46,-255.5 46,-290.5 348,-290.5 348,-255.5 46,-255.5"/>
<polygon fill="none" stroke="#000000" points="46,-255.5 46,-290.5 348,-290.5 348,-255.5 46,-255.5"/>
<text text-anchor="start" x="52.6948" y="-268.3" font-family="Arial Bold" font-size="18.00" fill="#000000">sk_user_documents</text>
<text text-anchor="start" x="213.7372" y="-268.3" font-family="Arial" font-size="14.00" fill="#000000">    </text>
<text text-anchor="start" x="247.942" y="-268.3" font-family="Arial" font-size="14.00" fill="#666666">[BASE TABLE]</text>
<polygon fill="none" stroke="#000000" points="46,-225.5 46,-255.5 348,-255.5 348,-225.5 46,-225.5"/>
<text text-anchor="start" x="53" y="-236.9" font-family="Arial" font-size="14.00" fill="#000000">id </text>
<text text-anchor="start" x="67.7798" y="-236.9" font-family="Arial" font-size="14.00" fill="#666666">[int(11) unsigned]</text>
<polygon fill="none" stroke="#000000" points="46,-195.5 46,-225.5 348,-225.5 348,-195.5 46,-195.5"/>
<text text-anchor="start" x="53" y="-206.9" font-family="Arial" font-size="14.00" fill="#000000">document_id </text>
<text text-anchor="start" x="137.0266" y="-206.9" font-family="Arial" font-size="14.00" fill="#666666">[int(11)]</text>
<polygon fill="none" stroke="#000000" points="46,-165.5 46,-195.5 348,-195.5 348,-165.5 46,-165.5"/>
<text text-anchor="start" x="53" y="-176.9" font-family="Arial" font-size="14.00" fill="#000000">user_name </text>
<text text-anchor="start" x="126.9074" y="-176.9" font-family="Arial" font-size="14.00" fill="#666666">[varchar(250)]</text>
<polygon fill="none" stroke="#000000" points="46,-135.5 46,-165.5 348,-165.5 348,-135.5 46,-135.5"/>
<text text-anchor="start" x="53" y="-146.9" font-family="Arial" font-size="14.00" fill="#000000">email </text>
<text text-anchor="start" x="90.3296" y="-146.9" font-family="Arial" font-size="14.00" fill="#666666">[varchar(250)]</text>
<polygon fill="none" stroke="#000000" points="46,-105.5 46,-135.5 348,-135.5 348,-105.5 46,-105.5"/>
<text text-anchor="start" x="53" y="-116.9" font-family="Arial" font-size="14.00" fill="#000000">tel </text>
<text text-anchor="start" x="71.6704" y="-116.9" font-family="Arial" font-size="14.00" fill="#666666">[varchar(12)]</text>
<polygon fill="none" stroke="#000000" points="46,-75.5 46,-105.5 348,-105.5 348,-75.5 46,-75.5"/>
<text text-anchor="start" x="53" y="-86.9" font-family="Arial" font-size="14.00" fill="#000000">request_from </text>
<text text-anchor="start" x="139.3492" y="-86.9" font-family="Arial" font-size="14.00" fill="#666666">[varchar(250)]</text>
<polygon fill="none" stroke="#000000" points="46,-45.5 46,-75.5 348,-75.5 348,-45.5 46,-45.5"/>
<text text-anchor="start" x="53" y="-56.9" font-family="Arial" font-size="14.00" fill="#000000">created </text>
<text text-anchor="start" x="103.5722" y="-56.9" font-family="Arial" font-size="14.00" fill="#666666">[timestamp]</text>
<polygon fill="none" stroke="#000000" stroke-width="3" points="44.5,-44.5 44.5,-292.5 349.5,-292.5 349.5,-44.5 44.5,-44.5"/>
</g>
</g>
</svg>
