<?xml version="1.0" encoding="UTF-8" standalone="no"?>
<!DOCTYPE svg PUBLIC "-//W3C//DTD SVG 1.1//EN"
 "http://www.w3.org/Graphics/SVG/1.1/DTD/svg11.dtd">
<!-- Generated by graphviz version 2.40.1 (20161225.0304)
 -->
<!-- Title: sk_custom_cancel_policies Pages: 1 -->
<svg width="994pt" height="1822pt"
 viewBox="0.00 0.00 994.00 1822.00" xmlns="http://www.w3.org/2000/svg" xmlns:xlink="http://www.w3.org/1999/xlink">
<g id="graph0" class="graph" transform="scale(1 1) rotate(0) translate(4 1818)">
<title>sk_custom_cancel_policies</title>
<polygon fill="#ffffff" stroke="transparent" points="-4,4 -4,-1818 990,-1818 990,4 -4,4"/>
<!-- sk_custom_cancel_policies -->
<g id="node1" class="node">
<title>sk_custom_cancel_policies</title>
<polygon fill="#efefef" stroke="transparent" points="292,-1732.5 292,-1767.5 651,-1767.5 651,-1732.5 292,-1732.5"/>
<polygon fill="none" stroke="#000000" points="292,-1732.5 292,-1767.5 651,-1767.5 651,-1732.5 292,-1732.5"/>
<text text-anchor="start" x="298.6963" y="-1745.3" font-family="Arial Bold" font-size="18.00" fill="#000000">sk_custom_cancel_policies</text>
<text text-anchor="start" x="516.7357" y="-1745.3" font-family="Arial" font-size="14.00" fill="#000000">    </text>
<text text-anchor="start" x="550.9405" y="-1745.3" font-family="Arial" font-size="14.00" fill="#666666">[BASE TABLE]</text>
<polygon fill="none" stroke="#000000" points="292,-1702.5 292,-1732.5 651,-1732.5 651,-1702.5 292,-1702.5"/>
<text text-anchor="start" x="299" y="-1713.9" font-family="Arial" font-size="14.00" fill="#000000">id </text>
<text text-anchor="start" x="313.7798" y="-1713.9" font-family="Arial" font-size="14.00" fill="#666666">[int(11) unsigned]</text>
<polygon fill="none" stroke="#000000" points="292,-1672.5 292,-1702.5 651,-1702.5 651,-1672.5 292,-1672.5"/>
<text text-anchor="start" x="299" y="-1683.9" font-family="Arial" font-size="14.00" fill="#000000">property_id </text>
<text text-anchor="start" x="372.9046" y="-1683.9" font-family="Arial" font-size="14.00" fill="#666666">[int(11) unsigned]</text>
<polygon fill="none" stroke="#000000" points="292,-1642.5 292,-1672.5 651,-1672.5 651,-1642.5 292,-1642.5"/>
<text text-anchor="start" x="299" y="-1653.9" font-family="Arial" font-size="14.00" fill="#000000">origin_policy_id </text>
<text text-anchor="start" x="399.345" y="-1653.9" font-family="Arial" font-size="14.00" fill="#666666">[int(11) unsigned]</text>
<polygon fill="none" stroke="#000000" points="292,-1612.5 292,-1642.5 651,-1642.5 651,-1612.5 292,-1612.5"/>
<text text-anchor="start" x="299" y="-1623.9" font-family="Arial" font-size="14.00" fill="#000000">created_at </text>
<text text-anchor="start" x="369.028" y="-1623.9" font-family="Arial" font-size="14.00" fill="#666666">[timestamp]</text>
<polygon fill="none" stroke="#000000" stroke-width="3" points="290,-1611.5 290,-1769.5 652,-1769.5 652,-1611.5 290,-1611.5"/>
</g>
<!-- sk_properties -->
<g id="node2" class="node">
<title>sk_properties</title>
<polygon fill="#efefef" stroke="transparent" points="108,-1452.5 108,-1487.5 427,-1487.5 427,-1452.5 108,-1452.5"/>
<polygon fill="none" stroke="#000000" points="108,-1452.5 108,-1487.5 427,-1487.5 427,-1452.5 108,-1452.5"/>
<text text-anchor="start" x="149.707" y="-1465.3" font-family="Arial Bold" font-size="18.00" fill="#000000">sk_properties</text>
<text text-anchor="start" x="257.725" y="-1465.3" font-family="Arial" font-size="14.00" fill="#000000">    </text>
<text text-anchor="start" x="291.9298" y="-1465.3" font-family="Arial" font-size="14.00" fill="#666666">[BASE TABLE]</text>
<polygon fill="none" stroke="#000000" points="108,-1422.5 108,-1452.5 427,-1452.5 427,-1422.5 108,-1422.5"/>
<text text-anchor="start" x="115" y="-1433.9" font-family="Arial" font-size="14.00" fill="#000000">id    </text>
<text text-anchor="start" x="160.094" y="-1433.9" font-family="Arial" font-size="14.00" fill="#666666">[int(11) unsigned]</text>
<polygon fill="none" stroke="#000000" points="108,-1392.5 108,-1422.5 427,-1422.5 427,-1392.5 108,-1392.5"/>
<text text-anchor="start" x="115" y="-1403.9" font-family="Arial" font-size="14.00" fill="#000000">is_deleted    </text>
<text text-anchor="start" x="213.0042" y="-1403.9" font-family="Arial" font-size="14.00" fill="#666666">[tinyint(1)]</text>
<polygon fill="none" stroke="#000000" points="108,-1362.5 108,-1392.5 427,-1392.5 427,-1362.5 108,-1362.5"/>
<text text-anchor="start" x="115" y="-1373.9" font-family="Arial" font-size="14.00" fill="#000000">hide    </text>
<text text-anchor="start" x="175.6592" y="-1373.9" font-family="Arial" font-size="14.00" fill="#666666">[smallint(6) unsigned]</text>
<polygon fill="none" stroke="#000000" points="108,-1332.5 108,-1362.5 427,-1362.5 427,-1332.5 108,-1332.5"/>
<text text-anchor="start" x="115" y="-1343.9" font-family="Arial" font-size="14.00" fill="#000000">is_listable    </text>
<text text-anchor="start" x="210.6522" y="-1343.9" font-family="Arial" font-size="14.00" fill="#666666">[tinyint(1)]</text>
<polygon fill="none" stroke="#000000" points="108,-1302.5 108,-1332.5 427,-1332.5 427,-1302.5 108,-1302.5"/>
<text text-anchor="start" x="115" y="-1313.9" font-family="Arial" font-size="14.00" fill="#000000">lessor_id    </text>
<text text-anchor="start" x="205.209" y="-1313.9" font-family="Arial" font-size="14.00" fill="#666666">[int(11) unsigned]</text>
<polygon fill="none" stroke="#000000" points="108,-1272.5 108,-1302.5 427,-1302.5 427,-1272.5 108,-1272.5"/>
<text text-anchor="start" x="115" y="-1283.9" font-family="Arial" font-size="14.00" fill="#000000">name    </text>
<text text-anchor="start" x="184.2132" y="-1283.9" font-family="Arial" font-size="14.00" fill="#666666">[varchar(200)]</text>
<polygon fill="none" stroke="#000000" points="108,-1242.5 108,-1272.5 427,-1272.5 427,-1242.5 108,-1242.5"/>
<text text-anchor="start" x="115" y="-1253.9" font-family="Arial" font-size="14.00" fill="#000000">voice_name    </text>
<text text-anchor="start" x="224.6676" y="-1253.9" font-family="Arial" font-size="14.00" fill="#666666">[varchar(200)]</text>
<polygon fill="none" stroke="#000000" points="108,-1212.5 108,-1242.5 427,-1242.5 427,-1212.5 108,-1212.5"/>
<text text-anchor="start" x="115" y="-1223.9" font-family="Arial" font-size="14.00" fill="#000000">description_url    </text>
<text text-anchor="start" x="240.2146" y="-1223.9" font-family="Arial" font-size="14.00" fill="#666666">[varchar(1000)]</text>
<polygon fill="none" stroke="#000000" points="108,-1182.5 108,-1212.5 427,-1212.5 427,-1182.5 108,-1182.5"/>
<text text-anchor="start" x="115" y="-1193.9" font-family="Arial" font-size="14.00" fill="#000000">brochure    </text>
<text text-anchor="start" x="204.439" y="-1193.9" font-family="Arial" font-size="14.00" fill="#666666">[varchar(1000)]</text>
<polygon fill="none" stroke="#000000" points="108,-1152.5 108,-1182.5 427,-1182.5 427,-1152.5 108,-1152.5"/>
<text text-anchor="start" x="115" y="-1163.9" font-family="Arial" font-size="14.00" fill="#000000">postal    </text>
<text text-anchor="start" x="186.5498" y="-1163.9" font-family="Arial" font-size="14.00" fill="#666666">[varchar(8)]</text>
<polygon fill="none" stroke="#000000" points="108,-1122.5 108,-1152.5 427,-1152.5 427,-1122.5 108,-1122.5"/>
<text text-anchor="start" x="115" y="-1133.9" font-family="Arial" font-size="14.00" fill="#000000">prefecture    </text>
<text text-anchor="start" x="212.2202" y="-1133.9" font-family="Arial" font-size="14.00" fill="#666666">[varchar(20)]</text>
<polygon fill="none" stroke="#000000" points="108,-1092.5 108,-1122.5 427,-1122.5 427,-1092.5 108,-1092.5"/>
<text text-anchor="start" x="115" y="-1103.9" font-family="Arial" font-size="14.00" fill="#000000">address    </text>
<text text-anchor="start" x="198.9958" y="-1103.9" font-family="Arial" font-size="14.00" fill="#666666">[varchar(400)]</text>
<polygon fill="none" stroke="#000000" points="108,-1062.5 108,-1092.5 427,-1092.5 427,-1062.5 108,-1062.5"/>
<text text-anchor="start" x="115" y="-1073.9" font-family="Arial" font-size="14.00" fill="#000000">caution    </text>
<text text-anchor="start" x="194.3324" y="-1073.9" font-family="Arial" font-size="14.00" fill="#666666">[text]</text>
<polygon fill="none" stroke="#000000" points="108,-1032.5 108,-1062.5 427,-1062.5 427,-1032.5 108,-1032.5"/>
<text text-anchor="start" x="115" y="-1043.9" font-family="Arial" font-size="14.00" fill="#000000">is_send_reserved_email    </text>
<text text-anchor="start" x="300.8976" y="-1043.9" font-family="Arial" font-size="14.00" fill="#666666">[tinyint(1)]</text>
<polygon fill="none" stroke="#000000" points="108,-1002.5 108,-1032.5 427,-1032.5 427,-1002.5 108,-1002.5"/>
<text text-anchor="start" x="115" y="-1013.9" font-family="Arial" font-size="14.00" fill="#000000">hide_password    </text>
<text text-anchor="start" x="243.3394" y="-1013.9" font-family="Arial" font-size="14.00" fill="#666666">[varchar(50)]</text>
<polygon fill="none" stroke="#000000" points="108,-972.5 108,-1002.5 427,-1002.5 427,-972.5 108,-972.5"/>
<text text-anchor="start" x="115" y="-983.9" font-family="Arial" font-size="14.00" fill="#000000">terms    </text>
<text text-anchor="start" x="184.1992" y="-983.9" font-family="Arial" font-size="14.00" fill="#666666">[text]</text>
<polygon fill="none" stroke="#000000" points="108,-942.5 108,-972.5 427,-972.5 427,-942.5 108,-942.5"/>
<text text-anchor="start" x="115" y="-953.9" font-family="Arial" font-size="14.00" fill="#000000">access    </text>
<text text-anchor="start" x="192.77" y="-953.9" font-family="Arial" font-size="14.00" fill="#666666">[text]</text>
<polygon fill="none" stroke="#000000" points="108,-912.5 108,-942.5 427,-942.5 427,-912.5 108,-912.5"/>
<text text-anchor="start" x="115" y="-923.9" font-family="Arial" font-size="14.00" fill="#000000">specified_cm_tran    </text>
<text text-anchor="start" x="262.7812" y="-923.9" font-family="Arial" font-size="14.00" fill="#666666">[text]</text>
<polygon fill="none" stroke="#000000" points="108,-882.5 108,-912.5 427,-912.5 427,-882.5 108,-882.5"/>
<text text-anchor="start" x="115" y="-893.9" font-family="Arial" font-size="14.00" fill="#000000">introduction    </text>
<text text-anchor="start" x="221.5554" y="-893.9" font-family="Arial" font-size="14.00" fill="#666666">[text]</text>
<polygon fill="none" stroke="#000000" points="108,-852.5 108,-882.5 427,-882.5 427,-852.5 108,-852.5"/>
<text text-anchor="start" x="115" y="-863.9" font-family="Arial" font-size="14.00" fill="#000000">catchcopy    </text>
<text text-anchor="start" x="212.2258" y="-863.9" font-family="Arial" font-size="14.00" fill="#666666">[varchar(100)]</text>
<polygon fill="none" stroke="#000000" points="108,-822.5 108,-852.5 427,-852.5 427,-822.5 108,-822.5"/>
<text text-anchor="start" x="115" y="-833.9" font-family="Arial" font-size="14.00" fill="#000000">discount_info    </text>
<text text-anchor="start" x="231.6774" y="-833.9" font-family="Arial" font-size="14.00" fill="#666666">[text]</text>
<polygon fill="none" stroke="#000000" points="108,-792.5 108,-822.5 427,-822.5 427,-792.5 108,-792.5"/>
<text text-anchor="start" x="115" y="-803.9" font-family="Arial" font-size="14.00" fill="#000000">buffer_time    </text>
<text text-anchor="start" x="219.2174" y="-803.9" font-family="Arial" font-size="14.00" fill="#666666">[time]</text>
<polygon fill="none" stroke="#000000" points="108,-762.5 108,-792.5 427,-792.5 427,-762.5 108,-762.5"/>
<text text-anchor="start" x="115" y="-773.9" font-family="Arial" font-size="14.00" fill="#000000">buffer_time_control    </text>
<text text-anchor="start" x="269.0056" y="-773.9" font-family="Arial" font-size="14.00" fill="#666666">[smallint(3)]</text>
<polygon fill="none" stroke="#000000" points="108,-732.5 108,-762.5 427,-762.5 427,-732.5 108,-732.5"/>
<text text-anchor="start" x="115" y="-743.9" font-family="Arial" font-size="14.00" fill="#000000">sort_order    </text>
<text text-anchor="start" x="212.9902" y="-743.9" font-family="Arial" font-size="14.00" fill="#666666">[int(11)]</text>
<polygon fill="none" stroke="#000000" points="108,-702.5 108,-732.5 427,-732.5 427,-702.5 108,-702.5"/>
<text text-anchor="start" x="115" y="-713.9" font-family="Arial" font-size="14.00" fill="#000000">is_approve    </text>
<text text-anchor="start" x="217.6676" y="-713.9" font-family="Arial" font-size="14.00" fill="#666666">[tinyint(1)]</text>
<polygon fill="none" stroke="#000000" points="108,-672.5 108,-702.5 427,-702.5 427,-672.5 108,-672.5"/>
<text text-anchor="start" x="115" y="-683.9" font-family="Arial" font-size="14.00" fill="#000000">fixed_limit_date_after_approve    </text>
<text text-anchor="start" x="340.5876" y="-683.9" font-family="Arial" font-size="14.00" fill="#666666">[int(11)]</text>
<polygon fill="none" stroke="#000000" points="108,-642.5 108,-672.5 427,-672.5 427,-642.5 108,-642.5"/>
<text text-anchor="start" x="115" y="-653.9" font-family="Arial" font-size="14.00" fill="#000000">fixed_limit_date_before_first_time    </text>
<text text-anchor="start" x="358.46" y="-653.9" font-family="Arial" font-size="14.00" fill="#666666">[int(11)]</text>
<polygon fill="none" stroke="#000000" points="108,-612.5 108,-642.5 427,-642.5 427,-612.5 108,-612.5"/>
<text text-anchor="start" x="115" y="-623.9" font-family="Arial" font-size="14.00" fill="#000000">enable_reserve_lock    </text>
<text text-anchor="start" x="278.3478" y="-623.9" font-family="Arial" font-size="14.00" fill="#666666">[tinyint(1) unsigned]</text>
<polygon fill="none" stroke="#000000" points="108,-582.5 108,-612.5 427,-612.5 427,-582.5 108,-582.5"/>
<text text-anchor="start" x="115" y="-593.9" font-family="Arial" font-size="14.00" fill="#000000">reserve_lock_time    </text>
<text text-anchor="start" x="262.7686" y="-593.9" font-family="Arial" font-size="14.00" fill="#666666">[time]</text>
<polygon fill="none" stroke="#000000" points="108,-552.5 108,-582.5 427,-582.5 427,-552.5 108,-552.5"/>
<text text-anchor="start" x="115" y="-563.9" font-family="Arial" font-size="14.00" fill="#000000">reserve_lock_target    </text>
<text text-anchor="start" x="272.1178" y="-563.9" font-family="Arial" font-size="14.00" fill="#666666">[smallint(6) unsigned]</text>
<polygon fill="none" stroke="#000000" points="108,-522.5 108,-552.5 427,-552.5 427,-522.5 108,-522.5"/>
<text text-anchor="start" x="115" y="-533.9" font-family="Arial" font-size="14.00" fill="#000000">enable_reserve_unlock    </text>
<text text-anchor="start" x="293.913" y="-533.9" font-family="Arial" font-size="14.00" fill="#666666">[tinyint(1) unsigned]</text>
<polygon fill="none" stroke="#000000" points="108,-492.5 108,-522.5 427,-522.5 427,-492.5 108,-492.5"/>
<text text-anchor="start" x="115" y="-503.9" font-family="Arial" font-size="14.00" fill="#000000">reserve_unlock_time    </text>
<text text-anchor="start" x="278.3338" y="-503.9" font-family="Arial" font-size="14.00" fill="#666666">[time]</text>
<polygon fill="none" stroke="#000000" points="108,-462.5 108,-492.5 427,-492.5 427,-462.5 108,-462.5"/>
<text text-anchor="start" x="114.6515" y="-473.9" font-family="Arial" font-size="14.00" fill="#000000">reserve_unlock_target    </text>
<text text-anchor="start" x="287.3345" y="-473.9" font-family="Arial" font-size="14.00" fill="#666666">[smallint(6) unsigned]</text>
<polygon fill="none" stroke="#000000" points="108,-432.5 108,-462.5 427,-462.5 427,-432.5 108,-432.5"/>
<text text-anchor="start" x="115" y="-443.9" font-family="Arial" font-size="14.00" fill="#000000">cancel_charge_payment_limit_date    </text>
<text text-anchor="start" x="369.3716" y="-443.9" font-family="Arial" font-size="14.00" fill="#666666">[int(11)]</text>
<polygon fill="none" stroke="#000000" points="108,-402.5 108,-432.5 427,-432.5 427,-402.5 108,-402.5"/>
<text text-anchor="start" x="115" y="-413.9" font-family="Arial" font-size="14.00" fill="#000000">is_using_origin_cancel_policy    </text>
<text text-anchor="start" x="334.3506" y="-413.9" font-family="Arial" font-size="14.00" fill="#666666">[smallint(1)]</text>
<polygon fill="none" stroke="#000000" points="108,-372.5 108,-402.5 427,-402.5 427,-372.5 108,-372.5"/>
<text text-anchor="start" x="115" y="-383.9" font-family="Arial" font-size="14.00" fill="#000000">pref_id    </text>
<text text-anchor="start" x="191.993" y="-383.9" font-family="Arial" font-size="14.00" fill="#666666">[int(11)]</text>
<polygon fill="none" stroke="#000000" points="108,-342.5 108,-372.5 427,-372.5 427,-342.5 108,-342.5"/>
<text text-anchor="start" x="115" y="-353.9" font-family="Arial" font-size="14.00" fill="#000000">city_id    </text>
<text text-anchor="start" x="188.8738" y="-353.9" font-family="Arial" font-size="14.00" fill="#666666">[int(11)]</text>
<polygon fill="none" stroke="#000000" points="108,-312.5 108,-342.5 427,-342.5 427,-312.5 108,-312.5"/>
<text text-anchor="start" x="115" y="-323.9" font-family="Arial" font-size="14.00" fill="#000000">region_id    </text>
<text text-anchor="start" x="206.7742" y="-323.9" font-family="Arial" font-size="14.00" fill="#666666">[int(11)]</text>
<polygon fill="none" stroke="#000000" points="108,-282.5 108,-312.5 427,-312.5 427,-282.5 108,-282.5"/>
<text text-anchor="start" x="115" y="-293.9" font-family="Arial" font-size="14.00" fill="#000000">lat    </text>
<text text-anchor="start" x="163.9846" y="-293.9" font-family="Arial" font-size="14.00" fill="#666666">[decimal(24,20)]</text>
<polygon fill="none" stroke="#000000" points="108,-252.5 108,-282.5 427,-282.5 427,-252.5 108,-252.5"/>
<text text-anchor="start" x="115" y="-263.9" font-family="Arial" font-size="14.00" fill="#000000">lng    </text>
<text text-anchor="start" x="167.8766" y="-263.9" font-family="Arial" font-size="14.00" fill="#666666">[decimal(24,20)]</text>
<polygon fill="none" stroke="#000000" points="108,-222.5 108,-252.5 427,-252.5 427,-222.5 108,-222.5"/>
<text text-anchor="start" x="115" y="-233.9" font-family="Arial" font-size="14.00" fill="#000000">created_datetime    </text>
<text text-anchor="start" x="257.3478" y="-233.9" font-family="Arial" font-size="14.00" fill="#666666">[timestamp]</text>
<polygon fill="none" stroke="#000000" points="108,-192.5 108,-222.5 427,-222.5 427,-192.5 108,-192.5"/>
<text text-anchor="start" x="115" y="-203.9" font-family="Arial" font-size="14.00" fill="#000000">updated_datetime    </text>
<text text-anchor="start" x="261.2524" y="-203.9" font-family="Arial" font-size="14.00" fill="#666666">[timestamp]</text>
<polygon fill="none" stroke="#000000" points="108,-162.5 108,-192.5 427,-192.5 427,-162.5 108,-162.5"/>
<text text-anchor="start" x="115" y="-173.9" font-family="Arial" font-size="14.00" fill="#000000">owner_buffer_time    </text>
<text text-anchor="start" x="265.115" y="-173.9" font-family="Arial" font-size="14.00" fill="#666666">[time]</text>
<polygon fill="none" stroke="#000000" points="108,-132.5 108,-162.5 427,-162.5 427,-132.5 108,-132.5"/>
<text text-anchor="start" x="115" y="-143.9" font-family="Arial" font-size="14.00" fill="#000000">external_buffer_time    </text>
<text text-anchor="start" x="276.7882" y="-143.9" font-family="Arial" font-size="14.00" fill="#666666">[time]</text>
<polygon fill="none" stroke="#000000" points="108,-102.5 108,-132.5 427,-132.5 427,-102.5 108,-102.5"/>
<text text-anchor="start" x="115" y="-113.9" font-family="Arial" font-size="14.00" fill="#000000">owner_buffer_time_control    </text>
<text text-anchor="start" x="314.9032" y="-113.9" font-family="Arial" font-size="14.00" fill="#666666">[smallint(3)]</text>
<polygon fill="none" stroke="#000000" points="108,-72.5 108,-102.5 427,-102.5 427,-72.5 108,-72.5"/>
<text text-anchor="start" x="115" y="-83.9" font-family="Arial" font-size="14.00" fill="#000000">external_buffer_time_control    </text>
<text text-anchor="start" x="326.5764" y="-83.9" font-family="Arial" font-size="14.00" fill="#666666">[smallint(3)]</text>
<polygon fill="none" stroke="#000000" points="108,-42.5 108,-72.5 427,-72.5 427,-42.5 108,-42.5"/>
<text text-anchor="start" x="115" y="-53.9" font-family="Arial" font-size="14.00" fill="#000000">approved_mail_note    </text>
<text text-anchor="start" x="276.021" y="-53.9" font-family="Arial" font-size="14.00" fill="#666666">[text]</text>
</g>
<!-- sk_custom_cancel_policies&#45;&gt;sk_properties -->
<g id="edge1" class="edge">
<title>sk_custom_cancel_policies:property_id&#45;&gt;sk_properties:id</title>
<path fill="none" stroke="#000000" d="M282.0411,-1686.4424C241.3603,-1676.9979 261.6024,-1606.5658 292,-1567 329.8316,-1517.758 389.1684,-1580.242 427,-1531 452.3171,-1498.0469 468.5556,-1437.5 427,-1437.5"/>
<polygon fill="#000000" stroke="#000000" points="282.0559,-1686.4439 291.5247,-1691.9748 287.028,-1686.9719 292,-1687.5 292,-1687.5 292,-1687.5 287.028,-1686.9719 292.4753,-1683.0252 282.0559,-1686.4439 282.0559,-1686.4439"/>
<text text-anchor="start" x="6.5505" y="-1697.5" font-family="Arial" font-size="10.00" fill="#000000">FOREIGN KEY (property_id) REFERENCES sk_properties (id)</text>
</g>
<!-- sk_cancel_policies -->
<g id="node3" class="node">
<title>sk_cancel_policies</title>
<polygon fill="#efefef" stroke="transparent" points="531,-807.5 531,-842.5 822,-842.5 822,-807.5 531,-807.5"/>
<polygon fill="none" stroke="#000000" points="531,-807.5 531,-842.5 822,-842.5 822,-807.5 531,-807.5"/>
<text text-anchor="start" x="537.7028" y="-820.3" font-family="Arial Bold" font-size="18.00" fill="#000000">sk_cancel_policies</text>
<text text-anchor="start" x="687.7292" y="-820.3" font-family="Arial" font-size="14.00" fill="#000000">    </text>
<text text-anchor="start" x="721.934" y="-820.3" font-family="Arial" font-size="14.00" fill="#666666">[BASE TABLE]</text>
<polygon fill="none" stroke="#000000" points="531,-777.5 531,-807.5 822,-807.5 822,-777.5 531,-777.5"/>
<text text-anchor="start" x="538" y="-788.9" font-family="Arial" font-size="14.00" fill="#000000">id    </text>
<text text-anchor="start" x="583.094" y="-788.9" font-family="Arial" font-size="14.00" fill="#666666">[int(11) unsigned]</text>
<polygon fill="none" stroke="#000000" points="531,-747.5 531,-777.5 822,-777.5 822,-747.5 531,-747.5"/>
<text text-anchor="start" x="538" y="-758.9" font-family="Arial" font-size="14.00" fill="#000000">lessor_parent_id    </text>
<text text-anchor="start" x="675.6732" y="-758.9" font-family="Arial" font-size="14.00" fill="#666666">[int(11) unsigned]</text>
<polygon fill="none" stroke="#000000" points="531,-717.5 531,-747.5 822,-747.5 822,-717.5 531,-717.5"/>
<text text-anchor="start" x="538" y="-728.9" font-family="Arial" font-size="14.00" fill="#000000">day    </text>
<text text-anchor="start" x="594.77" y="-728.9" font-family="Arial" font-size="14.00" fill="#666666">[smallint(3)]</text>
<polygon fill="none" stroke="#000000" points="531,-687.5 531,-717.5 822,-717.5 822,-687.5 531,-687.5"/>
<text text-anchor="start" x="538" y="-698.9" font-family="Arial" font-size="14.00" fill="#000000">charge_percent    </text>
<text text-anchor="start" x="669.46" y="-698.9" font-family="Arial" font-size="14.00" fill="#666666">[smallint(3)]</text>
</g>
<!-- sk_custom_cancel_policies&#45;&gt;sk_cancel_policies -->
<g id="edge2" class="edge">
<title>sk_custom_cancel_policies:origin_policy_id&#45;&gt;sk_cancel_policies:id</title>
<path fill="none" stroke="#000000" d="M661.0861,-1656.6177C826.4486,-1625.6982 340.5377,-792.5 531,-792.5"/>
<polygon fill="#000000" stroke="#000000" points="660.962,-1656.6284 650.6078,-1653.0171 655.981,-1657.0642 651,-1657.5 651,-1657.5 651,-1657.5 655.981,-1657.0642 651.3922,-1661.9829 660.962,-1656.6284 660.962,-1656.6284"/>
<text text-anchor="start" x="658.4385" y="-1667.5" font-family="Arial" font-size="10.00" fill="#000000">FOREIGN KEY (origin_policy_id) REFERENCES sk_cancel_policies (id)</text>
</g>
</g>
</svg>
