<?xml version="1.0" encoding="UTF-8" standalone="no"?>
<!DOCTYPE svg PUBLIC "-//W3C//DTD SVG 1.1//EN"
 "http://www.w3.org/Graphics/SVG/1.1/DTD/svg11.dtd">
<!-- Generated by graphviz version 2.40.1 (20161225.0304)
 -->
<!-- Title: sk_cancel_policies Pages: 1 -->
<svg width="967pt" height="2819pt"
 viewBox="0.00 0.00 966.50 2819.00" xmlns="http://www.w3.org/2000/svg" xmlns:xlink="http://www.w3.org/1999/xlink">
<g id="graph0" class="graph" transform="scale(1 1) rotate(0) translate(4 2815)">
<title>sk_cancel_policies</title>
<polygon fill="#ffffff" stroke="transparent" points="-4,4 -4,-2815 962.5,-2815 962.5,4 -4,4"/>
<!-- sk_cancel_policies -->
<g id="node1" class="node">
<title>sk_cancel_policies</title>
<polygon fill="#efefef" stroke="transparent" points="305.5,-2422.5 305.5,-2457.5 596.5,-2457.5 596.5,-2422.5 305.5,-2422.5"/>
<polygon fill="none" stroke="#000000" points="305.5,-2422.5 305.5,-2457.5 596.5,-2457.5 596.5,-2422.5 305.5,-2422.5"/>
<text text-anchor="start" x="312.2028" y="-2435.3" font-family="Arial Bold" font-size="18.00" fill="#000000">sk_cancel_policies</text>
<text text-anchor="start" x="462.2292" y="-2435.3" font-family="Arial" font-size="14.00" fill="#000000">    </text>
<text text-anchor="start" x="496.434" y="-2435.3" font-family="Arial" font-size="14.00" fill="#666666">[BASE TABLE]</text>
<polygon fill="none" stroke="#000000" points="305.5,-2392.5 305.5,-2422.5 596.5,-2422.5 596.5,-2392.5 305.5,-2392.5"/>
<text text-anchor="start" x="312.5" y="-2403.9" font-family="Arial" font-size="14.00" fill="#000000">id </text>
<text text-anchor="start" x="327.2798" y="-2403.9" font-family="Arial" font-size="14.00" fill="#666666">[int(11) unsigned]</text>
<polygon fill="none" stroke="#000000" points="305.5,-2362.5 305.5,-2392.5 596.5,-2392.5 596.5,-2362.5 305.5,-2362.5"/>
<text text-anchor="start" x="312.5" y="-2373.9" font-family="Arial" font-size="14.00" fill="#000000">lessor_parent_id </text>
<text text-anchor="start" x="419.859" y="-2373.9" font-family="Arial" font-size="14.00" fill="#666666">[int(11) unsigned]</text>
<polygon fill="none" stroke="#000000" points="305.5,-2332.5 305.5,-2362.5 596.5,-2362.5 596.5,-2332.5 305.5,-2332.5"/>
<text text-anchor="start" x="312.5" y="-2343.9" font-family="Arial" font-size="14.00" fill="#000000">day </text>
<text text-anchor="start" x="338.9558" y="-2343.9" font-family="Arial" font-size="14.00" fill="#666666">[smallint(3)]</text>
<polygon fill="none" stroke="#000000" points="305.5,-2302.5 305.5,-2332.5 596.5,-2332.5 596.5,-2302.5 305.5,-2302.5"/>
<text text-anchor="start" x="312.5" y="-2313.9" font-family="Arial" font-size="14.00" fill="#000000">charge_percent </text>
<text text-anchor="start" x="413.6458" y="-2313.9" font-family="Arial" font-size="14.00" fill="#666666">[smallint(3)]</text>
<polygon fill="none" stroke="#000000" stroke-width="3" points="303.5,-2301.5 303.5,-2459.5 597.5,-2459.5 597.5,-2301.5 303.5,-2301.5"/>
</g>
<!-- sk_lessor_parents -->
<g id="node4" class="node">
<title>sk_lessor_parents</title>
<polygon fill="#efefef" stroke="transparent" points="211.5,-2142.5 211.5,-2177.5 691.5,-2177.5 691.5,-2142.5 211.5,-2142.5"/>
<polygon fill="none" stroke="#000000" points="211.5,-2142.5 211.5,-2177.5 691.5,-2177.5 691.5,-2142.5 211.5,-2142.5"/>
<text text-anchor="start" x="314.7008" y="-2155.3" font-family="Arial Bold" font-size="18.00" fill="#000000">sk_lessor_parents</text>
<text text-anchor="start" x="460.7312" y="-2155.3" font-family="Arial" font-size="14.00" fill="#000000">    </text>
<text text-anchor="start" x="494.936" y="-2155.3" font-family="Arial" font-size="14.00" fill="#666666">[BASE TABLE]</text>
<polygon fill="none" stroke="#000000" points="211.5,-2112.5 211.5,-2142.5 691.5,-2142.5 691.5,-2112.5 211.5,-2112.5"/>
<text text-anchor="start" x="218.5" y="-2123.9" font-family="Arial" font-size="14.00" fill="#000000">user_id    </text>
<text text-anchor="start" x="298.6024" y="-2123.9" font-family="Arial" font-size="14.00" fill="#666666">[int(11) unsigned]</text>
<polygon fill="none" stroke="#000000" points="211.5,-2082.5 211.5,-2112.5 691.5,-2112.5 691.5,-2082.5 211.5,-2082.5"/>
<text text-anchor="start" x="218.5" y="-2093.9" font-family="Arial" font-size="14.00" fill="#000000">corporate_name    </text>
<text text-anchor="start" x="354.6206" y="-2093.9" font-family="Arial" font-size="14.00" fill="#666666">[varchar(200)]</text>
<polygon fill="none" stroke="#000000" points="211.5,-2052.5 211.5,-2082.5 691.5,-2082.5 691.5,-2052.5 211.5,-2052.5"/>
<text text-anchor="start" x="218.5" y="-2063.9" font-family="Arial" font-size="14.00" fill="#000000">logo_image    </text>
<text text-anchor="start" x="325.0568" y="-2063.9" font-family="Arial" font-size="14.00" fill="#666666">[varchar(1000)]</text>
<polygon fill="none" stroke="#000000" points="211.5,-2022.5 211.5,-2052.5 691.5,-2052.5 691.5,-2022.5 211.5,-2022.5"/>
<text text-anchor="start" x="218.5" y="-2033.9" font-family="Arial" font-size="14.00" fill="#000000">status    </text>
<text text-anchor="start" x="290.0512" y="-2033.9" font-family="Arial" font-size="14.00" fill="#666666">[smallint(1)]</text>
<polygon fill="none" stroke="#000000" points="211.5,-1992.5 211.5,-2022.5 691.5,-2022.5 691.5,-1992.5 211.5,-1992.5"/>
<text text-anchor="start" x="218.5" y="-2003.9" font-family="Arial" font-size="14.00" fill="#000000">gmo_shop_id    </text>
<text text-anchor="start" x="336.7328" y="-2003.9" font-family="Arial" font-size="14.00" fill="#666666">[varchar(13)]</text>
<polygon fill="none" stroke="#000000" points="211.5,-1962.5 211.5,-1992.5 691.5,-1992.5 691.5,-1962.5 211.5,-1962.5"/>
<text text-anchor="start" x="218.5" y="-1973.9" font-family="Arial" font-size="14.00" fill="#000000">gmo_shop_pass    </text>
<text text-anchor="start" x="355.4088" y="-1973.9" font-family="Arial" font-size="14.00" fill="#666666">[varchar(10)]</text>
<polygon fill="none" stroke="#000000" points="211.5,-1932.5 211.5,-1962.5 691.5,-1962.5 691.5,-1932.5 211.5,-1932.5"/>
<text text-anchor="start" x="218.5" y="-1943.9" font-family="Arial" font-size="14.00" fill="#000000">gmo_virtualaccount    </text>
<text text-anchor="start" x="374.0638" y="-1943.9" font-family="Arial" font-size="14.00" fill="#666666">[int(11)]</text>
<polygon fill="none" stroke="#000000" points="211.5,-1902.5 211.5,-1932.5 691.5,-1932.5 691.5,-1902.5 211.5,-1902.5"/>
<text text-anchor="start" x="218.5" y="-1913.9" font-family="Arial" font-size="14.00" fill="#000000">veritrans_merchant_ccid    </text>
<text text-anchor="start" x="405.1676" y="-1913.9" font-family="Arial" font-size="14.00" fill="#666666">[varchar(32)]</text>
<polygon fill="none" stroke="#000000" points="211.5,-1872.5 211.5,-1902.5 691.5,-1902.5 691.5,-1872.5 211.5,-1872.5"/>
<text text-anchor="start" x="218.5" y="-1883.9" font-family="Arial" font-size="14.00" fill="#000000">veritrans_merchant_secret_key    </text>
<text text-anchor="start" x="447.96" y="-1883.9" font-family="Arial" font-size="14.00" fill="#666666">[varchar(64)]</text>
<polygon fill="none" stroke="#000000" points="211.5,-1842.5 211.5,-1872.5 691.5,-1872.5 691.5,-1842.5 211.5,-1842.5"/>
<text text-anchor="start" x="218.5" y="-1853.9" font-family="Arial" font-size="14.00" fill="#000000">veritrans_token_api_key    </text>
<text text-anchor="start" x="404.4116" y="-1853.9" font-family="Arial" font-size="14.00" fill="#666666">[varchar(36)]</text>
<polygon fill="none" stroke="#000000" points="211.5,-1812.5 211.5,-1842.5 691.5,-1842.5 691.5,-1812.5 211.5,-1812.5"/>
<text text-anchor="start" x="218.5" y="-1823.9" font-family="Arial" font-size="14.00" fill="#000000">veritrans_payeasyaccount    </text>
<text text-anchor="start" x="415.305" y="-1823.9" font-family="Arial" font-size="14.00" fill="#666666">[int(11)]</text>
<polygon fill="none" stroke="#000000" points="211.5,-1782.5 211.5,-1812.5 691.5,-1812.5 691.5,-1782.5 211.5,-1782.5"/>
<text text-anchor="start" x="218.5" y="-1793.9" font-family="Arial" font-size="14.00" fill="#000000">stripe_account_id    </text>
<text text-anchor="start" x="362.4032" y="-1793.9" font-family="Arial" font-size="14.00" fill="#666666">[varchar(255)]</text>
<polygon fill="none" stroke="#000000" points="211.5,-1752.5 211.5,-1782.5 691.5,-1782.5 691.5,-1752.5 211.5,-1752.5"/>
<text text-anchor="start" x="218.5" y="-1763.9" font-family="Arial" font-size="14.00" fill="#000000">stripe_api_secret_key    </text>
<text text-anchor="start" x="388.8464" y="-1763.9" font-family="Arial" font-size="14.00" fill="#666666">[varchar(255)]</text>
<polygon fill="none" stroke="#000000" points="211.5,-1722.5 211.5,-1752.5 691.5,-1752.5 691.5,-1722.5 211.5,-1722.5"/>
<text text-anchor="start" x="218.5" y="-1733.9" font-family="Arial" font-size="14.00" fill="#000000">sign_image    </text>
<text text-anchor="start" x="324.2742" y="-1733.9" font-family="Arial" font-size="14.00" fill="#666666">[varchar(200)]</text>
<polygon fill="none" stroke="#000000" points="211.5,-1692.5 211.5,-1722.5 691.5,-1722.5 691.5,-1692.5 211.5,-1692.5"/>
<text text-anchor="start" x="218.5" y="-1703.9" font-family="Arial" font-size="14.00" fill="#000000">auto_approve    </text>
<text text-anchor="start" x="338.2994" y="-1703.9" font-family="Arial" font-size="14.00" fill="#666666">[tinyint(1)]</text>
<polygon fill="none" stroke="#000000" points="211.5,-1662.5 211.5,-1692.5 691.5,-1692.5 691.5,-1662.5 211.5,-1662.5"/>
<text text-anchor="start" x="218.5" y="-1673.9" font-family="Arial" font-size="14.00" fill="#000000">tenant_usage_approve_mail_text    </text>
<text text-anchor="start" x="459.671" y="-1673.9" font-family="Arial" font-size="14.00" fill="#666666">[text]</text>
<polygon fill="none" stroke="#000000" points="211.5,-1632.5 211.5,-1662.5 691.5,-1662.5 691.5,-1632.5 211.5,-1632.5"/>
<text text-anchor="start" x="218.5" y="-1643.9" font-family="Arial" font-size="14.00" fill="#000000">hide_regist_page    </text>
<text text-anchor="start" x="360.0778" y="-1643.9" font-family="Arial" font-size="14.00" fill="#666666">[tinyint(4)]</text>
<polygon fill="none" stroke="#000000" points="211.5,-1602.5 211.5,-1632.5 691.5,-1632.5 691.5,-1602.5 211.5,-1602.5"/>
<text text-anchor="start" x="218.5" y="-1613.9" font-family="Arial" font-size="14.00" fill="#000000">disp_customer_info_input    </text>
<text text-anchor="start" x="412.1914" y="-1613.9" font-family="Arial" font-size="14.00" fill="#666666">[tinyint(1)]</text>
<polygon fill="none" stroke="#000000" points="211.5,-1572.5 211.5,-1602.5 691.5,-1602.5 691.5,-1572.5 211.5,-1572.5"/>
<text text-anchor="start" x="218.5" y="-1583.9" font-family="Arial" font-size="14.00" fill="#000000">salesforce_client_id    </text>
<text text-anchor="start" x="375.6164" y="-1583.9" font-family="Arial" font-size="14.00" fill="#666666">[varchar(100)]</text>
<polygon fill="none" stroke="#000000" points="211.5,-1542.5 211.5,-1572.5 691.5,-1572.5 691.5,-1542.5 211.5,-1542.5"/>
<text text-anchor="start" x="218.5" y="-1553.9" font-family="Arial" font-size="14.00" fill="#000000">salesforce_client_secret    </text>
<text text-anchor="start" x="402.8436" y="-1553.9" font-family="Arial" font-size="14.00" fill="#666666">[varchar(100)]</text>
<polygon fill="none" stroke="#000000" points="211.5,-1512.5 211.5,-1542.5 691.5,-1542.5 691.5,-1512.5 211.5,-1512.5"/>
<text text-anchor="start" x="218.5" y="-1523.9" font-family="Arial" font-size="14.00" fill="#000000">salesforce_client_username    </text>
<text text-anchor="start" x="426.9614" y="-1523.9" font-family="Arial" font-size="14.00" fill="#666666">[varchar(100)]</text>
<polygon fill="none" stroke="#000000" points="211.5,-1482.5 211.5,-1512.5 691.5,-1512.5 691.5,-1482.5 211.5,-1482.5"/>
<text text-anchor="start" x="218.5" y="-1493.9" font-family="Arial" font-size="14.00" fill="#000000">salesforce_client_password    </text>
<text text-anchor="start" x="424.6248" y="-1493.9" font-family="Arial" font-size="14.00" fill="#666666">[varchar(100)]</text>
<polygon fill="none" stroke="#000000" points="211.5,-1452.5 211.5,-1482.5 691.5,-1482.5 691.5,-1452.5 211.5,-1452.5"/>
<text text-anchor="start" x="218.5" y="-1463.9" font-family="Arial" font-size="14.00" fill="#000000">salesforce_api_security_token    </text>
<text text-anchor="start" x="440.974" y="-1463.9" font-family="Arial" font-size="14.00" fill="#666666">[varchar(100)]</text>
<polygon fill="none" stroke="#000000" points="211.5,-1422.5 211.5,-1452.5 691.5,-1452.5 691.5,-1422.5 211.5,-1422.5"/>
<text text-anchor="start" x="218.5" y="-1433.9" font-family="Arial" font-size="14.00" fill="#000000">salesforce_version    </text>
<text text-anchor="start" x="369.3906" y="-1433.9" font-family="Arial" font-size="14.00" fill="#666666">[varchar(100)]</text>
<polygon fill="none" stroke="#000000" points="211.5,-1392.5 211.5,-1422.5 691.5,-1422.5 691.5,-1392.5 211.5,-1392.5"/>
<text text-anchor="start" x="218.5" y="-1403.9" font-family="Arial" font-size="14.00" fill="#000000">disp_name    </text>
<text text-anchor="start" x="321.1676" y="-1403.9" font-family="Arial" font-size="14.00" fill="#666666">[varchar(200)]</text>
<polygon fill="none" stroke="#000000" points="211.5,-1362.5 211.5,-1392.5 691.5,-1392.5 691.5,-1362.5 211.5,-1362.5"/>
<text text-anchor="start" x="218.5" y="-1373.9" font-family="Arial" font-size="14.00" fill="#000000">salesforce_password_salt    </text>
<text text-anchor="start" x="413.7356" y="-1373.9" font-family="Arial" font-size="14.00" fill="#666666">[varchar(100)]</text>
<polygon fill="none" stroke="#000000" points="211.5,-1332.5 211.5,-1362.5 691.5,-1362.5 691.5,-1332.5 211.5,-1332.5"/>
<text text-anchor="start" x="218.5" y="-1343.9" font-family="Arial" font-size="14.00" fill="#000000">subscription_terms    </text>
<text text-anchor="start" x="370.1592" y="-1343.9" font-family="Arial" font-size="14.00" fill="#666666">[text]</text>
<polygon fill="none" stroke="#000000" points="211.5,-1302.5 211.5,-1332.5 691.5,-1332.5 691.5,-1302.5 211.5,-1302.5"/>
<text text-anchor="start" x="218.5" y="-1313.9" font-family="Arial" font-size="14.00" fill="#000000">memo    </text>
<text text-anchor="start" x="291.5912" y="-1313.9" font-family="Arial" font-size="14.00" fill="#666666">[text]</text>
<polygon fill="none" stroke="#000000" points="211.5,-1272.5 211.5,-1302.5 691.5,-1302.5 691.5,-1272.5 211.5,-1272.5"/>
<text text-anchor="start" x="218.5" y="-1283.9" font-family="Arial" font-size="14.00" fill="#000000">memo_helper_text    </text>
<text text-anchor="start" x="368.6178" y="-1283.9" font-family="Arial" font-size="14.00" fill="#666666">[text]</text>
<polygon fill="none" stroke="#000000" points="211.5,-1242.5 211.5,-1272.5 691.5,-1272.5 691.5,-1242.5 211.5,-1242.5"/>
<text text-anchor="start" x="218.5" y="-1253.9" font-family="Arial" font-size="14.00" fill="#000000">memo_placeholder_text    </text>
<text text-anchor="start" x="402.0722" y="-1253.9" font-family="Arial" font-size="14.00" fill="#666666">[text]</text>
<polygon fill="none" stroke="#000000" points="211.5,-1212.5 211.5,-1242.5 691.5,-1242.5 691.5,-1212.5 211.5,-1212.5"/>
<text text-anchor="start" x="218.5" y="-1223.9" font-family="Arial" font-size="14.00" fill="#000000">is_memo_required    </text>
<text text-anchor="start" x="368.6038" y="-1223.9" font-family="Arial" font-size="14.00" fill="#666666">[tinyint(1)]</text>
<polygon fill="none" stroke="#000000" points="211.5,-1182.5 211.5,-1212.5 691.5,-1212.5 691.5,-1182.5 211.5,-1182.5"/>
<text text-anchor="start" x="218.5" y="-1193.9" font-family="Arial" font-size="14.00" fill="#000000">is_number_person_required    </text>
<text text-anchor="start" x="427.7426" y="-1193.9" font-family="Arial" font-size="14.00" fill="#666666">[tinyint(1)]</text>
<polygon fill="none" stroke="#000000" points="211.5,-1152.5 211.5,-1182.5 691.5,-1182.5 691.5,-1152.5 211.5,-1152.5"/>
<text text-anchor="start" x="218.5" y="-1163.9" font-family="Arial" font-size="14.00" fill="#000000">is_show_number_person    </text>
<text text-anchor="start" x="409.0736" y="-1163.9" font-family="Arial" font-size="14.00" fill="#666666">[tinyint(1)]</text>
<polygon fill="none" stroke="#000000" points="211.5,-1122.5 211.5,-1152.5 691.5,-1152.5 691.5,-1122.5 211.5,-1122.5"/>
<text text-anchor="start" x="218.5" y="-1133.9" font-family="Arial" font-size="14.00" fill="#000000">reservation_usage_time_block    </text>
<text text-anchor="start" x="442.5266" y="-1133.9" font-family="Arial" font-size="14.00" fill="#666666">[int(11)]</text>
<polygon fill="none" stroke="#000000" points="211.5,-1092.5 211.5,-1122.5 691.5,-1122.5 691.5,-1092.5 211.5,-1092.5"/>
<text text-anchor="start" x="218.5" y="-1103.9" font-family="Arial" font-size="14.00" fill="#000000">user_reservation_time_block    </text>
<text text-anchor="start" x="431.622" y="-1103.9" font-family="Arial" font-size="14.00" fill="#666666">[int(11)]</text>
<polygon fill="none" stroke="#000000" points="211.5,-1062.5 211.5,-1092.5 691.5,-1092.5 691.5,-1062.5 211.5,-1062.5"/>
<text text-anchor="start" x="218.5" y="-1073.9" font-family="Arial" font-size="14.00" fill="#000000">reservation_extension_time_block    </text>
<text text-anchor="start" x="464.3064" y="-1073.9" font-family="Arial" font-size="14.00" fill="#666666">[int(11)]</text>
<polygon fill="none" stroke="#000000" points="211.5,-1032.5 211.5,-1062.5 691.5,-1062.5 691.5,-1032.5 211.5,-1032.5"/>
<text text-anchor="start" x="218.5" y="-1043.9" font-family="Arial" font-size="14.00" fill="#000000">is_max_room_price_enabled    </text>
<text text-anchor="start" x="432.406" y="-1043.9" font-family="Arial" font-size="14.00" fill="#666666">[tinyint(1)]</text>
<polygon fill="none" stroke="#000000" points="211.5,-1002.5 211.5,-1032.5 691.5,-1032.5 691.5,-1002.5 211.5,-1002.5"/>
<text text-anchor="start" x="218.5" y="-1013.9" font-family="Arial" font-size="14.00" fill="#000000">is_room_charge_hour_weeks_enabled    </text>
<text text-anchor="start" x="493.8842" y="-1013.9" font-family="Arial" font-size="14.00" fill="#666666">[tinyint(1)]</text>
<polygon fill="none" stroke="#000000" points="211.5,-972.5 211.5,-1002.5 691.5,-1002.5 691.5,-972.5 211.5,-972.5"/>
<text text-anchor="start" x="218.5" y="-983.9" font-family="Arial" font-size="14.00" fill="#000000">allow_custom_invoice_monthly_send_day    </text>
<text text-anchor="start" x="514.0988" y="-983.9" font-family="Arial" font-size="14.00" fill="#666666">[tinyint(1)]</text>
<polygon fill="none" stroke="#000000" points="211.5,-942.5 211.5,-972.5 691.5,-972.5 691.5,-942.5 211.5,-942.5"/>
<text text-anchor="start" x="218.5" y="-953.9" font-family="Arial" font-size="14.00" fill="#000000">is_meeting_name_required    </text>
<text text-anchor="start" x="422.2966" y="-953.9" font-family="Arial" font-size="14.00" fill="#666666">[tinyint(1)]</text>
<polygon fill="none" stroke="#000000" points="211.5,-912.5 211.5,-942.5 691.5,-942.5 691.5,-912.5 211.5,-912.5"/>
<text text-anchor="start" x="218.5" y="-923.9" font-family="Arial" font-size="14.00" fill="#000000">is_show_meeting_name    </text>
<text text-anchor="start" x="403.6276" y="-923.9" font-family="Arial" font-size="14.00" fill="#666666">[tinyint(1)]</text>
<polygon fill="none" stroke="#000000" points="211.5,-882.5 211.5,-912.5 691.5,-912.5 691.5,-882.5 211.5,-882.5"/>
<text text-anchor="start" x="218.5" y="-893.9" font-family="Arial" font-size="14.00" fill="#000000">meeting_name_placeholder_text    </text>
<text text-anchor="start" x="455.765" y="-893.9" font-family="Arial" font-size="14.00" fill="#666666">[varchar(100)]</text>
<polygon fill="none" stroke="#000000" points="211.5,-852.5 211.5,-882.5 691.5,-882.5 691.5,-852.5 211.5,-852.5"/>
<text text-anchor="start" x="218.5" y="-863.9" font-family="Arial" font-size="14.00" fill="#000000">is_group_reservation_limit_number_enabled    </text>
<text text-anchor="start" x="528.8716" y="-863.9" font-family="Arial" font-size="14.00" fill="#666666">[tinyint(1)]</text>
<polygon fill="none" stroke="#000000" points="211.5,-822.5 211.5,-852.5 691.5,-852.5 691.5,-822.5 211.5,-822.5"/>
<text text-anchor="start" x="218.5" y="-833.9" font-family="Arial" font-size="14.00" fill="#000000">is_group_business_hours_setting_enabled    </text>
<text text-anchor="start" x="518.7986" y="-833.9" font-family="Arial" font-size="14.00" fill="#666666">[tinyint(1)]</text>
<polygon fill="none" stroke="#000000" points="211.5,-792.5 211.5,-822.5 691.5,-822.5 691.5,-792.5 211.5,-792.5"/>
<text text-anchor="start" x="218.5" y="-803.9" font-family="Arial" font-size="14.00" fill="#000000">default_auto_group_id    </text>
<text text-anchor="start" x="391.9894" y="-803.9" font-family="Arial" font-size="14.00" fill="#666666">[int(11) unsigned]</text>
<polygon fill="none" stroke="#000000" points="211.5,-762.5 211.5,-792.5 691.5,-792.5 691.5,-762.5 211.5,-762.5"/>
<text text-anchor="start" x="218.5" y="-773.9" font-family="Arial" font-size="14.00" fill="#000000">is_group_setup_unreservable_room_enabled    </text>
<text text-anchor="start" x="534.3484" y="-773.9" font-family="Arial" font-size="14.00" fill="#666666">[tinyint(1)]</text>
<polygon fill="none" stroke="#000000" points="211.5,-732.5 211.5,-762.5 691.5,-762.5 691.5,-732.5 211.5,-732.5"/>
<text text-anchor="start" x="218.5" y="-743.9" font-family="Arial" font-size="14.00" fill="#000000">is_group_reservation_limit_times_and_hours_enabled    </text>
<text text-anchor="start" x="588.7818" y="-743.9" font-family="Arial" font-size="14.00" fill="#666666">[tinyint(1)]</text>
<polygon fill="none" stroke="#000000" points="211.5,-702.5 211.5,-732.5 691.5,-732.5 691.5,-702.5 211.5,-702.5"/>
<text text-anchor="start" x="218.5" y="-713.9" font-family="Arial" font-size="14.00" fill="#000000">is_room_reservable_setting_enabled    </text>
<text text-anchor="start" x="482.2068" y="-713.9" font-family="Arial" font-size="14.00" fill="#666666">[tinyint(1)]</text>
<polygon fill="none" stroke="#000000" points="211.5,-672.5 211.5,-702.5 691.5,-702.5 691.5,-672.5 211.5,-672.5"/>
<text text-anchor="start" x="218.5" y="-683.9" font-family="Arial" font-size="14.00" fill="#000000">extend_after_reservation_time    </text>
<text text-anchor="start" x="441.7524" y="-683.9" font-family="Arial" font-size="14.00" fill="#666666">[int(11)]</text>
<polygon fill="none" stroke="#000000" points="211.5,-642.5 211.5,-672.5 691.5,-672.5 691.5,-642.5 211.5,-642.5"/>
<text text-anchor="start" x="218.5" y="-653.9" font-family="Arial" font-size="14.00" fill="#000000">allow_set_transfer_method_note    </text>
<text text-anchor="start" x="455.7636" y="-653.9" font-family="Arial" font-size="14.00" fill="#666666">[tinyint(1)]</text>
<polygon fill="none" stroke="#000000" points="211.5,-612.5 211.5,-642.5 691.5,-642.5 691.5,-612.5 211.5,-612.5"/>
<text text-anchor="start" x="218.5" y="-623.9" font-family="Arial" font-size="14.00" fill="#000000">reserve_csv_format_type    </text>
<text text-anchor="start" x="409.845" y="-623.9" font-family="Arial" font-size="14.00" fill="#666666">[tinyint(2)]</text>
<polygon fill="none" stroke="#000000" points="211.5,-582.5 211.5,-612.5 691.5,-612.5 691.5,-582.5 211.5,-582.5"/>
<text text-anchor="start" x="218.5" y="-593.9" font-family="Arial" font-size="14.00" fill="#000000">is_stripe_subscription_enabled    </text>
<text text-anchor="start" x="444.8618" y="-593.9" font-family="Arial" font-size="14.00" fill="#666666">[tinyint(1)]</text>
<polygon fill="none" stroke="#000000" points="211.5,-552.5 211.5,-582.5 691.5,-582.5 691.5,-552.5 211.5,-552.5"/>
<text text-anchor="start" x="218.5" y="-563.9" font-family="Arial" font-size="14.00" fill="#000000">is_group_max_usage_time_enabled    </text>
<text text-anchor="start" x="478.3316" y="-563.9" font-family="Arial" font-size="14.00" fill="#666666">[tinyint(1)]</text>
<polygon fill="none" stroke="#000000" points="211.5,-522.5 211.5,-552.5 691.5,-552.5 691.5,-522.5 211.5,-522.5"/>
<text text-anchor="start" x="218.5" y="-533.9" font-family="Arial" font-size="14.00" fill="#000000">is_room_buffer_time_setting_enabled    </text>
<text text-anchor="start" x="486.8786" y="-533.9" font-family="Arial" font-size="14.00" fill="#666666">[tinyint(1)]</text>
<polygon fill="none" stroke="#000000" points="211.5,-492.5 211.5,-522.5 691.5,-522.5 691.5,-492.5 211.5,-492.5"/>
<text text-anchor="start" x="218.1326" y="-503.9" font-family="Arial" font-size="14.00" fill="#000000">is_group_reservation_year_limit_times_and_hours_enabled    </text>
<text text-anchor="start" x="623.4228" y="-503.9" font-family="Arial" font-size="14.00" fill="#666666">[tinyint(1)]</text>
<polygon fill="none" stroke="#000000" points="211.5,-462.5 211.5,-492.5 691.5,-492.5 691.5,-462.5 211.5,-462.5"/>
<text text-anchor="start" x="218.5" y="-473.9" font-family="Arial" font-size="14.00" fill="#000000">is_group_display_reservation_limit_for_tenant_enabled    </text>
<text text-anchor="start" x="595.7916" y="-473.9" font-family="Arial" font-size="14.00" fill="#666666">[int(1)]</text>
<polygon fill="none" stroke="#000000" points="211.5,-432.5 211.5,-462.5 691.5,-462.5 691.5,-432.5 211.5,-432.5"/>
<text text-anchor="start" x="218.5" y="-443.9" font-family="Arial" font-size="14.00" fill="#000000">is_user_reserve_updatable_by_lessor_enabled    </text>
<text text-anchor="start" x="546.7944" y="-443.9" font-family="Arial" font-size="14.00" fill="#666666">[tinyint(1)]</text>
<polygon fill="none" stroke="#000000" points="211.5,-402.5 211.5,-432.5 691.5,-432.5 691.5,-402.5 211.5,-402.5"/>
<text text-anchor="start" x="218.5" y="-413.9" font-family="Arial" font-size="14.00" fill="#000000">is_reserve_status_updatable_by_lessor_enabled    </text>
<text text-anchor="start" x="556.915" y="-413.9" font-family="Arial" font-size="14.00" fill="#666666">[tinyint(1)]</text>
<polygon fill="none" stroke="#000000" points="211.5,-372.5 211.5,-402.5 691.5,-402.5 691.5,-372.5 211.5,-372.5"/>
<text text-anchor="start" x="218.5" y="-383.9" font-family="Arial" font-size="14.00" fill="#000000">is_group_reservable_setting_enabled    </text>
<text text-anchor="start" x="486.1114" y="-383.9" font-family="Arial" font-size="14.00" fill="#666666">[tinyint(1)]</text>
<polygon fill="none" stroke="#000000" points="211.5,-342.5 211.5,-372.5 691.5,-372.5 691.5,-342.5 211.5,-342.5"/>
<text text-anchor="start" x="218.5" y="-353.9" font-family="Arial" font-size="14.00" fill="#000000">is_reservation_limit_subgroup_enabled    </text>
<text text-anchor="start" x="496.2026" y="-353.9" font-family="Arial" font-size="14.00" fill="#666666">[tinyint(1)]</text>
<polygon fill="none" stroke="#000000" points="211.5,-312.5 211.5,-342.5 691.5,-342.5 691.5,-312.5 211.5,-312.5"/>
<text text-anchor="start" x="218.5" y="-323.9" font-family="Arial" font-size="14.00" fill="#000000">is_group_limitless_room_enabled    </text>
<text text-anchor="start" x="461.1816" y="-323.9" font-family="Arial" font-size="14.00" fill="#666666">[tinyint(1)]</text>
<polygon fill="none" stroke="#000000" points="211.5,-282.5 211.5,-312.5 691.5,-312.5 691.5,-282.5 211.5,-282.5"/>
<text text-anchor="start" x="218.5" y="-293.9" font-family="Arial" font-size="14.00" fill="#000000">is_lessor_create_user_reserve_enabled    </text>
<text text-anchor="start" x="501.6528" y="-293.9" font-family="Arial" font-size="14.00" fill="#666666">[tinyint(1)]</text>
<polygon fill="none" stroke="#000000" points="211.5,-252.5 211.5,-282.5 691.5,-282.5 691.5,-252.5 211.5,-252.5"/>
<text text-anchor="start" x="218.5" y="-263.9" font-family="Arial" font-size="14.00" fill="#000000">is_reserve_cancel_reminder_mail_enabled    </text>
<text text-anchor="start" x="519.5252" y="-263.9" font-family="Arial" font-size="14.00" fill="#666666">[tinyint(1)]</text>
<polygon fill="none" stroke="#000000" points="211.5,-222.5 211.5,-252.5 691.5,-252.5 691.5,-222.5 211.5,-222.5"/>
<text text-anchor="start" x="218.5" y="-233.9" font-family="Arial" font-size="14.00" fill="#000000">is_display_tenant_reservation_history_enabled    </text>
<text text-anchor="start" x="544.4536" y="-233.9" font-family="Arial" font-size="14.00" fill="#666666">[tinyint(1)]</text>
<polygon fill="none" stroke="#000000" points="211.5,-192.5 211.5,-222.5 691.5,-222.5 691.5,-192.5 211.5,-192.5"/>
<text text-anchor="start" x="218.5" y="-203.9" font-family="Arial" font-size="14.00" fill="#000000">is_room_one_day_rental_enabled    </text>
<text text-anchor="start" x="464.3316" y="-203.9" font-family="Arial" font-size="14.00" fill="#666666">[tinyint(1)]</text>
<polygon fill="none" stroke="#000000" points="211.5,-162.5 211.5,-192.5 691.5,-192.5 691.5,-162.5 211.5,-162.5"/>
<text text-anchor="start" x="218.5" y="-173.9" font-family="Arial" font-size="14.00" fill="#000000">is_auto_payout    </text>
<text text-anchor="start" x="347.636" y="-173.9" font-family="Arial" font-size="14.00" fill="#666666">[tinyint(1)]</text>
<polygon fill="none" stroke="#000000" points="211.5,-132.5 211.5,-162.5 691.5,-162.5 691.5,-132.5 211.5,-132.5"/>
<text text-anchor="start" x="218.5" y="-143.9" font-family="Arial" font-size="14.00" fill="#000000">is_room_lottery_setting_enabled    </text>
<text text-anchor="start" x="454.9796" y="-143.9" font-family="Arial" font-size="14.00" fill="#666666">[tinyint(1)]</text>
<polygon fill="none" stroke="#000000" points="211.5,-102.5 211.5,-132.5 691.5,-132.5 691.5,-102.5 211.5,-102.5"/>
<text text-anchor="start" x="218.5" y="-113.9" font-family="Arial" font-size="14.00" fill="#000000">is_display_estimate_button_enabled    </text>
<text text-anchor="start" x="479.1128" y="-113.9" font-family="Arial" font-size="14.00" fill="#666666">[tinyint(1)]</text>
<polygon fill="none" stroke="#000000" points="211.5,-72.5 211.5,-102.5 691.5,-102.5 691.5,-72.5 211.5,-72.5"/>
<text text-anchor="start" x="218.5" y="-83.9" font-family="Arial" font-size="14.00" fill="#000000">is_group_custom_cancel_policy_enabled    </text>
<text text-anchor="start" x="508.6668" y="-83.9" font-family="Arial" font-size="14.00" fill="#666666">[tinyint(1)]</text>
<polygon fill="none" stroke="#000000" points="211.5,-42.5 211.5,-72.5 691.5,-72.5 691.5,-42.5 211.5,-42.5"/>
<text text-anchor="start" x="218.5" y="-53.9" font-family="Arial" font-size="14.00" fill="#000000">status_updated_at    </text>
<text text-anchor="start" x="367.8758" y="-53.9" font-family="Arial" font-size="14.00" fill="#666666">[datetime]</text>
</g>
<!-- sk_cancel_policies&#45;&gt;sk_lessor_parents -->
<g id="edge3" class="edge">
<title>sk_cancel_policies:lessor_parent_id&#45;&gt;sk_lessor_parents:user_id</title>
<path fill="none" stroke="#000000" d="M606.5038,-2376.4048C647.5773,-2366.6316 630.0983,-2293.8865 596.5,-2257 538.6367,-2193.4737 269.3633,-2284.5263 211.5,-2221 183.517,-2190.2784 169.9444,-2127.5 211.5,-2127.5"/>
<polygon fill="#000000" stroke="#000000" points="606.4406,-2376.4116 596.0102,-2373.0267 601.4703,-2376.9558 596.5,-2377.5 596.5,-2377.5 596.5,-2377.5 601.4703,-2376.9558 596.9898,-2381.9733 606.4406,-2376.4116 606.4406,-2376.4116"/>
<text text-anchor="start" x="603.0405" y="-2387.5" font-family="Arial" font-size="10.00" fill="#000000">FOREIGN KEY (lessor_parent_id) REFERENCES sk_lessor_parents (user_id)</text>
</g>
<!-- sk_custom_cancel_policies -->
<g id="node2" class="node">
<title>sk_custom_cancel_policies</title>
<polygon fill="#efefef" stroke="transparent" points="43.5,-2717.5 43.5,-2752.5 402.5,-2752.5 402.5,-2717.5 43.5,-2717.5"/>
<polygon fill="none" stroke="#000000" points="43.5,-2717.5 43.5,-2752.5 402.5,-2752.5 402.5,-2717.5 43.5,-2717.5"/>
<text text-anchor="start" x="50.1963" y="-2730.3" font-family="Arial Bold" font-size="18.00" fill="#000000">sk_custom_cancel_policies</text>
<text text-anchor="start" x="268.2357" y="-2730.3" font-family="Arial" font-size="14.00" fill="#000000">    </text>
<text text-anchor="start" x="302.4405" y="-2730.3" font-family="Arial" font-size="14.00" fill="#666666">[BASE TABLE]</text>
<polygon fill="none" stroke="#000000" points="43.5,-2687.5 43.5,-2717.5 402.5,-2717.5 402.5,-2687.5 43.5,-2687.5"/>
<text text-anchor="start" x="50.5" y="-2698.9" font-family="Arial" font-size="14.00" fill="#000000">id    </text>
<text text-anchor="start" x="95.594" y="-2698.9" font-family="Arial" font-size="14.00" fill="#666666">[int(11) unsigned]</text>
<polygon fill="none" stroke="#000000" points="43.5,-2657.5 43.5,-2687.5 402.5,-2687.5 402.5,-2657.5 43.5,-2657.5"/>
<text text-anchor="start" x="50.5" y="-2668.9" font-family="Arial" font-size="14.00" fill="#000000">property_id    </text>
<text text-anchor="start" x="154.7188" y="-2668.9" font-family="Arial" font-size="14.00" fill="#666666">[int(11) unsigned]</text>
<polygon fill="none" stroke="#000000" points="43.5,-2627.5 43.5,-2657.5 402.5,-2657.5 402.5,-2627.5 43.5,-2627.5"/>
<text text-anchor="start" x="50.5" y="-2638.9" font-family="Arial" font-size="14.00" fill="#000000">origin_policy_id    </text>
<text text-anchor="start" x="181.1592" y="-2638.9" font-family="Arial" font-size="14.00" fill="#666666">[int(11) unsigned]</text>
<polygon fill="none" stroke="#000000" points="43.5,-2597.5 43.5,-2627.5 402.5,-2627.5 402.5,-2597.5 43.5,-2597.5"/>
<text text-anchor="start" x="50.5" y="-2608.9" font-family="Arial" font-size="14.00" fill="#000000">created_at    </text>
<text text-anchor="start" x="150.8422" y="-2608.9" font-family="Arial" font-size="14.00" fill="#666666">[timestamp]</text>
</g>
<!-- sk_custom_cancel_policies&#45;&gt;sk_cancel_policies -->
<g id="edge1" class="edge">
<title>sk_custom_cancel_policies:origin_policy_id&#45;&gt;sk_cancel_policies:id</title>
<path fill="none" stroke="#000000" d="M412.6234,-2640.9011C437.5601,-2631.704 420.5645,-2584.9069 402.5,-2555 377.3174,-2513.3085 330.6826,-2545.6915 305.5,-2504 283.3254,-2467.2884 262.6111,-2407.5 305.5,-2407.5"/>
<polygon fill="#000000" stroke="#000000" points="412.3776,-2640.9399 401.7979,-2638.0551 407.4388,-2641.7199 402.5,-2642.5 402.5,-2642.5 402.5,-2642.5 407.4388,-2641.7199 403.2021,-2646.9449 412.3776,-2640.9399 412.3776,-2640.9399"/>
<text text-anchor="start" x="409.9385" y="-2652.5" font-family="Arial" font-size="10.00" fill="#000000">FOREIGN KEY (origin_policy_id) REFERENCES sk_cancel_policies (id)</text>
</g>
<!-- sk_group_cancel_policies -->
<g id="node3" class="node">
<title>sk_group_cancel_policies</title>
<polygon fill="#efefef" stroke="transparent" points="506.5,-2732.5 506.5,-2767.5 853.5,-2767.5 853.5,-2732.5 506.5,-2732.5"/>
<polygon fill="none" stroke="#000000" points="506.5,-2732.5 506.5,-2767.5 853.5,-2767.5 853.5,-2732.5 506.5,-2732.5"/>
<text text-anchor="start" x="513.1912" y="-2745.3" font-family="Arial Bold" font-size="18.00" fill="#000000">sk_group_cancel_policies</text>
<text text-anchor="start" x="719.2408" y="-2745.3" font-family="Arial" font-size="14.00" fill="#000000">    </text>
<text text-anchor="start" x="753.4456" y="-2745.3" font-family="Arial" font-size="14.00" fill="#666666">[BASE TABLE]</text>
<polygon fill="none" stroke="#000000" points="506.5,-2702.5 506.5,-2732.5 853.5,-2732.5 853.5,-2702.5 506.5,-2702.5"/>
<text text-anchor="start" x="513.5" y="-2713.9" font-family="Arial" font-size="14.00" fill="#000000">id    </text>
<text text-anchor="start" x="558.594" y="-2713.9" font-family="Arial" font-size="14.00" fill="#666666">[int(11) unsigned]</text>
<polygon fill="none" stroke="#000000" points="506.5,-2672.5 506.5,-2702.5 853.5,-2702.5 853.5,-2672.5 506.5,-2672.5"/>
<text text-anchor="start" x="513.5" y="-2683.9" font-family="Arial" font-size="14.00" fill="#000000">group_id    </text>
<text text-anchor="start" x="602.1676" y="-2683.9" font-family="Arial" font-size="14.00" fill="#666666">[int(11) unsigned]</text>
<polygon fill="none" stroke="#000000" points="506.5,-2642.5 506.5,-2672.5 853.5,-2672.5 853.5,-2642.5 506.5,-2642.5"/>
<text text-anchor="start" x="513.5" y="-2653.9" font-family="Arial" font-size="14.00" fill="#000000">origin_policy_id    </text>
<text text-anchor="start" x="644.1592" y="-2653.9" font-family="Arial" font-size="14.00" fill="#666666">[int(11) unsigned]</text>
<polygon fill="none" stroke="#000000" points="506.5,-2612.5 506.5,-2642.5 853.5,-2642.5 853.5,-2612.5 506.5,-2612.5"/>
<text text-anchor="start" x="513.5" y="-2623.9" font-family="Arial" font-size="14.00" fill="#000000">charge_percent    </text>
<text text-anchor="start" x="644.96" y="-2623.9" font-family="Arial" font-size="14.00" fill="#666666">[smallint(3) unsigned]</text>
<polygon fill="none" stroke="#000000" points="506.5,-2582.5 506.5,-2612.5 853.5,-2612.5 853.5,-2582.5 506.5,-2582.5"/>
<text text-anchor="start" x="513.5" y="-2593.9" font-family="Arial" font-size="14.00" fill="#000000">created_at    </text>
<text text-anchor="start" x="613.8422" y="-2593.9" font-family="Arial" font-size="14.00" fill="#666666">[timestamp]</text>
</g>
<!-- sk_group_cancel_policies&#45;&gt;sk_cancel_policies -->
<g id="edge2" class="edge">
<title>sk_group_cancel_policies:origin_policy_id&#45;&gt;sk_cancel_policies:id</title>
<path fill="none" stroke="#000000" d="M496.0864,-2656.3159C457.7185,-2646.6484 479.3956,-2580.034 506.5,-2540 530.6526,-2504.3258 572.3474,-2539.6742 596.5,-2504 620.5447,-2468.4851 639.3889,-2407.5 596.5,-2407.5"/>
<polygon fill="#000000" stroke="#000000" points="496.564,-2656.3702 505.9916,-2661.9712 501.532,-2656.9351 506.5,-2657.5 506.5,-2657.5 506.5,-2657.5 501.532,-2656.9351 507.0084,-2653.0288 496.564,-2656.3702 496.564,-2656.3702"/>
<text text-anchor="start" x="513.9385" y="-2667.5" font-family="Arial" font-size="10.00" fill="#000000">FOREIGN KEY (origin_policy_id) REFERENCES sk_cancel_policies (id)</text>
</g>
</g>
</svg>
