<?xml version="1.0" encoding="UTF-8" standalone="no"?>
<!DOCTYPE svg PUBLIC "-//W3C//DTD SVG 1.1//EN"
 "http://www.w3.org/Graphics/SVG/1.1/DTD/svg11.dtd">
<!-- Generated by graphviz version 2.40.1 (20161225.0304)
 -->
<!-- Title: sk_facility_images Pages: 1 -->
<svg width="617pt" height="802pt"
 viewBox="0.00 0.00 616.50 802.00" xmlns="http://www.w3.org/2000/svg" xmlns:xlink="http://www.w3.org/1999/xlink">
<g id="graph0" class="graph" transform="scale(1 1) rotate(0) translate(4 798)">
<title>sk_facility_images</title>
<polygon fill="#ffffff" stroke="transparent" points="-4,4 -4,-798 612.5,-798 612.5,4 -4,4"/>
<!-- sk_facility_images -->
<g id="node1" class="node">
<title>sk_facility_images</title>
<polygon fill="#efefef" stroke="transparent" points="46.5,-712.5 46.5,-747.5 333.5,-747.5 333.5,-712.5 46.5,-712.5"/>
<polygon fill="none" stroke="#000000" points="46.5,-712.5 46.5,-747.5 333.5,-747.5 333.5,-712.5 46.5,-712.5"/>
<text text-anchor="start" x="53.2107" y="-725.3" font-family="Arial Bold" font-size="18.00" fill="#000000">sk_facility_images</text>
<text text-anchor="start" x="199.2213" y="-725.3" font-family="Arial" font-size="14.00" fill="#000000">    </text>
<text text-anchor="start" x="233.4261" y="-725.3" font-family="Arial" font-size="14.00" fill="#666666">[BASE TABLE]</text>
<polygon fill="none" stroke="#000000" points="46.5,-682.5 46.5,-712.5 333.5,-712.5 333.5,-682.5 46.5,-682.5"/>
<text text-anchor="start" x="53.5" y="-693.9" font-family="Arial" font-size="14.00" fill="#000000">id </text>
<text text-anchor="start" x="68.2798" y="-693.9" font-family="Arial" font-size="14.00" fill="#666666">[bigint(21) unsigned]</text>
<polygon fill="none" stroke="#000000" points="46.5,-652.5 46.5,-682.5 333.5,-682.5 333.5,-652.5 46.5,-652.5"/>
<text text-anchor="start" x="53.5" y="-663.9" font-family="Arial" font-size="14.00" fill="#000000">facility_id </text>
<text text-anchor="start" x="114.946" y="-663.9" font-family="Arial" font-size="14.00" fill="#666666">[int(11) unsigned]</text>
<polygon fill="none" stroke="#000000" points="46.5,-622.5 46.5,-652.5 333.5,-652.5 333.5,-622.5 46.5,-622.5"/>
<text text-anchor="start" x="53.5" y="-633.9" font-family="Arial" font-size="14.00" fill="#000000">image </text>
<text text-anchor="start" x="95.5056" y="-633.9" font-family="Arial" font-size="14.00" fill="#666666">[varchar(1000)]</text>
<polygon fill="none" stroke="#000000" points="46.5,-592.5 46.5,-622.5 333.5,-622.5 333.5,-592.5 46.5,-592.5"/>
<text text-anchor="start" x="53.5" y="-603.9" font-family="Arial" font-size="14.00" fill="#000000">sort_order </text>
<text text-anchor="start" x="121.176" y="-603.9" font-family="Arial" font-size="14.00" fill="#666666">[smallint(6) unsigned]</text>
<polygon fill="none" stroke="#000000" stroke-width="3" points="44.5,-591.5 44.5,-749.5 334.5,-749.5 334.5,-591.5 44.5,-591.5"/>
</g>
<!-- sk_facilities -->
<g id="node2" class="node">
<title>sk_facilities</title>
<polygon fill="#efefef" stroke="transparent" points="51.5,-432.5 51.5,-467.5 329.5,-467.5 329.5,-432.5 51.5,-432.5"/>
<polygon fill="none" stroke="#000000" points="51.5,-432.5 51.5,-467.5 329.5,-467.5 329.5,-432.5 51.5,-432.5"/>
<text text-anchor="start" x="80.7161" y="-445.3" font-family="Arial Bold" font-size="18.00" fill="#000000">sk_facilities</text>
<text text-anchor="start" x="172.7159" y="-445.3" font-family="Arial" font-size="14.00" fill="#000000">    </text>
<text text-anchor="start" x="206.9207" y="-445.3" font-family="Arial" font-size="14.00" fill="#666666">[BASE TABLE]</text>
<polygon fill="none" stroke="#000000" points="51.5,-402.5 51.5,-432.5 329.5,-432.5 329.5,-402.5 51.5,-402.5"/>
<text text-anchor="start" x="58.5" y="-413.9" font-family="Arial" font-size="14.00" fill="#000000">id    </text>
<text text-anchor="start" x="103.594" y="-413.9" font-family="Arial" font-size="14.00" fill="#666666">[int(11) unsigned]</text>
<polygon fill="none" stroke="#000000" points="51.5,-372.5 51.5,-402.5 329.5,-402.5 329.5,-372.5 51.5,-372.5"/>
<text text-anchor="start" x="58.5" y="-383.9" font-family="Arial" font-size="14.00" fill="#000000">is_deleted    </text>
<text text-anchor="start" x="156.5042" y="-383.9" font-family="Arial" font-size="14.00" fill="#666666">[tinyint(1)]</text>
<polygon fill="none" stroke="#000000" points="51.5,-342.5 51.5,-372.5 329.5,-372.5 329.5,-342.5 51.5,-342.5"/>
<text text-anchor="start" x="58.5" y="-353.9" font-family="Arial" font-size="14.00" fill="#000000">property_id    </text>
<text text-anchor="start" x="162.7188" y="-353.9" font-family="Arial" font-size="14.00" fill="#666666">[int(11) unsigned]</text>
<polygon fill="none" stroke="#000000" points="51.5,-312.5 51.5,-342.5 329.5,-342.5 329.5,-312.5 51.5,-312.5"/>
<text text-anchor="start" x="58.5" y="-323.9" font-family="Arial" font-size="14.00" fill="#000000">lessor_id    </text>
<text text-anchor="start" x="148.709" y="-323.9" font-family="Arial" font-size="14.00" fill="#666666">[int(11) unsigned]</text>
<polygon fill="none" stroke="#000000" points="51.5,-282.5 51.5,-312.5 329.5,-312.5 329.5,-282.5 51.5,-282.5"/>
<text text-anchor="start" x="58.5" y="-293.9" font-family="Arial" font-size="14.00" fill="#000000">name    </text>
<text text-anchor="start" x="127.7132" y="-293.9" font-family="Arial" font-size="14.00" fill="#666666">[varchar(200)]</text>
<polygon fill="none" stroke="#000000" points="51.5,-252.5 51.5,-282.5 329.5,-282.5 329.5,-252.5 51.5,-252.5"/>
<text text-anchor="start" x="58.5" y="-263.9" font-family="Arial" font-size="14.00" fill="#000000">is_all_rooms    </text>
<text text-anchor="start" x="171.2588" y="-263.9" font-family="Arial" font-size="14.00" fill="#666666">[tinyint(1)]</text>
<polygon fill="none" stroke="#000000" points="51.5,-222.5 51.5,-252.5 329.5,-252.5 329.5,-222.5 51.5,-222.5"/>
<text text-anchor="start" x="58.2651" y="-233.9" font-family="Arial" font-size="14.00" fill="#000000">facility_image_id    </text>
<text text-anchor="start" x="195.9229" y="-233.9" font-family="Arial" font-size="14.00" fill="#666666">[bigint(21) unsigned]</text>
<polygon fill="none" stroke="#000000" points="51.5,-192.5 51.5,-222.5 329.5,-222.5 329.5,-192.5 51.5,-192.5"/>
<text text-anchor="start" x="58.5" y="-203.9" font-family="Arial" font-size="14.00" fill="#000000">is_ninjalock    </text>
<text text-anchor="start" x="165.0442" y="-203.9" font-family="Arial" font-size="14.00" fill="#666666">[tinyint(1)]</text>
<polygon fill="none" stroke="#000000" points="51.5,-162.5 51.5,-192.5 329.5,-192.5 329.5,-162.5 51.5,-162.5"/>
<text text-anchor="start" x="58.5" y="-173.9" font-family="Arial" font-size="14.00" fill="#000000">is_tablet_linked    </text>
<text text-anchor="start" x="189.1732" y="-173.9" font-family="Arial" font-size="14.00" fill="#666666">[int(11)]</text>
<polygon fill="none" stroke="#000000" points="51.5,-132.5 51.5,-162.5 329.5,-162.5 329.5,-132.5 51.5,-132.5"/>
<text text-anchor="start" x="58.5" y="-143.9" font-family="Arial" font-size="14.00" fill="#000000">batch_mail    </text>
<text text-anchor="start" x="160.3822" y="-143.9" font-family="Arial" font-size="14.00" fill="#666666">[int(11)]</text>
<polygon fill="none" stroke="#000000" points="51.5,-102.5 51.5,-132.5 329.5,-132.5 329.5,-102.5 51.5,-102.5"/>
<text text-anchor="start" x="58.5" y="-113.9" font-family="Arial" font-size="14.00" fill="#000000">batch_mail_owner    </text>
<text text-anchor="start" x="206.2798" y="-113.9" font-family="Arial" font-size="14.00" fill="#666666">[int(11)]</text>
<polygon fill="none" stroke="#000000" points="51.5,-72.5 51.5,-102.5 329.5,-102.5 329.5,-72.5 51.5,-72.5"/>
<text text-anchor="start" x="58.5" y="-83.9" font-family="Arial" font-size="14.00" fill="#000000">is_ninjaentrance    </text>
<text text-anchor="start" x="194.6192" y="-83.9" font-family="Arial" font-size="14.00" fill="#666666">[int(11)]</text>
<polygon fill="none" stroke="#000000" points="51.5,-42.5 51.5,-72.5 329.5,-72.5 329.5,-42.5 51.5,-42.5"/>
<text text-anchor="start" x="58.5" y="-53.9" font-family="Arial" font-size="14.00" fill="#000000">ninjaentrance_serial    </text>
<text text-anchor="start" x="217.9516" y="-53.9" font-family="Arial" font-size="14.00" fill="#666666">[varchar(30)]</text>
</g>
<!-- sk_facility_images&#45;&gt;sk_facilities -->
<g id="edge1" class="edge">
<title>sk_facility_images:facility_id&#45;&gt;sk_facilities:id</title>
<path fill="none" stroke="#000000" d="M343.495,-666.4127C384.4916,-656.7083 366.4713,-584.448 333.5,-547 250.005,-452.1684 134.995,-605.8316 51.5,-511 24.0392,-479.8107 9.9444,-417.5 51.5,-417.5"/>
<polygon fill="#000000" stroke="#000000" points="343.4413,-666.4184 333.0133,-663.0264 338.4707,-666.9592 333.5,-667.5 333.5,-667.5 333.5,-667.5 338.4707,-666.9592 333.9867,-671.9736 343.4413,-666.4184 343.4413,-666.4184"/>
<text text-anchor="start" x="340.9495" y="-677.5" font-family="Arial" font-size="10.00" fill="#000000">FOREIGN KEY (facility_id) REFERENCES sk_facilities (id)</text>
</g>
</g>
</svg>
