<?xml version="1.0" encoding="UTF-8" standalone="no"?>
<!DOCTYPE svg PUBLIC "-//W3C//DTD SVG 1.1//EN"
 "http://www.w3.org/Graphics/SVG/1.1/DTD/svg11.dtd">
<!-- Generated by graphviz version 2.40.1 (20161225.0304)
 -->
<!-- Title: sk_google_tokens Pages: 1 -->
<svg width="796pt" height="1679pt"
 viewBox="0.00 0.00 796.00 1679.00" xmlns="http://www.w3.org/2000/svg" xmlns:xlink="http://www.w3.org/1999/xlink">
<g id="graph0" class="graph" transform="scale(1 1) rotate(0) translate(4 1675)">
<title>sk_google_tokens</title>
<polygon fill="#ffffff" stroke="transparent" points="-4,4 -4,-1675 792,-1675 792,4 -4,4"/>
<!-- sk_google_tokens -->
<g id="node1" class="node">
<title>sk_google_tokens</title>
<polygon fill="#efefef" stroke="transparent" points="112,-1222.5 112,-1257.5 398,-1257.5 398,-1222.5 112,-1222.5"/>
<polygon fill="none" stroke="#000000" points="112,-1222.5 112,-1257.5 398,-1257.5 398,-1222.5 112,-1222.5"/>
<text text-anchor="start" x="118.6868" y="-1235.3" font-family="Arial Bold" font-size="18.00" fill="#000000">sk_google_tokens</text>
<text text-anchor="start" x="263.7452" y="-1235.3" font-family="Arial" font-size="14.00" fill="#000000">    </text>
<text text-anchor="start" x="297.95" y="-1235.3" font-family="Arial" font-size="14.00" fill="#666666">[BASE TABLE]</text>
<polygon fill="none" stroke="#000000" points="112,-1192.5 112,-1222.5 398,-1222.5 398,-1192.5 112,-1192.5"/>
<text text-anchor="start" x="119" y="-1203.9" font-family="Arial" font-size="14.00" fill="#000000">id </text>
<text text-anchor="start" x="133.7798" y="-1203.9" font-family="Arial" font-size="14.00" fill="#666666">[int(11) unsigned]</text>
<polygon fill="none" stroke="#000000" points="112,-1162.5 112,-1192.5 398,-1192.5 398,-1162.5 112,-1162.5"/>
<text text-anchor="start" x="119" y="-1173.9" font-family="Arial" font-size="14.00" fill="#000000">refresh_token </text>
<text text-anchor="start" x="208.4712" y="-1173.9" font-family="Arial" font-size="14.00" fill="#666666">[varchar(255)]</text>
<polygon fill="none" stroke="#000000" points="112,-1132.5 112,-1162.5 398,-1162.5 398,-1132.5 112,-1132.5"/>
<text text-anchor="start" x="119" y="-1143.9" font-family="Arial" font-size="14.00" fill="#000000">email </text>
<text text-anchor="start" x="156.3296" y="-1143.9" font-family="Arial" font-size="14.00" fill="#666666">[varchar(255)]</text>
<polygon fill="none" stroke="#000000" points="112,-1102.5 112,-1132.5 398,-1132.5 398,-1102.5 112,-1102.5"/>
<text text-anchor="start" x="119" y="-1113.9" font-family="Arial" font-size="14.00" fill="#000000">user_id </text>
<text text-anchor="start" x="168.7882" y="-1113.9" font-family="Arial" font-size="14.00" fill="#666666">[int(11) unsigned]</text>
<polygon fill="none" stroke="#000000" stroke-width="3" points="110.5,-1101.5 110.5,-1259.5 399.5,-1259.5 399.5,-1101.5 110.5,-1101.5"/>
</g>
<!-- sk_users -->
<g id="node3" class="node">
<title>sk_users</title>
<polygon fill="#efefef" stroke="transparent" points="104,-942.5 104,-977.5 405,-977.5 405,-942.5 104,-942.5"/>
<polygon fill="none" stroke="#000000" points="104,-942.5 104,-977.5 405,-977.5 405,-942.5 104,-942.5"/>
<text text-anchor="start" x="154.7106" y="-955.3" font-family="Arial Bold" font-size="18.00" fill="#000000">sk_users</text>
<text text-anchor="start" x="226.7214" y="-955.3" font-family="Arial" font-size="14.00" fill="#000000">    </text>
<text text-anchor="start" x="260.9262" y="-955.3" font-family="Arial" font-size="14.00" fill="#666666">[BASE TABLE]</text>
<polygon fill="none" stroke="#000000" points="104,-912.5 104,-942.5 405,-942.5 405,-912.5 104,-912.5"/>
<text text-anchor="start" x="111" y="-923.9" font-family="Arial" font-size="14.00" fill="#000000">id    </text>
<text text-anchor="start" x="156.094" y="-923.9" font-family="Arial" font-size="14.00" fill="#666666">[int(11) unsigned]</text>
<polygon fill="none" stroke="#000000" points="104,-882.5 104,-912.5 405,-912.5 405,-882.5 104,-882.5"/>
<text text-anchor="start" x="111" y="-893.9" font-family="Arial" font-size="14.00" fill="#000000">is_deleted    </text>
<text text-anchor="start" x="209.0042" y="-893.9" font-family="Arial" font-size="14.00" fill="#666666">[tinyint(1)]</text>
<polygon fill="none" stroke="#000000" points="104,-852.5 104,-882.5 405,-882.5 405,-852.5 104,-852.5"/>
<text text-anchor="start" x="111" y="-863.9" font-family="Arial" font-size="14.00" fill="#000000">email    </text>
<text text-anchor="start" x="178.6438" y="-863.9" font-family="Arial" font-size="14.00" fill="#666666">[varchar(255)]</text>
<polygon fill="none" stroke="#000000" points="104,-822.5 104,-852.5 405,-852.5 405,-822.5 104,-822.5"/>
<text text-anchor="start" x="111" y="-833.9" font-family="Arial" font-size="14.00" fill="#000000">password    </text>
<text text-anchor="start" x="205.1024" y="-833.9" font-family="Arial" font-size="14.00" fill="#666666">[varchar(255)]</text>
<polygon fill="none" stroke="#000000" points="104,-792.5 104,-822.5 405,-822.5 405,-792.5 104,-792.5"/>
<text text-anchor="start" x="111" y="-803.9" font-family="Arial" font-size="14.00" fill="#000000">role    </text>
<text text-anchor="start" x="168.5372" y="-803.9" font-family="Arial" font-size="14.00" fill="#666666">[smallint(6)]</text>
<polygon fill="none" stroke="#000000" points="104,-762.5 104,-792.5 405,-792.5 405,-762.5 104,-762.5"/>
<text text-anchor="start" x="111" y="-773.9" font-family="Arial" font-size="14.00" fill="#000000">last_name    </text>
<text text-anchor="start" x="209.7756" y="-773.9" font-family="Arial" font-size="14.00" fill="#666666">[varchar(40)]</text>
<polygon fill="none" stroke="#000000" points="104,-732.5 104,-762.5 405,-762.5 405,-732.5 104,-732.5"/>
<text text-anchor="start" x="111" y="-743.9" font-family="Arial" font-size="14.00" fill="#000000">last_name_kana    </text>
<text text-anchor="start" x="247.906" y="-743.9" font-family="Arial" font-size="14.00" fill="#666666">[varchar(40)]</text>
<polygon fill="none" stroke="#000000" points="104,-702.5 104,-732.5 405,-732.5 405,-702.5 104,-702.5"/>
<text text-anchor="start" x="111" y="-713.9" font-family="Arial" font-size="14.00" fill="#000000">first_name    </text>
<text text-anchor="start" x="210.5442" y="-713.9" font-family="Arial" font-size="14.00" fill="#666666">[varchar(40)]</text>
<polygon fill="none" stroke="#000000" points="104,-672.5 104,-702.5 405,-702.5 405,-672.5 104,-672.5"/>
<text text-anchor="start" x="111" y="-683.9" font-family="Arial" font-size="14.00" fill="#000000">first_name_kana    </text>
<text text-anchor="start" x="248.6746" y="-683.9" font-family="Arial" font-size="14.00" fill="#666666">[varchar(40)]</text>
<polygon fill="none" stroke="#000000" points="104,-642.5 104,-672.5 405,-672.5 405,-642.5 104,-642.5"/>
<text text-anchor="start" x="111" y="-653.9" font-family="Arial" font-size="14.00" fill="#000000">postal    </text>
<text text-anchor="start" x="182.5498" y="-653.9" font-family="Arial" font-size="14.00" fill="#666666">[varchar(8)]</text>
<polygon fill="none" stroke="#000000" points="104,-612.5 104,-642.5 405,-642.5 405,-612.5 104,-612.5"/>
<text text-anchor="start" x="111" y="-623.9" font-family="Arial" font-size="14.00" fill="#000000">mynavi_employee_id    </text>
<text text-anchor="start" x="276.6718" y="-623.9" font-family="Arial" font-size="14.00" fill="#666666">[varchar(255)]</text>
<polygon fill="none" stroke="#000000" points="104,-582.5 104,-612.5 405,-612.5 405,-582.5 104,-582.5"/>
<text text-anchor="start" x="111" y="-593.9" font-family="Arial" font-size="14.00" fill="#000000">prefecture    </text>
<text text-anchor="start" x="208.2202" y="-593.9" font-family="Arial" font-size="14.00" fill="#666666">[varchar(20)]</text>
<polygon fill="none" stroke="#000000" points="104,-552.5 104,-582.5 405,-582.5 405,-552.5 104,-552.5"/>
<text text-anchor="start" x="111" y="-563.9" font-family="Arial" font-size="14.00" fill="#000000">address    </text>
<text text-anchor="start" x="194.9958" y="-563.9" font-family="Arial" font-size="14.00" fill="#666666">[varchar(500)]</text>
<polygon fill="none" stroke="#000000" points="104,-522.5 104,-552.5 405,-552.5 405,-522.5 104,-522.5"/>
<text text-anchor="start" x="111" y="-533.9" font-family="Arial" font-size="14.00" fill="#000000">tel    </text>
<text text-anchor="start" x="159.9846" y="-533.9" font-family="Arial" font-size="14.00" fill="#666666">[varchar(13)]</text>
<polygon fill="none" stroke="#000000" points="104,-492.5 104,-522.5 405,-522.5 405,-492.5 104,-492.5"/>
<text text-anchor="start" x="111" y="-503.9" font-family="Arial" font-size="14.00" fill="#000000">is_registerd    </text>
<text text-anchor="start" x="217.5428" y="-503.9" font-family="Arial" font-size="14.00" fill="#666666">[tinyint(1) unsigned]</text>
<polygon fill="none" stroke="#000000" points="104,-462.5 104,-492.5 405,-492.5 405,-462.5 104,-462.5"/>
<text text-anchor="start" x="111" y="-473.9" font-family="Arial" font-size="14.00" fill="#000000">register_token    </text>
<text text-anchor="start" x="233.892" y="-473.9" font-family="Arial" font-size="14.00" fill="#666666">[varchar(64)]</text>
<polygon fill="none" stroke="#000000" points="104,-432.5 104,-462.5 405,-462.5 405,-432.5 104,-432.5"/>
<text text-anchor="start" x="111" y="-443.9" font-family="Arial" font-size="14.00" fill="#000000">register_created    </text>
<text text-anchor="start" x="246.3352" y="-443.9" font-family="Arial" font-size="14.00" fill="#666666">[datetime]</text>
<polygon fill="none" stroke="#000000" points="104,-402.5 104,-432.5 405,-432.5 405,-402.5 104,-402.5"/>
<text text-anchor="start" x="111" y="-413.9" font-family="Arial" font-size="14.00" fill="#000000">registerd_redirect_url    </text>
<text text-anchor="start" x="277.4348" y="-413.9" font-family="Arial" font-size="14.00" fill="#666666">[varchar(1000)]</text>
<polygon fill="none" stroke="#000000" points="104,-372.5 104,-402.5 405,-402.5 405,-372.5 104,-372.5"/>
<text text-anchor="start" x="110.9923" y="-383.9" font-family="Arial" font-size="14.00" fill="#000000">password_remember_token    </text>
<text text-anchor="start" x="318.6711" y="-383.9" font-family="Arial" font-size="14.00" fill="#666666">[varchar(64)]</text>
<polygon fill="none" stroke="#000000" points="104,-342.5 104,-372.5 405,-372.5 405,-342.5 104,-342.5"/>
<text text-anchor="start" x="111" y="-353.9" font-family="Arial" font-size="14.00" fill="#000000">password_remember_created    </text>
<text text-anchor="start" x="331.122" y="-353.9" font-family="Arial" font-size="14.00" fill="#666666">[datetime]</text>
<polygon fill="none" stroke="#000000" points="104,-312.5 104,-342.5 405,-342.5 405,-312.5 104,-312.5"/>
<text text-anchor="start" x="111" y="-323.9" font-family="Arial" font-size="14.00" fill="#000000">update_email    </text>
<text text-anchor="start" x="229.23" y="-323.9" font-family="Arial" font-size="14.00" fill="#666666">[varchar(255)]</text>
<polygon fill="none" stroke="#000000" points="104,-282.5 104,-312.5 405,-312.5 405,-282.5 104,-282.5"/>
<text text-anchor="start" x="111" y="-293.9" font-family="Arial" font-size="14.00" fill="#000000">update_email_token    </text>
<text text-anchor="start" x="271.251" y="-293.9" font-family="Arial" font-size="14.00" fill="#666666">[varchar(64)]</text>
<polygon fill="none" stroke="#000000" points="104,-252.5 104,-282.5 405,-282.5 405,-252.5 104,-252.5"/>
<text text-anchor="start" x="111" y="-263.9" font-family="Arial" font-size="14.00" fill="#000000">update_email_created    </text>
<text text-anchor="start" x="283.6942" y="-263.9" font-family="Arial" font-size="14.00" fill="#666666">[datetime]</text>
<polygon fill="none" stroke="#000000" points="104,-222.5 104,-252.5 405,-252.5 405,-222.5 104,-222.5"/>
<text text-anchor="start" x="111" y="-233.9" font-family="Arial" font-size="14.00" fill="#000000">user_image_id    </text>
<text text-anchor="start" x="237" y="-233.9" font-family="Arial" font-size="14.00" fill="#666666">[bigint(21) unsigned]</text>
<polygon fill="none" stroke="#000000" points="104,-192.5 104,-222.5 405,-222.5 405,-192.5 104,-192.5"/>
<text text-anchor="start" x="111" y="-203.9" font-family="Arial" font-size="14.00" fill="#000000">birthday    </text>
<text text-anchor="start" x="194.993" y="-203.9" font-family="Arial" font-size="14.00" fill="#666666">[date]</text>
<polygon fill="none" stroke="#000000" points="104,-162.5 104,-192.5 405,-192.5 405,-162.5 104,-162.5"/>
<text text-anchor="start" x="111" y="-173.9" font-family="Arial" font-size="14.00" fill="#000000">where_to_know    </text>
<text text-anchor="start" x="243.23" y="-173.9" font-family="Arial" font-size="14.00" fill="#666666">[smallint(6)]</text>
<polygon fill="none" stroke="#000000" points="104,-132.5 104,-162.5 405,-162.5 405,-132.5 104,-132.5"/>
<text text-anchor="start" x="111" y="-143.9" font-family="Arial" font-size="14.00" fill="#000000">apply_lessor_parent_ids    </text>
<text text-anchor="start" x="296.9102" y="-143.9" font-family="Arial" font-size="14.00" fill="#666666">[varchar(100)]</text>
<polygon fill="none" stroke="#000000" points="104,-102.5 104,-132.5 405,-132.5 405,-102.5 104,-102.5"/>
<text text-anchor="start" x="111" y="-113.9" font-family="Arial" font-size="14.00" fill="#000000">check_terms_date    </text>
<text text-anchor="start" x="259.568" y="-113.9" font-family="Arial" font-size="14.00" fill="#666666">[datetime]</text>
<polygon fill="none" stroke="#000000" points="104,-72.5 104,-102.5 405,-102.5 405,-72.5 104,-72.5"/>
<text text-anchor="start" x="111" y="-83.9" font-family="Arial" font-size="14.00" fill="#000000">created    </text>
<text text-anchor="start" x="191.8864" y="-83.9" font-family="Arial" font-size="14.00" fill="#666666">[datetime]</text>
<polygon fill="none" stroke="#000000" points="104,-42.5 104,-72.5 405,-72.5 405,-42.5 104,-42.5"/>
<text text-anchor="start" x="111" y="-53.9" font-family="Arial" font-size="14.00" fill="#000000">modified    </text>
<text text-anchor="start" x="198.0996" y="-53.9" font-family="Arial" font-size="14.00" fill="#666666">[datetime]</text>
</g>
<!-- sk_google_tokens&#45;&gt;sk_users -->
<g id="edge2" class="edge">
<title>sk_google_tokens:user_id&#45;&gt;sk_users:id</title>
<path fill="none" stroke="#000000" d="M255.7741,-1092.3245C265.6883,-1032.1494 368.1106,-1083.0261 405,-1021 426.2419,-985.2838 446.5556,-927.5 405,-927.5"/>
<polygon fill="#000000" stroke="#000000" points="255.7587,-1092.5288 250.513,-1102.1586 255.3793,-1097.5144 255,-1102.5 255,-1102.5 255,-1102.5 255.3793,-1097.5144 259.487,-1102.8414 255.7587,-1092.5288 255.7587,-1092.5288"/>
<text text-anchor="start" x="7.1655" y="-1112.5" font-family="Arial" font-size="10.00" fill="#000000">FOREIGN KEY (user_id) REFERENCES sk_users (id)</text>
</g>
<!-- sk_room_reserves_calendars -->
<g id="node2" class="node">
<title>sk_room_reserves_calendars</title>
<polygon fill="#efefef" stroke="transparent" points="66,-1592.5 66,-1627.5 443,-1627.5 443,-1592.5 66,-1592.5"/>
<polygon fill="none" stroke="#000000" points="66,-1592.5 66,-1627.5 443,-1627.5 443,-1592.5 66,-1592.5"/>
<text text-anchor="start" x="72.6981" y="-1605.3" font-family="Arial Bold" font-size="18.00" fill="#000000">sk_room_reserves_calendars</text>
<text text-anchor="start" x="308.7339" y="-1605.3" font-family="Arial" font-size="14.00" fill="#000000">    </text>
<text text-anchor="start" x="342.9387" y="-1605.3" font-family="Arial" font-size="14.00" fill="#666666">[BASE TABLE]</text>
<polygon fill="none" stroke="#000000" points="66,-1562.5 66,-1592.5 443,-1592.5 443,-1562.5 66,-1562.5"/>
<text text-anchor="start" x="73" y="-1573.9" font-family="Arial" font-size="14.00" fill="#000000">id    </text>
<text text-anchor="start" x="118.094" y="-1573.9" font-family="Arial" font-size="14.00" fill="#666666">[int(11) unsigned]</text>
<polygon fill="none" stroke="#000000" points="66,-1532.5 66,-1562.5 443,-1562.5 443,-1532.5 66,-1532.5"/>
<text text-anchor="start" x="73" y="-1543.9" font-family="Arial" font-size="14.00" fill="#000000">calendar_id    </text>
<text text-anchor="start" x="179.5568" y="-1543.9" font-family="Arial" font-size="14.00" fill="#666666">[varchar(100)]</text>
<polygon fill="none" stroke="#000000" points="66,-1502.5 66,-1532.5 443,-1532.5 443,-1502.5 66,-1502.5"/>
<text text-anchor="start" x="73" y="-1513.9" font-family="Arial" font-size="14.00" fill="#000000">calendar_token_id    </text>
<text text-anchor="start" x="221.5778" y="-1513.9" font-family="Arial" font-size="14.00" fill="#666666">[int(11) unsigned]</text>
<polygon fill="none" stroke="#000000" points="66,-1472.5 66,-1502.5 443,-1502.5 443,-1472.5 66,-1472.5"/>
<text text-anchor="start" x="73" y="-1483.9" font-family="Arial" font-size="14.00" fill="#000000">room_id    </text>
<text text-anchor="start" x="157.763" y="-1483.9" font-family="Arial" font-size="14.00" fill="#666666">[int(11) unsigned]</text>
<polygon fill="none" stroke="#000000" points="66,-1442.5 66,-1472.5 443,-1472.5 443,-1442.5 66,-1442.5"/>
<text text-anchor="start" x="73" y="-1453.9" font-family="Arial" font-size="14.00" fill="#000000">calendar_action_type    </text>
<text text-anchor="start" x="240.251" y="-1453.9" font-family="Arial" font-size="14.00" fill="#666666">[int(11)]</text>
<polygon fill="none" stroke="#000000" points="66,-1412.5 66,-1442.5 443,-1442.5 443,-1412.5 66,-1412.5"/>
<text text-anchor="start" x="73" y="-1423.9" font-family="Arial" font-size="14.00" fill="#000000">is_include_buffer_for_export    </text>
<text text-anchor="start" x="283.8078" y="-1423.9" font-family="Arial" font-size="14.00" fill="#666666">[tinyint(1)]</text>
<polygon fill="none" stroke="#000000" points="66,-1382.5 66,-1412.5 443,-1412.5 443,-1382.5 66,-1382.5"/>
<text text-anchor="start" x="73" y="-1393.9" font-family="Arial" font-size="14.00" fill="#000000">calendar_name    </text>
<text text-anchor="start" x="203.676" y="-1393.9" font-family="Arial" font-size="14.00" fill="#666666">[varchar(255)]</text>
</g>
<!-- sk_room_reserves_calendars&#45;&gt;sk_google_tokens -->
<g id="edge1" class="edge">
<title>sk_room_reserves_calendars:calendar_token_id&#45;&gt;sk_google_tokens:id</title>
<path fill="none" stroke="#000000" d="M453.0024,-1516.7971C519.4808,-1506.9497 493.3144,-1396.0833 443,-1340 393.591,-1284.9258 161.409,-1359.0742 112,-1304 83.3594,-1272.0755 69.1111,-1207.5 112,-1207.5"/>
<polygon fill="#000000" stroke="#000000" points="452.9754,-1516.7989 442.6845,-1513.0111 447.9877,-1517.1495 443,-1517.5 443,-1517.5 443,-1517.5 447.9877,-1517.1495 443.3155,-1521.9889 452.9754,-1516.7989 452.9754,-1516.7989"/>
<text text-anchor="start" x="450.419" y="-1527.5" font-family="Arial" font-size="10.00" fill="#000000">FOREIGN KEY (calendar_token_id) REFERENCES sk_google_tokens (id)</text>
</g>
</g>
</svg>
