<?xml version="1.0" encoding="UTF-8" standalone="no"?>
<!DOCTYPE svg PUBLIC "-//W3C//DTD SVG 1.1//EN"
 "http://www.w3.org/Graphics/SVG/1.1/DTD/svg11.dtd">
<!-- Generated by graphviz version 2.40.1 (20161225.0304)
 -->
<!-- Title: sk_groups_unreservable_rooms Pages: 1 -->
<svg width="935pt" height="2152pt"
 viewBox="0.00 0.00 935.00 2152.00" xmlns="http://www.w3.org/2000/svg" xmlns:xlink="http://www.w3.org/1999/xlink">
<g id="graph0" class="graph" transform="scale(1 1) rotate(0) translate(4 2148)">
<title>sk_groups_unreservable_rooms</title>
<polygon fill="#ffffff" stroke="transparent" points="-4,4 -4,-2148 931,-2148 931,4 -4,4"/>
<!-- sk_groups_unreservable_rooms -->
<g id="node1" class="node">
<title>sk_groups_unreservable_rooms</title>
<polygon fill="#efefef" stroke="transparent" points="267,-2062.5 267,-2097.5 665,-2097.5 665,-2062.5 267,-2062.5"/>
<polygon fill="none" stroke="#000000" points="267,-2062.5 267,-2097.5 665,-2097.5 665,-2062.5 267,-2062.5"/>
<text text-anchor="start" x="273.6888" y="-2075.3" font-family="Arial Bold" font-size="18.00" fill="#000000">sk_groups_unreservable_rooms</text>
<text text-anchor="start" x="530.7432" y="-2075.3" font-family="Arial" font-size="14.00" fill="#000000">    </text>
<text text-anchor="start" x="564.948" y="-2075.3" font-family="Arial" font-size="14.00" fill="#666666">[BASE TABLE]</text>
<polygon fill="none" stroke="#000000" points="267,-2032.5 267,-2062.5 665,-2062.5 665,-2032.5 267,-2032.5"/>
<text text-anchor="start" x="274" y="-2043.9" font-family="Arial" font-size="14.00" fill="#000000">id </text>
<text text-anchor="start" x="288.7798" y="-2043.9" font-family="Arial" font-size="14.00" fill="#666666">[int(11) unsigned]</text>
<polygon fill="none" stroke="#000000" points="267,-2002.5 267,-2032.5 665,-2032.5 665,-2002.5 267,-2002.5"/>
<text text-anchor="start" x="274" y="-2013.9" font-family="Arial" font-size="14.00" fill="#000000">group_id </text>
<text text-anchor="start" x="332.3534" y="-2013.9" font-family="Arial" font-size="14.00" fill="#666666">[int(11) unsigned]</text>
<polygon fill="none" stroke="#000000" points="267,-1972.5 267,-2002.5 665,-2002.5 665,-1972.5 267,-1972.5"/>
<text text-anchor="start" x="274" y="-1983.9" font-family="Arial" font-size="14.00" fill="#000000">room_id </text>
<text text-anchor="start" x="328.4488" y="-1983.9" font-family="Arial" font-size="14.00" fill="#666666">[int(11) unsigned]</text>
<polygon fill="none" stroke="#000000" stroke-width="3" points="265.5,-1971.5 265.5,-2099.5 666.5,-2099.5 666.5,-1971.5 265.5,-1971.5"/>
</g>
<!-- sk_groups -->
<g id="node2" class="node">
<title>sk_groups</title>
<polygon fill="#efefef" stroke="transparent" points="47,-1647.5 47,-1682.5 433,-1682.5 433,-1647.5 47,-1647.5"/>
<polygon fill="none" stroke="#000000" points="47,-1647.5 47,-1682.5 433,-1682.5 433,-1647.5 47,-1647.5"/>
<text text-anchor="start" x="134.7044" y="-1660.3" font-family="Arial Bold" font-size="18.00" fill="#000000">sk_groups</text>
<text text-anchor="start" x="217.7276" y="-1660.3" font-family="Arial" font-size="14.00" fill="#000000">    </text>
<text text-anchor="start" x="251.9324" y="-1660.3" font-family="Arial" font-size="14.00" fill="#666666">[BASE TABLE]</text>
<polygon fill="none" stroke="#000000" points="47,-1617.5 47,-1647.5 433,-1647.5 433,-1617.5 47,-1617.5"/>
<text text-anchor="start" x="54" y="-1628.9" font-family="Arial" font-size="14.00" fill="#000000">id    </text>
<text text-anchor="start" x="99.094" y="-1628.9" font-family="Arial" font-size="14.00" fill="#666666">[int(11) unsigned]</text>
<polygon fill="none" stroke="#000000" points="47,-1587.5 47,-1617.5 433,-1617.5 433,-1587.5 47,-1587.5"/>
<text text-anchor="start" x="54" y="-1598.9" font-family="Arial" font-size="14.00" fill="#000000">name    </text>
<text text-anchor="start" x="123.2132" y="-1598.9" font-family="Arial" font-size="14.00" fill="#666666">[varchar(255)]</text>
<polygon fill="none" stroke="#000000" points="47,-1557.5 47,-1587.5 433,-1587.5 433,-1557.5 47,-1557.5"/>
<text text-anchor="start" x="54" y="-1568.9" font-family="Arial" font-size="14.00" fill="#000000">lessor_parent_id    </text>
<text text-anchor="start" x="191.6732" y="-1568.9" font-family="Arial" font-size="14.00" fill="#666666">[int(11) unsigned]</text>
<polygon fill="none" stroke="#000000" points="47,-1527.5 47,-1557.5 433,-1557.5 433,-1527.5 47,-1527.5"/>
<text text-anchor="start" x="54" y="-1538.9" font-family="Arial" font-size="14.00" fill="#000000">subscription_id    </text>
<text text-anchor="start" x="181.554" y="-1538.9" font-family="Arial" font-size="14.00" fill="#666666">[int(11) unsigned]</text>
<polygon fill="none" stroke="#000000" points="47,-1497.5 47,-1527.5 433,-1527.5 433,-1497.5 47,-1497.5"/>
<text text-anchor="start" x="54" y="-1508.9" font-family="Arial" font-size="14.00" fill="#000000">payment_type    </text>
<text text-anchor="start" x="176.1248" y="-1508.9" font-family="Arial" font-size="14.00" fill="#666666">[smallint(6)]</text>
<polygon fill="none" stroke="#000000" points="47,-1467.5 47,-1497.5 433,-1497.5 433,-1467.5 47,-1467.5"/>
<text text-anchor="start" x="54" y="-1478.9" font-family="Arial" font-size="14.00" fill="#000000">discount_type    </text>
<text text-anchor="start" x="174.5708" y="-1478.9" font-family="Arial" font-size="14.00" fill="#666666">[smallint(6)]</text>
<polygon fill="none" stroke="#000000" points="47,-1437.5 47,-1467.5 433,-1467.5 433,-1437.5 47,-1437.5"/>
<text text-anchor="start" x="54" y="-1448.9" font-family="Arial" font-size="14.00" fill="#000000">discount_name    </text>
<text text-anchor="start" x="183.1234" y="-1448.9" font-family="Arial" font-size="14.00" fill="#666666">[varchar(255)]</text>
<polygon fill="none" stroke="#000000" points="47,-1407.5 47,-1437.5 433,-1437.5 433,-1407.5 47,-1407.5"/>
<text text-anchor="start" x="54" y="-1418.9" font-family="Arial" font-size="14.00" fill="#000000">discount_rate    </text>
<text text-anchor="start" x="172.2314" y="-1418.9" font-family="Arial" font-size="14.00" fill="#666666">[smallint(3)]</text>
<polygon fill="none" stroke="#000000" points="47,-1377.5 47,-1407.5 433,-1407.5 433,-1377.5 47,-1377.5"/>
<text text-anchor="start" x="54" y="-1388.9" font-family="Arial" font-size="14.00" fill="#000000">discount_price    </text>
<text text-anchor="start" x="178.4474" y="-1388.9" font-family="Arial" font-size="14.00" fill="#666666">[int(11)]</text>
<polygon fill="none" stroke="#000000" points="47,-1347.5 47,-1377.5 433,-1377.5 433,-1347.5 47,-1347.5"/>
<text text-anchor="start" x="54" y="-1358.9" font-family="Arial" font-size="14.00" fill="#000000">payment_method    </text>
<text text-anchor="start" x="196.3506" y="-1358.9" font-family="Arial" font-size="14.00" fill="#666666">[smallint(2)]</text>
<polygon fill="none" stroke="#000000" points="47,-1317.5 47,-1347.5 433,-1347.5 433,-1317.5 47,-1317.5"/>
<text text-anchor="start" x="54" y="-1328.9" font-family="Arial" font-size="14.00" fill="#000000">bank_name    </text>
<text text-anchor="start" x="161.3436" y="-1328.9" font-family="Arial" font-size="14.00" fill="#666666">[varchar(200)]</text>
<polygon fill="none" stroke="#000000" points="47,-1287.5 47,-1317.5 433,-1317.5 433,-1287.5 47,-1287.5"/>
<text text-anchor="start" x="54" y="-1298.9" font-family="Arial" font-size="14.00" fill="#000000">bank_branch_name    </text>
<text text-anchor="start" x="211.9172" y="-1298.9" font-family="Arial" font-size="14.00" fill="#666666">[varchar(200)]</text>
<polygon fill="none" stroke="#000000" points="47,-1257.5 47,-1287.5 433,-1287.5 433,-1257.5 47,-1257.5"/>
<text text-anchor="start" x="54" y="-1268.9" font-family="Arial" font-size="14.00" fill="#000000">bank_account_type    </text>
<text text-anchor="start" x="209.5946" y="-1268.9" font-family="Arial" font-size="14.00" fill="#666666">[smallint(2)]</text>
<polygon fill="none" stroke="#000000" points="47,-1227.5 47,-1257.5 433,-1257.5 433,-1227.5 47,-1227.5"/>
<text text-anchor="start" x="54" y="-1238.9" font-family="Arial" font-size="14.00" fill="#000000">bank_account_no    </text>
<text text-anchor="start" x="198.704" y="-1238.9" font-family="Arial" font-size="14.00" fill="#666666">[varchar(10)]</text>
<polygon fill="none" stroke="#000000" points="47,-1197.5 47,-1227.5 433,-1227.5 433,-1197.5 47,-1197.5"/>
<text text-anchor="start" x="54" y="-1208.9" font-family="Arial" font-size="14.00" fill="#000000">bank_account_holder    </text>
<text text-anchor="start" x="222.0364" y="-1208.9" font-family="Arial" font-size="14.00" fill="#666666">[varchar(200)]</text>
<polygon fill="none" stroke="#000000" points="47,-1167.5 47,-1197.5 433,-1197.5 433,-1167.5 47,-1167.5"/>
<text text-anchor="start" x="54" y="-1178.9" font-family="Arial" font-size="14.00" fill="#000000">is_creditcard_payment_method_enabled    </text>
<text text-anchor="start" x="341.056" y="-1178.9" font-family="Arial" font-size="14.00" fill="#666666">[tinyint(1)]</text>
<polygon fill="none" stroke="#000000" points="47,-1137.5 47,-1167.5 433,-1167.5 433,-1137.5 47,-1137.5"/>
<text text-anchor="start" x="54" y="-1148.9" font-family="Arial" font-size="14.00" fill="#000000">is_stripe_payment_method_enabled    </text>
<text text-anchor="start" x="313.8302" y="-1148.9" font-family="Arial" font-size="14.00" fill="#666666">[tinyint(1)]</text>
<polygon fill="none" stroke="#000000" points="47,-1107.5 47,-1137.5 433,-1137.5 433,-1107.5 47,-1107.5"/>
<text text-anchor="start" x="54" y="-1118.9" font-family="Arial" font-size="14.00" fill="#000000">is_bill_payment_method_enabled    </text>
<text text-anchor="start" x="296.7096" y="-1118.9" font-family="Arial" font-size="14.00" fill="#666666">[tinyint(1)]</text>
<polygon fill="none" stroke="#000000" points="47,-1077.5 47,-1107.5 433,-1107.5 433,-1077.5 47,-1077.5"/>
<text text-anchor="start" x="54" y="-1088.9" font-family="Arial" font-size="14.00" fill="#000000">is_onetime_bill_payment_method_enabled    </text>
<text text-anchor="start" x="354.2804" y="-1088.9" font-family="Arial" font-size="14.00" fill="#666666">[tinyint(1)]</text>
<polygon fill="none" stroke="#000000" points="47,-1047.5 47,-1077.5 433,-1077.5 433,-1047.5 47,-1047.5"/>
<text text-anchor="start" x="54" y="-1058.9" font-family="Arial" font-size="14.00" fill="#000000">is_local_payment_method_enabled    </text>
<text text-anchor="start" x="308.3856" y="-1058.9" font-family="Arial" font-size="14.00" fill="#666666">[tinyint(1)]</text>
<polygon fill="none" stroke="#000000" points="47,-1017.5 47,-1047.5 433,-1047.5 433,-1017.5 47,-1017.5"/>
<text text-anchor="start" x="54" y="-1028.9" font-family="Arial" font-size="14.00" fill="#000000">is_reservation_limit_times_daily_enabled    </text>
<text text-anchor="start" x="343.3478" y="-1028.9" font-family="Arial" font-size="14.00" fill="#666666">[tinyint(1)]</text>
<polygon fill="none" stroke="#000000" points="47,-987.5 47,-1017.5 433,-1017.5 433,-987.5 47,-987.5"/>
<text text-anchor="start" x="54" y="-998.9" font-family="Arial" font-size="14.00" fill="#000000">reservation_limit_times_daily    </text>
<text text-anchor="start" x="267.8738" y="-998.9" font-family="Arial" font-size="14.00" fill="#666666">[smallint(6)]</text>
<polygon fill="none" stroke="#000000" points="47,-957.5 47,-987.5 433,-987.5 433,-957.5 47,-957.5"/>
<text text-anchor="start" x="54" y="-968.9" font-family="Arial" font-size="14.00" fill="#000000">is_reservation_limit_hours_daily_enabled    </text>
<text text-anchor="start" x="344.9158" y="-968.9" font-family="Arial" font-size="14.00" fill="#666666">[tinyint(1)]</text>
<polygon fill="none" stroke="#000000" points="47,-927.5 47,-957.5 433,-957.5 433,-927.5 47,-927.5"/>
<text text-anchor="start" x="54" y="-938.9" font-family="Arial" font-size="14.00" fill="#000000">reservation_limit_hour_daily    </text>
<text text-anchor="start" x="262.4418" y="-938.9" font-family="Arial" font-size="14.00" fill="#666666">[smallint(6)]</text>
<polygon fill="none" stroke="#000000" points="47,-897.5 47,-927.5 433,-927.5 433,-897.5 47,-897.5"/>
<text text-anchor="start" x="54" y="-908.9" font-family="Arial" font-size="14.00" fill="#000000">reservation_limit_minute_daily    </text>
<text text-anchor="start" x="276.439" y="-908.9" font-family="Arial" font-size="14.00" fill="#666666">[smallint(6)]</text>
<polygon fill="none" stroke="#000000" points="47,-867.5 47,-897.5 433,-897.5 433,-867.5 47,-867.5"/>
<text text-anchor="start" x="54" y="-878.9" font-family="Arial" font-size="14.00" fill="#000000">is_reservation_limit_times_monthly_enabled    </text>
<text text-anchor="start" x="363.575" y="-878.9" font-family="Arial" font-size="14.00" fill="#666666">[tinyint(1)]</text>
<polygon fill="none" stroke="#000000" points="47,-837.5 47,-867.5 433,-867.5 433,-837.5 47,-837.5"/>
<text text-anchor="start" x="54" y="-848.9" font-family="Arial" font-size="14.00" fill="#000000">reservation_limit_times_monthly    </text>
<text text-anchor="start" x="288.101" y="-848.9" font-family="Arial" font-size="14.00" fill="#666666">[smallint(6)]</text>
<polygon fill="none" stroke="#000000" points="47,-807.5 47,-837.5 433,-837.5 433,-807.5 47,-807.5"/>
<text text-anchor="start" x="53.7062" y="-818.9" font-family="Arial" font-size="14.00" fill="#000000">is_reservation_limit_hours_monthly_enabled    </text>
<text text-anchor="start" x="364.8492" y="-818.9" font-family="Arial" font-size="14.00" fill="#666666">[tinyint(1)]</text>
<polygon fill="none" stroke="#000000" points="47,-777.5 47,-807.5 433,-807.5 433,-777.5 47,-777.5"/>
<text text-anchor="start" x="54" y="-788.9" font-family="Arial" font-size="14.00" fill="#000000">reservation_limit_hour_monthly    </text>
<text text-anchor="start" x="282.669" y="-788.9" font-family="Arial" font-size="14.00" fill="#666666">[smallint(6)]</text>
<polygon fill="none" stroke="#000000" points="47,-747.5 47,-777.5 433,-777.5 433,-747.5 47,-747.5"/>
<text text-anchor="start" x="54" y="-758.9" font-family="Arial" font-size="14.00" fill="#000000">reservation_limit_minute_monthly    </text>
<text text-anchor="start" x="296.6662" y="-758.9" font-family="Arial" font-size="14.00" fill="#666666">[smallint(6)]</text>
<polygon fill="none" stroke="#000000" points="47,-717.5 47,-747.5 433,-747.5 433,-717.5 47,-717.5"/>
<text text-anchor="start" x="54" y="-728.9" font-family="Arial" font-size="14.00" fill="#000000">is_reservation_limit_number_enabled    </text>
<text text-anchor="start" x="320.798" y="-728.9" font-family="Arial" font-size="14.00" fill="#666666">[tinyint(1)]</text>
<polygon fill="none" stroke="#000000" points="47,-687.5 47,-717.5 433,-717.5 433,-687.5 47,-687.5"/>
<text text-anchor="start" x="54" y="-698.9" font-family="Arial" font-size="14.00" fill="#000000">reservation_limit_number    </text>
<text text-anchor="start" x="245.324" y="-698.9" font-family="Arial" font-size="14.00" fill="#666666">[smallint(6)]</text>
<polygon fill="none" stroke="#000000" points="47,-657.5 47,-687.5 433,-687.5 433,-657.5 47,-657.5"/>
<text text-anchor="start" x="54" y="-668.9" font-family="Arial" font-size="14.00" fill="#000000">is_custom_business_hours_enabled    </text>
<text text-anchor="start" x="314.6058" y="-668.9" font-family="Arial" font-size="14.00" fill="#666666">[tinyint(1)]</text>
<polygon fill="none" stroke="#000000" points="47,-627.5 47,-657.5 433,-657.5 433,-627.5 47,-627.5"/>
<text text-anchor="start" x="54" y="-638.9" font-family="Arial" font-size="14.00" fill="#000000">is_setup_unreservable_room_enabled    </text>
<text text-anchor="start" x="326.2748" y="-638.9" font-family="Arial" font-size="14.00" fill="#666666">[tinyint(1)]</text>
<polygon fill="none" stroke="#000000" points="47,-597.5 47,-627.5 433,-627.5 433,-597.5 47,-597.5"/>
<text text-anchor="start" x="54" y="-608.9" font-family="Arial" font-size="14.00" fill="#000000">is_max_usage_time_enabled    </text>
<text text-anchor="start" x="270.258" y="-608.9" font-family="Arial" font-size="14.00" fill="#666666">[tinyint(1)]</text>
<polygon fill="none" stroke="#000000" points="47,-567.5 47,-597.5 433,-597.5 433,-567.5 47,-567.5"/>
<text text-anchor="start" x="54" y="-578.9" font-family="Arial" font-size="14.00" fill="#000000">max_usage_time    </text>
<text text-anchor="start" x="194.784" y="-578.9" font-family="Arial" font-size="14.00" fill="#666666">[time]</text>
<polygon fill="none" stroke="#000000" points="47,-537.5 47,-567.5 433,-567.5 433,-537.5 47,-537.5"/>
<text text-anchor="start" x="54" y="-548.9" font-family="Arial" font-size="14.00" fill="#000000">is_reservation_limit_times_yearly_enabled    </text>
<text text-anchor="start" x="351.9018" y="-548.9" font-family="Arial" font-size="14.00" fill="#666666">[tinyint(1)]</text>
<polygon fill="none" stroke="#000000" points="47,-507.5 47,-537.5 433,-537.5 433,-507.5 47,-507.5"/>
<text text-anchor="start" x="54" y="-518.9" font-family="Arial" font-size="14.00" fill="#000000">reservation_limit_times_yearly    </text>
<text text-anchor="start" x="276.4278" y="-518.9" font-family="Arial" font-size="14.00" fill="#666666">[smallint(6)]</text>
<polygon fill="none" stroke="#000000" points="47,-477.5 47,-507.5 433,-507.5 433,-477.5 47,-477.5"/>
<text text-anchor="start" x="54" y="-488.9" font-family="Arial" font-size="14.00" fill="#000000">is_reservation_limit_hours_yearly_enabled    </text>
<text text-anchor="start" x="353.4698" y="-488.9" font-family="Arial" font-size="14.00" fill="#666666">[tinyint(1)]</text>
<polygon fill="none" stroke="#000000" points="47,-447.5 47,-477.5 433,-477.5 433,-447.5 47,-447.5"/>
<text text-anchor="start" x="54" y="-458.9" font-family="Arial" font-size="14.00" fill="#000000">reservation_limit_hour_yearly    </text>
<text text-anchor="start" x="270.9958" y="-458.9" font-family="Arial" font-size="14.00" fill="#666666">[smallint(6)]</text>
<polygon fill="none" stroke="#000000" points="47,-417.5 47,-447.5 433,-447.5 433,-417.5 47,-417.5"/>
<text text-anchor="start" x="54" y="-428.9" font-family="Arial" font-size="14.00" fill="#000000">reservation_limit_minute_yearly    </text>
<text text-anchor="start" x="284.993" y="-428.9" font-family="Arial" font-size="14.00" fill="#666666">[smallint(1)]</text>
<polygon fill="none" stroke="#000000" points="47,-387.5 47,-417.5 433,-417.5 433,-387.5 47,-387.5"/>
<text text-anchor="start" x="54" y="-398.9" font-family="Arial" font-size="14.00" fill="#000000">is_set_reservable_time    </text>
<text text-anchor="start" x="232.1136" y="-398.9" font-family="Arial" font-size="14.00" fill="#666666">[tinyint(1)]</text>
<polygon fill="none" stroke="#000000" points="47,-357.5 47,-387.5 433,-387.5 433,-357.5 47,-357.5"/>
<text text-anchor="start" x="54" y="-368.9" font-family="Arial" font-size="14.00" fill="#000000">start_reservable_time    </text>
<text text-anchor="start" x="222.7756" y="-368.9" font-family="Arial" font-size="14.00" fill="#666666">[smallint(3)]</text>
<polygon fill="none" stroke="#000000" points="47,-327.5 47,-357.5 433,-357.5 433,-327.5 47,-327.5"/>
<text text-anchor="start" x="54" y="-338.9" font-family="Arial" font-size="14.00" fill="#000000">end_reservable_time    </text>
<text text-anchor="start" x="218.899" y="-338.9" font-family="Arial" font-size="14.00" fill="#666666">[smallint(3)]</text>
<polygon fill="none" stroke="#000000" points="47,-297.5 47,-327.5 433,-327.5 433,-297.5 47,-297.5"/>
<text text-anchor="start" x="54" y="-308.9" font-family="Arial" font-size="14.00" fill="#000000">is_set_subgroup    </text>
<text text-anchor="start" x="190.906" y="-308.9" font-family="Arial" font-size="14.00" fill="#666666">[tinyint(1)]</text>
<polygon fill="none" stroke="#000000" points="47,-267.5 47,-297.5 433,-297.5 433,-267.5 47,-267.5"/>
<text text-anchor="start" x="54" y="-278.9" font-family="Arial" font-size="14.00" fill="#000000">subgroup_id    </text>
<text text-anchor="start" x="165.2328" y="-278.9" font-family="Arial" font-size="14.00" fill="#666666">[int(11)]</text>
<polygon fill="none" stroke="#000000" points="47,-237.5 47,-267.5 433,-267.5 433,-237.5 47,-237.5"/>
<text text-anchor="start" x="54" y="-248.9" font-family="Arial" font-size="14.00" fill="#000000">is_limitless_room_enabled    </text>
<text text-anchor="start" x="253.108" y="-248.9" font-family="Arial" font-size="14.00" fill="#666666">[tinyint(1)]</text>
<polygon fill="none" stroke="#000000" points="47,-207.5 47,-237.5 433,-237.5 433,-207.5 47,-207.5"/>
<text text-anchor="start" x="54" y="-218.9" font-family="Arial" font-size="14.00" fill="#000000">is_group_custom_origin_cancel_policy    </text>
<text text-anchor="start" x="328.5862" y="-218.9" font-family="Arial" font-size="14.00" fill="#666666">[tinyint(1)]</text>
</g>
<!-- sk_groups_unreservable_rooms&#45;&gt;sk_groups -->
<g id="edge1" class="edge">
<title>sk_groups_unreservable_rooms:group_id&#45;&gt;sk_groups:id</title>
<path fill="none" stroke="#000000" d="M256.9006,-2017.0651C101.4267,-2002.6078 615.6994,-1632.5 433,-1632.5"/>
<polygon fill="#000000" stroke="#000000" points="257.0093,-2017.0697 266.8064,-2021.9958 262.0046,-2017.2849 267,-2017.5 267,-2017.5 267,-2017.5 262.0046,-2017.2849 267.1936,-2013.0042 257.0093,-2017.0697 257.0093,-2017.0697"/>
<text text-anchor="start" x="7.0475" y="-2027.5" font-family="Arial" font-size="10.00" fill="#000000">FOREIGN KEY (group_id) REFERENCES sk_groups (id)</text>
</g>
<!-- sk_rooms -->
<g id="node3" class="node">
<title>sk_rooms</title>
<polygon fill="#efefef" stroke="transparent" points="537,-1812.5 537,-1847.5 849,-1847.5 849,-1812.5 537,-1812.5"/>
<polygon fill="none" stroke="#000000" points="537,-1812.5 537,-1847.5 849,-1847.5 849,-1812.5 537,-1812.5"/>
<text text-anchor="start" x="590.2145" y="-1825.3" font-family="Arial Bold" font-size="18.00" fill="#000000">sk_rooms</text>
<text text-anchor="start" x="668.2175" y="-1825.3" font-family="Arial" font-size="14.00" fill="#000000">    </text>
<text text-anchor="start" x="702.4223" y="-1825.3" font-family="Arial" font-size="14.00" fill="#666666">[BASE TABLE]</text>
<polygon fill="none" stroke="#000000" points="537,-1782.5 537,-1812.5 849,-1812.5 849,-1782.5 537,-1782.5"/>
<text text-anchor="start" x="544" y="-1793.9" font-family="Arial" font-size="14.00" fill="#000000">id    </text>
<text text-anchor="start" x="589.094" y="-1793.9" font-family="Arial" font-size="14.00" fill="#666666">[int(11) unsigned]</text>
<polygon fill="none" stroke="#000000" points="537,-1752.5 537,-1782.5 849,-1782.5 849,-1752.5 537,-1752.5"/>
<text text-anchor="start" x="544" y="-1763.9" font-family="Arial" font-size="14.00" fill="#000000">is_deleted    </text>
<text text-anchor="start" x="642.0042" y="-1763.9" font-family="Arial" font-size="14.00" fill="#666666">[tinyint(1)]</text>
<polygon fill="none" stroke="#000000" points="537,-1722.5 537,-1752.5 849,-1752.5 849,-1722.5 537,-1722.5"/>
<text text-anchor="start" x="544" y="-1733.9" font-family="Arial" font-size="14.00" fill="#000000">is_public    </text>
<text text-anchor="start" x="632.655" y="-1733.9" font-family="Arial" font-size="14.00" fill="#666666">[tinyint(1)]</text>
<polygon fill="none" stroke="#000000" points="537,-1692.5 537,-1722.5 849,-1722.5 849,-1692.5 537,-1692.5"/>
<text text-anchor="start" x="544" y="-1703.9" font-family="Arial" font-size="14.00" fill="#000000">is_set    </text>
<text text-anchor="start" x="614.7672" y="-1703.9" font-family="Arial" font-size="14.00" fill="#666666">[tinyint(1)]</text>
<polygon fill="none" stroke="#000000" points="537,-1662.5 537,-1692.5 849,-1692.5 849,-1662.5 537,-1662.5"/>
<text text-anchor="start" x="544" y="-1673.9" font-family="Arial" font-size="14.00" fill="#000000">property_id    </text>
<text text-anchor="start" x="648.2188" y="-1673.9" font-family="Arial" font-size="14.00" fill="#666666">[int(11) unsigned]</text>
<polygon fill="none" stroke="#000000" points="537,-1632.5 537,-1662.5 849,-1662.5 849,-1632.5 537,-1632.5"/>
<text text-anchor="start" x="544" y="-1643.9" font-family="Arial" font-size="14.00" fill="#000000">lessor_id    </text>
<text text-anchor="start" x="634.209" y="-1643.9" font-family="Arial" font-size="14.00" fill="#666666">[int(11) unsigned]</text>
<polygon fill="none" stroke="#000000" points="537,-1602.5 537,-1632.5 849,-1632.5 849,-1602.5 537,-1602.5"/>
<text text-anchor="start" x="544" y="-1613.9" font-family="Arial" font-size="14.00" fill="#000000">name    </text>
<text text-anchor="start" x="613.2132" y="-1613.9" font-family="Arial" font-size="14.00" fill="#666666">[varchar(200)]</text>
<polygon fill="none" stroke="#000000" points="537,-1572.5 537,-1602.5 849,-1602.5 849,-1572.5 537,-1572.5"/>
<text text-anchor="start" x="544" y="-1583.9" font-family="Arial" font-size="14.00" fill="#000000">voice_name    </text>
<text text-anchor="start" x="653.6676" y="-1583.9" font-family="Arial" font-size="14.00" fill="#666666">[varchar(200)]</text>
<polygon fill="none" stroke="#000000" points="537,-1542.5 537,-1572.5 849,-1572.5 849,-1542.5 537,-1542.5"/>
<text text-anchor="start" x="544" y="-1553.9" font-family="Arial" font-size="14.00" fill="#000000">description_url    </text>
<text text-anchor="start" x="669.2146" y="-1553.9" font-family="Arial" font-size="14.00" fill="#666666">[varchar(1000)]</text>
<polygon fill="none" stroke="#000000" points="537,-1512.5 537,-1542.5 849,-1542.5 849,-1512.5 537,-1512.5"/>
<text text-anchor="start" x="544" y="-1523.9" font-family="Arial" font-size="14.00" fill="#000000">exclusive_area    </text>
<text text-anchor="start" x="671.5568" y="-1523.9" font-family="Arial" font-size="14.00" fill="#666666">[decimal(10,2)]</text>
<polygon fill="none" stroke="#000000" points="537,-1482.5 537,-1512.5 849,-1512.5 849,-1482.5 537,-1482.5"/>
<text text-anchor="start" x="544" y="-1493.9" font-family="Arial" font-size="14.00" fill="#000000">ceiling_height    </text>
<text text-anchor="start" x="663.7826" y="-1493.9" font-family="Arial" font-size="14.00" fill="#666666">[decimal(10,2)]</text>
<polygon fill="none" stroke="#000000" points="537,-1452.5 537,-1482.5 849,-1482.5 849,-1452.5 537,-1452.5"/>
<text text-anchor="start" x="544" y="-1463.9" font-family="Arial" font-size="14.00" fill="#000000">floor    </text>
<text text-anchor="start" x="605.4278" y="-1463.9" font-family="Arial" font-size="14.00" fill="#666666">[smallint(5)]</text>
<polygon fill="none" stroke="#000000" points="537,-1422.5 537,-1452.5 849,-1452.5 849,-1422.5 537,-1422.5"/>
<text text-anchor="start" x="544" y="-1433.9" font-family="Arial" font-size="14.00" fill="#000000">minimum_time    </text>
<text text-anchor="start" x="669.188" y="-1433.9" font-family="Arial" font-size="14.00" fill="#666666">[time]</text>
<polygon fill="none" stroke="#000000" points="537,-1392.5 537,-1422.5 849,-1422.5 849,-1392.5 537,-1392.5"/>
<text text-anchor="start" x="544" y="-1403.9" font-family="Arial" font-size="14.00" fill="#000000">maximum_time    </text>
<text text-anchor="start" x="673.0814" y="-1403.9" font-family="Arial" font-size="14.00" fill="#666666">[time]</text>
<polygon fill="none" stroke="#000000" points="537,-1362.5 537,-1392.5 849,-1392.5 849,-1362.5 537,-1362.5"/>
<text text-anchor="start" x="544" y="-1373.9" font-family="Arial" font-size="14.00" fill="#000000">start_date    </text>
<text text-anchor="start" x="640.4502" y="-1373.9" font-family="Arial" font-size="14.00" fill="#666666">[date]</text>
<polygon fill="none" stroke="#000000" points="537,-1332.5 537,-1362.5 849,-1362.5 849,-1332.5 537,-1332.5"/>
<text text-anchor="start" x="544" y="-1343.9" font-family="Arial" font-size="14.00" fill="#000000">end_date    </text>
<text text-anchor="start" x="636.5736" y="-1343.9" font-family="Arial" font-size="14.00" fill="#666666">[date]</text>
<polygon fill="none" stroke="#000000" points="537,-1302.5 537,-1332.5 849,-1332.5 849,-1302.5 537,-1302.5"/>
<text text-anchor="start" x="544" y="-1313.9" font-family="Arial" font-size="14.00" fill="#000000">is_ninjalock    </text>
<text text-anchor="start" x="650.5442" y="-1313.9" font-family="Arial" font-size="14.00" fill="#666666">[tinyint(1)]</text>
<polygon fill="none" stroke="#000000" points="537,-1272.5 537,-1302.5 849,-1302.5 849,-1272.5 537,-1272.5"/>
<text text-anchor="start" x="544" y="-1283.9" font-family="Arial" font-size="14.00" fill="#000000">is_display_entrance_note    </text>
<text text-anchor="start" x="736.9228" y="-1283.9" font-family="Arial" font-size="14.00" fill="#666666">[tinyint(1)]</text>
<polygon fill="none" stroke="#000000" points="537,-1242.5 537,-1272.5 849,-1272.5 849,-1242.5 537,-1242.5"/>
<text text-anchor="start" x="543.6487" y="-1253.9" font-family="Arial" font-size="14.00" fill="#000000">is_using_custom_business_hour    </text>
<text text-anchor="start" x="780.9067" y="-1253.9" font-family="Arial" font-size="14.00" fill="#666666">[tinyint(1)]</text>
<polygon fill="none" stroke="#000000" points="537,-1212.5 537,-1242.5 849,-1242.5 849,-1212.5 537,-1212.5"/>
<text text-anchor="start" x="544" y="-1223.9" font-family="Arial" font-size="14.00" fill="#000000">has_local_area_network    </text>
<text text-anchor="start" x="729.9102" y="-1223.9" font-family="Arial" font-size="14.00" fill="#666666">[tinyint(1)]</text>
<polygon fill="none" stroke="#000000" points="537,-1182.5 537,-1212.5 849,-1212.5 849,-1182.5 537,-1182.5"/>
<text text-anchor="start" x="544" y="-1193.9" font-family="Arial" font-size="14.00" fill="#000000">basic_price    </text>
<text text-anchor="start" x="648.9916" y="-1193.9" font-family="Arial" font-size="14.00" fill="#666666">[int(11) unsigned]</text>
<polygon fill="none" stroke="#000000" points="537,-1152.5 537,-1182.5 849,-1182.5 849,-1152.5 537,-1152.5"/>
<text text-anchor="start" x="544" y="-1163.9" font-family="Arial" font-size="14.00" fill="#000000">extend_price    </text>
<text text-anchor="start" x="658.3408" y="-1163.9" font-family="Arial" font-size="14.00" fill="#666666">[int(11)]</text>
<polygon fill="none" stroke="#000000" points="537,-1122.5 537,-1152.5 849,-1152.5 849,-1122.5 537,-1122.5"/>
<text text-anchor="start" x="544" y="-1133.9" font-family="Arial" font-size="14.00" fill="#000000">max_price    </text>
<text text-anchor="start" x="642.763" y="-1133.9" font-family="Arial" font-size="14.00" fill="#666666">[int(11)]</text>
<polygon fill="none" stroke="#000000" points="537,-1092.5 537,-1122.5 849,-1122.5 849,-1092.5 537,-1092.5"/>
<text text-anchor="start" x="544" y="-1103.9" font-family="Arial" font-size="14.00" fill="#000000">memo    </text>
<text text-anchor="start" x="617.0912" y="-1103.9" font-family="Arial" font-size="14.00" fill="#666666">[varchar(2000)]</text>
<polygon fill="none" stroke="#000000" points="537,-1062.5 537,-1092.5 849,-1092.5 849,-1062.5 537,-1062.5"/>
<text text-anchor="start" x="544" y="-1073.9" font-family="Arial" font-size="14.00" fill="#000000">floor_position    </text>
<text text-anchor="start" x="661.4446" y="-1073.9" font-family="Arial" font-size="14.00" fill="#666666">[smallint(5)]</text>
<polygon fill="none" stroke="#000000" points="537,-1032.5 537,-1062.5 849,-1062.5 849,-1032.5 537,-1032.5"/>
<text text-anchor="start" x="544" y="-1043.9" font-family="Arial" font-size="14.00" fill="#000000">is_tablet_linked    </text>
<text text-anchor="start" x="674.6732" y="-1043.9" font-family="Arial" font-size="14.00" fill="#666666">[int(11)]</text>
<polygon fill="none" stroke="#000000" points="537,-1002.5 537,-1032.5 849,-1032.5 849,-1002.5 537,-1002.5"/>
<text text-anchor="start" x="544" y="-1013.9" font-family="Arial" font-size="14.00" fill="#000000">batch_mail    </text>
<text text-anchor="start" x="645.8822" y="-1013.9" font-family="Arial" font-size="14.00" fill="#666666">[int(11)]</text>
<polygon fill="none" stroke="#000000" points="537,-972.5 537,-1002.5 849,-1002.5 849,-972.5 537,-972.5"/>
<text text-anchor="start" x="544" y="-983.9" font-family="Arial" font-size="14.00" fill="#000000">batch_mail_owner    </text>
<text text-anchor="start" x="691.7798" y="-983.9" font-family="Arial" font-size="14.00" fill="#666666">[int(11)]</text>
<polygon fill="none" stroke="#000000" points="537,-942.5 537,-972.5 849,-972.5 849,-942.5 537,-942.5"/>
<text text-anchor="start" x="544" y="-953.9" font-family="Arial" font-size="14.00" fill="#000000">guide_text    </text>
<text text-anchor="start" x="642.7882" y="-953.9" font-family="Arial" font-size="14.00" fill="#666666">[text]</text>
<polygon fill="none" stroke="#000000" points="537,-912.5 537,-942.5 849,-942.5 849,-912.5 537,-912.5"/>
<text text-anchor="start" x="544" y="-923.9" font-family="Arial" font-size="14.00" fill="#000000">eating_text    </text>
<text text-anchor="start" x="646.6788" y="-923.9" font-family="Arial" font-size="14.00" fill="#666666">[varchar(1000)]</text>
<polygon fill="none" stroke="#000000" points="537,-882.5 537,-912.5 849,-912.5 849,-882.5 537,-882.5"/>
<text text-anchor="start" x="544" y="-893.9" font-family="Arial" font-size="14.00" fill="#000000">cleanup_text    </text>
<text text-anchor="start" x="657.5708" y="-893.9" font-family="Arial" font-size="14.00" fill="#666666">[varchar(1000)]</text>
<polygon fill="none" stroke="#000000" points="537,-852.5 537,-882.5 849,-882.5 849,-852.5 537,-852.5"/>
<text text-anchor="start" x="544" y="-863.9" font-family="Arial" font-size="14.00" fill="#000000">facility_text    </text>
<text text-anchor="start" x="647.4348" y="-863.9" font-family="Arial" font-size="14.00" fill="#666666">[varchar(1000)]</text>
<polygon fill="none" stroke="#000000" points="537,-822.5 537,-852.5 849,-852.5 849,-822.5 537,-822.5"/>
<text text-anchor="start" x="544" y="-833.9" font-family="Arial" font-size="14.00" fill="#000000">change_layout    </text>
<text text-anchor="start" x="669.2454" y="-833.9" font-family="Arial" font-size="14.00" fill="#666666">[smallint(2)]</text>
<polygon fill="none" stroke="#000000" points="537,-792.5 537,-822.5 849,-822.5 849,-792.5 537,-792.5"/>
<text text-anchor="start" x="544" y="-803.9" font-family="Arial" font-size="14.00" fill="#000000">reservation_unit_an_hour    </text>
<text text-anchor="start" x="736.92" y="-803.9" font-family="Arial" font-size="14.00" fill="#666666">[tinyint(1)]</text>
<polygon fill="none" stroke="#000000" points="537,-762.5 537,-792.5 849,-792.5 849,-762.5 537,-762.5"/>
<text text-anchor="start" x="544" y="-773.9" font-family="Arial" font-size="14.00" fill="#000000">payment_period    </text>
<text text-anchor="start" x="678.5666" y="-773.9" font-family="Arial" font-size="14.00" fill="#666666">[int(11)]</text>
<polygon fill="none" stroke="#000000" points="537,-732.5 537,-762.5 849,-762.5 849,-732.5 537,-732.5"/>
<text text-anchor="start" x="544" y="-743.9" font-family="Arial" font-size="14.00" fill="#000000">sort_order    </text>
<text text-anchor="start" x="641.9902" y="-743.9" font-family="Arial" font-size="14.00" fill="#666666">[int(11)]</text>
<polygon fill="none" stroke="#000000" points="537,-702.5 537,-732.5 849,-732.5 849,-702.5 537,-702.5"/>
<text text-anchor="start" x="544" y="-713.9" font-family="Arial" font-size="14.00" fill="#000000">allow_tentative    </text>
<text text-anchor="start" x="670.7812" y="-713.9" font-family="Arial" font-size="14.00" fill="#666666">[tinyint(1)]</text>
<polygon fill="none" stroke="#000000" points="537,-672.5 537,-702.5 849,-702.5 849,-672.5 537,-672.5"/>
<text text-anchor="start" x="544" y="-683.9" font-family="Arial" font-size="14.00" fill="#000000">allow_change_reserved    </text>
<text text-anchor="start" x="726.0196" y="-683.9" font-family="Arial" font-size="14.00" fill="#666666">[tinyint(1)]</text>
<polygon fill="none" stroke="#000000" points="537,-642.5 537,-672.5 849,-672.5 849,-642.5 537,-642.5"/>
<text text-anchor="start" x="544" y="-653.9" font-family="Arial" font-size="14.00" fill="#000000">allow_extend_reservation    </text>
<text text-anchor="start" x="736.9074" y="-653.9" font-family="Arial" font-size="14.00" fill="#666666">[tinyint(1)]</text>
<polygon fill="none" stroke="#000000" points="537,-612.5 537,-642.5 849,-642.5 849,-612.5 537,-612.5"/>
<text text-anchor="start" x="544" y="-623.9" font-family="Arial" font-size="14.00" fill="#000000">change_reserved_limit_date    </text>
<text text-anchor="start" x="754.0266" y="-623.9" font-family="Arial" font-size="14.00" fill="#666666">[int(11)]</text>
<polygon fill="none" stroke="#000000" points="537,-582.5 537,-612.5 849,-612.5 849,-582.5 537,-582.5"/>
<text text-anchor="start" x="544" y="-593.9" font-family="Arial" font-size="14.00" fill="#000000">tentative_period    </text>
<text text-anchor="start" x="677.7938" y="-593.9" font-family="Arial" font-size="14.00" fill="#666666">[int(11)]</text>
<polygon fill="none" stroke="#000000" points="537,-552.5 537,-582.5 849,-582.5 849,-552.5 537,-552.5"/>
<text text-anchor="start" x="544" y="-563.9" font-family="Arial" font-size="14.00" fill="#000000">tentative_limit_date    </text>
<text text-anchor="start" x="698.7882" y="-563.9" font-family="Arial" font-size="14.00" fill="#666666">[int(11)]</text>
<polygon fill="none" stroke="#000000" points="537,-522.5 537,-552.5 849,-552.5 849,-522.5 537,-522.5"/>
<text text-anchor="start" x="544" y="-533.9" font-family="Arial" font-size="14.00" fill="#000000">include_tax    </text>
<text text-anchor="start" x="649.0042" y="-533.9" font-family="Arial" font-size="14.00" fill="#666666">[tinyint(1)]</text>
<polygon fill="none" stroke="#000000" points="537,-492.5 537,-522.5 849,-522.5 849,-492.5 537,-492.5"/>
<text text-anchor="start" x="544" y="-503.9" font-family="Arial" font-size="14.00" fill="#000000">ninjalock_serial    </text>
<text text-anchor="start" x="673.8766" y="-503.9" font-family="Arial" font-size="14.00" fill="#666666">[varchar(24)]</text>
<polygon fill="none" stroke="#000000" points="537,-462.5 537,-492.5 849,-492.5 849,-462.5 537,-462.5"/>
<text text-anchor="start" x="544" y="-473.9" font-family="Arial" font-size="14.00" fill="#000000">created_datetime    </text>
<text text-anchor="start" x="686.3478" y="-473.9" font-family="Arial" font-size="14.00" fill="#666666">[timestamp]</text>
<polygon fill="none" stroke="#000000" points="537,-432.5 537,-462.5 849,-462.5 849,-432.5 537,-432.5"/>
<text text-anchor="start" x="544" y="-443.9" font-family="Arial" font-size="14.00" fill="#000000">updated_datetime    </text>
<text text-anchor="start" x="690.2524" y="-443.9" font-family="Arial" font-size="14.00" fill="#666666">[timestamp]</text>
<polygon fill="none" stroke="#000000" points="537,-402.5 537,-432.5 849,-432.5 849,-402.5 537,-402.5"/>
<text text-anchor="start" x="544" y="-413.9" font-family="Arial" font-size="14.00" fill="#000000">start_reservable_time    </text>
<text text-anchor="start" x="712.7756" y="-413.9" font-family="Arial" font-size="14.00" fill="#666666">[smallint(3)]</text>
<polygon fill="none" stroke="#000000" points="537,-372.5 537,-402.5 849,-402.5 849,-372.5 537,-372.5"/>
<text text-anchor="start" x="544" y="-383.9" font-family="Arial" font-size="14.00" fill="#000000">end_reservable_time    </text>
<text text-anchor="start" x="708.899" y="-383.9" font-family="Arial" font-size="14.00" fill="#666666">[smallint(3)]</text>
<polygon fill="none" stroke="#000000" points="537,-342.5 537,-372.5 849,-372.5 849,-342.5 537,-342.5"/>
<text text-anchor="start" x="544" y="-353.9" font-family="Arial" font-size="14.00" fill="#000000">is_set_reservable_time    </text>
<text text-anchor="start" x="722.1136" y="-353.9" font-family="Arial" font-size="14.00" fill="#666666">[tinyint(1)]</text>
<polygon fill="none" stroke="#000000" points="537,-312.5 537,-342.5 849,-342.5 849,-312.5 537,-312.5"/>
<text text-anchor="start" x="544" y="-323.9" font-family="Arial" font-size="14.00" fill="#000000">is_buffer_time_setting_enabled    </text>
<text text-anchor="start" x="772.7096" y="-323.9" font-family="Arial" font-size="14.00" fill="#666666">[tinyint(1)]</text>
<polygon fill="none" stroke="#000000" points="537,-282.5 537,-312.5 849,-312.5 849,-282.5 537,-282.5"/>
<text text-anchor="start" x="544" y="-293.9" font-family="Arial" font-size="14.00" fill="#000000">buffer_time    </text>
<text text-anchor="start" x="648.2174" y="-293.9" font-family="Arial" font-size="14.00" fill="#666666">[time]</text>
<polygon fill="none" stroke="#000000" points="537,-252.5 537,-282.5 849,-282.5 849,-252.5 537,-252.5"/>
<text text-anchor="start" x="544" y="-263.9" font-family="Arial" font-size="14.00" fill="#000000">buffer_time_control    </text>
<text text-anchor="start" x="698.0056" y="-263.9" font-family="Arial" font-size="14.00" fill="#666666">[smallint(3)]</text>
<polygon fill="none" stroke="#000000" points="537,-222.5 537,-252.5 849,-252.5 849,-222.5 537,-222.5"/>
<text text-anchor="start" x="544" y="-233.9" font-family="Arial" font-size="14.00" fill="#000000">is_one_day_rental_enabled    </text>
<text text-anchor="start" x="750.1626" y="-233.9" font-family="Arial" font-size="14.00" fill="#666666">[tinyint(1)]</text>
<polygon fill="none" stroke="#000000" points="537,-192.5 537,-222.5 849,-222.5 849,-192.5 537,-192.5"/>
<text text-anchor="start" x="544" y="-203.9" font-family="Arial" font-size="14.00" fill="#000000">owner_buffer_time    </text>
<text text-anchor="start" x="694.115" y="-203.9" font-family="Arial" font-size="14.00" fill="#666666">[time]</text>
<polygon fill="none" stroke="#000000" points="537,-162.5 537,-192.5 849,-192.5 849,-162.5 537,-162.5"/>
<text text-anchor="start" x="544" y="-173.9" font-family="Arial" font-size="14.00" fill="#000000">external_buffer_time    </text>
<text text-anchor="start" x="705.7882" y="-173.9" font-family="Arial" font-size="14.00" fill="#666666">[time]</text>
<polygon fill="none" stroke="#000000" points="537,-132.5 537,-162.5 849,-162.5 849,-132.5 537,-132.5"/>
<text text-anchor="start" x="544" y="-143.9" font-family="Arial" font-size="14.00" fill="#000000">owner_buffer_time_control    </text>
<text text-anchor="start" x="743.9032" y="-143.9" font-family="Arial" font-size="14.00" fill="#666666">[smallint(3)]</text>
<polygon fill="none" stroke="#000000" points="537,-102.5 537,-132.5 849,-132.5 849,-102.5 537,-102.5"/>
<text text-anchor="start" x="544" y="-113.9" font-family="Arial" font-size="14.00" fill="#000000">external_buffer_time_control    </text>
<text text-anchor="start" x="755.5764" y="-113.9" font-family="Arial" font-size="14.00" fill="#666666">[smallint(3)]</text>
<polygon fill="none" stroke="#000000" points="537,-72.5 537,-102.5 849,-102.5 849,-72.5 537,-72.5"/>
<text text-anchor="start" x="544" y="-83.9" font-family="Arial" font-size="14.00" fill="#000000">is_lottery_setting_enabled    </text>
<text text-anchor="start" x="740.8106" y="-83.9" font-family="Arial" font-size="14.00" fill="#666666">[tinyint(1)]</text>
<polygon fill="none" stroke="#000000" points="537,-42.5 537,-72.5 849,-72.5 849,-42.5 537,-42.5"/>
<text text-anchor="start" x="544" y="-53.9" font-family="Arial" font-size="14.00" fill="#000000">lottery_period    </text>
<text text-anchor="start" x="662.9986" y="-53.9" font-family="Arial" font-size="14.00" fill="#666666">[int(5)]</text>
</g>
<!-- sk_groups_unreservable_rooms&#45;&gt;sk_rooms -->
<g id="edge2" class="edge">
<title>sk_groups_unreservable_rooms:room_id&#45;&gt;sk_rooms:id</title>
<path fill="none" stroke="#000000" d="M674.9765,-1984.855C688.4237,-1975.7221 678.6997,-1945.0843 665,-1927 629.3152,-1879.8944 572.6848,-1938.1056 537,-1891 511.9069,-1857.876 495.4444,-1797.5 537,-1797.5"/>
<polygon fill="#000000" stroke="#000000" points="674.666,-1984.9372 663.8467,-1983.1503 669.833,-1986.2186 665,-1987.5 665,-1987.5 665,-1987.5 669.833,-1986.2186 666.1533,-1991.8497 674.666,-1984.9372 674.666,-1984.9372"/>
<text text-anchor="start" x="671.8365" y="-1997.5" font-family="Arial" font-size="10.00" fill="#000000">FOREIGN KEY (room_id) REFERENCES sk_rooms (id)</text>
</g>
</g>
</svg>
