<?xml version="1.0" encoding="UTF-8" standalone="no"?>
<!DOCTYPE svg PUBLIC "-//W3C//DTD SVG 1.1//EN"
 "http://www.w3.org/Graphics/SVG/1.1/DTD/svg11.dtd">
<!-- Generated by graphviz version 2.40.1 (20161225.0304)
 -->
<!-- Title: sk_invoices Pages: 1 -->
<svg width="854pt" height="2189pt"
 viewBox="0.00 0.00 853.50 2189.00" xmlns="http://www.w3.org/2000/svg" xmlns:xlink="http://www.w3.org/1999/xlink">
<g id="graph0" class="graph" transform="scale(1 1) rotate(0) translate(4 2185)">
<title>sk_invoices</title>
<polygon fill="#ffffff" stroke="transparent" points="-4,4 -4,-2185 849.5,-2185 849.5,4 -4,4"/>
<!-- sk_invoices -->
<g id="node1" class="node">
<title>sk_invoices</title>
<polygon fill="#efefef" stroke="transparent" points="291.5,-1732.5 291.5,-1767.5 525.5,-1767.5 525.5,-1732.5 291.5,-1732.5"/>
<polygon fill="none" stroke="#000000" points="291.5,-1732.5 291.5,-1767.5 525.5,-1767.5 525.5,-1732.5 291.5,-1732.5"/>
<text text-anchor="start" x="298.2094" y="-1745.3" font-family="Arial Bold" font-size="18.00" fill="#000000">sk_invoices</text>
<text text-anchor="start" x="391.2226" y="-1745.3" font-family="Arial" font-size="14.00" fill="#000000">    </text>
<text text-anchor="start" x="425.4274" y="-1745.3" font-family="Arial" font-size="14.00" fill="#666666">[BASE TABLE]</text>
<polygon fill="none" stroke="#000000" points="291.5,-1702.5 291.5,-1732.5 525.5,-1732.5 525.5,-1702.5 291.5,-1702.5"/>
<text text-anchor="start" x="298.5" y="-1713.9" font-family="Arial" font-size="14.00" fill="#000000">id </text>
<text text-anchor="start" x="313.2798" y="-1713.9" font-family="Arial" font-size="14.00" fill="#666666">[int(11) unsigned]</text>
<polygon fill="none" stroke="#000000" points="291.5,-1672.5 291.5,-1702.5 525.5,-1702.5 525.5,-1672.5 291.5,-1672.5"/>
<text text-anchor="start" x="298.5" y="-1683.9" font-family="Arial" font-size="14.00" fill="#000000">user_id </text>
<text text-anchor="start" x="348.2882" y="-1683.9" font-family="Arial" font-size="14.00" fill="#666666">[int(11) unsigned]</text>
<polygon fill="none" stroke="#000000" points="291.5,-1642.5 291.5,-1672.5 525.5,-1672.5 525.5,-1642.5 291.5,-1642.5"/>
<text text-anchor="start" x="298.5" y="-1653.9" font-family="Arial" font-size="14.00" fill="#000000">lessor_user_id </text>
<text text-anchor="start" x="393.4032" y="-1653.9" font-family="Arial" font-size="14.00" fill="#666666">[int(11) unsigned]</text>
<polygon fill="none" stroke="#000000" points="291.5,-1612.5 291.5,-1642.5 525.5,-1642.5 525.5,-1612.5 291.5,-1612.5"/>
<text text-anchor="start" x="298.5" y="-1623.9" font-family="Arial" font-size="14.00" fill="#000000">status </text>
<text text-anchor="start" x="339.737" y="-1623.9" font-family="Arial" font-size="14.00" fill="#666666">[tinyint(1)]</text>
<polygon fill="none" stroke="#000000" points="291.5,-1582.5 291.5,-1612.5 525.5,-1612.5 525.5,-1582.5 291.5,-1582.5"/>
<text text-anchor="start" x="298.5" y="-1593.9" font-family="Arial" font-size="14.00" fill="#000000">is_taxable </text>
<text text-anchor="start" x="365.4074" y="-1593.9" font-family="Arial" font-size="14.00" fill="#666666">[tinyint(1)]</text>
<polygon fill="none" stroke="#000000" points="291.5,-1552.5 291.5,-1582.5 525.5,-1582.5 525.5,-1552.5 291.5,-1552.5"/>
<text text-anchor="start" x="298.5" y="-1563.9" font-family="Arial" font-size="14.00" fill="#000000">is_tax_included </text>
<text text-anchor="start" x="398.8618" y="-1563.9" font-family="Arial" font-size="14.00" fill="#666666">[tinyint(1)]</text>
<polygon fill="none" stroke="#000000" points="291.5,-1522.5 291.5,-1552.5 525.5,-1552.5 525.5,-1522.5 291.5,-1522.5"/>
<text text-anchor="start" x="298.5" y="-1533.9" font-family="Arial" font-size="14.00" fill="#000000">tax_rate </text>
<text text-anchor="start" x="352.9628" y="-1533.9" font-family="Arial" font-size="14.00" fill="#666666">[tinyint(1)]</text>
<polygon fill="none" stroke="#000000" points="291.5,-1492.5 291.5,-1522.5 525.5,-1522.5 525.5,-1492.5 291.5,-1492.5"/>
<text text-anchor="start" x="298.5" y="-1503.9" font-family="Arial" font-size="14.00" fill="#000000">due_date </text>
<text text-anchor="start" x="360.7594" y="-1503.9" font-family="Arial" font-size="14.00" fill="#666666">[datetime]</text>
<polygon fill="none" stroke="#000000" points="291.5,-1462.5 291.5,-1492.5 525.5,-1492.5 525.5,-1462.5 291.5,-1462.5"/>
<text text-anchor="start" x="298.5" y="-1473.9" font-family="Arial" font-size="14.00" fill="#000000">memo </text>
<text text-anchor="start" x="341.277" y="-1473.9" font-family="Arial" font-size="14.00" fill="#666666">[varchar(1000)]</text>
<polygon fill="none" stroke="#000000" points="291.5,-1432.5 291.5,-1462.5 525.5,-1462.5 525.5,-1432.5 291.5,-1432.5"/>
<text text-anchor="start" x="298.5" y="-1443.9" font-family="Arial" font-size="14.00" fill="#000000">note </text>
<text text-anchor="start" x="329.629" y="-1443.9" font-family="Arial" font-size="14.00" fill="#666666">[text]</text>
<polygon fill="none" stroke="#000000" points="291.5,-1402.5 291.5,-1432.5 525.5,-1432.5 525.5,-1402.5 291.5,-1402.5"/>
<text text-anchor="start" x="298.5" y="-1413.9" font-family="Arial" font-size="14.00" fill="#000000">bill_amount </text>
<text text-anchor="start" x="373.9572" y="-1413.9" font-family="Arial" font-size="14.00" fill="#666666">[int(11)]</text>
<polygon fill="none" stroke="#000000" points="291.5,-1372.5 291.5,-1402.5 525.5,-1402.5 525.5,-1372.5 291.5,-1372.5"/>
<text text-anchor="start" x="298.5" y="-1383.9" font-family="Arial" font-size="14.00" fill="#000000">payment_amount </text>
<text text-anchor="start" x="410.5364" y="-1383.9" font-family="Arial" font-size="14.00" fill="#666666">[int(11)]</text>
<polygon fill="none" stroke="#000000" points="291.5,-1342.5 291.5,-1372.5 525.5,-1372.5 525.5,-1342.5 291.5,-1342.5"/>
<text text-anchor="start" x="298.5" y="-1353.9" font-family="Arial" font-size="14.00" fill="#000000">created_datetime </text>
<text text-anchor="start" x="410.5336" y="-1353.9" font-family="Arial" font-size="14.00" fill="#666666">[timestamp]</text>
<polygon fill="none" stroke="#000000" points="291.5,-1312.5 291.5,-1342.5 525.5,-1342.5 525.5,-1312.5 291.5,-1312.5"/>
<text text-anchor="start" x="298.5" y="-1323.9" font-family="Arial" font-size="14.00" fill="#000000">updated_datetime </text>
<text text-anchor="start" x="414.4382" y="-1323.9" font-family="Arial" font-size="14.00" fill="#666666">[timestamp]</text>
<polygon fill="none" stroke="#000000" stroke-width="3" points="290,-1311.5 290,-1769.5 527,-1769.5 527,-1311.5 290,-1311.5"/>
</g>
<!-- sk_users -->
<g id="node3" class="node">
<title>sk_users</title>
<polygon fill="#efefef" stroke="transparent" points="43.5,-1047.5 43.5,-1082.5 344.5,-1082.5 344.5,-1047.5 43.5,-1047.5"/>
<polygon fill="none" stroke="#000000" points="43.5,-1047.5 43.5,-1082.5 344.5,-1082.5 344.5,-1047.5 43.5,-1047.5"/>
<text text-anchor="start" x="94.2106" y="-1060.3" font-family="Arial Bold" font-size="18.00" fill="#000000">sk_users</text>
<text text-anchor="start" x="166.2214" y="-1060.3" font-family="Arial" font-size="14.00" fill="#000000">    </text>
<text text-anchor="start" x="200.4262" y="-1060.3" font-family="Arial" font-size="14.00" fill="#666666">[BASE TABLE]</text>
<polygon fill="none" stroke="#000000" points="43.5,-1017.5 43.5,-1047.5 344.5,-1047.5 344.5,-1017.5 43.5,-1017.5"/>
<text text-anchor="start" x="50.5" y="-1028.9" font-family="Arial" font-size="14.00" fill="#000000">id    </text>
<text text-anchor="start" x="95.594" y="-1028.9" font-family="Arial" font-size="14.00" fill="#666666">[int(11) unsigned]</text>
<polygon fill="none" stroke="#000000" points="43.5,-987.5 43.5,-1017.5 344.5,-1017.5 344.5,-987.5 43.5,-987.5"/>
<text text-anchor="start" x="50.5" y="-998.9" font-family="Arial" font-size="14.00" fill="#000000">is_deleted    </text>
<text text-anchor="start" x="148.5042" y="-998.9" font-family="Arial" font-size="14.00" fill="#666666">[tinyint(1)]</text>
<polygon fill="none" stroke="#000000" points="43.5,-957.5 43.5,-987.5 344.5,-987.5 344.5,-957.5 43.5,-957.5"/>
<text text-anchor="start" x="50.5" y="-968.9" font-family="Arial" font-size="14.00" fill="#000000">email    </text>
<text text-anchor="start" x="118.1438" y="-968.9" font-family="Arial" font-size="14.00" fill="#666666">[varchar(255)]</text>
<polygon fill="none" stroke="#000000" points="43.5,-927.5 43.5,-957.5 344.5,-957.5 344.5,-927.5 43.5,-927.5"/>
<text text-anchor="start" x="50.5" y="-938.9" font-family="Arial" font-size="14.00" fill="#000000">password    </text>
<text text-anchor="start" x="144.6024" y="-938.9" font-family="Arial" font-size="14.00" fill="#666666">[varchar(255)]</text>
<polygon fill="none" stroke="#000000" points="43.5,-897.5 43.5,-927.5 344.5,-927.5 344.5,-897.5 43.5,-897.5"/>
<text text-anchor="start" x="50.5" y="-908.9" font-family="Arial" font-size="14.00" fill="#000000">role    </text>
<text text-anchor="start" x="108.0372" y="-908.9" font-family="Arial" font-size="14.00" fill="#666666">[smallint(6)]</text>
<polygon fill="none" stroke="#000000" points="43.5,-867.5 43.5,-897.5 344.5,-897.5 344.5,-867.5 43.5,-867.5"/>
<text text-anchor="start" x="50.5" y="-878.9" font-family="Arial" font-size="14.00" fill="#000000">last_name    </text>
<text text-anchor="start" x="149.2756" y="-878.9" font-family="Arial" font-size="14.00" fill="#666666">[varchar(40)]</text>
<polygon fill="none" stroke="#000000" points="43.5,-837.5 43.5,-867.5 344.5,-867.5 344.5,-837.5 43.5,-837.5"/>
<text text-anchor="start" x="50.5" y="-848.9" font-family="Arial" font-size="14.00" fill="#000000">last_name_kana    </text>
<text text-anchor="start" x="187.406" y="-848.9" font-family="Arial" font-size="14.00" fill="#666666">[varchar(40)]</text>
<polygon fill="none" stroke="#000000" points="43.5,-807.5 43.5,-837.5 344.5,-837.5 344.5,-807.5 43.5,-807.5"/>
<text text-anchor="start" x="50.5" y="-818.9" font-family="Arial" font-size="14.00" fill="#000000">first_name    </text>
<text text-anchor="start" x="150.0442" y="-818.9" font-family="Arial" font-size="14.00" fill="#666666">[varchar(40)]</text>
<polygon fill="none" stroke="#000000" points="43.5,-777.5 43.5,-807.5 344.5,-807.5 344.5,-777.5 43.5,-777.5"/>
<text text-anchor="start" x="50.5" y="-788.9" font-family="Arial" font-size="14.00" fill="#000000">first_name_kana    </text>
<text text-anchor="start" x="188.1746" y="-788.9" font-family="Arial" font-size="14.00" fill="#666666">[varchar(40)]</text>
<polygon fill="none" stroke="#000000" points="43.5,-747.5 43.5,-777.5 344.5,-777.5 344.5,-747.5 43.5,-747.5"/>
<text text-anchor="start" x="50.5" y="-758.9" font-family="Arial" font-size="14.00" fill="#000000">postal    </text>
<text text-anchor="start" x="122.0498" y="-758.9" font-family="Arial" font-size="14.00" fill="#666666">[varchar(8)]</text>
<polygon fill="none" stroke="#000000" points="43.5,-717.5 43.5,-747.5 344.5,-747.5 344.5,-717.5 43.5,-717.5"/>
<text text-anchor="start" x="50.5" y="-728.9" font-family="Arial" font-size="14.00" fill="#000000">mynavi_employee_id    </text>
<text text-anchor="start" x="216.1718" y="-728.9" font-family="Arial" font-size="14.00" fill="#666666">[varchar(255)]</text>
<polygon fill="none" stroke="#000000" points="43.5,-687.5 43.5,-717.5 344.5,-717.5 344.5,-687.5 43.5,-687.5"/>
<text text-anchor="start" x="50.5" y="-698.9" font-family="Arial" font-size="14.00" fill="#000000">prefecture    </text>
<text text-anchor="start" x="147.7202" y="-698.9" font-family="Arial" font-size="14.00" fill="#666666">[varchar(20)]</text>
<polygon fill="none" stroke="#000000" points="43.5,-657.5 43.5,-687.5 344.5,-687.5 344.5,-657.5 43.5,-657.5"/>
<text text-anchor="start" x="50.5" y="-668.9" font-family="Arial" font-size="14.00" fill="#000000">address    </text>
<text text-anchor="start" x="134.4958" y="-668.9" font-family="Arial" font-size="14.00" fill="#666666">[varchar(500)]</text>
<polygon fill="none" stroke="#000000" points="43.5,-627.5 43.5,-657.5 344.5,-657.5 344.5,-627.5 43.5,-627.5"/>
<text text-anchor="start" x="50.5" y="-638.9" font-family="Arial" font-size="14.00" fill="#000000">tel    </text>
<text text-anchor="start" x="99.4846" y="-638.9" font-family="Arial" font-size="14.00" fill="#666666">[varchar(13)]</text>
<polygon fill="none" stroke="#000000" points="43.5,-597.5 43.5,-627.5 344.5,-627.5 344.5,-597.5 43.5,-597.5"/>
<text text-anchor="start" x="50.5" y="-608.9" font-family="Arial" font-size="14.00" fill="#000000">is_registerd    </text>
<text text-anchor="start" x="157.0428" y="-608.9" font-family="Arial" font-size="14.00" fill="#666666">[tinyint(1) unsigned]</text>
<polygon fill="none" stroke="#000000" points="43.5,-567.5 43.5,-597.5 344.5,-597.5 344.5,-567.5 43.5,-567.5"/>
<text text-anchor="start" x="50.5" y="-578.9" font-family="Arial" font-size="14.00" fill="#000000">register_token    </text>
<text text-anchor="start" x="173.392" y="-578.9" font-family="Arial" font-size="14.00" fill="#666666">[varchar(64)]</text>
<polygon fill="none" stroke="#000000" points="43.5,-537.5 43.5,-567.5 344.5,-567.5 344.5,-537.5 43.5,-537.5"/>
<text text-anchor="start" x="50.5" y="-548.9" font-family="Arial" font-size="14.00" fill="#000000">register_created    </text>
<text text-anchor="start" x="185.8352" y="-548.9" font-family="Arial" font-size="14.00" fill="#666666">[datetime]</text>
<polygon fill="none" stroke="#000000" points="43.5,-507.5 43.5,-537.5 344.5,-537.5 344.5,-507.5 43.5,-507.5"/>
<text text-anchor="start" x="50.5" y="-518.9" font-family="Arial" font-size="14.00" fill="#000000">registerd_redirect_url    </text>
<text text-anchor="start" x="216.9348" y="-518.9" font-family="Arial" font-size="14.00" fill="#666666">[varchar(1000)]</text>
<polygon fill="none" stroke="#000000" points="43.5,-477.5 43.5,-507.5 344.5,-507.5 344.5,-477.5 43.5,-477.5"/>
<text text-anchor="start" x="50.4923" y="-488.9" font-family="Arial" font-size="14.00" fill="#000000">password_remember_token    </text>
<text text-anchor="start" x="258.1711" y="-488.9" font-family="Arial" font-size="14.00" fill="#666666">[varchar(64)]</text>
<polygon fill="none" stroke="#000000" points="43.5,-447.5 43.5,-477.5 344.5,-477.5 344.5,-447.5 43.5,-447.5"/>
<text text-anchor="start" x="50.5" y="-458.9" font-family="Arial" font-size="14.00" fill="#000000">password_remember_created    </text>
<text text-anchor="start" x="270.622" y="-458.9" font-family="Arial" font-size="14.00" fill="#666666">[datetime]</text>
<polygon fill="none" stroke="#000000" points="43.5,-417.5 43.5,-447.5 344.5,-447.5 344.5,-417.5 43.5,-417.5"/>
<text text-anchor="start" x="50.5" y="-428.9" font-family="Arial" font-size="14.00" fill="#000000">update_email    </text>
<text text-anchor="start" x="168.73" y="-428.9" font-family="Arial" font-size="14.00" fill="#666666">[varchar(255)]</text>
<polygon fill="none" stroke="#000000" points="43.5,-387.5 43.5,-417.5 344.5,-417.5 344.5,-387.5 43.5,-387.5"/>
<text text-anchor="start" x="50.5" y="-398.9" font-family="Arial" font-size="14.00" fill="#000000">update_email_token    </text>
<text text-anchor="start" x="210.751" y="-398.9" font-family="Arial" font-size="14.00" fill="#666666">[varchar(64)]</text>
<polygon fill="none" stroke="#000000" points="43.5,-357.5 43.5,-387.5 344.5,-387.5 344.5,-357.5 43.5,-357.5"/>
<text text-anchor="start" x="50.5" y="-368.9" font-family="Arial" font-size="14.00" fill="#000000">update_email_created    </text>
<text text-anchor="start" x="223.1942" y="-368.9" font-family="Arial" font-size="14.00" fill="#666666">[datetime]</text>
<polygon fill="none" stroke="#000000" points="43.5,-327.5 43.5,-357.5 344.5,-357.5 344.5,-327.5 43.5,-327.5"/>
<text text-anchor="start" x="50.5" y="-338.9" font-family="Arial" font-size="14.00" fill="#000000">user_image_id    </text>
<text text-anchor="start" x="176.5" y="-338.9" font-family="Arial" font-size="14.00" fill="#666666">[bigint(21) unsigned]</text>
<polygon fill="none" stroke="#000000" points="43.5,-297.5 43.5,-327.5 344.5,-327.5 344.5,-297.5 43.5,-297.5"/>
<text text-anchor="start" x="50.5" y="-308.9" font-family="Arial" font-size="14.00" fill="#000000">birthday    </text>
<text text-anchor="start" x="134.493" y="-308.9" font-family="Arial" font-size="14.00" fill="#666666">[date]</text>
<polygon fill="none" stroke="#000000" points="43.5,-267.5 43.5,-297.5 344.5,-297.5 344.5,-267.5 43.5,-267.5"/>
<text text-anchor="start" x="50.5" y="-278.9" font-family="Arial" font-size="14.00" fill="#000000">where_to_know    </text>
<text text-anchor="start" x="182.73" y="-278.9" font-family="Arial" font-size="14.00" fill="#666666">[smallint(6)]</text>
<polygon fill="none" stroke="#000000" points="43.5,-237.5 43.5,-267.5 344.5,-267.5 344.5,-237.5 43.5,-237.5"/>
<text text-anchor="start" x="50.5" y="-248.9" font-family="Arial" font-size="14.00" fill="#000000">apply_lessor_parent_ids    </text>
<text text-anchor="start" x="236.4102" y="-248.9" font-family="Arial" font-size="14.00" fill="#666666">[varchar(100)]</text>
<polygon fill="none" stroke="#000000" points="43.5,-207.5 43.5,-237.5 344.5,-237.5 344.5,-207.5 43.5,-207.5"/>
<text text-anchor="start" x="50.5" y="-218.9" font-family="Arial" font-size="14.00" fill="#000000">check_terms_date    </text>
<text text-anchor="start" x="199.068" y="-218.9" font-family="Arial" font-size="14.00" fill="#666666">[datetime]</text>
<polygon fill="none" stroke="#000000" points="43.5,-177.5 43.5,-207.5 344.5,-207.5 344.5,-177.5 43.5,-177.5"/>
<text text-anchor="start" x="50.5" y="-188.9" font-family="Arial" font-size="14.00" fill="#000000">created    </text>
<text text-anchor="start" x="131.3864" y="-188.9" font-family="Arial" font-size="14.00" fill="#666666">[datetime]</text>
<polygon fill="none" stroke="#000000" points="43.5,-147.5 43.5,-177.5 344.5,-177.5 344.5,-147.5 43.5,-147.5"/>
<text text-anchor="start" x="50.5" y="-158.9" font-family="Arial" font-size="14.00" fill="#000000">modified    </text>
<text text-anchor="start" x="137.5996" y="-158.9" font-family="Arial" font-size="14.00" fill="#666666">[datetime]</text>
</g>
<!-- sk_invoices&#45;&gt;sk_users -->
<g id="edge2" class="edge">
<title>sk_invoices:user_id&#45;&gt;sk_users:id</title>
<path fill="none" stroke="#000000" d="M281.4456,-1687.2575C110.265,-1678.7372 258.703,-1447.4652 291.5,-1267 310.6057,-1161.871 451.351,-1032.5 344.5,-1032.5"/>
<polygon fill="#000000" stroke="#000000" points="281.5029,-1687.2587 291.3914,-1691.9987 286.5015,-1687.3794 291.5,-1687.5 291.5,-1687.5 291.5,-1687.5 286.5015,-1687.3794 291.6086,-1683.0013 281.5029,-1687.2587 281.5029,-1687.2587"/>
<text text-anchor="start" x="43.6655" y="-1697.5" font-family="Arial" font-size="10.00" fill="#000000">FOREIGN KEY (user_id) REFERENCES sk_users (id)</text>
</g>
<!-- sk_lessors -->
<g id="node4" class="node">
<title>sk_lessors</title>
<polygon fill="#efefef" stroke="transparent" points="448.5,-1152.5 448.5,-1187.5 796.5,-1187.5 796.5,-1152.5 448.5,-1152.5"/>
<polygon fill="none" stroke="#000000" points="448.5,-1152.5 448.5,-1187.5 796.5,-1187.5 796.5,-1152.5 448.5,-1152.5"/>
<text text-anchor="start" x="516.2135" y="-1165.3" font-family="Arial Bold" font-size="18.00" fill="#000000">sk_lessors</text>
<text text-anchor="start" x="601.2185" y="-1165.3" font-family="Arial" font-size="14.00" fill="#000000">    </text>
<text text-anchor="start" x="635.4233" y="-1165.3" font-family="Arial" font-size="14.00" fill="#666666">[BASE TABLE]</text>
<polygon fill="none" stroke="#000000" points="448.5,-1122.5 448.5,-1152.5 796.5,-1152.5 796.5,-1122.5 448.5,-1122.5"/>
<text text-anchor="start" x="455.5" y="-1133.9" font-family="Arial" font-size="14.00" fill="#000000">user_id    </text>
<text text-anchor="start" x="535.6024" y="-1133.9" font-family="Arial" font-size="14.00" fill="#666666">[int(11) unsigned]</text>
<polygon fill="none" stroke="#000000" points="448.5,-1092.5 448.5,-1122.5 796.5,-1122.5 796.5,-1092.5 448.5,-1092.5"/>
<text text-anchor="start" x="455.5" y="-1103.9" font-family="Arial" font-size="14.00" fill="#000000">corporate_name    </text>
<text text-anchor="start" x="591.6206" y="-1103.9" font-family="Arial" font-size="14.00" fill="#666666">[varchar(200)]</text>
<polygon fill="none" stroke="#000000" points="448.5,-1062.5 448.5,-1092.5 796.5,-1092.5 796.5,-1062.5 448.5,-1062.5"/>
<text text-anchor="start" x="455.5" y="-1073.9" font-family="Arial" font-size="14.00" fill="#000000">signature_text    </text>
<text text-anchor="start" x="577.622" y="-1073.9" font-family="Arial" font-size="14.00" fill="#666666">[text]</text>
<polygon fill="none" stroke="#000000" points="448.5,-1032.5 448.5,-1062.5 796.5,-1062.5 796.5,-1032.5 448.5,-1032.5"/>
<text text-anchor="start" x="455.5" y="-1043.9" font-family="Arial" font-size="14.00" fill="#000000">start_reservable_creditcard    </text>
<text text-anchor="start" x="659.284" y="-1043.9" font-family="Arial" font-size="14.00" fill="#666666">[smallint(3)]</text>
<polygon fill="none" stroke="#000000" points="448.5,-1002.5 448.5,-1032.5 796.5,-1032.5 796.5,-1002.5 448.5,-1002.5"/>
<text text-anchor="start" x="455.5" y="-1013.9" font-family="Arial" font-size="14.00" fill="#000000">end_reservable_creditcard    </text>
<text text-anchor="start" x="655.4074" y="-1013.9" font-family="Arial" font-size="14.00" fill="#666666">[smallint(3)]</text>
<polygon fill="none" stroke="#000000" points="448.5,-972.5 448.5,-1002.5 796.5,-1002.5 796.5,-972.5 448.5,-972.5"/>
<text text-anchor="start" x="455.5" y="-983.9" font-family="Arial" font-size="14.00" fill="#000000">start_reservable_bill    </text>
<text text-anchor="start" x="614.9376" y="-983.9" font-family="Arial" font-size="14.00" fill="#666666">[smallint(3)]</text>
<polygon fill="none" stroke="#000000" points="448.5,-942.5 448.5,-972.5 796.5,-972.5 796.5,-942.5 448.5,-942.5"/>
<text text-anchor="start" x="455.5" y="-953.9" font-family="Arial" font-size="14.00" fill="#000000">end_reservable_bill    </text>
<text text-anchor="start" x="611.061" y="-953.9" font-family="Arial" font-size="14.00" fill="#666666">[smallint(3)]</text>
<polygon fill="none" stroke="#000000" points="448.5,-912.5 448.5,-942.5 796.5,-942.5 796.5,-912.5 448.5,-912.5"/>
<text text-anchor="start" x="455.5" y="-923.9" font-family="Arial" font-size="14.00" fill="#000000">bill_note    </text>
<text text-anchor="start" x="541.8282" y="-923.9" font-family="Arial" font-size="14.00" fill="#666666">[text]</text>
<polygon fill="none" stroke="#000000" points="448.5,-882.5 448.5,-912.5 796.5,-912.5 796.5,-882.5 448.5,-882.5"/>
<text text-anchor="start" x="455.5" y="-893.9" font-family="Arial" font-size="14.00" fill="#000000">start_reservable_onetime_bill    </text>
<text text-anchor="start" x="672.5084" y="-893.9" font-family="Arial" font-size="14.00" fill="#666666">[smallint(3)]</text>
<polygon fill="none" stroke="#000000" points="448.5,-852.5 448.5,-882.5 796.5,-882.5 796.5,-852.5 448.5,-852.5"/>
<text text-anchor="start" x="455.5" y="-863.9" font-family="Arial" font-size="14.00" fill="#000000">end_reservable_onetime_bill    </text>
<text text-anchor="start" x="668.6318" y="-863.9" font-family="Arial" font-size="14.00" fill="#666666">[smallint(3)]</text>
<polygon fill="none" stroke="#000000" points="448.5,-822.5 448.5,-852.5 796.5,-852.5 796.5,-822.5 448.5,-822.5"/>
<text text-anchor="start" x="455.5" y="-833.9" font-family="Arial" font-size="14.00" fill="#000000">payment_period    </text>
<text text-anchor="start" x="590.0666" y="-833.9" font-family="Arial" font-size="14.00" fill="#666666">[smallint(3)]</text>
<polygon fill="none" stroke="#000000" points="448.5,-792.5 448.5,-822.5 796.5,-822.5 796.5,-792.5 448.5,-792.5"/>
<text text-anchor="start" x="455.5" y="-803.9" font-family="Arial" font-size="14.00" fill="#000000">lessor_parent_id    </text>
<text text-anchor="start" x="593.1732" y="-803.9" font-family="Arial" font-size="14.00" fill="#666666">[int(11) unsigned]</text>
<polygon fill="none" stroke="#000000" points="448.5,-762.5 448.5,-792.5 796.5,-792.5 796.5,-762.5 448.5,-762.5"/>
<text text-anchor="start" x="455.5" y="-773.9" font-family="Arial" font-size="14.00" fill="#000000">postal    </text>
<text text-anchor="start" x="527.0498" y="-773.9" font-family="Arial" font-size="14.00" fill="#666666">[varchar(8)]</text>
<polygon fill="none" stroke="#000000" points="448.5,-732.5 448.5,-762.5 796.5,-762.5 796.5,-732.5 448.5,-732.5"/>
<text text-anchor="start" x="455.5" y="-743.9" font-family="Arial" font-size="14.00" fill="#000000">prefecture    </text>
<text text-anchor="start" x="552.7202" y="-743.9" font-family="Arial" font-size="14.00" fill="#666666">[varchar(20)]</text>
<polygon fill="none" stroke="#000000" points="448.5,-702.5 448.5,-732.5 796.5,-732.5 796.5,-702.5 448.5,-702.5"/>
<text text-anchor="start" x="455.5" y="-713.9" font-family="Arial" font-size="14.00" fill="#000000">address    </text>
<text text-anchor="start" x="539.4958" y="-713.9" font-family="Arial" font-size="14.00" fill="#666666">[varchar(500)]</text>
<polygon fill="none" stroke="#000000" points="448.5,-672.5 448.5,-702.5 796.5,-702.5 796.5,-672.5 448.5,-672.5"/>
<text text-anchor="start" x="455.5" y="-683.9" font-family="Arial" font-size="14.00" fill="#000000">tel    </text>
<text text-anchor="start" x="504.4846" y="-683.9" font-family="Arial" font-size="14.00" fill="#666666">[varchar(16)]</text>
<polygon fill="none" stroke="#000000" points="448.5,-642.5 448.5,-672.5 796.5,-672.5 796.5,-642.5 448.5,-642.5"/>
<text text-anchor="start" x="455.5" y="-653.9" font-family="Arial" font-size="14.00" fill="#000000">fax    </text>
<text text-anchor="start" x="508.378" y="-653.9" font-family="Arial" font-size="14.00" fill="#666666">[varchar(16)]</text>
<polygon fill="none" stroke="#000000" points="448.5,-612.5 448.5,-642.5 796.5,-642.5 796.5,-612.5 448.5,-612.5"/>
<text text-anchor="start" x="455.5" y="-623.9" font-family="Arial" font-size="14.00" fill="#000000">bank_account    </text>
<text text-anchor="start" x="576.8562" y="-623.9" font-family="Arial" font-size="14.00" fill="#666666">[varchar(200)]</text>
<polygon fill="none" stroke="#000000" points="448.5,-582.5 448.5,-612.5 796.5,-612.5 796.5,-582.5 448.5,-582.5"/>
<text text-anchor="start" x="455.5" y="-593.9" font-family="Arial" font-size="14.00" fill="#000000">invoice_monthly_auto_send    </text>
<text text-anchor="start" x="663.2054" y="-593.9" font-family="Arial" font-size="14.00" fill="#666666">[tinyint(1)]</text>
<polygon fill="none" stroke="#000000" points="448.5,-552.5 448.5,-582.5 796.5,-582.5 796.5,-552.5 448.5,-552.5"/>
<text text-anchor="start" x="455.5" y="-563.9" font-family="Arial" font-size="14.00" fill="#000000">receipt_monthly_auto_send    </text>
<text text-anchor="start" x="661.65" y="-563.9" font-family="Arial" font-size="14.00" fill="#666666">[tinyint(1)]</text>
<polygon fill="none" stroke="#000000" points="448.5,-522.5 448.5,-552.5 796.5,-552.5 796.5,-522.5 448.5,-522.5"/>
<text text-anchor="start" x="455.5" y="-533.9" font-family="Arial" font-size="14.00" fill="#000000">thankyou_auto_send    </text>
<text text-anchor="start" x="619.6598" y="-533.9" font-family="Arial" font-size="14.00" fill="#666666">[tinyint(1)]</text>
<polygon fill="none" stroke="#000000" points="448.5,-492.5 448.5,-522.5 796.5,-522.5 796.5,-492.5 448.5,-492.5"/>
<text text-anchor="start" x="455.5" y="-503.9" font-family="Arial" font-size="14.00" fill="#000000">thankyou_mail_text    </text>
<text text-anchor="start" x="610.2938" y="-503.9" font-family="Arial" font-size="14.00" fill="#666666">[varchar(1000)]</text>
<polygon fill="none" stroke="#000000" points="448.5,-462.5 448.5,-492.5 796.5,-492.5 796.5,-462.5 448.5,-462.5"/>
<text text-anchor="start" x="455.5" y="-473.9" font-family="Arial" font-size="14.00" fill="#000000">is_tax_on_cancel_charge    </text>
<text text-anchor="start" x="648.4256" y="-473.9" font-family="Arial" font-size="14.00" fill="#666666">[tinyint(1)]</text>
<polygon fill="none" stroke="#000000" points="448.5,-432.5 448.5,-462.5 796.5,-462.5 796.5,-432.5 448.5,-432.5"/>
<text text-anchor="start" x="455.5" y="-443.9" font-family="Arial" font-size="14.00" fill="#000000">is_auto_cancel    </text>
<text text-anchor="start" x="583.0694" y="-443.9" font-family="Arial" font-size="14.00" fill="#666666">[tinyint(1)]</text>
<polygon fill="none" stroke="#000000" points="448.5,-402.5 448.5,-432.5 796.5,-432.5 796.5,-402.5 448.5,-402.5"/>
<text text-anchor="start" x="455.5" y="-413.9" font-family="Arial" font-size="14.00" fill="#000000">is_reservable_creditcard_enabled    </text>
<text text-anchor="start" x="699.751" y="-413.9" font-family="Arial" font-size="14.00" fill="#666666">[tinyint(1)]</text>
<polygon fill="none" stroke="#000000" points="448.5,-372.5 448.5,-402.5 796.5,-402.5 796.5,-372.5 448.5,-372.5"/>
<text text-anchor="start" x="455.5" y="-383.9" font-family="Arial" font-size="14.00" fill="#000000">is_reservable_bill_enabled    </text>
<text text-anchor="start" x="655.4046" y="-383.9" font-family="Arial" font-size="14.00" fill="#666666">[tinyint(1)]</text>
<polygon fill="none" stroke="#000000" points="448.5,-342.5 448.5,-372.5 796.5,-372.5 796.5,-342.5 448.5,-342.5"/>
<text text-anchor="start" x="455.2553" y="-353.9" font-family="Arial" font-size="14.00" fill="#000000">is_reservable_local_payment_enabled    </text>
<text text-anchor="start" x="728.3001" y="-353.9" font-family="Arial" font-size="14.00" fill="#666666">[tinyint(1)]</text>
<polygon fill="none" stroke="#000000" points="448.5,-312.5 448.5,-342.5 796.5,-342.5 796.5,-312.5 448.5,-312.5"/>
<text text-anchor="start" x="455.5" y="-323.9" font-family="Arial" font-size="14.00" fill="#000000">start_reservable_local_payment    </text>
<text text-anchor="start" x="688.0778" y="-323.9" font-family="Arial" font-size="14.00" fill="#666666">[int(3)]</text>
<polygon fill="none" stroke="#000000" points="448.5,-282.5 448.5,-312.5 796.5,-312.5 796.5,-282.5 448.5,-282.5"/>
<text text-anchor="start" x="455.5" y="-293.9" font-family="Arial" font-size="14.00" fill="#000000">end_reservable_local_payment    </text>
<text text-anchor="start" x="684.2012" y="-293.9" font-family="Arial" font-size="14.00" fill="#666666">[int(3)]</text>
<polygon fill="none" stroke="#000000" points="448.5,-252.5 448.5,-282.5 796.5,-282.5 796.5,-252.5 448.5,-252.5"/>
<text text-anchor="start" x="455.5" y="-263.9" font-family="Arial" font-size="14.00" fill="#000000">invoice_monthly_send_month_option    </text>
<text text-anchor="start" x="720.7762" y="-263.9" font-family="Arial" font-size="14.00" fill="#666666">[int(11)]</text>
<polygon fill="none" stroke="#000000" points="448.5,-222.5 448.5,-252.5 796.5,-252.5 796.5,-222.5 448.5,-222.5"/>
<text text-anchor="start" x="455.5" y="-233.9" font-family="Arial" font-size="14.00" fill="#000000">invoice_monthly_send_day    </text>
<text text-anchor="start" x="658.5322" y="-233.9" font-family="Arial" font-size="14.00" fill="#666666">[int(11)]</text>
<polygon fill="none" stroke="#000000" points="448.5,-192.5 448.5,-222.5 796.5,-222.5 796.5,-192.5 448.5,-192.5"/>
<text text-anchor="start" x="455.5" y="-203.9" font-family="Arial" font-size="14.00" fill="#000000">invoice_issuer_number    </text>
<text text-anchor="start" x="633.615" y="-203.9" font-family="Arial" font-size="14.00" fill="#666666">[varchar(30)]</text>
<polygon fill="none" stroke="#000000" points="448.5,-162.5 448.5,-192.5 796.5,-192.5 796.5,-162.5 448.5,-162.5"/>
<text text-anchor="start" x="455.5" y="-173.9" font-family="Arial" font-size="14.00" fill="#000000">is_reservable_stripe_enabled    </text>
<text text-anchor="start" x="672.5252" y="-173.9" font-family="Arial" font-size="14.00" fill="#666666">[tinyint(1)]</text>
<polygon fill="none" stroke="#000000" points="448.5,-132.5 448.5,-162.5 796.5,-162.5 796.5,-132.5 448.5,-132.5"/>
<text text-anchor="start" x="455.5" y="-143.9" font-family="Arial" font-size="14.00" fill="#000000">start_reservable_stripe    </text>
<text text-anchor="start" x="632.0582" y="-143.9" font-family="Arial" font-size="14.00" fill="#666666">[smallint(3)]</text>
<polygon fill="none" stroke="#000000" points="448.5,-102.5 448.5,-132.5 796.5,-132.5 796.5,-102.5 448.5,-102.5"/>
<text text-anchor="start" x="455.5" y="-113.9" font-family="Arial" font-size="14.00" fill="#000000">end_reservable_stripe    </text>
<text text-anchor="start" x="628.1816" y="-113.9" font-family="Arial" font-size="14.00" fill="#666666">[smallint(3)]</text>
<polygon fill="none" stroke="#000000" points="448.5,-72.5 448.5,-102.5 796.5,-102.5 796.5,-72.5 448.5,-72.5"/>
<text text-anchor="start" x="455.5" y="-83.9" font-family="Arial" font-size="14.00" fill="#000000">summary    </text>
<text text-anchor="start" x="547.2518" y="-83.9" font-family="Arial" font-size="14.00" fill="#666666">[text]</text>
<polygon fill="none" stroke="#000000" points="448.5,-42.5 448.5,-72.5 796.5,-72.5 796.5,-42.5 448.5,-42.5"/>
<text text-anchor="start" x="455.5" y="-53.9" font-family="Arial" font-size="14.00" fill="#000000">information    </text>
<text text-anchor="start" x="558.9334" y="-53.9" font-family="Arial" font-size="14.00" fill="#666666">[text]</text>
</g>
<!-- sk_invoices&#45;&gt;sk_lessors -->
<g id="edge3" class="edge">
<title>sk_invoices:lessor_user_id&#45;&gt;sk_lessors:user_id</title>
<path fill="none" stroke="#000000" d="M535.8594,-1657.195C695.7534,-1647.5301 616.7669,-1410.4193 525.5,-1267 505.218,-1235.1283 468.782,-1262.8717 448.5,-1231 426.1898,-1195.9412 406.9444,-1137.5 448.5,-1137.5"/>
<polygon fill="#000000" stroke="#000000" points="535.4957,-1657.2056 525.3675,-1653.0019 530.4978,-1657.3528 525.5,-1657.5 525.5,-1657.5 525.5,-1657.5 530.4978,-1657.3528 525.6325,-1661.9981 535.4957,-1657.2056 535.4957,-1657.2056"/>
<text text-anchor="start" x="532.4405" y="-1667.5" font-family="Arial" font-size="10.00" fill="#000000">FOREIGN KEY (lessor_user_id) REFERENCES sk_lessors (user_id)</text>
</g>
<!-- sk_invoice_items -->
<g id="node2" class="node">
<title>sk_invoice_items</title>
<polygon fill="#efefef" stroke="transparent" points="269.5,-2102.5 269.5,-2137.5 547.5,-2137.5 547.5,-2102.5 269.5,-2102.5"/>
<polygon fill="none" stroke="#000000" points="269.5,-2102.5 269.5,-2137.5 547.5,-2137.5 547.5,-2102.5 269.5,-2102.5"/>
<text text-anchor="start" x="276.2089" y="-2115.3" font-family="Arial Bold" font-size="18.00" fill="#000000">sk_invoice_items</text>
<text text-anchor="start" x="413.2231" y="-2115.3" font-family="Arial" font-size="14.00" fill="#000000">    </text>
<text text-anchor="start" x="447.4279" y="-2115.3" font-family="Arial" font-size="14.00" fill="#666666">[BASE TABLE]</text>
<polygon fill="none" stroke="#000000" points="269.5,-2072.5 269.5,-2102.5 547.5,-2102.5 547.5,-2072.5 269.5,-2072.5"/>
<text text-anchor="start" x="276.5" y="-2083.9" font-family="Arial" font-size="14.00" fill="#000000">id    </text>
<text text-anchor="start" x="321.594" y="-2083.9" font-family="Arial" font-size="14.00" fill="#666666">[int(10) unsigned]</text>
<polygon fill="none" stroke="#000000" points="269.5,-2042.5 269.5,-2072.5 547.5,-2072.5 547.5,-2042.5 269.5,-2042.5"/>
<text text-anchor="start" x="276.5" y="-2053.9" font-family="Arial" font-size="14.00" fill="#000000">invoice_id    </text>
<text text-anchor="start" x="372.9376" y="-2053.9" font-family="Arial" font-size="14.00" fill="#666666">[int(11) unsigned]</text>
<polygon fill="none" stroke="#000000" points="269.5,-2012.5 269.5,-2042.5 547.5,-2042.5 547.5,-2012.5 269.5,-2012.5"/>
<text text-anchor="start" x="276.5" y="-2023.9" font-family="Arial" font-size="14.00" fill="#000000">name    </text>
<text text-anchor="start" x="345.7132" y="-2023.9" font-family="Arial" font-size="14.00" fill="#666666">[varchar(1000)]</text>
<polygon fill="none" stroke="#000000" points="269.5,-1982.5 269.5,-2012.5 547.5,-2012.5 547.5,-1982.5 269.5,-1982.5"/>
<text text-anchor="start" x="276.5" y="-1993.9" font-family="Arial" font-size="14.00" fill="#000000">price    </text>
<text text-anchor="start" x="341.0372" y="-1993.9" font-family="Arial" font-size="14.00" fill="#666666">[int(11)]</text>
<polygon fill="none" stroke="#000000" points="269.5,-1952.5 269.5,-1982.5 547.5,-1982.5 547.5,-1952.5 269.5,-1952.5"/>
<text text-anchor="start" x="276.5" y="-1963.9" font-family="Arial" font-size="14.00" fill="#000000">unit    </text>
<text text-anchor="start" x="333.2672" y="-1963.9" font-family="Arial" font-size="14.00" fill="#666666">[varchar(200)]</text>
<polygon fill="none" stroke="#000000" points="269.5,-1922.5 269.5,-1952.5 547.5,-1952.5 547.5,-1922.5 269.5,-1922.5"/>
<text text-anchor="start" x="276.5" y="-1933.9" font-family="Arial" font-size="14.00" fill="#000000">amount    </text>
<text text-anchor="start" x="357.3864" y="-1933.9" font-family="Arial" font-size="14.00" fill="#666666">[int(11)]</text>
<polygon fill="none" stroke="#000000" points="269.5,-1892.5 269.5,-1922.5 547.5,-1922.5 547.5,-1892.5 269.5,-1892.5"/>
<text text-anchor="start" x="276.5" y="-1903.9" font-family="Arial" font-size="14.00" fill="#000000">tax    </text>
<text text-anchor="start" x="329.378" y="-1903.9" font-family="Arial" font-size="14.00" fill="#666666">[int(11)]</text>
</g>
<!-- sk_invoice_items&#45;&gt;sk_invoices -->
<g id="edge1" class="edge">
<title>sk_invoice_items:invoice_id&#45;&gt;sk_invoices:id</title>
<path fill="none" stroke="#000000" d="M557.862,-2056.9485C697.8248,-2041.7493 673.378,-1717.5 525.5,-1717.5"/>
<polygon fill="#000000" stroke="#000000" points="557.4859,-2056.9684 547.2608,-2053.0064 552.4929,-2057.2342 547.5,-2057.5 547.5,-2057.5 547.5,-2057.5 552.4929,-2057.2342 547.7392,-2061.9936 557.4859,-2056.9684 557.4859,-2056.9684"/>
<text text-anchor="start" x="554.9975" y="-2067.5" font-family="Arial" font-size="10.00" fill="#000000">FOREIGN KEY (invoice_id) REFERENCES sk_invoices (id)</text>
</g>
</g>
</svg>
