<?xml version="1.0" encoding="UTF-8" standalone="no"?>
<!DOCTYPE svg PUBLIC "-//W3C//DTD SVG 1.1//EN"
 "http://www.w3.org/Graphics/SVG/1.1/DTD/svg11.dtd">
<!-- Generated by graphviz version 2.40.1 (20161225.0304)
 -->
<!-- Title: sk_inquiries Pages: 1 -->
<svg width="336pt" height="435pt"
 viewBox="0.00 0.00 336.00 435.00" xmlns="http://www.w3.org/2000/svg" xmlns:xlink="http://www.w3.org/1999/xlink">
<g id="graph0" class="graph" transform="scale(1 1) rotate(0) translate(4 431)">
<title>sk_inquiries</title>
<polygon fill="#ffffff" stroke="transparent" points="-4,4 -4,-431 332,-431 332,4 -4,4"/>
<!-- sk_inquiries -->
<g id="node1" class="node">
<title>sk_inquiries</title>
<polygon fill="#efefef" stroke="transparent" points="46,-345.5 46,-380.5 282,-380.5 282,-345.5 46,-345.5"/>
<polygon fill="none" stroke="#000000" points="46,-345.5 46,-380.5 282,-380.5 282,-345.5 46,-345.5"/>
<text text-anchor="start" x="52.7131" y="-358.3" font-family="Arial Bold" font-size="18.00" fill="#000000">sk_inquiries</text>
<text text-anchor="start" x="147.7189" y="-358.3" font-family="Arial" font-size="14.00" fill="#000000">    </text>
<text text-anchor="start" x="181.9237" y="-358.3" font-family="Arial" font-size="14.00" fill="#666666">[BASE TABLE]</text>
<polygon fill="none" stroke="#000000" points="46,-315.5 46,-345.5 282,-345.5 282,-315.5 46,-315.5"/>
<text text-anchor="start" x="53" y="-326.9" font-family="Arial" font-size="14.00" fill="#000000">id </text>
<text text-anchor="start" x="67.7798" y="-326.9" font-family="Arial" font-size="14.00" fill="#666666">[int(11)]</text>
<polygon fill="none" stroke="#000000" points="46,-285.5 46,-315.5 282,-315.5 282,-285.5 46,-285.5"/>
<text text-anchor="start" x="53" y="-296.9" font-family="Arial" font-size="14.00" fill="#000000">user_type </text>
<text text-anchor="start" x="118.3548" y="-296.9" font-family="Arial" font-size="14.00" fill="#666666">[tinyint(2)]</text>
<polygon fill="none" stroke="#000000" points="46,-255.5 46,-285.5 282,-285.5 282,-255.5 46,-255.5"/>
<text text-anchor="start" x="53" y="-266.9" font-family="Arial" font-size="14.00" fill="#000000">company_name </text>
<text text-anchor="start" x="156.4726" y="-266.9" font-family="Arial" font-size="14.00" fill="#666666">[varchar(255)]</text>
<polygon fill="none" stroke="#000000" points="46,-225.5 46,-255.5 282,-255.5 282,-225.5 46,-225.5"/>
<text text-anchor="start" x="53" y="-236.9" font-family="Arial" font-size="14.00" fill="#000000">user_name </text>
<text text-anchor="start" x="126.9074" y="-236.9" font-family="Arial" font-size="14.00" fill="#666666">[varchar(255)]</text>
<polygon fill="none" stroke="#000000" points="46,-195.5 46,-225.5 282,-225.5 282,-195.5 46,-195.5"/>
<text text-anchor="start" x="53" y="-206.9" font-family="Arial" font-size="14.00" fill="#000000">email </text>
<text text-anchor="start" x="90.3296" y="-206.9" font-family="Arial" font-size="14.00" fill="#666666">[varchar(255)]</text>
<polygon fill="none" stroke="#000000" points="46,-165.5 46,-195.5 282,-195.5 282,-165.5 46,-165.5"/>
<text text-anchor="start" x="53" y="-176.9" font-family="Arial" font-size="14.00" fill="#000000">tel </text>
<text text-anchor="start" x="71.6704" y="-176.9" font-family="Arial" font-size="14.00" fill="#666666">[varchar(255)]</text>
<polygon fill="none" stroke="#000000" points="46,-135.5 46,-165.5 282,-165.5 282,-135.5 46,-135.5"/>
<text text-anchor="start" x="53" y="-146.9" font-family="Arial" font-size="14.00" fill="#000000">created_at </text>
<text text-anchor="start" x="123.028" y="-146.9" font-family="Arial" font-size="14.00" fill="#666666">[datetime]</text>
<polygon fill="none" stroke="#000000" points="46,-105.5 46,-135.5 282,-135.5 282,-105.5 46,-105.5"/>
<text text-anchor="start" x="53" y="-116.9" font-family="Arial" font-size="14.00" fill="#000000">space_type </text>
<text text-anchor="start" x="128.4768" y="-116.9" font-family="Arial" font-size="14.00" fill="#666666">[tinyint(2)]</text>
<polygon fill="none" stroke="#000000" points="46,-75.5 46,-105.5 282,-105.5 282,-75.5 46,-75.5"/>
<text text-anchor="start" x="53" y="-86.9" font-family="Arial" font-size="14.00" fill="#000000">inquiry_type </text>
<text text-anchor="start" x="132.3506" y="-86.9" font-family="Arial" font-size="14.00" fill="#666666">[tinyint(2)]</text>
<polygon fill="none" stroke="#000000" points="46,-45.5 46,-75.5 282,-75.5 282,-45.5 46,-45.5"/>
<text text-anchor="start" x="53" y="-56.9" font-family="Arial" font-size="14.00" fill="#000000">inquiry_details </text>
<text text-anchor="start" x="146.3464" y="-56.9" font-family="Arial" font-size="14.00" fill="#666666">[text]</text>
<polygon fill="none" stroke="#000000" stroke-width="3" points="44.5,-44.5 44.5,-382.5 283.5,-382.5 283.5,-44.5 44.5,-44.5"/>
</g>
</g>
</svg>
