<?xml version="1.0" encoding="UTF-8" standalone="no"?>
<!DOCTYPE svg PUBLIC "-//W3C//DTD SVG 1.1//EN"
 "http://www.w3.org/Graphics/SVG/1.1/DTD/svg11.dtd">
<!-- Generated by graphviz version 2.40.1 (20161225.0304)
 -->
<!-- Title: sk_lessor_parents_users Pages: 1 -->
<svg width="1000pt" height="2752pt"
 viewBox="0.00 0.00 1000.00 2752.00" xmlns="http://www.w3.org/2000/svg" xmlns:xlink="http://www.w3.org/1999/xlink">
<g id="graph0" class="graph" transform="scale(1 1) rotate(0) translate(4 2748)">
<title>sk_lessor_parents_users</title>
<polygon fill="#ffffff" stroke="transparent" points="-4,4 -4,-2748 996,-2748 996,4 -4,4"/>
<!-- sk_lessor_parents_users -->
<g id="node1" class="node">
<title>sk_lessor_parents_users</title>
<polygon fill="#efefef" stroke="transparent" points="362,-2662.5 362,-2697.5 703,-2697.5 703,-2662.5 362,-2662.5"/>
<polygon fill="none" stroke="#000000" points="362,-2662.5 362,-2697.5 703,-2697.5 703,-2662.5 362,-2662.5"/>
<text text-anchor="start" x="368.6954" y="-2675.3" font-family="Arial Bold" font-size="18.00" fill="#000000">sk_lessor_parents_users</text>
<text text-anchor="start" x="568.7366" y="-2675.3" font-family="Arial" font-size="14.00" fill="#000000">    </text>
<text text-anchor="start" x="602.9414" y="-2675.3" font-family="Arial" font-size="14.00" fill="#666666">[BASE TABLE]</text>
<polygon fill="none" stroke="#000000" points="362,-2632.5 362,-2662.5 703,-2662.5 703,-2632.5 362,-2632.5"/>
<text text-anchor="start" x="369" y="-2643.9" font-family="Arial" font-size="14.00" fill="#000000">id </text>
<text text-anchor="start" x="383.7798" y="-2643.9" font-family="Arial" font-size="14.00" fill="#666666">[int(11) unsigned]</text>
<polygon fill="none" stroke="#000000" points="362,-2602.5 362,-2632.5 703,-2632.5 703,-2602.5 362,-2602.5"/>
<text text-anchor="start" x="369" y="-2613.9" font-family="Arial" font-size="14.00" fill="#000000">lessor_parent_id </text>
<text text-anchor="start" x="476.359" y="-2613.9" font-family="Arial" font-size="14.00" fill="#666666">[int(11) unsigned]</text>
<polygon fill="none" stroke="#000000" points="362,-2572.5 362,-2602.5 703,-2602.5 703,-2572.5 362,-2572.5"/>
<text text-anchor="start" x="369" y="-2583.9" font-family="Arial" font-size="14.00" fill="#000000">user_id </text>
<text text-anchor="start" x="418.7882" y="-2583.9" font-family="Arial" font-size="14.00" fill="#666666">[int(11) unsigned]</text>
<polygon fill="none" stroke="#000000" points="362,-2542.5 362,-2572.5 703,-2572.5 703,-2542.5 362,-2542.5"/>
<text text-anchor="start" x="369" y="-2553.9" font-family="Arial" font-size="14.00" fill="#000000">stripe_customer_id </text>
<text text-anchor="start" x="491.1276" y="-2553.9" font-family="Arial" font-size="14.00" fill="#666666">[varchar(255)]</text>
<polygon fill="none" stroke="#000000" points="362,-2512.5 362,-2542.5 703,-2542.5 703,-2512.5 362,-2512.5"/>
<text text-anchor="start" x="369" y="-2523.9" font-family="Arial" font-size="14.00" fill="#000000">stripe_subscription_id </text>
<text text-anchor="start" x="508.2454" y="-2523.9" font-family="Arial" font-size="14.00" fill="#666666">[varchar(255)]</text>
<polygon fill="none" stroke="#000000" points="362,-2482.5 362,-2512.5 703,-2512.5 703,-2482.5 362,-2482.5"/>
<text text-anchor="start" x="369" y="-2493.9" font-family="Arial" font-size="14.00" fill="#000000">status </text>
<text text-anchor="start" x="410.237" y="-2493.9" font-family="Arial" font-size="14.00" fill="#666666">[smallint(6)]</text>
<polygon fill="none" stroke="#000000" points="362,-2452.5 362,-2482.5 703,-2482.5 703,-2452.5 362,-2452.5"/>
<text text-anchor="start" x="369" y="-2463.9" font-family="Arial" font-size="14.00" fill="#000000">group_id </text>
<text text-anchor="start" x="427.3534" y="-2463.9" font-family="Arial" font-size="14.00" fill="#666666">[int(11) unsigned]</text>
<polygon fill="none" stroke="#000000" points="362,-2422.5 362,-2452.5 703,-2452.5 703,-2422.5 362,-2422.5"/>
<text text-anchor="start" x="369" y="-2433.9" font-family="Arial" font-size="14.00" fill="#000000">temporary_group_id </text>
<text text-anchor="start" x="498.1388" y="-2433.9" font-family="Arial" font-size="14.00" fill="#666666">[int(11)]</text>
<polygon fill="none" stroke="#000000" points="362,-2392.5 362,-2422.5 703,-2422.5 703,-2392.5 362,-2392.5"/>
<text text-anchor="start" x="369" y="-2403.9" font-family="Arial" font-size="14.00" fill="#000000">approval_date </text>
<text text-anchor="start" x="461.5918" y="-2403.9" font-family="Arial" font-size="14.00" fill="#666666">[datetime]</text>
<polygon fill="none" stroke="#000000" points="362,-2362.5 362,-2392.5 703,-2392.5 703,-2362.5 362,-2362.5"/>
<text text-anchor="start" x="369" y="-2373.9" font-family="Arial" font-size="14.00" fill="#000000">subscription_purchase_date </text>
<text text-anchor="start" x="547.9452" y="-2373.9" font-family="Arial" font-size="14.00" fill="#666666">[datetime]</text>
<polygon fill="none" stroke="#000000" points="362,-2332.5 362,-2362.5 703,-2362.5 703,-2332.5 362,-2332.5"/>
<text text-anchor="start" x="369" y="-2343.9" font-family="Arial" font-size="14.00" fill="#000000">memo </text>
<text text-anchor="start" x="411.777" y="-2343.9" font-family="Arial" font-size="14.00" fill="#666666">[text]</text>
<polygon fill="none" stroke="#000000" points="362,-2302.5 362,-2332.5 703,-2332.5 703,-2302.5 362,-2302.5"/>
<text text-anchor="start" x="369" y="-2313.9" font-family="Arial" font-size="14.00" fill="#000000">has_changed_subgroup </text>
<text text-anchor="start" x="523.0728" y="-2313.9" font-family="Arial" font-size="14.00" fill="#666666">[tinyint(1)]</text>
<polygon fill="none" stroke="#000000" stroke-width="3" points="360,-2301.5 360,-2699.5 704,-2699.5 704,-2301.5 360,-2301.5"/>
</g>
<!-- sk_lessor_parents -->
<g id="node2" class="node">
<title>sk_lessor_parents</title>
<polygon fill="#efefef" stroke="transparent" points="55,-2142.5 55,-2177.5 535,-2177.5 535,-2142.5 55,-2142.5"/>
<polygon fill="none" stroke="#000000" points="55,-2142.5 55,-2177.5 535,-2177.5 535,-2142.5 55,-2142.5"/>
<text text-anchor="start" x="158.2008" y="-2155.3" font-family="Arial Bold" font-size="18.00" fill="#000000">sk_lessor_parents</text>
<text text-anchor="start" x="304.2312" y="-2155.3" font-family="Arial" font-size="14.00" fill="#000000">    </text>
<text text-anchor="start" x="338.436" y="-2155.3" font-family="Arial" font-size="14.00" fill="#666666">[BASE TABLE]</text>
<polygon fill="none" stroke="#000000" points="55,-2112.5 55,-2142.5 535,-2142.5 535,-2112.5 55,-2112.5"/>
<text text-anchor="start" x="62" y="-2123.9" font-family="Arial" font-size="14.00" fill="#000000">user_id    </text>
<text text-anchor="start" x="142.1024" y="-2123.9" font-family="Arial" font-size="14.00" fill="#666666">[int(11) unsigned]</text>
<polygon fill="none" stroke="#000000" points="55,-2082.5 55,-2112.5 535,-2112.5 535,-2082.5 55,-2082.5"/>
<text text-anchor="start" x="62" y="-2093.9" font-family="Arial" font-size="14.00" fill="#000000">corporate_name    </text>
<text text-anchor="start" x="198.1206" y="-2093.9" font-family="Arial" font-size="14.00" fill="#666666">[varchar(200)]</text>
<polygon fill="none" stroke="#000000" points="55,-2052.5 55,-2082.5 535,-2082.5 535,-2052.5 55,-2052.5"/>
<text text-anchor="start" x="62" y="-2063.9" font-family="Arial" font-size="14.00" fill="#000000">logo_image    </text>
<text text-anchor="start" x="168.5568" y="-2063.9" font-family="Arial" font-size="14.00" fill="#666666">[varchar(1000)]</text>
<polygon fill="none" stroke="#000000" points="55,-2022.5 55,-2052.5 535,-2052.5 535,-2022.5 55,-2022.5"/>
<text text-anchor="start" x="62" y="-2033.9" font-family="Arial" font-size="14.00" fill="#000000">status    </text>
<text text-anchor="start" x="133.5512" y="-2033.9" font-family="Arial" font-size="14.00" fill="#666666">[smallint(1)]</text>
<polygon fill="none" stroke="#000000" points="55,-1992.5 55,-2022.5 535,-2022.5 535,-1992.5 55,-1992.5"/>
<text text-anchor="start" x="62" y="-2003.9" font-family="Arial" font-size="14.00" fill="#000000">gmo_shop_id    </text>
<text text-anchor="start" x="180.2328" y="-2003.9" font-family="Arial" font-size="14.00" fill="#666666">[varchar(13)]</text>
<polygon fill="none" stroke="#000000" points="55,-1962.5 55,-1992.5 535,-1992.5 535,-1962.5 55,-1962.5"/>
<text text-anchor="start" x="62" y="-1973.9" font-family="Arial" font-size="14.00" fill="#000000">gmo_shop_pass    </text>
<text text-anchor="start" x="198.9088" y="-1973.9" font-family="Arial" font-size="14.00" fill="#666666">[varchar(10)]</text>
<polygon fill="none" stroke="#000000" points="55,-1932.5 55,-1962.5 535,-1962.5 535,-1932.5 55,-1932.5"/>
<text text-anchor="start" x="62" y="-1943.9" font-family="Arial" font-size="14.00" fill="#000000">gmo_virtualaccount    </text>
<text text-anchor="start" x="217.5638" y="-1943.9" font-family="Arial" font-size="14.00" fill="#666666">[int(11)]</text>
<polygon fill="none" stroke="#000000" points="55,-1902.5 55,-1932.5 535,-1932.5 535,-1902.5 55,-1902.5"/>
<text text-anchor="start" x="62" y="-1913.9" font-family="Arial" font-size="14.00" fill="#000000">veritrans_merchant_ccid    </text>
<text text-anchor="start" x="248.6676" y="-1913.9" font-family="Arial" font-size="14.00" fill="#666666">[varchar(32)]</text>
<polygon fill="none" stroke="#000000" points="55,-1872.5 55,-1902.5 535,-1902.5 535,-1872.5 55,-1872.5"/>
<text text-anchor="start" x="62" y="-1883.9" font-family="Arial" font-size="14.00" fill="#000000">veritrans_merchant_secret_key    </text>
<text text-anchor="start" x="291.46" y="-1883.9" font-family="Arial" font-size="14.00" fill="#666666">[varchar(64)]</text>
<polygon fill="none" stroke="#000000" points="55,-1842.5 55,-1872.5 535,-1872.5 535,-1842.5 55,-1842.5"/>
<text text-anchor="start" x="62" y="-1853.9" font-family="Arial" font-size="14.00" fill="#000000">veritrans_token_api_key    </text>
<text text-anchor="start" x="247.9116" y="-1853.9" font-family="Arial" font-size="14.00" fill="#666666">[varchar(36)]</text>
<polygon fill="none" stroke="#000000" points="55,-1812.5 55,-1842.5 535,-1842.5 535,-1812.5 55,-1812.5"/>
<text text-anchor="start" x="62" y="-1823.9" font-family="Arial" font-size="14.00" fill="#000000">veritrans_payeasyaccount    </text>
<text text-anchor="start" x="258.805" y="-1823.9" font-family="Arial" font-size="14.00" fill="#666666">[int(11)]</text>
<polygon fill="none" stroke="#000000" points="55,-1782.5 55,-1812.5 535,-1812.5 535,-1782.5 55,-1782.5"/>
<text text-anchor="start" x="62" y="-1793.9" font-family="Arial" font-size="14.00" fill="#000000">stripe_account_id    </text>
<text text-anchor="start" x="205.9032" y="-1793.9" font-family="Arial" font-size="14.00" fill="#666666">[varchar(255)]</text>
<polygon fill="none" stroke="#000000" points="55,-1752.5 55,-1782.5 535,-1782.5 535,-1752.5 55,-1752.5"/>
<text text-anchor="start" x="62" y="-1763.9" font-family="Arial" font-size="14.00" fill="#000000">stripe_api_secret_key    </text>
<text text-anchor="start" x="232.3464" y="-1763.9" font-family="Arial" font-size="14.00" fill="#666666">[varchar(255)]</text>
<polygon fill="none" stroke="#000000" points="55,-1722.5 55,-1752.5 535,-1752.5 535,-1722.5 55,-1722.5"/>
<text text-anchor="start" x="62" y="-1733.9" font-family="Arial" font-size="14.00" fill="#000000">sign_image    </text>
<text text-anchor="start" x="167.7742" y="-1733.9" font-family="Arial" font-size="14.00" fill="#666666">[varchar(200)]</text>
<polygon fill="none" stroke="#000000" points="55,-1692.5 55,-1722.5 535,-1722.5 535,-1692.5 55,-1692.5"/>
<text text-anchor="start" x="62" y="-1703.9" font-family="Arial" font-size="14.00" fill="#000000">auto_approve    </text>
<text text-anchor="start" x="181.7994" y="-1703.9" font-family="Arial" font-size="14.00" fill="#666666">[tinyint(1)]</text>
<polygon fill="none" stroke="#000000" points="55,-1662.5 55,-1692.5 535,-1692.5 535,-1662.5 55,-1662.5"/>
<text text-anchor="start" x="62" y="-1673.9" font-family="Arial" font-size="14.00" fill="#000000">tenant_usage_approve_mail_text    </text>
<text text-anchor="start" x="303.171" y="-1673.9" font-family="Arial" font-size="14.00" fill="#666666">[text]</text>
<polygon fill="none" stroke="#000000" points="55,-1632.5 55,-1662.5 535,-1662.5 535,-1632.5 55,-1632.5"/>
<text text-anchor="start" x="62" y="-1643.9" font-family="Arial" font-size="14.00" fill="#000000">hide_regist_page    </text>
<text text-anchor="start" x="203.5778" y="-1643.9" font-family="Arial" font-size="14.00" fill="#666666">[tinyint(4)]</text>
<polygon fill="none" stroke="#000000" points="55,-1602.5 55,-1632.5 535,-1632.5 535,-1602.5 55,-1602.5"/>
<text text-anchor="start" x="62" y="-1613.9" font-family="Arial" font-size="14.00" fill="#000000">disp_customer_info_input    </text>
<text text-anchor="start" x="255.6914" y="-1613.9" font-family="Arial" font-size="14.00" fill="#666666">[tinyint(1)]</text>
<polygon fill="none" stroke="#000000" points="55,-1572.5 55,-1602.5 535,-1602.5 535,-1572.5 55,-1572.5"/>
<text text-anchor="start" x="62" y="-1583.9" font-family="Arial" font-size="14.00" fill="#000000">salesforce_client_id    </text>
<text text-anchor="start" x="219.1164" y="-1583.9" font-family="Arial" font-size="14.00" fill="#666666">[varchar(100)]</text>
<polygon fill="none" stroke="#000000" points="55,-1542.5 55,-1572.5 535,-1572.5 535,-1542.5 55,-1542.5"/>
<text text-anchor="start" x="62" y="-1553.9" font-family="Arial" font-size="14.00" fill="#000000">salesforce_client_secret    </text>
<text text-anchor="start" x="246.3436" y="-1553.9" font-family="Arial" font-size="14.00" fill="#666666">[varchar(100)]</text>
<polygon fill="none" stroke="#000000" points="55,-1512.5 55,-1542.5 535,-1542.5 535,-1512.5 55,-1512.5"/>
<text text-anchor="start" x="62" y="-1523.9" font-family="Arial" font-size="14.00" fill="#000000">salesforce_client_username    </text>
<text text-anchor="start" x="270.4614" y="-1523.9" font-family="Arial" font-size="14.00" fill="#666666">[varchar(100)]</text>
<polygon fill="none" stroke="#000000" points="55,-1482.5 55,-1512.5 535,-1512.5 535,-1482.5 55,-1482.5"/>
<text text-anchor="start" x="62" y="-1493.9" font-family="Arial" font-size="14.00" fill="#000000">salesforce_client_password    </text>
<text text-anchor="start" x="268.1248" y="-1493.9" font-family="Arial" font-size="14.00" fill="#666666">[varchar(100)]</text>
<polygon fill="none" stroke="#000000" points="55,-1452.5 55,-1482.5 535,-1482.5 535,-1452.5 55,-1452.5"/>
<text text-anchor="start" x="62" y="-1463.9" font-family="Arial" font-size="14.00" fill="#000000">salesforce_api_security_token    </text>
<text text-anchor="start" x="284.474" y="-1463.9" font-family="Arial" font-size="14.00" fill="#666666">[varchar(100)]</text>
<polygon fill="none" stroke="#000000" points="55,-1422.5 55,-1452.5 535,-1452.5 535,-1422.5 55,-1422.5"/>
<text text-anchor="start" x="62" y="-1433.9" font-family="Arial" font-size="14.00" fill="#000000">salesforce_version    </text>
<text text-anchor="start" x="212.8906" y="-1433.9" font-family="Arial" font-size="14.00" fill="#666666">[varchar(100)]</text>
<polygon fill="none" stroke="#000000" points="55,-1392.5 55,-1422.5 535,-1422.5 535,-1392.5 55,-1392.5"/>
<text text-anchor="start" x="62" y="-1403.9" font-family="Arial" font-size="14.00" fill="#000000">disp_name    </text>
<text text-anchor="start" x="164.6676" y="-1403.9" font-family="Arial" font-size="14.00" fill="#666666">[varchar(200)]</text>
<polygon fill="none" stroke="#000000" points="55,-1362.5 55,-1392.5 535,-1392.5 535,-1362.5 55,-1362.5"/>
<text text-anchor="start" x="62" y="-1373.9" font-family="Arial" font-size="14.00" fill="#000000">salesforce_password_salt    </text>
<text text-anchor="start" x="257.2356" y="-1373.9" font-family="Arial" font-size="14.00" fill="#666666">[varchar(100)]</text>
<polygon fill="none" stroke="#000000" points="55,-1332.5 55,-1362.5 535,-1362.5 535,-1332.5 55,-1332.5"/>
<text text-anchor="start" x="62" y="-1343.9" font-family="Arial" font-size="14.00" fill="#000000">subscription_terms    </text>
<text text-anchor="start" x="213.6592" y="-1343.9" font-family="Arial" font-size="14.00" fill="#666666">[text]</text>
<polygon fill="none" stroke="#000000" points="55,-1302.5 55,-1332.5 535,-1332.5 535,-1302.5 55,-1302.5"/>
<text text-anchor="start" x="62" y="-1313.9" font-family="Arial" font-size="14.00" fill="#000000">memo    </text>
<text text-anchor="start" x="135.0912" y="-1313.9" font-family="Arial" font-size="14.00" fill="#666666">[text]</text>
<polygon fill="none" stroke="#000000" points="55,-1272.5 55,-1302.5 535,-1302.5 535,-1272.5 55,-1272.5"/>
<text text-anchor="start" x="62" y="-1283.9" font-family="Arial" font-size="14.00" fill="#000000">memo_helper_text    </text>
<text text-anchor="start" x="212.1178" y="-1283.9" font-family="Arial" font-size="14.00" fill="#666666">[text]</text>
<polygon fill="none" stroke="#000000" points="55,-1242.5 55,-1272.5 535,-1272.5 535,-1242.5 55,-1242.5"/>
<text text-anchor="start" x="62" y="-1253.9" font-family="Arial" font-size="14.00" fill="#000000">memo_placeholder_text    </text>
<text text-anchor="start" x="245.5722" y="-1253.9" font-family="Arial" font-size="14.00" fill="#666666">[text]</text>
<polygon fill="none" stroke="#000000" points="55,-1212.5 55,-1242.5 535,-1242.5 535,-1212.5 55,-1212.5"/>
<text text-anchor="start" x="62" y="-1223.9" font-family="Arial" font-size="14.00" fill="#000000">is_memo_required    </text>
<text text-anchor="start" x="212.1038" y="-1223.9" font-family="Arial" font-size="14.00" fill="#666666">[tinyint(1)]</text>
<polygon fill="none" stroke="#000000" points="55,-1182.5 55,-1212.5 535,-1212.5 535,-1182.5 55,-1182.5"/>
<text text-anchor="start" x="62" y="-1193.9" font-family="Arial" font-size="14.00" fill="#000000">is_number_person_required    </text>
<text text-anchor="start" x="271.2426" y="-1193.9" font-family="Arial" font-size="14.00" fill="#666666">[tinyint(1)]</text>
<polygon fill="none" stroke="#000000" points="55,-1152.5 55,-1182.5 535,-1182.5 535,-1152.5 55,-1152.5"/>
<text text-anchor="start" x="62" y="-1163.9" font-family="Arial" font-size="14.00" fill="#000000">is_show_number_person    </text>
<text text-anchor="start" x="252.5736" y="-1163.9" font-family="Arial" font-size="14.00" fill="#666666">[tinyint(1)]</text>
<polygon fill="none" stroke="#000000" points="55,-1122.5 55,-1152.5 535,-1152.5 535,-1122.5 55,-1122.5"/>
<text text-anchor="start" x="62" y="-1133.9" font-family="Arial" font-size="14.00" fill="#000000">reservation_usage_time_block    </text>
<text text-anchor="start" x="286.0266" y="-1133.9" font-family="Arial" font-size="14.00" fill="#666666">[int(11)]</text>
<polygon fill="none" stroke="#000000" points="55,-1092.5 55,-1122.5 535,-1122.5 535,-1092.5 55,-1092.5"/>
<text text-anchor="start" x="62" y="-1103.9" font-family="Arial" font-size="14.00" fill="#000000">user_reservation_time_block    </text>
<text text-anchor="start" x="275.122" y="-1103.9" font-family="Arial" font-size="14.00" fill="#666666">[int(11)]</text>
<polygon fill="none" stroke="#000000" points="55,-1062.5 55,-1092.5 535,-1092.5 535,-1062.5 55,-1062.5"/>
<text text-anchor="start" x="62" y="-1073.9" font-family="Arial" font-size="14.00" fill="#000000">reservation_extension_time_block    </text>
<text text-anchor="start" x="307.8064" y="-1073.9" font-family="Arial" font-size="14.00" fill="#666666">[int(11)]</text>
<polygon fill="none" stroke="#000000" points="55,-1032.5 55,-1062.5 535,-1062.5 535,-1032.5 55,-1032.5"/>
<text text-anchor="start" x="62" y="-1043.9" font-family="Arial" font-size="14.00" fill="#000000">is_max_room_price_enabled    </text>
<text text-anchor="start" x="275.906" y="-1043.9" font-family="Arial" font-size="14.00" fill="#666666">[tinyint(1)]</text>
<polygon fill="none" stroke="#000000" points="55,-1002.5 55,-1032.5 535,-1032.5 535,-1002.5 55,-1002.5"/>
<text text-anchor="start" x="62" y="-1013.9" font-family="Arial" font-size="14.00" fill="#000000">is_room_charge_hour_weeks_enabled    </text>
<text text-anchor="start" x="337.3842" y="-1013.9" font-family="Arial" font-size="14.00" fill="#666666">[tinyint(1)]</text>
<polygon fill="none" stroke="#000000" points="55,-972.5 55,-1002.5 535,-1002.5 535,-972.5 55,-972.5"/>
<text text-anchor="start" x="62" y="-983.9" font-family="Arial" font-size="14.00" fill="#000000">allow_custom_invoice_monthly_send_day    </text>
<text text-anchor="start" x="357.5988" y="-983.9" font-family="Arial" font-size="14.00" fill="#666666">[tinyint(1)]</text>
<polygon fill="none" stroke="#000000" points="55,-942.5 55,-972.5 535,-972.5 535,-942.5 55,-942.5"/>
<text text-anchor="start" x="62" y="-953.9" font-family="Arial" font-size="14.00" fill="#000000">is_meeting_name_required    </text>
<text text-anchor="start" x="265.7966" y="-953.9" font-family="Arial" font-size="14.00" fill="#666666">[tinyint(1)]</text>
<polygon fill="none" stroke="#000000" points="55,-912.5 55,-942.5 535,-942.5 535,-912.5 55,-912.5"/>
<text text-anchor="start" x="62" y="-923.9" font-family="Arial" font-size="14.00" fill="#000000">is_show_meeting_name    </text>
<text text-anchor="start" x="247.1276" y="-923.9" font-family="Arial" font-size="14.00" fill="#666666">[tinyint(1)]</text>
<polygon fill="none" stroke="#000000" points="55,-882.5 55,-912.5 535,-912.5 535,-882.5 55,-882.5"/>
<text text-anchor="start" x="62" y="-893.9" font-family="Arial" font-size="14.00" fill="#000000">meeting_name_placeholder_text    </text>
<text text-anchor="start" x="299.265" y="-893.9" font-family="Arial" font-size="14.00" fill="#666666">[varchar(100)]</text>
<polygon fill="none" stroke="#000000" points="55,-852.5 55,-882.5 535,-882.5 535,-852.5 55,-852.5"/>
<text text-anchor="start" x="62" y="-863.9" font-family="Arial" font-size="14.00" fill="#000000">is_group_reservation_limit_number_enabled    </text>
<text text-anchor="start" x="372.3716" y="-863.9" font-family="Arial" font-size="14.00" fill="#666666">[tinyint(1)]</text>
<polygon fill="none" stroke="#000000" points="55,-822.5 55,-852.5 535,-852.5 535,-822.5 55,-822.5"/>
<text text-anchor="start" x="62" y="-833.9" font-family="Arial" font-size="14.00" fill="#000000">is_group_business_hours_setting_enabled    </text>
<text text-anchor="start" x="362.2986" y="-833.9" font-family="Arial" font-size="14.00" fill="#666666">[tinyint(1)]</text>
<polygon fill="none" stroke="#000000" points="55,-792.5 55,-822.5 535,-822.5 535,-792.5 55,-792.5"/>
<text text-anchor="start" x="62" y="-803.9" font-family="Arial" font-size="14.00" fill="#000000">default_auto_group_id    </text>
<text text-anchor="start" x="235.4894" y="-803.9" font-family="Arial" font-size="14.00" fill="#666666">[int(11) unsigned]</text>
<polygon fill="none" stroke="#000000" points="55,-762.5 55,-792.5 535,-792.5 535,-762.5 55,-762.5"/>
<text text-anchor="start" x="62" y="-773.9" font-family="Arial" font-size="14.00" fill="#000000">is_group_setup_unreservable_room_enabled    </text>
<text text-anchor="start" x="377.8484" y="-773.9" font-family="Arial" font-size="14.00" fill="#666666">[tinyint(1)]</text>
<polygon fill="none" stroke="#000000" points="55,-732.5 55,-762.5 535,-762.5 535,-732.5 55,-732.5"/>
<text text-anchor="start" x="62" y="-743.9" font-family="Arial" font-size="14.00" fill="#000000">is_group_reservation_limit_times_and_hours_enabled    </text>
<text text-anchor="start" x="432.2818" y="-743.9" font-family="Arial" font-size="14.00" fill="#666666">[tinyint(1)]</text>
<polygon fill="none" stroke="#000000" points="55,-702.5 55,-732.5 535,-732.5 535,-702.5 55,-702.5"/>
<text text-anchor="start" x="62" y="-713.9" font-family="Arial" font-size="14.00" fill="#000000">is_room_reservable_setting_enabled    </text>
<text text-anchor="start" x="325.7068" y="-713.9" font-family="Arial" font-size="14.00" fill="#666666">[tinyint(1)]</text>
<polygon fill="none" stroke="#000000" points="55,-672.5 55,-702.5 535,-702.5 535,-672.5 55,-672.5"/>
<text text-anchor="start" x="62" y="-683.9" font-family="Arial" font-size="14.00" fill="#000000">extend_after_reservation_time    </text>
<text text-anchor="start" x="285.2524" y="-683.9" font-family="Arial" font-size="14.00" fill="#666666">[int(11)]</text>
<polygon fill="none" stroke="#000000" points="55,-642.5 55,-672.5 535,-672.5 535,-642.5 55,-642.5"/>
<text text-anchor="start" x="62" y="-653.9" font-family="Arial" font-size="14.00" fill="#000000">allow_set_transfer_method_note    </text>
<text text-anchor="start" x="299.2636" y="-653.9" font-family="Arial" font-size="14.00" fill="#666666">[tinyint(1)]</text>
<polygon fill="none" stroke="#000000" points="55,-612.5 55,-642.5 535,-642.5 535,-612.5 55,-612.5"/>
<text text-anchor="start" x="62" y="-623.9" font-family="Arial" font-size="14.00" fill="#000000">reserve_csv_format_type    </text>
<text text-anchor="start" x="253.345" y="-623.9" font-family="Arial" font-size="14.00" fill="#666666">[tinyint(2)]</text>
<polygon fill="none" stroke="#000000" points="55,-582.5 55,-612.5 535,-612.5 535,-582.5 55,-582.5"/>
<text text-anchor="start" x="62" y="-593.9" font-family="Arial" font-size="14.00" fill="#000000">is_stripe_subscription_enabled    </text>
<text text-anchor="start" x="288.3618" y="-593.9" font-family="Arial" font-size="14.00" fill="#666666">[tinyint(1)]</text>
<polygon fill="none" stroke="#000000" points="55,-552.5 55,-582.5 535,-582.5 535,-552.5 55,-552.5"/>
<text text-anchor="start" x="62" y="-563.9" font-family="Arial" font-size="14.00" fill="#000000">is_group_max_usage_time_enabled    </text>
<text text-anchor="start" x="321.8316" y="-563.9" font-family="Arial" font-size="14.00" fill="#666666">[tinyint(1)]</text>
<polygon fill="none" stroke="#000000" points="55,-522.5 55,-552.5 535,-552.5 535,-522.5 55,-522.5"/>
<text text-anchor="start" x="62" y="-533.9" font-family="Arial" font-size="14.00" fill="#000000">is_room_buffer_time_setting_enabled    </text>
<text text-anchor="start" x="330.3786" y="-533.9" font-family="Arial" font-size="14.00" fill="#666666">[tinyint(1)]</text>
<polygon fill="none" stroke="#000000" points="55,-492.5 55,-522.5 535,-522.5 535,-492.5 55,-492.5"/>
<text text-anchor="start" x="61.6326" y="-503.9" font-family="Arial" font-size="14.00" fill="#000000">is_group_reservation_year_limit_times_and_hours_enabled    </text>
<text text-anchor="start" x="466.9228" y="-503.9" font-family="Arial" font-size="14.00" fill="#666666">[tinyint(1)]</text>
<polygon fill="none" stroke="#000000" points="55,-462.5 55,-492.5 535,-492.5 535,-462.5 55,-462.5"/>
<text text-anchor="start" x="62" y="-473.9" font-family="Arial" font-size="14.00" fill="#000000">is_group_display_reservation_limit_for_tenant_enabled    </text>
<text text-anchor="start" x="439.2916" y="-473.9" font-family="Arial" font-size="14.00" fill="#666666">[int(1)]</text>
<polygon fill="none" stroke="#000000" points="55,-432.5 55,-462.5 535,-462.5 535,-432.5 55,-432.5"/>
<text text-anchor="start" x="62" y="-443.9" font-family="Arial" font-size="14.00" fill="#000000">is_user_reserve_updatable_by_lessor_enabled    </text>
<text text-anchor="start" x="390.2944" y="-443.9" font-family="Arial" font-size="14.00" fill="#666666">[tinyint(1)]</text>
<polygon fill="none" stroke="#000000" points="55,-402.5 55,-432.5 535,-432.5 535,-402.5 55,-402.5"/>
<text text-anchor="start" x="62" y="-413.9" font-family="Arial" font-size="14.00" fill="#000000">is_reserve_status_updatable_by_lessor_enabled    </text>
<text text-anchor="start" x="400.415" y="-413.9" font-family="Arial" font-size="14.00" fill="#666666">[tinyint(1)]</text>
<polygon fill="none" stroke="#000000" points="55,-372.5 55,-402.5 535,-402.5 535,-372.5 55,-372.5"/>
<text text-anchor="start" x="62" y="-383.9" font-family="Arial" font-size="14.00" fill="#000000">is_group_reservable_setting_enabled    </text>
<text text-anchor="start" x="329.6114" y="-383.9" font-family="Arial" font-size="14.00" fill="#666666">[tinyint(1)]</text>
<polygon fill="none" stroke="#000000" points="55,-342.5 55,-372.5 535,-372.5 535,-342.5 55,-342.5"/>
<text text-anchor="start" x="62" y="-353.9" font-family="Arial" font-size="14.00" fill="#000000">is_reservation_limit_subgroup_enabled    </text>
<text text-anchor="start" x="339.7026" y="-353.9" font-family="Arial" font-size="14.00" fill="#666666">[tinyint(1)]</text>
<polygon fill="none" stroke="#000000" points="55,-312.5 55,-342.5 535,-342.5 535,-312.5 55,-312.5"/>
<text text-anchor="start" x="62" y="-323.9" font-family="Arial" font-size="14.00" fill="#000000">is_group_limitless_room_enabled    </text>
<text text-anchor="start" x="304.6816" y="-323.9" font-family="Arial" font-size="14.00" fill="#666666">[tinyint(1)]</text>
<polygon fill="none" stroke="#000000" points="55,-282.5 55,-312.5 535,-312.5 535,-282.5 55,-282.5"/>
<text text-anchor="start" x="62" y="-293.9" font-family="Arial" font-size="14.00" fill="#000000">is_lessor_create_user_reserve_enabled    </text>
<text text-anchor="start" x="345.1528" y="-293.9" font-family="Arial" font-size="14.00" fill="#666666">[tinyint(1)]</text>
<polygon fill="none" stroke="#000000" points="55,-252.5 55,-282.5 535,-282.5 535,-252.5 55,-252.5"/>
<text text-anchor="start" x="62" y="-263.9" font-family="Arial" font-size="14.00" fill="#000000">is_reserve_cancel_reminder_mail_enabled    </text>
<text text-anchor="start" x="363.0252" y="-263.9" font-family="Arial" font-size="14.00" fill="#666666">[tinyint(1)]</text>
<polygon fill="none" stroke="#000000" points="55,-222.5 55,-252.5 535,-252.5 535,-222.5 55,-222.5"/>
<text text-anchor="start" x="62" y="-233.9" font-family="Arial" font-size="14.00" fill="#000000">is_display_tenant_reservation_history_enabled    </text>
<text text-anchor="start" x="387.9536" y="-233.9" font-family="Arial" font-size="14.00" fill="#666666">[tinyint(1)]</text>
<polygon fill="none" stroke="#000000" points="55,-192.5 55,-222.5 535,-222.5 535,-192.5 55,-192.5"/>
<text text-anchor="start" x="62" y="-203.9" font-family="Arial" font-size="14.00" fill="#000000">is_room_one_day_rental_enabled    </text>
<text text-anchor="start" x="307.8316" y="-203.9" font-family="Arial" font-size="14.00" fill="#666666">[tinyint(1)]</text>
<polygon fill="none" stroke="#000000" points="55,-162.5 55,-192.5 535,-192.5 535,-162.5 55,-162.5"/>
<text text-anchor="start" x="62" y="-173.9" font-family="Arial" font-size="14.00" fill="#000000">is_auto_payout    </text>
<text text-anchor="start" x="191.136" y="-173.9" font-family="Arial" font-size="14.00" fill="#666666">[tinyint(1)]</text>
<polygon fill="none" stroke="#000000" points="55,-132.5 55,-162.5 535,-162.5 535,-132.5 55,-132.5"/>
<text text-anchor="start" x="62" y="-143.9" font-family="Arial" font-size="14.00" fill="#000000">is_room_lottery_setting_enabled    </text>
<text text-anchor="start" x="298.4796" y="-143.9" font-family="Arial" font-size="14.00" fill="#666666">[tinyint(1)]</text>
<polygon fill="none" stroke="#000000" points="55,-102.5 55,-132.5 535,-132.5 535,-102.5 55,-102.5"/>
<text text-anchor="start" x="62" y="-113.9" font-family="Arial" font-size="14.00" fill="#000000">is_display_estimate_button_enabled    </text>
<text text-anchor="start" x="322.6128" y="-113.9" font-family="Arial" font-size="14.00" fill="#666666">[tinyint(1)]</text>
<polygon fill="none" stroke="#000000" points="55,-72.5 55,-102.5 535,-102.5 535,-72.5 55,-72.5"/>
<text text-anchor="start" x="62" y="-83.9" font-family="Arial" font-size="14.00" fill="#000000">is_group_custom_cancel_policy_enabled    </text>
<text text-anchor="start" x="352.1668" y="-83.9" font-family="Arial" font-size="14.00" fill="#666666">[tinyint(1)]</text>
<polygon fill="none" stroke="#000000" points="55,-42.5 55,-72.5 535,-72.5 535,-42.5 55,-42.5"/>
<text text-anchor="start" x="62" y="-53.9" font-family="Arial" font-size="14.00" fill="#000000">status_updated_at    </text>
<text text-anchor="start" x="211.3758" y="-53.9" font-family="Arial" font-size="14.00" fill="#666666">[datetime]</text>
</g>
<!-- sk_lessor_parents_users&#45;&gt;sk_lessor_parents -->
<g id="edge1" class="edge">
<title>sk_lessor_parents_users:lessor_parent_id&#45;&gt;sk_lessor_parents:user_id</title>
<path fill="none" stroke="#000000" d="M351.9752,-2617.1764C204.3377,-2607.4024 263.075,-2378.6297 362,-2257 411.5546,-2196.0719 485.4454,-2281.9281 535,-2221 561.2207,-2188.7612 576.5556,-2127.5 535,-2127.5"/>
<polygon fill="#000000" stroke="#000000" points="352.0052,-2617.1773 361.8548,-2621.9977 357.0026,-2617.3386 362,-2617.5 362,-2617.5 362,-2617.5 357.0026,-2617.3386 362.1452,-2613.0023 352.0052,-2617.1773 352.0052,-2617.1773"/>
<text text-anchor="start" x="6.5405" y="-2627.5" font-family="Arial" font-size="10.00" fill="#000000">FOREIGN KEY (lessor_parent_id) REFERENCES sk_lessor_parents (user_id)</text>
</g>
<!-- sk_tenants -->
<g id="node3" class="node">
<title>sk_tenants</title>
<polygon fill="#efefef" stroke="transparent" points="639,-1287.5 639,-1322.5 905,-1322.5 905,-1287.5 639,-1287.5"/>
<polygon fill="none" stroke="#000000" points="639,-1287.5 639,-1322.5 905,-1322.5 905,-1287.5 639,-1287.5"/>
<text text-anchor="start" x="664.6983" y="-1300.3" font-family="Arial Bold" font-size="18.00" fill="#000000">sk_tenants</text>
<text text-anchor="start" x="751.7337" y="-1300.3" font-family="Arial" font-size="14.00" fill="#000000">    </text>
<text text-anchor="start" x="785.9385" y="-1300.3" font-family="Arial" font-size="14.00" fill="#666666">[BASE TABLE]</text>
<polygon fill="none" stroke="#000000" points="639,-1257.5 639,-1287.5 905,-1287.5 905,-1257.5 639,-1257.5"/>
<text text-anchor="start" x="646" y="-1268.9" font-family="Arial" font-size="14.00" fill="#000000">user_id    </text>
<text text-anchor="start" x="726.1024" y="-1268.9" font-family="Arial" font-size="14.00" fill="#666666">[int(11) unsigned]</text>
<polygon fill="none" stroke="#000000" points="639,-1227.5 639,-1257.5 905,-1257.5 905,-1227.5 639,-1227.5"/>
<text text-anchor="start" x="646" y="-1238.9" font-family="Arial" font-size="14.00" fill="#000000">type    </text>
<text text-anchor="start" x="706.6606" y="-1238.9" font-family="Arial" font-size="14.00" fill="#666666">[smallint(6)]</text>
<polygon fill="none" stroke="#000000" points="639,-1197.5 639,-1227.5 905,-1227.5 905,-1197.5 639,-1197.5"/>
<text text-anchor="start" x="646" y="-1208.9" font-family="Arial" font-size="14.00" fill="#000000">corporate_name    </text>
<text text-anchor="start" x="782.1206" y="-1208.9" font-family="Arial" font-size="14.00" fill="#666666">[varchar(200)]</text>
<polygon fill="none" stroke="#000000" points="639,-1167.5 639,-1197.5 905,-1197.5 905,-1167.5 639,-1167.5"/>
<text text-anchor="start" x="646" y="-1178.9" font-family="Arial" font-size="14.00" fill="#000000">department_name    </text>
<text text-anchor="start" x="793.7938" y="-1178.9" font-family="Arial" font-size="14.00" fill="#666666">[varchar(200)]</text>
<polygon fill="none" stroke="#000000" points="639,-1137.5 639,-1167.5 905,-1167.5 905,-1137.5 639,-1137.5"/>
<text text-anchor="start" x="646" y="-1148.9" font-family="Arial" font-size="14.00" fill="#000000">corporate_postal    </text>
<text text-anchor="start" x="784.4572" y="-1148.9" font-family="Arial" font-size="14.00" fill="#666666">[varchar(8)]</text>
<polygon fill="none" stroke="#000000" points="639,-1107.5 639,-1137.5 905,-1137.5 905,-1107.5 639,-1107.5"/>
<text text-anchor="start" x="646" y="-1118.9" font-family="Arial" font-size="14.00" fill="#000000">corporate_prefecture    </text>
<text text-anchor="start" x="810.1276" y="-1118.9" font-family="Arial" font-size="14.00" fill="#666666">[varchar(40)]</text>
<polygon fill="none" stroke="#000000" points="639,-1077.5 639,-1107.5 905,-1107.5 905,-1077.5 639,-1077.5"/>
<text text-anchor="start" x="646" y="-1088.9" font-family="Arial" font-size="14.00" fill="#000000">corporate_address    </text>
<text text-anchor="start" x="796.9032" y="-1088.9" font-family="Arial" font-size="14.00" fill="#666666">[varchar(500)]</text>
<polygon fill="none" stroke="#000000" points="639,-1047.5 639,-1077.5 905,-1077.5 905,-1047.5 639,-1047.5"/>
<text text-anchor="start" x="646" y="-1058.9" font-family="Arial" font-size="14.00" fill="#000000">corporate_tel    </text>
<text text-anchor="start" x="761.892" y="-1058.9" font-family="Arial" font-size="14.00" fill="#666666">[varchar(13)]</text>
<polygon fill="none" stroke="#000000" points="639,-1017.5 639,-1047.5 905,-1047.5 905,-1017.5 639,-1017.5"/>
<text text-anchor="start" x="646" y="-1028.9" font-family="Arial" font-size="14.00" fill="#000000">dept_last_name    </text>
<text text-anchor="start" x="779.7966" y="-1028.9" font-family="Arial" font-size="14.00" fill="#666666">[varchar(40)]</text>
<polygon fill="none" stroke="#000000" points="639,-987.5 639,-1017.5 905,-1017.5 905,-987.5 639,-987.5"/>
<text text-anchor="start" x="646" y="-998.9" font-family="Arial" font-size="14.00" fill="#000000">dept_last_name_kana    </text>
<text text-anchor="start" x="817.927" y="-998.9" font-family="Arial" font-size="14.00" fill="#666666">[varchar(40)]</text>
<polygon fill="none" stroke="#000000" points="639,-957.5 639,-987.5 905,-987.5 905,-957.5 639,-957.5"/>
<text text-anchor="start" x="646" y="-968.9" font-family="Arial" font-size="14.00" fill="#000000">dept_first_name    </text>
<text text-anchor="start" x="780.5652" y="-968.9" font-family="Arial" font-size="14.00" fill="#666666">[varchar(40)]</text>
<polygon fill="none" stroke="#000000" points="639,-927.5 639,-957.5 905,-957.5 905,-927.5 639,-927.5"/>
<text text-anchor="start" x="645.9839" y="-938.9" font-family="Arial" font-size="14.00" fill="#000000">dept_first_name_kana    </text>
<text text-anchor="start" x="818.6795" y="-938.9" font-family="Arial" font-size="14.00" fill="#666666">[varchar(40)]</text>
<polygon fill="none" stroke="#000000" points="639,-897.5 639,-927.5 905,-927.5 905,-897.5 639,-897.5"/>
<text text-anchor="start" x="646" y="-908.9" font-family="Arial" font-size="14.00" fill="#000000">dept_birthday    </text>
<text text-anchor="start" x="765.014" y="-908.9" font-family="Arial" font-size="14.00" fill="#666666">[date]</text>
</g>
<!-- sk_lessor_parents_users&#45;&gt;sk_tenants -->
<g id="edge2" class="edge">
<title>sk_lessor_parents_users:user_id&#45;&gt;sk_tenants:user_id</title>
<path fill="none" stroke="#000000" d="M712.8296,-2585.1869C832.1732,-2524.0748 496.2873,-1272.5 639,-1272.5"/>
<polygon fill="#000000" stroke="#000000" points="712.7341,-2585.2093 701.9692,-2583.1196 707.8671,-2586.3546 703,-2587.5 703,-2587.5 703,-2587.5 707.8671,-2586.3546 704.0308,-2591.8804 712.7341,-2585.2093 712.7341,-2585.2093"/>
<text text-anchor="start" x="710.489" y="-2597.5" font-family="Arial" font-size="10.00" fill="#000000">FOREIGN KEY (user_id) REFERENCES sk_tenants (user_id)</text>
</g>
</g>
</svg>
