<?xml version="1.0" encoding="UTF-8" standalone="no"?>
<!DOCTYPE svg PUBLIC "-//W3C//DTD SVG 1.1//EN"
 "http://www.w3.org/Graphics/SVG/1.1/DTD/svg11.dtd">
<!-- Generated by graphviz version 2.40.1 (20161225.0304)
 -->
<!-- Title: sk_property_business_hour_others Pages: 1 -->
<svg width="768pt" height="1882pt"
 viewBox="0.00 0.00 768.00 1882.00" xmlns="http://www.w3.org/2000/svg" xmlns:xlink="http://www.w3.org/1999/xlink">
<g id="graph0" class="graph" transform="scale(1 1) rotate(0) translate(4 1878)">
<title>sk_property_business_hour_others</title>
<polygon fill="#ffffff" stroke="transparent" points="-4,4 -4,-1878 764,-1878 764,4 -4,4"/>
<!-- sk_property_business_hour_others -->
<g id="node1" class="node">
<title>sk_property_business_hour_others</title>
<polygon fill="#efefef" stroke="transparent" points="292,-1792.5 292,-1827.5 714,-1827.5 714,-1792.5 292,-1792.5"/>
<polygon fill="none" stroke="#000000" points="292,-1792.5 292,-1827.5 714,-1827.5 714,-1792.5 292,-1792.5"/>
<text text-anchor="start" x="298.6765" y="-1805.3" font-family="Arial Bold" font-size="18.00" fill="#000000">sk_property_business_hour_others</text>
<text text-anchor="start" x="579.7555" y="-1805.3" font-family="Arial" font-size="14.00" fill="#000000">    </text>
<text text-anchor="start" x="613.9603" y="-1805.3" font-family="Arial" font-size="14.00" fill="#666666">[BASE TABLE]</text>
<polygon fill="none" stroke="#000000" points="292,-1762.5 292,-1792.5 714,-1792.5 714,-1762.5 292,-1762.5"/>
<text text-anchor="start" x="299" y="-1773.9" font-family="Arial" font-size="14.00" fill="#000000">id </text>
<text text-anchor="start" x="313.7798" y="-1773.9" font-family="Arial" font-size="14.00" fill="#666666">[int(21) unsigned]</text>
<polygon fill="none" stroke="#000000" points="292,-1732.5 292,-1762.5 714,-1762.5 714,-1732.5 292,-1732.5"/>
<text text-anchor="start" x="299" y="-1743.9" font-family="Arial" font-size="14.00" fill="#000000">property_id </text>
<text text-anchor="start" x="372.9046" y="-1743.9" font-family="Arial" font-size="14.00" fill="#666666">[int(11) unsigned]</text>
<polygon fill="none" stroke="#000000" points="292,-1702.5 292,-1732.5 714,-1732.5 714,-1702.5 292,-1702.5"/>
<text text-anchor="start" x="299" y="-1713.9" font-family="Arial" font-size="14.00" fill="#000000">business_type </text>
<text text-anchor="start" x="392.366" y="-1713.9" font-family="Arial" font-size="14.00" fill="#666666">[smallint(6)]</text>
<polygon fill="none" stroke="#000000" points="292,-1672.5 292,-1702.5 714,-1702.5 714,-1672.5 292,-1672.5"/>
<text text-anchor="start" x="299" y="-1683.9" font-family="Arial" font-size="14.00" fill="#000000">date </text>
<text text-anchor="start" x="330.129" y="-1683.9" font-family="Arial" font-size="14.00" fill="#666666">[date]</text>
<polygon fill="none" stroke="#000000" points="292,-1642.5 292,-1672.5 714,-1672.5 714,-1642.5 292,-1642.5"/>
<text text-anchor="start" x="299" y="-1653.9" font-family="Arial" font-size="14.00" fill="#000000">first_time </text>
<text text-anchor="start" x="359.662" y="-1653.9" font-family="Arial" font-size="14.00" fill="#666666">[time]</text>
<polygon fill="none" stroke="#000000" points="292,-1612.5 292,-1642.5 714,-1642.5 714,-1612.5 292,-1612.5"/>
<text text-anchor="start" x="299" y="-1623.9" font-family="Arial" font-size="14.00" fill="#000000">last_time </text>
<text text-anchor="start" x="358.8934" y="-1623.9" font-family="Arial" font-size="14.00" fill="#666666">[time]</text>
<polygon fill="none" stroke="#000000" stroke-width="3" points="290.5,-1611.5 290.5,-1829.5 715.5,-1829.5 715.5,-1611.5 290.5,-1611.5"/>
</g>
<!-- sk_properties -->
<g id="node2" class="node">
<title>sk_properties</title>
<polygon fill="#efefef" stroke="transparent" points="343,-1452.5 343,-1487.5 662,-1487.5 662,-1452.5 343,-1452.5"/>
<polygon fill="none" stroke="#000000" points="343,-1452.5 343,-1487.5 662,-1487.5 662,-1452.5 343,-1452.5"/>
<text text-anchor="start" x="384.707" y="-1465.3" font-family="Arial Bold" font-size="18.00" fill="#000000">sk_properties</text>
<text text-anchor="start" x="492.725" y="-1465.3" font-family="Arial" font-size="14.00" fill="#000000">    </text>
<text text-anchor="start" x="526.9298" y="-1465.3" font-family="Arial" font-size="14.00" fill="#666666">[BASE TABLE]</text>
<polygon fill="none" stroke="#000000" points="343,-1422.5 343,-1452.5 662,-1452.5 662,-1422.5 343,-1422.5"/>
<text text-anchor="start" x="350" y="-1433.9" font-family="Arial" font-size="14.00" fill="#000000">id    </text>
<text text-anchor="start" x="395.094" y="-1433.9" font-family="Arial" font-size="14.00" fill="#666666">[int(11) unsigned]</text>
<polygon fill="none" stroke="#000000" points="343,-1392.5 343,-1422.5 662,-1422.5 662,-1392.5 343,-1392.5"/>
<text text-anchor="start" x="350" y="-1403.9" font-family="Arial" font-size="14.00" fill="#000000">is_deleted    </text>
<text text-anchor="start" x="448.0042" y="-1403.9" font-family="Arial" font-size="14.00" fill="#666666">[tinyint(1)]</text>
<polygon fill="none" stroke="#000000" points="343,-1362.5 343,-1392.5 662,-1392.5 662,-1362.5 343,-1362.5"/>
<text text-anchor="start" x="350" y="-1373.9" font-family="Arial" font-size="14.00" fill="#000000">hide    </text>
<text text-anchor="start" x="410.6592" y="-1373.9" font-family="Arial" font-size="14.00" fill="#666666">[smallint(6) unsigned]</text>
<polygon fill="none" stroke="#000000" points="343,-1332.5 343,-1362.5 662,-1362.5 662,-1332.5 343,-1332.5"/>
<text text-anchor="start" x="350" y="-1343.9" font-family="Arial" font-size="14.00" fill="#000000">is_listable    </text>
<text text-anchor="start" x="445.6522" y="-1343.9" font-family="Arial" font-size="14.00" fill="#666666">[tinyint(1)]</text>
<polygon fill="none" stroke="#000000" points="343,-1302.5 343,-1332.5 662,-1332.5 662,-1302.5 343,-1302.5"/>
<text text-anchor="start" x="350" y="-1313.9" font-family="Arial" font-size="14.00" fill="#000000">lessor_id    </text>
<text text-anchor="start" x="440.209" y="-1313.9" font-family="Arial" font-size="14.00" fill="#666666">[int(11) unsigned]</text>
<polygon fill="none" stroke="#000000" points="343,-1272.5 343,-1302.5 662,-1302.5 662,-1272.5 343,-1272.5"/>
<text text-anchor="start" x="350" y="-1283.9" font-family="Arial" font-size="14.00" fill="#000000">name    </text>
<text text-anchor="start" x="419.2132" y="-1283.9" font-family="Arial" font-size="14.00" fill="#666666">[varchar(200)]</text>
<polygon fill="none" stroke="#000000" points="343,-1242.5 343,-1272.5 662,-1272.5 662,-1242.5 343,-1242.5"/>
<text text-anchor="start" x="350" y="-1253.9" font-family="Arial" font-size="14.00" fill="#000000">voice_name    </text>
<text text-anchor="start" x="459.6676" y="-1253.9" font-family="Arial" font-size="14.00" fill="#666666">[varchar(200)]</text>
<polygon fill="none" stroke="#000000" points="343,-1212.5 343,-1242.5 662,-1242.5 662,-1212.5 343,-1212.5"/>
<text text-anchor="start" x="350" y="-1223.9" font-family="Arial" font-size="14.00" fill="#000000">description_url    </text>
<text text-anchor="start" x="475.2146" y="-1223.9" font-family="Arial" font-size="14.00" fill="#666666">[varchar(1000)]</text>
<polygon fill="none" stroke="#000000" points="343,-1182.5 343,-1212.5 662,-1212.5 662,-1182.5 343,-1182.5"/>
<text text-anchor="start" x="350" y="-1193.9" font-family="Arial" font-size="14.00" fill="#000000">brochure    </text>
<text text-anchor="start" x="439.439" y="-1193.9" font-family="Arial" font-size="14.00" fill="#666666">[varchar(1000)]</text>
<polygon fill="none" stroke="#000000" points="343,-1152.5 343,-1182.5 662,-1182.5 662,-1152.5 343,-1152.5"/>
<text text-anchor="start" x="350" y="-1163.9" font-family="Arial" font-size="14.00" fill="#000000">postal    </text>
<text text-anchor="start" x="421.5498" y="-1163.9" font-family="Arial" font-size="14.00" fill="#666666">[varchar(8)]</text>
<polygon fill="none" stroke="#000000" points="343,-1122.5 343,-1152.5 662,-1152.5 662,-1122.5 343,-1122.5"/>
<text text-anchor="start" x="350" y="-1133.9" font-family="Arial" font-size="14.00" fill="#000000">prefecture    </text>
<text text-anchor="start" x="447.2202" y="-1133.9" font-family="Arial" font-size="14.00" fill="#666666">[varchar(20)]</text>
<polygon fill="none" stroke="#000000" points="343,-1092.5 343,-1122.5 662,-1122.5 662,-1092.5 343,-1092.5"/>
<text text-anchor="start" x="350" y="-1103.9" font-family="Arial" font-size="14.00" fill="#000000">address    </text>
<text text-anchor="start" x="433.9958" y="-1103.9" font-family="Arial" font-size="14.00" fill="#666666">[varchar(400)]</text>
<polygon fill="none" stroke="#000000" points="343,-1062.5 343,-1092.5 662,-1092.5 662,-1062.5 343,-1062.5"/>
<text text-anchor="start" x="350" y="-1073.9" font-family="Arial" font-size="14.00" fill="#000000">caution    </text>
<text text-anchor="start" x="429.3324" y="-1073.9" font-family="Arial" font-size="14.00" fill="#666666">[text]</text>
<polygon fill="none" stroke="#000000" points="343,-1032.5 343,-1062.5 662,-1062.5 662,-1032.5 343,-1032.5"/>
<text text-anchor="start" x="350" y="-1043.9" font-family="Arial" font-size="14.00" fill="#000000">is_send_reserved_email    </text>
<text text-anchor="start" x="535.8976" y="-1043.9" font-family="Arial" font-size="14.00" fill="#666666">[tinyint(1)]</text>
<polygon fill="none" stroke="#000000" points="343,-1002.5 343,-1032.5 662,-1032.5 662,-1002.5 343,-1002.5"/>
<text text-anchor="start" x="350" y="-1013.9" font-family="Arial" font-size="14.00" fill="#000000">hide_password    </text>
<text text-anchor="start" x="478.3394" y="-1013.9" font-family="Arial" font-size="14.00" fill="#666666">[varchar(50)]</text>
<polygon fill="none" stroke="#000000" points="343,-972.5 343,-1002.5 662,-1002.5 662,-972.5 343,-972.5"/>
<text text-anchor="start" x="350" y="-983.9" font-family="Arial" font-size="14.00" fill="#000000">terms    </text>
<text text-anchor="start" x="419.1992" y="-983.9" font-family="Arial" font-size="14.00" fill="#666666">[text]</text>
<polygon fill="none" stroke="#000000" points="343,-942.5 343,-972.5 662,-972.5 662,-942.5 343,-942.5"/>
<text text-anchor="start" x="350" y="-953.9" font-family="Arial" font-size="14.00" fill="#000000">access    </text>
<text text-anchor="start" x="427.77" y="-953.9" font-family="Arial" font-size="14.00" fill="#666666">[text]</text>
<polygon fill="none" stroke="#000000" points="343,-912.5 343,-942.5 662,-942.5 662,-912.5 343,-912.5"/>
<text text-anchor="start" x="350" y="-923.9" font-family="Arial" font-size="14.00" fill="#000000">specified_cm_tran    </text>
<text text-anchor="start" x="497.7812" y="-923.9" font-family="Arial" font-size="14.00" fill="#666666">[text]</text>
<polygon fill="none" stroke="#000000" points="343,-882.5 343,-912.5 662,-912.5 662,-882.5 343,-882.5"/>
<text text-anchor="start" x="350" y="-893.9" font-family="Arial" font-size="14.00" fill="#000000">introduction    </text>
<text text-anchor="start" x="456.5554" y="-893.9" font-family="Arial" font-size="14.00" fill="#666666">[text]</text>
<polygon fill="none" stroke="#000000" points="343,-852.5 343,-882.5 662,-882.5 662,-852.5 343,-852.5"/>
<text text-anchor="start" x="350" y="-863.9" font-family="Arial" font-size="14.00" fill="#000000">catchcopy    </text>
<text text-anchor="start" x="447.2258" y="-863.9" font-family="Arial" font-size="14.00" fill="#666666">[varchar(100)]</text>
<polygon fill="none" stroke="#000000" points="343,-822.5 343,-852.5 662,-852.5 662,-822.5 343,-822.5"/>
<text text-anchor="start" x="350" y="-833.9" font-family="Arial" font-size="14.00" fill="#000000">discount_info    </text>
<text text-anchor="start" x="466.6774" y="-833.9" font-family="Arial" font-size="14.00" fill="#666666">[text]</text>
<polygon fill="none" stroke="#000000" points="343,-792.5 343,-822.5 662,-822.5 662,-792.5 343,-792.5"/>
<text text-anchor="start" x="350" y="-803.9" font-family="Arial" font-size="14.00" fill="#000000">buffer_time    </text>
<text text-anchor="start" x="454.2174" y="-803.9" font-family="Arial" font-size="14.00" fill="#666666">[time]</text>
<polygon fill="none" stroke="#000000" points="343,-762.5 343,-792.5 662,-792.5 662,-762.5 343,-762.5"/>
<text text-anchor="start" x="350" y="-773.9" font-family="Arial" font-size="14.00" fill="#000000">buffer_time_control    </text>
<text text-anchor="start" x="504.0056" y="-773.9" font-family="Arial" font-size="14.00" fill="#666666">[smallint(3)]</text>
<polygon fill="none" stroke="#000000" points="343,-732.5 343,-762.5 662,-762.5 662,-732.5 343,-732.5"/>
<text text-anchor="start" x="350" y="-743.9" font-family="Arial" font-size="14.00" fill="#000000">sort_order    </text>
<text text-anchor="start" x="447.9902" y="-743.9" font-family="Arial" font-size="14.00" fill="#666666">[int(11)]</text>
<polygon fill="none" stroke="#000000" points="343,-702.5 343,-732.5 662,-732.5 662,-702.5 343,-702.5"/>
<text text-anchor="start" x="350" y="-713.9" font-family="Arial" font-size="14.00" fill="#000000">is_approve    </text>
<text text-anchor="start" x="452.6676" y="-713.9" font-family="Arial" font-size="14.00" fill="#666666">[tinyint(1)]</text>
<polygon fill="none" stroke="#000000" points="343,-672.5 343,-702.5 662,-702.5 662,-672.5 343,-672.5"/>
<text text-anchor="start" x="350" y="-683.9" font-family="Arial" font-size="14.00" fill="#000000">fixed_limit_date_after_approve    </text>
<text text-anchor="start" x="575.5876" y="-683.9" font-family="Arial" font-size="14.00" fill="#666666">[int(11)]</text>
<polygon fill="none" stroke="#000000" points="343,-642.5 343,-672.5 662,-672.5 662,-642.5 343,-642.5"/>
<text text-anchor="start" x="350" y="-653.9" font-family="Arial" font-size="14.00" fill="#000000">fixed_limit_date_before_first_time    </text>
<text text-anchor="start" x="593.46" y="-653.9" font-family="Arial" font-size="14.00" fill="#666666">[int(11)]</text>
<polygon fill="none" stroke="#000000" points="343,-612.5 343,-642.5 662,-642.5 662,-612.5 343,-612.5"/>
<text text-anchor="start" x="350" y="-623.9" font-family="Arial" font-size="14.00" fill="#000000">enable_reserve_lock    </text>
<text text-anchor="start" x="513.3478" y="-623.9" font-family="Arial" font-size="14.00" fill="#666666">[tinyint(1) unsigned]</text>
<polygon fill="none" stroke="#000000" points="343,-582.5 343,-612.5 662,-612.5 662,-582.5 343,-582.5"/>
<text text-anchor="start" x="350" y="-593.9" font-family="Arial" font-size="14.00" fill="#000000">reserve_lock_time    </text>
<text text-anchor="start" x="497.7686" y="-593.9" font-family="Arial" font-size="14.00" fill="#666666">[time]</text>
<polygon fill="none" stroke="#000000" points="343,-552.5 343,-582.5 662,-582.5 662,-552.5 343,-552.5"/>
<text text-anchor="start" x="350" y="-563.9" font-family="Arial" font-size="14.00" fill="#000000">reserve_lock_target    </text>
<text text-anchor="start" x="507.1178" y="-563.9" font-family="Arial" font-size="14.00" fill="#666666">[smallint(6) unsigned]</text>
<polygon fill="none" stroke="#000000" points="343,-522.5 343,-552.5 662,-552.5 662,-522.5 343,-522.5"/>
<text text-anchor="start" x="350" y="-533.9" font-family="Arial" font-size="14.00" fill="#000000">enable_reserve_unlock    </text>
<text text-anchor="start" x="528.913" y="-533.9" font-family="Arial" font-size="14.00" fill="#666666">[tinyint(1) unsigned]</text>
<polygon fill="none" stroke="#000000" points="343,-492.5 343,-522.5 662,-522.5 662,-492.5 343,-492.5"/>
<text text-anchor="start" x="350" y="-503.9" font-family="Arial" font-size="14.00" fill="#000000">reserve_unlock_time    </text>
<text text-anchor="start" x="513.3338" y="-503.9" font-family="Arial" font-size="14.00" fill="#666666">[time]</text>
<polygon fill="none" stroke="#000000" points="343,-462.5 343,-492.5 662,-492.5 662,-462.5 343,-462.5"/>
<text text-anchor="start" x="349.6515" y="-473.9" font-family="Arial" font-size="14.00" fill="#000000">reserve_unlock_target    </text>
<text text-anchor="start" x="522.3345" y="-473.9" font-family="Arial" font-size="14.00" fill="#666666">[smallint(6) unsigned]</text>
<polygon fill="none" stroke="#000000" points="343,-432.5 343,-462.5 662,-462.5 662,-432.5 343,-432.5"/>
<text text-anchor="start" x="350" y="-443.9" font-family="Arial" font-size="14.00" fill="#000000">cancel_charge_payment_limit_date    </text>
<text text-anchor="start" x="604.3716" y="-443.9" font-family="Arial" font-size="14.00" fill="#666666">[int(11)]</text>
<polygon fill="none" stroke="#000000" points="343,-402.5 343,-432.5 662,-432.5 662,-402.5 343,-402.5"/>
<text text-anchor="start" x="350" y="-413.9" font-family="Arial" font-size="14.00" fill="#000000">is_using_origin_cancel_policy    </text>
<text text-anchor="start" x="569.3506" y="-413.9" font-family="Arial" font-size="14.00" fill="#666666">[smallint(1)]</text>
<polygon fill="none" stroke="#000000" points="343,-372.5 343,-402.5 662,-402.5 662,-372.5 343,-372.5"/>
<text text-anchor="start" x="350" y="-383.9" font-family="Arial" font-size="14.00" fill="#000000">pref_id    </text>
<text text-anchor="start" x="426.993" y="-383.9" font-family="Arial" font-size="14.00" fill="#666666">[int(11)]</text>
<polygon fill="none" stroke="#000000" points="343,-342.5 343,-372.5 662,-372.5 662,-342.5 343,-342.5"/>
<text text-anchor="start" x="350" y="-353.9" font-family="Arial" font-size="14.00" fill="#000000">city_id    </text>
<text text-anchor="start" x="423.8738" y="-353.9" font-family="Arial" font-size="14.00" fill="#666666">[int(11)]</text>
<polygon fill="none" stroke="#000000" points="343,-312.5 343,-342.5 662,-342.5 662,-312.5 343,-312.5"/>
<text text-anchor="start" x="350" y="-323.9" font-family="Arial" font-size="14.00" fill="#000000">region_id    </text>
<text text-anchor="start" x="441.7742" y="-323.9" font-family="Arial" font-size="14.00" fill="#666666">[int(11)]</text>
<polygon fill="none" stroke="#000000" points="343,-282.5 343,-312.5 662,-312.5 662,-282.5 343,-282.5"/>
<text text-anchor="start" x="350" y="-293.9" font-family="Arial" font-size="14.00" fill="#000000">lat    </text>
<text text-anchor="start" x="398.9846" y="-293.9" font-family="Arial" font-size="14.00" fill="#666666">[decimal(24,20)]</text>
<polygon fill="none" stroke="#000000" points="343,-252.5 343,-282.5 662,-282.5 662,-252.5 343,-252.5"/>
<text text-anchor="start" x="350" y="-263.9" font-family="Arial" font-size="14.00" fill="#000000">lng    </text>
<text text-anchor="start" x="402.8766" y="-263.9" font-family="Arial" font-size="14.00" fill="#666666">[decimal(24,20)]</text>
<polygon fill="none" stroke="#000000" points="343,-222.5 343,-252.5 662,-252.5 662,-222.5 343,-222.5"/>
<text text-anchor="start" x="350" y="-233.9" font-family="Arial" font-size="14.00" fill="#000000">created_datetime    </text>
<text text-anchor="start" x="492.3478" y="-233.9" font-family="Arial" font-size="14.00" fill="#666666">[timestamp]</text>
<polygon fill="none" stroke="#000000" points="343,-192.5 343,-222.5 662,-222.5 662,-192.5 343,-192.5"/>
<text text-anchor="start" x="350" y="-203.9" font-family="Arial" font-size="14.00" fill="#000000">updated_datetime    </text>
<text text-anchor="start" x="496.2524" y="-203.9" font-family="Arial" font-size="14.00" fill="#666666">[timestamp]</text>
<polygon fill="none" stroke="#000000" points="343,-162.5 343,-192.5 662,-192.5 662,-162.5 343,-162.5"/>
<text text-anchor="start" x="350" y="-173.9" font-family="Arial" font-size="14.00" fill="#000000">owner_buffer_time    </text>
<text text-anchor="start" x="500.115" y="-173.9" font-family="Arial" font-size="14.00" fill="#666666">[time]</text>
<polygon fill="none" stroke="#000000" points="343,-132.5 343,-162.5 662,-162.5 662,-132.5 343,-132.5"/>
<text text-anchor="start" x="350" y="-143.9" font-family="Arial" font-size="14.00" fill="#000000">external_buffer_time    </text>
<text text-anchor="start" x="511.7882" y="-143.9" font-family="Arial" font-size="14.00" fill="#666666">[time]</text>
<polygon fill="none" stroke="#000000" points="343,-102.5 343,-132.5 662,-132.5 662,-102.5 343,-102.5"/>
<text text-anchor="start" x="350" y="-113.9" font-family="Arial" font-size="14.00" fill="#000000">owner_buffer_time_control    </text>
<text text-anchor="start" x="549.9032" y="-113.9" font-family="Arial" font-size="14.00" fill="#666666">[smallint(3)]</text>
<polygon fill="none" stroke="#000000" points="343,-72.5 343,-102.5 662,-102.5 662,-72.5 343,-72.5"/>
<text text-anchor="start" x="350" y="-83.9" font-family="Arial" font-size="14.00" fill="#000000">external_buffer_time_control    </text>
<text text-anchor="start" x="561.5764" y="-83.9" font-family="Arial" font-size="14.00" fill="#666666">[smallint(3)]</text>
<polygon fill="none" stroke="#000000" points="343,-42.5 343,-72.5 662,-72.5 662,-42.5 343,-42.5"/>
<text text-anchor="start" x="350" y="-53.9" font-family="Arial" font-size="14.00" fill="#000000">approved_mail_note    </text>
<text text-anchor="start" x="511.021" y="-53.9" font-family="Arial" font-size="14.00" fill="#666666">[text]</text>
</g>
<!-- sk_property_business_hour_others&#45;&gt;sk_properties -->
<g id="edge1" class="edge">
<title>sk_property_business_hour_others:property_id&#45;&gt;sk_properties:id</title>
<path fill="none" stroke="#000000" d="M281.8266,-1746.7835C214.1975,-1736.7452 240.5126,-1623.7401 292,-1567 347.514,-1505.8225 606.486,-1592.1775 662,-1531 689.9252,-1500.2259 703.5556,-1437.5 662,-1437.5"/>
<polygon fill="#000000" stroke="#000000" points="282.0247,-1746.7974 291.6838,-1751.9889 287.0124,-1747.1487 292,-1747.5 292,-1747.5 292,-1747.5 287.0124,-1747.1487 292.3162,-1743.0111 282.0247,-1746.7974 282.0247,-1746.7974"/>
<text text-anchor="start" x="6.5505" y="-1757.5" font-family="Arial" font-size="10.00" fill="#000000">FOREIGN KEY (property_id) REFERENCES sk_properties (id)</text>
</g>
</g>
</svg>
