<?xml version="1.0" encoding="UTF-8" standalone="no"?>
<!DOCTYPE svg PUBLIC "-//W3C//DTD SVG 1.1//EN"
 "http://www.w3.org/Graphics/SVG/1.1/DTD/svg11.dtd">
<!-- Generated by graphviz version 2.40.1 (20161225.0304)
 -->
<!-- Title: sk_properties_tenants Pages: 1 -->
<svg width="915pt" height="1852pt"
 viewBox="0.00 0.00 915.00 1852.00" xmlns="http://www.w3.org/2000/svg" xmlns:xlink="http://www.w3.org/1999/xlink">
<g id="graph0" class="graph" transform="scale(1 1) rotate(0) translate(4 1848)">
<title>sk_properties_tenants</title>
<polygon fill="#ffffff" stroke="transparent" points="-4,4 -4,-1848 911,-1848 911,4 -4,4"/>
<!-- sk_properties_tenants -->
<g id="node1" class="node">
<title>sk_properties_tenants</title>
<polygon fill="#efefef" stroke="transparent" points="292,-1762.5 292,-1797.5 610,-1797.5 610,-1762.5 292,-1762.5"/>
<polygon fill="none" stroke="#000000" points="292,-1762.5 292,-1797.5 610,-1797.5 610,-1762.5 292,-1762.5"/>
<text text-anchor="start" x="298.6893" y="-1775.3" font-family="Arial Bold" font-size="18.00" fill="#000000">sk_properties_tenants</text>
<text text-anchor="start" x="475.7427" y="-1775.3" font-family="Arial" font-size="14.00" fill="#000000">    </text>
<text text-anchor="start" x="509.9475" y="-1775.3" font-family="Arial" font-size="14.00" fill="#666666">[BASE TABLE]</text>
<polygon fill="none" stroke="#000000" points="292,-1732.5 292,-1762.5 610,-1762.5 610,-1732.5 292,-1732.5"/>
<text text-anchor="start" x="299" y="-1743.9" font-family="Arial" font-size="14.00" fill="#000000">id </text>
<text text-anchor="start" x="313.7798" y="-1743.9" font-family="Arial" font-size="14.00" fill="#666666">[bigint(21) unsigned]</text>
<polygon fill="none" stroke="#000000" points="292,-1702.5 292,-1732.5 610,-1732.5 610,-1702.5 292,-1702.5"/>
<text text-anchor="start" x="299" y="-1713.9" font-family="Arial" font-size="14.00" fill="#000000">is_disabled </text>
<text text-anchor="start" x="372.906" y="-1713.9" font-family="Arial" font-size="14.00" fill="#666666">[tinyint(1)]</text>
<polygon fill="none" stroke="#000000" points="292,-1672.5 292,-1702.5 610,-1702.5 610,-1672.5 292,-1672.5"/>
<text text-anchor="start" x="299" y="-1683.9" font-family="Arial" font-size="14.00" fill="#000000">property_id </text>
<text text-anchor="start" x="372.9046" y="-1683.9" font-family="Arial" font-size="14.00" fill="#666666">[int(11) unsigned]</text>
<polygon fill="none" stroke="#000000" points="292,-1642.5 292,-1672.5 610,-1672.5 610,-1642.5 292,-1642.5"/>
<text text-anchor="start" x="299" y="-1653.9" font-family="Arial" font-size="14.00" fill="#000000">tenant_id </text>
<text text-anchor="start" x="360.474" y="-1653.9" font-family="Arial" font-size="14.00" fill="#666666">[int(11) unsigned]</text>
<polygon fill="none" stroke="#000000" points="292,-1612.5 292,-1642.5 610,-1642.5 610,-1612.5 292,-1612.5"/>
<text text-anchor="start" x="299" y="-1623.9" font-family="Arial" font-size="14.00" fill="#000000">description </text>
<text text-anchor="start" x="370.568" y="-1623.9" font-family="Arial" font-size="14.00" fill="#666666">[text]</text>
<polygon fill="none" stroke="#000000" stroke-width="3" points="290.5,-1611.5 290.5,-1799.5 611.5,-1799.5 611.5,-1611.5 290.5,-1611.5"/>
</g>
<!-- sk_properties -->
<g id="node2" class="node">
<title>sk_properties</title>
<polygon fill="#efefef" stroke="transparent" points="93,-1452.5 93,-1487.5 412,-1487.5 412,-1452.5 93,-1452.5"/>
<polygon fill="none" stroke="#000000" points="93,-1452.5 93,-1487.5 412,-1487.5 412,-1452.5 93,-1452.5"/>
<text text-anchor="start" x="134.707" y="-1465.3" font-family="Arial Bold" font-size="18.00" fill="#000000">sk_properties</text>
<text text-anchor="start" x="242.725" y="-1465.3" font-family="Arial" font-size="14.00" fill="#000000">    </text>
<text text-anchor="start" x="276.9298" y="-1465.3" font-family="Arial" font-size="14.00" fill="#666666">[BASE TABLE]</text>
<polygon fill="none" stroke="#000000" points="93,-1422.5 93,-1452.5 412,-1452.5 412,-1422.5 93,-1422.5"/>
<text text-anchor="start" x="100" y="-1433.9" font-family="Arial" font-size="14.00" fill="#000000">id    </text>
<text text-anchor="start" x="145.094" y="-1433.9" font-family="Arial" font-size="14.00" fill="#666666">[int(11) unsigned]</text>
<polygon fill="none" stroke="#000000" points="93,-1392.5 93,-1422.5 412,-1422.5 412,-1392.5 93,-1392.5"/>
<text text-anchor="start" x="100" y="-1403.9" font-family="Arial" font-size="14.00" fill="#000000">is_deleted    </text>
<text text-anchor="start" x="198.0042" y="-1403.9" font-family="Arial" font-size="14.00" fill="#666666">[tinyint(1)]</text>
<polygon fill="none" stroke="#000000" points="93,-1362.5 93,-1392.5 412,-1392.5 412,-1362.5 93,-1362.5"/>
<text text-anchor="start" x="100" y="-1373.9" font-family="Arial" font-size="14.00" fill="#000000">hide    </text>
<text text-anchor="start" x="160.6592" y="-1373.9" font-family="Arial" font-size="14.00" fill="#666666">[smallint(6) unsigned]</text>
<polygon fill="none" stroke="#000000" points="93,-1332.5 93,-1362.5 412,-1362.5 412,-1332.5 93,-1332.5"/>
<text text-anchor="start" x="100" y="-1343.9" font-family="Arial" font-size="14.00" fill="#000000">is_listable    </text>
<text text-anchor="start" x="195.6522" y="-1343.9" font-family="Arial" font-size="14.00" fill="#666666">[tinyint(1)]</text>
<polygon fill="none" stroke="#000000" points="93,-1302.5 93,-1332.5 412,-1332.5 412,-1302.5 93,-1302.5"/>
<text text-anchor="start" x="100" y="-1313.9" font-family="Arial" font-size="14.00" fill="#000000">lessor_id    </text>
<text text-anchor="start" x="190.209" y="-1313.9" font-family="Arial" font-size="14.00" fill="#666666">[int(11) unsigned]</text>
<polygon fill="none" stroke="#000000" points="93,-1272.5 93,-1302.5 412,-1302.5 412,-1272.5 93,-1272.5"/>
<text text-anchor="start" x="100" y="-1283.9" font-family="Arial" font-size="14.00" fill="#000000">name    </text>
<text text-anchor="start" x="169.2132" y="-1283.9" font-family="Arial" font-size="14.00" fill="#666666">[varchar(200)]</text>
<polygon fill="none" stroke="#000000" points="93,-1242.5 93,-1272.5 412,-1272.5 412,-1242.5 93,-1242.5"/>
<text text-anchor="start" x="100" y="-1253.9" font-family="Arial" font-size="14.00" fill="#000000">voice_name    </text>
<text text-anchor="start" x="209.6676" y="-1253.9" font-family="Arial" font-size="14.00" fill="#666666">[varchar(200)]</text>
<polygon fill="none" stroke="#000000" points="93,-1212.5 93,-1242.5 412,-1242.5 412,-1212.5 93,-1212.5"/>
<text text-anchor="start" x="100" y="-1223.9" font-family="Arial" font-size="14.00" fill="#000000">description_url    </text>
<text text-anchor="start" x="225.2146" y="-1223.9" font-family="Arial" font-size="14.00" fill="#666666">[varchar(1000)]</text>
<polygon fill="none" stroke="#000000" points="93,-1182.5 93,-1212.5 412,-1212.5 412,-1182.5 93,-1182.5"/>
<text text-anchor="start" x="100" y="-1193.9" font-family="Arial" font-size="14.00" fill="#000000">brochure    </text>
<text text-anchor="start" x="189.439" y="-1193.9" font-family="Arial" font-size="14.00" fill="#666666">[varchar(1000)]</text>
<polygon fill="none" stroke="#000000" points="93,-1152.5 93,-1182.5 412,-1182.5 412,-1152.5 93,-1152.5"/>
<text text-anchor="start" x="100" y="-1163.9" font-family="Arial" font-size="14.00" fill="#000000">postal    </text>
<text text-anchor="start" x="171.5498" y="-1163.9" font-family="Arial" font-size="14.00" fill="#666666">[varchar(8)]</text>
<polygon fill="none" stroke="#000000" points="93,-1122.5 93,-1152.5 412,-1152.5 412,-1122.5 93,-1122.5"/>
<text text-anchor="start" x="100" y="-1133.9" font-family="Arial" font-size="14.00" fill="#000000">prefecture    </text>
<text text-anchor="start" x="197.2202" y="-1133.9" font-family="Arial" font-size="14.00" fill="#666666">[varchar(20)]</text>
<polygon fill="none" stroke="#000000" points="93,-1092.5 93,-1122.5 412,-1122.5 412,-1092.5 93,-1092.5"/>
<text text-anchor="start" x="100" y="-1103.9" font-family="Arial" font-size="14.00" fill="#000000">address    </text>
<text text-anchor="start" x="183.9958" y="-1103.9" font-family="Arial" font-size="14.00" fill="#666666">[varchar(400)]</text>
<polygon fill="none" stroke="#000000" points="93,-1062.5 93,-1092.5 412,-1092.5 412,-1062.5 93,-1062.5"/>
<text text-anchor="start" x="100" y="-1073.9" font-family="Arial" font-size="14.00" fill="#000000">caution    </text>
<text text-anchor="start" x="179.3324" y="-1073.9" font-family="Arial" font-size="14.00" fill="#666666">[text]</text>
<polygon fill="none" stroke="#000000" points="93,-1032.5 93,-1062.5 412,-1062.5 412,-1032.5 93,-1032.5"/>
<text text-anchor="start" x="100" y="-1043.9" font-family="Arial" font-size="14.00" fill="#000000">is_send_reserved_email    </text>
<text text-anchor="start" x="285.8976" y="-1043.9" font-family="Arial" font-size="14.00" fill="#666666">[tinyint(1)]</text>
<polygon fill="none" stroke="#000000" points="93,-1002.5 93,-1032.5 412,-1032.5 412,-1002.5 93,-1002.5"/>
<text text-anchor="start" x="100" y="-1013.9" font-family="Arial" font-size="14.00" fill="#000000">hide_password    </text>
<text text-anchor="start" x="228.3394" y="-1013.9" font-family="Arial" font-size="14.00" fill="#666666">[varchar(50)]</text>
<polygon fill="none" stroke="#000000" points="93,-972.5 93,-1002.5 412,-1002.5 412,-972.5 93,-972.5"/>
<text text-anchor="start" x="100" y="-983.9" font-family="Arial" font-size="14.00" fill="#000000">terms    </text>
<text text-anchor="start" x="169.1992" y="-983.9" font-family="Arial" font-size="14.00" fill="#666666">[text]</text>
<polygon fill="none" stroke="#000000" points="93,-942.5 93,-972.5 412,-972.5 412,-942.5 93,-942.5"/>
<text text-anchor="start" x="100" y="-953.9" font-family="Arial" font-size="14.00" fill="#000000">access    </text>
<text text-anchor="start" x="177.77" y="-953.9" font-family="Arial" font-size="14.00" fill="#666666">[text]</text>
<polygon fill="none" stroke="#000000" points="93,-912.5 93,-942.5 412,-942.5 412,-912.5 93,-912.5"/>
<text text-anchor="start" x="100" y="-923.9" font-family="Arial" font-size="14.00" fill="#000000">specified_cm_tran    </text>
<text text-anchor="start" x="247.7812" y="-923.9" font-family="Arial" font-size="14.00" fill="#666666">[text]</text>
<polygon fill="none" stroke="#000000" points="93,-882.5 93,-912.5 412,-912.5 412,-882.5 93,-882.5"/>
<text text-anchor="start" x="100" y="-893.9" font-family="Arial" font-size="14.00" fill="#000000">introduction    </text>
<text text-anchor="start" x="206.5554" y="-893.9" font-family="Arial" font-size="14.00" fill="#666666">[text]</text>
<polygon fill="none" stroke="#000000" points="93,-852.5 93,-882.5 412,-882.5 412,-852.5 93,-852.5"/>
<text text-anchor="start" x="100" y="-863.9" font-family="Arial" font-size="14.00" fill="#000000">catchcopy    </text>
<text text-anchor="start" x="197.2258" y="-863.9" font-family="Arial" font-size="14.00" fill="#666666">[varchar(100)]</text>
<polygon fill="none" stroke="#000000" points="93,-822.5 93,-852.5 412,-852.5 412,-822.5 93,-822.5"/>
<text text-anchor="start" x="100" y="-833.9" font-family="Arial" font-size="14.00" fill="#000000">discount_info    </text>
<text text-anchor="start" x="216.6774" y="-833.9" font-family="Arial" font-size="14.00" fill="#666666">[text]</text>
<polygon fill="none" stroke="#000000" points="93,-792.5 93,-822.5 412,-822.5 412,-792.5 93,-792.5"/>
<text text-anchor="start" x="100" y="-803.9" font-family="Arial" font-size="14.00" fill="#000000">buffer_time    </text>
<text text-anchor="start" x="204.2174" y="-803.9" font-family="Arial" font-size="14.00" fill="#666666">[time]</text>
<polygon fill="none" stroke="#000000" points="93,-762.5 93,-792.5 412,-792.5 412,-762.5 93,-762.5"/>
<text text-anchor="start" x="100" y="-773.9" font-family="Arial" font-size="14.00" fill="#000000">buffer_time_control    </text>
<text text-anchor="start" x="254.0056" y="-773.9" font-family="Arial" font-size="14.00" fill="#666666">[smallint(3)]</text>
<polygon fill="none" stroke="#000000" points="93,-732.5 93,-762.5 412,-762.5 412,-732.5 93,-732.5"/>
<text text-anchor="start" x="100" y="-743.9" font-family="Arial" font-size="14.00" fill="#000000">sort_order    </text>
<text text-anchor="start" x="197.9902" y="-743.9" font-family="Arial" font-size="14.00" fill="#666666">[int(11)]</text>
<polygon fill="none" stroke="#000000" points="93,-702.5 93,-732.5 412,-732.5 412,-702.5 93,-702.5"/>
<text text-anchor="start" x="100" y="-713.9" font-family="Arial" font-size="14.00" fill="#000000">is_approve    </text>
<text text-anchor="start" x="202.6676" y="-713.9" font-family="Arial" font-size="14.00" fill="#666666">[tinyint(1)]</text>
<polygon fill="none" stroke="#000000" points="93,-672.5 93,-702.5 412,-702.5 412,-672.5 93,-672.5"/>
<text text-anchor="start" x="100" y="-683.9" font-family="Arial" font-size="14.00" fill="#000000">fixed_limit_date_after_approve    </text>
<text text-anchor="start" x="325.5876" y="-683.9" font-family="Arial" font-size="14.00" fill="#666666">[int(11)]</text>
<polygon fill="none" stroke="#000000" points="93,-642.5 93,-672.5 412,-672.5 412,-642.5 93,-642.5"/>
<text text-anchor="start" x="100" y="-653.9" font-family="Arial" font-size="14.00" fill="#000000">fixed_limit_date_before_first_time    </text>
<text text-anchor="start" x="343.46" y="-653.9" font-family="Arial" font-size="14.00" fill="#666666">[int(11)]</text>
<polygon fill="none" stroke="#000000" points="93,-612.5 93,-642.5 412,-642.5 412,-612.5 93,-612.5"/>
<text text-anchor="start" x="100" y="-623.9" font-family="Arial" font-size="14.00" fill="#000000">enable_reserve_lock    </text>
<text text-anchor="start" x="263.3478" y="-623.9" font-family="Arial" font-size="14.00" fill="#666666">[tinyint(1) unsigned]</text>
<polygon fill="none" stroke="#000000" points="93,-582.5 93,-612.5 412,-612.5 412,-582.5 93,-582.5"/>
<text text-anchor="start" x="100" y="-593.9" font-family="Arial" font-size="14.00" fill="#000000">reserve_lock_time    </text>
<text text-anchor="start" x="247.7686" y="-593.9" font-family="Arial" font-size="14.00" fill="#666666">[time]</text>
<polygon fill="none" stroke="#000000" points="93,-552.5 93,-582.5 412,-582.5 412,-552.5 93,-552.5"/>
<text text-anchor="start" x="100" y="-563.9" font-family="Arial" font-size="14.00" fill="#000000">reserve_lock_target    </text>
<text text-anchor="start" x="257.1178" y="-563.9" font-family="Arial" font-size="14.00" fill="#666666">[smallint(6) unsigned]</text>
<polygon fill="none" stroke="#000000" points="93,-522.5 93,-552.5 412,-552.5 412,-522.5 93,-522.5"/>
<text text-anchor="start" x="100" y="-533.9" font-family="Arial" font-size="14.00" fill="#000000">enable_reserve_unlock    </text>
<text text-anchor="start" x="278.913" y="-533.9" font-family="Arial" font-size="14.00" fill="#666666">[tinyint(1) unsigned]</text>
<polygon fill="none" stroke="#000000" points="93,-492.5 93,-522.5 412,-522.5 412,-492.5 93,-492.5"/>
<text text-anchor="start" x="100" y="-503.9" font-family="Arial" font-size="14.00" fill="#000000">reserve_unlock_time    </text>
<text text-anchor="start" x="263.3338" y="-503.9" font-family="Arial" font-size="14.00" fill="#666666">[time]</text>
<polygon fill="none" stroke="#000000" points="93,-462.5 93,-492.5 412,-492.5 412,-462.5 93,-462.5"/>
<text text-anchor="start" x="99.6515" y="-473.9" font-family="Arial" font-size="14.00" fill="#000000">reserve_unlock_target    </text>
<text text-anchor="start" x="272.3345" y="-473.9" font-family="Arial" font-size="14.00" fill="#666666">[smallint(6) unsigned]</text>
<polygon fill="none" stroke="#000000" points="93,-432.5 93,-462.5 412,-462.5 412,-432.5 93,-432.5"/>
<text text-anchor="start" x="100" y="-443.9" font-family="Arial" font-size="14.00" fill="#000000">cancel_charge_payment_limit_date    </text>
<text text-anchor="start" x="354.3716" y="-443.9" font-family="Arial" font-size="14.00" fill="#666666">[int(11)]</text>
<polygon fill="none" stroke="#000000" points="93,-402.5 93,-432.5 412,-432.5 412,-402.5 93,-402.5"/>
<text text-anchor="start" x="100" y="-413.9" font-family="Arial" font-size="14.00" fill="#000000">is_using_origin_cancel_policy    </text>
<text text-anchor="start" x="319.3506" y="-413.9" font-family="Arial" font-size="14.00" fill="#666666">[smallint(1)]</text>
<polygon fill="none" stroke="#000000" points="93,-372.5 93,-402.5 412,-402.5 412,-372.5 93,-372.5"/>
<text text-anchor="start" x="100" y="-383.9" font-family="Arial" font-size="14.00" fill="#000000">pref_id    </text>
<text text-anchor="start" x="176.993" y="-383.9" font-family="Arial" font-size="14.00" fill="#666666">[int(11)]</text>
<polygon fill="none" stroke="#000000" points="93,-342.5 93,-372.5 412,-372.5 412,-342.5 93,-342.5"/>
<text text-anchor="start" x="100" y="-353.9" font-family="Arial" font-size="14.00" fill="#000000">city_id    </text>
<text text-anchor="start" x="173.8738" y="-353.9" font-family="Arial" font-size="14.00" fill="#666666">[int(11)]</text>
<polygon fill="none" stroke="#000000" points="93,-312.5 93,-342.5 412,-342.5 412,-312.5 93,-312.5"/>
<text text-anchor="start" x="100" y="-323.9" font-family="Arial" font-size="14.00" fill="#000000">region_id    </text>
<text text-anchor="start" x="191.7742" y="-323.9" font-family="Arial" font-size="14.00" fill="#666666">[int(11)]</text>
<polygon fill="none" stroke="#000000" points="93,-282.5 93,-312.5 412,-312.5 412,-282.5 93,-282.5"/>
<text text-anchor="start" x="100" y="-293.9" font-family="Arial" font-size="14.00" fill="#000000">lat    </text>
<text text-anchor="start" x="148.9846" y="-293.9" font-family="Arial" font-size="14.00" fill="#666666">[decimal(24,20)]</text>
<polygon fill="none" stroke="#000000" points="93,-252.5 93,-282.5 412,-282.5 412,-252.5 93,-252.5"/>
<text text-anchor="start" x="100" y="-263.9" font-family="Arial" font-size="14.00" fill="#000000">lng    </text>
<text text-anchor="start" x="152.8766" y="-263.9" font-family="Arial" font-size="14.00" fill="#666666">[decimal(24,20)]</text>
<polygon fill="none" stroke="#000000" points="93,-222.5 93,-252.5 412,-252.5 412,-222.5 93,-222.5"/>
<text text-anchor="start" x="100" y="-233.9" font-family="Arial" font-size="14.00" fill="#000000">created_datetime    </text>
<text text-anchor="start" x="242.3478" y="-233.9" font-family="Arial" font-size="14.00" fill="#666666">[timestamp]</text>
<polygon fill="none" stroke="#000000" points="93,-192.5 93,-222.5 412,-222.5 412,-192.5 93,-192.5"/>
<text text-anchor="start" x="100" y="-203.9" font-family="Arial" font-size="14.00" fill="#000000">updated_datetime    </text>
<text text-anchor="start" x="246.2524" y="-203.9" font-family="Arial" font-size="14.00" fill="#666666">[timestamp]</text>
<polygon fill="none" stroke="#000000" points="93,-162.5 93,-192.5 412,-192.5 412,-162.5 93,-162.5"/>
<text text-anchor="start" x="100" y="-173.9" font-family="Arial" font-size="14.00" fill="#000000">owner_buffer_time    </text>
<text text-anchor="start" x="250.115" y="-173.9" font-family="Arial" font-size="14.00" fill="#666666">[time]</text>
<polygon fill="none" stroke="#000000" points="93,-132.5 93,-162.5 412,-162.5 412,-132.5 93,-132.5"/>
<text text-anchor="start" x="100" y="-143.9" font-family="Arial" font-size="14.00" fill="#000000">external_buffer_time    </text>
<text text-anchor="start" x="261.7882" y="-143.9" font-family="Arial" font-size="14.00" fill="#666666">[time]</text>
<polygon fill="none" stroke="#000000" points="93,-102.5 93,-132.5 412,-132.5 412,-102.5 93,-102.5"/>
<text text-anchor="start" x="100" y="-113.9" font-family="Arial" font-size="14.00" fill="#000000">owner_buffer_time_control    </text>
<text text-anchor="start" x="299.9032" y="-113.9" font-family="Arial" font-size="14.00" fill="#666666">[smallint(3)]</text>
<polygon fill="none" stroke="#000000" points="93,-72.5 93,-102.5 412,-102.5 412,-72.5 93,-72.5"/>
<text text-anchor="start" x="100" y="-83.9" font-family="Arial" font-size="14.00" fill="#000000">external_buffer_time_control    </text>
<text text-anchor="start" x="311.5764" y="-83.9" font-family="Arial" font-size="14.00" fill="#666666">[smallint(3)]</text>
<polygon fill="none" stroke="#000000" points="93,-42.5 93,-72.5 412,-72.5 412,-42.5 93,-42.5"/>
<text text-anchor="start" x="100" y="-53.9" font-family="Arial" font-size="14.00" fill="#000000">approved_mail_note    </text>
<text text-anchor="start" x="261.021" y="-53.9" font-family="Arial" font-size="14.00" fill="#666666">[text]</text>
</g>
<!-- sk_properties_tenants&#45;&gt;sk_properties -->
<g id="edge1" class="edge">
<title>sk_properties_tenants:property_id&#45;&gt;sk_properties:id</title>
<path fill="none" stroke="#000000" d="M282.0497,-1686.4489C241.4443,-1677.0613 262.2164,-1607.03 292,-1567 325.2381,-1522.327 378.7619,-1575.673 412,-1531 436.8058,-1497.6603 453.5556,-1437.5 412,-1437.5"/>
<polygon fill="#000000" stroke="#000000" points="282.0553,-1686.4494 291.5272,-1691.9751 287.0277,-1686.9747 292,-1687.5 292,-1687.5 292,-1687.5 287.0277,-1686.9747 292.4728,-1683.0249 282.0553,-1686.4494 282.0553,-1686.4494"/>
<text text-anchor="start" x="6.5505" y="-1697.5" font-family="Arial" font-size="10.00" fill="#000000">FOREIGN KEY (property_id) REFERENCES sk_properties (id)</text>
</g>
<!-- sk_tenants -->
<g id="node3" class="node">
<title>sk_tenants</title>
<polygon fill="#efefef" stroke="transparent" points="516,-942.5 516,-977.5 782,-977.5 782,-942.5 516,-942.5"/>
<polygon fill="none" stroke="#000000" points="516,-942.5 516,-977.5 782,-977.5 782,-942.5 516,-942.5"/>
<text text-anchor="start" x="541.6983" y="-955.3" font-family="Arial Bold" font-size="18.00" fill="#000000">sk_tenants</text>
<text text-anchor="start" x="628.7337" y="-955.3" font-family="Arial" font-size="14.00" fill="#000000">    </text>
<text text-anchor="start" x="662.9385" y="-955.3" font-family="Arial" font-size="14.00" fill="#666666">[BASE TABLE]</text>
<polygon fill="none" stroke="#000000" points="516,-912.5 516,-942.5 782,-942.5 782,-912.5 516,-912.5"/>
<text text-anchor="start" x="523" y="-923.9" font-family="Arial" font-size="14.00" fill="#000000">user_id    </text>
<text text-anchor="start" x="603.1024" y="-923.9" font-family="Arial" font-size="14.00" fill="#666666">[int(11) unsigned]</text>
<polygon fill="none" stroke="#000000" points="516,-882.5 516,-912.5 782,-912.5 782,-882.5 516,-882.5"/>
<text text-anchor="start" x="523" y="-893.9" font-family="Arial" font-size="14.00" fill="#000000">type    </text>
<text text-anchor="start" x="583.6606" y="-893.9" font-family="Arial" font-size="14.00" fill="#666666">[smallint(6)]</text>
<polygon fill="none" stroke="#000000" points="516,-852.5 516,-882.5 782,-882.5 782,-852.5 516,-852.5"/>
<text text-anchor="start" x="523" y="-863.9" font-family="Arial" font-size="14.00" fill="#000000">corporate_name    </text>
<text text-anchor="start" x="659.1206" y="-863.9" font-family="Arial" font-size="14.00" fill="#666666">[varchar(200)]</text>
<polygon fill="none" stroke="#000000" points="516,-822.5 516,-852.5 782,-852.5 782,-822.5 516,-822.5"/>
<text text-anchor="start" x="523" y="-833.9" font-family="Arial" font-size="14.00" fill="#000000">department_name    </text>
<text text-anchor="start" x="670.7938" y="-833.9" font-family="Arial" font-size="14.00" fill="#666666">[varchar(200)]</text>
<polygon fill="none" stroke="#000000" points="516,-792.5 516,-822.5 782,-822.5 782,-792.5 516,-792.5"/>
<text text-anchor="start" x="523" y="-803.9" font-family="Arial" font-size="14.00" fill="#000000">corporate_postal    </text>
<text text-anchor="start" x="661.4572" y="-803.9" font-family="Arial" font-size="14.00" fill="#666666">[varchar(8)]</text>
<polygon fill="none" stroke="#000000" points="516,-762.5 516,-792.5 782,-792.5 782,-762.5 516,-762.5"/>
<text text-anchor="start" x="523" y="-773.9" font-family="Arial" font-size="14.00" fill="#000000">corporate_prefecture    </text>
<text text-anchor="start" x="687.1276" y="-773.9" font-family="Arial" font-size="14.00" fill="#666666">[varchar(40)]</text>
<polygon fill="none" stroke="#000000" points="516,-732.5 516,-762.5 782,-762.5 782,-732.5 516,-732.5"/>
<text text-anchor="start" x="523" y="-743.9" font-family="Arial" font-size="14.00" fill="#000000">corporate_address    </text>
<text text-anchor="start" x="673.9032" y="-743.9" font-family="Arial" font-size="14.00" fill="#666666">[varchar(500)]</text>
<polygon fill="none" stroke="#000000" points="516,-702.5 516,-732.5 782,-732.5 782,-702.5 516,-702.5"/>
<text text-anchor="start" x="523" y="-713.9" font-family="Arial" font-size="14.00" fill="#000000">corporate_tel    </text>
<text text-anchor="start" x="638.892" y="-713.9" font-family="Arial" font-size="14.00" fill="#666666">[varchar(13)]</text>
<polygon fill="none" stroke="#000000" points="516,-672.5 516,-702.5 782,-702.5 782,-672.5 516,-672.5"/>
<text text-anchor="start" x="523" y="-683.9" font-family="Arial" font-size="14.00" fill="#000000">dept_last_name    </text>
<text text-anchor="start" x="656.7966" y="-683.9" font-family="Arial" font-size="14.00" fill="#666666">[varchar(40)]</text>
<polygon fill="none" stroke="#000000" points="516,-642.5 516,-672.5 782,-672.5 782,-642.5 516,-642.5"/>
<text text-anchor="start" x="523" y="-653.9" font-family="Arial" font-size="14.00" fill="#000000">dept_last_name_kana    </text>
<text text-anchor="start" x="694.927" y="-653.9" font-family="Arial" font-size="14.00" fill="#666666">[varchar(40)]</text>
<polygon fill="none" stroke="#000000" points="516,-612.5 516,-642.5 782,-642.5 782,-612.5 516,-612.5"/>
<text text-anchor="start" x="523" y="-623.9" font-family="Arial" font-size="14.00" fill="#000000">dept_first_name    </text>
<text text-anchor="start" x="657.5652" y="-623.9" font-family="Arial" font-size="14.00" fill="#666666">[varchar(40)]</text>
<polygon fill="none" stroke="#000000" points="516,-582.5 516,-612.5 782,-612.5 782,-582.5 516,-582.5"/>
<text text-anchor="start" x="522.9839" y="-593.9" font-family="Arial" font-size="14.00" fill="#000000">dept_first_name_kana    </text>
<text text-anchor="start" x="695.6795" y="-593.9" font-family="Arial" font-size="14.00" fill="#666666">[varchar(40)]</text>
<polygon fill="none" stroke="#000000" points="516,-552.5 516,-582.5 782,-582.5 782,-552.5 516,-552.5"/>
<text text-anchor="start" x="523" y="-563.9" font-family="Arial" font-size="14.00" fill="#000000">dept_birthday    </text>
<text text-anchor="start" x="642.014" y="-563.9" font-family="Arial" font-size="14.00" fill="#666666">[date]</text>
</g>
<!-- sk_properties_tenants&#45;&gt;sk_tenants -->
<g id="edge2" class="edge">
<title>sk_properties_tenants:tenant_id&#45;&gt;sk_tenants:user_id</title>
<path fill="none" stroke="#000000" d="M620.1496,-1656.4117C754.9389,-1625.0753 356.1122,-927.5 516,-927.5"/>
<polygon fill="#000000" stroke="#000000" points="619.943,-1656.4338 609.5202,-1653.0256 614.9715,-1656.9669 610,-1657.5 610,-1657.5 610,-1657.5 614.9715,-1656.9669 610.4798,-1661.9744 619.943,-1656.4338 619.943,-1656.4338"/>
<text text-anchor="start" x="617.3155" y="-1667.5" font-family="Arial" font-size="10.00" fill="#000000">FOREIGN KEY (tenant_id) REFERENCES sk_tenants (user_id)</text>
</g>
</g>
</svg>
