<?xml version="1.0" encoding="UTF-8" standalone="no"?>
<!DOCTYPE svg PUBLIC "-//W3C//DTD SVG 1.1//EN"
 "http://www.w3.org/Graphics/SVG/1.1/DTD/svg11.dtd">
<!-- Generated by graphviz version 2.40.1 (20161225.0304)
 -->
<!-- Title: sk_property_images Pages: 1 -->
<svg width="654pt" height="1822pt"
 viewBox="0.00 0.00 653.50 1822.00" xmlns="http://www.w3.org/2000/svg" xmlns:xlink="http://www.w3.org/1999/xlink">
<g id="graph0" class="graph" transform="scale(1 1) rotate(0) translate(4 1818)">
<title>sk_property_images</title>
<polygon fill="#ffffff" stroke="transparent" points="-4,4 -4,-1818 649.5,-1818 649.5,4 -4,4"/>
<!-- sk_property_images -->
<g id="node1" class="node">
<title>sk_property_images</title>
<polygon fill="#efefef" stroke="transparent" points="292,-1732.5 292,-1767.5 595,-1767.5 595,-1732.5 292,-1732.5"/>
<polygon fill="none" stroke="#000000" points="292,-1732.5 292,-1767.5 595,-1767.5 595,-1732.5 292,-1732.5"/>
<text text-anchor="start" x="298.7016" y="-1745.3" font-family="Arial Bold" font-size="18.00" fill="#000000">sk_property_images</text>
<text text-anchor="start" x="460.7304" y="-1745.3" font-family="Arial" font-size="14.00" fill="#000000">    </text>
<text text-anchor="start" x="494.9352" y="-1745.3" font-family="Arial" font-size="14.00" fill="#666666">[BASE TABLE]</text>
<polygon fill="none" stroke="#000000" points="292,-1702.5 292,-1732.5 595,-1732.5 595,-1702.5 292,-1702.5"/>
<text text-anchor="start" x="299" y="-1713.9" font-family="Arial" font-size="14.00" fill="#000000">id </text>
<text text-anchor="start" x="313.7798" y="-1713.9" font-family="Arial" font-size="14.00" fill="#666666">[bigint(21) unsigned]</text>
<polygon fill="none" stroke="#000000" points="292,-1672.5 292,-1702.5 595,-1702.5 595,-1672.5 292,-1672.5"/>
<text text-anchor="start" x="299" y="-1683.9" font-family="Arial" font-size="14.00" fill="#000000">property_id </text>
<text text-anchor="start" x="372.9046" y="-1683.9" font-family="Arial" font-size="14.00" fill="#666666">[int(11) unsigned]</text>
<polygon fill="none" stroke="#000000" points="292,-1642.5 292,-1672.5 595,-1672.5 595,-1642.5 292,-1642.5"/>
<text text-anchor="start" x="299" y="-1653.9" font-family="Arial" font-size="14.00" fill="#000000">image </text>
<text text-anchor="start" x="341.0056" y="-1653.9" font-family="Arial" font-size="14.00" fill="#666666">[varchar(1000)]</text>
<polygon fill="none" stroke="#000000" points="292,-1612.5 292,-1642.5 595,-1642.5 595,-1612.5 292,-1612.5"/>
<text text-anchor="start" x="299" y="-1623.9" font-family="Arial" font-size="14.00" fill="#000000">sort_order </text>
<text text-anchor="start" x="366.676" y="-1623.9" font-family="Arial" font-size="14.00" fill="#666666">[smallint(6) unsigned]</text>
<polygon fill="none" stroke="#000000" stroke-width="3" points="290,-1611.5 290,-1769.5 596,-1769.5 596,-1611.5 290,-1611.5"/>
</g>
<!-- sk_properties -->
<g id="node2" class="node">
<title>sk_properties</title>
<polygon fill="#efefef" stroke="transparent" points="284,-1452.5 284,-1487.5 603,-1487.5 603,-1452.5 284,-1452.5"/>
<polygon fill="none" stroke="#000000" points="284,-1452.5 284,-1487.5 603,-1487.5 603,-1452.5 284,-1452.5"/>
<text text-anchor="start" x="325.707" y="-1465.3" font-family="Arial Bold" font-size="18.00" fill="#000000">sk_properties</text>
<text text-anchor="start" x="433.725" y="-1465.3" font-family="Arial" font-size="14.00" fill="#000000">    </text>
<text text-anchor="start" x="467.9298" y="-1465.3" font-family="Arial" font-size="14.00" fill="#666666">[BASE TABLE]</text>
<polygon fill="none" stroke="#000000" points="284,-1422.5 284,-1452.5 603,-1452.5 603,-1422.5 284,-1422.5"/>
<text text-anchor="start" x="291" y="-1433.9" font-family="Arial" font-size="14.00" fill="#000000">id    </text>
<text text-anchor="start" x="336.094" y="-1433.9" font-family="Arial" font-size="14.00" fill="#666666">[int(11) unsigned]</text>
<polygon fill="none" stroke="#000000" points="284,-1392.5 284,-1422.5 603,-1422.5 603,-1392.5 284,-1392.5"/>
<text text-anchor="start" x="291" y="-1403.9" font-family="Arial" font-size="14.00" fill="#000000">is_deleted    </text>
<text text-anchor="start" x="389.0042" y="-1403.9" font-family="Arial" font-size="14.00" fill="#666666">[tinyint(1)]</text>
<polygon fill="none" stroke="#000000" points="284,-1362.5 284,-1392.5 603,-1392.5 603,-1362.5 284,-1362.5"/>
<text text-anchor="start" x="291" y="-1373.9" font-family="Arial" font-size="14.00" fill="#000000">hide    </text>
<text text-anchor="start" x="351.6592" y="-1373.9" font-family="Arial" font-size="14.00" fill="#666666">[smallint(6) unsigned]</text>
<polygon fill="none" stroke="#000000" points="284,-1332.5 284,-1362.5 603,-1362.5 603,-1332.5 284,-1332.5"/>
<text text-anchor="start" x="291" y="-1343.9" font-family="Arial" font-size="14.00" fill="#000000">is_listable    </text>
<text text-anchor="start" x="386.6522" y="-1343.9" font-family="Arial" font-size="14.00" fill="#666666">[tinyint(1)]</text>
<polygon fill="none" stroke="#000000" points="284,-1302.5 284,-1332.5 603,-1332.5 603,-1302.5 284,-1302.5"/>
<text text-anchor="start" x="291" y="-1313.9" font-family="Arial" font-size="14.00" fill="#000000">lessor_id    </text>
<text text-anchor="start" x="381.209" y="-1313.9" font-family="Arial" font-size="14.00" fill="#666666">[int(11) unsigned]</text>
<polygon fill="none" stroke="#000000" points="284,-1272.5 284,-1302.5 603,-1302.5 603,-1272.5 284,-1272.5"/>
<text text-anchor="start" x="291" y="-1283.9" font-family="Arial" font-size="14.00" fill="#000000">name    </text>
<text text-anchor="start" x="360.2132" y="-1283.9" font-family="Arial" font-size="14.00" fill="#666666">[varchar(200)]</text>
<polygon fill="none" stroke="#000000" points="284,-1242.5 284,-1272.5 603,-1272.5 603,-1242.5 284,-1242.5"/>
<text text-anchor="start" x="291" y="-1253.9" font-family="Arial" font-size="14.00" fill="#000000">voice_name    </text>
<text text-anchor="start" x="400.6676" y="-1253.9" font-family="Arial" font-size="14.00" fill="#666666">[varchar(200)]</text>
<polygon fill="none" stroke="#000000" points="284,-1212.5 284,-1242.5 603,-1242.5 603,-1212.5 284,-1212.5"/>
<text text-anchor="start" x="291" y="-1223.9" font-family="Arial" font-size="14.00" fill="#000000">description_url    </text>
<text text-anchor="start" x="416.2146" y="-1223.9" font-family="Arial" font-size="14.00" fill="#666666">[varchar(1000)]</text>
<polygon fill="none" stroke="#000000" points="284,-1182.5 284,-1212.5 603,-1212.5 603,-1182.5 284,-1182.5"/>
<text text-anchor="start" x="291" y="-1193.9" font-family="Arial" font-size="14.00" fill="#000000">brochure    </text>
<text text-anchor="start" x="380.439" y="-1193.9" font-family="Arial" font-size="14.00" fill="#666666">[varchar(1000)]</text>
<polygon fill="none" stroke="#000000" points="284,-1152.5 284,-1182.5 603,-1182.5 603,-1152.5 284,-1152.5"/>
<text text-anchor="start" x="291" y="-1163.9" font-family="Arial" font-size="14.00" fill="#000000">postal    </text>
<text text-anchor="start" x="362.5498" y="-1163.9" font-family="Arial" font-size="14.00" fill="#666666">[varchar(8)]</text>
<polygon fill="none" stroke="#000000" points="284,-1122.5 284,-1152.5 603,-1152.5 603,-1122.5 284,-1122.5"/>
<text text-anchor="start" x="291" y="-1133.9" font-family="Arial" font-size="14.00" fill="#000000">prefecture    </text>
<text text-anchor="start" x="388.2202" y="-1133.9" font-family="Arial" font-size="14.00" fill="#666666">[varchar(20)]</text>
<polygon fill="none" stroke="#000000" points="284,-1092.5 284,-1122.5 603,-1122.5 603,-1092.5 284,-1092.5"/>
<text text-anchor="start" x="291" y="-1103.9" font-family="Arial" font-size="14.00" fill="#000000">address    </text>
<text text-anchor="start" x="374.9958" y="-1103.9" font-family="Arial" font-size="14.00" fill="#666666">[varchar(400)]</text>
<polygon fill="none" stroke="#000000" points="284,-1062.5 284,-1092.5 603,-1092.5 603,-1062.5 284,-1062.5"/>
<text text-anchor="start" x="291" y="-1073.9" font-family="Arial" font-size="14.00" fill="#000000">caution    </text>
<text text-anchor="start" x="370.3324" y="-1073.9" font-family="Arial" font-size="14.00" fill="#666666">[text]</text>
<polygon fill="none" stroke="#000000" points="284,-1032.5 284,-1062.5 603,-1062.5 603,-1032.5 284,-1032.5"/>
<text text-anchor="start" x="291" y="-1043.9" font-family="Arial" font-size="14.00" fill="#000000">is_send_reserved_email    </text>
<text text-anchor="start" x="476.8976" y="-1043.9" font-family="Arial" font-size="14.00" fill="#666666">[tinyint(1)]</text>
<polygon fill="none" stroke="#000000" points="284,-1002.5 284,-1032.5 603,-1032.5 603,-1002.5 284,-1002.5"/>
<text text-anchor="start" x="291" y="-1013.9" font-family="Arial" font-size="14.00" fill="#000000">hide_password    </text>
<text text-anchor="start" x="419.3394" y="-1013.9" font-family="Arial" font-size="14.00" fill="#666666">[varchar(50)]</text>
<polygon fill="none" stroke="#000000" points="284,-972.5 284,-1002.5 603,-1002.5 603,-972.5 284,-972.5"/>
<text text-anchor="start" x="291" y="-983.9" font-family="Arial" font-size="14.00" fill="#000000">terms    </text>
<text text-anchor="start" x="360.1992" y="-983.9" font-family="Arial" font-size="14.00" fill="#666666">[text]</text>
<polygon fill="none" stroke="#000000" points="284,-942.5 284,-972.5 603,-972.5 603,-942.5 284,-942.5"/>
<text text-anchor="start" x="291" y="-953.9" font-family="Arial" font-size="14.00" fill="#000000">access    </text>
<text text-anchor="start" x="368.77" y="-953.9" font-family="Arial" font-size="14.00" fill="#666666">[text]</text>
<polygon fill="none" stroke="#000000" points="284,-912.5 284,-942.5 603,-942.5 603,-912.5 284,-912.5"/>
<text text-anchor="start" x="291" y="-923.9" font-family="Arial" font-size="14.00" fill="#000000">specified_cm_tran    </text>
<text text-anchor="start" x="438.7812" y="-923.9" font-family="Arial" font-size="14.00" fill="#666666">[text]</text>
<polygon fill="none" stroke="#000000" points="284,-882.5 284,-912.5 603,-912.5 603,-882.5 284,-882.5"/>
<text text-anchor="start" x="291" y="-893.9" font-family="Arial" font-size="14.00" fill="#000000">introduction    </text>
<text text-anchor="start" x="397.5554" y="-893.9" font-family="Arial" font-size="14.00" fill="#666666">[text]</text>
<polygon fill="none" stroke="#000000" points="284,-852.5 284,-882.5 603,-882.5 603,-852.5 284,-852.5"/>
<text text-anchor="start" x="291" y="-863.9" font-family="Arial" font-size="14.00" fill="#000000">catchcopy    </text>
<text text-anchor="start" x="388.2258" y="-863.9" font-family="Arial" font-size="14.00" fill="#666666">[varchar(100)]</text>
<polygon fill="none" stroke="#000000" points="284,-822.5 284,-852.5 603,-852.5 603,-822.5 284,-822.5"/>
<text text-anchor="start" x="291" y="-833.9" font-family="Arial" font-size="14.00" fill="#000000">discount_info    </text>
<text text-anchor="start" x="407.6774" y="-833.9" font-family="Arial" font-size="14.00" fill="#666666">[text]</text>
<polygon fill="none" stroke="#000000" points="284,-792.5 284,-822.5 603,-822.5 603,-792.5 284,-792.5"/>
<text text-anchor="start" x="291" y="-803.9" font-family="Arial" font-size="14.00" fill="#000000">buffer_time    </text>
<text text-anchor="start" x="395.2174" y="-803.9" font-family="Arial" font-size="14.00" fill="#666666">[time]</text>
<polygon fill="none" stroke="#000000" points="284,-762.5 284,-792.5 603,-792.5 603,-762.5 284,-762.5"/>
<text text-anchor="start" x="291" y="-773.9" font-family="Arial" font-size="14.00" fill="#000000">buffer_time_control    </text>
<text text-anchor="start" x="445.0056" y="-773.9" font-family="Arial" font-size="14.00" fill="#666666">[smallint(3)]</text>
<polygon fill="none" stroke="#000000" points="284,-732.5 284,-762.5 603,-762.5 603,-732.5 284,-732.5"/>
<text text-anchor="start" x="291" y="-743.9" font-family="Arial" font-size="14.00" fill="#000000">sort_order    </text>
<text text-anchor="start" x="388.9902" y="-743.9" font-family="Arial" font-size="14.00" fill="#666666">[int(11)]</text>
<polygon fill="none" stroke="#000000" points="284,-702.5 284,-732.5 603,-732.5 603,-702.5 284,-702.5"/>
<text text-anchor="start" x="291" y="-713.9" font-family="Arial" font-size="14.00" fill="#000000">is_approve    </text>
<text text-anchor="start" x="393.6676" y="-713.9" font-family="Arial" font-size="14.00" fill="#666666">[tinyint(1)]</text>
<polygon fill="none" stroke="#000000" points="284,-672.5 284,-702.5 603,-702.5 603,-672.5 284,-672.5"/>
<text text-anchor="start" x="291" y="-683.9" font-family="Arial" font-size="14.00" fill="#000000">fixed_limit_date_after_approve    </text>
<text text-anchor="start" x="516.5876" y="-683.9" font-family="Arial" font-size="14.00" fill="#666666">[int(11)]</text>
<polygon fill="none" stroke="#000000" points="284,-642.5 284,-672.5 603,-672.5 603,-642.5 284,-642.5"/>
<text text-anchor="start" x="291" y="-653.9" font-family="Arial" font-size="14.00" fill="#000000">fixed_limit_date_before_first_time    </text>
<text text-anchor="start" x="534.46" y="-653.9" font-family="Arial" font-size="14.00" fill="#666666">[int(11)]</text>
<polygon fill="none" stroke="#000000" points="284,-612.5 284,-642.5 603,-642.5 603,-612.5 284,-612.5"/>
<text text-anchor="start" x="291" y="-623.9" font-family="Arial" font-size="14.00" fill="#000000">enable_reserve_lock    </text>
<text text-anchor="start" x="454.3478" y="-623.9" font-family="Arial" font-size="14.00" fill="#666666">[tinyint(1) unsigned]</text>
<polygon fill="none" stroke="#000000" points="284,-582.5 284,-612.5 603,-612.5 603,-582.5 284,-582.5"/>
<text text-anchor="start" x="291" y="-593.9" font-family="Arial" font-size="14.00" fill="#000000">reserve_lock_time    </text>
<text text-anchor="start" x="438.7686" y="-593.9" font-family="Arial" font-size="14.00" fill="#666666">[time]</text>
<polygon fill="none" stroke="#000000" points="284,-552.5 284,-582.5 603,-582.5 603,-552.5 284,-552.5"/>
<text text-anchor="start" x="291" y="-563.9" font-family="Arial" font-size="14.00" fill="#000000">reserve_lock_target    </text>
<text text-anchor="start" x="448.1178" y="-563.9" font-family="Arial" font-size="14.00" fill="#666666">[smallint(6) unsigned]</text>
<polygon fill="none" stroke="#000000" points="284,-522.5 284,-552.5 603,-552.5 603,-522.5 284,-522.5"/>
<text text-anchor="start" x="291" y="-533.9" font-family="Arial" font-size="14.00" fill="#000000">enable_reserve_unlock    </text>
<text text-anchor="start" x="469.913" y="-533.9" font-family="Arial" font-size="14.00" fill="#666666">[tinyint(1) unsigned]</text>
<polygon fill="none" stroke="#000000" points="284,-492.5 284,-522.5 603,-522.5 603,-492.5 284,-492.5"/>
<text text-anchor="start" x="291" y="-503.9" font-family="Arial" font-size="14.00" fill="#000000">reserve_unlock_time    </text>
<text text-anchor="start" x="454.3338" y="-503.9" font-family="Arial" font-size="14.00" fill="#666666">[time]</text>
<polygon fill="none" stroke="#000000" points="284,-462.5 284,-492.5 603,-492.5 603,-462.5 284,-462.5"/>
<text text-anchor="start" x="290.6515" y="-473.9" font-family="Arial" font-size="14.00" fill="#000000">reserve_unlock_target    </text>
<text text-anchor="start" x="463.3345" y="-473.9" font-family="Arial" font-size="14.00" fill="#666666">[smallint(6) unsigned]</text>
<polygon fill="none" stroke="#000000" points="284,-432.5 284,-462.5 603,-462.5 603,-432.5 284,-432.5"/>
<text text-anchor="start" x="291" y="-443.9" font-family="Arial" font-size="14.00" fill="#000000">cancel_charge_payment_limit_date    </text>
<text text-anchor="start" x="545.3716" y="-443.9" font-family="Arial" font-size="14.00" fill="#666666">[int(11)]</text>
<polygon fill="none" stroke="#000000" points="284,-402.5 284,-432.5 603,-432.5 603,-402.5 284,-402.5"/>
<text text-anchor="start" x="291" y="-413.9" font-family="Arial" font-size="14.00" fill="#000000">is_using_origin_cancel_policy    </text>
<text text-anchor="start" x="510.3506" y="-413.9" font-family="Arial" font-size="14.00" fill="#666666">[smallint(1)]</text>
<polygon fill="none" stroke="#000000" points="284,-372.5 284,-402.5 603,-402.5 603,-372.5 284,-372.5"/>
<text text-anchor="start" x="291" y="-383.9" font-family="Arial" font-size="14.00" fill="#000000">pref_id    </text>
<text text-anchor="start" x="367.993" y="-383.9" font-family="Arial" font-size="14.00" fill="#666666">[int(11)]</text>
<polygon fill="none" stroke="#000000" points="284,-342.5 284,-372.5 603,-372.5 603,-342.5 284,-342.5"/>
<text text-anchor="start" x="291" y="-353.9" font-family="Arial" font-size="14.00" fill="#000000">city_id    </text>
<text text-anchor="start" x="364.8738" y="-353.9" font-family="Arial" font-size="14.00" fill="#666666">[int(11)]</text>
<polygon fill="none" stroke="#000000" points="284,-312.5 284,-342.5 603,-342.5 603,-312.5 284,-312.5"/>
<text text-anchor="start" x="291" y="-323.9" font-family="Arial" font-size="14.00" fill="#000000">region_id    </text>
<text text-anchor="start" x="382.7742" y="-323.9" font-family="Arial" font-size="14.00" fill="#666666">[int(11)]</text>
<polygon fill="none" stroke="#000000" points="284,-282.5 284,-312.5 603,-312.5 603,-282.5 284,-282.5"/>
<text text-anchor="start" x="291" y="-293.9" font-family="Arial" font-size="14.00" fill="#000000">lat    </text>
<text text-anchor="start" x="339.9846" y="-293.9" font-family="Arial" font-size="14.00" fill="#666666">[decimal(24,20)]</text>
<polygon fill="none" stroke="#000000" points="284,-252.5 284,-282.5 603,-282.5 603,-252.5 284,-252.5"/>
<text text-anchor="start" x="291" y="-263.9" font-family="Arial" font-size="14.00" fill="#000000">lng    </text>
<text text-anchor="start" x="343.8766" y="-263.9" font-family="Arial" font-size="14.00" fill="#666666">[decimal(24,20)]</text>
<polygon fill="none" stroke="#000000" points="284,-222.5 284,-252.5 603,-252.5 603,-222.5 284,-222.5"/>
<text text-anchor="start" x="291" y="-233.9" font-family="Arial" font-size="14.00" fill="#000000">created_datetime    </text>
<text text-anchor="start" x="433.3478" y="-233.9" font-family="Arial" font-size="14.00" fill="#666666">[timestamp]</text>
<polygon fill="none" stroke="#000000" points="284,-192.5 284,-222.5 603,-222.5 603,-192.5 284,-192.5"/>
<text text-anchor="start" x="291" y="-203.9" font-family="Arial" font-size="14.00" fill="#000000">updated_datetime    </text>
<text text-anchor="start" x="437.2524" y="-203.9" font-family="Arial" font-size="14.00" fill="#666666">[timestamp]</text>
<polygon fill="none" stroke="#000000" points="284,-162.5 284,-192.5 603,-192.5 603,-162.5 284,-162.5"/>
<text text-anchor="start" x="291" y="-173.9" font-family="Arial" font-size="14.00" fill="#000000">owner_buffer_time    </text>
<text text-anchor="start" x="441.115" y="-173.9" font-family="Arial" font-size="14.00" fill="#666666">[time]</text>
<polygon fill="none" stroke="#000000" points="284,-132.5 284,-162.5 603,-162.5 603,-132.5 284,-132.5"/>
<text text-anchor="start" x="291" y="-143.9" font-family="Arial" font-size="14.00" fill="#000000">external_buffer_time    </text>
<text text-anchor="start" x="452.7882" y="-143.9" font-family="Arial" font-size="14.00" fill="#666666">[time]</text>
<polygon fill="none" stroke="#000000" points="284,-102.5 284,-132.5 603,-132.5 603,-102.5 284,-102.5"/>
<text text-anchor="start" x="291" y="-113.9" font-family="Arial" font-size="14.00" fill="#000000">owner_buffer_time_control    </text>
<text text-anchor="start" x="490.9032" y="-113.9" font-family="Arial" font-size="14.00" fill="#666666">[smallint(3)]</text>
<polygon fill="none" stroke="#000000" points="284,-72.5 284,-102.5 603,-102.5 603,-72.5 284,-72.5"/>
<text text-anchor="start" x="291" y="-83.9" font-family="Arial" font-size="14.00" fill="#000000">external_buffer_time_control    </text>
<text text-anchor="start" x="502.5764" y="-83.9" font-family="Arial" font-size="14.00" fill="#666666">[smallint(3)]</text>
<polygon fill="none" stroke="#000000" points="284,-42.5 284,-72.5 603,-72.5 603,-42.5 284,-42.5"/>
<text text-anchor="start" x="291" y="-53.9" font-family="Arial" font-size="14.00" fill="#000000">approved_mail_note    </text>
<text text-anchor="start" x="452.021" y="-53.9" font-family="Arial" font-size="14.00" fill="#666666">[text]</text>
</g>
<!-- sk_property_images&#45;&gt;sk_properties -->
<g id="edge1" class="edge">
<title>sk_property_images:property_id&#45;&gt;sk_properties:id</title>
<path fill="none" stroke="#000000" d="M282.1395,-1684.6924C235.6644,-1657.2266 231.89,-1437.5 284,-1437.5"/>
<polygon fill="#000000" stroke="#000000" points="282.3823,-1684.7614 290.7676,-1691.828 287.1911,-1686.1307 292,-1687.5 292,-1687.5 292,-1687.5 287.1911,-1686.1307 293.2324,-1683.172 282.3823,-1684.7614 282.3823,-1684.7614"/>
<text text-anchor="start" x="6.5505" y="-1697.5" font-family="Arial" font-size="10.00" fill="#000000">FOREIGN KEY (property_id) REFERENCES sk_properties (id)</text>
</g>
</g>
</svg>
