<?xml version="1.0" encoding="UTF-8" standalone="no"?>
<!DOCTYPE svg PUBLIC "-//W3C//DTD SVG 1.1//EN"
 "http://www.w3.org/Graphics/SVG/1.1/DTD/svg11.dtd">
<!-- Generated by graphviz version 2.40.1 (20161225.0304)
 -->
<!-- Title: sk_payments Pages: 1 -->
<svg width="347pt" height="795pt"
 viewBox="0.00 0.00 347.00 795.00" xmlns="http://www.w3.org/2000/svg" xmlns:xlink="http://www.w3.org/1999/xlink">
<g id="graph0" class="graph" transform="scale(1 1) rotate(0) translate(4 791)">
<title>sk_payments</title>
<polygon fill="#ffffff" stroke="transparent" points="-4,4 -4,-791 343,-791 343,4 -4,4"/>
<!-- sk_payments -->
<g id="node1" class="node">
<title>sk_payments</title>
<polygon fill="#efefef" stroke="transparent" points="46.5,-705.5 46.5,-740.5 293.5,-740.5 293.5,-705.5 46.5,-705.5"/>
<polygon fill="none" stroke="#000000" points="46.5,-705.5 46.5,-740.5 293.5,-740.5 293.5,-705.5 46.5,-705.5"/>
<text text-anchor="start" x="53.2033" y="-718.3" font-family="Arial Bold" font-size="18.00" fill="#000000">sk_payments</text>
<text text-anchor="start" x="159.2287" y="-718.3" font-family="Arial" font-size="14.00" fill="#000000">    </text>
<text text-anchor="start" x="193.4335" y="-718.3" font-family="Arial" font-size="14.00" fill="#666666">[BASE TABLE]</text>
<polygon fill="none" stroke="#000000" points="46.5,-675.5 46.5,-705.5 293.5,-705.5 293.5,-675.5 46.5,-675.5"/>
<text text-anchor="start" x="53.5" y="-686.9" font-family="Arial" font-size="14.00" fill="#000000">id </text>
<text text-anchor="start" x="68.2798" y="-686.9" font-family="Arial" font-size="14.00" fill="#666666">[int(11) unsigned]</text>
<polygon fill="none" stroke="#000000" points="46.5,-645.5 46.5,-675.5 293.5,-675.5 293.5,-645.5 46.5,-645.5"/>
<text text-anchor="start" x="53.5" y="-656.9" font-family="Arial" font-size="14.00" fill="#000000">reserve_id </text>
<text text-anchor="start" x="122.7314" y="-656.9" font-family="Arial" font-size="14.00" fill="#666666">[int(11) unsigned]</text>
<polygon fill="none" stroke="#000000" points="46.5,-615.5 46.5,-645.5 293.5,-645.5 293.5,-615.5 46.5,-615.5"/>
<text text-anchor="start" x="53.5" y="-626.9" font-family="Arial" font-size="14.00" fill="#000000">payment_intent_id </text>
<text text-anchor="start" x="171.7622" y="-626.9" font-family="Arial" font-size="14.00" fill="#666666">[varchar(255)]</text>
<polygon fill="none" stroke="#000000" points="46.5,-585.5 46.5,-615.5 293.5,-615.5 293.5,-585.5 46.5,-585.5"/>
<text text-anchor="start" x="53.5" y="-596.9" font-family="Arial" font-size="14.00" fill="#000000">is_midst_transaction </text>
<text text-anchor="start" x="184.9642" y="-596.9" font-family="Arial" font-size="14.00" fill="#666666">[int(11)]</text>
<polygon fill="none" stroke="#000000" points="46.5,-555.5 46.5,-585.5 293.5,-585.5 293.5,-555.5 46.5,-555.5"/>
<text text-anchor="start" x="53.5" y="-566.9" font-family="Arial" font-size="14.00" fill="#000000">payment_date </text>
<text text-anchor="start" x="146.0932" y="-566.9" font-family="Arial" font-size="14.00" fill="#666666">[datetime]</text>
<polygon fill="none" stroke="#000000" points="46.5,-525.5 46.5,-555.5 293.5,-555.5 293.5,-525.5 46.5,-525.5"/>
<text text-anchor="start" x="53.5" y="-536.9" font-family="Arial" font-size="14.00" fill="#000000">bill_amount </text>
<text text-anchor="start" x="128.9572" y="-536.9" font-family="Arial" font-size="14.00" fill="#666666">[int(11)]</text>
<polygon fill="none" stroke="#000000" points="46.5,-495.5 46.5,-525.5 293.5,-525.5 293.5,-495.5 46.5,-495.5"/>
<text text-anchor="start" x="53.5" y="-506.9" font-family="Arial" font-size="14.00" fill="#000000">payment_amount </text>
<text text-anchor="start" x="165.5364" y="-506.9" font-family="Arial" font-size="14.00" fill="#666666">[int(11)]</text>
<polygon fill="none" stroke="#000000" points="46.5,-465.5 46.5,-495.5 293.5,-495.5 293.5,-465.5 46.5,-465.5"/>
<text text-anchor="start" x="53.5" y="-476.9" font-family="Arial" font-size="14.00" fill="#000000">bill_reason </text>
<text text-anchor="start" x="125.0666" y="-476.9" font-family="Arial" font-size="14.00" fill="#666666">[int(11)]</text>
<polygon fill="none" stroke="#000000" points="46.5,-435.5 46.5,-465.5 293.5,-465.5 293.5,-435.5 46.5,-435.5"/>
<text text-anchor="start" x="53.5" y="-446.9" font-family="Arial" font-size="14.00" fill="#000000">created </text>
<text text-anchor="start" x="104.0722" y="-446.9" font-family="Arial" font-size="14.00" fill="#666666">[datetime]</text>
<polygon fill="none" stroke="#000000" points="46.5,-405.5 46.5,-435.5 293.5,-435.5 293.5,-405.5 46.5,-405.5"/>
<text text-anchor="start" x="53.5" y="-416.9" font-family="Arial" font-size="14.00" fill="#000000">modified </text>
<text text-anchor="start" x="110.2854" y="-416.9" font-family="Arial" font-size="14.00" fill="#666666">[datetime]</text>
<polygon fill="none" stroke="#000000" points="46.5,-375.5 46.5,-405.5 293.5,-405.5 293.5,-375.5 46.5,-375.5"/>
<text text-anchor="start" x="53.5" y="-386.9" font-family="Arial" font-size="14.00" fill="#000000">gmo_order_id </text>
<text text-anchor="start" x="143.7398" y="-386.9" font-family="Arial" font-size="14.00" fill="#666666">[varchar(27)]</text>
<polygon fill="none" stroke="#000000" points="46.5,-345.5 46.5,-375.5 293.5,-375.5 293.5,-345.5 46.5,-345.5"/>
<text text-anchor="start" x="53.5" y="-356.9" font-family="Arial" font-size="14.00" fill="#000000">veritrans_order_id </text>
<text text-anchor="start" x="170.1802" y="-356.9" font-family="Arial" font-size="14.00" fill="#666666">[varchar(27)]</text>
<polygon fill="none" stroke="#000000" points="46.5,-315.5 46.5,-345.5 293.5,-345.5 293.5,-315.5 46.5,-315.5"/>
<text text-anchor="start" x="53.5" y="-326.9" font-family="Arial" font-size="14.00" fill="#000000">payment_error </text>
<text text-anchor="start" x="148.4018" y="-326.9" font-family="Arial" font-size="14.00" fill="#666666">[int(11)]</text>
<polygon fill="none" stroke="#000000" points="46.5,-285.5 46.5,-315.5 293.5,-315.5 293.5,-285.5 46.5,-285.5"/>
<text text-anchor="start" x="53.5" y="-296.9" font-family="Arial" font-size="14.00" fill="#000000">payment_error_date </text>
<text text-anchor="start" x="183.4228" y="-296.9" font-family="Arial" font-size="14.00" fill="#666666">[datetime]</text>
<polygon fill="none" stroke="#000000" points="46.5,-255.5 46.5,-285.5 293.5,-285.5 293.5,-255.5 46.5,-255.5"/>
<text text-anchor="start" x="53.5" y="-266.9" font-family="Arial" font-size="14.00" fill="#000000">payment_limit_date </text>
<text text-anchor="start" x="178.7468" y="-266.9" font-family="Arial" font-size="14.00" fill="#666666">[date]</text>
<polygon fill="none" stroke="#000000" points="46.5,-225.5 46.5,-255.5 293.5,-255.5 293.5,-225.5 46.5,-225.5"/>
<text text-anchor="start" x="53.5" y="-236.9" font-family="Arial" font-size="14.00" fill="#000000">gmo_payment_limit_date </text>
<text text-anchor="start" x="213.7552" y="-236.9" font-family="Arial" font-size="14.00" fill="#666666">[date]</text>
<polygon fill="none" stroke="#000000" points="46.5,-195.5 46.5,-225.5 293.5,-225.5 293.5,-195.5 46.5,-195.5"/>
<text text-anchor="start" x="53.5" y="-206.9" font-family="Arial" font-size="14.00" fill="#000000">creditcard_brand </text>
<text text-anchor="start" x="162.413" y="-206.9" font-family="Arial" font-size="14.00" fill="#666666">[int(10) unsigned]</text>
<polygon fill="none" stroke="#000000" points="46.5,-165.5 46.5,-195.5 293.5,-195.5 293.5,-165.5 46.5,-165.5"/>
<text text-anchor="start" x="53.5" y="-176.9" font-family="Arial" font-size="14.00" fill="#000000">memo </text>
<text text-anchor="start" x="96.277" y="-176.9" font-family="Arial" font-size="14.00" fill="#666666">[varchar(500)]</text>
<polygon fill="none" stroke="#000000" points="46.5,-135.5 46.5,-165.5 293.5,-165.5 293.5,-135.5 46.5,-135.5"/>
<text text-anchor="start" x="53.5" y="-146.9" font-family="Arial" font-size="14.00" fill="#000000">bill_date </text>
<text text-anchor="start" x="109.514" y="-146.9" font-family="Arial" font-size="14.00" fill="#666666">[date]</text>
<polygon fill="none" stroke="#000000" points="46.5,-105.5 46.5,-135.5 293.5,-135.5 293.5,-105.5 46.5,-105.5"/>
<text text-anchor="start" x="53.5" y="-116.9" font-family="Arial" font-size="14.00" fill="#000000">is_annulment </text>
<text text-anchor="start" x="140.6332" y="-116.9" font-family="Arial" font-size="14.00" fill="#666666">[tinyint(1)]</text>
<polygon fill="none" stroke="#000000" points="46.5,-75.5 46.5,-105.5 293.5,-105.5 293.5,-75.5 46.5,-75.5"/>
<text text-anchor="start" x="53.5" y="-86.9" font-family="Arial" font-size="14.00" fill="#000000">is_mail_send </text>
<text text-anchor="start" x="139.0666" y="-86.9" font-family="Arial" font-size="14.00" fill="#666666">[tinyint(1)]</text>
<polygon fill="none" stroke="#000000" points="46.5,-45.5 46.5,-75.5 293.5,-75.5 293.5,-45.5 46.5,-45.5"/>
<text text-anchor="start" x="53.5" y="-56.9" font-family="Arial" font-size="14.00" fill="#000000">bank_account </text>
<text text-anchor="start" x="144.542" y="-56.9" font-family="Arial" font-size="14.00" fill="#666666">[varchar(1000)]</text>
<polygon fill="none" stroke="#000000" stroke-width="3" points="44.5,-44.5 44.5,-742.5 294.5,-742.5 294.5,-44.5 44.5,-44.5"/>
</g>
</g>
</svg>
