<?xml version="1.0" encoding="UTF-8" standalone="no"?>
<!DOCTYPE svg PUBLIC "-//W3C//DTD SVG 1.1//EN"
 "http://www.w3.org/Graphics/SVG/1.1/DTD/svg11.dtd">
<!-- Generated by graphviz version 2.40.1 (20161225.0304)
 -->
<!-- Title: sk_reserve_fittings Pages: 1 -->
<svg width="645pt" height="2512pt"
 viewBox="0.00 0.00 644.50 2512.00" xmlns="http://www.w3.org/2000/svg" xmlns:xlink="http://www.w3.org/1999/xlink">
<g id="graph0" class="graph" transform="scale(1 1) rotate(0) translate(4 2508)">
<title>sk_reserve_fittings</title>
<polygon fill="#ffffff" stroke="transparent" points="-4,4 -4,-2508 640.5,-2508 640.5,4 -4,4"/>
<!-- sk_reserve_fittings -->
<g id="node1" class="node">
<title>sk_reserve_fittings</title>
<polygon fill="#efefef" stroke="transparent" points="283,-2422.5 283,-2457.5 574,-2457.5 574,-2422.5 283,-2422.5"/>
<polygon fill="none" stroke="#000000" points="283,-2422.5 283,-2457.5 574,-2457.5 574,-2422.5 283,-2422.5"/>
<text text-anchor="start" x="289.7046" y="-2435.3" font-family="Arial Bold" font-size="18.00" fill="#000000">sk_reserve_fittings</text>
<text text-anchor="start" x="439.7274" y="-2435.3" font-family="Arial" font-size="14.00" fill="#000000">    </text>
<text text-anchor="start" x="473.9322" y="-2435.3" font-family="Arial" font-size="14.00" fill="#666666">[BASE TABLE]</text>
<polygon fill="none" stroke="#000000" points="283,-2392.5 283,-2422.5 574,-2422.5 574,-2392.5 283,-2392.5"/>
<text text-anchor="start" x="290" y="-2403.9" font-family="Arial" font-size="14.00" fill="#000000">id </text>
<text text-anchor="start" x="304.7798" y="-2403.9" font-family="Arial" font-size="14.00" fill="#666666">[int(11) unsigned]</text>
<polygon fill="none" stroke="#000000" points="283,-2362.5 283,-2392.5 574,-2392.5 574,-2362.5 283,-2362.5"/>
<text text-anchor="start" x="290" y="-2373.9" font-family="Arial" font-size="14.00" fill="#000000">reserve_id </text>
<text text-anchor="start" x="359.2314" y="-2373.9" font-family="Arial" font-size="14.00" fill="#666666">[int(11) unsigned]</text>
<polygon fill="none" stroke="#000000" points="283,-2332.5 283,-2362.5 574,-2362.5 574,-2332.5 283,-2332.5"/>
<text text-anchor="start" x="290" y="-2343.9" font-family="Arial" font-size="14.00" fill="#000000">fitting_id </text>
<text text-anchor="start" x="346.0126" y="-2343.9" font-family="Arial" font-size="14.00" fill="#666666">[int(11) unsigned]</text>
<polygon fill="none" stroke="#000000" points="283,-2302.5 283,-2332.5 574,-2332.5 574,-2302.5 283,-2302.5"/>
<text text-anchor="start" x="290" y="-2313.9" font-family="Arial" font-size="14.00" fill="#000000">number </text>
<text text-anchor="start" x="341.3422" y="-2313.9" font-family="Arial" font-size="14.00" fill="#666666">[int(11) unsigned]</text>
<polygon fill="none" stroke="#000000" points="283,-2272.5 283,-2302.5 574,-2302.5 574,-2272.5 283,-2272.5"/>
<text text-anchor="start" x="290" y="-2283.9" font-family="Arial" font-size="14.00" fill="#000000">unit_price </text>
<text text-anchor="start" x="354.568" y="-2283.9" font-family="Arial" font-size="14.00" fill="#666666">[int(11) unsigned]</text>
<polygon fill="none" stroke="#000000" points="283,-2242.5 283,-2272.5 574,-2272.5 574,-2242.5 283,-2242.5"/>
<text text-anchor="start" x="290" y="-2253.9" font-family="Arial" font-size="14.00" fill="#000000">fitting_name </text>
<text text-anchor="start" x="370.1318" y="-2253.9" font-family="Arial" font-size="14.00" fill="#666666">[varchar(200)]</text>
<polygon fill="none" stroke="#000000" points="283,-2212.5 283,-2242.5 574,-2242.5 574,-2212.5 283,-2212.5"/>
<text text-anchor="start" x="290" y="-2223.9" font-family="Arial" font-size="14.00" fill="#000000">price </text>
<text text-anchor="start" x="324.223" y="-2223.9" font-family="Arial" font-size="14.00" fill="#666666">[int(11) unsigned]</text>
<polygon fill="none" stroke="#000000" points="283,-2182.5 283,-2212.5 574,-2212.5 574,-2182.5 283,-2182.5"/>
<text text-anchor="start" x="290" y="-2193.9" font-family="Arial" font-size="14.00" fill="#000000">price_without_tax </text>
<text text-anchor="start" x="402.8036" y="-2193.9" font-family="Arial" font-size="14.00" fill="#666666">[int(11) unsigned]</text>
<polygon fill="none" stroke="#000000" points="283,-2152.5 283,-2182.5 574,-2182.5 574,-2152.5 283,-2152.5"/>
<text text-anchor="start" x="290" y="-2163.9" font-family="Arial" font-size="14.00" fill="#000000">price_tax </text>
<text text-anchor="start" x="350.6788" y="-2163.9" font-family="Arial" font-size="14.00" fill="#666666">[int(11) unsigned]</text>
<polygon fill="none" stroke="#000000" stroke-width="3" points="281,-2151.5 281,-2459.5 575,-2459.5 575,-2151.5 281,-2151.5"/>
</g>
<!-- sk_reserves -->
<g id="node2" class="node">
<title>sk_reserves</title>
<polygon fill="#efefef" stroke="transparent" points="263,-1992.5 263,-2027.5 594,-2027.5 594,-1992.5 263,-1992.5"/>
<polygon fill="none" stroke="#000000" points="263,-1992.5 263,-2027.5 594,-2027.5 594,-1992.5 263,-1992.5"/>
<text text-anchor="start" x="316.2114" y="-2005.3" font-family="Arial Bold" font-size="18.00" fill="#000000">sk_reserves</text>
<text text-anchor="start" x="413.2206" y="-2005.3" font-family="Arial" font-size="14.00" fill="#000000">    </text>
<text text-anchor="start" x="447.4254" y="-2005.3" font-family="Arial" font-size="14.00" fill="#666666">[BASE TABLE]</text>
<polygon fill="none" stroke="#000000" points="263,-1962.5 263,-1992.5 594,-1992.5 594,-1962.5 263,-1962.5"/>
<text text-anchor="start" x="270" y="-1973.9" font-family="Arial" font-size="14.00" fill="#000000">id    </text>
<text text-anchor="start" x="315.094" y="-1973.9" font-family="Arial" font-size="14.00" fill="#666666">[int(11) unsigned]</text>
<polygon fill="none" stroke="#000000" points="263,-1932.5 263,-1962.5 594,-1962.5 594,-1932.5 263,-1932.5"/>
<text text-anchor="start" x="270" y="-1943.9" font-family="Arial" font-size="14.00" fill="#000000">cancel_date    </text>
<text text-anchor="start" x="379.6802" y="-1943.9" font-family="Arial" font-size="14.00" fill="#666666">[datetime]</text>
<polygon fill="none" stroke="#000000" points="263,-1902.5 263,-1932.5 594,-1932.5 594,-1902.5 263,-1902.5"/>
<text text-anchor="start" x="270" y="-1913.9" font-family="Arial" font-size="14.00" fill="#000000">is_tentative    </text>
<text text-anchor="start" x="375.0028" y="-1913.9" font-family="Arial" font-size="14.00" fill="#666666">[tinyint(1)]</text>
<polygon fill="none" stroke="#000000" points="263,-1872.5 263,-1902.5 594,-1902.5 594,-1872.5 263,-1872.5"/>
<text text-anchor="start" x="270" y="-1883.9" font-family="Arial" font-size="14.00" fill="#000000">payment_complete    </text>
<text text-anchor="start" x="422.4572" y="-1883.9" font-family="Arial" font-size="14.00" fill="#666666">[smallint(6)]</text>
<polygon fill="none" stroke="#000000" points="263,-1842.5 263,-1872.5 594,-1872.5 594,-1842.5 263,-1842.5"/>
<text text-anchor="start" x="270" y="-1853.9" font-family="Arial" font-size="14.00" fill="#000000">user_id    </text>
<text text-anchor="start" x="350.1024" y="-1853.9" font-family="Arial" font-size="14.00" fill="#666666">[int(11) unsigned]</text>
<polygon fill="none" stroke="#000000" points="263,-1812.5 263,-1842.5 594,-1842.5 594,-1812.5 263,-1812.5"/>
<text text-anchor="start" x="270" y="-1823.9" font-family="Arial" font-size="14.00" fill="#000000">room_id    </text>
<text text-anchor="start" x="354.763" y="-1823.9" font-family="Arial" font-size="14.00" fill="#666666">[int(11) unsigned]</text>
<polygon fill="none" stroke="#000000" points="263,-1782.5 263,-1812.5 594,-1812.5 594,-1782.5 263,-1782.5"/>
<text text-anchor="start" x="270" y="-1793.9" font-family="Arial" font-size="14.00" fill="#000000">first_time    </text>
<text text-anchor="start" x="360.9762" y="-1793.9" font-family="Arial" font-size="14.00" fill="#666666">[datetime]</text>
<polygon fill="none" stroke="#000000" points="263,-1752.5 263,-1782.5 594,-1782.5 594,-1752.5 263,-1752.5"/>
<text text-anchor="start" x="270" y="-1763.9" font-family="Arial" font-size="14.00" fill="#000000">last_time    </text>
<text text-anchor="start" x="360.2076" y="-1763.9" font-family="Arial" font-size="14.00" fill="#666666">[datetime]</text>
<polygon fill="none" stroke="#000000" points="263,-1722.5 263,-1752.5 594,-1752.5 594,-1722.5 263,-1722.5"/>
<text text-anchor="start" x="270" y="-1733.9" font-family="Arial" font-size="14.00" fill="#000000">transfer_method    </text>
<text text-anchor="start" x="406.1192" y="-1733.9" font-family="Arial" font-size="14.00" fill="#666666">[smallint(6)]</text>
<polygon fill="none" stroke="#000000" points="263,-1692.5 263,-1722.5 594,-1722.5 594,-1692.5 263,-1692.5"/>
<text text-anchor="start" x="270" y="-1703.9" font-family="Arial" font-size="14.00" fill="#000000">price_total    </text>
<text text-anchor="start" x="368.7728" y="-1703.9" font-family="Arial" font-size="14.00" fill="#666666">[int(11) unsigned]</text>
<polygon fill="none" stroke="#000000" points="263,-1662.5 263,-1692.5 594,-1692.5 594,-1662.5 263,-1662.5"/>
<text text-anchor="start" x="270" y="-1673.9" font-family="Arial" font-size="14.00" fill="#000000">price_total_without_tax    </text>
<text text-anchor="start" x="447.3534" y="-1673.9" font-family="Arial" font-size="14.00" fill="#666666">[int(11) unsigned]</text>
<polygon fill="none" stroke="#000000" points="263,-1632.5 263,-1662.5 594,-1662.5 594,-1632.5 263,-1632.5"/>
<text text-anchor="start" x="270" y="-1643.9" font-family="Arial" font-size="14.00" fill="#000000">price_discount    </text>
<text text-anchor="start" x="394.4474" y="-1643.9" font-family="Arial" font-size="14.00" fill="#666666">[int(11) unsigned]</text>
<polygon fill="none" stroke="#000000" points="263,-1602.5 263,-1632.5 594,-1632.5 594,-1602.5 263,-1602.5"/>
<text text-anchor="start" x="270" y="-1613.9" font-family="Arial" font-size="14.00" fill="#000000">price_room    </text>
<text text-anchor="start" x="374.2062" y="-1613.9" font-family="Arial" font-size="14.00" fill="#666666">[int(11) unsigned]</text>
<polygon fill="none" stroke="#000000" points="263,-1572.5 263,-1602.5 594,-1602.5 594,-1572.5 263,-1572.5"/>
<text text-anchor="start" x="270" y="-1583.9" font-family="Arial" font-size="14.00" fill="#000000">price_room_without_tax    </text>
<text text-anchor="start" x="452.7868" y="-1583.9" font-family="Arial" font-size="14.00" fill="#666666">[int(11) unsigned]</text>
<polygon fill="none" stroke="#000000" points="263,-1542.5 263,-1572.5 594,-1572.5 594,-1542.5 263,-1542.5"/>
<text text-anchor="start" x="270" y="-1553.9" font-family="Arial" font-size="14.00" fill="#000000">price_room_tax    </text>
<text text-anchor="start" x="400.662" y="-1553.9" font-family="Arial" font-size="14.00" fill="#666666">[int(11) unsigned]</text>
<polygon fill="none" stroke="#000000" points="263,-1512.5 263,-1542.5 594,-1542.5 594,-1512.5 263,-1512.5"/>
<text text-anchor="start" x="270" y="-1523.9" font-family="Arial" font-size="14.00" fill="#000000">price_tax    </text>
<text text-anchor="start" x="360.993" y="-1523.9" font-family="Arial" font-size="14.00" fill="#666666">[int(11) unsigned]</text>
<polygon fill="none" stroke="#000000" points="263,-1482.5 263,-1512.5 594,-1512.5 594,-1482.5 263,-1482.5"/>
<text text-anchor="start" x="270" y="-1493.9" font-family="Arial" font-size="14.00" fill="#000000">price_cancel    </text>
<text text-anchor="start" x="382.7742" y="-1493.9" font-family="Arial" font-size="14.00" fill="#666666">[int(11) unsigned]</text>
<polygon fill="none" stroke="#000000" points="263,-1452.5 263,-1482.5 594,-1482.5 594,-1452.5 263,-1452.5"/>
<text text-anchor="start" x="270" y="-1463.9" font-family="Arial" font-size="14.00" fill="#000000">discount_rate    </text>
<text text-anchor="start" x="388.2314" y="-1463.9" font-family="Arial" font-size="14.00" fill="#666666">[int(11)]</text>
<polygon fill="none" stroke="#000000" points="263,-1422.5 263,-1452.5 594,-1452.5 594,-1422.5 263,-1422.5"/>
<text text-anchor="start" x="270" y="-1433.9" font-family="Arial" font-size="14.00" fill="#000000">discount_name    </text>
<text text-anchor="start" x="399.1234" y="-1433.9" font-family="Arial" font-size="14.00" fill="#666666">[varchar(255)]</text>
<polygon fill="none" stroke="#000000" points="263,-1392.5 263,-1422.5 594,-1422.5 594,-1392.5 263,-1392.5"/>
<text text-anchor="start" x="270" y="-1403.9" font-family="Arial" font-size="14.00" fill="#000000">tax_rate    </text>
<text text-anchor="start" x="354.777" y="-1403.9" font-family="Arial" font-size="14.00" fill="#666666">[tinyint(4)]</text>
<polygon fill="none" stroke="#000000" points="263,-1362.5 263,-1392.5 594,-1392.5 594,-1362.5 263,-1362.5"/>
<text text-anchor="start" x="270" y="-1373.9" font-family="Arial" font-size="14.00" fill="#000000">group_id    </text>
<text text-anchor="start" x="358.6676" y="-1373.9" font-family="Arial" font-size="14.00" fill="#666666">[int(11) unsigned]</text>
<polygon fill="none" stroke="#000000" points="263,-1332.5 263,-1362.5 594,-1362.5 594,-1332.5 263,-1332.5"/>
<text text-anchor="start" x="270" y="-1343.9" font-family="Arial" font-size="14.00" fill="#000000">purpose    </text>
<text text-anchor="start" x="354.7784" y="-1343.9" font-family="Arial" font-size="14.00" fill="#666666">[varchar(255)]</text>
<polygon fill="none" stroke="#000000" points="263,-1302.5 263,-1332.5 594,-1332.5 594,-1302.5 263,-1302.5"/>
<text text-anchor="start" x="270" y="-1313.9" font-family="Arial" font-size="14.00" fill="#000000">created    </text>
<text text-anchor="start" x="350.8864" y="-1313.9" font-family="Arial" font-size="14.00" fill="#666666">[datetime]</text>
<polygon fill="none" stroke="#000000" points="263,-1272.5 263,-1302.5 594,-1302.5 594,-1272.5 263,-1272.5"/>
<text text-anchor="start" x="270" y="-1283.9" font-family="Arial" font-size="14.00" fill="#000000">modified    </text>
<text text-anchor="start" x="357.0996" y="-1283.9" font-family="Arial" font-size="14.00" fill="#666666">[datetime]</text>
<polygon fill="none" stroke="#000000" points="263,-1242.5 263,-1272.5 594,-1272.5 594,-1242.5 263,-1242.5"/>
<text text-anchor="start" x="270" y="-1253.9" font-family="Arial" font-size="14.00" fill="#000000">receipt_no    </text>
<text text-anchor="start" x="369.5582" y="-1253.9" font-family="Arial" font-size="14.00" fill="#666666">[varchar(32)]</text>
<polygon fill="none" stroke="#000000" points="263,-1212.5 263,-1242.5 594,-1242.5 594,-1212.5 263,-1212.5"/>
<text text-anchor="start" x="270" y="-1223.9" font-family="Arial" font-size="14.00" fill="#000000">receipt_password    </text>
<text text-anchor="start" x="413.8906" y="-1223.9" font-family="Arial" font-size="14.00" fill="#666666">[varchar(32)]</text>
<polygon fill="none" stroke="#000000" points="263,-1182.5 263,-1212.5 594,-1212.5 594,-1182.5 263,-1182.5"/>
<text text-anchor="start" x="270" y="-1193.9" font-family="Arial" font-size="14.00" fill="#000000">creditcard_brand    </text>
<text text-anchor="start" x="409.2272" y="-1193.9" font-family="Arial" font-size="14.00" fill="#666666">[int(10) unsigned]</text>
<polygon fill="none" stroke="#000000" points="263,-1152.5 263,-1182.5 594,-1182.5 594,-1152.5 263,-1152.5"/>
<text text-anchor="start" x="270" y="-1163.9" font-family="Arial" font-size="14.00" fill="#000000">auto_cancel    </text>
<text text-anchor="start" x="379.6802" y="-1163.9" font-family="Arial" font-size="14.00" fill="#666666">[tinyint(1)]</text>
<polygon fill="none" stroke="#000000" points="263,-1122.5 263,-1152.5 594,-1152.5 594,-1122.5 263,-1122.5"/>
<text text-anchor="start" x="270" y="-1133.9" font-family="Arial" font-size="14.00" fill="#000000">send_remind_mail    </text>
<text text-anchor="start" x="418.5498" y="-1133.9" font-family="Arial" font-size="14.00" fill="#666666">[tinyint(1)]</text>
<polygon fill="none" stroke="#000000" points="263,-1092.5 263,-1122.5 594,-1122.5 594,-1092.5 263,-1092.5"/>
<text text-anchor="start" x="270" y="-1103.9" font-family="Arial" font-size="14.00" fill="#000000">include_tax    </text>
<text text-anchor="start" x="375.0042" y="-1103.9" font-family="Arial" font-size="14.00" fill="#666666">[tinyint(1)]</text>
<polygon fill="none" stroke="#000000" points="263,-1062.5 263,-1092.5 594,-1092.5 594,-1062.5 263,-1062.5"/>
<text text-anchor="start" x="270" y="-1073.9" font-family="Arial" font-size="14.00" fill="#000000">extend_reserve_id    </text>
<text text-anchor="start" x="419.3492" y="-1073.9" font-family="Arial" font-size="14.00" fill="#666666">[int(11) unsigned]</text>
<polygon fill="none" stroke="#000000" points="263,-1032.5 263,-1062.5 594,-1062.5 594,-1032.5 263,-1032.5"/>
<text text-anchor="start" x="270" y="-1043.9" font-family="Arial" font-size="14.00" fill="#000000">tentative_limit    </text>
<text text-anchor="start" x="389.7672" y="-1043.9" font-family="Arial" font-size="14.00" fill="#666666">[datetime]</text>
<polygon fill="none" stroke="#000000" points="263,-1002.5 263,-1032.5 594,-1032.5 594,-1002.5 263,-1002.5"/>
<text text-anchor="start" x="270" y="-1013.9" font-family="Arial" font-size="14.00" fill="#000000">is_bank_transfer_first_extend    </text>
<text text-anchor="start" x="487.8092" y="-1013.9" font-family="Arial" font-size="14.00" fill="#666666">[int(11)]</text>
<polygon fill="none" stroke="#000000" points="263,-972.5 263,-1002.5 594,-1002.5 594,-972.5 263,-972.5"/>
<text text-anchor="start" x="270" y="-983.9" font-family="Arial" font-size="14.00" fill="#000000">memo    </text>
<text text-anchor="start" x="343.0912" y="-983.9" font-family="Arial" font-size="14.00" fill="#666666">[varchar(1000)]</text>
<polygon fill="none" stroke="#000000" points="263,-942.5 263,-972.5 594,-972.5 594,-942.5 263,-942.5"/>
<text text-anchor="start" x="270" y="-953.9" font-family="Arial" font-size="14.00" fill="#000000">memo_owner    </text>
<text text-anchor="start" x="388.9888" y="-953.9" font-family="Arial" font-size="14.00" fill="#666666">[varchar(1000)]</text>
<polygon fill="none" stroke="#000000" points="263,-912.5 263,-942.5 594,-942.5 594,-912.5 263,-912.5"/>
<text text-anchor="start" x="270" y="-923.9" font-family="Arial" font-size="14.00" fill="#000000">owner_memo    </text>
<text text-anchor="start" x="388.9888" y="-923.9" font-family="Arial" font-size="14.00" fill="#666666">[varchar(1000)]</text>
<polygon fill="none" stroke="#000000" points="263,-882.5 263,-912.5 594,-912.5 594,-882.5 263,-882.5"/>
<text text-anchor="start" x="270" y="-893.9" font-family="Arial" font-size="14.00" fill="#000000">cancellation_note    </text>
<text text-anchor="start" x="413.1318" y="-893.9" font-family="Arial" font-size="14.00" fill="#666666">[varchar(1000)]</text>
<polygon fill="none" stroke="#000000" points="263,-852.5 263,-882.5 594,-882.5 594,-852.5 263,-852.5"/>
<text text-anchor="start" x="270" y="-863.9" font-family="Arial" font-size="14.00" fill="#000000">autolock_progress    </text>
<text text-anchor="start" x="418.5666" y="-863.9" font-family="Arial" font-size="14.00" fill="#666666">[tinyint(4)]</text>
<polygon fill="none" stroke="#000000" points="263,-822.5 263,-852.5 594,-852.5 594,-822.5 263,-822.5"/>
<text text-anchor="start" x="270" y="-833.9" font-family="Arial" font-size="14.00" fill="#000000">is_waitlist    </text>
<text text-anchor="start" x="364.0842" y="-833.9" font-family="Arial" font-size="14.00" fill="#666666">[tinyint(1)]</text>
<polygon fill="none" stroke="#000000" points="263,-792.5 263,-822.5 594,-822.5 594,-792.5 263,-792.5"/>
<text text-anchor="start" x="270" y="-803.9" font-family="Arial" font-size="14.00" fill="#000000">customer_name    </text>
<text text-anchor="start" x="404.5554" y="-803.9" font-family="Arial" font-size="14.00" fill="#666666">[varchar(200)]</text>
<polygon fill="none" stroke="#000000" points="263,-762.5 263,-792.5 594,-792.5 594,-762.5 263,-762.5"/>
<text text-anchor="start" x="270" y="-773.9" font-family="Arial" font-size="14.00" fill="#000000">customer_tel    </text>
<text text-anchor="start" x="384.3268" y="-773.9" font-family="Arial" font-size="14.00" fill="#666666">[varchar(13)]</text>
<polygon fill="none" stroke="#000000" points="263,-732.5 263,-762.5 594,-762.5 594,-732.5 263,-732.5"/>
<text text-anchor="start" x="270" y="-743.9" font-family="Arial" font-size="14.00" fill="#000000">customer_mail    </text>
<text text-anchor="start" x="395.2034" y="-743.9" font-family="Arial" font-size="14.00" fill="#666666">[varchar(255)]</text>
<polygon fill="none" stroke="#000000" points="263,-702.5 263,-732.5 594,-732.5 594,-702.5 263,-702.5"/>
<text text-anchor="start" x="270" y="-713.9" font-family="Arial" font-size="14.00" fill="#000000">sales_charge    </text>
<text text-anchor="start" x="387.4502" y="-713.9" font-family="Arial" font-size="14.00" fill="#666666">[varchar(200)]</text>
<polygon fill="none" stroke="#000000" points="263,-672.5 263,-702.5 594,-702.5 594,-672.5 263,-672.5"/>
<text text-anchor="start" x="270" y="-683.9" font-family="Arial" font-size="14.00" fill="#000000">assistant    </text>
<text text-anchor="start" x="359.4404" y="-683.9" font-family="Arial" font-size="14.00" fill="#666666">[varchar(200)]</text>
<polygon fill="none" stroke="#000000" points="263,-642.5 263,-672.5 594,-672.5 594,-642.5 263,-642.5"/>
<text text-anchor="start" x="270" y="-653.9" font-family="Arial" font-size="14.00" fill="#000000">subscriber    </text>
<text text-anchor="start" x="368.763" y="-653.9" font-family="Arial" font-size="14.00" fill="#666666">[varchar(200)]</text>
<polygon fill="none" stroke="#000000" points="263,-612.5 263,-642.5 594,-642.5 594,-612.5 263,-612.5"/>
<text text-anchor="start" x="270" y="-623.9" font-family="Arial" font-size="14.00" fill="#000000">meeting_name    </text>
<text text-anchor="start" x="396.784" y="-623.9" font-family="Arial" font-size="14.00" fill="#666666">[varchar(200)]</text>
<polygon fill="none" stroke="#000000" points="263,-582.5 263,-612.5 594,-612.5 594,-582.5 263,-582.5"/>
<text text-anchor="start" x="270" y="-593.9" font-family="Arial" font-size="14.00" fill="#000000">industry    </text>
<text text-anchor="start" x="353.2104" y="-593.9" font-family="Arial" font-size="14.00" fill="#666666">[smallint(6)]</text>
<polygon fill="none" stroke="#000000" points="263,-552.5 263,-582.5 594,-582.5 594,-552.5 263,-552.5"/>
<text text-anchor="start" x="270" y="-563.9" font-family="Arial" font-size="14.00" fill="#000000">persons    </text>
<text text-anchor="start" x="353.9958" y="-563.9" font-family="Arial" font-size="14.00" fill="#666666">[smallint(6)]</text>
<polygon fill="none" stroke="#000000" points="263,-522.5 263,-552.5 594,-552.5 594,-522.5 263,-522.5"/>
<text text-anchor="start" x="270" y="-533.9" font-family="Arial" font-size="14.00" fill="#000000">accuracy    </text>
<text text-anchor="start" x="360.2132" y="-533.9" font-family="Arial" font-size="14.00" fill="#666666">[varchar(10)]</text>
<polygon fill="none" stroke="#000000" points="263,-492.5 263,-522.5 594,-522.5 594,-492.5 263,-492.5"/>
<text text-anchor="start" x="270" y="-503.9" font-family="Arial" font-size="14.00" fill="#000000">parent_reserve_id    </text>
<text text-anchor="start" x="417.0098" y="-503.9" font-family="Arial" font-size="14.00" fill="#666666">[int(11)]</text>
<polygon fill="none" stroke="#000000" points="263,-462.5 263,-492.5 594,-492.5 594,-462.5 263,-462.5"/>
<text text-anchor="start" x="270" y="-473.9" font-family="Arial" font-size="14.00" fill="#000000">is_thankyou_mail    </text>
<text text-anchor="start" x="412.3366" y="-473.9" font-family="Arial" font-size="14.00" fill="#666666">[tinyint(1)]</text>
<polygon fill="none" stroke="#000000" points="263,-432.5 263,-462.5 594,-462.5 594,-432.5 263,-432.5"/>
<text text-anchor="start" x="270" y="-443.9" font-family="Arial" font-size="14.00" fill="#000000">approve_state    </text>
<text text-anchor="start" x="392.9074" y="-443.9" font-family="Arial" font-size="14.00" fill="#666666">[char(1)]</text>
<polygon fill="none" stroke="#000000" points="263,-402.5 263,-432.5 594,-432.5 594,-402.5 263,-402.5"/>
<text text-anchor="start" x="270" y="-413.9" font-family="Arial" font-size="14.00" fill="#000000">layout_name    </text>
<text text-anchor="start" x="384.3408" y="-413.9" font-family="Arial" font-size="14.00" fill="#666666">[varchar(200)]</text>
<polygon fill="none" stroke="#000000" points="263,-372.5 263,-402.5 594,-402.5 594,-372.5 263,-372.5"/>
<text text-anchor="start" x="270" y="-383.9" font-family="Arial" font-size="14.00" fill="#000000">is_reservation_reminder_mail_sent    </text>
<text text-anchor="start" x="522.0042" y="-383.9" font-family="Arial" font-size="14.00" fill="#666666">[tinyint(1)]</text>
<polygon fill="none" stroke="#000000" points="263,-342.5 263,-372.5 594,-372.5 594,-342.5 263,-342.5"/>
<text text-anchor="start" x="269.8275" y="-353.9" font-family="Arial" font-size="14.00" fill="#000000">is_remotelock_password_mail_sent    </text>
<text text-anchor="start" x="525.7279" y="-353.9" font-family="Arial" font-size="14.00" fill="#666666">[tinyint(1)]</text>
<polygon fill="none" stroke="#000000" points="263,-312.5 263,-342.5 594,-342.5 594,-312.5 263,-312.5"/>
<text text-anchor="start" x="270" y="-323.9" font-family="Arial" font-size="14.00" fill="#000000">sent_remotelock_password_mail    </text>
<text text-anchor="start" x="508.0112" y="-323.9" font-family="Arial" font-size="14.00" fill="#666666">[tinyint(1)]</text>
<polygon fill="none" stroke="#000000" points="263,-282.5 263,-312.5 594,-312.5 594,-282.5 263,-282.5"/>
<text text-anchor="start" x="270" y="-293.9" font-family="Arial" font-size="14.00" fill="#000000">request_price_room_to_free    </text>
<text text-anchor="start" x="480.0252" y="-293.9" font-family="Arial" font-size="14.00" fill="#666666">[tinyint(1)]</text>
<polygon fill="none" stroke="#000000" points="263,-252.5 263,-282.5 594,-282.5 594,-252.5 263,-252.5"/>
<text text-anchor="start" x="270" y="-263.9" font-family="Arial" font-size="14.00" fill="#000000">is_changed_price_to_free    </text>
<text text-anchor="start" x="465.2594" y="-263.9" font-family="Arial" font-size="14.00" fill="#666666">[tinyint(1)]</text>
<polygon fill="none" stroke="#000000" points="263,-222.5 263,-252.5 594,-252.5 594,-222.5 263,-222.5"/>
<text text-anchor="start" x="270" y="-233.9" font-family="Arial" font-size="14.00" fill="#000000">usage_type    </text>
<text text-anchor="start" x="376.5736" y="-233.9" font-family="Arial" font-size="14.00" fill="#666666">[tinyint(2)]</text>
<polygon fill="none" stroke="#000000" points="263,-192.5 263,-222.5 594,-222.5 594,-192.5 263,-192.5"/>
<text text-anchor="start" x="270" y="-203.9" font-family="Arial" font-size="14.00" fill="#000000">customer_address    </text>
<text text-anchor="start" x="419.338" y="-203.9" font-family="Arial" font-size="14.00" fill="#666666">[text]</text>
<polygon fill="none" stroke="#000000" points="263,-162.5 263,-192.5 594,-192.5 594,-162.5 263,-162.5"/>
<text text-anchor="start" x="270" y="-173.9" font-family="Arial" font-size="14.00" fill="#000000">customer_department_name    </text>
<text text-anchor="start" x="483.136" y="-173.9" font-family="Arial" font-size="14.00" fill="#666666">[varchar(255)]</text>
<polygon fill="none" stroke="#000000" points="263,-132.5 263,-162.5 594,-162.5 594,-132.5 263,-132.5"/>
<text text-anchor="start" x="270" y="-143.9" font-family="Arial" font-size="14.00" fill="#000000">mynavi_persons    </text>
<text text-anchor="start" x="406.1108" y="-143.9" font-family="Arial" font-size="14.00" fill="#666666">[varchar(255)]</text>
<polygon fill="none" stroke="#000000" points="263,-102.5 263,-132.5 594,-132.5 594,-102.5 263,-102.5"/>
<text text-anchor="start" x="270" y="-113.9" font-family="Arial" font-size="14.00" fill="#000000">mynavi_job_request_number    </text>
<text text-anchor="start" x="484.69" y="-113.9" font-family="Arial" font-size="14.00" fill="#666666">[varchar(8)]</text>
<polygon fill="none" stroke="#000000" points="263,-72.5 263,-102.5 594,-102.5 594,-72.5 263,-72.5"/>
<text text-anchor="start" x="270" y="-83.9" font-family="Arial" font-size="14.00" fill="#000000">delivery    </text>
<text text-anchor="start" x="352.4264" y="-83.9" font-family="Arial" font-size="14.00" fill="#666666">[tinyint(2)]</text>
<polygon fill="none" stroke="#000000" points="263,-42.5 263,-72.5 594,-72.5 594,-42.5 263,-42.5"/>
<text text-anchor="start" x="270" y="-53.9" font-family="Arial" font-size="14.00" fill="#000000">custom_reserve_items_detail    </text>
<text text-anchor="start" x="486.23" y="-53.9" font-family="Arial" font-size="14.00" fill="#666666">[text]</text>
</g>
<!-- sk_reserve_fittings&#45;&gt;sk_reserves -->
<g id="edge1" class="edge">
<title>sk_reserve_fittings:reserve_id&#45;&gt;sk_reserves:id</title>
<path fill="none" stroke="#000000" d="M272.8886,-2375.7166C192.6039,-2346.8604 177.4766,-1977.5 263,-1977.5"/>
<polygon fill="#000000" stroke="#000000" points="273.152,-2375.763 282.2184,-2381.9316 278.076,-2376.6315 283,-2377.5 283,-2377.5 283,-2377.5 278.076,-2376.6315 283.7816,-2373.0684 273.152,-2375.763 273.152,-2375.763"/>
<text text-anchor="start" x="7.2775" y="-2387.5" font-family="Arial" font-size="10.00" fill="#000000">FOREIGN KEY (reserve_id) REFERENCES sk_reserves (id)</text>
</g>
</g>
</svg>
