<?xml version="1.0" encoding="UTF-8" standalone="no"?>
<!DOCTYPE svg PUBLIC "-//W3C//DTD SVG 1.1//EN"
 "http://www.w3.org/Graphics/SVG/1.1/DTD/svg11.dtd">
<!-- Generated by graphviz version 2.40.1 (20161225.0304)
 -->
<!-- Title: sk_room_reserves_calendars Pages: 1 -->
<svg width="992pt" height="2272pt"
 viewBox="0.00 0.00 992.00 2272.00" xmlns="http://www.w3.org/2000/svg" xmlns:xlink="http://www.w3.org/1999/xlink">
<g id="graph0" class="graph" transform="scale(1 1) rotate(0) translate(4 2268)">
<title>sk_room_reserves_calendars</title>
<polygon fill="#ffffff" stroke="transparent" points="-4,4 -4,-2268 988,-2268 988,4 -4,4"/>
<!-- sk_room_reserves_calendars -->
<g id="node1" class="node">
<title>sk_room_reserves_calendars</title>
<polygon fill="#efefef" stroke="transparent" points="345,-2182.5 345,-2217.5 722,-2217.5 722,-2182.5 345,-2182.5"/>
<polygon fill="none" stroke="#000000" points="345,-2182.5 345,-2217.5 722,-2217.5 722,-2182.5 345,-2182.5"/>
<text text-anchor="start" x="351.6981" y="-2195.3" font-family="Arial Bold" font-size="18.00" fill="#000000">sk_room_reserves_calendars</text>
<text text-anchor="start" x="587.7339" y="-2195.3" font-family="Arial" font-size="14.00" fill="#000000">    </text>
<text text-anchor="start" x="621.9387" y="-2195.3" font-family="Arial" font-size="14.00" fill="#666666">[BASE TABLE]</text>
<polygon fill="none" stroke="#000000" points="345,-2152.5 345,-2182.5 722,-2182.5 722,-2152.5 345,-2152.5"/>
<text text-anchor="start" x="352" y="-2163.9" font-family="Arial" font-size="14.00" fill="#000000">id </text>
<text text-anchor="start" x="366.7798" y="-2163.9" font-family="Arial" font-size="14.00" fill="#666666">[int(11) unsigned]</text>
<polygon fill="none" stroke="#000000" points="345,-2122.5 345,-2152.5 722,-2152.5 722,-2122.5 345,-2122.5"/>
<text text-anchor="start" x="352" y="-2133.9" font-family="Arial" font-size="14.00" fill="#000000">calendar_id </text>
<text text-anchor="start" x="428.2426" y="-2133.9" font-family="Arial" font-size="14.00" fill="#666666">[varchar(100)]</text>
<polygon fill="none" stroke="#000000" points="345,-2092.5 345,-2122.5 722,-2122.5 722,-2092.5 345,-2092.5"/>
<text text-anchor="start" x="352" y="-2103.9" font-family="Arial" font-size="14.00" fill="#000000">calendar_token_id </text>
<text text-anchor="start" x="470.2636" y="-2103.9" font-family="Arial" font-size="14.00" fill="#666666">[int(11) unsigned]</text>
<polygon fill="none" stroke="#000000" points="345,-2062.5 345,-2092.5 722,-2092.5 722,-2062.5 345,-2062.5"/>
<text text-anchor="start" x="352" y="-2073.9" font-family="Arial" font-size="14.00" fill="#000000">room_id </text>
<text text-anchor="start" x="406.4488" y="-2073.9" font-family="Arial" font-size="14.00" fill="#666666">[int(11) unsigned]</text>
<polygon fill="none" stroke="#000000" points="345,-2032.5 345,-2062.5 722,-2062.5 722,-2032.5 345,-2032.5"/>
<text text-anchor="start" x="352" y="-2043.9" font-family="Arial" font-size="14.00" fill="#000000">calendar_action_type </text>
<text text-anchor="start" x="488.9368" y="-2043.9" font-family="Arial" font-size="14.00" fill="#666666">[int(11)]</text>
<polygon fill="none" stroke="#000000" points="345,-2002.5 345,-2032.5 722,-2032.5 722,-2002.5 345,-2002.5"/>
<text text-anchor="start" x="352" y="-2013.9" font-family="Arial" font-size="14.00" fill="#000000">is_include_buffer_for_export </text>
<text text-anchor="start" x="532.4936" y="-2013.9" font-family="Arial" font-size="14.00" fill="#666666">[tinyint(1)]</text>
<polygon fill="none" stroke="#000000" points="345,-1972.5 345,-2002.5 722,-2002.5 722,-1972.5 345,-1972.5"/>
<text text-anchor="start" x="352" y="-1983.9" font-family="Arial" font-size="14.00" fill="#000000">calendar_name </text>
<text text-anchor="start" x="452.3618" y="-1983.9" font-family="Arial" font-size="14.00" fill="#666666">[varchar(255)]</text>
<polygon fill="none" stroke="#000000" stroke-width="3" points="343,-1971.5 343,-2219.5 723,-2219.5 723,-1971.5 343,-1971.5"/>
</g>
<!-- sk_google_tokens -->
<g id="node2" class="node">
<title>sk_google_tokens</title>
<polygon fill="#efefef" stroke="transparent" points="190,-987.5 190,-1022.5 476,-1022.5 476,-987.5 190,-987.5"/>
<polygon fill="none" stroke="#000000" points="190,-987.5 190,-1022.5 476,-1022.5 476,-987.5 190,-987.5"/>
<text text-anchor="start" x="196.6868" y="-1000.3" font-family="Arial Bold" font-size="18.00" fill="#000000">sk_google_tokens</text>
<text text-anchor="start" x="341.7452" y="-1000.3" font-family="Arial" font-size="14.00" fill="#000000">    </text>
<text text-anchor="start" x="375.95" y="-1000.3" font-family="Arial" font-size="14.00" fill="#666666">[BASE TABLE]</text>
<polygon fill="none" stroke="#000000" points="190,-957.5 190,-987.5 476,-987.5 476,-957.5 190,-957.5"/>
<text text-anchor="start" x="197" y="-968.9" font-family="Arial" font-size="14.00" fill="#000000">id    </text>
<text text-anchor="start" x="242.094" y="-968.9" font-family="Arial" font-size="14.00" fill="#666666">[int(11) unsigned]</text>
<polygon fill="none" stroke="#000000" points="190,-927.5 190,-957.5 476,-957.5 476,-927.5 190,-927.5"/>
<text text-anchor="start" x="197" y="-938.9" font-family="Arial" font-size="14.00" fill="#000000">refresh_token    </text>
<text text-anchor="start" x="316.7854" y="-938.9" font-family="Arial" font-size="14.00" fill="#666666">[varchar(255)]</text>
<polygon fill="none" stroke="#000000" points="190,-897.5 190,-927.5 476,-927.5 476,-897.5 190,-897.5"/>
<text text-anchor="start" x="197" y="-908.9" font-family="Arial" font-size="14.00" fill="#000000">email    </text>
<text text-anchor="start" x="264.6438" y="-908.9" font-family="Arial" font-size="14.00" fill="#666666">[varchar(255)]</text>
<polygon fill="none" stroke="#000000" points="190,-867.5 190,-897.5 476,-897.5 476,-867.5 190,-867.5"/>
<text text-anchor="start" x="197" y="-878.9" font-family="Arial" font-size="14.00" fill="#000000">user_id    </text>
<text text-anchor="start" x="277.1024" y="-878.9" font-family="Arial" font-size="14.00" fill="#666666">[int(11) unsigned]</text>
</g>
<!-- sk_room_reserves_calendars&#45;&gt;sk_google_tokens -->
<g id="edge1" class="edge">
<title>sk_room_reserves_calendars:calendar_token_id&#45;&gt;sk_google_tokens:id</title>
<path fill="none" stroke="#000000" d="M335.1347,-2104.6345C240.1649,-2041.9703 599.2291,-972.5 476,-972.5"/>
<polygon fill="#000000" stroke="#000000" points="335.3969,-2104.7106 343.7448,-2111.8214 340.1984,-2106.1053 345,-2107.5 345,-2107.5 345,-2107.5 340.1984,-2106.1053 346.2552,-2103.1786 335.3969,-2104.7106 335.3969,-2104.7106"/>
<text text-anchor="start" x="7.419" y="-2117.5" font-family="Arial" font-size="10.00" fill="#000000">FOREIGN KEY (calendar_token_id) REFERENCES sk_google_tokens (id)</text>
</g>
<!-- sk_rooms -->
<g id="node3" class="node">
<title>sk_rooms</title>
<polygon fill="#efefef" stroke="transparent" points="580,-1812.5 580,-1847.5 892,-1847.5 892,-1812.5 580,-1812.5"/>
<polygon fill="none" stroke="#000000" points="580,-1812.5 580,-1847.5 892,-1847.5 892,-1812.5 580,-1812.5"/>
<text text-anchor="start" x="633.2145" y="-1825.3" font-family="Arial Bold" font-size="18.00" fill="#000000">sk_rooms</text>
<text text-anchor="start" x="711.2175" y="-1825.3" font-family="Arial" font-size="14.00" fill="#000000">    </text>
<text text-anchor="start" x="745.4223" y="-1825.3" font-family="Arial" font-size="14.00" fill="#666666">[BASE TABLE]</text>
<polygon fill="none" stroke="#000000" points="580,-1782.5 580,-1812.5 892,-1812.5 892,-1782.5 580,-1782.5"/>
<text text-anchor="start" x="587" y="-1793.9" font-family="Arial" font-size="14.00" fill="#000000">id    </text>
<text text-anchor="start" x="632.094" y="-1793.9" font-family="Arial" font-size="14.00" fill="#666666">[int(11) unsigned]</text>
<polygon fill="none" stroke="#000000" points="580,-1752.5 580,-1782.5 892,-1782.5 892,-1752.5 580,-1752.5"/>
<text text-anchor="start" x="587" y="-1763.9" font-family="Arial" font-size="14.00" fill="#000000">is_deleted    </text>
<text text-anchor="start" x="685.0042" y="-1763.9" font-family="Arial" font-size="14.00" fill="#666666">[tinyint(1)]</text>
<polygon fill="none" stroke="#000000" points="580,-1722.5 580,-1752.5 892,-1752.5 892,-1722.5 580,-1722.5"/>
<text text-anchor="start" x="587" y="-1733.9" font-family="Arial" font-size="14.00" fill="#000000">is_public    </text>
<text text-anchor="start" x="675.655" y="-1733.9" font-family="Arial" font-size="14.00" fill="#666666">[tinyint(1)]</text>
<polygon fill="none" stroke="#000000" points="580,-1692.5 580,-1722.5 892,-1722.5 892,-1692.5 580,-1692.5"/>
<text text-anchor="start" x="587" y="-1703.9" font-family="Arial" font-size="14.00" fill="#000000">is_set    </text>
<text text-anchor="start" x="657.7672" y="-1703.9" font-family="Arial" font-size="14.00" fill="#666666">[tinyint(1)]</text>
<polygon fill="none" stroke="#000000" points="580,-1662.5 580,-1692.5 892,-1692.5 892,-1662.5 580,-1662.5"/>
<text text-anchor="start" x="587" y="-1673.9" font-family="Arial" font-size="14.00" fill="#000000">property_id    </text>
<text text-anchor="start" x="691.2188" y="-1673.9" font-family="Arial" font-size="14.00" fill="#666666">[int(11) unsigned]</text>
<polygon fill="none" stroke="#000000" points="580,-1632.5 580,-1662.5 892,-1662.5 892,-1632.5 580,-1632.5"/>
<text text-anchor="start" x="587" y="-1643.9" font-family="Arial" font-size="14.00" fill="#000000">lessor_id    </text>
<text text-anchor="start" x="677.209" y="-1643.9" font-family="Arial" font-size="14.00" fill="#666666">[int(11) unsigned]</text>
<polygon fill="none" stroke="#000000" points="580,-1602.5 580,-1632.5 892,-1632.5 892,-1602.5 580,-1602.5"/>
<text text-anchor="start" x="587" y="-1613.9" font-family="Arial" font-size="14.00" fill="#000000">name    </text>
<text text-anchor="start" x="656.2132" y="-1613.9" font-family="Arial" font-size="14.00" fill="#666666">[varchar(200)]</text>
<polygon fill="none" stroke="#000000" points="580,-1572.5 580,-1602.5 892,-1602.5 892,-1572.5 580,-1572.5"/>
<text text-anchor="start" x="587" y="-1583.9" font-family="Arial" font-size="14.00" fill="#000000">voice_name    </text>
<text text-anchor="start" x="696.6676" y="-1583.9" font-family="Arial" font-size="14.00" fill="#666666">[varchar(200)]</text>
<polygon fill="none" stroke="#000000" points="580,-1542.5 580,-1572.5 892,-1572.5 892,-1542.5 580,-1542.5"/>
<text text-anchor="start" x="587" y="-1553.9" font-family="Arial" font-size="14.00" fill="#000000">description_url    </text>
<text text-anchor="start" x="712.2146" y="-1553.9" font-family="Arial" font-size="14.00" fill="#666666">[varchar(1000)]</text>
<polygon fill="none" stroke="#000000" points="580,-1512.5 580,-1542.5 892,-1542.5 892,-1512.5 580,-1512.5"/>
<text text-anchor="start" x="587" y="-1523.9" font-family="Arial" font-size="14.00" fill="#000000">exclusive_area    </text>
<text text-anchor="start" x="714.5568" y="-1523.9" font-family="Arial" font-size="14.00" fill="#666666">[decimal(10,2)]</text>
<polygon fill="none" stroke="#000000" points="580,-1482.5 580,-1512.5 892,-1512.5 892,-1482.5 580,-1482.5"/>
<text text-anchor="start" x="587" y="-1493.9" font-family="Arial" font-size="14.00" fill="#000000">ceiling_height    </text>
<text text-anchor="start" x="706.7826" y="-1493.9" font-family="Arial" font-size="14.00" fill="#666666">[decimal(10,2)]</text>
<polygon fill="none" stroke="#000000" points="580,-1452.5 580,-1482.5 892,-1482.5 892,-1452.5 580,-1452.5"/>
<text text-anchor="start" x="587" y="-1463.9" font-family="Arial" font-size="14.00" fill="#000000">floor    </text>
<text text-anchor="start" x="648.4278" y="-1463.9" font-family="Arial" font-size="14.00" fill="#666666">[smallint(5)]</text>
<polygon fill="none" stroke="#000000" points="580,-1422.5 580,-1452.5 892,-1452.5 892,-1422.5 580,-1422.5"/>
<text text-anchor="start" x="587" y="-1433.9" font-family="Arial" font-size="14.00" fill="#000000">minimum_time    </text>
<text text-anchor="start" x="712.188" y="-1433.9" font-family="Arial" font-size="14.00" fill="#666666">[time]</text>
<polygon fill="none" stroke="#000000" points="580,-1392.5 580,-1422.5 892,-1422.5 892,-1392.5 580,-1392.5"/>
<text text-anchor="start" x="587" y="-1403.9" font-family="Arial" font-size="14.00" fill="#000000">maximum_time    </text>
<text text-anchor="start" x="716.0814" y="-1403.9" font-family="Arial" font-size="14.00" fill="#666666">[time]</text>
<polygon fill="none" stroke="#000000" points="580,-1362.5 580,-1392.5 892,-1392.5 892,-1362.5 580,-1362.5"/>
<text text-anchor="start" x="587" y="-1373.9" font-family="Arial" font-size="14.00" fill="#000000">start_date    </text>
<text text-anchor="start" x="683.4502" y="-1373.9" font-family="Arial" font-size="14.00" fill="#666666">[date]</text>
<polygon fill="none" stroke="#000000" points="580,-1332.5 580,-1362.5 892,-1362.5 892,-1332.5 580,-1332.5"/>
<text text-anchor="start" x="587" y="-1343.9" font-family="Arial" font-size="14.00" fill="#000000">end_date    </text>
<text text-anchor="start" x="679.5736" y="-1343.9" font-family="Arial" font-size="14.00" fill="#666666">[date]</text>
<polygon fill="none" stroke="#000000" points="580,-1302.5 580,-1332.5 892,-1332.5 892,-1302.5 580,-1302.5"/>
<text text-anchor="start" x="587" y="-1313.9" font-family="Arial" font-size="14.00" fill="#000000">is_ninjalock    </text>
<text text-anchor="start" x="693.5442" y="-1313.9" font-family="Arial" font-size="14.00" fill="#666666">[tinyint(1)]</text>
<polygon fill="none" stroke="#000000" points="580,-1272.5 580,-1302.5 892,-1302.5 892,-1272.5 580,-1272.5"/>
<text text-anchor="start" x="587" y="-1283.9" font-family="Arial" font-size="14.00" fill="#000000">is_display_entrance_note    </text>
<text text-anchor="start" x="779.9228" y="-1283.9" font-family="Arial" font-size="14.00" fill="#666666">[tinyint(1)]</text>
<polygon fill="none" stroke="#000000" points="580,-1242.5 580,-1272.5 892,-1272.5 892,-1242.5 580,-1242.5"/>
<text text-anchor="start" x="586.6487" y="-1253.9" font-family="Arial" font-size="14.00" fill="#000000">is_using_custom_business_hour    </text>
<text text-anchor="start" x="823.9067" y="-1253.9" font-family="Arial" font-size="14.00" fill="#666666">[tinyint(1)]</text>
<polygon fill="none" stroke="#000000" points="580,-1212.5 580,-1242.5 892,-1242.5 892,-1212.5 580,-1212.5"/>
<text text-anchor="start" x="587" y="-1223.9" font-family="Arial" font-size="14.00" fill="#000000">has_local_area_network    </text>
<text text-anchor="start" x="772.9102" y="-1223.9" font-family="Arial" font-size="14.00" fill="#666666">[tinyint(1)]</text>
<polygon fill="none" stroke="#000000" points="580,-1182.5 580,-1212.5 892,-1212.5 892,-1182.5 580,-1182.5"/>
<text text-anchor="start" x="587" y="-1193.9" font-family="Arial" font-size="14.00" fill="#000000">basic_price    </text>
<text text-anchor="start" x="691.9916" y="-1193.9" font-family="Arial" font-size="14.00" fill="#666666">[int(11) unsigned]</text>
<polygon fill="none" stroke="#000000" points="580,-1152.5 580,-1182.5 892,-1182.5 892,-1152.5 580,-1152.5"/>
<text text-anchor="start" x="587" y="-1163.9" font-family="Arial" font-size="14.00" fill="#000000">extend_price    </text>
<text text-anchor="start" x="701.3408" y="-1163.9" font-family="Arial" font-size="14.00" fill="#666666">[int(11)]</text>
<polygon fill="none" stroke="#000000" points="580,-1122.5 580,-1152.5 892,-1152.5 892,-1122.5 580,-1122.5"/>
<text text-anchor="start" x="587" y="-1133.9" font-family="Arial" font-size="14.00" fill="#000000">max_price    </text>
<text text-anchor="start" x="685.763" y="-1133.9" font-family="Arial" font-size="14.00" fill="#666666">[int(11)]</text>
<polygon fill="none" stroke="#000000" points="580,-1092.5 580,-1122.5 892,-1122.5 892,-1092.5 580,-1092.5"/>
<text text-anchor="start" x="587" y="-1103.9" font-family="Arial" font-size="14.00" fill="#000000">memo    </text>
<text text-anchor="start" x="660.0912" y="-1103.9" font-family="Arial" font-size="14.00" fill="#666666">[varchar(2000)]</text>
<polygon fill="none" stroke="#000000" points="580,-1062.5 580,-1092.5 892,-1092.5 892,-1062.5 580,-1062.5"/>
<text text-anchor="start" x="587" y="-1073.9" font-family="Arial" font-size="14.00" fill="#000000">floor_position    </text>
<text text-anchor="start" x="704.4446" y="-1073.9" font-family="Arial" font-size="14.00" fill="#666666">[smallint(5)]</text>
<polygon fill="none" stroke="#000000" points="580,-1032.5 580,-1062.5 892,-1062.5 892,-1032.5 580,-1032.5"/>
<text text-anchor="start" x="587" y="-1043.9" font-family="Arial" font-size="14.00" fill="#000000">is_tablet_linked    </text>
<text text-anchor="start" x="717.6732" y="-1043.9" font-family="Arial" font-size="14.00" fill="#666666">[int(11)]</text>
<polygon fill="none" stroke="#000000" points="580,-1002.5 580,-1032.5 892,-1032.5 892,-1002.5 580,-1002.5"/>
<text text-anchor="start" x="587" y="-1013.9" font-family="Arial" font-size="14.00" fill="#000000">batch_mail    </text>
<text text-anchor="start" x="688.8822" y="-1013.9" font-family="Arial" font-size="14.00" fill="#666666">[int(11)]</text>
<polygon fill="none" stroke="#000000" points="580,-972.5 580,-1002.5 892,-1002.5 892,-972.5 580,-972.5"/>
<text text-anchor="start" x="587" y="-983.9" font-family="Arial" font-size="14.00" fill="#000000">batch_mail_owner    </text>
<text text-anchor="start" x="734.7798" y="-983.9" font-family="Arial" font-size="14.00" fill="#666666">[int(11)]</text>
<polygon fill="none" stroke="#000000" points="580,-942.5 580,-972.5 892,-972.5 892,-942.5 580,-942.5"/>
<text text-anchor="start" x="587" y="-953.9" font-family="Arial" font-size="14.00" fill="#000000">guide_text    </text>
<text text-anchor="start" x="685.7882" y="-953.9" font-family="Arial" font-size="14.00" fill="#666666">[text]</text>
<polygon fill="none" stroke="#000000" points="580,-912.5 580,-942.5 892,-942.5 892,-912.5 580,-912.5"/>
<text text-anchor="start" x="587" y="-923.9" font-family="Arial" font-size="14.00" fill="#000000">eating_text    </text>
<text text-anchor="start" x="689.6788" y="-923.9" font-family="Arial" font-size="14.00" fill="#666666">[varchar(1000)]</text>
<polygon fill="none" stroke="#000000" points="580,-882.5 580,-912.5 892,-912.5 892,-882.5 580,-882.5"/>
<text text-anchor="start" x="587" y="-893.9" font-family="Arial" font-size="14.00" fill="#000000">cleanup_text    </text>
<text text-anchor="start" x="700.5708" y="-893.9" font-family="Arial" font-size="14.00" fill="#666666">[varchar(1000)]</text>
<polygon fill="none" stroke="#000000" points="580,-852.5 580,-882.5 892,-882.5 892,-852.5 580,-852.5"/>
<text text-anchor="start" x="587" y="-863.9" font-family="Arial" font-size="14.00" fill="#000000">facility_text    </text>
<text text-anchor="start" x="690.4348" y="-863.9" font-family="Arial" font-size="14.00" fill="#666666">[varchar(1000)]</text>
<polygon fill="none" stroke="#000000" points="580,-822.5 580,-852.5 892,-852.5 892,-822.5 580,-822.5"/>
<text text-anchor="start" x="587" y="-833.9" font-family="Arial" font-size="14.00" fill="#000000">change_layout    </text>
<text text-anchor="start" x="712.2454" y="-833.9" font-family="Arial" font-size="14.00" fill="#666666">[smallint(2)]</text>
<polygon fill="none" stroke="#000000" points="580,-792.5 580,-822.5 892,-822.5 892,-792.5 580,-792.5"/>
<text text-anchor="start" x="587" y="-803.9" font-family="Arial" font-size="14.00" fill="#000000">reservation_unit_an_hour    </text>
<text text-anchor="start" x="779.92" y="-803.9" font-family="Arial" font-size="14.00" fill="#666666">[tinyint(1)]</text>
<polygon fill="none" stroke="#000000" points="580,-762.5 580,-792.5 892,-792.5 892,-762.5 580,-762.5"/>
<text text-anchor="start" x="587" y="-773.9" font-family="Arial" font-size="14.00" fill="#000000">payment_period    </text>
<text text-anchor="start" x="721.5666" y="-773.9" font-family="Arial" font-size="14.00" fill="#666666">[int(11)]</text>
<polygon fill="none" stroke="#000000" points="580,-732.5 580,-762.5 892,-762.5 892,-732.5 580,-732.5"/>
<text text-anchor="start" x="587" y="-743.9" font-family="Arial" font-size="14.00" fill="#000000">sort_order    </text>
<text text-anchor="start" x="684.9902" y="-743.9" font-family="Arial" font-size="14.00" fill="#666666">[int(11)]</text>
<polygon fill="none" stroke="#000000" points="580,-702.5 580,-732.5 892,-732.5 892,-702.5 580,-702.5"/>
<text text-anchor="start" x="587" y="-713.9" font-family="Arial" font-size="14.00" fill="#000000">allow_tentative    </text>
<text text-anchor="start" x="713.7812" y="-713.9" font-family="Arial" font-size="14.00" fill="#666666">[tinyint(1)]</text>
<polygon fill="none" stroke="#000000" points="580,-672.5 580,-702.5 892,-702.5 892,-672.5 580,-672.5"/>
<text text-anchor="start" x="587" y="-683.9" font-family="Arial" font-size="14.00" fill="#000000">allow_change_reserved    </text>
<text text-anchor="start" x="769.0196" y="-683.9" font-family="Arial" font-size="14.00" fill="#666666">[tinyint(1)]</text>
<polygon fill="none" stroke="#000000" points="580,-642.5 580,-672.5 892,-672.5 892,-642.5 580,-642.5"/>
<text text-anchor="start" x="587" y="-653.9" font-family="Arial" font-size="14.00" fill="#000000">allow_extend_reservation    </text>
<text text-anchor="start" x="779.9074" y="-653.9" font-family="Arial" font-size="14.00" fill="#666666">[tinyint(1)]</text>
<polygon fill="none" stroke="#000000" points="580,-612.5 580,-642.5 892,-642.5 892,-612.5 580,-612.5"/>
<text text-anchor="start" x="587" y="-623.9" font-family="Arial" font-size="14.00" fill="#000000">change_reserved_limit_date    </text>
<text text-anchor="start" x="797.0266" y="-623.9" font-family="Arial" font-size="14.00" fill="#666666">[int(11)]</text>
<polygon fill="none" stroke="#000000" points="580,-582.5 580,-612.5 892,-612.5 892,-582.5 580,-582.5"/>
<text text-anchor="start" x="587" y="-593.9" font-family="Arial" font-size="14.00" fill="#000000">tentative_period    </text>
<text text-anchor="start" x="720.7938" y="-593.9" font-family="Arial" font-size="14.00" fill="#666666">[int(11)]</text>
<polygon fill="none" stroke="#000000" points="580,-552.5 580,-582.5 892,-582.5 892,-552.5 580,-552.5"/>
<text text-anchor="start" x="587" y="-563.9" font-family="Arial" font-size="14.00" fill="#000000">tentative_limit_date    </text>
<text text-anchor="start" x="741.7882" y="-563.9" font-family="Arial" font-size="14.00" fill="#666666">[int(11)]</text>
<polygon fill="none" stroke="#000000" points="580,-522.5 580,-552.5 892,-552.5 892,-522.5 580,-522.5"/>
<text text-anchor="start" x="587" y="-533.9" font-family="Arial" font-size="14.00" fill="#000000">include_tax    </text>
<text text-anchor="start" x="692.0042" y="-533.9" font-family="Arial" font-size="14.00" fill="#666666">[tinyint(1)]</text>
<polygon fill="none" stroke="#000000" points="580,-492.5 580,-522.5 892,-522.5 892,-492.5 580,-492.5"/>
<text text-anchor="start" x="587" y="-503.9" font-family="Arial" font-size="14.00" fill="#000000">ninjalock_serial    </text>
<text text-anchor="start" x="716.8766" y="-503.9" font-family="Arial" font-size="14.00" fill="#666666">[varchar(24)]</text>
<polygon fill="none" stroke="#000000" points="580,-462.5 580,-492.5 892,-492.5 892,-462.5 580,-462.5"/>
<text text-anchor="start" x="587" y="-473.9" font-family="Arial" font-size="14.00" fill="#000000">created_datetime    </text>
<text text-anchor="start" x="729.3478" y="-473.9" font-family="Arial" font-size="14.00" fill="#666666">[timestamp]</text>
<polygon fill="none" stroke="#000000" points="580,-432.5 580,-462.5 892,-462.5 892,-432.5 580,-432.5"/>
<text text-anchor="start" x="587" y="-443.9" font-family="Arial" font-size="14.00" fill="#000000">updated_datetime    </text>
<text text-anchor="start" x="733.2524" y="-443.9" font-family="Arial" font-size="14.00" fill="#666666">[timestamp]</text>
<polygon fill="none" stroke="#000000" points="580,-402.5 580,-432.5 892,-432.5 892,-402.5 580,-402.5"/>
<text text-anchor="start" x="587" y="-413.9" font-family="Arial" font-size="14.00" fill="#000000">start_reservable_time    </text>
<text text-anchor="start" x="755.7756" y="-413.9" font-family="Arial" font-size="14.00" fill="#666666">[smallint(3)]</text>
<polygon fill="none" stroke="#000000" points="580,-372.5 580,-402.5 892,-402.5 892,-372.5 580,-372.5"/>
<text text-anchor="start" x="587" y="-383.9" font-family="Arial" font-size="14.00" fill="#000000">end_reservable_time    </text>
<text text-anchor="start" x="751.899" y="-383.9" font-family="Arial" font-size="14.00" fill="#666666">[smallint(3)]</text>
<polygon fill="none" stroke="#000000" points="580,-342.5 580,-372.5 892,-372.5 892,-342.5 580,-342.5"/>
<text text-anchor="start" x="587" y="-353.9" font-family="Arial" font-size="14.00" fill="#000000">is_set_reservable_time    </text>
<text text-anchor="start" x="765.1136" y="-353.9" font-family="Arial" font-size="14.00" fill="#666666">[tinyint(1)]</text>
<polygon fill="none" stroke="#000000" points="580,-312.5 580,-342.5 892,-342.5 892,-312.5 580,-312.5"/>
<text text-anchor="start" x="587" y="-323.9" font-family="Arial" font-size="14.00" fill="#000000">is_buffer_time_setting_enabled    </text>
<text text-anchor="start" x="815.7096" y="-323.9" font-family="Arial" font-size="14.00" fill="#666666">[tinyint(1)]</text>
<polygon fill="none" stroke="#000000" points="580,-282.5 580,-312.5 892,-312.5 892,-282.5 580,-282.5"/>
<text text-anchor="start" x="587" y="-293.9" font-family="Arial" font-size="14.00" fill="#000000">buffer_time    </text>
<text text-anchor="start" x="691.2174" y="-293.9" font-family="Arial" font-size="14.00" fill="#666666">[time]</text>
<polygon fill="none" stroke="#000000" points="580,-252.5 580,-282.5 892,-282.5 892,-252.5 580,-252.5"/>
<text text-anchor="start" x="587" y="-263.9" font-family="Arial" font-size="14.00" fill="#000000">buffer_time_control    </text>
<text text-anchor="start" x="741.0056" y="-263.9" font-family="Arial" font-size="14.00" fill="#666666">[smallint(3)]</text>
<polygon fill="none" stroke="#000000" points="580,-222.5 580,-252.5 892,-252.5 892,-222.5 580,-222.5"/>
<text text-anchor="start" x="587" y="-233.9" font-family="Arial" font-size="14.00" fill="#000000">is_one_day_rental_enabled    </text>
<text text-anchor="start" x="793.1626" y="-233.9" font-family="Arial" font-size="14.00" fill="#666666">[tinyint(1)]</text>
<polygon fill="none" stroke="#000000" points="580,-192.5 580,-222.5 892,-222.5 892,-192.5 580,-192.5"/>
<text text-anchor="start" x="587" y="-203.9" font-family="Arial" font-size="14.00" fill="#000000">owner_buffer_time    </text>
<text text-anchor="start" x="737.115" y="-203.9" font-family="Arial" font-size="14.00" fill="#666666">[time]</text>
<polygon fill="none" stroke="#000000" points="580,-162.5 580,-192.5 892,-192.5 892,-162.5 580,-162.5"/>
<text text-anchor="start" x="587" y="-173.9" font-family="Arial" font-size="14.00" fill="#000000">external_buffer_time    </text>
<text text-anchor="start" x="748.7882" y="-173.9" font-family="Arial" font-size="14.00" fill="#666666">[time]</text>
<polygon fill="none" stroke="#000000" points="580,-132.5 580,-162.5 892,-162.5 892,-132.5 580,-132.5"/>
<text text-anchor="start" x="587" y="-143.9" font-family="Arial" font-size="14.00" fill="#000000">owner_buffer_time_control    </text>
<text text-anchor="start" x="786.9032" y="-143.9" font-family="Arial" font-size="14.00" fill="#666666">[smallint(3)]</text>
<polygon fill="none" stroke="#000000" points="580,-102.5 580,-132.5 892,-132.5 892,-102.5 580,-102.5"/>
<text text-anchor="start" x="587" y="-113.9" font-family="Arial" font-size="14.00" fill="#000000">external_buffer_time_control    </text>
<text text-anchor="start" x="798.5764" y="-113.9" font-family="Arial" font-size="14.00" fill="#666666">[smallint(3)]</text>
<polygon fill="none" stroke="#000000" points="580,-72.5 580,-102.5 892,-102.5 892,-72.5 580,-72.5"/>
<text text-anchor="start" x="587" y="-83.9" font-family="Arial" font-size="14.00" fill="#000000">is_lottery_setting_enabled    </text>
<text text-anchor="start" x="783.8106" y="-83.9" font-family="Arial" font-size="14.00" fill="#666666">[tinyint(1)]</text>
<polygon fill="none" stroke="#000000" points="580,-42.5 580,-72.5 892,-72.5 892,-42.5 580,-42.5"/>
<text text-anchor="start" x="587" y="-53.9" font-family="Arial" font-size="14.00" fill="#000000">lottery_period    </text>
<text text-anchor="start" x="705.9986" y="-53.9" font-family="Arial" font-size="14.00" fill="#666666">[int(5)]</text>
</g>
<!-- sk_room_reserves_calendars&#45;&gt;sk_rooms -->
<g id="edge2" class="edge">
<title>sk_room_reserves_calendars:room_id&#45;&gt;sk_rooms:id</title>
<path fill="none" stroke="#000000" d="M732.1549,-2076.6467C786.02,-2066.9473 760.8305,-1976.9033 722,-1927 682.0169,-1875.6155 619.9831,-1942.3845 580,-1891 554.4805,-1858.2034 538.4444,-1797.5 580,-1797.5"/>
<polygon fill="#000000" stroke="#000000" points="731.9649,-2076.6625 721.6231,-2073.0158 726.9824,-2077.0813 722,-2077.5 722,-2077.5 722,-2077.5 726.9824,-2077.0813 722.3769,-2081.9842 731.9649,-2076.6625 731.9649,-2076.6625"/>
<text text-anchor="start" x="728.8365" y="-2087.5" font-family="Arial" font-size="10.00" fill="#000000">FOREIGN KEY (room_id) REFERENCES sk_rooms (id)</text>
</g>
</g>
</svg>
