<?xml version="1.0" encoding="UTF-8" standalone="no"?>
<!DOCTYPE svg PUBLIC "-//W3C//DTD SVG 1.1//EN"
 "http://www.w3.org/Graphics/SVG/1.1/DTD/svg11.dtd">
<!-- Generated by graphviz version 2.40.1 (20161225.0304)
 -->
<!-- Title: sk_rooms_purposes Pages: 1 -->
<svg width="862pt" height="2152pt"
 viewBox="0.00 0.00 862.00 2152.00" xmlns="http://www.w3.org/2000/svg" xmlns:xlink="http://www.w3.org/1999/xlink">
<g id="graph0" class="graph" transform="scale(1 1) rotate(0) translate(4 2148)">
<title>sk_rooms_purposes</title>
<polygon fill="#ffffff" stroke="transparent" points="-4,4 -4,-2148 858,-2148 858,4 -4,4"/>
<!-- sk_rooms_purposes -->
<g id="node1" class="node">
<title>sk_rooms_purposes</title>
<polygon fill="#efefef" stroke="transparent" points="262,-2062.5 262,-2097.5 565,-2097.5 565,-2062.5 262,-2062.5"/>
<polygon fill="none" stroke="#000000" points="262,-2062.5 262,-2097.5 565,-2097.5 565,-2062.5 262,-2062.5"/>
<text text-anchor="start" x="268.6998" y="-2075.3" font-family="Arial Bold" font-size="18.00" fill="#000000">sk_rooms_purposes</text>
<text text-anchor="start" x="430.7322" y="-2075.3" font-family="Arial" font-size="14.00" fill="#000000">    </text>
<text text-anchor="start" x="464.937" y="-2075.3" font-family="Arial" font-size="14.00" fill="#666666">[BASE TABLE]</text>
<polygon fill="none" stroke="#000000" points="262,-2032.5 262,-2062.5 565,-2062.5 565,-2032.5 262,-2032.5"/>
<text text-anchor="start" x="269" y="-2043.9" font-family="Arial" font-size="14.00" fill="#000000">id </text>
<text text-anchor="start" x="283.7798" y="-2043.9" font-family="Arial" font-size="14.00" fill="#666666">[int(11) unsigned]</text>
<polygon fill="none" stroke="#000000" points="262,-2002.5 262,-2032.5 565,-2032.5 565,-2002.5 262,-2002.5"/>
<text text-anchor="start" x="269" y="-2013.9" font-family="Arial" font-size="14.00" fill="#000000">room_id </text>
<text text-anchor="start" x="323.4488" y="-2013.9" font-family="Arial" font-size="14.00" fill="#666666">[int(11) unsigned]</text>
<polygon fill="none" stroke="#000000" points="262,-1972.5 262,-2002.5 565,-2002.5 565,-1972.5 262,-1972.5"/>
<text text-anchor="start" x="269" y="-1983.9" font-family="Arial" font-size="14.00" fill="#000000">purpose_id </text>
<text text-anchor="start" x="342.136" y="-1983.9" font-family="Arial" font-size="14.00" fill="#666666">[int(11) unsigned]</text>
<polygon fill="none" stroke="#000000" stroke-width="3" points="260,-1971.5 260,-2099.5 566,-2099.5 566,-1971.5 260,-1971.5"/>
</g>
<!-- sk_rooms -->
<g id="node2" class="node">
<title>sk_rooms</title>
<polygon fill="#efefef" stroke="transparent" points="67,-1812.5 67,-1847.5 379,-1847.5 379,-1812.5 67,-1812.5"/>
<polygon fill="none" stroke="#000000" points="67,-1812.5 67,-1847.5 379,-1847.5 379,-1812.5 67,-1812.5"/>
<text text-anchor="start" x="120.2145" y="-1825.3" font-family="Arial Bold" font-size="18.00" fill="#000000">sk_rooms</text>
<text text-anchor="start" x="198.2175" y="-1825.3" font-family="Arial" font-size="14.00" fill="#000000">    </text>
<text text-anchor="start" x="232.4223" y="-1825.3" font-family="Arial" font-size="14.00" fill="#666666">[BASE TABLE]</text>
<polygon fill="none" stroke="#000000" points="67,-1782.5 67,-1812.5 379,-1812.5 379,-1782.5 67,-1782.5"/>
<text text-anchor="start" x="74" y="-1793.9" font-family="Arial" font-size="14.00" fill="#000000">id    </text>
<text text-anchor="start" x="119.094" y="-1793.9" font-family="Arial" font-size="14.00" fill="#666666">[int(11) unsigned]</text>
<polygon fill="none" stroke="#000000" points="67,-1752.5 67,-1782.5 379,-1782.5 379,-1752.5 67,-1752.5"/>
<text text-anchor="start" x="74" y="-1763.9" font-family="Arial" font-size="14.00" fill="#000000">is_deleted    </text>
<text text-anchor="start" x="172.0042" y="-1763.9" font-family="Arial" font-size="14.00" fill="#666666">[tinyint(1)]</text>
<polygon fill="none" stroke="#000000" points="67,-1722.5 67,-1752.5 379,-1752.5 379,-1722.5 67,-1722.5"/>
<text text-anchor="start" x="74" y="-1733.9" font-family="Arial" font-size="14.00" fill="#000000">is_public    </text>
<text text-anchor="start" x="162.655" y="-1733.9" font-family="Arial" font-size="14.00" fill="#666666">[tinyint(1)]</text>
<polygon fill="none" stroke="#000000" points="67,-1692.5 67,-1722.5 379,-1722.5 379,-1692.5 67,-1692.5"/>
<text text-anchor="start" x="74" y="-1703.9" font-family="Arial" font-size="14.00" fill="#000000">is_set    </text>
<text text-anchor="start" x="144.7672" y="-1703.9" font-family="Arial" font-size="14.00" fill="#666666">[tinyint(1)]</text>
<polygon fill="none" stroke="#000000" points="67,-1662.5 67,-1692.5 379,-1692.5 379,-1662.5 67,-1662.5"/>
<text text-anchor="start" x="74" y="-1673.9" font-family="Arial" font-size="14.00" fill="#000000">property_id    </text>
<text text-anchor="start" x="178.2188" y="-1673.9" font-family="Arial" font-size="14.00" fill="#666666">[int(11) unsigned]</text>
<polygon fill="none" stroke="#000000" points="67,-1632.5 67,-1662.5 379,-1662.5 379,-1632.5 67,-1632.5"/>
<text text-anchor="start" x="74" y="-1643.9" font-family="Arial" font-size="14.00" fill="#000000">lessor_id    </text>
<text text-anchor="start" x="164.209" y="-1643.9" font-family="Arial" font-size="14.00" fill="#666666">[int(11) unsigned]</text>
<polygon fill="none" stroke="#000000" points="67,-1602.5 67,-1632.5 379,-1632.5 379,-1602.5 67,-1602.5"/>
<text text-anchor="start" x="74" y="-1613.9" font-family="Arial" font-size="14.00" fill="#000000">name    </text>
<text text-anchor="start" x="143.2132" y="-1613.9" font-family="Arial" font-size="14.00" fill="#666666">[varchar(200)]</text>
<polygon fill="none" stroke="#000000" points="67,-1572.5 67,-1602.5 379,-1602.5 379,-1572.5 67,-1572.5"/>
<text text-anchor="start" x="74" y="-1583.9" font-family="Arial" font-size="14.00" fill="#000000">voice_name    </text>
<text text-anchor="start" x="183.6676" y="-1583.9" font-family="Arial" font-size="14.00" fill="#666666">[varchar(200)]</text>
<polygon fill="none" stroke="#000000" points="67,-1542.5 67,-1572.5 379,-1572.5 379,-1542.5 67,-1542.5"/>
<text text-anchor="start" x="74" y="-1553.9" font-family="Arial" font-size="14.00" fill="#000000">description_url    </text>
<text text-anchor="start" x="199.2146" y="-1553.9" font-family="Arial" font-size="14.00" fill="#666666">[varchar(1000)]</text>
<polygon fill="none" stroke="#000000" points="67,-1512.5 67,-1542.5 379,-1542.5 379,-1512.5 67,-1512.5"/>
<text text-anchor="start" x="74" y="-1523.9" font-family="Arial" font-size="14.00" fill="#000000">exclusive_area    </text>
<text text-anchor="start" x="201.5568" y="-1523.9" font-family="Arial" font-size="14.00" fill="#666666">[decimal(10,2)]</text>
<polygon fill="none" stroke="#000000" points="67,-1482.5 67,-1512.5 379,-1512.5 379,-1482.5 67,-1482.5"/>
<text text-anchor="start" x="74" y="-1493.9" font-family="Arial" font-size="14.00" fill="#000000">ceiling_height    </text>
<text text-anchor="start" x="193.7826" y="-1493.9" font-family="Arial" font-size="14.00" fill="#666666">[decimal(10,2)]</text>
<polygon fill="none" stroke="#000000" points="67,-1452.5 67,-1482.5 379,-1482.5 379,-1452.5 67,-1452.5"/>
<text text-anchor="start" x="74" y="-1463.9" font-family="Arial" font-size="14.00" fill="#000000">floor    </text>
<text text-anchor="start" x="135.4278" y="-1463.9" font-family="Arial" font-size="14.00" fill="#666666">[smallint(5)]</text>
<polygon fill="none" stroke="#000000" points="67,-1422.5 67,-1452.5 379,-1452.5 379,-1422.5 67,-1422.5"/>
<text text-anchor="start" x="74" y="-1433.9" font-family="Arial" font-size="14.00" fill="#000000">minimum_time    </text>
<text text-anchor="start" x="199.188" y="-1433.9" font-family="Arial" font-size="14.00" fill="#666666">[time]</text>
<polygon fill="none" stroke="#000000" points="67,-1392.5 67,-1422.5 379,-1422.5 379,-1392.5 67,-1392.5"/>
<text text-anchor="start" x="74" y="-1403.9" font-family="Arial" font-size="14.00" fill="#000000">maximum_time    </text>
<text text-anchor="start" x="203.0814" y="-1403.9" font-family="Arial" font-size="14.00" fill="#666666">[time]</text>
<polygon fill="none" stroke="#000000" points="67,-1362.5 67,-1392.5 379,-1392.5 379,-1362.5 67,-1362.5"/>
<text text-anchor="start" x="74" y="-1373.9" font-family="Arial" font-size="14.00" fill="#000000">start_date    </text>
<text text-anchor="start" x="170.4502" y="-1373.9" font-family="Arial" font-size="14.00" fill="#666666">[date]</text>
<polygon fill="none" stroke="#000000" points="67,-1332.5 67,-1362.5 379,-1362.5 379,-1332.5 67,-1332.5"/>
<text text-anchor="start" x="74" y="-1343.9" font-family="Arial" font-size="14.00" fill="#000000">end_date    </text>
<text text-anchor="start" x="166.5736" y="-1343.9" font-family="Arial" font-size="14.00" fill="#666666">[date]</text>
<polygon fill="none" stroke="#000000" points="67,-1302.5 67,-1332.5 379,-1332.5 379,-1302.5 67,-1302.5"/>
<text text-anchor="start" x="74" y="-1313.9" font-family="Arial" font-size="14.00" fill="#000000">is_ninjalock    </text>
<text text-anchor="start" x="180.5442" y="-1313.9" font-family="Arial" font-size="14.00" fill="#666666">[tinyint(1)]</text>
<polygon fill="none" stroke="#000000" points="67,-1272.5 67,-1302.5 379,-1302.5 379,-1272.5 67,-1272.5"/>
<text text-anchor="start" x="74" y="-1283.9" font-family="Arial" font-size="14.00" fill="#000000">is_display_entrance_note    </text>
<text text-anchor="start" x="266.9228" y="-1283.9" font-family="Arial" font-size="14.00" fill="#666666">[tinyint(1)]</text>
<polygon fill="none" stroke="#000000" points="67,-1242.5 67,-1272.5 379,-1272.5 379,-1242.5 67,-1242.5"/>
<text text-anchor="start" x="73.6487" y="-1253.9" font-family="Arial" font-size="14.00" fill="#000000">is_using_custom_business_hour    </text>
<text text-anchor="start" x="310.9067" y="-1253.9" font-family="Arial" font-size="14.00" fill="#666666">[tinyint(1)]</text>
<polygon fill="none" stroke="#000000" points="67,-1212.5 67,-1242.5 379,-1242.5 379,-1212.5 67,-1212.5"/>
<text text-anchor="start" x="74" y="-1223.9" font-family="Arial" font-size="14.00" fill="#000000">has_local_area_network    </text>
<text text-anchor="start" x="259.9102" y="-1223.9" font-family="Arial" font-size="14.00" fill="#666666">[tinyint(1)]</text>
<polygon fill="none" stroke="#000000" points="67,-1182.5 67,-1212.5 379,-1212.5 379,-1182.5 67,-1182.5"/>
<text text-anchor="start" x="74" y="-1193.9" font-family="Arial" font-size="14.00" fill="#000000">basic_price    </text>
<text text-anchor="start" x="178.9916" y="-1193.9" font-family="Arial" font-size="14.00" fill="#666666">[int(11) unsigned]</text>
<polygon fill="none" stroke="#000000" points="67,-1152.5 67,-1182.5 379,-1182.5 379,-1152.5 67,-1152.5"/>
<text text-anchor="start" x="74" y="-1163.9" font-family="Arial" font-size="14.00" fill="#000000">extend_price    </text>
<text text-anchor="start" x="188.3408" y="-1163.9" font-family="Arial" font-size="14.00" fill="#666666">[int(11)]</text>
<polygon fill="none" stroke="#000000" points="67,-1122.5 67,-1152.5 379,-1152.5 379,-1122.5 67,-1122.5"/>
<text text-anchor="start" x="74" y="-1133.9" font-family="Arial" font-size="14.00" fill="#000000">max_price    </text>
<text text-anchor="start" x="172.763" y="-1133.9" font-family="Arial" font-size="14.00" fill="#666666">[int(11)]</text>
<polygon fill="none" stroke="#000000" points="67,-1092.5 67,-1122.5 379,-1122.5 379,-1092.5 67,-1092.5"/>
<text text-anchor="start" x="74" y="-1103.9" font-family="Arial" font-size="14.00" fill="#000000">memo    </text>
<text text-anchor="start" x="147.0912" y="-1103.9" font-family="Arial" font-size="14.00" fill="#666666">[varchar(2000)]</text>
<polygon fill="none" stroke="#000000" points="67,-1062.5 67,-1092.5 379,-1092.5 379,-1062.5 67,-1062.5"/>
<text text-anchor="start" x="74" y="-1073.9" font-family="Arial" font-size="14.00" fill="#000000">floor_position    </text>
<text text-anchor="start" x="191.4446" y="-1073.9" font-family="Arial" font-size="14.00" fill="#666666">[smallint(5)]</text>
<polygon fill="none" stroke="#000000" points="67,-1032.5 67,-1062.5 379,-1062.5 379,-1032.5 67,-1032.5"/>
<text text-anchor="start" x="74" y="-1043.9" font-family="Arial" font-size="14.00" fill="#000000">is_tablet_linked    </text>
<text text-anchor="start" x="204.6732" y="-1043.9" font-family="Arial" font-size="14.00" fill="#666666">[int(11)]</text>
<polygon fill="none" stroke="#000000" points="67,-1002.5 67,-1032.5 379,-1032.5 379,-1002.5 67,-1002.5"/>
<text text-anchor="start" x="74" y="-1013.9" font-family="Arial" font-size="14.00" fill="#000000">batch_mail    </text>
<text text-anchor="start" x="175.8822" y="-1013.9" font-family="Arial" font-size="14.00" fill="#666666">[int(11)]</text>
<polygon fill="none" stroke="#000000" points="67,-972.5 67,-1002.5 379,-1002.5 379,-972.5 67,-972.5"/>
<text text-anchor="start" x="74" y="-983.9" font-family="Arial" font-size="14.00" fill="#000000">batch_mail_owner    </text>
<text text-anchor="start" x="221.7798" y="-983.9" font-family="Arial" font-size="14.00" fill="#666666">[int(11)]</text>
<polygon fill="none" stroke="#000000" points="67,-942.5 67,-972.5 379,-972.5 379,-942.5 67,-942.5"/>
<text text-anchor="start" x="74" y="-953.9" font-family="Arial" font-size="14.00" fill="#000000">guide_text    </text>
<text text-anchor="start" x="172.7882" y="-953.9" font-family="Arial" font-size="14.00" fill="#666666">[text]</text>
<polygon fill="none" stroke="#000000" points="67,-912.5 67,-942.5 379,-942.5 379,-912.5 67,-912.5"/>
<text text-anchor="start" x="74" y="-923.9" font-family="Arial" font-size="14.00" fill="#000000">eating_text    </text>
<text text-anchor="start" x="176.6788" y="-923.9" font-family="Arial" font-size="14.00" fill="#666666">[varchar(1000)]</text>
<polygon fill="none" stroke="#000000" points="67,-882.5 67,-912.5 379,-912.5 379,-882.5 67,-882.5"/>
<text text-anchor="start" x="74" y="-893.9" font-family="Arial" font-size="14.00" fill="#000000">cleanup_text    </text>
<text text-anchor="start" x="187.5708" y="-893.9" font-family="Arial" font-size="14.00" fill="#666666">[varchar(1000)]</text>
<polygon fill="none" stroke="#000000" points="67,-852.5 67,-882.5 379,-882.5 379,-852.5 67,-852.5"/>
<text text-anchor="start" x="74" y="-863.9" font-family="Arial" font-size="14.00" fill="#000000">facility_text    </text>
<text text-anchor="start" x="177.4348" y="-863.9" font-family="Arial" font-size="14.00" fill="#666666">[varchar(1000)]</text>
<polygon fill="none" stroke="#000000" points="67,-822.5 67,-852.5 379,-852.5 379,-822.5 67,-822.5"/>
<text text-anchor="start" x="74" y="-833.9" font-family="Arial" font-size="14.00" fill="#000000">change_layout    </text>
<text text-anchor="start" x="199.2454" y="-833.9" font-family="Arial" font-size="14.00" fill="#666666">[smallint(2)]</text>
<polygon fill="none" stroke="#000000" points="67,-792.5 67,-822.5 379,-822.5 379,-792.5 67,-792.5"/>
<text text-anchor="start" x="74" y="-803.9" font-family="Arial" font-size="14.00" fill="#000000">reservation_unit_an_hour    </text>
<text text-anchor="start" x="266.92" y="-803.9" font-family="Arial" font-size="14.00" fill="#666666">[tinyint(1)]</text>
<polygon fill="none" stroke="#000000" points="67,-762.5 67,-792.5 379,-792.5 379,-762.5 67,-762.5"/>
<text text-anchor="start" x="74" y="-773.9" font-family="Arial" font-size="14.00" fill="#000000">payment_period    </text>
<text text-anchor="start" x="208.5666" y="-773.9" font-family="Arial" font-size="14.00" fill="#666666">[int(11)]</text>
<polygon fill="none" stroke="#000000" points="67,-732.5 67,-762.5 379,-762.5 379,-732.5 67,-732.5"/>
<text text-anchor="start" x="74" y="-743.9" font-family="Arial" font-size="14.00" fill="#000000">sort_order    </text>
<text text-anchor="start" x="171.9902" y="-743.9" font-family="Arial" font-size="14.00" fill="#666666">[int(11)]</text>
<polygon fill="none" stroke="#000000" points="67,-702.5 67,-732.5 379,-732.5 379,-702.5 67,-702.5"/>
<text text-anchor="start" x="74" y="-713.9" font-family="Arial" font-size="14.00" fill="#000000">allow_tentative    </text>
<text text-anchor="start" x="200.7812" y="-713.9" font-family="Arial" font-size="14.00" fill="#666666">[tinyint(1)]</text>
<polygon fill="none" stroke="#000000" points="67,-672.5 67,-702.5 379,-702.5 379,-672.5 67,-672.5"/>
<text text-anchor="start" x="74" y="-683.9" font-family="Arial" font-size="14.00" fill="#000000">allow_change_reserved    </text>
<text text-anchor="start" x="256.0196" y="-683.9" font-family="Arial" font-size="14.00" fill="#666666">[tinyint(1)]</text>
<polygon fill="none" stroke="#000000" points="67,-642.5 67,-672.5 379,-672.5 379,-642.5 67,-642.5"/>
<text text-anchor="start" x="74" y="-653.9" font-family="Arial" font-size="14.00" fill="#000000">allow_extend_reservation    </text>
<text text-anchor="start" x="266.9074" y="-653.9" font-family="Arial" font-size="14.00" fill="#666666">[tinyint(1)]</text>
<polygon fill="none" stroke="#000000" points="67,-612.5 67,-642.5 379,-642.5 379,-612.5 67,-612.5"/>
<text text-anchor="start" x="74" y="-623.9" font-family="Arial" font-size="14.00" fill="#000000">change_reserved_limit_date    </text>
<text text-anchor="start" x="284.0266" y="-623.9" font-family="Arial" font-size="14.00" fill="#666666">[int(11)]</text>
<polygon fill="none" stroke="#000000" points="67,-582.5 67,-612.5 379,-612.5 379,-582.5 67,-582.5"/>
<text text-anchor="start" x="74" y="-593.9" font-family="Arial" font-size="14.00" fill="#000000">tentative_period    </text>
<text text-anchor="start" x="207.7938" y="-593.9" font-family="Arial" font-size="14.00" fill="#666666">[int(11)]</text>
<polygon fill="none" stroke="#000000" points="67,-552.5 67,-582.5 379,-582.5 379,-552.5 67,-552.5"/>
<text text-anchor="start" x="74" y="-563.9" font-family="Arial" font-size="14.00" fill="#000000">tentative_limit_date    </text>
<text text-anchor="start" x="228.7882" y="-563.9" font-family="Arial" font-size="14.00" fill="#666666">[int(11)]</text>
<polygon fill="none" stroke="#000000" points="67,-522.5 67,-552.5 379,-552.5 379,-522.5 67,-522.5"/>
<text text-anchor="start" x="74" y="-533.9" font-family="Arial" font-size="14.00" fill="#000000">include_tax    </text>
<text text-anchor="start" x="179.0042" y="-533.9" font-family="Arial" font-size="14.00" fill="#666666">[tinyint(1)]</text>
<polygon fill="none" stroke="#000000" points="67,-492.5 67,-522.5 379,-522.5 379,-492.5 67,-492.5"/>
<text text-anchor="start" x="74" y="-503.9" font-family="Arial" font-size="14.00" fill="#000000">ninjalock_serial    </text>
<text text-anchor="start" x="203.8766" y="-503.9" font-family="Arial" font-size="14.00" fill="#666666">[varchar(24)]</text>
<polygon fill="none" stroke="#000000" points="67,-462.5 67,-492.5 379,-492.5 379,-462.5 67,-462.5"/>
<text text-anchor="start" x="74" y="-473.9" font-family="Arial" font-size="14.00" fill="#000000">created_datetime    </text>
<text text-anchor="start" x="216.3478" y="-473.9" font-family="Arial" font-size="14.00" fill="#666666">[timestamp]</text>
<polygon fill="none" stroke="#000000" points="67,-432.5 67,-462.5 379,-462.5 379,-432.5 67,-432.5"/>
<text text-anchor="start" x="74" y="-443.9" font-family="Arial" font-size="14.00" fill="#000000">updated_datetime    </text>
<text text-anchor="start" x="220.2524" y="-443.9" font-family="Arial" font-size="14.00" fill="#666666">[timestamp]</text>
<polygon fill="none" stroke="#000000" points="67,-402.5 67,-432.5 379,-432.5 379,-402.5 67,-402.5"/>
<text text-anchor="start" x="74" y="-413.9" font-family="Arial" font-size="14.00" fill="#000000">start_reservable_time    </text>
<text text-anchor="start" x="242.7756" y="-413.9" font-family="Arial" font-size="14.00" fill="#666666">[smallint(3)]</text>
<polygon fill="none" stroke="#000000" points="67,-372.5 67,-402.5 379,-402.5 379,-372.5 67,-372.5"/>
<text text-anchor="start" x="74" y="-383.9" font-family="Arial" font-size="14.00" fill="#000000">end_reservable_time    </text>
<text text-anchor="start" x="238.899" y="-383.9" font-family="Arial" font-size="14.00" fill="#666666">[smallint(3)]</text>
<polygon fill="none" stroke="#000000" points="67,-342.5 67,-372.5 379,-372.5 379,-342.5 67,-342.5"/>
<text text-anchor="start" x="74" y="-353.9" font-family="Arial" font-size="14.00" fill="#000000">is_set_reservable_time    </text>
<text text-anchor="start" x="252.1136" y="-353.9" font-family="Arial" font-size="14.00" fill="#666666">[tinyint(1)]</text>
<polygon fill="none" stroke="#000000" points="67,-312.5 67,-342.5 379,-342.5 379,-312.5 67,-312.5"/>
<text text-anchor="start" x="74" y="-323.9" font-family="Arial" font-size="14.00" fill="#000000">is_buffer_time_setting_enabled    </text>
<text text-anchor="start" x="302.7096" y="-323.9" font-family="Arial" font-size="14.00" fill="#666666">[tinyint(1)]</text>
<polygon fill="none" stroke="#000000" points="67,-282.5 67,-312.5 379,-312.5 379,-282.5 67,-282.5"/>
<text text-anchor="start" x="74" y="-293.9" font-family="Arial" font-size="14.00" fill="#000000">buffer_time    </text>
<text text-anchor="start" x="178.2174" y="-293.9" font-family="Arial" font-size="14.00" fill="#666666">[time]</text>
<polygon fill="none" stroke="#000000" points="67,-252.5 67,-282.5 379,-282.5 379,-252.5 67,-252.5"/>
<text text-anchor="start" x="74" y="-263.9" font-family="Arial" font-size="14.00" fill="#000000">buffer_time_control    </text>
<text text-anchor="start" x="228.0056" y="-263.9" font-family="Arial" font-size="14.00" fill="#666666">[smallint(3)]</text>
<polygon fill="none" stroke="#000000" points="67,-222.5 67,-252.5 379,-252.5 379,-222.5 67,-222.5"/>
<text text-anchor="start" x="74" y="-233.9" font-family="Arial" font-size="14.00" fill="#000000">is_one_day_rental_enabled    </text>
<text text-anchor="start" x="280.1626" y="-233.9" font-family="Arial" font-size="14.00" fill="#666666">[tinyint(1)]</text>
<polygon fill="none" stroke="#000000" points="67,-192.5 67,-222.5 379,-222.5 379,-192.5 67,-192.5"/>
<text text-anchor="start" x="74" y="-203.9" font-family="Arial" font-size="14.00" fill="#000000">owner_buffer_time    </text>
<text text-anchor="start" x="224.115" y="-203.9" font-family="Arial" font-size="14.00" fill="#666666">[time]</text>
<polygon fill="none" stroke="#000000" points="67,-162.5 67,-192.5 379,-192.5 379,-162.5 67,-162.5"/>
<text text-anchor="start" x="74" y="-173.9" font-family="Arial" font-size="14.00" fill="#000000">external_buffer_time    </text>
<text text-anchor="start" x="235.7882" y="-173.9" font-family="Arial" font-size="14.00" fill="#666666">[time]</text>
<polygon fill="none" stroke="#000000" points="67,-132.5 67,-162.5 379,-162.5 379,-132.5 67,-132.5"/>
<text text-anchor="start" x="74" y="-143.9" font-family="Arial" font-size="14.00" fill="#000000">owner_buffer_time_control    </text>
<text text-anchor="start" x="273.9032" y="-143.9" font-family="Arial" font-size="14.00" fill="#666666">[smallint(3)]</text>
<polygon fill="none" stroke="#000000" points="67,-102.5 67,-132.5 379,-132.5 379,-102.5 67,-102.5"/>
<text text-anchor="start" x="74" y="-113.9" font-family="Arial" font-size="14.00" fill="#000000">external_buffer_time_control    </text>
<text text-anchor="start" x="285.5764" y="-113.9" font-family="Arial" font-size="14.00" fill="#666666">[smallint(3)]</text>
<polygon fill="none" stroke="#000000" points="67,-72.5 67,-102.5 379,-102.5 379,-72.5 67,-72.5"/>
<text text-anchor="start" x="74" y="-83.9" font-family="Arial" font-size="14.00" fill="#000000">is_lottery_setting_enabled    </text>
<text text-anchor="start" x="270.8106" y="-83.9" font-family="Arial" font-size="14.00" fill="#666666">[tinyint(1)]</text>
<polygon fill="none" stroke="#000000" points="67,-42.5 67,-72.5 379,-72.5 379,-42.5 67,-42.5"/>
<text text-anchor="start" x="74" y="-53.9" font-family="Arial" font-size="14.00" fill="#000000">lottery_period    </text>
<text text-anchor="start" x="192.9986" y="-53.9" font-family="Arial" font-size="14.00" fill="#666666">[int(5)]</text>
</g>
<!-- sk_rooms_purposes&#45;&gt;sk_rooms -->
<g id="edge1" class="edge">
<title>sk_rooms_purposes:room_id&#45;&gt;sk_rooms:id</title>
<path fill="none" stroke="#000000" d="M251.7884,-2015.9146C225.0387,-2006.3894 240.4375,-1956.1947 262,-1927 294.3226,-1883.2365 346.6774,-1934.7635 379,-1891 403.6882,-1857.5731 420.5556,-1797.5 379,-1797.5"/>
<polygon fill="#000000" stroke="#000000" points="252.1184,-2015.9658 261.3096,-2021.9467 257.0592,-2016.7329 262,-2017.5 262,-2017.5 262,-2017.5 257.0592,-2016.7329 262.6904,-2013.0533 252.1184,-2015.9658 252.1184,-2015.9658"/>
<text text-anchor="start" x="6.8365" y="-2027.5" font-family="Arial" font-size="10.00" fill="#000000">FOREIGN KEY (room_id) REFERENCES sk_rooms (id)</text>
</g>
<!-- sk_purposes -->
<g id="node3" class="node">
<title>sk_purposes</title>
<polygon fill="#efefef" stroke="transparent" points="484,-972.5 484,-1007.5 727,-1007.5 727,-972.5 484,-972.5"/>
<polygon fill="none" stroke="#000000" points="484,-972.5 484,-1007.5 727,-1007.5 727,-972.5 484,-972.5"/>
<text text-anchor="start" x="490.7013" y="-985.3" font-family="Arial Bold" font-size="18.00" fill="#000000">sk_purposes</text>
<text text-anchor="start" x="592.7307" y="-985.3" font-family="Arial" font-size="14.00" fill="#000000">    </text>
<text text-anchor="start" x="626.9355" y="-985.3" font-family="Arial" font-size="14.00" fill="#666666">[BASE TABLE]</text>
<polygon fill="none" stroke="#000000" points="484,-942.5 484,-972.5 727,-972.5 727,-942.5 484,-942.5"/>
<text text-anchor="start" x="491" y="-953.9" font-family="Arial" font-size="14.00" fill="#000000">id    </text>
<text text-anchor="start" x="536.094" y="-953.9" font-family="Arial" font-size="14.00" fill="#666666">[int(11) unsigned]</text>
<polygon fill="none" stroke="#000000" points="484,-912.5 484,-942.5 727,-942.5 727,-912.5 484,-912.5"/>
<text text-anchor="start" x="491" y="-923.9" font-family="Arial" font-size="14.00" fill="#000000">name    </text>
<text text-anchor="start" x="560.2132" y="-923.9" font-family="Arial" font-size="14.00" fill="#666666">[varchar(200)]</text>
<polygon fill="none" stroke="#000000" points="484,-882.5 484,-912.5 727,-912.5 727,-882.5 484,-882.5"/>
<text text-anchor="start" x="491" y="-893.9" font-family="Arial" font-size="14.00" fill="#000000">sort_order    </text>
<text text-anchor="start" x="588.9902" y="-893.9" font-family="Arial" font-size="14.00" fill="#666666">[int(11)]</text>
</g>
<!-- sk_rooms_purposes&#45;&gt;sk_purposes -->
<g id="edge2" class="edge">
<title>sk_rooms_purposes:purpose_id&#45;&gt;sk_purposes:id</title>
<path fill="none" stroke="#000000" d="M574.8017,-1984.3598C660.2207,-1922.183 372.9018,-957.5 484,-957.5"/>
<polygon fill="#000000" stroke="#000000" points="574.5232,-1984.449 563.627,-1983.2146 569.7616,-1985.9745 565,-1987.5 565,-1987.5 565,-1987.5 569.7616,-1985.9745 566.373,-1991.7854 574.5232,-1984.449 574.5232,-1984.449"/>
<text text-anchor="start" x="572.4885" y="-1997.5" font-family="Arial" font-size="10.00" fill="#000000">FOREIGN KEY (purpose_id) REFERENCES sk_purposes (id)</text>
</g>
</g>
</svg>
