<?xml version="1.0" encoding="UTF-8" standalone="no"?>
<!DOCTYPE svg PUBLIC "-//W3C//DTD SVG 1.1//EN"
 "http://www.w3.org/Graphics/SVG/1.1/DTD/svg11.dtd">
<!-- Generated by graphviz version 2.40.1 (20161225.0304)
 -->
<!-- Title: sk_rooms_facilities Pages: 1 -->
<svg width="838pt" height="2152pt"
 viewBox="0.00 0.00 838.00 2152.00" xmlns="http://www.w3.org/2000/svg" xmlns:xlink="http://www.w3.org/1999/xlink">
<g id="graph0" class="graph" transform="scale(1 1) rotate(0) translate(4 2148)">
<title>sk_rooms_facilities</title>
<polygon fill="#ffffff" stroke="transparent" points="-4,4 -4,-2148 834,-2148 834,4 -4,4"/>
<!-- sk_rooms_facilities -->
<g id="node1" class="node">
<title>sk_rooms_facilities</title>
<polygon fill="#efefef" stroke="transparent" points="262,-2062.5 262,-2097.5 555,-2097.5 555,-2062.5 262,-2062.5"/>
<polygon fill="none" stroke="#000000" points="262,-2062.5 262,-2097.5 555,-2097.5 555,-2062.5 262,-2062.5"/>
<text text-anchor="start" x="268.7146" y="-2075.3" font-family="Arial Bold" font-size="18.00" fill="#000000">sk_rooms_facilities</text>
<text text-anchor="start" x="420.7174" y="-2075.3" font-family="Arial" font-size="14.00" fill="#000000">    </text>
<text text-anchor="start" x="454.9222" y="-2075.3" font-family="Arial" font-size="14.00" fill="#666666">[BASE TABLE]</text>
<polygon fill="none" stroke="#000000" points="262,-2032.5 262,-2062.5 555,-2062.5 555,-2032.5 262,-2032.5"/>
<text text-anchor="start" x="269" y="-2043.9" font-family="Arial" font-size="14.00" fill="#000000">id </text>
<text text-anchor="start" x="283.7798" y="-2043.9" font-family="Arial" font-size="14.00" fill="#666666">[varchar(30)]</text>
<polygon fill="none" stroke="#000000" points="262,-2002.5 262,-2032.5 555,-2032.5 555,-2002.5 262,-2002.5"/>
<text text-anchor="start" x="269" y="-2013.9" font-family="Arial" font-size="14.00" fill="#000000">room_id </text>
<text text-anchor="start" x="323.4488" y="-2013.9" font-family="Arial" font-size="14.00" fill="#666666">[int(11) unsigned]</text>
<polygon fill="none" stroke="#000000" points="262,-1972.5 262,-2002.5 555,-2002.5 555,-1972.5 262,-1972.5"/>
<text text-anchor="start" x="269" y="-1983.9" font-family="Arial" font-size="14.00" fill="#000000">facility_id </text>
<text text-anchor="start" x="330.446" y="-1983.9" font-family="Arial" font-size="14.00" fill="#666666">[int(11) unsigned]</text>
<polygon fill="none" stroke="#000000" stroke-width="3" points="260,-1971.5 260,-2099.5 556,-2099.5 556,-1971.5 260,-1971.5"/>
</g>
<!-- sk_rooms -->
<g id="node2" class="node">
<title>sk_rooms</title>
<polygon fill="#efefef" stroke="transparent" points="54,-1812.5 54,-1847.5 366,-1847.5 366,-1812.5 54,-1812.5"/>
<polygon fill="none" stroke="#000000" points="54,-1812.5 54,-1847.5 366,-1847.5 366,-1812.5 54,-1812.5"/>
<text text-anchor="start" x="107.2145" y="-1825.3" font-family="Arial Bold" font-size="18.00" fill="#000000">sk_rooms</text>
<text text-anchor="start" x="185.2175" y="-1825.3" font-family="Arial" font-size="14.00" fill="#000000">    </text>
<text text-anchor="start" x="219.4223" y="-1825.3" font-family="Arial" font-size="14.00" fill="#666666">[BASE TABLE]</text>
<polygon fill="none" stroke="#000000" points="54,-1782.5 54,-1812.5 366,-1812.5 366,-1782.5 54,-1782.5"/>
<text text-anchor="start" x="61" y="-1793.9" font-family="Arial" font-size="14.00" fill="#000000">id    </text>
<text text-anchor="start" x="106.094" y="-1793.9" font-family="Arial" font-size="14.00" fill="#666666">[int(11) unsigned]</text>
<polygon fill="none" stroke="#000000" points="54,-1752.5 54,-1782.5 366,-1782.5 366,-1752.5 54,-1752.5"/>
<text text-anchor="start" x="61" y="-1763.9" font-family="Arial" font-size="14.00" fill="#000000">is_deleted    </text>
<text text-anchor="start" x="159.0042" y="-1763.9" font-family="Arial" font-size="14.00" fill="#666666">[tinyint(1)]</text>
<polygon fill="none" stroke="#000000" points="54,-1722.5 54,-1752.5 366,-1752.5 366,-1722.5 54,-1722.5"/>
<text text-anchor="start" x="61" y="-1733.9" font-family="Arial" font-size="14.00" fill="#000000">is_public    </text>
<text text-anchor="start" x="149.655" y="-1733.9" font-family="Arial" font-size="14.00" fill="#666666">[tinyint(1)]</text>
<polygon fill="none" stroke="#000000" points="54,-1692.5 54,-1722.5 366,-1722.5 366,-1692.5 54,-1692.5"/>
<text text-anchor="start" x="61" y="-1703.9" font-family="Arial" font-size="14.00" fill="#000000">is_set    </text>
<text text-anchor="start" x="131.7672" y="-1703.9" font-family="Arial" font-size="14.00" fill="#666666">[tinyint(1)]</text>
<polygon fill="none" stroke="#000000" points="54,-1662.5 54,-1692.5 366,-1692.5 366,-1662.5 54,-1662.5"/>
<text text-anchor="start" x="61" y="-1673.9" font-family="Arial" font-size="14.00" fill="#000000">property_id    </text>
<text text-anchor="start" x="165.2188" y="-1673.9" font-family="Arial" font-size="14.00" fill="#666666">[int(11) unsigned]</text>
<polygon fill="none" stroke="#000000" points="54,-1632.5 54,-1662.5 366,-1662.5 366,-1632.5 54,-1632.5"/>
<text text-anchor="start" x="61" y="-1643.9" font-family="Arial" font-size="14.00" fill="#000000">lessor_id    </text>
<text text-anchor="start" x="151.209" y="-1643.9" font-family="Arial" font-size="14.00" fill="#666666">[int(11) unsigned]</text>
<polygon fill="none" stroke="#000000" points="54,-1602.5 54,-1632.5 366,-1632.5 366,-1602.5 54,-1602.5"/>
<text text-anchor="start" x="61" y="-1613.9" font-family="Arial" font-size="14.00" fill="#000000">name    </text>
<text text-anchor="start" x="130.2132" y="-1613.9" font-family="Arial" font-size="14.00" fill="#666666">[varchar(200)]</text>
<polygon fill="none" stroke="#000000" points="54,-1572.5 54,-1602.5 366,-1602.5 366,-1572.5 54,-1572.5"/>
<text text-anchor="start" x="61" y="-1583.9" font-family="Arial" font-size="14.00" fill="#000000">voice_name    </text>
<text text-anchor="start" x="170.6676" y="-1583.9" font-family="Arial" font-size="14.00" fill="#666666">[varchar(200)]</text>
<polygon fill="none" stroke="#000000" points="54,-1542.5 54,-1572.5 366,-1572.5 366,-1542.5 54,-1542.5"/>
<text text-anchor="start" x="61" y="-1553.9" font-family="Arial" font-size="14.00" fill="#000000">description_url    </text>
<text text-anchor="start" x="186.2146" y="-1553.9" font-family="Arial" font-size="14.00" fill="#666666">[varchar(1000)]</text>
<polygon fill="none" stroke="#000000" points="54,-1512.5 54,-1542.5 366,-1542.5 366,-1512.5 54,-1512.5"/>
<text text-anchor="start" x="61" y="-1523.9" font-family="Arial" font-size="14.00" fill="#000000">exclusive_area    </text>
<text text-anchor="start" x="188.5568" y="-1523.9" font-family="Arial" font-size="14.00" fill="#666666">[decimal(10,2)]</text>
<polygon fill="none" stroke="#000000" points="54,-1482.5 54,-1512.5 366,-1512.5 366,-1482.5 54,-1482.5"/>
<text text-anchor="start" x="61" y="-1493.9" font-family="Arial" font-size="14.00" fill="#000000">ceiling_height    </text>
<text text-anchor="start" x="180.7826" y="-1493.9" font-family="Arial" font-size="14.00" fill="#666666">[decimal(10,2)]</text>
<polygon fill="none" stroke="#000000" points="54,-1452.5 54,-1482.5 366,-1482.5 366,-1452.5 54,-1452.5"/>
<text text-anchor="start" x="61" y="-1463.9" font-family="Arial" font-size="14.00" fill="#000000">floor    </text>
<text text-anchor="start" x="122.4278" y="-1463.9" font-family="Arial" font-size="14.00" fill="#666666">[smallint(5)]</text>
<polygon fill="none" stroke="#000000" points="54,-1422.5 54,-1452.5 366,-1452.5 366,-1422.5 54,-1422.5"/>
<text text-anchor="start" x="61" y="-1433.9" font-family="Arial" font-size="14.00" fill="#000000">minimum_time    </text>
<text text-anchor="start" x="186.188" y="-1433.9" font-family="Arial" font-size="14.00" fill="#666666">[time]</text>
<polygon fill="none" stroke="#000000" points="54,-1392.5 54,-1422.5 366,-1422.5 366,-1392.5 54,-1392.5"/>
<text text-anchor="start" x="61" y="-1403.9" font-family="Arial" font-size="14.00" fill="#000000">maximum_time    </text>
<text text-anchor="start" x="190.0814" y="-1403.9" font-family="Arial" font-size="14.00" fill="#666666">[time]</text>
<polygon fill="none" stroke="#000000" points="54,-1362.5 54,-1392.5 366,-1392.5 366,-1362.5 54,-1362.5"/>
<text text-anchor="start" x="61" y="-1373.9" font-family="Arial" font-size="14.00" fill="#000000">start_date    </text>
<text text-anchor="start" x="157.4502" y="-1373.9" font-family="Arial" font-size="14.00" fill="#666666">[date]</text>
<polygon fill="none" stroke="#000000" points="54,-1332.5 54,-1362.5 366,-1362.5 366,-1332.5 54,-1332.5"/>
<text text-anchor="start" x="61" y="-1343.9" font-family="Arial" font-size="14.00" fill="#000000">end_date    </text>
<text text-anchor="start" x="153.5736" y="-1343.9" font-family="Arial" font-size="14.00" fill="#666666">[date]</text>
<polygon fill="none" stroke="#000000" points="54,-1302.5 54,-1332.5 366,-1332.5 366,-1302.5 54,-1302.5"/>
<text text-anchor="start" x="61" y="-1313.9" font-family="Arial" font-size="14.00" fill="#000000">is_ninjalock    </text>
<text text-anchor="start" x="167.5442" y="-1313.9" font-family="Arial" font-size="14.00" fill="#666666">[tinyint(1)]</text>
<polygon fill="none" stroke="#000000" points="54,-1272.5 54,-1302.5 366,-1302.5 366,-1272.5 54,-1272.5"/>
<text text-anchor="start" x="61" y="-1283.9" font-family="Arial" font-size="14.00" fill="#000000">is_display_entrance_note    </text>
<text text-anchor="start" x="253.9228" y="-1283.9" font-family="Arial" font-size="14.00" fill="#666666">[tinyint(1)]</text>
<polygon fill="none" stroke="#000000" points="54,-1242.5 54,-1272.5 366,-1272.5 366,-1242.5 54,-1242.5"/>
<text text-anchor="start" x="60.6487" y="-1253.9" font-family="Arial" font-size="14.00" fill="#000000">is_using_custom_business_hour    </text>
<text text-anchor="start" x="297.9067" y="-1253.9" font-family="Arial" font-size="14.00" fill="#666666">[tinyint(1)]</text>
<polygon fill="none" stroke="#000000" points="54,-1212.5 54,-1242.5 366,-1242.5 366,-1212.5 54,-1212.5"/>
<text text-anchor="start" x="61" y="-1223.9" font-family="Arial" font-size="14.00" fill="#000000">has_local_area_network    </text>
<text text-anchor="start" x="246.9102" y="-1223.9" font-family="Arial" font-size="14.00" fill="#666666">[tinyint(1)]</text>
<polygon fill="none" stroke="#000000" points="54,-1182.5 54,-1212.5 366,-1212.5 366,-1182.5 54,-1182.5"/>
<text text-anchor="start" x="61" y="-1193.9" font-family="Arial" font-size="14.00" fill="#000000">basic_price    </text>
<text text-anchor="start" x="165.9916" y="-1193.9" font-family="Arial" font-size="14.00" fill="#666666">[int(11) unsigned]</text>
<polygon fill="none" stroke="#000000" points="54,-1152.5 54,-1182.5 366,-1182.5 366,-1152.5 54,-1152.5"/>
<text text-anchor="start" x="61" y="-1163.9" font-family="Arial" font-size="14.00" fill="#000000">extend_price    </text>
<text text-anchor="start" x="175.3408" y="-1163.9" font-family="Arial" font-size="14.00" fill="#666666">[int(11)]</text>
<polygon fill="none" stroke="#000000" points="54,-1122.5 54,-1152.5 366,-1152.5 366,-1122.5 54,-1122.5"/>
<text text-anchor="start" x="61" y="-1133.9" font-family="Arial" font-size="14.00" fill="#000000">max_price    </text>
<text text-anchor="start" x="159.763" y="-1133.9" font-family="Arial" font-size="14.00" fill="#666666">[int(11)]</text>
<polygon fill="none" stroke="#000000" points="54,-1092.5 54,-1122.5 366,-1122.5 366,-1092.5 54,-1092.5"/>
<text text-anchor="start" x="61" y="-1103.9" font-family="Arial" font-size="14.00" fill="#000000">memo    </text>
<text text-anchor="start" x="134.0912" y="-1103.9" font-family="Arial" font-size="14.00" fill="#666666">[varchar(2000)]</text>
<polygon fill="none" stroke="#000000" points="54,-1062.5 54,-1092.5 366,-1092.5 366,-1062.5 54,-1062.5"/>
<text text-anchor="start" x="61" y="-1073.9" font-family="Arial" font-size="14.00" fill="#000000">floor_position    </text>
<text text-anchor="start" x="178.4446" y="-1073.9" font-family="Arial" font-size="14.00" fill="#666666">[smallint(5)]</text>
<polygon fill="none" stroke="#000000" points="54,-1032.5 54,-1062.5 366,-1062.5 366,-1032.5 54,-1032.5"/>
<text text-anchor="start" x="61" y="-1043.9" font-family="Arial" font-size="14.00" fill="#000000">is_tablet_linked    </text>
<text text-anchor="start" x="191.6732" y="-1043.9" font-family="Arial" font-size="14.00" fill="#666666">[int(11)]</text>
<polygon fill="none" stroke="#000000" points="54,-1002.5 54,-1032.5 366,-1032.5 366,-1002.5 54,-1002.5"/>
<text text-anchor="start" x="61" y="-1013.9" font-family="Arial" font-size="14.00" fill="#000000">batch_mail    </text>
<text text-anchor="start" x="162.8822" y="-1013.9" font-family="Arial" font-size="14.00" fill="#666666">[int(11)]</text>
<polygon fill="none" stroke="#000000" points="54,-972.5 54,-1002.5 366,-1002.5 366,-972.5 54,-972.5"/>
<text text-anchor="start" x="61" y="-983.9" font-family="Arial" font-size="14.00" fill="#000000">batch_mail_owner    </text>
<text text-anchor="start" x="208.7798" y="-983.9" font-family="Arial" font-size="14.00" fill="#666666">[int(11)]</text>
<polygon fill="none" stroke="#000000" points="54,-942.5 54,-972.5 366,-972.5 366,-942.5 54,-942.5"/>
<text text-anchor="start" x="61" y="-953.9" font-family="Arial" font-size="14.00" fill="#000000">guide_text    </text>
<text text-anchor="start" x="159.7882" y="-953.9" font-family="Arial" font-size="14.00" fill="#666666">[text]</text>
<polygon fill="none" stroke="#000000" points="54,-912.5 54,-942.5 366,-942.5 366,-912.5 54,-912.5"/>
<text text-anchor="start" x="61" y="-923.9" font-family="Arial" font-size="14.00" fill="#000000">eating_text    </text>
<text text-anchor="start" x="163.6788" y="-923.9" font-family="Arial" font-size="14.00" fill="#666666">[varchar(1000)]</text>
<polygon fill="none" stroke="#000000" points="54,-882.5 54,-912.5 366,-912.5 366,-882.5 54,-882.5"/>
<text text-anchor="start" x="61" y="-893.9" font-family="Arial" font-size="14.00" fill="#000000">cleanup_text    </text>
<text text-anchor="start" x="174.5708" y="-893.9" font-family="Arial" font-size="14.00" fill="#666666">[varchar(1000)]</text>
<polygon fill="none" stroke="#000000" points="54,-852.5 54,-882.5 366,-882.5 366,-852.5 54,-852.5"/>
<text text-anchor="start" x="61" y="-863.9" font-family="Arial" font-size="14.00" fill="#000000">facility_text    </text>
<text text-anchor="start" x="164.4348" y="-863.9" font-family="Arial" font-size="14.00" fill="#666666">[varchar(1000)]</text>
<polygon fill="none" stroke="#000000" points="54,-822.5 54,-852.5 366,-852.5 366,-822.5 54,-822.5"/>
<text text-anchor="start" x="61" y="-833.9" font-family="Arial" font-size="14.00" fill="#000000">change_layout    </text>
<text text-anchor="start" x="186.2454" y="-833.9" font-family="Arial" font-size="14.00" fill="#666666">[smallint(2)]</text>
<polygon fill="none" stroke="#000000" points="54,-792.5 54,-822.5 366,-822.5 366,-792.5 54,-792.5"/>
<text text-anchor="start" x="61" y="-803.9" font-family="Arial" font-size="14.00" fill="#000000">reservation_unit_an_hour    </text>
<text text-anchor="start" x="253.92" y="-803.9" font-family="Arial" font-size="14.00" fill="#666666">[tinyint(1)]</text>
<polygon fill="none" stroke="#000000" points="54,-762.5 54,-792.5 366,-792.5 366,-762.5 54,-762.5"/>
<text text-anchor="start" x="61" y="-773.9" font-family="Arial" font-size="14.00" fill="#000000">payment_period    </text>
<text text-anchor="start" x="195.5666" y="-773.9" font-family="Arial" font-size="14.00" fill="#666666">[int(11)]</text>
<polygon fill="none" stroke="#000000" points="54,-732.5 54,-762.5 366,-762.5 366,-732.5 54,-732.5"/>
<text text-anchor="start" x="61" y="-743.9" font-family="Arial" font-size="14.00" fill="#000000">sort_order    </text>
<text text-anchor="start" x="158.9902" y="-743.9" font-family="Arial" font-size="14.00" fill="#666666">[int(11)]</text>
<polygon fill="none" stroke="#000000" points="54,-702.5 54,-732.5 366,-732.5 366,-702.5 54,-702.5"/>
<text text-anchor="start" x="61" y="-713.9" font-family="Arial" font-size="14.00" fill="#000000">allow_tentative    </text>
<text text-anchor="start" x="187.7812" y="-713.9" font-family="Arial" font-size="14.00" fill="#666666">[tinyint(1)]</text>
<polygon fill="none" stroke="#000000" points="54,-672.5 54,-702.5 366,-702.5 366,-672.5 54,-672.5"/>
<text text-anchor="start" x="61" y="-683.9" font-family="Arial" font-size="14.00" fill="#000000">allow_change_reserved    </text>
<text text-anchor="start" x="243.0196" y="-683.9" font-family="Arial" font-size="14.00" fill="#666666">[tinyint(1)]</text>
<polygon fill="none" stroke="#000000" points="54,-642.5 54,-672.5 366,-672.5 366,-642.5 54,-642.5"/>
<text text-anchor="start" x="61" y="-653.9" font-family="Arial" font-size="14.00" fill="#000000">allow_extend_reservation    </text>
<text text-anchor="start" x="253.9074" y="-653.9" font-family="Arial" font-size="14.00" fill="#666666">[tinyint(1)]</text>
<polygon fill="none" stroke="#000000" points="54,-612.5 54,-642.5 366,-642.5 366,-612.5 54,-612.5"/>
<text text-anchor="start" x="61" y="-623.9" font-family="Arial" font-size="14.00" fill="#000000">change_reserved_limit_date    </text>
<text text-anchor="start" x="271.0266" y="-623.9" font-family="Arial" font-size="14.00" fill="#666666">[int(11)]</text>
<polygon fill="none" stroke="#000000" points="54,-582.5 54,-612.5 366,-612.5 366,-582.5 54,-582.5"/>
<text text-anchor="start" x="61" y="-593.9" font-family="Arial" font-size="14.00" fill="#000000">tentative_period    </text>
<text text-anchor="start" x="194.7938" y="-593.9" font-family="Arial" font-size="14.00" fill="#666666">[int(11)]</text>
<polygon fill="none" stroke="#000000" points="54,-552.5 54,-582.5 366,-582.5 366,-552.5 54,-552.5"/>
<text text-anchor="start" x="61" y="-563.9" font-family="Arial" font-size="14.00" fill="#000000">tentative_limit_date    </text>
<text text-anchor="start" x="215.7882" y="-563.9" font-family="Arial" font-size="14.00" fill="#666666">[int(11)]</text>
<polygon fill="none" stroke="#000000" points="54,-522.5 54,-552.5 366,-552.5 366,-522.5 54,-522.5"/>
<text text-anchor="start" x="61" y="-533.9" font-family="Arial" font-size="14.00" fill="#000000">include_tax    </text>
<text text-anchor="start" x="166.0042" y="-533.9" font-family="Arial" font-size="14.00" fill="#666666">[tinyint(1)]</text>
<polygon fill="none" stroke="#000000" points="54,-492.5 54,-522.5 366,-522.5 366,-492.5 54,-492.5"/>
<text text-anchor="start" x="61" y="-503.9" font-family="Arial" font-size="14.00" fill="#000000">ninjalock_serial    </text>
<text text-anchor="start" x="190.8766" y="-503.9" font-family="Arial" font-size="14.00" fill="#666666">[varchar(24)]</text>
<polygon fill="none" stroke="#000000" points="54,-462.5 54,-492.5 366,-492.5 366,-462.5 54,-462.5"/>
<text text-anchor="start" x="61" y="-473.9" font-family="Arial" font-size="14.00" fill="#000000">created_datetime    </text>
<text text-anchor="start" x="203.3478" y="-473.9" font-family="Arial" font-size="14.00" fill="#666666">[timestamp]</text>
<polygon fill="none" stroke="#000000" points="54,-432.5 54,-462.5 366,-462.5 366,-432.5 54,-432.5"/>
<text text-anchor="start" x="61" y="-443.9" font-family="Arial" font-size="14.00" fill="#000000">updated_datetime    </text>
<text text-anchor="start" x="207.2524" y="-443.9" font-family="Arial" font-size="14.00" fill="#666666">[timestamp]</text>
<polygon fill="none" stroke="#000000" points="54,-402.5 54,-432.5 366,-432.5 366,-402.5 54,-402.5"/>
<text text-anchor="start" x="61" y="-413.9" font-family="Arial" font-size="14.00" fill="#000000">start_reservable_time    </text>
<text text-anchor="start" x="229.7756" y="-413.9" font-family="Arial" font-size="14.00" fill="#666666">[smallint(3)]</text>
<polygon fill="none" stroke="#000000" points="54,-372.5 54,-402.5 366,-402.5 366,-372.5 54,-372.5"/>
<text text-anchor="start" x="61" y="-383.9" font-family="Arial" font-size="14.00" fill="#000000">end_reservable_time    </text>
<text text-anchor="start" x="225.899" y="-383.9" font-family="Arial" font-size="14.00" fill="#666666">[smallint(3)]</text>
<polygon fill="none" stroke="#000000" points="54,-342.5 54,-372.5 366,-372.5 366,-342.5 54,-342.5"/>
<text text-anchor="start" x="61" y="-353.9" font-family="Arial" font-size="14.00" fill="#000000">is_set_reservable_time    </text>
<text text-anchor="start" x="239.1136" y="-353.9" font-family="Arial" font-size="14.00" fill="#666666">[tinyint(1)]</text>
<polygon fill="none" stroke="#000000" points="54,-312.5 54,-342.5 366,-342.5 366,-312.5 54,-312.5"/>
<text text-anchor="start" x="61" y="-323.9" font-family="Arial" font-size="14.00" fill="#000000">is_buffer_time_setting_enabled    </text>
<text text-anchor="start" x="289.7096" y="-323.9" font-family="Arial" font-size="14.00" fill="#666666">[tinyint(1)]</text>
<polygon fill="none" stroke="#000000" points="54,-282.5 54,-312.5 366,-312.5 366,-282.5 54,-282.5"/>
<text text-anchor="start" x="61" y="-293.9" font-family="Arial" font-size="14.00" fill="#000000">buffer_time    </text>
<text text-anchor="start" x="165.2174" y="-293.9" font-family="Arial" font-size="14.00" fill="#666666">[time]</text>
<polygon fill="none" stroke="#000000" points="54,-252.5 54,-282.5 366,-282.5 366,-252.5 54,-252.5"/>
<text text-anchor="start" x="61" y="-263.9" font-family="Arial" font-size="14.00" fill="#000000">buffer_time_control    </text>
<text text-anchor="start" x="215.0056" y="-263.9" font-family="Arial" font-size="14.00" fill="#666666">[smallint(3)]</text>
<polygon fill="none" stroke="#000000" points="54,-222.5 54,-252.5 366,-252.5 366,-222.5 54,-222.5"/>
<text text-anchor="start" x="61" y="-233.9" font-family="Arial" font-size="14.00" fill="#000000">is_one_day_rental_enabled    </text>
<text text-anchor="start" x="267.1626" y="-233.9" font-family="Arial" font-size="14.00" fill="#666666">[tinyint(1)]</text>
<polygon fill="none" stroke="#000000" points="54,-192.5 54,-222.5 366,-222.5 366,-192.5 54,-192.5"/>
<text text-anchor="start" x="61" y="-203.9" font-family="Arial" font-size="14.00" fill="#000000">owner_buffer_time    </text>
<text text-anchor="start" x="211.115" y="-203.9" font-family="Arial" font-size="14.00" fill="#666666">[time]</text>
<polygon fill="none" stroke="#000000" points="54,-162.5 54,-192.5 366,-192.5 366,-162.5 54,-162.5"/>
<text text-anchor="start" x="61" y="-173.9" font-family="Arial" font-size="14.00" fill="#000000">external_buffer_time    </text>
<text text-anchor="start" x="222.7882" y="-173.9" font-family="Arial" font-size="14.00" fill="#666666">[time]</text>
<polygon fill="none" stroke="#000000" points="54,-132.5 54,-162.5 366,-162.5 366,-132.5 54,-132.5"/>
<text text-anchor="start" x="61" y="-143.9" font-family="Arial" font-size="14.00" fill="#000000">owner_buffer_time_control    </text>
<text text-anchor="start" x="260.9032" y="-143.9" font-family="Arial" font-size="14.00" fill="#666666">[smallint(3)]</text>
<polygon fill="none" stroke="#000000" points="54,-102.5 54,-132.5 366,-132.5 366,-102.5 54,-102.5"/>
<text text-anchor="start" x="61" y="-113.9" font-family="Arial" font-size="14.00" fill="#000000">external_buffer_time_control    </text>
<text text-anchor="start" x="272.5764" y="-113.9" font-family="Arial" font-size="14.00" fill="#666666">[smallint(3)]</text>
<polygon fill="none" stroke="#000000" points="54,-72.5 54,-102.5 366,-102.5 366,-72.5 54,-72.5"/>
<text text-anchor="start" x="61" y="-83.9" font-family="Arial" font-size="14.00" fill="#000000">is_lottery_setting_enabled    </text>
<text text-anchor="start" x="257.8106" y="-83.9" font-family="Arial" font-size="14.00" fill="#666666">[tinyint(1)]</text>
<polygon fill="none" stroke="#000000" points="54,-42.5 54,-72.5 366,-72.5 366,-42.5 54,-42.5"/>
<text text-anchor="start" x="61" y="-53.9" font-family="Arial" font-size="14.00" fill="#000000">lottery_period    </text>
<text text-anchor="start" x="179.9986" y="-53.9" font-family="Arial" font-size="14.00" fill="#666666">[int(5)]</text>
</g>
<!-- sk_rooms_facilities&#45;&gt;sk_rooms -->
<g id="edge1" class="edge">
<title>sk_rooms_facilities:room_id&#45;&gt;sk_rooms:id</title>
<path fill="none" stroke="#000000" d="M251.803,-2015.9252C225.1384,-2006.4617 240.9479,-1956.5649 262,-1927 290.3715,-1887.1559 337.6285,-1930.8441 366,-1891 390.1038,-1857.1493 407.5556,-1797.5 366,-1797.5"/>
<polygon fill="#000000" stroke="#000000" points="252.1172,-2015.9736 261.3131,-2021.9473 257.0586,-2016.7368 262,-2017.5 262,-2017.5 262,-2017.5 257.0586,-2016.7368 262.6869,-2013.0527 252.1172,-2015.9736 252.1172,-2015.9736"/>
<text text-anchor="start" x="6.8365" y="-2027.5" font-family="Arial" font-size="10.00" fill="#000000">FOREIGN KEY (room_id) REFERENCES sk_rooms (id)</text>
</g>
<!-- sk_facilities -->
<g id="node3" class="node">
<title>sk_facilities</title>
<polygon fill="#efefef" stroke="transparent" points="470,-1122.5 470,-1157.5 748,-1157.5 748,-1122.5 470,-1122.5"/>
<polygon fill="none" stroke="#000000" points="470,-1122.5 470,-1157.5 748,-1157.5 748,-1122.5 470,-1122.5"/>
<text text-anchor="start" x="499.2161" y="-1135.3" font-family="Arial Bold" font-size="18.00" fill="#000000">sk_facilities</text>
<text text-anchor="start" x="591.2159" y="-1135.3" font-family="Arial" font-size="14.00" fill="#000000">    </text>
<text text-anchor="start" x="625.4207" y="-1135.3" font-family="Arial" font-size="14.00" fill="#666666">[BASE TABLE]</text>
<polygon fill="none" stroke="#000000" points="470,-1092.5 470,-1122.5 748,-1122.5 748,-1092.5 470,-1092.5"/>
<text text-anchor="start" x="477" y="-1103.9" font-family="Arial" font-size="14.00" fill="#000000">id    </text>
<text text-anchor="start" x="522.094" y="-1103.9" font-family="Arial" font-size="14.00" fill="#666666">[int(11) unsigned]</text>
<polygon fill="none" stroke="#000000" points="470,-1062.5 470,-1092.5 748,-1092.5 748,-1062.5 470,-1062.5"/>
<text text-anchor="start" x="477" y="-1073.9" font-family="Arial" font-size="14.00" fill="#000000">is_deleted    </text>
<text text-anchor="start" x="575.0042" y="-1073.9" font-family="Arial" font-size="14.00" fill="#666666">[tinyint(1)]</text>
<polygon fill="none" stroke="#000000" points="470,-1032.5 470,-1062.5 748,-1062.5 748,-1032.5 470,-1032.5"/>
<text text-anchor="start" x="477" y="-1043.9" font-family="Arial" font-size="14.00" fill="#000000">property_id    </text>
<text text-anchor="start" x="581.2188" y="-1043.9" font-family="Arial" font-size="14.00" fill="#666666">[int(11) unsigned]</text>
<polygon fill="none" stroke="#000000" points="470,-1002.5 470,-1032.5 748,-1032.5 748,-1002.5 470,-1002.5"/>
<text text-anchor="start" x="477" y="-1013.9" font-family="Arial" font-size="14.00" fill="#000000">lessor_id    </text>
<text text-anchor="start" x="567.209" y="-1013.9" font-family="Arial" font-size="14.00" fill="#666666">[int(11) unsigned]</text>
<polygon fill="none" stroke="#000000" points="470,-972.5 470,-1002.5 748,-1002.5 748,-972.5 470,-972.5"/>
<text text-anchor="start" x="477" y="-983.9" font-family="Arial" font-size="14.00" fill="#000000">name    </text>
<text text-anchor="start" x="546.2132" y="-983.9" font-family="Arial" font-size="14.00" fill="#666666">[varchar(200)]</text>
<polygon fill="none" stroke="#000000" points="470,-942.5 470,-972.5 748,-972.5 748,-942.5 470,-942.5"/>
<text text-anchor="start" x="477" y="-953.9" font-family="Arial" font-size="14.00" fill="#000000">is_all_rooms    </text>
<text text-anchor="start" x="589.7588" y="-953.9" font-family="Arial" font-size="14.00" fill="#666666">[tinyint(1)]</text>
<polygon fill="none" stroke="#000000" points="470,-912.5 470,-942.5 748,-942.5 748,-912.5 470,-912.5"/>
<text text-anchor="start" x="476.7651" y="-923.9" font-family="Arial" font-size="14.00" fill="#000000">facility_image_id    </text>
<text text-anchor="start" x="614.4229" y="-923.9" font-family="Arial" font-size="14.00" fill="#666666">[bigint(21) unsigned]</text>
<polygon fill="none" stroke="#000000" points="470,-882.5 470,-912.5 748,-912.5 748,-882.5 470,-882.5"/>
<text text-anchor="start" x="477" y="-893.9" font-family="Arial" font-size="14.00" fill="#000000">is_ninjalock    </text>
<text text-anchor="start" x="583.5442" y="-893.9" font-family="Arial" font-size="14.00" fill="#666666">[tinyint(1)]</text>
<polygon fill="none" stroke="#000000" points="470,-852.5 470,-882.5 748,-882.5 748,-852.5 470,-852.5"/>
<text text-anchor="start" x="477" y="-863.9" font-family="Arial" font-size="14.00" fill="#000000">is_tablet_linked    </text>
<text text-anchor="start" x="607.6732" y="-863.9" font-family="Arial" font-size="14.00" fill="#666666">[int(11)]</text>
<polygon fill="none" stroke="#000000" points="470,-822.5 470,-852.5 748,-852.5 748,-822.5 470,-822.5"/>
<text text-anchor="start" x="477" y="-833.9" font-family="Arial" font-size="14.00" fill="#000000">batch_mail    </text>
<text text-anchor="start" x="578.8822" y="-833.9" font-family="Arial" font-size="14.00" fill="#666666">[int(11)]</text>
<polygon fill="none" stroke="#000000" points="470,-792.5 470,-822.5 748,-822.5 748,-792.5 470,-792.5"/>
<text text-anchor="start" x="477" y="-803.9" font-family="Arial" font-size="14.00" fill="#000000">batch_mail_owner    </text>
<text text-anchor="start" x="624.7798" y="-803.9" font-family="Arial" font-size="14.00" fill="#666666">[int(11)]</text>
<polygon fill="none" stroke="#000000" points="470,-762.5 470,-792.5 748,-792.5 748,-762.5 470,-762.5"/>
<text text-anchor="start" x="477" y="-773.9" font-family="Arial" font-size="14.00" fill="#000000">is_ninjaentrance    </text>
<text text-anchor="start" x="613.1192" y="-773.9" font-family="Arial" font-size="14.00" fill="#666666">[int(11)]</text>
<polygon fill="none" stroke="#000000" points="470,-732.5 470,-762.5 748,-762.5 748,-732.5 470,-732.5"/>
<text text-anchor="start" x="477" y="-743.9" font-family="Arial" font-size="14.00" fill="#000000">ninjaentrance_serial    </text>
<text text-anchor="start" x="636.4516" y="-743.9" font-family="Arial" font-size="14.00" fill="#666666">[varchar(30)]</text>
</g>
<!-- sk_rooms_facilities&#45;&gt;sk_facilities -->
<g id="edge2" class="edge">
<title>sk_rooms_facilities:facility_id&#45;&gt;sk_facilities:id</title>
<path fill="none" stroke="#000000" d="M564.9959,-1986.6487C734.4168,-1955.9904 277.0837,-1107.5 470,-1107.5"/>
<polygon fill="#000000" stroke="#000000" points="564.9639,-1986.6513 554.6181,-1983.0162 559.982,-1987.0757 555,-1987.5 555,-1987.5 555,-1987.5 559.982,-1987.0757 555.3819,-1991.9838 564.9639,-1986.6513 564.9639,-1986.6513"/>
<text text-anchor="start" x="562.4495" y="-1997.5" font-family="Arial" font-size="10.00" fill="#000000">FOREIGN KEY (facility_id) REFERENCES sk_facilities (id)</text>
</g>
</g>
</svg>
