<?xml version="1.0" encoding="UTF-8" standalone="no"?>
<!DOCTYPE svg PUBLIC "-//W3C//DTD SVG 1.1//EN"
 "http://www.w3.org/Graphics/SVG/1.1/DTD/svg11.dtd">
<!-- Generated by graphviz version 2.40.1 (20161225.0304)
 -->
<!-- Title: sk_room_business_hour_others Pages: 1 -->
<svg width="714pt" height="2242pt"
 viewBox="0.00 0.00 713.50 2242.00" xmlns="http://www.w3.org/2000/svg" xmlns:xlink="http://www.w3.org/1999/xlink">
<g id="graph0" class="graph" transform="scale(1 1) rotate(0) translate(4 2238)">
<title>sk_room_business_hour_others</title>
<polygon fill="#ffffff" stroke="transparent" points="-4,4 -4,-2238 709.5,-2238 709.5,4 -4,4"/>
<!-- sk_room_business_hour_others -->
<g id="node1" class="node">
<title>sk_room_business_hour_others</title>
<polygon fill="#efefef" stroke="transparent" points="46.5,-2152.5 46.5,-2187.5 443.5,-2187.5 443.5,-2152.5 46.5,-2152.5"/>
<polygon fill="none" stroke="#000000" points="46.5,-2152.5 46.5,-2187.5 443.5,-2187.5 443.5,-2152.5 46.5,-2152.5"/>
<text text-anchor="start" x="53.1838" y="-2165.3" font-family="Arial Bold" font-size="18.00" fill="#000000">sk_room_business_hour_others</text>
<text text-anchor="start" x="309.2482" y="-2165.3" font-family="Arial" font-size="14.00" fill="#000000">    </text>
<text text-anchor="start" x="343.453" y="-2165.3" font-family="Arial" font-size="14.00" fill="#666666">[BASE TABLE]</text>
<polygon fill="none" stroke="#000000" points="46.5,-2122.5 46.5,-2152.5 443.5,-2152.5 443.5,-2122.5 46.5,-2122.5"/>
<text text-anchor="start" x="53.5" y="-2133.9" font-family="Arial" font-size="14.00" fill="#000000">id </text>
<text text-anchor="start" x="68.2798" y="-2133.9" font-family="Arial" font-size="14.00" fill="#666666">[int(11)]</text>
<polygon fill="none" stroke="#000000" points="46.5,-2092.5 46.5,-2122.5 443.5,-2122.5 443.5,-2092.5 46.5,-2092.5"/>
<text text-anchor="start" x="53.5" y="-2103.9" font-family="Arial" font-size="14.00" fill="#000000">room_id </text>
<text text-anchor="start" x="107.9488" y="-2103.9" font-family="Arial" font-size="14.00" fill="#666666">[int(11) unsigned]</text>
<polygon fill="none" stroke="#000000" points="46.5,-2062.5 46.5,-2092.5 443.5,-2092.5 443.5,-2062.5 46.5,-2062.5"/>
<text text-anchor="start" x="53.5" y="-2073.9" font-family="Arial" font-size="14.00" fill="#000000">business_type </text>
<text text-anchor="start" x="146.866" y="-2073.9" font-family="Arial" font-size="14.00" fill="#666666">[smallint(6)]</text>
<polygon fill="none" stroke="#000000" points="46.5,-2032.5 46.5,-2062.5 443.5,-2062.5 443.5,-2032.5 46.5,-2032.5"/>
<text text-anchor="start" x="53.5" y="-2043.9" font-family="Arial" font-size="14.00" fill="#000000">date </text>
<text text-anchor="start" x="84.629" y="-2043.9" font-family="Arial" font-size="14.00" fill="#666666">[date]</text>
<polygon fill="none" stroke="#000000" points="46.5,-2002.5 46.5,-2032.5 443.5,-2032.5 443.5,-2002.5 46.5,-2002.5"/>
<text text-anchor="start" x="53.5" y="-2013.9" font-family="Arial" font-size="14.00" fill="#000000">first_time </text>
<text text-anchor="start" x="114.162" y="-2013.9" font-family="Arial" font-size="14.00" fill="#666666">[time]</text>
<polygon fill="none" stroke="#000000" points="46.5,-1972.5 46.5,-2002.5 443.5,-2002.5 443.5,-1972.5 46.5,-1972.5"/>
<text text-anchor="start" x="53.5" y="-1983.9" font-family="Arial" font-size="14.00" fill="#000000">last_time </text>
<text text-anchor="start" x="113.3934" y="-1983.9" font-family="Arial" font-size="14.00" fill="#666666">[time]</text>
<polygon fill="none" stroke="#000000" stroke-width="3" points="44.5,-1971.5 44.5,-2189.5 444.5,-2189.5 444.5,-1971.5 44.5,-1971.5"/>
</g>
<!-- sk_rooms -->
<g id="node2" class="node">
<title>sk_rooms</title>
<polygon fill="#efefef" stroke="transparent" points="89.5,-1812.5 89.5,-1847.5 401.5,-1847.5 401.5,-1812.5 89.5,-1812.5"/>
<polygon fill="none" stroke="#000000" points="89.5,-1812.5 89.5,-1847.5 401.5,-1847.5 401.5,-1812.5 89.5,-1812.5"/>
<text text-anchor="start" x="142.7145" y="-1825.3" font-family="Arial Bold" font-size="18.00" fill="#000000">sk_rooms</text>
<text text-anchor="start" x="220.7175" y="-1825.3" font-family="Arial" font-size="14.00" fill="#000000">    </text>
<text text-anchor="start" x="254.9223" y="-1825.3" font-family="Arial" font-size="14.00" fill="#666666">[BASE TABLE]</text>
<polygon fill="none" stroke="#000000" points="89.5,-1782.5 89.5,-1812.5 401.5,-1812.5 401.5,-1782.5 89.5,-1782.5"/>
<text text-anchor="start" x="96.5" y="-1793.9" font-family="Arial" font-size="14.00" fill="#000000">id    </text>
<text text-anchor="start" x="141.594" y="-1793.9" font-family="Arial" font-size="14.00" fill="#666666">[int(11) unsigned]</text>
<polygon fill="none" stroke="#000000" points="89.5,-1752.5 89.5,-1782.5 401.5,-1782.5 401.5,-1752.5 89.5,-1752.5"/>
<text text-anchor="start" x="96.5" y="-1763.9" font-family="Arial" font-size="14.00" fill="#000000">is_deleted    </text>
<text text-anchor="start" x="194.5042" y="-1763.9" font-family="Arial" font-size="14.00" fill="#666666">[tinyint(1)]</text>
<polygon fill="none" stroke="#000000" points="89.5,-1722.5 89.5,-1752.5 401.5,-1752.5 401.5,-1722.5 89.5,-1722.5"/>
<text text-anchor="start" x="96.5" y="-1733.9" font-family="Arial" font-size="14.00" fill="#000000">is_public    </text>
<text text-anchor="start" x="185.155" y="-1733.9" font-family="Arial" font-size="14.00" fill="#666666">[tinyint(1)]</text>
<polygon fill="none" stroke="#000000" points="89.5,-1692.5 89.5,-1722.5 401.5,-1722.5 401.5,-1692.5 89.5,-1692.5"/>
<text text-anchor="start" x="96.5" y="-1703.9" font-family="Arial" font-size="14.00" fill="#000000">is_set    </text>
<text text-anchor="start" x="167.2672" y="-1703.9" font-family="Arial" font-size="14.00" fill="#666666">[tinyint(1)]</text>
<polygon fill="none" stroke="#000000" points="89.5,-1662.5 89.5,-1692.5 401.5,-1692.5 401.5,-1662.5 89.5,-1662.5"/>
<text text-anchor="start" x="96.5" y="-1673.9" font-family="Arial" font-size="14.00" fill="#000000">property_id    </text>
<text text-anchor="start" x="200.7188" y="-1673.9" font-family="Arial" font-size="14.00" fill="#666666">[int(11) unsigned]</text>
<polygon fill="none" stroke="#000000" points="89.5,-1632.5 89.5,-1662.5 401.5,-1662.5 401.5,-1632.5 89.5,-1632.5"/>
<text text-anchor="start" x="96.5" y="-1643.9" font-family="Arial" font-size="14.00" fill="#000000">lessor_id    </text>
<text text-anchor="start" x="186.709" y="-1643.9" font-family="Arial" font-size="14.00" fill="#666666">[int(11) unsigned]</text>
<polygon fill="none" stroke="#000000" points="89.5,-1602.5 89.5,-1632.5 401.5,-1632.5 401.5,-1602.5 89.5,-1602.5"/>
<text text-anchor="start" x="96.5" y="-1613.9" font-family="Arial" font-size="14.00" fill="#000000">name    </text>
<text text-anchor="start" x="165.7132" y="-1613.9" font-family="Arial" font-size="14.00" fill="#666666">[varchar(200)]</text>
<polygon fill="none" stroke="#000000" points="89.5,-1572.5 89.5,-1602.5 401.5,-1602.5 401.5,-1572.5 89.5,-1572.5"/>
<text text-anchor="start" x="96.5" y="-1583.9" font-family="Arial" font-size="14.00" fill="#000000">voice_name    </text>
<text text-anchor="start" x="206.1676" y="-1583.9" font-family="Arial" font-size="14.00" fill="#666666">[varchar(200)]</text>
<polygon fill="none" stroke="#000000" points="89.5,-1542.5 89.5,-1572.5 401.5,-1572.5 401.5,-1542.5 89.5,-1542.5"/>
<text text-anchor="start" x="96.5" y="-1553.9" font-family="Arial" font-size="14.00" fill="#000000">description_url    </text>
<text text-anchor="start" x="221.7146" y="-1553.9" font-family="Arial" font-size="14.00" fill="#666666">[varchar(1000)]</text>
<polygon fill="none" stroke="#000000" points="89.5,-1512.5 89.5,-1542.5 401.5,-1542.5 401.5,-1512.5 89.5,-1512.5"/>
<text text-anchor="start" x="96.5" y="-1523.9" font-family="Arial" font-size="14.00" fill="#000000">exclusive_area    </text>
<text text-anchor="start" x="224.0568" y="-1523.9" font-family="Arial" font-size="14.00" fill="#666666">[decimal(10,2)]</text>
<polygon fill="none" stroke="#000000" points="89.5,-1482.5 89.5,-1512.5 401.5,-1512.5 401.5,-1482.5 89.5,-1482.5"/>
<text text-anchor="start" x="96.5" y="-1493.9" font-family="Arial" font-size="14.00" fill="#000000">ceiling_height    </text>
<text text-anchor="start" x="216.2826" y="-1493.9" font-family="Arial" font-size="14.00" fill="#666666">[decimal(10,2)]</text>
<polygon fill="none" stroke="#000000" points="89.5,-1452.5 89.5,-1482.5 401.5,-1482.5 401.5,-1452.5 89.5,-1452.5"/>
<text text-anchor="start" x="96.5" y="-1463.9" font-family="Arial" font-size="14.00" fill="#000000">floor    </text>
<text text-anchor="start" x="157.9278" y="-1463.9" font-family="Arial" font-size="14.00" fill="#666666">[smallint(5)]</text>
<polygon fill="none" stroke="#000000" points="89.5,-1422.5 89.5,-1452.5 401.5,-1452.5 401.5,-1422.5 89.5,-1422.5"/>
<text text-anchor="start" x="96.5" y="-1433.9" font-family="Arial" font-size="14.00" fill="#000000">minimum_time    </text>
<text text-anchor="start" x="221.688" y="-1433.9" font-family="Arial" font-size="14.00" fill="#666666">[time]</text>
<polygon fill="none" stroke="#000000" points="89.5,-1392.5 89.5,-1422.5 401.5,-1422.5 401.5,-1392.5 89.5,-1392.5"/>
<text text-anchor="start" x="96.5" y="-1403.9" font-family="Arial" font-size="14.00" fill="#000000">maximum_time    </text>
<text text-anchor="start" x="225.5814" y="-1403.9" font-family="Arial" font-size="14.00" fill="#666666">[time]</text>
<polygon fill="none" stroke="#000000" points="89.5,-1362.5 89.5,-1392.5 401.5,-1392.5 401.5,-1362.5 89.5,-1362.5"/>
<text text-anchor="start" x="96.5" y="-1373.9" font-family="Arial" font-size="14.00" fill="#000000">start_date    </text>
<text text-anchor="start" x="192.9502" y="-1373.9" font-family="Arial" font-size="14.00" fill="#666666">[date]</text>
<polygon fill="none" stroke="#000000" points="89.5,-1332.5 89.5,-1362.5 401.5,-1362.5 401.5,-1332.5 89.5,-1332.5"/>
<text text-anchor="start" x="96.5" y="-1343.9" font-family="Arial" font-size="14.00" fill="#000000">end_date    </text>
<text text-anchor="start" x="189.0736" y="-1343.9" font-family="Arial" font-size="14.00" fill="#666666">[date]</text>
<polygon fill="none" stroke="#000000" points="89.5,-1302.5 89.5,-1332.5 401.5,-1332.5 401.5,-1302.5 89.5,-1302.5"/>
<text text-anchor="start" x="96.5" y="-1313.9" font-family="Arial" font-size="14.00" fill="#000000">is_ninjalock    </text>
<text text-anchor="start" x="203.0442" y="-1313.9" font-family="Arial" font-size="14.00" fill="#666666">[tinyint(1)]</text>
<polygon fill="none" stroke="#000000" points="89.5,-1272.5 89.5,-1302.5 401.5,-1302.5 401.5,-1272.5 89.5,-1272.5"/>
<text text-anchor="start" x="96.5" y="-1283.9" font-family="Arial" font-size="14.00" fill="#000000">is_display_entrance_note    </text>
<text text-anchor="start" x="289.4228" y="-1283.9" font-family="Arial" font-size="14.00" fill="#666666">[tinyint(1)]</text>
<polygon fill="none" stroke="#000000" points="89.5,-1242.5 89.5,-1272.5 401.5,-1272.5 401.5,-1242.5 89.5,-1242.5"/>
<text text-anchor="start" x="96.1487" y="-1253.9" font-family="Arial" font-size="14.00" fill="#000000">is_using_custom_business_hour    </text>
<text text-anchor="start" x="333.4067" y="-1253.9" font-family="Arial" font-size="14.00" fill="#666666">[tinyint(1)]</text>
<polygon fill="none" stroke="#000000" points="89.5,-1212.5 89.5,-1242.5 401.5,-1242.5 401.5,-1212.5 89.5,-1212.5"/>
<text text-anchor="start" x="96.5" y="-1223.9" font-family="Arial" font-size="14.00" fill="#000000">has_local_area_network    </text>
<text text-anchor="start" x="282.4102" y="-1223.9" font-family="Arial" font-size="14.00" fill="#666666">[tinyint(1)]</text>
<polygon fill="none" stroke="#000000" points="89.5,-1182.5 89.5,-1212.5 401.5,-1212.5 401.5,-1182.5 89.5,-1182.5"/>
<text text-anchor="start" x="96.5" y="-1193.9" font-family="Arial" font-size="14.00" fill="#000000">basic_price    </text>
<text text-anchor="start" x="201.4916" y="-1193.9" font-family="Arial" font-size="14.00" fill="#666666">[int(11) unsigned]</text>
<polygon fill="none" stroke="#000000" points="89.5,-1152.5 89.5,-1182.5 401.5,-1182.5 401.5,-1152.5 89.5,-1152.5"/>
<text text-anchor="start" x="96.5" y="-1163.9" font-family="Arial" font-size="14.00" fill="#000000">extend_price    </text>
<text text-anchor="start" x="210.8408" y="-1163.9" font-family="Arial" font-size="14.00" fill="#666666">[int(11)]</text>
<polygon fill="none" stroke="#000000" points="89.5,-1122.5 89.5,-1152.5 401.5,-1152.5 401.5,-1122.5 89.5,-1122.5"/>
<text text-anchor="start" x="96.5" y="-1133.9" font-family="Arial" font-size="14.00" fill="#000000">max_price    </text>
<text text-anchor="start" x="195.263" y="-1133.9" font-family="Arial" font-size="14.00" fill="#666666">[int(11)]</text>
<polygon fill="none" stroke="#000000" points="89.5,-1092.5 89.5,-1122.5 401.5,-1122.5 401.5,-1092.5 89.5,-1092.5"/>
<text text-anchor="start" x="96.5" y="-1103.9" font-family="Arial" font-size="14.00" fill="#000000">memo    </text>
<text text-anchor="start" x="169.5912" y="-1103.9" font-family="Arial" font-size="14.00" fill="#666666">[varchar(2000)]</text>
<polygon fill="none" stroke="#000000" points="89.5,-1062.5 89.5,-1092.5 401.5,-1092.5 401.5,-1062.5 89.5,-1062.5"/>
<text text-anchor="start" x="96.5" y="-1073.9" font-family="Arial" font-size="14.00" fill="#000000">floor_position    </text>
<text text-anchor="start" x="213.9446" y="-1073.9" font-family="Arial" font-size="14.00" fill="#666666">[smallint(5)]</text>
<polygon fill="none" stroke="#000000" points="89.5,-1032.5 89.5,-1062.5 401.5,-1062.5 401.5,-1032.5 89.5,-1032.5"/>
<text text-anchor="start" x="96.5" y="-1043.9" font-family="Arial" font-size="14.00" fill="#000000">is_tablet_linked    </text>
<text text-anchor="start" x="227.1732" y="-1043.9" font-family="Arial" font-size="14.00" fill="#666666">[int(11)]</text>
<polygon fill="none" stroke="#000000" points="89.5,-1002.5 89.5,-1032.5 401.5,-1032.5 401.5,-1002.5 89.5,-1002.5"/>
<text text-anchor="start" x="96.5" y="-1013.9" font-family="Arial" font-size="14.00" fill="#000000">batch_mail    </text>
<text text-anchor="start" x="198.3822" y="-1013.9" font-family="Arial" font-size="14.00" fill="#666666">[int(11)]</text>
<polygon fill="none" stroke="#000000" points="89.5,-972.5 89.5,-1002.5 401.5,-1002.5 401.5,-972.5 89.5,-972.5"/>
<text text-anchor="start" x="96.5" y="-983.9" font-family="Arial" font-size="14.00" fill="#000000">batch_mail_owner    </text>
<text text-anchor="start" x="244.2798" y="-983.9" font-family="Arial" font-size="14.00" fill="#666666">[int(11)]</text>
<polygon fill="none" stroke="#000000" points="89.5,-942.5 89.5,-972.5 401.5,-972.5 401.5,-942.5 89.5,-942.5"/>
<text text-anchor="start" x="96.5" y="-953.9" font-family="Arial" font-size="14.00" fill="#000000">guide_text    </text>
<text text-anchor="start" x="195.2882" y="-953.9" font-family="Arial" font-size="14.00" fill="#666666">[text]</text>
<polygon fill="none" stroke="#000000" points="89.5,-912.5 89.5,-942.5 401.5,-942.5 401.5,-912.5 89.5,-912.5"/>
<text text-anchor="start" x="96.5" y="-923.9" font-family="Arial" font-size="14.00" fill="#000000">eating_text    </text>
<text text-anchor="start" x="199.1788" y="-923.9" font-family="Arial" font-size="14.00" fill="#666666">[varchar(1000)]</text>
<polygon fill="none" stroke="#000000" points="89.5,-882.5 89.5,-912.5 401.5,-912.5 401.5,-882.5 89.5,-882.5"/>
<text text-anchor="start" x="96.5" y="-893.9" font-family="Arial" font-size="14.00" fill="#000000">cleanup_text    </text>
<text text-anchor="start" x="210.0708" y="-893.9" font-family="Arial" font-size="14.00" fill="#666666">[varchar(1000)]</text>
<polygon fill="none" stroke="#000000" points="89.5,-852.5 89.5,-882.5 401.5,-882.5 401.5,-852.5 89.5,-852.5"/>
<text text-anchor="start" x="96.5" y="-863.9" font-family="Arial" font-size="14.00" fill="#000000">facility_text    </text>
<text text-anchor="start" x="199.9348" y="-863.9" font-family="Arial" font-size="14.00" fill="#666666">[varchar(1000)]</text>
<polygon fill="none" stroke="#000000" points="89.5,-822.5 89.5,-852.5 401.5,-852.5 401.5,-822.5 89.5,-822.5"/>
<text text-anchor="start" x="96.5" y="-833.9" font-family="Arial" font-size="14.00" fill="#000000">change_layout    </text>
<text text-anchor="start" x="221.7454" y="-833.9" font-family="Arial" font-size="14.00" fill="#666666">[smallint(2)]</text>
<polygon fill="none" stroke="#000000" points="89.5,-792.5 89.5,-822.5 401.5,-822.5 401.5,-792.5 89.5,-792.5"/>
<text text-anchor="start" x="96.5" y="-803.9" font-family="Arial" font-size="14.00" fill="#000000">reservation_unit_an_hour    </text>
<text text-anchor="start" x="289.42" y="-803.9" font-family="Arial" font-size="14.00" fill="#666666">[tinyint(1)]</text>
<polygon fill="none" stroke="#000000" points="89.5,-762.5 89.5,-792.5 401.5,-792.5 401.5,-762.5 89.5,-762.5"/>
<text text-anchor="start" x="96.5" y="-773.9" font-family="Arial" font-size="14.00" fill="#000000">payment_period    </text>
<text text-anchor="start" x="231.0666" y="-773.9" font-family="Arial" font-size="14.00" fill="#666666">[int(11)]</text>
<polygon fill="none" stroke="#000000" points="89.5,-732.5 89.5,-762.5 401.5,-762.5 401.5,-732.5 89.5,-732.5"/>
<text text-anchor="start" x="96.5" y="-743.9" font-family="Arial" font-size="14.00" fill="#000000">sort_order    </text>
<text text-anchor="start" x="194.4902" y="-743.9" font-family="Arial" font-size="14.00" fill="#666666">[int(11)]</text>
<polygon fill="none" stroke="#000000" points="89.5,-702.5 89.5,-732.5 401.5,-732.5 401.5,-702.5 89.5,-702.5"/>
<text text-anchor="start" x="96.5" y="-713.9" font-family="Arial" font-size="14.00" fill="#000000">allow_tentative    </text>
<text text-anchor="start" x="223.2812" y="-713.9" font-family="Arial" font-size="14.00" fill="#666666">[tinyint(1)]</text>
<polygon fill="none" stroke="#000000" points="89.5,-672.5 89.5,-702.5 401.5,-702.5 401.5,-672.5 89.5,-672.5"/>
<text text-anchor="start" x="96.5" y="-683.9" font-family="Arial" font-size="14.00" fill="#000000">allow_change_reserved    </text>
<text text-anchor="start" x="278.5196" y="-683.9" font-family="Arial" font-size="14.00" fill="#666666">[tinyint(1)]</text>
<polygon fill="none" stroke="#000000" points="89.5,-642.5 89.5,-672.5 401.5,-672.5 401.5,-642.5 89.5,-642.5"/>
<text text-anchor="start" x="96.5" y="-653.9" font-family="Arial" font-size="14.00" fill="#000000">allow_extend_reservation    </text>
<text text-anchor="start" x="289.4074" y="-653.9" font-family="Arial" font-size="14.00" fill="#666666">[tinyint(1)]</text>
<polygon fill="none" stroke="#000000" points="89.5,-612.5 89.5,-642.5 401.5,-642.5 401.5,-612.5 89.5,-612.5"/>
<text text-anchor="start" x="96.5" y="-623.9" font-family="Arial" font-size="14.00" fill="#000000">change_reserved_limit_date    </text>
<text text-anchor="start" x="306.5266" y="-623.9" font-family="Arial" font-size="14.00" fill="#666666">[int(11)]</text>
<polygon fill="none" stroke="#000000" points="89.5,-582.5 89.5,-612.5 401.5,-612.5 401.5,-582.5 89.5,-582.5"/>
<text text-anchor="start" x="96.5" y="-593.9" font-family="Arial" font-size="14.00" fill="#000000">tentative_period    </text>
<text text-anchor="start" x="230.2938" y="-593.9" font-family="Arial" font-size="14.00" fill="#666666">[int(11)]</text>
<polygon fill="none" stroke="#000000" points="89.5,-552.5 89.5,-582.5 401.5,-582.5 401.5,-552.5 89.5,-552.5"/>
<text text-anchor="start" x="96.5" y="-563.9" font-family="Arial" font-size="14.00" fill="#000000">tentative_limit_date    </text>
<text text-anchor="start" x="251.2882" y="-563.9" font-family="Arial" font-size="14.00" fill="#666666">[int(11)]</text>
<polygon fill="none" stroke="#000000" points="89.5,-522.5 89.5,-552.5 401.5,-552.5 401.5,-522.5 89.5,-522.5"/>
<text text-anchor="start" x="96.5" y="-533.9" font-family="Arial" font-size="14.00" fill="#000000">include_tax    </text>
<text text-anchor="start" x="201.5042" y="-533.9" font-family="Arial" font-size="14.00" fill="#666666">[tinyint(1)]</text>
<polygon fill="none" stroke="#000000" points="89.5,-492.5 89.5,-522.5 401.5,-522.5 401.5,-492.5 89.5,-492.5"/>
<text text-anchor="start" x="96.5" y="-503.9" font-family="Arial" font-size="14.00" fill="#000000">ninjalock_serial    </text>
<text text-anchor="start" x="226.3766" y="-503.9" font-family="Arial" font-size="14.00" fill="#666666">[varchar(24)]</text>
<polygon fill="none" stroke="#000000" points="89.5,-462.5 89.5,-492.5 401.5,-492.5 401.5,-462.5 89.5,-462.5"/>
<text text-anchor="start" x="96.5" y="-473.9" font-family="Arial" font-size="14.00" fill="#000000">created_datetime    </text>
<text text-anchor="start" x="238.8478" y="-473.9" font-family="Arial" font-size="14.00" fill="#666666">[timestamp]</text>
<polygon fill="none" stroke="#000000" points="89.5,-432.5 89.5,-462.5 401.5,-462.5 401.5,-432.5 89.5,-432.5"/>
<text text-anchor="start" x="96.5" y="-443.9" font-family="Arial" font-size="14.00" fill="#000000">updated_datetime    </text>
<text text-anchor="start" x="242.7524" y="-443.9" font-family="Arial" font-size="14.00" fill="#666666">[timestamp]</text>
<polygon fill="none" stroke="#000000" points="89.5,-402.5 89.5,-432.5 401.5,-432.5 401.5,-402.5 89.5,-402.5"/>
<text text-anchor="start" x="96.5" y="-413.9" font-family="Arial" font-size="14.00" fill="#000000">start_reservable_time    </text>
<text text-anchor="start" x="265.2756" y="-413.9" font-family="Arial" font-size="14.00" fill="#666666">[smallint(3)]</text>
<polygon fill="none" stroke="#000000" points="89.5,-372.5 89.5,-402.5 401.5,-402.5 401.5,-372.5 89.5,-372.5"/>
<text text-anchor="start" x="96.5" y="-383.9" font-family="Arial" font-size="14.00" fill="#000000">end_reservable_time    </text>
<text text-anchor="start" x="261.399" y="-383.9" font-family="Arial" font-size="14.00" fill="#666666">[smallint(3)]</text>
<polygon fill="none" stroke="#000000" points="89.5,-342.5 89.5,-372.5 401.5,-372.5 401.5,-342.5 89.5,-342.5"/>
<text text-anchor="start" x="96.5" y="-353.9" font-family="Arial" font-size="14.00" fill="#000000">is_set_reservable_time    </text>
<text text-anchor="start" x="274.6136" y="-353.9" font-family="Arial" font-size="14.00" fill="#666666">[tinyint(1)]</text>
<polygon fill="none" stroke="#000000" points="89.5,-312.5 89.5,-342.5 401.5,-342.5 401.5,-312.5 89.5,-312.5"/>
<text text-anchor="start" x="96.5" y="-323.9" font-family="Arial" font-size="14.00" fill="#000000">is_buffer_time_setting_enabled    </text>
<text text-anchor="start" x="325.2096" y="-323.9" font-family="Arial" font-size="14.00" fill="#666666">[tinyint(1)]</text>
<polygon fill="none" stroke="#000000" points="89.5,-282.5 89.5,-312.5 401.5,-312.5 401.5,-282.5 89.5,-282.5"/>
<text text-anchor="start" x="96.5" y="-293.9" font-family="Arial" font-size="14.00" fill="#000000">buffer_time    </text>
<text text-anchor="start" x="200.7174" y="-293.9" font-family="Arial" font-size="14.00" fill="#666666">[time]</text>
<polygon fill="none" stroke="#000000" points="89.5,-252.5 89.5,-282.5 401.5,-282.5 401.5,-252.5 89.5,-252.5"/>
<text text-anchor="start" x="96.5" y="-263.9" font-family="Arial" font-size="14.00" fill="#000000">buffer_time_control    </text>
<text text-anchor="start" x="250.5056" y="-263.9" font-family="Arial" font-size="14.00" fill="#666666">[smallint(3)]</text>
<polygon fill="none" stroke="#000000" points="89.5,-222.5 89.5,-252.5 401.5,-252.5 401.5,-222.5 89.5,-222.5"/>
<text text-anchor="start" x="96.5" y="-233.9" font-family="Arial" font-size="14.00" fill="#000000">is_one_day_rental_enabled    </text>
<text text-anchor="start" x="302.6626" y="-233.9" font-family="Arial" font-size="14.00" fill="#666666">[tinyint(1)]</text>
<polygon fill="none" stroke="#000000" points="89.5,-192.5 89.5,-222.5 401.5,-222.5 401.5,-192.5 89.5,-192.5"/>
<text text-anchor="start" x="96.5" y="-203.9" font-family="Arial" font-size="14.00" fill="#000000">owner_buffer_time    </text>
<text text-anchor="start" x="246.615" y="-203.9" font-family="Arial" font-size="14.00" fill="#666666">[time]</text>
<polygon fill="none" stroke="#000000" points="89.5,-162.5 89.5,-192.5 401.5,-192.5 401.5,-162.5 89.5,-162.5"/>
<text text-anchor="start" x="96.5" y="-173.9" font-family="Arial" font-size="14.00" fill="#000000">external_buffer_time    </text>
<text text-anchor="start" x="258.2882" y="-173.9" font-family="Arial" font-size="14.00" fill="#666666">[time]</text>
<polygon fill="none" stroke="#000000" points="89.5,-132.5 89.5,-162.5 401.5,-162.5 401.5,-132.5 89.5,-132.5"/>
<text text-anchor="start" x="96.5" y="-143.9" font-family="Arial" font-size="14.00" fill="#000000">owner_buffer_time_control    </text>
<text text-anchor="start" x="296.4032" y="-143.9" font-family="Arial" font-size="14.00" fill="#666666">[smallint(3)]</text>
<polygon fill="none" stroke="#000000" points="89.5,-102.5 89.5,-132.5 401.5,-132.5 401.5,-102.5 89.5,-102.5"/>
<text text-anchor="start" x="96.5" y="-113.9" font-family="Arial" font-size="14.00" fill="#000000">external_buffer_time_control    </text>
<text text-anchor="start" x="308.0764" y="-113.9" font-family="Arial" font-size="14.00" fill="#666666">[smallint(3)]</text>
<polygon fill="none" stroke="#000000" points="89.5,-72.5 89.5,-102.5 401.5,-102.5 401.5,-72.5 89.5,-72.5"/>
<text text-anchor="start" x="96.5" y="-83.9" font-family="Arial" font-size="14.00" fill="#000000">is_lottery_setting_enabled    </text>
<text text-anchor="start" x="293.3106" y="-83.9" font-family="Arial" font-size="14.00" fill="#666666">[tinyint(1)]</text>
<polygon fill="none" stroke="#000000" points="89.5,-42.5 89.5,-72.5 401.5,-72.5 401.5,-42.5 89.5,-42.5"/>
<text text-anchor="start" x="96.5" y="-53.9" font-family="Arial" font-size="14.00" fill="#000000">lottery_period    </text>
<text text-anchor="start" x="215.4986" y="-53.9" font-family="Arial" font-size="14.00" fill="#666666">[int(5)]</text>
</g>
<!-- sk_room_business_hour_others&#45;&gt;sk_rooms -->
<g id="edge1" class="edge">
<title>sk_room_business_hour_others:room_id&#45;&gt;sk_rooms:id</title>
<path fill="none" stroke="#000000" d="M453.6726,-2106.7842C521.2914,-2096.7553 494.8637,-1983.8521 443.5,-1927 390.4912,-1868.3271 142.5088,-1949.6729 89.5,-1891 61.6419,-1860.1651 47.9444,-1797.5 89.5,-1797.5"/>
<polygon fill="#000000" stroke="#000000" points="453.4753,-2106.798 443.1841,-2103.0111 448.4877,-2107.149 443.5,-2107.5 443.5,-2107.5 443.5,-2107.5 448.4877,-2107.149 443.8159,-2111.9889 453.4753,-2106.798 453.4753,-2106.798"/>
<text text-anchor="start" x="450.3365" y="-2117.5" font-family="Arial" font-size="10.00" fill="#000000">FOREIGN KEY (room_id) REFERENCES sk_rooms (id)</text>
</g>
</g>
</svg>
