<?xml version="1.0" encoding="UTF-8" standalone="no"?>
<!DOCTYPE svg PUBLIC "-//W3C//DTD SVG 1.1//EN"
 "http://www.w3.org/Graphics/SVG/1.1/DTD/svg11.dtd">
<!-- Generated by graphviz version 2.40.1 (20161225.0304)
 -->
<!-- Title: sk_room_charge_weeks Pages: 1 -->
<svg width="652pt" height="2182pt"
 viewBox="0.00 0.00 652.00 2182.00" xmlns="http://www.w3.org/2000/svg" xmlns:xlink="http://www.w3.org/1999/xlink">
<g id="graph0" class="graph" transform="scale(1 1) rotate(0) translate(4 2178)">
<title>sk_room_charge_weeks</title>
<polygon fill="#ffffff" stroke="transparent" points="-4,4 -4,-2178 648,-2178 648,4 -4,4"/>
<!-- sk_room_charge_weeks -->
<g id="node1" class="node">
<title>sk_room_charge_weeks</title>
<polygon fill="#efefef" stroke="transparent" points="46,-2092.5 46,-2127.5 382,-2127.5 382,-2092.5 46,-2092.5"/>
<polygon fill="none" stroke="#000000" points="46,-2092.5 46,-2127.5 382,-2127.5 382,-2092.5 46,-2092.5"/>
<text text-anchor="start" x="52.6965" y="-2105.3" font-family="Arial Bold" font-size="18.00" fill="#000000">sk_room_charge_weeks</text>
<text text-anchor="start" x="247.7355" y="-2105.3" font-family="Arial" font-size="14.00" fill="#000000">    </text>
<text text-anchor="start" x="281.9403" y="-2105.3" font-family="Arial" font-size="14.00" fill="#666666">[BASE TABLE]</text>
<polygon fill="none" stroke="#000000" points="46,-2062.5 46,-2092.5 382,-2092.5 382,-2062.5 46,-2062.5"/>
<text text-anchor="start" x="53" y="-2073.9" font-family="Arial" font-size="14.00" fill="#000000">id </text>
<text text-anchor="start" x="67.7798" y="-2073.9" font-family="Arial" font-size="14.00" fill="#666666">[int(11) unsigned]</text>
<polygon fill="none" stroke="#000000" points="46,-2032.5 46,-2062.5 382,-2062.5 382,-2032.5 46,-2032.5"/>
<text text-anchor="start" x="53" y="-2043.9" font-family="Arial" font-size="14.00" fill="#000000">room_id </text>
<text text-anchor="start" x="107.4488" y="-2043.9" font-family="Arial" font-size="14.00" fill="#666666">[int(11) unsigned]</text>
<polygon fill="none" stroke="#000000" points="46,-2002.5 46,-2032.5 382,-2032.5 382,-2002.5 46,-2002.5"/>
<text text-anchor="start" x="53" y="-2013.9" font-family="Arial" font-size="14.00" fill="#000000">week_type </text>
<text text-anchor="start" x="123.8008" y="-2013.9" font-family="Arial" font-size="14.00" fill="#666666">[smallint(6)]</text>
<polygon fill="none" stroke="#000000" points="46,-1972.5 46,-2002.5 382,-2002.5 382,-1972.5 46,-1972.5"/>
<text text-anchor="start" x="53" y="-1983.9" font-family="Arial" font-size="14.00" fill="#000000">price </text>
<text text-anchor="start" x="87.223" y="-1983.9" font-family="Arial" font-size="14.00" fill="#666666">[int(11)]</text>
<polygon fill="none" stroke="#000000" stroke-width="3" points="44.5,-1971.5 44.5,-2129.5 383.5,-2129.5 383.5,-1971.5 44.5,-1971.5"/>
</g>
<!-- sk_rooms -->
<g id="node2" class="node">
<title>sk_rooms</title>
<polygon fill="#efefef" stroke="transparent" points="58,-1812.5 58,-1847.5 370,-1847.5 370,-1812.5 58,-1812.5"/>
<polygon fill="none" stroke="#000000" points="58,-1812.5 58,-1847.5 370,-1847.5 370,-1812.5 58,-1812.5"/>
<text text-anchor="start" x="111.2145" y="-1825.3" font-family="Arial Bold" font-size="18.00" fill="#000000">sk_rooms</text>
<text text-anchor="start" x="189.2175" y="-1825.3" font-family="Arial" font-size="14.00" fill="#000000">    </text>
<text text-anchor="start" x="223.4223" y="-1825.3" font-family="Arial" font-size="14.00" fill="#666666">[BASE TABLE]</text>
<polygon fill="none" stroke="#000000" points="58,-1782.5 58,-1812.5 370,-1812.5 370,-1782.5 58,-1782.5"/>
<text text-anchor="start" x="65" y="-1793.9" font-family="Arial" font-size="14.00" fill="#000000">id    </text>
<text text-anchor="start" x="110.094" y="-1793.9" font-family="Arial" font-size="14.00" fill="#666666">[int(11) unsigned]</text>
<polygon fill="none" stroke="#000000" points="58,-1752.5 58,-1782.5 370,-1782.5 370,-1752.5 58,-1752.5"/>
<text text-anchor="start" x="65" y="-1763.9" font-family="Arial" font-size="14.00" fill="#000000">is_deleted    </text>
<text text-anchor="start" x="163.0042" y="-1763.9" font-family="Arial" font-size="14.00" fill="#666666">[tinyint(1)]</text>
<polygon fill="none" stroke="#000000" points="58,-1722.5 58,-1752.5 370,-1752.5 370,-1722.5 58,-1722.5"/>
<text text-anchor="start" x="65" y="-1733.9" font-family="Arial" font-size="14.00" fill="#000000">is_public    </text>
<text text-anchor="start" x="153.655" y="-1733.9" font-family="Arial" font-size="14.00" fill="#666666">[tinyint(1)]</text>
<polygon fill="none" stroke="#000000" points="58,-1692.5 58,-1722.5 370,-1722.5 370,-1692.5 58,-1692.5"/>
<text text-anchor="start" x="65" y="-1703.9" font-family="Arial" font-size="14.00" fill="#000000">is_set    </text>
<text text-anchor="start" x="135.7672" y="-1703.9" font-family="Arial" font-size="14.00" fill="#666666">[tinyint(1)]</text>
<polygon fill="none" stroke="#000000" points="58,-1662.5 58,-1692.5 370,-1692.5 370,-1662.5 58,-1662.5"/>
<text text-anchor="start" x="65" y="-1673.9" font-family="Arial" font-size="14.00" fill="#000000">property_id    </text>
<text text-anchor="start" x="169.2188" y="-1673.9" font-family="Arial" font-size="14.00" fill="#666666">[int(11) unsigned]</text>
<polygon fill="none" stroke="#000000" points="58,-1632.5 58,-1662.5 370,-1662.5 370,-1632.5 58,-1632.5"/>
<text text-anchor="start" x="65" y="-1643.9" font-family="Arial" font-size="14.00" fill="#000000">lessor_id    </text>
<text text-anchor="start" x="155.209" y="-1643.9" font-family="Arial" font-size="14.00" fill="#666666">[int(11) unsigned]</text>
<polygon fill="none" stroke="#000000" points="58,-1602.5 58,-1632.5 370,-1632.5 370,-1602.5 58,-1602.5"/>
<text text-anchor="start" x="65" y="-1613.9" font-family="Arial" font-size="14.00" fill="#000000">name    </text>
<text text-anchor="start" x="134.2132" y="-1613.9" font-family="Arial" font-size="14.00" fill="#666666">[varchar(200)]</text>
<polygon fill="none" stroke="#000000" points="58,-1572.5 58,-1602.5 370,-1602.5 370,-1572.5 58,-1572.5"/>
<text text-anchor="start" x="65" y="-1583.9" font-family="Arial" font-size="14.00" fill="#000000">voice_name    </text>
<text text-anchor="start" x="174.6676" y="-1583.9" font-family="Arial" font-size="14.00" fill="#666666">[varchar(200)]</text>
<polygon fill="none" stroke="#000000" points="58,-1542.5 58,-1572.5 370,-1572.5 370,-1542.5 58,-1542.5"/>
<text text-anchor="start" x="65" y="-1553.9" font-family="Arial" font-size="14.00" fill="#000000">description_url    </text>
<text text-anchor="start" x="190.2146" y="-1553.9" font-family="Arial" font-size="14.00" fill="#666666">[varchar(1000)]</text>
<polygon fill="none" stroke="#000000" points="58,-1512.5 58,-1542.5 370,-1542.5 370,-1512.5 58,-1512.5"/>
<text text-anchor="start" x="65" y="-1523.9" font-family="Arial" font-size="14.00" fill="#000000">exclusive_area    </text>
<text text-anchor="start" x="192.5568" y="-1523.9" font-family="Arial" font-size="14.00" fill="#666666">[decimal(10,2)]</text>
<polygon fill="none" stroke="#000000" points="58,-1482.5 58,-1512.5 370,-1512.5 370,-1482.5 58,-1482.5"/>
<text text-anchor="start" x="65" y="-1493.9" font-family="Arial" font-size="14.00" fill="#000000">ceiling_height    </text>
<text text-anchor="start" x="184.7826" y="-1493.9" font-family="Arial" font-size="14.00" fill="#666666">[decimal(10,2)]</text>
<polygon fill="none" stroke="#000000" points="58,-1452.5 58,-1482.5 370,-1482.5 370,-1452.5 58,-1452.5"/>
<text text-anchor="start" x="65" y="-1463.9" font-family="Arial" font-size="14.00" fill="#000000">floor    </text>
<text text-anchor="start" x="126.4278" y="-1463.9" font-family="Arial" font-size="14.00" fill="#666666">[smallint(5)]</text>
<polygon fill="none" stroke="#000000" points="58,-1422.5 58,-1452.5 370,-1452.5 370,-1422.5 58,-1422.5"/>
<text text-anchor="start" x="65" y="-1433.9" font-family="Arial" font-size="14.00" fill="#000000">minimum_time    </text>
<text text-anchor="start" x="190.188" y="-1433.9" font-family="Arial" font-size="14.00" fill="#666666">[time]</text>
<polygon fill="none" stroke="#000000" points="58,-1392.5 58,-1422.5 370,-1422.5 370,-1392.5 58,-1392.5"/>
<text text-anchor="start" x="65" y="-1403.9" font-family="Arial" font-size="14.00" fill="#000000">maximum_time    </text>
<text text-anchor="start" x="194.0814" y="-1403.9" font-family="Arial" font-size="14.00" fill="#666666">[time]</text>
<polygon fill="none" stroke="#000000" points="58,-1362.5 58,-1392.5 370,-1392.5 370,-1362.5 58,-1362.5"/>
<text text-anchor="start" x="65" y="-1373.9" font-family="Arial" font-size="14.00" fill="#000000">start_date    </text>
<text text-anchor="start" x="161.4502" y="-1373.9" font-family="Arial" font-size="14.00" fill="#666666">[date]</text>
<polygon fill="none" stroke="#000000" points="58,-1332.5 58,-1362.5 370,-1362.5 370,-1332.5 58,-1332.5"/>
<text text-anchor="start" x="65" y="-1343.9" font-family="Arial" font-size="14.00" fill="#000000">end_date    </text>
<text text-anchor="start" x="157.5736" y="-1343.9" font-family="Arial" font-size="14.00" fill="#666666">[date]</text>
<polygon fill="none" stroke="#000000" points="58,-1302.5 58,-1332.5 370,-1332.5 370,-1302.5 58,-1302.5"/>
<text text-anchor="start" x="65" y="-1313.9" font-family="Arial" font-size="14.00" fill="#000000">is_ninjalock    </text>
<text text-anchor="start" x="171.5442" y="-1313.9" font-family="Arial" font-size="14.00" fill="#666666">[tinyint(1)]</text>
<polygon fill="none" stroke="#000000" points="58,-1272.5 58,-1302.5 370,-1302.5 370,-1272.5 58,-1272.5"/>
<text text-anchor="start" x="65" y="-1283.9" font-family="Arial" font-size="14.00" fill="#000000">is_display_entrance_note    </text>
<text text-anchor="start" x="257.9228" y="-1283.9" font-family="Arial" font-size="14.00" fill="#666666">[tinyint(1)]</text>
<polygon fill="none" stroke="#000000" points="58,-1242.5 58,-1272.5 370,-1272.5 370,-1242.5 58,-1242.5"/>
<text text-anchor="start" x="64.6487" y="-1253.9" font-family="Arial" font-size="14.00" fill="#000000">is_using_custom_business_hour    </text>
<text text-anchor="start" x="301.9067" y="-1253.9" font-family="Arial" font-size="14.00" fill="#666666">[tinyint(1)]</text>
<polygon fill="none" stroke="#000000" points="58,-1212.5 58,-1242.5 370,-1242.5 370,-1212.5 58,-1212.5"/>
<text text-anchor="start" x="65" y="-1223.9" font-family="Arial" font-size="14.00" fill="#000000">has_local_area_network    </text>
<text text-anchor="start" x="250.9102" y="-1223.9" font-family="Arial" font-size="14.00" fill="#666666">[tinyint(1)]</text>
<polygon fill="none" stroke="#000000" points="58,-1182.5 58,-1212.5 370,-1212.5 370,-1182.5 58,-1182.5"/>
<text text-anchor="start" x="65" y="-1193.9" font-family="Arial" font-size="14.00" fill="#000000">basic_price    </text>
<text text-anchor="start" x="169.9916" y="-1193.9" font-family="Arial" font-size="14.00" fill="#666666">[int(11) unsigned]</text>
<polygon fill="none" stroke="#000000" points="58,-1152.5 58,-1182.5 370,-1182.5 370,-1152.5 58,-1152.5"/>
<text text-anchor="start" x="65" y="-1163.9" font-family="Arial" font-size="14.00" fill="#000000">extend_price    </text>
<text text-anchor="start" x="179.3408" y="-1163.9" font-family="Arial" font-size="14.00" fill="#666666">[int(11)]</text>
<polygon fill="none" stroke="#000000" points="58,-1122.5 58,-1152.5 370,-1152.5 370,-1122.5 58,-1122.5"/>
<text text-anchor="start" x="65" y="-1133.9" font-family="Arial" font-size="14.00" fill="#000000">max_price    </text>
<text text-anchor="start" x="163.763" y="-1133.9" font-family="Arial" font-size="14.00" fill="#666666">[int(11)]</text>
<polygon fill="none" stroke="#000000" points="58,-1092.5 58,-1122.5 370,-1122.5 370,-1092.5 58,-1092.5"/>
<text text-anchor="start" x="65" y="-1103.9" font-family="Arial" font-size="14.00" fill="#000000">memo    </text>
<text text-anchor="start" x="138.0912" y="-1103.9" font-family="Arial" font-size="14.00" fill="#666666">[varchar(2000)]</text>
<polygon fill="none" stroke="#000000" points="58,-1062.5 58,-1092.5 370,-1092.5 370,-1062.5 58,-1062.5"/>
<text text-anchor="start" x="65" y="-1073.9" font-family="Arial" font-size="14.00" fill="#000000">floor_position    </text>
<text text-anchor="start" x="182.4446" y="-1073.9" font-family="Arial" font-size="14.00" fill="#666666">[smallint(5)]</text>
<polygon fill="none" stroke="#000000" points="58,-1032.5 58,-1062.5 370,-1062.5 370,-1032.5 58,-1032.5"/>
<text text-anchor="start" x="65" y="-1043.9" font-family="Arial" font-size="14.00" fill="#000000">is_tablet_linked    </text>
<text text-anchor="start" x="195.6732" y="-1043.9" font-family="Arial" font-size="14.00" fill="#666666">[int(11)]</text>
<polygon fill="none" stroke="#000000" points="58,-1002.5 58,-1032.5 370,-1032.5 370,-1002.5 58,-1002.5"/>
<text text-anchor="start" x="65" y="-1013.9" font-family="Arial" font-size="14.00" fill="#000000">batch_mail    </text>
<text text-anchor="start" x="166.8822" y="-1013.9" font-family="Arial" font-size="14.00" fill="#666666">[int(11)]</text>
<polygon fill="none" stroke="#000000" points="58,-972.5 58,-1002.5 370,-1002.5 370,-972.5 58,-972.5"/>
<text text-anchor="start" x="65" y="-983.9" font-family="Arial" font-size="14.00" fill="#000000">batch_mail_owner    </text>
<text text-anchor="start" x="212.7798" y="-983.9" font-family="Arial" font-size="14.00" fill="#666666">[int(11)]</text>
<polygon fill="none" stroke="#000000" points="58,-942.5 58,-972.5 370,-972.5 370,-942.5 58,-942.5"/>
<text text-anchor="start" x="65" y="-953.9" font-family="Arial" font-size="14.00" fill="#000000">guide_text    </text>
<text text-anchor="start" x="163.7882" y="-953.9" font-family="Arial" font-size="14.00" fill="#666666">[text]</text>
<polygon fill="none" stroke="#000000" points="58,-912.5 58,-942.5 370,-942.5 370,-912.5 58,-912.5"/>
<text text-anchor="start" x="65" y="-923.9" font-family="Arial" font-size="14.00" fill="#000000">eating_text    </text>
<text text-anchor="start" x="167.6788" y="-923.9" font-family="Arial" font-size="14.00" fill="#666666">[varchar(1000)]</text>
<polygon fill="none" stroke="#000000" points="58,-882.5 58,-912.5 370,-912.5 370,-882.5 58,-882.5"/>
<text text-anchor="start" x="65" y="-893.9" font-family="Arial" font-size="14.00" fill="#000000">cleanup_text    </text>
<text text-anchor="start" x="178.5708" y="-893.9" font-family="Arial" font-size="14.00" fill="#666666">[varchar(1000)]</text>
<polygon fill="none" stroke="#000000" points="58,-852.5 58,-882.5 370,-882.5 370,-852.5 58,-852.5"/>
<text text-anchor="start" x="65" y="-863.9" font-family="Arial" font-size="14.00" fill="#000000">facility_text    </text>
<text text-anchor="start" x="168.4348" y="-863.9" font-family="Arial" font-size="14.00" fill="#666666">[varchar(1000)]</text>
<polygon fill="none" stroke="#000000" points="58,-822.5 58,-852.5 370,-852.5 370,-822.5 58,-822.5"/>
<text text-anchor="start" x="65" y="-833.9" font-family="Arial" font-size="14.00" fill="#000000">change_layout    </text>
<text text-anchor="start" x="190.2454" y="-833.9" font-family="Arial" font-size="14.00" fill="#666666">[smallint(2)]</text>
<polygon fill="none" stroke="#000000" points="58,-792.5 58,-822.5 370,-822.5 370,-792.5 58,-792.5"/>
<text text-anchor="start" x="65" y="-803.9" font-family="Arial" font-size="14.00" fill="#000000">reservation_unit_an_hour    </text>
<text text-anchor="start" x="257.92" y="-803.9" font-family="Arial" font-size="14.00" fill="#666666">[tinyint(1)]</text>
<polygon fill="none" stroke="#000000" points="58,-762.5 58,-792.5 370,-792.5 370,-762.5 58,-762.5"/>
<text text-anchor="start" x="65" y="-773.9" font-family="Arial" font-size="14.00" fill="#000000">payment_period    </text>
<text text-anchor="start" x="199.5666" y="-773.9" font-family="Arial" font-size="14.00" fill="#666666">[int(11)]</text>
<polygon fill="none" stroke="#000000" points="58,-732.5 58,-762.5 370,-762.5 370,-732.5 58,-732.5"/>
<text text-anchor="start" x="65" y="-743.9" font-family="Arial" font-size="14.00" fill="#000000">sort_order    </text>
<text text-anchor="start" x="162.9902" y="-743.9" font-family="Arial" font-size="14.00" fill="#666666">[int(11)]</text>
<polygon fill="none" stroke="#000000" points="58,-702.5 58,-732.5 370,-732.5 370,-702.5 58,-702.5"/>
<text text-anchor="start" x="65" y="-713.9" font-family="Arial" font-size="14.00" fill="#000000">allow_tentative    </text>
<text text-anchor="start" x="191.7812" y="-713.9" font-family="Arial" font-size="14.00" fill="#666666">[tinyint(1)]</text>
<polygon fill="none" stroke="#000000" points="58,-672.5 58,-702.5 370,-702.5 370,-672.5 58,-672.5"/>
<text text-anchor="start" x="65" y="-683.9" font-family="Arial" font-size="14.00" fill="#000000">allow_change_reserved    </text>
<text text-anchor="start" x="247.0196" y="-683.9" font-family="Arial" font-size="14.00" fill="#666666">[tinyint(1)]</text>
<polygon fill="none" stroke="#000000" points="58,-642.5 58,-672.5 370,-672.5 370,-642.5 58,-642.5"/>
<text text-anchor="start" x="65" y="-653.9" font-family="Arial" font-size="14.00" fill="#000000">allow_extend_reservation    </text>
<text text-anchor="start" x="257.9074" y="-653.9" font-family="Arial" font-size="14.00" fill="#666666">[tinyint(1)]</text>
<polygon fill="none" stroke="#000000" points="58,-612.5 58,-642.5 370,-642.5 370,-612.5 58,-612.5"/>
<text text-anchor="start" x="65" y="-623.9" font-family="Arial" font-size="14.00" fill="#000000">change_reserved_limit_date    </text>
<text text-anchor="start" x="275.0266" y="-623.9" font-family="Arial" font-size="14.00" fill="#666666">[int(11)]</text>
<polygon fill="none" stroke="#000000" points="58,-582.5 58,-612.5 370,-612.5 370,-582.5 58,-582.5"/>
<text text-anchor="start" x="65" y="-593.9" font-family="Arial" font-size="14.00" fill="#000000">tentative_period    </text>
<text text-anchor="start" x="198.7938" y="-593.9" font-family="Arial" font-size="14.00" fill="#666666">[int(11)]</text>
<polygon fill="none" stroke="#000000" points="58,-552.5 58,-582.5 370,-582.5 370,-552.5 58,-552.5"/>
<text text-anchor="start" x="65" y="-563.9" font-family="Arial" font-size="14.00" fill="#000000">tentative_limit_date    </text>
<text text-anchor="start" x="219.7882" y="-563.9" font-family="Arial" font-size="14.00" fill="#666666">[int(11)]</text>
<polygon fill="none" stroke="#000000" points="58,-522.5 58,-552.5 370,-552.5 370,-522.5 58,-522.5"/>
<text text-anchor="start" x="65" y="-533.9" font-family="Arial" font-size="14.00" fill="#000000">include_tax    </text>
<text text-anchor="start" x="170.0042" y="-533.9" font-family="Arial" font-size="14.00" fill="#666666">[tinyint(1)]</text>
<polygon fill="none" stroke="#000000" points="58,-492.5 58,-522.5 370,-522.5 370,-492.5 58,-492.5"/>
<text text-anchor="start" x="65" y="-503.9" font-family="Arial" font-size="14.00" fill="#000000">ninjalock_serial    </text>
<text text-anchor="start" x="194.8766" y="-503.9" font-family="Arial" font-size="14.00" fill="#666666">[varchar(24)]</text>
<polygon fill="none" stroke="#000000" points="58,-462.5 58,-492.5 370,-492.5 370,-462.5 58,-462.5"/>
<text text-anchor="start" x="65" y="-473.9" font-family="Arial" font-size="14.00" fill="#000000">created_datetime    </text>
<text text-anchor="start" x="207.3478" y="-473.9" font-family="Arial" font-size="14.00" fill="#666666">[timestamp]</text>
<polygon fill="none" stroke="#000000" points="58,-432.5 58,-462.5 370,-462.5 370,-432.5 58,-432.5"/>
<text text-anchor="start" x="65" y="-443.9" font-family="Arial" font-size="14.00" fill="#000000">updated_datetime    </text>
<text text-anchor="start" x="211.2524" y="-443.9" font-family="Arial" font-size="14.00" fill="#666666">[timestamp]</text>
<polygon fill="none" stroke="#000000" points="58,-402.5 58,-432.5 370,-432.5 370,-402.5 58,-402.5"/>
<text text-anchor="start" x="65" y="-413.9" font-family="Arial" font-size="14.00" fill="#000000">start_reservable_time    </text>
<text text-anchor="start" x="233.7756" y="-413.9" font-family="Arial" font-size="14.00" fill="#666666">[smallint(3)]</text>
<polygon fill="none" stroke="#000000" points="58,-372.5 58,-402.5 370,-402.5 370,-372.5 58,-372.5"/>
<text text-anchor="start" x="65" y="-383.9" font-family="Arial" font-size="14.00" fill="#000000">end_reservable_time    </text>
<text text-anchor="start" x="229.899" y="-383.9" font-family="Arial" font-size="14.00" fill="#666666">[smallint(3)]</text>
<polygon fill="none" stroke="#000000" points="58,-342.5 58,-372.5 370,-372.5 370,-342.5 58,-342.5"/>
<text text-anchor="start" x="65" y="-353.9" font-family="Arial" font-size="14.00" fill="#000000">is_set_reservable_time    </text>
<text text-anchor="start" x="243.1136" y="-353.9" font-family="Arial" font-size="14.00" fill="#666666">[tinyint(1)]</text>
<polygon fill="none" stroke="#000000" points="58,-312.5 58,-342.5 370,-342.5 370,-312.5 58,-312.5"/>
<text text-anchor="start" x="65" y="-323.9" font-family="Arial" font-size="14.00" fill="#000000">is_buffer_time_setting_enabled    </text>
<text text-anchor="start" x="293.7096" y="-323.9" font-family="Arial" font-size="14.00" fill="#666666">[tinyint(1)]</text>
<polygon fill="none" stroke="#000000" points="58,-282.5 58,-312.5 370,-312.5 370,-282.5 58,-282.5"/>
<text text-anchor="start" x="65" y="-293.9" font-family="Arial" font-size="14.00" fill="#000000">buffer_time    </text>
<text text-anchor="start" x="169.2174" y="-293.9" font-family="Arial" font-size="14.00" fill="#666666">[time]</text>
<polygon fill="none" stroke="#000000" points="58,-252.5 58,-282.5 370,-282.5 370,-252.5 58,-252.5"/>
<text text-anchor="start" x="65" y="-263.9" font-family="Arial" font-size="14.00" fill="#000000">buffer_time_control    </text>
<text text-anchor="start" x="219.0056" y="-263.9" font-family="Arial" font-size="14.00" fill="#666666">[smallint(3)]</text>
<polygon fill="none" stroke="#000000" points="58,-222.5 58,-252.5 370,-252.5 370,-222.5 58,-222.5"/>
<text text-anchor="start" x="65" y="-233.9" font-family="Arial" font-size="14.00" fill="#000000">is_one_day_rental_enabled    </text>
<text text-anchor="start" x="271.1626" y="-233.9" font-family="Arial" font-size="14.00" fill="#666666">[tinyint(1)]</text>
<polygon fill="none" stroke="#000000" points="58,-192.5 58,-222.5 370,-222.5 370,-192.5 58,-192.5"/>
<text text-anchor="start" x="65" y="-203.9" font-family="Arial" font-size="14.00" fill="#000000">owner_buffer_time    </text>
<text text-anchor="start" x="215.115" y="-203.9" font-family="Arial" font-size="14.00" fill="#666666">[time]</text>
<polygon fill="none" stroke="#000000" points="58,-162.5 58,-192.5 370,-192.5 370,-162.5 58,-162.5"/>
<text text-anchor="start" x="65" y="-173.9" font-family="Arial" font-size="14.00" fill="#000000">external_buffer_time    </text>
<text text-anchor="start" x="226.7882" y="-173.9" font-family="Arial" font-size="14.00" fill="#666666">[time]</text>
<polygon fill="none" stroke="#000000" points="58,-132.5 58,-162.5 370,-162.5 370,-132.5 58,-132.5"/>
<text text-anchor="start" x="65" y="-143.9" font-family="Arial" font-size="14.00" fill="#000000">owner_buffer_time_control    </text>
<text text-anchor="start" x="264.9032" y="-143.9" font-family="Arial" font-size="14.00" fill="#666666">[smallint(3)]</text>
<polygon fill="none" stroke="#000000" points="58,-102.5 58,-132.5 370,-132.5 370,-102.5 58,-102.5"/>
<text text-anchor="start" x="65" y="-113.9" font-family="Arial" font-size="14.00" fill="#000000">external_buffer_time_control    </text>
<text text-anchor="start" x="276.5764" y="-113.9" font-family="Arial" font-size="14.00" fill="#666666">[smallint(3)]</text>
<polygon fill="none" stroke="#000000" points="58,-72.5 58,-102.5 370,-102.5 370,-72.5 58,-72.5"/>
<text text-anchor="start" x="65" y="-83.9" font-family="Arial" font-size="14.00" fill="#000000">is_lottery_setting_enabled    </text>
<text text-anchor="start" x="261.8106" y="-83.9" font-family="Arial" font-size="14.00" fill="#666666">[tinyint(1)]</text>
<polygon fill="none" stroke="#000000" points="58,-42.5 58,-72.5 370,-72.5 370,-42.5 58,-42.5"/>
<text text-anchor="start" x="65" y="-53.9" font-family="Arial" font-size="14.00" fill="#000000">lottery_period    </text>
<text text-anchor="start" x="183.9986" y="-53.9" font-family="Arial" font-size="14.00" fill="#666666">[int(5)]</text>
</g>
<!-- sk_room_charge_weeks&#45;&gt;sk_rooms -->
<g id="edge1" class="edge">
<title>sk_room_charge_weeks:room_id&#45;&gt;sk_rooms:id</title>
<path fill="none" stroke="#000000" d="M392.0683,-2046.7828C492.3921,-2032.1191 477.7628,-1797.5 370,-1797.5"/>
<polygon fill="#000000" stroke="#000000" points="391.9747,-2046.7894 381.6802,-2043.0114 386.9874,-2047.1447 382,-2047.5 382,-2047.5 382,-2047.5 386.9874,-2047.1447 382.3198,-2051.9886 391.9747,-2046.7894 391.9747,-2046.7894"/>
<text text-anchor="start" x="388.8365" y="-2057.5" font-family="Arial" font-size="10.00" fill="#000000">FOREIGN KEY (room_id) REFERENCES sk_rooms (id)</text>
</g>
</g>
</svg>
