<?xml version="1.0" encoding="UTF-8" standalone="no"?>
<!DOCTYPE svg PUBLIC "-//W3C//DTD SVG 1.1//EN"
 "http://www.w3.org/Graphics/SVG/1.1/DTD/svg11.dtd">
<!-- Generated by graphviz version 2.40.1 (20161225.0304)
 -->
<!-- Title: sk_room_charge_months Pages: 1 -->
<svg width="660pt" height="2182pt"
 viewBox="0.00 0.00 660.00 2182.00" xmlns="http://www.w3.org/2000/svg" xmlns:xlink="http://www.w3.org/1999/xlink">
<g id="graph0" class="graph" transform="scale(1 1) rotate(0) translate(4 2178)">
<title>sk_room_charge_months</title>
<polygon fill="#ffffff" stroke="transparent" points="-4,4 -4,-2178 656,-2178 656,4 -4,4"/>
<!-- sk_room_charge_months -->
<g id="node1" class="node">
<title>sk_room_charge_months</title>
<polygon fill="#efefef" stroke="transparent" points="46,-2092.5 46,-2127.5 390,-2127.5 390,-2092.5 46,-2092.5"/>
<polygon fill="none" stroke="#000000" points="46,-2092.5 46,-2127.5 390,-2127.5 390,-2092.5 46,-2092.5"/>
<text text-anchor="start" x="52.6933" y="-2105.3" font-family="Arial Bold" font-size="18.00" fill="#000000">sk_room_charge_months</text>
<text text-anchor="start" x="255.7387" y="-2105.3" font-family="Arial" font-size="14.00" fill="#000000">    </text>
<text text-anchor="start" x="289.9435" y="-2105.3" font-family="Arial" font-size="14.00" fill="#666666">[BASE TABLE]</text>
<polygon fill="none" stroke="#000000" points="46,-2062.5 46,-2092.5 390,-2092.5 390,-2062.5 46,-2062.5"/>
<text text-anchor="start" x="53" y="-2073.9" font-family="Arial" font-size="14.00" fill="#000000">id </text>
<text text-anchor="start" x="67.7798" y="-2073.9" font-family="Arial" font-size="14.00" fill="#666666">[int(11) unsigned]</text>
<polygon fill="none" stroke="#000000" points="46,-2032.5 46,-2062.5 390,-2062.5 390,-2032.5 46,-2032.5"/>
<text text-anchor="start" x="53" y="-2043.9" font-family="Arial" font-size="14.00" fill="#000000">room_id </text>
<text text-anchor="start" x="107.4488" y="-2043.9" font-family="Arial" font-size="14.00" fill="#666666">[int(11) unsigned]</text>
<polygon fill="none" stroke="#000000" points="46,-2002.5 46,-2032.5 390,-2032.5 390,-2002.5 46,-2002.5"/>
<text text-anchor="start" x="53" y="-2013.9" font-family="Arial" font-size="14.00" fill="#000000">month </text>
<text text-anchor="start" x="95.7896" y="-2013.9" font-family="Arial" font-size="14.00" fill="#666666">[smallint(6)]</text>
<polygon fill="none" stroke="#000000" points="46,-1972.5 46,-2002.5 390,-2002.5 390,-1972.5 46,-1972.5"/>
<text text-anchor="start" x="53" y="-1983.9" font-family="Arial" font-size="14.00" fill="#000000">price </text>
<text text-anchor="start" x="87.223" y="-1983.9" font-family="Arial" font-size="14.00" fill="#666666">[int(11)]</text>
<polygon fill="none" stroke="#000000" stroke-width="3" points="44.5,-1971.5 44.5,-2129.5 391.5,-2129.5 391.5,-1971.5 44.5,-1971.5"/>
</g>
<!-- sk_rooms -->
<g id="node2" class="node">
<title>sk_rooms</title>
<polygon fill="#efefef" stroke="transparent" points="62,-1812.5 62,-1847.5 374,-1847.5 374,-1812.5 62,-1812.5"/>
<polygon fill="none" stroke="#000000" points="62,-1812.5 62,-1847.5 374,-1847.5 374,-1812.5 62,-1812.5"/>
<text text-anchor="start" x="115.2145" y="-1825.3" font-family="Arial Bold" font-size="18.00" fill="#000000">sk_rooms</text>
<text text-anchor="start" x="193.2175" y="-1825.3" font-family="Arial" font-size="14.00" fill="#000000">    </text>
<text text-anchor="start" x="227.4223" y="-1825.3" font-family="Arial" font-size="14.00" fill="#666666">[BASE TABLE]</text>
<polygon fill="none" stroke="#000000" points="62,-1782.5 62,-1812.5 374,-1812.5 374,-1782.5 62,-1782.5"/>
<text text-anchor="start" x="69" y="-1793.9" font-family="Arial" font-size="14.00" fill="#000000">id    </text>
<text text-anchor="start" x="114.094" y="-1793.9" font-family="Arial" font-size="14.00" fill="#666666">[int(11) unsigned]</text>
<polygon fill="none" stroke="#000000" points="62,-1752.5 62,-1782.5 374,-1782.5 374,-1752.5 62,-1752.5"/>
<text text-anchor="start" x="69" y="-1763.9" font-family="Arial" font-size="14.00" fill="#000000">is_deleted    </text>
<text text-anchor="start" x="167.0042" y="-1763.9" font-family="Arial" font-size="14.00" fill="#666666">[tinyint(1)]</text>
<polygon fill="none" stroke="#000000" points="62,-1722.5 62,-1752.5 374,-1752.5 374,-1722.5 62,-1722.5"/>
<text text-anchor="start" x="69" y="-1733.9" font-family="Arial" font-size="14.00" fill="#000000">is_public    </text>
<text text-anchor="start" x="157.655" y="-1733.9" font-family="Arial" font-size="14.00" fill="#666666">[tinyint(1)]</text>
<polygon fill="none" stroke="#000000" points="62,-1692.5 62,-1722.5 374,-1722.5 374,-1692.5 62,-1692.5"/>
<text text-anchor="start" x="69" y="-1703.9" font-family="Arial" font-size="14.00" fill="#000000">is_set    </text>
<text text-anchor="start" x="139.7672" y="-1703.9" font-family="Arial" font-size="14.00" fill="#666666">[tinyint(1)]</text>
<polygon fill="none" stroke="#000000" points="62,-1662.5 62,-1692.5 374,-1692.5 374,-1662.5 62,-1662.5"/>
<text text-anchor="start" x="69" y="-1673.9" font-family="Arial" font-size="14.00" fill="#000000">property_id    </text>
<text text-anchor="start" x="173.2188" y="-1673.9" font-family="Arial" font-size="14.00" fill="#666666">[int(11) unsigned]</text>
<polygon fill="none" stroke="#000000" points="62,-1632.5 62,-1662.5 374,-1662.5 374,-1632.5 62,-1632.5"/>
<text text-anchor="start" x="69" y="-1643.9" font-family="Arial" font-size="14.00" fill="#000000">lessor_id    </text>
<text text-anchor="start" x="159.209" y="-1643.9" font-family="Arial" font-size="14.00" fill="#666666">[int(11) unsigned]</text>
<polygon fill="none" stroke="#000000" points="62,-1602.5 62,-1632.5 374,-1632.5 374,-1602.5 62,-1602.5"/>
<text text-anchor="start" x="69" y="-1613.9" font-family="Arial" font-size="14.00" fill="#000000">name    </text>
<text text-anchor="start" x="138.2132" y="-1613.9" font-family="Arial" font-size="14.00" fill="#666666">[varchar(200)]</text>
<polygon fill="none" stroke="#000000" points="62,-1572.5 62,-1602.5 374,-1602.5 374,-1572.5 62,-1572.5"/>
<text text-anchor="start" x="69" y="-1583.9" font-family="Arial" font-size="14.00" fill="#000000">voice_name    </text>
<text text-anchor="start" x="178.6676" y="-1583.9" font-family="Arial" font-size="14.00" fill="#666666">[varchar(200)]</text>
<polygon fill="none" stroke="#000000" points="62,-1542.5 62,-1572.5 374,-1572.5 374,-1542.5 62,-1542.5"/>
<text text-anchor="start" x="69" y="-1553.9" font-family="Arial" font-size="14.00" fill="#000000">description_url    </text>
<text text-anchor="start" x="194.2146" y="-1553.9" font-family="Arial" font-size="14.00" fill="#666666">[varchar(1000)]</text>
<polygon fill="none" stroke="#000000" points="62,-1512.5 62,-1542.5 374,-1542.5 374,-1512.5 62,-1512.5"/>
<text text-anchor="start" x="69" y="-1523.9" font-family="Arial" font-size="14.00" fill="#000000">exclusive_area    </text>
<text text-anchor="start" x="196.5568" y="-1523.9" font-family="Arial" font-size="14.00" fill="#666666">[decimal(10,2)]</text>
<polygon fill="none" stroke="#000000" points="62,-1482.5 62,-1512.5 374,-1512.5 374,-1482.5 62,-1482.5"/>
<text text-anchor="start" x="69" y="-1493.9" font-family="Arial" font-size="14.00" fill="#000000">ceiling_height    </text>
<text text-anchor="start" x="188.7826" y="-1493.9" font-family="Arial" font-size="14.00" fill="#666666">[decimal(10,2)]</text>
<polygon fill="none" stroke="#000000" points="62,-1452.5 62,-1482.5 374,-1482.5 374,-1452.5 62,-1452.5"/>
<text text-anchor="start" x="69" y="-1463.9" font-family="Arial" font-size="14.00" fill="#000000">floor    </text>
<text text-anchor="start" x="130.4278" y="-1463.9" font-family="Arial" font-size="14.00" fill="#666666">[smallint(5)]</text>
<polygon fill="none" stroke="#000000" points="62,-1422.5 62,-1452.5 374,-1452.5 374,-1422.5 62,-1422.5"/>
<text text-anchor="start" x="69" y="-1433.9" font-family="Arial" font-size="14.00" fill="#000000">minimum_time    </text>
<text text-anchor="start" x="194.188" y="-1433.9" font-family="Arial" font-size="14.00" fill="#666666">[time]</text>
<polygon fill="none" stroke="#000000" points="62,-1392.5 62,-1422.5 374,-1422.5 374,-1392.5 62,-1392.5"/>
<text text-anchor="start" x="69" y="-1403.9" font-family="Arial" font-size="14.00" fill="#000000">maximum_time    </text>
<text text-anchor="start" x="198.0814" y="-1403.9" font-family="Arial" font-size="14.00" fill="#666666">[time]</text>
<polygon fill="none" stroke="#000000" points="62,-1362.5 62,-1392.5 374,-1392.5 374,-1362.5 62,-1362.5"/>
<text text-anchor="start" x="69" y="-1373.9" font-family="Arial" font-size="14.00" fill="#000000">start_date    </text>
<text text-anchor="start" x="165.4502" y="-1373.9" font-family="Arial" font-size="14.00" fill="#666666">[date]</text>
<polygon fill="none" stroke="#000000" points="62,-1332.5 62,-1362.5 374,-1362.5 374,-1332.5 62,-1332.5"/>
<text text-anchor="start" x="69" y="-1343.9" font-family="Arial" font-size="14.00" fill="#000000">end_date    </text>
<text text-anchor="start" x="161.5736" y="-1343.9" font-family="Arial" font-size="14.00" fill="#666666">[date]</text>
<polygon fill="none" stroke="#000000" points="62,-1302.5 62,-1332.5 374,-1332.5 374,-1302.5 62,-1302.5"/>
<text text-anchor="start" x="69" y="-1313.9" font-family="Arial" font-size="14.00" fill="#000000">is_ninjalock    </text>
<text text-anchor="start" x="175.5442" y="-1313.9" font-family="Arial" font-size="14.00" fill="#666666">[tinyint(1)]</text>
<polygon fill="none" stroke="#000000" points="62,-1272.5 62,-1302.5 374,-1302.5 374,-1272.5 62,-1272.5"/>
<text text-anchor="start" x="69" y="-1283.9" font-family="Arial" font-size="14.00" fill="#000000">is_display_entrance_note    </text>
<text text-anchor="start" x="261.9228" y="-1283.9" font-family="Arial" font-size="14.00" fill="#666666">[tinyint(1)]</text>
<polygon fill="none" stroke="#000000" points="62,-1242.5 62,-1272.5 374,-1272.5 374,-1242.5 62,-1242.5"/>
<text text-anchor="start" x="68.6487" y="-1253.9" font-family="Arial" font-size="14.00" fill="#000000">is_using_custom_business_hour    </text>
<text text-anchor="start" x="305.9067" y="-1253.9" font-family="Arial" font-size="14.00" fill="#666666">[tinyint(1)]</text>
<polygon fill="none" stroke="#000000" points="62,-1212.5 62,-1242.5 374,-1242.5 374,-1212.5 62,-1212.5"/>
<text text-anchor="start" x="69" y="-1223.9" font-family="Arial" font-size="14.00" fill="#000000">has_local_area_network    </text>
<text text-anchor="start" x="254.9102" y="-1223.9" font-family="Arial" font-size="14.00" fill="#666666">[tinyint(1)]</text>
<polygon fill="none" stroke="#000000" points="62,-1182.5 62,-1212.5 374,-1212.5 374,-1182.5 62,-1182.5"/>
<text text-anchor="start" x="69" y="-1193.9" font-family="Arial" font-size="14.00" fill="#000000">basic_price    </text>
<text text-anchor="start" x="173.9916" y="-1193.9" font-family="Arial" font-size="14.00" fill="#666666">[int(11) unsigned]</text>
<polygon fill="none" stroke="#000000" points="62,-1152.5 62,-1182.5 374,-1182.5 374,-1152.5 62,-1152.5"/>
<text text-anchor="start" x="69" y="-1163.9" font-family="Arial" font-size="14.00" fill="#000000">extend_price    </text>
<text text-anchor="start" x="183.3408" y="-1163.9" font-family="Arial" font-size="14.00" fill="#666666">[int(11)]</text>
<polygon fill="none" stroke="#000000" points="62,-1122.5 62,-1152.5 374,-1152.5 374,-1122.5 62,-1122.5"/>
<text text-anchor="start" x="69" y="-1133.9" font-family="Arial" font-size="14.00" fill="#000000">max_price    </text>
<text text-anchor="start" x="167.763" y="-1133.9" font-family="Arial" font-size="14.00" fill="#666666">[int(11)]</text>
<polygon fill="none" stroke="#000000" points="62,-1092.5 62,-1122.5 374,-1122.5 374,-1092.5 62,-1092.5"/>
<text text-anchor="start" x="69" y="-1103.9" font-family="Arial" font-size="14.00" fill="#000000">memo    </text>
<text text-anchor="start" x="142.0912" y="-1103.9" font-family="Arial" font-size="14.00" fill="#666666">[varchar(2000)]</text>
<polygon fill="none" stroke="#000000" points="62,-1062.5 62,-1092.5 374,-1092.5 374,-1062.5 62,-1062.5"/>
<text text-anchor="start" x="69" y="-1073.9" font-family="Arial" font-size="14.00" fill="#000000">floor_position    </text>
<text text-anchor="start" x="186.4446" y="-1073.9" font-family="Arial" font-size="14.00" fill="#666666">[smallint(5)]</text>
<polygon fill="none" stroke="#000000" points="62,-1032.5 62,-1062.5 374,-1062.5 374,-1032.5 62,-1032.5"/>
<text text-anchor="start" x="69" y="-1043.9" font-family="Arial" font-size="14.00" fill="#000000">is_tablet_linked    </text>
<text text-anchor="start" x="199.6732" y="-1043.9" font-family="Arial" font-size="14.00" fill="#666666">[int(11)]</text>
<polygon fill="none" stroke="#000000" points="62,-1002.5 62,-1032.5 374,-1032.5 374,-1002.5 62,-1002.5"/>
<text text-anchor="start" x="69" y="-1013.9" font-family="Arial" font-size="14.00" fill="#000000">batch_mail    </text>
<text text-anchor="start" x="170.8822" y="-1013.9" font-family="Arial" font-size="14.00" fill="#666666">[int(11)]</text>
<polygon fill="none" stroke="#000000" points="62,-972.5 62,-1002.5 374,-1002.5 374,-972.5 62,-972.5"/>
<text text-anchor="start" x="69" y="-983.9" font-family="Arial" font-size="14.00" fill="#000000">batch_mail_owner    </text>
<text text-anchor="start" x="216.7798" y="-983.9" font-family="Arial" font-size="14.00" fill="#666666">[int(11)]</text>
<polygon fill="none" stroke="#000000" points="62,-942.5 62,-972.5 374,-972.5 374,-942.5 62,-942.5"/>
<text text-anchor="start" x="69" y="-953.9" font-family="Arial" font-size="14.00" fill="#000000">guide_text    </text>
<text text-anchor="start" x="167.7882" y="-953.9" font-family="Arial" font-size="14.00" fill="#666666">[text]</text>
<polygon fill="none" stroke="#000000" points="62,-912.5 62,-942.5 374,-942.5 374,-912.5 62,-912.5"/>
<text text-anchor="start" x="69" y="-923.9" font-family="Arial" font-size="14.00" fill="#000000">eating_text    </text>
<text text-anchor="start" x="171.6788" y="-923.9" font-family="Arial" font-size="14.00" fill="#666666">[varchar(1000)]</text>
<polygon fill="none" stroke="#000000" points="62,-882.5 62,-912.5 374,-912.5 374,-882.5 62,-882.5"/>
<text text-anchor="start" x="69" y="-893.9" font-family="Arial" font-size="14.00" fill="#000000">cleanup_text    </text>
<text text-anchor="start" x="182.5708" y="-893.9" font-family="Arial" font-size="14.00" fill="#666666">[varchar(1000)]</text>
<polygon fill="none" stroke="#000000" points="62,-852.5 62,-882.5 374,-882.5 374,-852.5 62,-852.5"/>
<text text-anchor="start" x="69" y="-863.9" font-family="Arial" font-size="14.00" fill="#000000">facility_text    </text>
<text text-anchor="start" x="172.4348" y="-863.9" font-family="Arial" font-size="14.00" fill="#666666">[varchar(1000)]</text>
<polygon fill="none" stroke="#000000" points="62,-822.5 62,-852.5 374,-852.5 374,-822.5 62,-822.5"/>
<text text-anchor="start" x="69" y="-833.9" font-family="Arial" font-size="14.00" fill="#000000">change_layout    </text>
<text text-anchor="start" x="194.2454" y="-833.9" font-family="Arial" font-size="14.00" fill="#666666">[smallint(2)]</text>
<polygon fill="none" stroke="#000000" points="62,-792.5 62,-822.5 374,-822.5 374,-792.5 62,-792.5"/>
<text text-anchor="start" x="69" y="-803.9" font-family="Arial" font-size="14.00" fill="#000000">reservation_unit_an_hour    </text>
<text text-anchor="start" x="261.92" y="-803.9" font-family="Arial" font-size="14.00" fill="#666666">[tinyint(1)]</text>
<polygon fill="none" stroke="#000000" points="62,-762.5 62,-792.5 374,-792.5 374,-762.5 62,-762.5"/>
<text text-anchor="start" x="69" y="-773.9" font-family="Arial" font-size="14.00" fill="#000000">payment_period    </text>
<text text-anchor="start" x="203.5666" y="-773.9" font-family="Arial" font-size="14.00" fill="#666666">[int(11)]</text>
<polygon fill="none" stroke="#000000" points="62,-732.5 62,-762.5 374,-762.5 374,-732.5 62,-732.5"/>
<text text-anchor="start" x="69" y="-743.9" font-family="Arial" font-size="14.00" fill="#000000">sort_order    </text>
<text text-anchor="start" x="166.9902" y="-743.9" font-family="Arial" font-size="14.00" fill="#666666">[int(11)]</text>
<polygon fill="none" stroke="#000000" points="62,-702.5 62,-732.5 374,-732.5 374,-702.5 62,-702.5"/>
<text text-anchor="start" x="69" y="-713.9" font-family="Arial" font-size="14.00" fill="#000000">allow_tentative    </text>
<text text-anchor="start" x="195.7812" y="-713.9" font-family="Arial" font-size="14.00" fill="#666666">[tinyint(1)]</text>
<polygon fill="none" stroke="#000000" points="62,-672.5 62,-702.5 374,-702.5 374,-672.5 62,-672.5"/>
<text text-anchor="start" x="69" y="-683.9" font-family="Arial" font-size="14.00" fill="#000000">allow_change_reserved    </text>
<text text-anchor="start" x="251.0196" y="-683.9" font-family="Arial" font-size="14.00" fill="#666666">[tinyint(1)]</text>
<polygon fill="none" stroke="#000000" points="62,-642.5 62,-672.5 374,-672.5 374,-642.5 62,-642.5"/>
<text text-anchor="start" x="69" y="-653.9" font-family="Arial" font-size="14.00" fill="#000000">allow_extend_reservation    </text>
<text text-anchor="start" x="261.9074" y="-653.9" font-family="Arial" font-size="14.00" fill="#666666">[tinyint(1)]</text>
<polygon fill="none" stroke="#000000" points="62,-612.5 62,-642.5 374,-642.5 374,-612.5 62,-612.5"/>
<text text-anchor="start" x="69" y="-623.9" font-family="Arial" font-size="14.00" fill="#000000">change_reserved_limit_date    </text>
<text text-anchor="start" x="279.0266" y="-623.9" font-family="Arial" font-size="14.00" fill="#666666">[int(11)]</text>
<polygon fill="none" stroke="#000000" points="62,-582.5 62,-612.5 374,-612.5 374,-582.5 62,-582.5"/>
<text text-anchor="start" x="69" y="-593.9" font-family="Arial" font-size="14.00" fill="#000000">tentative_period    </text>
<text text-anchor="start" x="202.7938" y="-593.9" font-family="Arial" font-size="14.00" fill="#666666">[int(11)]</text>
<polygon fill="none" stroke="#000000" points="62,-552.5 62,-582.5 374,-582.5 374,-552.5 62,-552.5"/>
<text text-anchor="start" x="69" y="-563.9" font-family="Arial" font-size="14.00" fill="#000000">tentative_limit_date    </text>
<text text-anchor="start" x="223.7882" y="-563.9" font-family="Arial" font-size="14.00" fill="#666666">[int(11)]</text>
<polygon fill="none" stroke="#000000" points="62,-522.5 62,-552.5 374,-552.5 374,-522.5 62,-522.5"/>
<text text-anchor="start" x="69" y="-533.9" font-family="Arial" font-size="14.00" fill="#000000">include_tax    </text>
<text text-anchor="start" x="174.0042" y="-533.9" font-family="Arial" font-size="14.00" fill="#666666">[tinyint(1)]</text>
<polygon fill="none" stroke="#000000" points="62,-492.5 62,-522.5 374,-522.5 374,-492.5 62,-492.5"/>
<text text-anchor="start" x="69" y="-503.9" font-family="Arial" font-size="14.00" fill="#000000">ninjalock_serial    </text>
<text text-anchor="start" x="198.8766" y="-503.9" font-family="Arial" font-size="14.00" fill="#666666">[varchar(24)]</text>
<polygon fill="none" stroke="#000000" points="62,-462.5 62,-492.5 374,-492.5 374,-462.5 62,-462.5"/>
<text text-anchor="start" x="69" y="-473.9" font-family="Arial" font-size="14.00" fill="#000000">created_datetime    </text>
<text text-anchor="start" x="211.3478" y="-473.9" font-family="Arial" font-size="14.00" fill="#666666">[timestamp]</text>
<polygon fill="none" stroke="#000000" points="62,-432.5 62,-462.5 374,-462.5 374,-432.5 62,-432.5"/>
<text text-anchor="start" x="69" y="-443.9" font-family="Arial" font-size="14.00" fill="#000000">updated_datetime    </text>
<text text-anchor="start" x="215.2524" y="-443.9" font-family="Arial" font-size="14.00" fill="#666666">[timestamp]</text>
<polygon fill="none" stroke="#000000" points="62,-402.5 62,-432.5 374,-432.5 374,-402.5 62,-402.5"/>
<text text-anchor="start" x="69" y="-413.9" font-family="Arial" font-size="14.00" fill="#000000">start_reservable_time    </text>
<text text-anchor="start" x="237.7756" y="-413.9" font-family="Arial" font-size="14.00" fill="#666666">[smallint(3)]</text>
<polygon fill="none" stroke="#000000" points="62,-372.5 62,-402.5 374,-402.5 374,-372.5 62,-372.5"/>
<text text-anchor="start" x="69" y="-383.9" font-family="Arial" font-size="14.00" fill="#000000">end_reservable_time    </text>
<text text-anchor="start" x="233.899" y="-383.9" font-family="Arial" font-size="14.00" fill="#666666">[smallint(3)]</text>
<polygon fill="none" stroke="#000000" points="62,-342.5 62,-372.5 374,-372.5 374,-342.5 62,-342.5"/>
<text text-anchor="start" x="69" y="-353.9" font-family="Arial" font-size="14.00" fill="#000000">is_set_reservable_time    </text>
<text text-anchor="start" x="247.1136" y="-353.9" font-family="Arial" font-size="14.00" fill="#666666">[tinyint(1)]</text>
<polygon fill="none" stroke="#000000" points="62,-312.5 62,-342.5 374,-342.5 374,-312.5 62,-312.5"/>
<text text-anchor="start" x="69" y="-323.9" font-family="Arial" font-size="14.00" fill="#000000">is_buffer_time_setting_enabled    </text>
<text text-anchor="start" x="297.7096" y="-323.9" font-family="Arial" font-size="14.00" fill="#666666">[tinyint(1)]</text>
<polygon fill="none" stroke="#000000" points="62,-282.5 62,-312.5 374,-312.5 374,-282.5 62,-282.5"/>
<text text-anchor="start" x="69" y="-293.9" font-family="Arial" font-size="14.00" fill="#000000">buffer_time    </text>
<text text-anchor="start" x="173.2174" y="-293.9" font-family="Arial" font-size="14.00" fill="#666666">[time]</text>
<polygon fill="none" stroke="#000000" points="62,-252.5 62,-282.5 374,-282.5 374,-252.5 62,-252.5"/>
<text text-anchor="start" x="69" y="-263.9" font-family="Arial" font-size="14.00" fill="#000000">buffer_time_control    </text>
<text text-anchor="start" x="223.0056" y="-263.9" font-family="Arial" font-size="14.00" fill="#666666">[smallint(3)]</text>
<polygon fill="none" stroke="#000000" points="62,-222.5 62,-252.5 374,-252.5 374,-222.5 62,-222.5"/>
<text text-anchor="start" x="69" y="-233.9" font-family="Arial" font-size="14.00" fill="#000000">is_one_day_rental_enabled    </text>
<text text-anchor="start" x="275.1626" y="-233.9" font-family="Arial" font-size="14.00" fill="#666666">[tinyint(1)]</text>
<polygon fill="none" stroke="#000000" points="62,-192.5 62,-222.5 374,-222.5 374,-192.5 62,-192.5"/>
<text text-anchor="start" x="69" y="-203.9" font-family="Arial" font-size="14.00" fill="#000000">owner_buffer_time    </text>
<text text-anchor="start" x="219.115" y="-203.9" font-family="Arial" font-size="14.00" fill="#666666">[time]</text>
<polygon fill="none" stroke="#000000" points="62,-162.5 62,-192.5 374,-192.5 374,-162.5 62,-162.5"/>
<text text-anchor="start" x="69" y="-173.9" font-family="Arial" font-size="14.00" fill="#000000">external_buffer_time    </text>
<text text-anchor="start" x="230.7882" y="-173.9" font-family="Arial" font-size="14.00" fill="#666666">[time]</text>
<polygon fill="none" stroke="#000000" points="62,-132.5 62,-162.5 374,-162.5 374,-132.5 62,-132.5"/>
<text text-anchor="start" x="69" y="-143.9" font-family="Arial" font-size="14.00" fill="#000000">owner_buffer_time_control    </text>
<text text-anchor="start" x="268.9032" y="-143.9" font-family="Arial" font-size="14.00" fill="#666666">[smallint(3)]</text>
<polygon fill="none" stroke="#000000" points="62,-102.5 62,-132.5 374,-132.5 374,-102.5 62,-102.5"/>
<text text-anchor="start" x="69" y="-113.9" font-family="Arial" font-size="14.00" fill="#000000">external_buffer_time_control    </text>
<text text-anchor="start" x="280.5764" y="-113.9" font-family="Arial" font-size="14.00" fill="#666666">[smallint(3)]</text>
<polygon fill="none" stroke="#000000" points="62,-72.5 62,-102.5 374,-102.5 374,-72.5 62,-72.5"/>
<text text-anchor="start" x="69" y="-83.9" font-family="Arial" font-size="14.00" fill="#000000">is_lottery_setting_enabled    </text>
<text text-anchor="start" x="265.8106" y="-83.9" font-family="Arial" font-size="14.00" fill="#666666">[tinyint(1)]</text>
<polygon fill="none" stroke="#000000" points="62,-42.5 62,-72.5 374,-72.5 374,-42.5 62,-42.5"/>
<text text-anchor="start" x="69" y="-53.9" font-family="Arial" font-size="14.00" fill="#000000">lottery_period    </text>
<text text-anchor="start" x="187.9986" y="-53.9" font-family="Arial" font-size="14.00" fill="#666666">[int(5)]</text>
</g>
<!-- sk_room_charge_months&#45;&gt;sk_rooms -->
<g id="edge1" class="edge">
<title>sk_room_charge_months:room_id&#45;&gt;sk_rooms:id</title>
<path fill="none" stroke="#000000" d="M400.0659,-2046.7828C500.2453,-2032.1191 481.8591,-1797.5 374,-1797.5"/>
<polygon fill="#000000" stroke="#000000" points="399.9747,-2046.7892 389.6802,-2043.0114 394.9874,-2047.1446 390,-2047.5 390,-2047.5 390,-2047.5 394.9874,-2047.1446 390.3198,-2051.9886 399.9747,-2046.7892 399.9747,-2046.7892"/>
<text text-anchor="start" x="396.8365" y="-2057.5" font-family="Arial" font-size="10.00" fill="#000000">FOREIGN KEY (room_id) REFERENCES sk_rooms (id)</text>
</g>
</g>
</svg>
