<?xml version="1.0" encoding="UTF-8" standalone="no"?>
<!DOCTYPE svg PUBLIC "-//W3C//DTD SVG 1.1//EN"
 "http://www.w3.org/Graphics/SVG/1.1/DTD/svg11.dtd">
<!-- Generated by graphviz version 2.40.1 (20161225.0304)
 -->
<!-- Title: sk_room_charge_hours Pages: 1 -->
<svg width="646pt" height="2182pt"
 viewBox="0.00 0.00 646.00 2182.00" xmlns="http://www.w3.org/2000/svg" xmlns:xlink="http://www.w3.org/1999/xlink">
<g id="graph0" class="graph" transform="scale(1 1) rotate(0) translate(4 2178)">
<title>sk_room_charge_hours</title>
<polygon fill="#ffffff" stroke="transparent" points="-4,4 -4,-2178 642,-2178 642,4 -4,4"/>
<!-- sk_room_charge_hours -->
<g id="node1" class="node">
<title>sk_room_charge_hours</title>
<polygon fill="#efefef" stroke="transparent" points="46,-2092.5 46,-2127.5 376,-2127.5 376,-2092.5 46,-2092.5"/>
<polygon fill="none" stroke="#000000" points="46,-2092.5 46,-2127.5 376,-2127.5 376,-2092.5 46,-2092.5"/>
<text text-anchor="start" x="52.6944" y="-2105.3" font-family="Arial Bold" font-size="18.00" fill="#000000">sk_room_charge_hours</text>
<text text-anchor="start" x="241.7376" y="-2105.3" font-family="Arial" font-size="14.00" fill="#000000">    </text>
<text text-anchor="start" x="275.9424" y="-2105.3" font-family="Arial" font-size="14.00" fill="#666666">[BASE TABLE]</text>
<polygon fill="none" stroke="#000000" points="46,-2062.5 46,-2092.5 376,-2092.5 376,-2062.5 46,-2062.5"/>
<text text-anchor="start" x="53" y="-2073.9" font-family="Arial" font-size="14.00" fill="#000000">id </text>
<text text-anchor="start" x="67.7798" y="-2073.9" font-family="Arial" font-size="14.00" fill="#666666">[int(11) unsigned]</text>
<polygon fill="none" stroke="#000000" points="46,-2032.5 46,-2062.5 376,-2062.5 376,-2032.5 46,-2032.5"/>
<text text-anchor="start" x="53" y="-2043.9" font-family="Arial" font-size="14.00" fill="#000000">room_id </text>
<text text-anchor="start" x="107.4488" y="-2043.9" font-family="Arial" font-size="14.00" fill="#666666">[int(11) unsigned]</text>
<polygon fill="none" stroke="#000000" points="46,-2002.5 46,-2032.5 376,-2032.5 376,-2002.5 46,-2002.5"/>
<text text-anchor="start" x="53" y="-2013.9" font-family="Arial" font-size="14.00" fill="#000000">hour </text>
<text text-anchor="start" x="84.899" y="-2013.9" font-family="Arial" font-size="14.00" fill="#666666">[time]</text>
<polygon fill="none" stroke="#000000" points="46,-1972.5 46,-2002.5 376,-2002.5 376,-1972.5 46,-1972.5"/>
<text text-anchor="start" x="53" y="-1983.9" font-family="Arial" font-size="14.00" fill="#000000">price </text>
<text text-anchor="start" x="87.223" y="-1983.9" font-family="Arial" font-size="14.00" fill="#666666">[int(11)]</text>
<polygon fill="none" stroke="#000000" stroke-width="3" points="44.5,-1971.5 44.5,-2129.5 377.5,-2129.5 377.5,-1971.5 44.5,-1971.5"/>
</g>
<!-- sk_rooms -->
<g id="node2" class="node">
<title>sk_rooms</title>
<polygon fill="#efefef" stroke="transparent" points="55,-1812.5 55,-1847.5 367,-1847.5 367,-1812.5 55,-1812.5"/>
<polygon fill="none" stroke="#000000" points="55,-1812.5 55,-1847.5 367,-1847.5 367,-1812.5 55,-1812.5"/>
<text text-anchor="start" x="108.2145" y="-1825.3" font-family="Arial Bold" font-size="18.00" fill="#000000">sk_rooms</text>
<text text-anchor="start" x="186.2175" y="-1825.3" font-family="Arial" font-size="14.00" fill="#000000">    </text>
<text text-anchor="start" x="220.4223" y="-1825.3" font-family="Arial" font-size="14.00" fill="#666666">[BASE TABLE]</text>
<polygon fill="none" stroke="#000000" points="55,-1782.5 55,-1812.5 367,-1812.5 367,-1782.5 55,-1782.5"/>
<text text-anchor="start" x="62" y="-1793.9" font-family="Arial" font-size="14.00" fill="#000000">id    </text>
<text text-anchor="start" x="107.094" y="-1793.9" font-family="Arial" font-size="14.00" fill="#666666">[int(11) unsigned]</text>
<polygon fill="none" stroke="#000000" points="55,-1752.5 55,-1782.5 367,-1782.5 367,-1752.5 55,-1752.5"/>
<text text-anchor="start" x="62" y="-1763.9" font-family="Arial" font-size="14.00" fill="#000000">is_deleted    </text>
<text text-anchor="start" x="160.0042" y="-1763.9" font-family="Arial" font-size="14.00" fill="#666666">[tinyint(1)]</text>
<polygon fill="none" stroke="#000000" points="55,-1722.5 55,-1752.5 367,-1752.5 367,-1722.5 55,-1722.5"/>
<text text-anchor="start" x="62" y="-1733.9" font-family="Arial" font-size="14.00" fill="#000000">is_public    </text>
<text text-anchor="start" x="150.655" y="-1733.9" font-family="Arial" font-size="14.00" fill="#666666">[tinyint(1)]</text>
<polygon fill="none" stroke="#000000" points="55,-1692.5 55,-1722.5 367,-1722.5 367,-1692.5 55,-1692.5"/>
<text text-anchor="start" x="62" y="-1703.9" font-family="Arial" font-size="14.00" fill="#000000">is_set    </text>
<text text-anchor="start" x="132.7672" y="-1703.9" font-family="Arial" font-size="14.00" fill="#666666">[tinyint(1)]</text>
<polygon fill="none" stroke="#000000" points="55,-1662.5 55,-1692.5 367,-1692.5 367,-1662.5 55,-1662.5"/>
<text text-anchor="start" x="62" y="-1673.9" font-family="Arial" font-size="14.00" fill="#000000">property_id    </text>
<text text-anchor="start" x="166.2188" y="-1673.9" font-family="Arial" font-size="14.00" fill="#666666">[int(11) unsigned]</text>
<polygon fill="none" stroke="#000000" points="55,-1632.5 55,-1662.5 367,-1662.5 367,-1632.5 55,-1632.5"/>
<text text-anchor="start" x="62" y="-1643.9" font-family="Arial" font-size="14.00" fill="#000000">lessor_id    </text>
<text text-anchor="start" x="152.209" y="-1643.9" font-family="Arial" font-size="14.00" fill="#666666">[int(11) unsigned]</text>
<polygon fill="none" stroke="#000000" points="55,-1602.5 55,-1632.5 367,-1632.5 367,-1602.5 55,-1602.5"/>
<text text-anchor="start" x="62" y="-1613.9" font-family="Arial" font-size="14.00" fill="#000000">name    </text>
<text text-anchor="start" x="131.2132" y="-1613.9" font-family="Arial" font-size="14.00" fill="#666666">[varchar(200)]</text>
<polygon fill="none" stroke="#000000" points="55,-1572.5 55,-1602.5 367,-1602.5 367,-1572.5 55,-1572.5"/>
<text text-anchor="start" x="62" y="-1583.9" font-family="Arial" font-size="14.00" fill="#000000">voice_name    </text>
<text text-anchor="start" x="171.6676" y="-1583.9" font-family="Arial" font-size="14.00" fill="#666666">[varchar(200)]</text>
<polygon fill="none" stroke="#000000" points="55,-1542.5 55,-1572.5 367,-1572.5 367,-1542.5 55,-1542.5"/>
<text text-anchor="start" x="62" y="-1553.9" font-family="Arial" font-size="14.00" fill="#000000">description_url    </text>
<text text-anchor="start" x="187.2146" y="-1553.9" font-family="Arial" font-size="14.00" fill="#666666">[varchar(1000)]</text>
<polygon fill="none" stroke="#000000" points="55,-1512.5 55,-1542.5 367,-1542.5 367,-1512.5 55,-1512.5"/>
<text text-anchor="start" x="62" y="-1523.9" font-family="Arial" font-size="14.00" fill="#000000">exclusive_area    </text>
<text text-anchor="start" x="189.5568" y="-1523.9" font-family="Arial" font-size="14.00" fill="#666666">[decimal(10,2)]</text>
<polygon fill="none" stroke="#000000" points="55,-1482.5 55,-1512.5 367,-1512.5 367,-1482.5 55,-1482.5"/>
<text text-anchor="start" x="62" y="-1493.9" font-family="Arial" font-size="14.00" fill="#000000">ceiling_height    </text>
<text text-anchor="start" x="181.7826" y="-1493.9" font-family="Arial" font-size="14.00" fill="#666666">[decimal(10,2)]</text>
<polygon fill="none" stroke="#000000" points="55,-1452.5 55,-1482.5 367,-1482.5 367,-1452.5 55,-1452.5"/>
<text text-anchor="start" x="62" y="-1463.9" font-family="Arial" font-size="14.00" fill="#000000">floor    </text>
<text text-anchor="start" x="123.4278" y="-1463.9" font-family="Arial" font-size="14.00" fill="#666666">[smallint(5)]</text>
<polygon fill="none" stroke="#000000" points="55,-1422.5 55,-1452.5 367,-1452.5 367,-1422.5 55,-1422.5"/>
<text text-anchor="start" x="62" y="-1433.9" font-family="Arial" font-size="14.00" fill="#000000">minimum_time    </text>
<text text-anchor="start" x="187.188" y="-1433.9" font-family="Arial" font-size="14.00" fill="#666666">[time]</text>
<polygon fill="none" stroke="#000000" points="55,-1392.5 55,-1422.5 367,-1422.5 367,-1392.5 55,-1392.5"/>
<text text-anchor="start" x="62" y="-1403.9" font-family="Arial" font-size="14.00" fill="#000000">maximum_time    </text>
<text text-anchor="start" x="191.0814" y="-1403.9" font-family="Arial" font-size="14.00" fill="#666666">[time]</text>
<polygon fill="none" stroke="#000000" points="55,-1362.5 55,-1392.5 367,-1392.5 367,-1362.5 55,-1362.5"/>
<text text-anchor="start" x="62" y="-1373.9" font-family="Arial" font-size="14.00" fill="#000000">start_date    </text>
<text text-anchor="start" x="158.4502" y="-1373.9" font-family="Arial" font-size="14.00" fill="#666666">[date]</text>
<polygon fill="none" stroke="#000000" points="55,-1332.5 55,-1362.5 367,-1362.5 367,-1332.5 55,-1332.5"/>
<text text-anchor="start" x="62" y="-1343.9" font-family="Arial" font-size="14.00" fill="#000000">end_date    </text>
<text text-anchor="start" x="154.5736" y="-1343.9" font-family="Arial" font-size="14.00" fill="#666666">[date]</text>
<polygon fill="none" stroke="#000000" points="55,-1302.5 55,-1332.5 367,-1332.5 367,-1302.5 55,-1302.5"/>
<text text-anchor="start" x="62" y="-1313.9" font-family="Arial" font-size="14.00" fill="#000000">is_ninjalock    </text>
<text text-anchor="start" x="168.5442" y="-1313.9" font-family="Arial" font-size="14.00" fill="#666666">[tinyint(1)]</text>
<polygon fill="none" stroke="#000000" points="55,-1272.5 55,-1302.5 367,-1302.5 367,-1272.5 55,-1272.5"/>
<text text-anchor="start" x="62" y="-1283.9" font-family="Arial" font-size="14.00" fill="#000000">is_display_entrance_note    </text>
<text text-anchor="start" x="254.9228" y="-1283.9" font-family="Arial" font-size="14.00" fill="#666666">[tinyint(1)]</text>
<polygon fill="none" stroke="#000000" points="55,-1242.5 55,-1272.5 367,-1272.5 367,-1242.5 55,-1242.5"/>
<text text-anchor="start" x="61.6487" y="-1253.9" font-family="Arial" font-size="14.00" fill="#000000">is_using_custom_business_hour    </text>
<text text-anchor="start" x="298.9067" y="-1253.9" font-family="Arial" font-size="14.00" fill="#666666">[tinyint(1)]</text>
<polygon fill="none" stroke="#000000" points="55,-1212.5 55,-1242.5 367,-1242.5 367,-1212.5 55,-1212.5"/>
<text text-anchor="start" x="62" y="-1223.9" font-family="Arial" font-size="14.00" fill="#000000">has_local_area_network    </text>
<text text-anchor="start" x="247.9102" y="-1223.9" font-family="Arial" font-size="14.00" fill="#666666">[tinyint(1)]</text>
<polygon fill="none" stroke="#000000" points="55,-1182.5 55,-1212.5 367,-1212.5 367,-1182.5 55,-1182.5"/>
<text text-anchor="start" x="62" y="-1193.9" font-family="Arial" font-size="14.00" fill="#000000">basic_price    </text>
<text text-anchor="start" x="166.9916" y="-1193.9" font-family="Arial" font-size="14.00" fill="#666666">[int(11) unsigned]</text>
<polygon fill="none" stroke="#000000" points="55,-1152.5 55,-1182.5 367,-1182.5 367,-1152.5 55,-1152.5"/>
<text text-anchor="start" x="62" y="-1163.9" font-family="Arial" font-size="14.00" fill="#000000">extend_price    </text>
<text text-anchor="start" x="176.3408" y="-1163.9" font-family="Arial" font-size="14.00" fill="#666666">[int(11)]</text>
<polygon fill="none" stroke="#000000" points="55,-1122.5 55,-1152.5 367,-1152.5 367,-1122.5 55,-1122.5"/>
<text text-anchor="start" x="62" y="-1133.9" font-family="Arial" font-size="14.00" fill="#000000">max_price    </text>
<text text-anchor="start" x="160.763" y="-1133.9" font-family="Arial" font-size="14.00" fill="#666666">[int(11)]</text>
<polygon fill="none" stroke="#000000" points="55,-1092.5 55,-1122.5 367,-1122.5 367,-1092.5 55,-1092.5"/>
<text text-anchor="start" x="62" y="-1103.9" font-family="Arial" font-size="14.00" fill="#000000">memo    </text>
<text text-anchor="start" x="135.0912" y="-1103.9" font-family="Arial" font-size="14.00" fill="#666666">[varchar(2000)]</text>
<polygon fill="none" stroke="#000000" points="55,-1062.5 55,-1092.5 367,-1092.5 367,-1062.5 55,-1062.5"/>
<text text-anchor="start" x="62" y="-1073.9" font-family="Arial" font-size="14.00" fill="#000000">floor_position    </text>
<text text-anchor="start" x="179.4446" y="-1073.9" font-family="Arial" font-size="14.00" fill="#666666">[smallint(5)]</text>
<polygon fill="none" stroke="#000000" points="55,-1032.5 55,-1062.5 367,-1062.5 367,-1032.5 55,-1032.5"/>
<text text-anchor="start" x="62" y="-1043.9" font-family="Arial" font-size="14.00" fill="#000000">is_tablet_linked    </text>
<text text-anchor="start" x="192.6732" y="-1043.9" font-family="Arial" font-size="14.00" fill="#666666">[int(11)]</text>
<polygon fill="none" stroke="#000000" points="55,-1002.5 55,-1032.5 367,-1032.5 367,-1002.5 55,-1002.5"/>
<text text-anchor="start" x="62" y="-1013.9" font-family="Arial" font-size="14.00" fill="#000000">batch_mail    </text>
<text text-anchor="start" x="163.8822" y="-1013.9" font-family="Arial" font-size="14.00" fill="#666666">[int(11)]</text>
<polygon fill="none" stroke="#000000" points="55,-972.5 55,-1002.5 367,-1002.5 367,-972.5 55,-972.5"/>
<text text-anchor="start" x="62" y="-983.9" font-family="Arial" font-size="14.00" fill="#000000">batch_mail_owner    </text>
<text text-anchor="start" x="209.7798" y="-983.9" font-family="Arial" font-size="14.00" fill="#666666">[int(11)]</text>
<polygon fill="none" stroke="#000000" points="55,-942.5 55,-972.5 367,-972.5 367,-942.5 55,-942.5"/>
<text text-anchor="start" x="62" y="-953.9" font-family="Arial" font-size="14.00" fill="#000000">guide_text    </text>
<text text-anchor="start" x="160.7882" y="-953.9" font-family="Arial" font-size="14.00" fill="#666666">[text]</text>
<polygon fill="none" stroke="#000000" points="55,-912.5 55,-942.5 367,-942.5 367,-912.5 55,-912.5"/>
<text text-anchor="start" x="62" y="-923.9" font-family="Arial" font-size="14.00" fill="#000000">eating_text    </text>
<text text-anchor="start" x="164.6788" y="-923.9" font-family="Arial" font-size="14.00" fill="#666666">[varchar(1000)]</text>
<polygon fill="none" stroke="#000000" points="55,-882.5 55,-912.5 367,-912.5 367,-882.5 55,-882.5"/>
<text text-anchor="start" x="62" y="-893.9" font-family="Arial" font-size="14.00" fill="#000000">cleanup_text    </text>
<text text-anchor="start" x="175.5708" y="-893.9" font-family="Arial" font-size="14.00" fill="#666666">[varchar(1000)]</text>
<polygon fill="none" stroke="#000000" points="55,-852.5 55,-882.5 367,-882.5 367,-852.5 55,-852.5"/>
<text text-anchor="start" x="62" y="-863.9" font-family="Arial" font-size="14.00" fill="#000000">facility_text    </text>
<text text-anchor="start" x="165.4348" y="-863.9" font-family="Arial" font-size="14.00" fill="#666666">[varchar(1000)]</text>
<polygon fill="none" stroke="#000000" points="55,-822.5 55,-852.5 367,-852.5 367,-822.5 55,-822.5"/>
<text text-anchor="start" x="62" y="-833.9" font-family="Arial" font-size="14.00" fill="#000000">change_layout    </text>
<text text-anchor="start" x="187.2454" y="-833.9" font-family="Arial" font-size="14.00" fill="#666666">[smallint(2)]</text>
<polygon fill="none" stroke="#000000" points="55,-792.5 55,-822.5 367,-822.5 367,-792.5 55,-792.5"/>
<text text-anchor="start" x="62" y="-803.9" font-family="Arial" font-size="14.00" fill="#000000">reservation_unit_an_hour    </text>
<text text-anchor="start" x="254.92" y="-803.9" font-family="Arial" font-size="14.00" fill="#666666">[tinyint(1)]</text>
<polygon fill="none" stroke="#000000" points="55,-762.5 55,-792.5 367,-792.5 367,-762.5 55,-762.5"/>
<text text-anchor="start" x="62" y="-773.9" font-family="Arial" font-size="14.00" fill="#000000">payment_period    </text>
<text text-anchor="start" x="196.5666" y="-773.9" font-family="Arial" font-size="14.00" fill="#666666">[int(11)]</text>
<polygon fill="none" stroke="#000000" points="55,-732.5 55,-762.5 367,-762.5 367,-732.5 55,-732.5"/>
<text text-anchor="start" x="62" y="-743.9" font-family="Arial" font-size="14.00" fill="#000000">sort_order    </text>
<text text-anchor="start" x="159.9902" y="-743.9" font-family="Arial" font-size="14.00" fill="#666666">[int(11)]</text>
<polygon fill="none" stroke="#000000" points="55,-702.5 55,-732.5 367,-732.5 367,-702.5 55,-702.5"/>
<text text-anchor="start" x="62" y="-713.9" font-family="Arial" font-size="14.00" fill="#000000">allow_tentative    </text>
<text text-anchor="start" x="188.7812" y="-713.9" font-family="Arial" font-size="14.00" fill="#666666">[tinyint(1)]</text>
<polygon fill="none" stroke="#000000" points="55,-672.5 55,-702.5 367,-702.5 367,-672.5 55,-672.5"/>
<text text-anchor="start" x="62" y="-683.9" font-family="Arial" font-size="14.00" fill="#000000">allow_change_reserved    </text>
<text text-anchor="start" x="244.0196" y="-683.9" font-family="Arial" font-size="14.00" fill="#666666">[tinyint(1)]</text>
<polygon fill="none" stroke="#000000" points="55,-642.5 55,-672.5 367,-672.5 367,-642.5 55,-642.5"/>
<text text-anchor="start" x="62" y="-653.9" font-family="Arial" font-size="14.00" fill="#000000">allow_extend_reservation    </text>
<text text-anchor="start" x="254.9074" y="-653.9" font-family="Arial" font-size="14.00" fill="#666666">[tinyint(1)]</text>
<polygon fill="none" stroke="#000000" points="55,-612.5 55,-642.5 367,-642.5 367,-612.5 55,-612.5"/>
<text text-anchor="start" x="62" y="-623.9" font-family="Arial" font-size="14.00" fill="#000000">change_reserved_limit_date    </text>
<text text-anchor="start" x="272.0266" y="-623.9" font-family="Arial" font-size="14.00" fill="#666666">[int(11)]</text>
<polygon fill="none" stroke="#000000" points="55,-582.5 55,-612.5 367,-612.5 367,-582.5 55,-582.5"/>
<text text-anchor="start" x="62" y="-593.9" font-family="Arial" font-size="14.00" fill="#000000">tentative_period    </text>
<text text-anchor="start" x="195.7938" y="-593.9" font-family="Arial" font-size="14.00" fill="#666666">[int(11)]</text>
<polygon fill="none" stroke="#000000" points="55,-552.5 55,-582.5 367,-582.5 367,-552.5 55,-552.5"/>
<text text-anchor="start" x="62" y="-563.9" font-family="Arial" font-size="14.00" fill="#000000">tentative_limit_date    </text>
<text text-anchor="start" x="216.7882" y="-563.9" font-family="Arial" font-size="14.00" fill="#666666">[int(11)]</text>
<polygon fill="none" stroke="#000000" points="55,-522.5 55,-552.5 367,-552.5 367,-522.5 55,-522.5"/>
<text text-anchor="start" x="62" y="-533.9" font-family="Arial" font-size="14.00" fill="#000000">include_tax    </text>
<text text-anchor="start" x="167.0042" y="-533.9" font-family="Arial" font-size="14.00" fill="#666666">[tinyint(1)]</text>
<polygon fill="none" stroke="#000000" points="55,-492.5 55,-522.5 367,-522.5 367,-492.5 55,-492.5"/>
<text text-anchor="start" x="62" y="-503.9" font-family="Arial" font-size="14.00" fill="#000000">ninjalock_serial    </text>
<text text-anchor="start" x="191.8766" y="-503.9" font-family="Arial" font-size="14.00" fill="#666666">[varchar(24)]</text>
<polygon fill="none" stroke="#000000" points="55,-462.5 55,-492.5 367,-492.5 367,-462.5 55,-462.5"/>
<text text-anchor="start" x="62" y="-473.9" font-family="Arial" font-size="14.00" fill="#000000">created_datetime    </text>
<text text-anchor="start" x="204.3478" y="-473.9" font-family="Arial" font-size="14.00" fill="#666666">[timestamp]</text>
<polygon fill="none" stroke="#000000" points="55,-432.5 55,-462.5 367,-462.5 367,-432.5 55,-432.5"/>
<text text-anchor="start" x="62" y="-443.9" font-family="Arial" font-size="14.00" fill="#000000">updated_datetime    </text>
<text text-anchor="start" x="208.2524" y="-443.9" font-family="Arial" font-size="14.00" fill="#666666">[timestamp]</text>
<polygon fill="none" stroke="#000000" points="55,-402.5 55,-432.5 367,-432.5 367,-402.5 55,-402.5"/>
<text text-anchor="start" x="62" y="-413.9" font-family="Arial" font-size="14.00" fill="#000000">start_reservable_time    </text>
<text text-anchor="start" x="230.7756" y="-413.9" font-family="Arial" font-size="14.00" fill="#666666">[smallint(3)]</text>
<polygon fill="none" stroke="#000000" points="55,-372.5 55,-402.5 367,-402.5 367,-372.5 55,-372.5"/>
<text text-anchor="start" x="62" y="-383.9" font-family="Arial" font-size="14.00" fill="#000000">end_reservable_time    </text>
<text text-anchor="start" x="226.899" y="-383.9" font-family="Arial" font-size="14.00" fill="#666666">[smallint(3)]</text>
<polygon fill="none" stroke="#000000" points="55,-342.5 55,-372.5 367,-372.5 367,-342.5 55,-342.5"/>
<text text-anchor="start" x="62" y="-353.9" font-family="Arial" font-size="14.00" fill="#000000">is_set_reservable_time    </text>
<text text-anchor="start" x="240.1136" y="-353.9" font-family="Arial" font-size="14.00" fill="#666666">[tinyint(1)]</text>
<polygon fill="none" stroke="#000000" points="55,-312.5 55,-342.5 367,-342.5 367,-312.5 55,-312.5"/>
<text text-anchor="start" x="62" y="-323.9" font-family="Arial" font-size="14.00" fill="#000000">is_buffer_time_setting_enabled    </text>
<text text-anchor="start" x="290.7096" y="-323.9" font-family="Arial" font-size="14.00" fill="#666666">[tinyint(1)]</text>
<polygon fill="none" stroke="#000000" points="55,-282.5 55,-312.5 367,-312.5 367,-282.5 55,-282.5"/>
<text text-anchor="start" x="62" y="-293.9" font-family="Arial" font-size="14.00" fill="#000000">buffer_time    </text>
<text text-anchor="start" x="166.2174" y="-293.9" font-family="Arial" font-size="14.00" fill="#666666">[time]</text>
<polygon fill="none" stroke="#000000" points="55,-252.5 55,-282.5 367,-282.5 367,-252.5 55,-252.5"/>
<text text-anchor="start" x="62" y="-263.9" font-family="Arial" font-size="14.00" fill="#000000">buffer_time_control    </text>
<text text-anchor="start" x="216.0056" y="-263.9" font-family="Arial" font-size="14.00" fill="#666666">[smallint(3)]</text>
<polygon fill="none" stroke="#000000" points="55,-222.5 55,-252.5 367,-252.5 367,-222.5 55,-222.5"/>
<text text-anchor="start" x="62" y="-233.9" font-family="Arial" font-size="14.00" fill="#000000">is_one_day_rental_enabled    </text>
<text text-anchor="start" x="268.1626" y="-233.9" font-family="Arial" font-size="14.00" fill="#666666">[tinyint(1)]</text>
<polygon fill="none" stroke="#000000" points="55,-192.5 55,-222.5 367,-222.5 367,-192.5 55,-192.5"/>
<text text-anchor="start" x="62" y="-203.9" font-family="Arial" font-size="14.00" fill="#000000">owner_buffer_time    </text>
<text text-anchor="start" x="212.115" y="-203.9" font-family="Arial" font-size="14.00" fill="#666666">[time]</text>
<polygon fill="none" stroke="#000000" points="55,-162.5 55,-192.5 367,-192.5 367,-162.5 55,-162.5"/>
<text text-anchor="start" x="62" y="-173.9" font-family="Arial" font-size="14.00" fill="#000000">external_buffer_time    </text>
<text text-anchor="start" x="223.7882" y="-173.9" font-family="Arial" font-size="14.00" fill="#666666">[time]</text>
<polygon fill="none" stroke="#000000" points="55,-132.5 55,-162.5 367,-162.5 367,-132.5 55,-132.5"/>
<text text-anchor="start" x="62" y="-143.9" font-family="Arial" font-size="14.00" fill="#000000">owner_buffer_time_control    </text>
<text text-anchor="start" x="261.9032" y="-143.9" font-family="Arial" font-size="14.00" fill="#666666">[smallint(3)]</text>
<polygon fill="none" stroke="#000000" points="55,-102.5 55,-132.5 367,-132.5 367,-102.5 55,-102.5"/>
<text text-anchor="start" x="62" y="-113.9" font-family="Arial" font-size="14.00" fill="#000000">external_buffer_time_control    </text>
<text text-anchor="start" x="273.5764" y="-113.9" font-family="Arial" font-size="14.00" fill="#666666">[smallint(3)]</text>
<polygon fill="none" stroke="#000000" points="55,-72.5 55,-102.5 367,-102.5 367,-72.5 55,-72.5"/>
<text text-anchor="start" x="62" y="-83.9" font-family="Arial" font-size="14.00" fill="#000000">is_lottery_setting_enabled    </text>
<text text-anchor="start" x="258.8106" y="-83.9" font-family="Arial" font-size="14.00" fill="#666666">[tinyint(1)]</text>
<polygon fill="none" stroke="#000000" points="55,-42.5 55,-72.5 367,-72.5 367,-42.5 55,-42.5"/>
<text text-anchor="start" x="62" y="-53.9" font-family="Arial" font-size="14.00" fill="#000000">lottery_period    </text>
<text text-anchor="start" x="180.9986" y="-53.9" font-family="Arial" font-size="14.00" fill="#666666">[int(5)]</text>
</g>
<!-- sk_room_charge_hours&#45;&gt;sk_rooms -->
<g id="edge1" class="edge">
<title>sk_room_charge_hours:room_id&#45;&gt;sk_rooms:id</title>
<path fill="none" stroke="#000000" d="M385.6709,-2044.6924C430.2845,-2017.2266 419.1171,-1797.5 367,-1797.5"/>
<polygon fill="#000000" stroke="#000000" points="385.6035,-2044.7119 374.7453,-2043.1784 380.8017,-2046.1059 376,-2047.5 376,-2047.5 376,-2047.5 380.8017,-2046.1059 377.2547,-2051.8216 385.6035,-2044.7119 385.6035,-2044.7119"/>
<text text-anchor="start" x="382.8365" y="-2057.5" font-family="Arial" font-size="10.00" fill="#000000">FOREIGN KEY (room_id) REFERENCES sk_rooms (id)</text>
</g>
</g>
</svg>
