<?xml version="1.0" encoding="UTF-8" standalone="no"?>
<!DOCTYPE svg PUBLIC "-//W3C//DTD SVG 1.1//EN"
 "http://www.w3.org/Graphics/SVG/1.1/DTD/svg11.dtd">
<!-- Generated by graphviz version 2.40.1 (20161225.0304)
 -->
<!-- Title: sk_room_business_hour_weeks Pages: 1 -->
<svg width="714pt" height="2212pt"
 viewBox="0.00 0.00 714.00 2212.00" xmlns="http://www.w3.org/2000/svg" xmlns:xlink="http://www.w3.org/1999/xlink">
<g id="graph0" class="graph" transform="scale(1 1) rotate(0) translate(4 2208)">
<title>sk_room_business_hour_weeks</title>
<polygon fill="#ffffff" stroke="transparent" points="-4,4 -4,-2208 710,-2208 710,4 -4,4"/>
<!-- sk_room_business_hour_weeks -->
<g id="node1" class="node">
<title>sk_room_business_hour_weeks</title>
<polygon fill="#efefef" stroke="transparent" points="46,-2122.5 46,-2157.5 444,-2157.5 444,-2122.5 46,-2122.5"/>
<polygon fill="none" stroke="#000000" points="46,-2122.5 46,-2157.5 444,-2157.5 444,-2122.5 46,-2122.5"/>
<text text-anchor="start" x="52.687" y="-2135.3" font-family="Arial Bold" font-size="18.00" fill="#000000">sk_room_business_hour_weeks</text>
<text text-anchor="start" x="309.745" y="-2135.3" font-family="Arial" font-size="14.00" fill="#000000">    </text>
<text text-anchor="start" x="343.9498" y="-2135.3" font-family="Arial" font-size="14.00" fill="#666666">[BASE TABLE]</text>
<polygon fill="none" stroke="#000000" points="46,-2092.5 46,-2122.5 444,-2122.5 444,-2092.5 46,-2092.5"/>
<text text-anchor="start" x="53" y="-2103.9" font-family="Arial" font-size="14.00" fill="#000000">id </text>
<text text-anchor="start" x="67.7798" y="-2103.9" font-family="Arial" font-size="14.00" fill="#666666">[int(11)]</text>
<polygon fill="none" stroke="#000000" points="46,-2062.5 46,-2092.5 444,-2092.5 444,-2062.5 46,-2062.5"/>
<text text-anchor="start" x="53" y="-2073.9" font-family="Arial" font-size="14.00" fill="#000000">room_id </text>
<text text-anchor="start" x="107.4488" y="-2073.9" font-family="Arial" font-size="14.00" fill="#666666">[int(11) unsigned]</text>
<polygon fill="none" stroke="#000000" points="46,-2032.5 46,-2062.5 444,-2062.5 444,-2032.5 46,-2032.5"/>
<text text-anchor="start" x="53" y="-2043.9" font-family="Arial" font-size="14.00" fill="#000000">week_type </text>
<text text-anchor="start" x="123.8008" y="-2043.9" font-family="Arial" font-size="14.00" fill="#666666">[smallint(6)]</text>
<polygon fill="none" stroke="#000000" points="46,-2002.5 46,-2032.5 444,-2032.5 444,-2002.5 46,-2002.5"/>
<text text-anchor="start" x="53" y="-2013.9" font-family="Arial" font-size="14.00" fill="#000000">first_time </text>
<text text-anchor="start" x="113.662" y="-2013.9" font-family="Arial" font-size="14.00" fill="#666666">[time]</text>
<polygon fill="none" stroke="#000000" points="46,-1972.5 46,-2002.5 444,-2002.5 444,-1972.5 46,-1972.5"/>
<text text-anchor="start" x="53" y="-1983.9" font-family="Arial" font-size="14.00" fill="#000000">last_time </text>
<text text-anchor="start" x="112.8934" y="-1983.9" font-family="Arial" font-size="14.00" fill="#666666">[time]</text>
<polygon fill="none" stroke="#000000" stroke-width="3" points="44.5,-1971.5 44.5,-2159.5 445.5,-2159.5 445.5,-1971.5 44.5,-1971.5"/>
</g>
<!-- sk_rooms -->
<g id="node2" class="node">
<title>sk_rooms</title>
<polygon fill="#efefef" stroke="transparent" points="89,-1812.5 89,-1847.5 401,-1847.5 401,-1812.5 89,-1812.5"/>
<polygon fill="none" stroke="#000000" points="89,-1812.5 89,-1847.5 401,-1847.5 401,-1812.5 89,-1812.5"/>
<text text-anchor="start" x="142.2145" y="-1825.3" font-family="Arial Bold" font-size="18.00" fill="#000000">sk_rooms</text>
<text text-anchor="start" x="220.2175" y="-1825.3" font-family="Arial" font-size="14.00" fill="#000000">    </text>
<text text-anchor="start" x="254.4223" y="-1825.3" font-family="Arial" font-size="14.00" fill="#666666">[BASE TABLE]</text>
<polygon fill="none" stroke="#000000" points="89,-1782.5 89,-1812.5 401,-1812.5 401,-1782.5 89,-1782.5"/>
<text text-anchor="start" x="96" y="-1793.9" font-family="Arial" font-size="14.00" fill="#000000">id    </text>
<text text-anchor="start" x="141.094" y="-1793.9" font-family="Arial" font-size="14.00" fill="#666666">[int(11) unsigned]</text>
<polygon fill="none" stroke="#000000" points="89,-1752.5 89,-1782.5 401,-1782.5 401,-1752.5 89,-1752.5"/>
<text text-anchor="start" x="96" y="-1763.9" font-family="Arial" font-size="14.00" fill="#000000">is_deleted    </text>
<text text-anchor="start" x="194.0042" y="-1763.9" font-family="Arial" font-size="14.00" fill="#666666">[tinyint(1)]</text>
<polygon fill="none" stroke="#000000" points="89,-1722.5 89,-1752.5 401,-1752.5 401,-1722.5 89,-1722.5"/>
<text text-anchor="start" x="96" y="-1733.9" font-family="Arial" font-size="14.00" fill="#000000">is_public    </text>
<text text-anchor="start" x="184.655" y="-1733.9" font-family="Arial" font-size="14.00" fill="#666666">[tinyint(1)]</text>
<polygon fill="none" stroke="#000000" points="89,-1692.5 89,-1722.5 401,-1722.5 401,-1692.5 89,-1692.5"/>
<text text-anchor="start" x="96" y="-1703.9" font-family="Arial" font-size="14.00" fill="#000000">is_set    </text>
<text text-anchor="start" x="166.7672" y="-1703.9" font-family="Arial" font-size="14.00" fill="#666666">[tinyint(1)]</text>
<polygon fill="none" stroke="#000000" points="89,-1662.5 89,-1692.5 401,-1692.5 401,-1662.5 89,-1662.5"/>
<text text-anchor="start" x="96" y="-1673.9" font-family="Arial" font-size="14.00" fill="#000000">property_id    </text>
<text text-anchor="start" x="200.2188" y="-1673.9" font-family="Arial" font-size="14.00" fill="#666666">[int(11) unsigned]</text>
<polygon fill="none" stroke="#000000" points="89,-1632.5 89,-1662.5 401,-1662.5 401,-1632.5 89,-1632.5"/>
<text text-anchor="start" x="96" y="-1643.9" font-family="Arial" font-size="14.00" fill="#000000">lessor_id    </text>
<text text-anchor="start" x="186.209" y="-1643.9" font-family="Arial" font-size="14.00" fill="#666666">[int(11) unsigned]</text>
<polygon fill="none" stroke="#000000" points="89,-1602.5 89,-1632.5 401,-1632.5 401,-1602.5 89,-1602.5"/>
<text text-anchor="start" x="96" y="-1613.9" font-family="Arial" font-size="14.00" fill="#000000">name    </text>
<text text-anchor="start" x="165.2132" y="-1613.9" font-family="Arial" font-size="14.00" fill="#666666">[varchar(200)]</text>
<polygon fill="none" stroke="#000000" points="89,-1572.5 89,-1602.5 401,-1602.5 401,-1572.5 89,-1572.5"/>
<text text-anchor="start" x="96" y="-1583.9" font-family="Arial" font-size="14.00" fill="#000000">voice_name    </text>
<text text-anchor="start" x="205.6676" y="-1583.9" font-family="Arial" font-size="14.00" fill="#666666">[varchar(200)]</text>
<polygon fill="none" stroke="#000000" points="89,-1542.5 89,-1572.5 401,-1572.5 401,-1542.5 89,-1542.5"/>
<text text-anchor="start" x="96" y="-1553.9" font-family="Arial" font-size="14.00" fill="#000000">description_url    </text>
<text text-anchor="start" x="221.2146" y="-1553.9" font-family="Arial" font-size="14.00" fill="#666666">[varchar(1000)]</text>
<polygon fill="none" stroke="#000000" points="89,-1512.5 89,-1542.5 401,-1542.5 401,-1512.5 89,-1512.5"/>
<text text-anchor="start" x="96" y="-1523.9" font-family="Arial" font-size="14.00" fill="#000000">exclusive_area    </text>
<text text-anchor="start" x="223.5568" y="-1523.9" font-family="Arial" font-size="14.00" fill="#666666">[decimal(10,2)]</text>
<polygon fill="none" stroke="#000000" points="89,-1482.5 89,-1512.5 401,-1512.5 401,-1482.5 89,-1482.5"/>
<text text-anchor="start" x="96" y="-1493.9" font-family="Arial" font-size="14.00" fill="#000000">ceiling_height    </text>
<text text-anchor="start" x="215.7826" y="-1493.9" font-family="Arial" font-size="14.00" fill="#666666">[decimal(10,2)]</text>
<polygon fill="none" stroke="#000000" points="89,-1452.5 89,-1482.5 401,-1482.5 401,-1452.5 89,-1452.5"/>
<text text-anchor="start" x="96" y="-1463.9" font-family="Arial" font-size="14.00" fill="#000000">floor    </text>
<text text-anchor="start" x="157.4278" y="-1463.9" font-family="Arial" font-size="14.00" fill="#666666">[smallint(5)]</text>
<polygon fill="none" stroke="#000000" points="89,-1422.5 89,-1452.5 401,-1452.5 401,-1422.5 89,-1422.5"/>
<text text-anchor="start" x="96" y="-1433.9" font-family="Arial" font-size="14.00" fill="#000000">minimum_time    </text>
<text text-anchor="start" x="221.188" y="-1433.9" font-family="Arial" font-size="14.00" fill="#666666">[time]</text>
<polygon fill="none" stroke="#000000" points="89,-1392.5 89,-1422.5 401,-1422.5 401,-1392.5 89,-1392.5"/>
<text text-anchor="start" x="96" y="-1403.9" font-family="Arial" font-size="14.00" fill="#000000">maximum_time    </text>
<text text-anchor="start" x="225.0814" y="-1403.9" font-family="Arial" font-size="14.00" fill="#666666">[time]</text>
<polygon fill="none" stroke="#000000" points="89,-1362.5 89,-1392.5 401,-1392.5 401,-1362.5 89,-1362.5"/>
<text text-anchor="start" x="96" y="-1373.9" font-family="Arial" font-size="14.00" fill="#000000">start_date    </text>
<text text-anchor="start" x="192.4502" y="-1373.9" font-family="Arial" font-size="14.00" fill="#666666">[date]</text>
<polygon fill="none" stroke="#000000" points="89,-1332.5 89,-1362.5 401,-1362.5 401,-1332.5 89,-1332.5"/>
<text text-anchor="start" x="96" y="-1343.9" font-family="Arial" font-size="14.00" fill="#000000">end_date    </text>
<text text-anchor="start" x="188.5736" y="-1343.9" font-family="Arial" font-size="14.00" fill="#666666">[date]</text>
<polygon fill="none" stroke="#000000" points="89,-1302.5 89,-1332.5 401,-1332.5 401,-1302.5 89,-1302.5"/>
<text text-anchor="start" x="96" y="-1313.9" font-family="Arial" font-size="14.00" fill="#000000">is_ninjalock    </text>
<text text-anchor="start" x="202.5442" y="-1313.9" font-family="Arial" font-size="14.00" fill="#666666">[tinyint(1)]</text>
<polygon fill="none" stroke="#000000" points="89,-1272.5 89,-1302.5 401,-1302.5 401,-1272.5 89,-1272.5"/>
<text text-anchor="start" x="96" y="-1283.9" font-family="Arial" font-size="14.00" fill="#000000">is_display_entrance_note    </text>
<text text-anchor="start" x="288.9228" y="-1283.9" font-family="Arial" font-size="14.00" fill="#666666">[tinyint(1)]</text>
<polygon fill="none" stroke="#000000" points="89,-1242.5 89,-1272.5 401,-1272.5 401,-1242.5 89,-1242.5"/>
<text text-anchor="start" x="95.6487" y="-1253.9" font-family="Arial" font-size="14.00" fill="#000000">is_using_custom_business_hour    </text>
<text text-anchor="start" x="332.9067" y="-1253.9" font-family="Arial" font-size="14.00" fill="#666666">[tinyint(1)]</text>
<polygon fill="none" stroke="#000000" points="89,-1212.5 89,-1242.5 401,-1242.5 401,-1212.5 89,-1212.5"/>
<text text-anchor="start" x="96" y="-1223.9" font-family="Arial" font-size="14.00" fill="#000000">has_local_area_network    </text>
<text text-anchor="start" x="281.9102" y="-1223.9" font-family="Arial" font-size="14.00" fill="#666666">[tinyint(1)]</text>
<polygon fill="none" stroke="#000000" points="89,-1182.5 89,-1212.5 401,-1212.5 401,-1182.5 89,-1182.5"/>
<text text-anchor="start" x="96" y="-1193.9" font-family="Arial" font-size="14.00" fill="#000000">basic_price    </text>
<text text-anchor="start" x="200.9916" y="-1193.9" font-family="Arial" font-size="14.00" fill="#666666">[int(11) unsigned]</text>
<polygon fill="none" stroke="#000000" points="89,-1152.5 89,-1182.5 401,-1182.5 401,-1152.5 89,-1152.5"/>
<text text-anchor="start" x="96" y="-1163.9" font-family="Arial" font-size="14.00" fill="#000000">extend_price    </text>
<text text-anchor="start" x="210.3408" y="-1163.9" font-family="Arial" font-size="14.00" fill="#666666">[int(11)]</text>
<polygon fill="none" stroke="#000000" points="89,-1122.5 89,-1152.5 401,-1152.5 401,-1122.5 89,-1122.5"/>
<text text-anchor="start" x="96" y="-1133.9" font-family="Arial" font-size="14.00" fill="#000000">max_price    </text>
<text text-anchor="start" x="194.763" y="-1133.9" font-family="Arial" font-size="14.00" fill="#666666">[int(11)]</text>
<polygon fill="none" stroke="#000000" points="89,-1092.5 89,-1122.5 401,-1122.5 401,-1092.5 89,-1092.5"/>
<text text-anchor="start" x="96" y="-1103.9" font-family="Arial" font-size="14.00" fill="#000000">memo    </text>
<text text-anchor="start" x="169.0912" y="-1103.9" font-family="Arial" font-size="14.00" fill="#666666">[varchar(2000)]</text>
<polygon fill="none" stroke="#000000" points="89,-1062.5 89,-1092.5 401,-1092.5 401,-1062.5 89,-1062.5"/>
<text text-anchor="start" x="96" y="-1073.9" font-family="Arial" font-size="14.00" fill="#000000">floor_position    </text>
<text text-anchor="start" x="213.4446" y="-1073.9" font-family="Arial" font-size="14.00" fill="#666666">[smallint(5)]</text>
<polygon fill="none" stroke="#000000" points="89,-1032.5 89,-1062.5 401,-1062.5 401,-1032.5 89,-1032.5"/>
<text text-anchor="start" x="96" y="-1043.9" font-family="Arial" font-size="14.00" fill="#000000">is_tablet_linked    </text>
<text text-anchor="start" x="226.6732" y="-1043.9" font-family="Arial" font-size="14.00" fill="#666666">[int(11)]</text>
<polygon fill="none" stroke="#000000" points="89,-1002.5 89,-1032.5 401,-1032.5 401,-1002.5 89,-1002.5"/>
<text text-anchor="start" x="96" y="-1013.9" font-family="Arial" font-size="14.00" fill="#000000">batch_mail    </text>
<text text-anchor="start" x="197.8822" y="-1013.9" font-family="Arial" font-size="14.00" fill="#666666">[int(11)]</text>
<polygon fill="none" stroke="#000000" points="89,-972.5 89,-1002.5 401,-1002.5 401,-972.5 89,-972.5"/>
<text text-anchor="start" x="96" y="-983.9" font-family="Arial" font-size="14.00" fill="#000000">batch_mail_owner    </text>
<text text-anchor="start" x="243.7798" y="-983.9" font-family="Arial" font-size="14.00" fill="#666666">[int(11)]</text>
<polygon fill="none" stroke="#000000" points="89,-942.5 89,-972.5 401,-972.5 401,-942.5 89,-942.5"/>
<text text-anchor="start" x="96" y="-953.9" font-family="Arial" font-size="14.00" fill="#000000">guide_text    </text>
<text text-anchor="start" x="194.7882" y="-953.9" font-family="Arial" font-size="14.00" fill="#666666">[text]</text>
<polygon fill="none" stroke="#000000" points="89,-912.5 89,-942.5 401,-942.5 401,-912.5 89,-912.5"/>
<text text-anchor="start" x="96" y="-923.9" font-family="Arial" font-size="14.00" fill="#000000">eating_text    </text>
<text text-anchor="start" x="198.6788" y="-923.9" font-family="Arial" font-size="14.00" fill="#666666">[varchar(1000)]</text>
<polygon fill="none" stroke="#000000" points="89,-882.5 89,-912.5 401,-912.5 401,-882.5 89,-882.5"/>
<text text-anchor="start" x="96" y="-893.9" font-family="Arial" font-size="14.00" fill="#000000">cleanup_text    </text>
<text text-anchor="start" x="209.5708" y="-893.9" font-family="Arial" font-size="14.00" fill="#666666">[varchar(1000)]</text>
<polygon fill="none" stroke="#000000" points="89,-852.5 89,-882.5 401,-882.5 401,-852.5 89,-852.5"/>
<text text-anchor="start" x="96" y="-863.9" font-family="Arial" font-size="14.00" fill="#000000">facility_text    </text>
<text text-anchor="start" x="199.4348" y="-863.9" font-family="Arial" font-size="14.00" fill="#666666">[varchar(1000)]</text>
<polygon fill="none" stroke="#000000" points="89,-822.5 89,-852.5 401,-852.5 401,-822.5 89,-822.5"/>
<text text-anchor="start" x="96" y="-833.9" font-family="Arial" font-size="14.00" fill="#000000">change_layout    </text>
<text text-anchor="start" x="221.2454" y="-833.9" font-family="Arial" font-size="14.00" fill="#666666">[smallint(2)]</text>
<polygon fill="none" stroke="#000000" points="89,-792.5 89,-822.5 401,-822.5 401,-792.5 89,-792.5"/>
<text text-anchor="start" x="96" y="-803.9" font-family="Arial" font-size="14.00" fill="#000000">reservation_unit_an_hour    </text>
<text text-anchor="start" x="288.92" y="-803.9" font-family="Arial" font-size="14.00" fill="#666666">[tinyint(1)]</text>
<polygon fill="none" stroke="#000000" points="89,-762.5 89,-792.5 401,-792.5 401,-762.5 89,-762.5"/>
<text text-anchor="start" x="96" y="-773.9" font-family="Arial" font-size="14.00" fill="#000000">payment_period    </text>
<text text-anchor="start" x="230.5666" y="-773.9" font-family="Arial" font-size="14.00" fill="#666666">[int(11)]</text>
<polygon fill="none" stroke="#000000" points="89,-732.5 89,-762.5 401,-762.5 401,-732.5 89,-732.5"/>
<text text-anchor="start" x="96" y="-743.9" font-family="Arial" font-size="14.00" fill="#000000">sort_order    </text>
<text text-anchor="start" x="193.9902" y="-743.9" font-family="Arial" font-size="14.00" fill="#666666">[int(11)]</text>
<polygon fill="none" stroke="#000000" points="89,-702.5 89,-732.5 401,-732.5 401,-702.5 89,-702.5"/>
<text text-anchor="start" x="96" y="-713.9" font-family="Arial" font-size="14.00" fill="#000000">allow_tentative    </text>
<text text-anchor="start" x="222.7812" y="-713.9" font-family="Arial" font-size="14.00" fill="#666666">[tinyint(1)]</text>
<polygon fill="none" stroke="#000000" points="89,-672.5 89,-702.5 401,-702.5 401,-672.5 89,-672.5"/>
<text text-anchor="start" x="96" y="-683.9" font-family="Arial" font-size="14.00" fill="#000000">allow_change_reserved    </text>
<text text-anchor="start" x="278.0196" y="-683.9" font-family="Arial" font-size="14.00" fill="#666666">[tinyint(1)]</text>
<polygon fill="none" stroke="#000000" points="89,-642.5 89,-672.5 401,-672.5 401,-642.5 89,-642.5"/>
<text text-anchor="start" x="96" y="-653.9" font-family="Arial" font-size="14.00" fill="#000000">allow_extend_reservation    </text>
<text text-anchor="start" x="288.9074" y="-653.9" font-family="Arial" font-size="14.00" fill="#666666">[tinyint(1)]</text>
<polygon fill="none" stroke="#000000" points="89,-612.5 89,-642.5 401,-642.5 401,-612.5 89,-612.5"/>
<text text-anchor="start" x="96" y="-623.9" font-family="Arial" font-size="14.00" fill="#000000">change_reserved_limit_date    </text>
<text text-anchor="start" x="306.0266" y="-623.9" font-family="Arial" font-size="14.00" fill="#666666">[int(11)]</text>
<polygon fill="none" stroke="#000000" points="89,-582.5 89,-612.5 401,-612.5 401,-582.5 89,-582.5"/>
<text text-anchor="start" x="96" y="-593.9" font-family="Arial" font-size="14.00" fill="#000000">tentative_period    </text>
<text text-anchor="start" x="229.7938" y="-593.9" font-family="Arial" font-size="14.00" fill="#666666">[int(11)]</text>
<polygon fill="none" stroke="#000000" points="89,-552.5 89,-582.5 401,-582.5 401,-552.5 89,-552.5"/>
<text text-anchor="start" x="96" y="-563.9" font-family="Arial" font-size="14.00" fill="#000000">tentative_limit_date    </text>
<text text-anchor="start" x="250.7882" y="-563.9" font-family="Arial" font-size="14.00" fill="#666666">[int(11)]</text>
<polygon fill="none" stroke="#000000" points="89,-522.5 89,-552.5 401,-552.5 401,-522.5 89,-522.5"/>
<text text-anchor="start" x="96" y="-533.9" font-family="Arial" font-size="14.00" fill="#000000">include_tax    </text>
<text text-anchor="start" x="201.0042" y="-533.9" font-family="Arial" font-size="14.00" fill="#666666">[tinyint(1)]</text>
<polygon fill="none" stroke="#000000" points="89,-492.5 89,-522.5 401,-522.5 401,-492.5 89,-492.5"/>
<text text-anchor="start" x="96" y="-503.9" font-family="Arial" font-size="14.00" fill="#000000">ninjalock_serial    </text>
<text text-anchor="start" x="225.8766" y="-503.9" font-family="Arial" font-size="14.00" fill="#666666">[varchar(24)]</text>
<polygon fill="none" stroke="#000000" points="89,-462.5 89,-492.5 401,-492.5 401,-462.5 89,-462.5"/>
<text text-anchor="start" x="96" y="-473.9" font-family="Arial" font-size="14.00" fill="#000000">created_datetime    </text>
<text text-anchor="start" x="238.3478" y="-473.9" font-family="Arial" font-size="14.00" fill="#666666">[timestamp]</text>
<polygon fill="none" stroke="#000000" points="89,-432.5 89,-462.5 401,-462.5 401,-432.5 89,-432.5"/>
<text text-anchor="start" x="96" y="-443.9" font-family="Arial" font-size="14.00" fill="#000000">updated_datetime    </text>
<text text-anchor="start" x="242.2524" y="-443.9" font-family="Arial" font-size="14.00" fill="#666666">[timestamp]</text>
<polygon fill="none" stroke="#000000" points="89,-402.5 89,-432.5 401,-432.5 401,-402.5 89,-402.5"/>
<text text-anchor="start" x="96" y="-413.9" font-family="Arial" font-size="14.00" fill="#000000">start_reservable_time    </text>
<text text-anchor="start" x="264.7756" y="-413.9" font-family="Arial" font-size="14.00" fill="#666666">[smallint(3)]</text>
<polygon fill="none" stroke="#000000" points="89,-372.5 89,-402.5 401,-402.5 401,-372.5 89,-372.5"/>
<text text-anchor="start" x="96" y="-383.9" font-family="Arial" font-size="14.00" fill="#000000">end_reservable_time    </text>
<text text-anchor="start" x="260.899" y="-383.9" font-family="Arial" font-size="14.00" fill="#666666">[smallint(3)]</text>
<polygon fill="none" stroke="#000000" points="89,-342.5 89,-372.5 401,-372.5 401,-342.5 89,-342.5"/>
<text text-anchor="start" x="96" y="-353.9" font-family="Arial" font-size="14.00" fill="#000000">is_set_reservable_time    </text>
<text text-anchor="start" x="274.1136" y="-353.9" font-family="Arial" font-size="14.00" fill="#666666">[tinyint(1)]</text>
<polygon fill="none" stroke="#000000" points="89,-312.5 89,-342.5 401,-342.5 401,-312.5 89,-312.5"/>
<text text-anchor="start" x="96" y="-323.9" font-family="Arial" font-size="14.00" fill="#000000">is_buffer_time_setting_enabled    </text>
<text text-anchor="start" x="324.7096" y="-323.9" font-family="Arial" font-size="14.00" fill="#666666">[tinyint(1)]</text>
<polygon fill="none" stroke="#000000" points="89,-282.5 89,-312.5 401,-312.5 401,-282.5 89,-282.5"/>
<text text-anchor="start" x="96" y="-293.9" font-family="Arial" font-size="14.00" fill="#000000">buffer_time    </text>
<text text-anchor="start" x="200.2174" y="-293.9" font-family="Arial" font-size="14.00" fill="#666666">[time]</text>
<polygon fill="none" stroke="#000000" points="89,-252.5 89,-282.5 401,-282.5 401,-252.5 89,-252.5"/>
<text text-anchor="start" x="96" y="-263.9" font-family="Arial" font-size="14.00" fill="#000000">buffer_time_control    </text>
<text text-anchor="start" x="250.0056" y="-263.9" font-family="Arial" font-size="14.00" fill="#666666">[smallint(3)]</text>
<polygon fill="none" stroke="#000000" points="89,-222.5 89,-252.5 401,-252.5 401,-222.5 89,-222.5"/>
<text text-anchor="start" x="96" y="-233.9" font-family="Arial" font-size="14.00" fill="#000000">is_one_day_rental_enabled    </text>
<text text-anchor="start" x="302.1626" y="-233.9" font-family="Arial" font-size="14.00" fill="#666666">[tinyint(1)]</text>
<polygon fill="none" stroke="#000000" points="89,-192.5 89,-222.5 401,-222.5 401,-192.5 89,-192.5"/>
<text text-anchor="start" x="96" y="-203.9" font-family="Arial" font-size="14.00" fill="#000000">owner_buffer_time    </text>
<text text-anchor="start" x="246.115" y="-203.9" font-family="Arial" font-size="14.00" fill="#666666">[time]</text>
<polygon fill="none" stroke="#000000" points="89,-162.5 89,-192.5 401,-192.5 401,-162.5 89,-162.5"/>
<text text-anchor="start" x="96" y="-173.9" font-family="Arial" font-size="14.00" fill="#000000">external_buffer_time    </text>
<text text-anchor="start" x="257.7882" y="-173.9" font-family="Arial" font-size="14.00" fill="#666666">[time]</text>
<polygon fill="none" stroke="#000000" points="89,-132.5 89,-162.5 401,-162.5 401,-132.5 89,-132.5"/>
<text text-anchor="start" x="96" y="-143.9" font-family="Arial" font-size="14.00" fill="#000000">owner_buffer_time_control    </text>
<text text-anchor="start" x="295.9032" y="-143.9" font-family="Arial" font-size="14.00" fill="#666666">[smallint(3)]</text>
<polygon fill="none" stroke="#000000" points="89,-102.5 89,-132.5 401,-132.5 401,-102.5 89,-102.5"/>
<text text-anchor="start" x="96" y="-113.9" font-family="Arial" font-size="14.00" fill="#000000">external_buffer_time_control    </text>
<text text-anchor="start" x="307.5764" y="-113.9" font-family="Arial" font-size="14.00" fill="#666666">[smallint(3)]</text>
<polygon fill="none" stroke="#000000" points="89,-72.5 89,-102.5 401,-102.5 401,-72.5 89,-72.5"/>
<text text-anchor="start" x="96" y="-83.9" font-family="Arial" font-size="14.00" fill="#000000">is_lottery_setting_enabled    </text>
<text text-anchor="start" x="292.8106" y="-83.9" font-family="Arial" font-size="14.00" fill="#666666">[tinyint(1)]</text>
<polygon fill="none" stroke="#000000" points="89,-42.5 89,-72.5 401,-72.5 401,-42.5 89,-42.5"/>
<text text-anchor="start" x="96" y="-53.9" font-family="Arial" font-size="14.00" fill="#000000">lottery_period    </text>
<text text-anchor="start" x="214.9986" y="-53.9" font-family="Arial" font-size="14.00" fill="#666666">[int(5)]</text>
</g>
<!-- sk_room_business_hour_weeks&#45;&gt;sk_rooms -->
<g id="edge1" class="edge">
<title>sk_room_business_hour_weeks:room_id&#45;&gt;sk_rooms:id</title>
<path fill="none" stroke="#000000" d="M454.2924,-2076.839C567.4013,-2061.8652 523.3377,-1797.5 401,-1797.5"/>
<polygon fill="#000000" stroke="#000000" points="453.9794,-2076.859 443.7116,-2073.0093 448.9897,-2077.1795 444,-2077.5 444,-2077.5 444,-2077.5 448.9897,-2077.1795 444.2884,-2081.9907 453.9794,-2076.859 453.9794,-2076.859"/>
<text text-anchor="start" x="450.8365" y="-2087.5" font-family="Arial" font-size="10.00" fill="#000000">FOREIGN KEY (room_id) REFERENCES sk_rooms (id)</text>
</g>
</g>
</svg>
