<?xml version="1.0" encoding="UTF-8" standalone="no"?>
<!DOCTYPE svg PUBLIC "-//W3C//DTD SVG 1.1//EN"
 "http://www.w3.org/Graphics/SVG/1.1/DTD/svg11.dtd">
<!-- Generated by graphviz version 2.40.1 (20161225.0304)
 -->
<!-- Title: sk_room_charge_hour_weeks Pages: 1 -->
<svg width="698pt" height="2212pt"
 viewBox="0.00 0.00 698.00 2212.00" xmlns="http://www.w3.org/2000/svg" xmlns:xlink="http://www.w3.org/1999/xlink">
<g id="graph0" class="graph" transform="scale(1 1) rotate(0) translate(4 2208)">
<title>sk_room_charge_hour_weeks</title>
<polygon fill="#ffffff" stroke="transparent" points="-4,4 -4,-2208 694,-2208 694,4 -4,4"/>
<!-- sk_room_charge_hour_weeks -->
<g id="node1" class="node">
<title>sk_room_charge_hour_weeks</title>
<polygon fill="#efefef" stroke="transparent" points="46,-2122.5 46,-2157.5 428,-2157.5 428,-2122.5 46,-2122.5"/>
<polygon fill="none" stroke="#000000" points="46,-2122.5 46,-2157.5 428,-2157.5 428,-2122.5 46,-2122.5"/>
<text text-anchor="start" x="52.688" y="-2135.3" font-family="Arial Bold" font-size="18.00" fill="#000000">sk_room_charge_hour_weeks</text>
<text text-anchor="start" x="293.744" y="-2135.3" font-family="Arial" font-size="14.00" fill="#000000">    </text>
<text text-anchor="start" x="327.9488" y="-2135.3" font-family="Arial" font-size="14.00" fill="#666666">[BASE TABLE]</text>
<polygon fill="none" stroke="#000000" points="46,-2092.5 46,-2122.5 428,-2122.5 428,-2092.5 46,-2092.5"/>
<text text-anchor="start" x="53" y="-2103.9" font-family="Arial" font-size="14.00" fill="#000000">id </text>
<text text-anchor="start" x="67.7798" y="-2103.9" font-family="Arial" font-size="14.00" fill="#666666">[int(11) unsigned]</text>
<polygon fill="none" stroke="#000000" points="46,-2062.5 46,-2092.5 428,-2092.5 428,-2062.5 46,-2062.5"/>
<text text-anchor="start" x="53" y="-2073.9" font-family="Arial" font-size="14.00" fill="#000000">room_id </text>
<text text-anchor="start" x="107.4488" y="-2073.9" font-family="Arial" font-size="14.00" fill="#666666">[int(11) unsigned]</text>
<polygon fill="none" stroke="#000000" points="46,-2032.5 46,-2062.5 428,-2062.5 428,-2032.5 46,-2032.5"/>
<text text-anchor="start" x="53" y="-2043.9" font-family="Arial" font-size="14.00" fill="#000000">hour </text>
<text text-anchor="start" x="84.899" y="-2043.9" font-family="Arial" font-size="14.00" fill="#666666">[time]</text>
<polygon fill="none" stroke="#000000" points="46,-2002.5 46,-2032.5 428,-2032.5 428,-2002.5 46,-2002.5"/>
<text text-anchor="start" x="53" y="-2013.9" font-family="Arial" font-size="14.00" fill="#000000">week_type </text>
<text text-anchor="start" x="123.8008" y="-2013.9" font-family="Arial" font-size="14.00" fill="#666666">[smallint(6)]</text>
<polygon fill="none" stroke="#000000" points="46,-1972.5 46,-2002.5 428,-2002.5 428,-1972.5 46,-1972.5"/>
<text text-anchor="start" x="53" y="-1983.9" font-family="Arial" font-size="14.00" fill="#000000">price </text>
<text text-anchor="start" x="87.223" y="-1983.9" font-family="Arial" font-size="14.00" fill="#666666">[int(11)]</text>
<polygon fill="none" stroke="#000000" stroke-width="3" points="44.5,-1971.5 44.5,-2159.5 429.5,-2159.5 429.5,-1971.5 44.5,-1971.5"/>
</g>
<!-- sk_rooms -->
<g id="node2" class="node">
<title>sk_rooms</title>
<polygon fill="#efefef" stroke="transparent" points="81,-1812.5 81,-1847.5 393,-1847.5 393,-1812.5 81,-1812.5"/>
<polygon fill="none" stroke="#000000" points="81,-1812.5 81,-1847.5 393,-1847.5 393,-1812.5 81,-1812.5"/>
<text text-anchor="start" x="134.2145" y="-1825.3" font-family="Arial Bold" font-size="18.00" fill="#000000">sk_rooms</text>
<text text-anchor="start" x="212.2175" y="-1825.3" font-family="Arial" font-size="14.00" fill="#000000">    </text>
<text text-anchor="start" x="246.4223" y="-1825.3" font-family="Arial" font-size="14.00" fill="#666666">[BASE TABLE]</text>
<polygon fill="none" stroke="#000000" points="81,-1782.5 81,-1812.5 393,-1812.5 393,-1782.5 81,-1782.5"/>
<text text-anchor="start" x="88" y="-1793.9" font-family="Arial" font-size="14.00" fill="#000000">id    </text>
<text text-anchor="start" x="133.094" y="-1793.9" font-family="Arial" font-size="14.00" fill="#666666">[int(11) unsigned]</text>
<polygon fill="none" stroke="#000000" points="81,-1752.5 81,-1782.5 393,-1782.5 393,-1752.5 81,-1752.5"/>
<text text-anchor="start" x="88" y="-1763.9" font-family="Arial" font-size="14.00" fill="#000000">is_deleted    </text>
<text text-anchor="start" x="186.0042" y="-1763.9" font-family="Arial" font-size="14.00" fill="#666666">[tinyint(1)]</text>
<polygon fill="none" stroke="#000000" points="81,-1722.5 81,-1752.5 393,-1752.5 393,-1722.5 81,-1722.5"/>
<text text-anchor="start" x="88" y="-1733.9" font-family="Arial" font-size="14.00" fill="#000000">is_public    </text>
<text text-anchor="start" x="176.655" y="-1733.9" font-family="Arial" font-size="14.00" fill="#666666">[tinyint(1)]</text>
<polygon fill="none" stroke="#000000" points="81,-1692.5 81,-1722.5 393,-1722.5 393,-1692.5 81,-1692.5"/>
<text text-anchor="start" x="88" y="-1703.9" font-family="Arial" font-size="14.00" fill="#000000">is_set    </text>
<text text-anchor="start" x="158.7672" y="-1703.9" font-family="Arial" font-size="14.00" fill="#666666">[tinyint(1)]</text>
<polygon fill="none" stroke="#000000" points="81,-1662.5 81,-1692.5 393,-1692.5 393,-1662.5 81,-1662.5"/>
<text text-anchor="start" x="88" y="-1673.9" font-family="Arial" font-size="14.00" fill="#000000">property_id    </text>
<text text-anchor="start" x="192.2188" y="-1673.9" font-family="Arial" font-size="14.00" fill="#666666">[int(11) unsigned]</text>
<polygon fill="none" stroke="#000000" points="81,-1632.5 81,-1662.5 393,-1662.5 393,-1632.5 81,-1632.5"/>
<text text-anchor="start" x="88" y="-1643.9" font-family="Arial" font-size="14.00" fill="#000000">lessor_id    </text>
<text text-anchor="start" x="178.209" y="-1643.9" font-family="Arial" font-size="14.00" fill="#666666">[int(11) unsigned]</text>
<polygon fill="none" stroke="#000000" points="81,-1602.5 81,-1632.5 393,-1632.5 393,-1602.5 81,-1602.5"/>
<text text-anchor="start" x="88" y="-1613.9" font-family="Arial" font-size="14.00" fill="#000000">name    </text>
<text text-anchor="start" x="157.2132" y="-1613.9" font-family="Arial" font-size="14.00" fill="#666666">[varchar(200)]</text>
<polygon fill="none" stroke="#000000" points="81,-1572.5 81,-1602.5 393,-1602.5 393,-1572.5 81,-1572.5"/>
<text text-anchor="start" x="88" y="-1583.9" font-family="Arial" font-size="14.00" fill="#000000">voice_name    </text>
<text text-anchor="start" x="197.6676" y="-1583.9" font-family="Arial" font-size="14.00" fill="#666666">[varchar(200)]</text>
<polygon fill="none" stroke="#000000" points="81,-1542.5 81,-1572.5 393,-1572.5 393,-1542.5 81,-1542.5"/>
<text text-anchor="start" x="88" y="-1553.9" font-family="Arial" font-size="14.00" fill="#000000">description_url    </text>
<text text-anchor="start" x="213.2146" y="-1553.9" font-family="Arial" font-size="14.00" fill="#666666">[varchar(1000)]</text>
<polygon fill="none" stroke="#000000" points="81,-1512.5 81,-1542.5 393,-1542.5 393,-1512.5 81,-1512.5"/>
<text text-anchor="start" x="88" y="-1523.9" font-family="Arial" font-size="14.00" fill="#000000">exclusive_area    </text>
<text text-anchor="start" x="215.5568" y="-1523.9" font-family="Arial" font-size="14.00" fill="#666666">[decimal(10,2)]</text>
<polygon fill="none" stroke="#000000" points="81,-1482.5 81,-1512.5 393,-1512.5 393,-1482.5 81,-1482.5"/>
<text text-anchor="start" x="88" y="-1493.9" font-family="Arial" font-size="14.00" fill="#000000">ceiling_height    </text>
<text text-anchor="start" x="207.7826" y="-1493.9" font-family="Arial" font-size="14.00" fill="#666666">[decimal(10,2)]</text>
<polygon fill="none" stroke="#000000" points="81,-1452.5 81,-1482.5 393,-1482.5 393,-1452.5 81,-1452.5"/>
<text text-anchor="start" x="88" y="-1463.9" font-family="Arial" font-size="14.00" fill="#000000">floor    </text>
<text text-anchor="start" x="149.4278" y="-1463.9" font-family="Arial" font-size="14.00" fill="#666666">[smallint(5)]</text>
<polygon fill="none" stroke="#000000" points="81,-1422.5 81,-1452.5 393,-1452.5 393,-1422.5 81,-1422.5"/>
<text text-anchor="start" x="88" y="-1433.9" font-family="Arial" font-size="14.00" fill="#000000">minimum_time    </text>
<text text-anchor="start" x="213.188" y="-1433.9" font-family="Arial" font-size="14.00" fill="#666666">[time]</text>
<polygon fill="none" stroke="#000000" points="81,-1392.5 81,-1422.5 393,-1422.5 393,-1392.5 81,-1392.5"/>
<text text-anchor="start" x="88" y="-1403.9" font-family="Arial" font-size="14.00" fill="#000000">maximum_time    </text>
<text text-anchor="start" x="217.0814" y="-1403.9" font-family="Arial" font-size="14.00" fill="#666666">[time]</text>
<polygon fill="none" stroke="#000000" points="81,-1362.5 81,-1392.5 393,-1392.5 393,-1362.5 81,-1362.5"/>
<text text-anchor="start" x="88" y="-1373.9" font-family="Arial" font-size="14.00" fill="#000000">start_date    </text>
<text text-anchor="start" x="184.4502" y="-1373.9" font-family="Arial" font-size="14.00" fill="#666666">[date]</text>
<polygon fill="none" stroke="#000000" points="81,-1332.5 81,-1362.5 393,-1362.5 393,-1332.5 81,-1332.5"/>
<text text-anchor="start" x="88" y="-1343.9" font-family="Arial" font-size="14.00" fill="#000000">end_date    </text>
<text text-anchor="start" x="180.5736" y="-1343.9" font-family="Arial" font-size="14.00" fill="#666666">[date]</text>
<polygon fill="none" stroke="#000000" points="81,-1302.5 81,-1332.5 393,-1332.5 393,-1302.5 81,-1302.5"/>
<text text-anchor="start" x="88" y="-1313.9" font-family="Arial" font-size="14.00" fill="#000000">is_ninjalock    </text>
<text text-anchor="start" x="194.5442" y="-1313.9" font-family="Arial" font-size="14.00" fill="#666666">[tinyint(1)]</text>
<polygon fill="none" stroke="#000000" points="81,-1272.5 81,-1302.5 393,-1302.5 393,-1272.5 81,-1272.5"/>
<text text-anchor="start" x="88" y="-1283.9" font-family="Arial" font-size="14.00" fill="#000000">is_display_entrance_note    </text>
<text text-anchor="start" x="280.9228" y="-1283.9" font-family="Arial" font-size="14.00" fill="#666666">[tinyint(1)]</text>
<polygon fill="none" stroke="#000000" points="81,-1242.5 81,-1272.5 393,-1272.5 393,-1242.5 81,-1242.5"/>
<text text-anchor="start" x="87.6487" y="-1253.9" font-family="Arial" font-size="14.00" fill="#000000">is_using_custom_business_hour    </text>
<text text-anchor="start" x="324.9067" y="-1253.9" font-family="Arial" font-size="14.00" fill="#666666">[tinyint(1)]</text>
<polygon fill="none" stroke="#000000" points="81,-1212.5 81,-1242.5 393,-1242.5 393,-1212.5 81,-1212.5"/>
<text text-anchor="start" x="88" y="-1223.9" font-family="Arial" font-size="14.00" fill="#000000">has_local_area_network    </text>
<text text-anchor="start" x="273.9102" y="-1223.9" font-family="Arial" font-size="14.00" fill="#666666">[tinyint(1)]</text>
<polygon fill="none" stroke="#000000" points="81,-1182.5 81,-1212.5 393,-1212.5 393,-1182.5 81,-1182.5"/>
<text text-anchor="start" x="88" y="-1193.9" font-family="Arial" font-size="14.00" fill="#000000">basic_price    </text>
<text text-anchor="start" x="192.9916" y="-1193.9" font-family="Arial" font-size="14.00" fill="#666666">[int(11) unsigned]</text>
<polygon fill="none" stroke="#000000" points="81,-1152.5 81,-1182.5 393,-1182.5 393,-1152.5 81,-1152.5"/>
<text text-anchor="start" x="88" y="-1163.9" font-family="Arial" font-size="14.00" fill="#000000">extend_price    </text>
<text text-anchor="start" x="202.3408" y="-1163.9" font-family="Arial" font-size="14.00" fill="#666666">[int(11)]</text>
<polygon fill="none" stroke="#000000" points="81,-1122.5 81,-1152.5 393,-1152.5 393,-1122.5 81,-1122.5"/>
<text text-anchor="start" x="88" y="-1133.9" font-family="Arial" font-size="14.00" fill="#000000">max_price    </text>
<text text-anchor="start" x="186.763" y="-1133.9" font-family="Arial" font-size="14.00" fill="#666666">[int(11)]</text>
<polygon fill="none" stroke="#000000" points="81,-1092.5 81,-1122.5 393,-1122.5 393,-1092.5 81,-1092.5"/>
<text text-anchor="start" x="88" y="-1103.9" font-family="Arial" font-size="14.00" fill="#000000">memo    </text>
<text text-anchor="start" x="161.0912" y="-1103.9" font-family="Arial" font-size="14.00" fill="#666666">[varchar(2000)]</text>
<polygon fill="none" stroke="#000000" points="81,-1062.5 81,-1092.5 393,-1092.5 393,-1062.5 81,-1062.5"/>
<text text-anchor="start" x="88" y="-1073.9" font-family="Arial" font-size="14.00" fill="#000000">floor_position    </text>
<text text-anchor="start" x="205.4446" y="-1073.9" font-family="Arial" font-size="14.00" fill="#666666">[smallint(5)]</text>
<polygon fill="none" stroke="#000000" points="81,-1032.5 81,-1062.5 393,-1062.5 393,-1032.5 81,-1032.5"/>
<text text-anchor="start" x="88" y="-1043.9" font-family="Arial" font-size="14.00" fill="#000000">is_tablet_linked    </text>
<text text-anchor="start" x="218.6732" y="-1043.9" font-family="Arial" font-size="14.00" fill="#666666">[int(11)]</text>
<polygon fill="none" stroke="#000000" points="81,-1002.5 81,-1032.5 393,-1032.5 393,-1002.5 81,-1002.5"/>
<text text-anchor="start" x="88" y="-1013.9" font-family="Arial" font-size="14.00" fill="#000000">batch_mail    </text>
<text text-anchor="start" x="189.8822" y="-1013.9" font-family="Arial" font-size="14.00" fill="#666666">[int(11)]</text>
<polygon fill="none" stroke="#000000" points="81,-972.5 81,-1002.5 393,-1002.5 393,-972.5 81,-972.5"/>
<text text-anchor="start" x="88" y="-983.9" font-family="Arial" font-size="14.00" fill="#000000">batch_mail_owner    </text>
<text text-anchor="start" x="235.7798" y="-983.9" font-family="Arial" font-size="14.00" fill="#666666">[int(11)]</text>
<polygon fill="none" stroke="#000000" points="81,-942.5 81,-972.5 393,-972.5 393,-942.5 81,-942.5"/>
<text text-anchor="start" x="88" y="-953.9" font-family="Arial" font-size="14.00" fill="#000000">guide_text    </text>
<text text-anchor="start" x="186.7882" y="-953.9" font-family="Arial" font-size="14.00" fill="#666666">[text]</text>
<polygon fill="none" stroke="#000000" points="81,-912.5 81,-942.5 393,-942.5 393,-912.5 81,-912.5"/>
<text text-anchor="start" x="88" y="-923.9" font-family="Arial" font-size="14.00" fill="#000000">eating_text    </text>
<text text-anchor="start" x="190.6788" y="-923.9" font-family="Arial" font-size="14.00" fill="#666666">[varchar(1000)]</text>
<polygon fill="none" stroke="#000000" points="81,-882.5 81,-912.5 393,-912.5 393,-882.5 81,-882.5"/>
<text text-anchor="start" x="88" y="-893.9" font-family="Arial" font-size="14.00" fill="#000000">cleanup_text    </text>
<text text-anchor="start" x="201.5708" y="-893.9" font-family="Arial" font-size="14.00" fill="#666666">[varchar(1000)]</text>
<polygon fill="none" stroke="#000000" points="81,-852.5 81,-882.5 393,-882.5 393,-852.5 81,-852.5"/>
<text text-anchor="start" x="88" y="-863.9" font-family="Arial" font-size="14.00" fill="#000000">facility_text    </text>
<text text-anchor="start" x="191.4348" y="-863.9" font-family="Arial" font-size="14.00" fill="#666666">[varchar(1000)]</text>
<polygon fill="none" stroke="#000000" points="81,-822.5 81,-852.5 393,-852.5 393,-822.5 81,-822.5"/>
<text text-anchor="start" x="88" y="-833.9" font-family="Arial" font-size="14.00" fill="#000000">change_layout    </text>
<text text-anchor="start" x="213.2454" y="-833.9" font-family="Arial" font-size="14.00" fill="#666666">[smallint(2)]</text>
<polygon fill="none" stroke="#000000" points="81,-792.5 81,-822.5 393,-822.5 393,-792.5 81,-792.5"/>
<text text-anchor="start" x="88" y="-803.9" font-family="Arial" font-size="14.00" fill="#000000">reservation_unit_an_hour    </text>
<text text-anchor="start" x="280.92" y="-803.9" font-family="Arial" font-size="14.00" fill="#666666">[tinyint(1)]</text>
<polygon fill="none" stroke="#000000" points="81,-762.5 81,-792.5 393,-792.5 393,-762.5 81,-762.5"/>
<text text-anchor="start" x="88" y="-773.9" font-family="Arial" font-size="14.00" fill="#000000">payment_period    </text>
<text text-anchor="start" x="222.5666" y="-773.9" font-family="Arial" font-size="14.00" fill="#666666">[int(11)]</text>
<polygon fill="none" stroke="#000000" points="81,-732.5 81,-762.5 393,-762.5 393,-732.5 81,-732.5"/>
<text text-anchor="start" x="88" y="-743.9" font-family="Arial" font-size="14.00" fill="#000000">sort_order    </text>
<text text-anchor="start" x="185.9902" y="-743.9" font-family="Arial" font-size="14.00" fill="#666666">[int(11)]</text>
<polygon fill="none" stroke="#000000" points="81,-702.5 81,-732.5 393,-732.5 393,-702.5 81,-702.5"/>
<text text-anchor="start" x="88" y="-713.9" font-family="Arial" font-size="14.00" fill="#000000">allow_tentative    </text>
<text text-anchor="start" x="214.7812" y="-713.9" font-family="Arial" font-size="14.00" fill="#666666">[tinyint(1)]</text>
<polygon fill="none" stroke="#000000" points="81,-672.5 81,-702.5 393,-702.5 393,-672.5 81,-672.5"/>
<text text-anchor="start" x="88" y="-683.9" font-family="Arial" font-size="14.00" fill="#000000">allow_change_reserved    </text>
<text text-anchor="start" x="270.0196" y="-683.9" font-family="Arial" font-size="14.00" fill="#666666">[tinyint(1)]</text>
<polygon fill="none" stroke="#000000" points="81,-642.5 81,-672.5 393,-672.5 393,-642.5 81,-642.5"/>
<text text-anchor="start" x="88" y="-653.9" font-family="Arial" font-size="14.00" fill="#000000">allow_extend_reservation    </text>
<text text-anchor="start" x="280.9074" y="-653.9" font-family="Arial" font-size="14.00" fill="#666666">[tinyint(1)]</text>
<polygon fill="none" stroke="#000000" points="81,-612.5 81,-642.5 393,-642.5 393,-612.5 81,-612.5"/>
<text text-anchor="start" x="88" y="-623.9" font-family="Arial" font-size="14.00" fill="#000000">change_reserved_limit_date    </text>
<text text-anchor="start" x="298.0266" y="-623.9" font-family="Arial" font-size="14.00" fill="#666666">[int(11)]</text>
<polygon fill="none" stroke="#000000" points="81,-582.5 81,-612.5 393,-612.5 393,-582.5 81,-582.5"/>
<text text-anchor="start" x="88" y="-593.9" font-family="Arial" font-size="14.00" fill="#000000">tentative_period    </text>
<text text-anchor="start" x="221.7938" y="-593.9" font-family="Arial" font-size="14.00" fill="#666666">[int(11)]</text>
<polygon fill="none" stroke="#000000" points="81,-552.5 81,-582.5 393,-582.5 393,-552.5 81,-552.5"/>
<text text-anchor="start" x="88" y="-563.9" font-family="Arial" font-size="14.00" fill="#000000">tentative_limit_date    </text>
<text text-anchor="start" x="242.7882" y="-563.9" font-family="Arial" font-size="14.00" fill="#666666">[int(11)]</text>
<polygon fill="none" stroke="#000000" points="81,-522.5 81,-552.5 393,-552.5 393,-522.5 81,-522.5"/>
<text text-anchor="start" x="88" y="-533.9" font-family="Arial" font-size="14.00" fill="#000000">include_tax    </text>
<text text-anchor="start" x="193.0042" y="-533.9" font-family="Arial" font-size="14.00" fill="#666666">[tinyint(1)]</text>
<polygon fill="none" stroke="#000000" points="81,-492.5 81,-522.5 393,-522.5 393,-492.5 81,-492.5"/>
<text text-anchor="start" x="88" y="-503.9" font-family="Arial" font-size="14.00" fill="#000000">ninjalock_serial    </text>
<text text-anchor="start" x="217.8766" y="-503.9" font-family="Arial" font-size="14.00" fill="#666666">[varchar(24)]</text>
<polygon fill="none" stroke="#000000" points="81,-462.5 81,-492.5 393,-492.5 393,-462.5 81,-462.5"/>
<text text-anchor="start" x="88" y="-473.9" font-family="Arial" font-size="14.00" fill="#000000">created_datetime    </text>
<text text-anchor="start" x="230.3478" y="-473.9" font-family="Arial" font-size="14.00" fill="#666666">[timestamp]</text>
<polygon fill="none" stroke="#000000" points="81,-432.5 81,-462.5 393,-462.5 393,-432.5 81,-432.5"/>
<text text-anchor="start" x="88" y="-443.9" font-family="Arial" font-size="14.00" fill="#000000">updated_datetime    </text>
<text text-anchor="start" x="234.2524" y="-443.9" font-family="Arial" font-size="14.00" fill="#666666">[timestamp]</text>
<polygon fill="none" stroke="#000000" points="81,-402.5 81,-432.5 393,-432.5 393,-402.5 81,-402.5"/>
<text text-anchor="start" x="88" y="-413.9" font-family="Arial" font-size="14.00" fill="#000000">start_reservable_time    </text>
<text text-anchor="start" x="256.7756" y="-413.9" font-family="Arial" font-size="14.00" fill="#666666">[smallint(3)]</text>
<polygon fill="none" stroke="#000000" points="81,-372.5 81,-402.5 393,-402.5 393,-372.5 81,-372.5"/>
<text text-anchor="start" x="88" y="-383.9" font-family="Arial" font-size="14.00" fill="#000000">end_reservable_time    </text>
<text text-anchor="start" x="252.899" y="-383.9" font-family="Arial" font-size="14.00" fill="#666666">[smallint(3)]</text>
<polygon fill="none" stroke="#000000" points="81,-342.5 81,-372.5 393,-372.5 393,-342.5 81,-342.5"/>
<text text-anchor="start" x="88" y="-353.9" font-family="Arial" font-size="14.00" fill="#000000">is_set_reservable_time    </text>
<text text-anchor="start" x="266.1136" y="-353.9" font-family="Arial" font-size="14.00" fill="#666666">[tinyint(1)]</text>
<polygon fill="none" stroke="#000000" points="81,-312.5 81,-342.5 393,-342.5 393,-312.5 81,-312.5"/>
<text text-anchor="start" x="88" y="-323.9" font-family="Arial" font-size="14.00" fill="#000000">is_buffer_time_setting_enabled    </text>
<text text-anchor="start" x="316.7096" y="-323.9" font-family="Arial" font-size="14.00" fill="#666666">[tinyint(1)]</text>
<polygon fill="none" stroke="#000000" points="81,-282.5 81,-312.5 393,-312.5 393,-282.5 81,-282.5"/>
<text text-anchor="start" x="88" y="-293.9" font-family="Arial" font-size="14.00" fill="#000000">buffer_time    </text>
<text text-anchor="start" x="192.2174" y="-293.9" font-family="Arial" font-size="14.00" fill="#666666">[time]</text>
<polygon fill="none" stroke="#000000" points="81,-252.5 81,-282.5 393,-282.5 393,-252.5 81,-252.5"/>
<text text-anchor="start" x="88" y="-263.9" font-family="Arial" font-size="14.00" fill="#000000">buffer_time_control    </text>
<text text-anchor="start" x="242.0056" y="-263.9" font-family="Arial" font-size="14.00" fill="#666666">[smallint(3)]</text>
<polygon fill="none" stroke="#000000" points="81,-222.5 81,-252.5 393,-252.5 393,-222.5 81,-222.5"/>
<text text-anchor="start" x="88" y="-233.9" font-family="Arial" font-size="14.00" fill="#000000">is_one_day_rental_enabled    </text>
<text text-anchor="start" x="294.1626" y="-233.9" font-family="Arial" font-size="14.00" fill="#666666">[tinyint(1)]</text>
<polygon fill="none" stroke="#000000" points="81,-192.5 81,-222.5 393,-222.5 393,-192.5 81,-192.5"/>
<text text-anchor="start" x="88" y="-203.9" font-family="Arial" font-size="14.00" fill="#000000">owner_buffer_time    </text>
<text text-anchor="start" x="238.115" y="-203.9" font-family="Arial" font-size="14.00" fill="#666666">[time]</text>
<polygon fill="none" stroke="#000000" points="81,-162.5 81,-192.5 393,-192.5 393,-162.5 81,-162.5"/>
<text text-anchor="start" x="88" y="-173.9" font-family="Arial" font-size="14.00" fill="#000000">external_buffer_time    </text>
<text text-anchor="start" x="249.7882" y="-173.9" font-family="Arial" font-size="14.00" fill="#666666">[time]</text>
<polygon fill="none" stroke="#000000" points="81,-132.5 81,-162.5 393,-162.5 393,-132.5 81,-132.5"/>
<text text-anchor="start" x="88" y="-143.9" font-family="Arial" font-size="14.00" fill="#000000">owner_buffer_time_control    </text>
<text text-anchor="start" x="287.9032" y="-143.9" font-family="Arial" font-size="14.00" fill="#666666">[smallint(3)]</text>
<polygon fill="none" stroke="#000000" points="81,-102.5 81,-132.5 393,-132.5 393,-102.5 81,-102.5"/>
<text text-anchor="start" x="88" y="-113.9" font-family="Arial" font-size="14.00" fill="#000000">external_buffer_time_control    </text>
<text text-anchor="start" x="299.5764" y="-113.9" font-family="Arial" font-size="14.00" fill="#666666">[smallint(3)]</text>
<polygon fill="none" stroke="#000000" points="81,-72.5 81,-102.5 393,-102.5 393,-72.5 81,-72.5"/>
<text text-anchor="start" x="88" y="-83.9" font-family="Arial" font-size="14.00" fill="#000000">is_lottery_setting_enabled    </text>
<text text-anchor="start" x="284.8106" y="-83.9" font-family="Arial" font-size="14.00" fill="#666666">[tinyint(1)]</text>
<polygon fill="none" stroke="#000000" points="81,-42.5 81,-72.5 393,-72.5 393,-42.5 81,-42.5"/>
<text text-anchor="start" x="88" y="-53.9" font-family="Arial" font-size="14.00" fill="#000000">lottery_period    </text>
<text text-anchor="start" x="206.9986" y="-53.9" font-family="Arial" font-size="14.00" fill="#666666">[int(5)]</text>
</g>
<!-- sk_room_charge_hour_weeks&#45;&gt;sk_rooms -->
<g id="edge1" class="edge">
<title>sk_room_charge_hour_weeks:room_id&#45;&gt;sk_rooms:id</title>
<path fill="none" stroke="#000000" d="M437.7275,-2074.9069C486.6527,-2046.6795 452.1547,-1797.5 393,-1797.5"/>
<polygon fill="#000000" stroke="#000000" points="437.6626,-2074.9241 426.8409,-2073.1518 432.8313,-2076.2121 428,-2077.5 428,-2077.5 428,-2077.5 432.8313,-2076.2121 429.1591,-2081.8482 437.6626,-2074.9241 437.6626,-2074.9241"/>
<text text-anchor="start" x="434.8365" y="-2087.5" font-family="Arial" font-size="10.00" fill="#000000">FOREIGN KEY (room_id) REFERENCES sk_rooms (id)</text>
</g>
</g>
</svg>
